<svg xmlns="http://www.w3.org/2000/svg" width="270" height="100" viewBox="0 0 270 100">
  <g id="グループ_9115" data-name="グループ 9115" transform="translate(-102 -246)">
    <rect id="長方形_23047" data-name="長方形 23047" width="270" height="100" transform="translate(102 246)" fill="#fff"/>
    <g id="グループ_9266" data-name="グループ 9266" transform="translate(111.438 249.035)">
      <path id="パス_4491" data-name="パス 4491" d="M44.919,35.208a11.77,11.77,0,0,1,8.393,3.107l-1.987,3.076a10.021,10.021,0,0,0-6.214-2.4c-4.806,0-7.625,3.588-7.625,7.817,0,4.325,2.915,8.137,7.656,8.137a9.8,9.8,0,0,0,6.6-2.883l2.179,2.979a12.243,12.243,0,0,1-8.939,3.684A11.436,11.436,0,0,1,33.226,46.869,11.432,11.432,0,0,1,44.919,35.208" fill="#d2cf27"/>
      <path id="パス_4492" data-name="パス 4492" d="M106.289,63.146c4.248,0,7.652,3.021,7.652,7.269a7.284,7.284,0,0,1-7.624,7.269c-4.248,0-7.651-2.994-7.651-7.269a7.3,7.3,0,0,1,7.623-7.269m.028,11.6a4.333,4.333,0,1,0-4.138-4.329,4.128,4.128,0,0,0,4.138,4.329" transform="translate(-44.55 -19.019)" fill="#0e2538"/>
      <path id="パス_4493" data-name="パス 4493" d="M150.949,63.472h3.322v1.606a8.621,8.621,0,0,1-.054.953h.054a5.387,5.387,0,0,1,4.929-2.886c3.076,0,4.818,1.606,4.818,5.282v8.929h-3.431V69.135c0-1.688-.435-2.832-2.2-2.832a3.833,3.833,0,0,0-3.73,2.832,5.867,5.867,0,0,0-.245,1.85v6.371h-3.458Z" transform="translate(-80.142 -19.019)" fill="#0e2538"/>
      <path id="パス_4494" data-name="パス 4494" d="M203.354,63.145a7.066,7.066,0,0,1,5.336,2.069l-1.524,2.369a5.445,5.445,0,0,0-3.622-1.5,4.126,4.126,0,0,0-4.22,4.3,4.227,4.227,0,0,0,4.329,4.356,6.389,6.389,0,0,0,4.084-1.77l1.334,2.45a7.909,7.909,0,0,1-5.718,2.26,7.274,7.274,0,1,1,0-14.538" transform="translate(-110.684 -19.019)" fill="#0e2538"/>
      <path id="パス_4495" data-name="パス 4495" d="M263.678,63.146c4,0,6.152,2.914,6.152,6.589,0,.408-.081,1.334-.081,1.334h-9.583a3.95,3.95,0,0,0,4.165,3.675,6.861,6.861,0,0,0,4-1.525l1.334,2.477a8.677,8.677,0,0,1-5.582,1.988,7.115,7.115,0,0,1-7.46-7.269c0-4.274,2.913-7.269,7.052-7.269m2.668,5.554a2.681,2.681,0,0,0-2.75-2.886,3.235,3.235,0,0,0-3.322,2.886Z" transform="translate(-152.084 -19.019)" fill="#0e2538"/>
      <path id="パス_4496" data-name="パス 4496" d="M302.682,63.763H306v2.4a9.326,9.326,0,0,1-.055.98H306a4.778,4.778,0,0,1,4.41-3.566,3.953,3.953,0,0,1,.626.054v3.4a5.979,5.979,0,0,0-.817-.054,3.93,3.93,0,0,0-3.784,2.913,7.435,7.435,0,0,0-.3,2.26v5.5h-3.457Z" transform="translate(-183.438 -19.31)" fill="#0e2538"/>
      <path id="パス_4497" data-name="パス 4497" d="M377.451,39.966h-7.464V36.41h19.062v3.556h-7.464v19.19h-4.133Z" transform="translate(-229.257 -0.819)" fill="#d2cf27"/>
      <path id="パス_4498" data-name="パス 4498" d="M434.105,36.411h13.616v3.556h-9.483v5.959h7.656v3.556h-7.656V55.6h9.995v3.557H434.105Z" transform="translate(-272.907 -0.819)" fill="#0e2538"/>
      <path id="パス_4499" data-name="パス 4499" d="M493.16,35.208a11.77,11.77,0,0,1,8.394,3.107l-1.987,3.076a10.021,10.021,0,0,0-6.214-2.4c-4.806,0-7.625,3.588-7.625,7.817,0,4.325,2.915,8.137,7.656,8.137a9.8,9.8,0,0,0,6.6-2.883l2.179,2.979a12.243,12.243,0,0,1-8.939,3.684,11.436,11.436,0,0,1-11.757-11.853A11.432,11.432,0,0,1,493.16,35.208" transform="translate(-305.149)" fill="#0e2538"/>
      <path id="パス_4500" data-name="パス 4500" d="M553.212,36.411h4.133v9.644h10.411V36.411h4.133V59.157h-4.133V49.61H557.344v9.547h-4.133Z" transform="translate(-353.991 -0.819)" fill="#0e2538"/>
      <path id="パス_4501" data-name="パス 4501" d="M107.77,45.093a5.83,5.83,0,0,0-.777.029v-.574a3.528,3.528,0,0,0,.792.05h3.457V41.091h-3.305a6.046,6.046,0,0,0-.835.036v-.582a3.978,3.978,0,0,0,.835.051h3.487c.094,0,.2-.008.378-.015-.015.181-.015.3-.015.566v3.719a4.877,4.877,0,0,0,.036.661h-.581v-.436Z" transform="translate(-50.218 -3.634)" fill="#0e2538"/>
      <path id="パス_4502" data-name="パス 4502" d="M128.99,44.845a6.347,6.347,0,0,0,2.114-.559,5.492,5.492,0,0,0,2.963-3.232,1.459,1.459,0,0,0,.443.429,6.374,6.374,0,0,1-2.215,2.774,7.32,7.32,0,0,1-2.71,1.082,4.078,4.078,0,0,0-.436.116Zm.465-4.5a9.444,9.444,0,0,1,1.75,1.366l-.378.45a7.977,7.977,0,0,0-1.729-1.424Z" transform="translate(-65.193 -3.495)" fill="#0e2538"/>
      <path id="パス_4503" data-name="パス 4503" d="M150.421,40.667a11.165,11.165,0,0,1,1.844.952l-.283.486a8.1,8.1,0,0,0-1.852-1Zm-.189,3.32a6.284,6.284,0,0,0,1.954-.45,4.786,4.786,0,0,0,2.179-1.619,5.434,5.434,0,0,0,.872-1.627,2.2,2.2,0,0,0,.45.385,5.691,5.691,0,0,1-2.8,3.13,8.283,8.283,0,0,1-1.838.625c-.116.022-.246.05-.392.08a1.651,1.651,0,0,0-.284.08Zm.755-5.055a10.751,10.751,0,0,1,1.8.915l-.3.486a7.615,7.615,0,0,0-1.786-.958Z" transform="translate(-79.585 -2.535)" fill="#0e2538"/>
      <path id="パス_4504" data-name="パス 4504" d="M175.493,48.658h1.554a3.627,3.627,0,0,0,.654-.036v.508a5.422,5.422,0,0,0-.661-.029h-3.515a5.265,5.265,0,0,0-.661.029v-.515a2.956,2.956,0,0,0,.654.043h1.474V46.145h-1.038a4.87,4.87,0,0,0-.647.029v-.508a3.838,3.838,0,0,0,.647.043H176.6a3.709,3.709,0,0,0,.646-.043v.508a3.5,3.5,0,0,0-.639-.029h-1.118Z" transform="translate(-95.061 -7.119)" fill="#0e2538"/>
      <path id="パス_4505" data-name="パス 4505" d="M195.069,39.019a3.517,3.517,0,0,0-.043.624,9.059,9.059,0,0,1-.393,3.24,4.431,4.431,0,0,1-1.256,1.793,1.349,1.349,0,0,0-.436-.392,3.59,3.59,0,0,0,1.227-1.67,9.9,9.9,0,0,0,.327-3.115,3.236,3.236,0,0,0-.029-.516Zm1.8-.08a2.817,2.817,0,0,0-.043.639l-.043,4.386a3.347,3.347,0,0,0,1.35-.841,3.6,3.6,0,0,0,.858-1.453,2.014,2.014,0,0,0,.406.421,4.132,4.132,0,0,1-1.46,1.867,4.846,4.846,0,0,1-1.038.53c-.131.051-.131.051-.233.087a1.112,1.112,0,0,0-.168.079l-.29-.334a1.224,1.224,0,0,0,.05-.493l.044-4.249a2.85,2.85,0,0,0-.03-.646Z" transform="translate(-108.729 -2.535)" fill="#0e2538"/>
      <path id="パス_4506" data-name="パス 4506" d="M239.444,41.643a6.759,6.759,0,0,1-.08.77,2.858,2.858,0,0,1-.98,1.917,4.271,4.271,0,0,1-1.279.719,1.267,1.267,0,0,0-.341-.472,2.752,2.752,0,0,0,1.837-1.432,4.145,4.145,0,0,0,.291-1.5h-1.968a6.76,6.76,0,0,0-.835.036v-.538a5.172,5.172,0,0,0,.843.044h4.248a5.184,5.184,0,0,0,.843-.044v.538a6.762,6.762,0,0,0-.836-.036Zm-2.622-2.3a3.965,3.965,0,0,0,.835.05h2.825a3.965,3.965,0,0,0,.835-.05v.552a5.9,5.9,0,0,0-.828-.036H237.65a5.882,5.882,0,0,0-.828.036Z" transform="translate(-138.102 -2.813)" fill="#0e2538"/>
      <path id="パス_4507" data-name="パス 4507" d="M257.934,43.317a8.067,8.067,0,0,1,.719,1.612l-.494.167a6.009,6.009,0,0,0-.682-1.627Zm4.1-.043a4.112,4.112,0,0,0-.16.588,6.525,6.525,0,0,1-.64,1.628,5.266,5.266,0,0,1-2.4,2.1,1.483,1.483,0,0,0-.334-.407,4.662,4.662,0,0,0,2.3-1.9,5.515,5.515,0,0,0,.617-1.562,3.081,3.081,0,0,0,.08-.493v-.073Zm-2.615-.247a7.283,7.283,0,0,1,.7,1.562l-.479.167a6.352,6.352,0,0,0-.669-1.59Z" transform="translate(-152.663 -5.323)" fill="#0e2538"/>
      <path id="パス_4508" data-name="パス 4508" d="M278.619,38.038a1.378,1.378,0,0,0-.16.3,6.814,6.814,0,0,1-.334.646c.094-.022.094-.022,2.193-.057a.716.716,0,0,0,.378-.051l.312.3c-.065.088-.065.095-.145.356a7.7,7.7,0,0,1-1.453,2.731,7.1,7.1,0,0,1-2.527,1.816,1.1,1.1,0,0,0-.364-.429,6.186,6.186,0,0,0,2.565-1.838,6.672,6.672,0,0,0,1.249-2.433l-2.448.043a7.007,7.007,0,0,1-1.736,1.889,1.081,1.081,0,0,0-.406-.379,5.378,5.378,0,0,0,1.822-1.99,3.293,3.293,0,0,0,.457-1.06Z" transform="translate(-165.098 -1.822)" fill="#0e2538"/>
      <path id="パス_4509" data-name="パス 4509" d="M345.964,54.024l-3.375,6.415,4.276,4.354-1.34,1.288-3.941-4.045c-1.288,2.525-2.705,4.1-5.771,4.1a5.506,5.506,0,0,1-5.745-5.41c0-3.169,2.705-4.843,4.586-5.719-1.288-1.365-2.318-2.524-2.37-4.3a4.459,4.459,0,0,1,8.913,0c0,2.576-2.01,3.607-3.787,4.483l3.89,3.967,2.628-5.127Zm-10.1,2.19c-2.885,1.34-3.71,2.834-3.736,4.38a3.707,3.707,0,0,0,3.787,3.684c2.215,0,3.271-1.288,4.353-3.5Zm.85-8.192a2.536,2.536,0,0,0-2.55,2.55c0,1.494,1.211,2.524,2.113,3.452,2.061-1,3.117-1.649,3.117-3.349a2.616,2.616,0,0,0-2.653-2.653Z" transform="translate(-202.082 -7.601)" fill="#767676"/>
      <path id="パス_4510" data-name="パス 4510" d="M221.392,41.03l-1.017,1.933,1.289,1.312-.4.388-1.188-1.219a1.8,1.8,0,0,1-1.74,1.234,1.66,1.66,0,0,1-1.732-1.63,2.018,2.018,0,0,1,1.382-1.724,1.961,1.961,0,0,1-.714-1.3,1.344,1.344,0,0,1,2.687,0c0,.776-.606,1.087-1.142,1.351l1.173,1.2.792-1.545Zm-3.044.66c-.87.4-1.118.854-1.126,1.32a1.117,1.117,0,0,0,1.142,1.11c.668,0,.986-.388,1.312-1.056Zm.256-2.469a.764.764,0,0,0-.768.769c0,.45.365.761.637,1.041.621-.3.939-.5.939-1.009a.789.789,0,0,0-.8-.8Z" transform="translate(-124.836 -2.394)" fill="#767676"/>
      <g id="グループ_9265" data-name="グループ 9265" transform="translate(99.614 44.453)">
        <rect id="長方形_23090" data-name="長方形 23090" width="3.457" height="3.447" transform="translate(0 0)" fill="#0e2538"/>
        <rect id="長方形_23091" data-name="長方形 23091" width="3.457" height="9.811" transform="translate(0 4.074)" fill="#0e2538"/>
      </g>
    </g>
  </g>
</svg>
