<svg xmlns="http://www.w3.org/2000/svg" width="270" height="100" viewBox="0 0 270 100">
  <g id="グループ_9114" data-name="グループ 9114" transform="translate(-102 -246)">
    <rect id="長方形_23047" data-name="長方形 23047" width="270" height="100" transform="translate(102 246)" fill="#fff"/>
    <g id="レイヤー_2" data-name="レイヤー 2" transform="translate(134 267)">
      <g id="フルカラー" transform="translate(0 0)">
        <path id="パス_4094" data-name="パス 4094" d="M1.079,2.149l4.2.367A1.117,1.117,0,0,0,6.449,1.461,1.11,1.11,0,0,0,5.321.367h0L1.121,0a1.16,1.16,0,0,0-.8.312A1.014,1.014,0,0,0,0,1.061a1.01,1.01,0,0,0,.3.753,1.155,1.155,0,0,0,.78.335Z" transform="translate(6.886 10.114)" fill="#3a7eef"/>
        <path id="パス_4095" data-name="パス 4095" d="M3.043,4.573h0a1.1,1.1,0,0,0,.8.314,1.134,1.134,0,0,0,.882-.314,1,1,0,0,0,.322-.747,1.013,1.013,0,0,0-.322-.76L1.923.3a1.206,1.206,0,0,0-1.6,0,1,1,0,0,0,0,1.48Z" transform="translate(10.62 3.288)" fill="#3a7eef"/>
        <path id="パス_4096" data-name="パス 4096" d="M1.134,5.66A1.1,1.1,0,0,0,2.268,4.6V1.061A1.1,1.1,0,0,0,1.134,0,1.1,1.1,0,0,0,0,1.061V4.6A1.1,1.1,0,0,0,1.134,5.66Z" transform="translate(18.228 0)" fill="#3a7eef"/>
        <path id="パス_4097" data-name="パス 4097" d="M40.546,9.04h0a21.675,21.675,0,0,0-11.2-.092c0-2.227-.112-5.24-2.058-7.219A6.456,6.456,0,0,0,22.792,0h-.336c-7.855,1.638-6.819,12.485-6.5,16.049a15.534,15.534,0,0,0,.294,2.62c.182,1.153.42,2.62,0,2.987-.2.17-.672.131-1.036.092-4.2-.249-4.719.3-4.957.563a.811.811,0,0,0-.252.576,21.822,21.822,0,0,0,0,2.922,54.214,54.214,0,0,1,0,6.852H9.127V23.1a.881.881,0,0,0-.266-.76c-.518-.511-1.582-.5-3.164-.419H4.618a1.154,1.154,0,0,0-1.176,1.1v9.642H2.448a51.394,51.394,0,0,1,0-6.485c.07-2.555.084-3.026-.21-3.236a1.109,1.109,0,0,0-1.2-.59c-.966.236-1.19,1.31-.938,8.686V33.67a.928.928,0,0,0,.252.786c.518.537,1.61.511,3.234.419H4.674A1.153,1.153,0,0,0,5.85,33.762V24.2a4.88,4.88,0,0,1,.63,0h.266a56.165,56.165,0,0,1,.084,6.826,18.649,18.649,0,0,0,0,2.9A.889.889,0,0,0,7.1,34.5c.5.511,1.568.5,3.108.406h1.05a1.153,1.153,0,0,0,1.176-1.114V24.159a21.475,21.475,0,0,1,4.719.144h.56a1.613,1.613,0,0,0,1.316-.472c.784-.825.434-2.424,0-4.441a18.955,18.955,0,0,1-.56-3.577c-.574-6.157.154-10.415,2.086-12.3a4.366,4.366,0,0,1,3.36-1.179c2.8.734,3.024,2.791,2.982,5.607,0,1.572,0,2.922,1.05,3.485l.742.275.28-.131a11.188,11.188,0,0,1,1.778-.616,16.3,16.3,0,0,1,9.437.249A15.179,15.179,0,0,1,50.894,26.111,16.287,16.287,0,0,1,40.126,40.862c-5.6,1.179-9.451.485-12.5-2.319a4.885,4.885,0,0,1-1.5-4.795,1.609,1.609,0,0,1,1.05-1.245c1.512,1.153,4.2,2.122,8.821.314a1.408,1.408,0,0,0,.434-.275c2.016-1.9,1.4-3.157.826-3.734-1.806-1.873-7.435-1.494-9.7.144a.818.818,0,0,1-.28-.432,7.234,7.234,0,0,1,.812-4.612,7.94,7.94,0,0,1,.63.773,3.512,3.512,0,0,0,1.974,1.664,5.473,5.473,0,0,0,5.895-1.022l.182-.17a2.413,2.413,0,0,0,.476-3.21c-1.274-1.834-5.363-2.62-7.519-2.162.434-1.9,2.38-2.817,5.4-2.515a1.266,1.266,0,0,0,.945-.227,1.107,1.107,0,0,0,.455-.808,1.04,1.04,0,0,0-.266-.838,1.32,1.32,0,0,0-.882-.419c-3.192,0-5.349.459-6.623,1.651a5.791,5.791,0,0,0-1.484,4.612c-3.01,2.5-2.534,6.629-1.89,9.551-1.736,2.057-3.528,5.24.49,9.354l.084.079a13.151,13.151,0,0,0,9.129,3.642,27.253,27.253,0,0,0,5.461-.747c7.672-2.558,12.743-9.412,12.6-17.031A17.848,17.848,0,0,0,40.546,9.04ZM34.386,30.369a.7.7,0,0,1-.56.76c-1.4.55-4.2.5-4.789-.092a.1.1,0,0,1,0-.144,8.866,8.866,0,0,1,4.817-1.074A.592.592,0,0,1,34.386,30.369Zm-.266-6.249a2.779,2.779,0,0,1-3.024-.21,1.9,1.9,0,0,1-1.008-1.769,5.1,5.1,0,0,1,4.4.773C34.652,23.019,34.946,23.373,34.12,24.119Z" transform="translate(0 8.843)" fill="#3a7eef"/>
        <path id="パス_4098" data-name="パス 4098" d="M6.595,13V6.511a.136.136,0,0,1,.14-.131H21.016a1.415,1.415,0,0,0,1.218-.694l2.072-3.839A1.237,1.237,0,0,0,24.222.621,1.42,1.42,0,0,0,23.089,0h-.434a1.413,1.413,0,0,0-1.218.707l-1.05,2.031a.128.128,0,0,1-.126.065H4.116a1.357,1.357,0,0,0-1.4,1.31v6.551a.136.136,0,0,1-.14.131H1.4A1.357,1.357,0,0,0,0,12.105v.917a1.357,1.357,0,0,0,1.4,1.31H5.209a1.448,1.448,0,0,0,.991-.4A1.266,1.266,0,0,0,6.595,13Z" transform="translate(66.366 25.534)" fill="#3a7eef"/>
        <path id="パス_4099" data-name="パス 4099" d="M3.477,0h-.42a1.416,1.416,0,0,0-1.2.681L.13,3.773A1.237,1.237,0,0,0,.2,5a1.418,1.418,0,0,0,1.132.63h.42a1.417,1.417,0,0,0,1.218-.681L4.695,1.861a1.236,1.236,0,0,0,0-1.245A1.427,1.427,0,0,0,3.477,0Z" transform="translate(89.73 25.534)" fill="#3a7eef"/>
        <path id="パス_4100" data-name="パス 4100" d="M22.641,0h-1.2a1.357,1.357,0,0,0-1.4,1.31v9.171a6.544,6.544,0,0,1-6.749,6.3H1.4A1.357,1.357,0,0,0,0,18.093v1.022a1.357,1.357,0,0,0,1.4,1.31H16.1a7.724,7.724,0,0,0,7.967-7.454V1.284A1.362,1.362,0,0,0,22.641,0Z" transform="translate(68.55 31.233)" fill="#3a7eef"/>
        <path id="パス_4101" data-name="パス 4101" d="M1.3,8.437a1.13,1.13,0,0,0,.37.829,1.292,1.292,0,0,0,.89.337H3.29a1.292,1.292,0,0,0,.89-.337,1.13,1.13,0,0,0,.37-.829V1.179A1.222,1.222,0,0,0,3.29,0H1.26A1.222,1.222,0,0,0,0,1.179v.472A1.359,1.359,0,0,0,1.3,2.856Z" transform="translate(98.625 35.137)" fill="#3a7eef"/>
        <path id="パス_4102" data-name="パス 4102" d="M16.368,0h-.854a1.222,1.222,0,0,0-1.26,1.179v9.459a3.2,3.2,0,0,1-1.029,2.343,3.655,3.655,0,0,1-2.5.972H1.26A1.222,1.222,0,0,0,0,15.132v.734a1.222,1.222,0,0,0,1.26,1.179H12.882a4.6,4.6,0,0,0,4.747-4.4V1.179A1.222,1.222,0,0,0,16.368,0Z" transform="translate(99.409 34.521)" fill="#3a7eef"/>
        <rect id="長方形_22951" data-name="長方形 22951" width="3.22" height="9.616" rx="0.9" transform="translate(106.354 35.137)" fill="#3a7eef"/>
        <path id="パス_4103" data-name="パス 4103" d="M1.35,5.529h.42a1.414,1.414,0,0,0,1.2-.694L4.626,1.913a1.238,1.238,0,0,0,0-1.31A1.425,1.425,0,0,0,3.464,0H3.058A1.412,1.412,0,0,0,1.826.721L.188,3.642a1.237,1.237,0,0,0,0,1.31A1.429,1.429,0,0,0,1.35,5.529Z" transform="translate(142.333 25.482)" fill="#3a7eef"/>
        <rect id="長方形_22952" data-name="長方形 22952" width="15.612" height="3.603" rx="0.97" transform="translate(123.842 28.482)" fill="#3a7eef"/>
        <rect id="長方形_22953" data-name="長方形 22953" width="15.612" height="3.577" rx="0.97" transform="translate(123.842 36.696)" fill="#3a7eef"/>
        <path id="パス_4104" data-name="パス 4104" d="M25.987,0h-.42a1.417,1.417,0,0,0-1.218.681L22.725,3.6a1.238,1.238,0,0,0,0,1.31,1.3,1.3,0,0,0,.812.563h-.7a1.357,1.357,0,0,0-1.4,1.31v9.328a6.6,6.6,0,0,1-6.791,6.354H1.4A1.357,1.357,0,0,0,0,23.778v1.048a1.357,1.357,0,0,0,1.4,1.31H17.376A7.791,7.791,0,0,0,25.4,18.63V6.839a1.329,1.329,0,0,0-1.022-1.232,1.413,1.413,0,0,0,1.19-.694l1.624-2.922a1.237,1.237,0,0,0-.072-1.23,1.418,1.418,0,0,0-1.132-.63Z" transform="translate(123.52 25.534)" fill="#3a7eef"/>
        <path id="パス_4105" data-name="パス 4105" d="M17.026,0H1.26A1.222,1.222,0,0,0,0,1.179v.747A1.222,1.222,0,0,0,1.26,3.105H14.87V6.747H1.638A1.222,1.222,0,0,0,.378,7.926v.642a1.13,1.13,0,0,0,.37.829,1.292,1.292,0,0,0,.89.337H14.9v.707a3.421,3.421,0,0,1-3.528,3.3H1.288a1.222,1.222,0,0,0-1.26,1.179v.76a1.222,1.222,0,0,0,1.26,1.179H13.554A4.614,4.614,0,0,0,18.3,12.407V1.179a1.129,1.129,0,0,0-.37-.842,1.293,1.293,0,0,0-.9-.337Z" transform="translate(155.038 34.757)" fill="#3a7eef"/>
        <path id="パス_4106" data-name="パス 4106" d="M4.5.616A1.337,1.337,0,0,0,3.337,0h-.42A1.417,1.417,0,0,0,1.7.681L.13,3.5A1.237,1.237,0,0,0,.2,4.729a1.418,1.418,0,0,0,1.132.63h.49a1.416,1.416,0,0,0,1.2-.681L4.6,1.861A1.238,1.238,0,0,0,4.5.616Z" transform="translate(201.141 25.586)" fill="#3a7eef"/>
        <path id="パス_4107" data-name="パス 4107" d="M23.145,6.053h-1.2a1.5,1.5,0,0,0-.35,0,1.561,1.561,0,0,0,.266-.328L23.985,1.86A1.237,1.237,0,0,0,23.913.63,1.418,1.418,0,0,0,22.781,0h-.434a1.414,1.414,0,0,0-1.2.694L20.064,2.66a.171.171,0,0,1-.126.066H1.4A1.357,1.357,0,0,0,0,4.035V5.162a1.357,1.357,0,0,0,1.4,1.31H20.638a1.5,1.5,0,0,0,.35,0,1.271,1.271,0,0,0-.42.917v8.7a6.585,6.585,0,0,1-6.735,6.288H6.3a1.357,1.357,0,0,0-1.4,1.31v1.074a1.357,1.357,0,0,0,1.4,1.31H16.55a7.765,7.765,0,0,0,8.009-7.481V7.323A1.362,1.362,0,0,0,23.145,6.053Z" transform="translate(177.931 25.495)" fill="#3a7eef"/>
        <path id="パス_4108" data-name="パス 4108" d="M1.288,0H0V6.315H2.1V5.123H1.288Z" transform="translate(74.598 7.271)" fill="#3a7eef"/>
        <path id="パス_4109" data-name="パス 4109" d="M.728,5.123H0V6.315H2.03V1.166h.784V0H.728Z" transform="translate(69.292 7.271)" fill="#3a7eef"/>
        <path id="パス_4110" data-name="パス 4110" d="M1.9,0H.616V3.039H0v1.14H1.9V1.873h3.3V5.319H.616V6.511H6.5V1.873h.742V.694H1.9Z" transform="translate(80.255 7.075)" fill="#3a7eef"/>
        <path id="パス_4111" data-name="パス 4111" d="M5.321,5.083H0V6.289H6.595V0H5.321Z" transform="translate(91.092 7.297)" fill="#3a7eef"/>
        <path id="パス_4112" data-name="パス 4112" d="M2.464,1.756H3.752V0H0V1.192H2.464Z" transform="translate(91.022 7.468)" fill="#3a7eef"/>
        <path id="パス_4113" data-name="パス 4113" d="M0,1.192H5.713V3.786H1.6V6.3H2.912V4.965H7V0H0Z" transform="translate(101.384 7.454)" fill="#3a7eef"/>
        <path id="パス_4114" data-name="パス 4114" d="M6.763,1.926V.563H4.27V0H2.982V.563H.126V1.756H4.9L.756,4.69H0V5.909H1.162l1.806-1.3V6.577h1.3V4.415l2.94,1.363v-1.3L4.747,3.341Z" transform="translate(112.067 7.061)" fill="#3a7eef"/>
        <rect id="長方形_22954" data-name="長方形 22954" width="4.2" height="1.179" transform="translate(122.89 9.59)" fill="#3a7eef"/>
        <path id="パス_4115" data-name="パス 4115" d="M6.217,1.363H5.755L6.511,0H5.293L4.369,1.664H5.377v3.93H0V6.786H6.651V1.664h.616L8.191,0H6.973Z" transform="translate(122.806 6.799)" fill="#3a7eef"/>
        <rect id="長方形_22955" data-name="長方形 22955" width="4.2" height="1.192" transform="translate(122.89 7.546)" fill="#3a7eef"/>
        <path id="パス_4116" data-name="パス 4116" d="M5.391,1.179H6.945V0H4.607L3.262,2.227,0,.432v1.4L2.632,3.288,1.54,5.083H.014V6.275H2.338L3.752,3.9,7.029,5.7V4.284L4.4,2.843Z" transform="translate(133.601 7.31)" fill="#3a7eef"/>
        <path id="パス_4117" data-name="パス 4117" d="M2.478,1.756H3.752V0H0V1.192H2.478Z" transform="translate(144.145 7.468)" fill="#3a7eef"/>
        <path id="パス_4118" data-name="パス 4118" d="M5.307,5.083H0V6.289H6.595V0H5.307Z" transform="translate(144.229 7.297)" fill="#3a7eef"/>
        <path id="パス_4119" data-name="パス 4119" d="M1.274,0H0V6.6H1.274V3.668H6.315V2.463H1.274Z" transform="translate(154.786 7.075)" fill="#3a7eef"/>
        <path id="パス_4120" data-name="パス 4120" d="M.672,1.991H0V3.144H1.932V1.179H5.545V4.9H.518V6.079H6.833V0H.672Z" transform="translate(164.531 7.507)" fill="#3a7eef"/>
        <path id="パス_4121" data-name="パス 4121" d="M0,1.179H5.629V3.144H.2V4.336H6.917V0H0Z" transform="translate(175.228 9.249)" fill="#3a7eef"/>
        <rect id="長方形_22956" data-name="長方形 22956" width="6.889" height="1.192" transform="translate(175.214 7.284)" fill="#3a7eef"/>
        <path id="パス_4122" data-name="パス 4122" d="M3.92,0h-1.3V.616H0V4.088H1.274V1.808H5.447V5.319H.476V6.511H6.721V.616H3.92Z" transform="translate(185.94 7.075)" fill="#3a7eef"/>
        <path id="パス_4123" data-name="パス 4123" d="M1.218,1.664,2.142,0H.924L0,1.664Z" transform="translate(201.286 6.799)" fill="#3a7eef"/>
        <path id="パス_4124" data-name="パス 4124" d="M1.288,0H0V6.6H1.288V3.668H6.315V2.463H1.288Z" transform="translate(196.623 7.075)" fill="#3a7eef"/>
        <path id="パス_4125" data-name="パス 4125" d="M2.142,0H.924L0,1.664H1.218Z" transform="translate(199.605 6.799)" fill="#3a7eef"/>
      </g>
    </g>
  </g>
</svg>
