<svg xmlns="http://www.w3.org/2000/svg" width="270" height="100" viewBox="0 0 270 100"><g transform="translate(-102 -246)"><rect width="270" height="100" transform="translate(102 246)" fill="none"/><g transform="translate(-4.932 -99.672)"><rect width="250" height="63" transform="translate(116.932 364.172)" fill="#00336f" opacity="0"/><g transform="translate(127.468 375.808)"><g transform="translate(38.517)"><path d="M220.786,412.117h-7.7v-27.58a3.7,3.7,0,0,0-.309-1.509,4.006,4.006,0,0,0-.835-1.225,3.848,3.848,0,0,0-6.585,2.734v27.58h-7.73v-27.58a3.852,3.852,0,1,0-7.7,0v27.58H182.19v-27.58a11.365,11.365,0,0,1,.9-4.512,11.555,11.555,0,0,1,18.409-4.081,11.537,11.537,0,0,1,18.383,4.081,11.377,11.377,0,0,1,.9,4.512Z" transform="translate(-182.19 -372.955)" fill="#00336f"/><path d="M246.813,385.337a11.128,11.128,0,0,1,.916-4.5,11.773,11.773,0,0,1,6.168-6.168,11.139,11.139,0,0,1,4.5-.916h16.377v7.73H258.395a3.819,3.819,0,0,0-3.852,3.851,3.926,3.926,0,0,0,.3,1.522,3.767,3.767,0,0,0,.821,1.238,3.816,3.816,0,0,0,2.734,1.118h6.384a11.374,11.374,0,0,1,4.511.9,11.524,11.524,0,0,1,6.168,6.168,11.6,11.6,0,0,1-6.168,15.177,11.224,11.224,0,0,1-4.511.916h-17.16v-7.731h17.157a3.852,3.852,0,1,0,0-7.7h-6.384a11.129,11.129,0,0,1-4.5-.916,11.736,11.736,0,0,1-6.168-6.181,11.224,11.224,0,0,1-.914-4.508Z" transform="translate(-203.342 -373.217)" fill="#00336f"/></g><path d="M157.766,388.981V408.26a19.822,19.822,0,0,1-12.9,4.742,19.487,19.487,0,0,1-5.294-.713,19.874,19.874,0,0,1-4.749-2.018,20.9,20.9,0,0,1-4.043-3.128,19.514,19.514,0,0,1-3.121-4.036,20.217,20.217,0,0,1-2.011-4.783,19.889,19.889,0,0,1-.713-5.308,19.581,19.581,0,0,1,.713-5.281,20.328,20.328,0,0,1,2.011-4.749,19.551,19.551,0,0,1,3.121-4.043,20.184,20.184,0,0,1,8.792-5.119,19.931,19.931,0,0,1,18.2,4.029l-4.043,6.734a12.9,12.9,0,0,0-4.036-2.785,12.02,12.02,0,0,0-9.579-.04,12.622,12.622,0,0,0-3.888,2.624,12.374,12.374,0,0,0-2.644,3.881,11.736,11.736,0,0,0-.969,4.749,11.938,11.938,0,0,0,.969,4.8,12.523,12.523,0,0,0,6.532,6.545,11.792,11.792,0,0,0,4.756.969,11.379,11.379,0,0,0,2.832-.35,13.324,13.324,0,0,0,2.61-.969v-7.877h-7.151v-7.151Z" transform="translate(-124.932 -373.006)" fill="#00336f"/></g><g transform="translate(245.092 392.298)"><path d="M301.413,402.129a6.715,6.715,0,0,0-1.625-1.029l.656-.888a6.443,6.443,0,0,1,1.675.948Zm-1.443,4.005a29.576,29.576,0,0,0,1.473-3.258l.959.666c-.394,1.079-.888,2.26-1.352,3.249Zm1.906-6.649a6.6,6.6,0,0,0-1.644-1.07l.686-.878a7.274,7.274,0,0,1,1.685.989Zm6.589,3.915c-.02.4-.05.747-.081,1.059h.8v1.009h-.928a2.21,2.21,0,0,1-.3.918,1.018,1.018,0,0,1-.807.454,7.112,7.112,0,0,1-1.271.031,2.291,2.291,0,0,0-.293-.979c.435.03.828.04,1.03.04a.4.4,0,0,0,.373-.162,1.075,1.075,0,0,0,.132-.3h-3.037l-.081.494-1.15-.09c.131-.676.283-1.544.414-2.472H302.4v-1.08h1c.071-.554.131-1.109.182-1.624-.121.161-.242.3-.363.444a5.546,5.546,0,0,0-1.009-.686,6.917,6.917,0,0,0,1.6-2.986l1.181.242c-.091.3-.192.605-.3.9h4.389v1.07h-4.873a7.056,7.056,0,0,1-.394.666h4.793s0,.343-.009.484c-.021.545-.041,1.039-.071,1.493h.768v1.08Zm-4.1,0c-.051.363-.1.716-.141,1.059h.949c.04-.323.081-.686.12-1.059Zm.131-1.08h.907c.021-.322.051-.646.071-.958h-.868Zm2.775,2.14q.045-.439.091-1.059h-1.039c-.04.373-.081.737-.121,1.059Zm.151-2.14c.011-.292.03-.615.041-.958H306.5c-.02.312-.05.636-.08.958Z" transform="translate(-299.788 -397.468)" fill="#00336f"/><path d="M326.3,402.19a8.326,8.326,0,0,0,2.109,1.352,5.8,5.8,0,0,0-.879,1.049,8.512,8.512,0,0,1-1.23-.8v3.078h-1.251v-4.248a11.457,11.457,0,0,1-1.23-1.621,8.959,8.959,0,0,1-3.955,5.8,5.085,5.085,0,0,0-.959-.9,6.858,6.858,0,0,0,2.734-2.613,12.877,12.877,0,0,0-1.514-1.15,4.957,4.957,0,0,1-.515.6,7.243,7.243,0,0,0-1-.767,9.134,9.134,0,0,0,2.371-4.5l1.191.231c-.111.424-.233.827-.374,1.231h1.4l.213-.04.787.272q-.076.454-.152.878l.374-.141a6.786,6.786,0,0,0,.626.969v-3.38H326.3Zm-4.954-2.119a10.764,10.764,0,0,1-.605,1.17,12.31,12.31,0,0,1,1.443.979,11.486,11.486,0,0,0,.646-2.149Z" transform="translate(-305.95 -397.468)" fill="#00336f"/><path d="M341.6,397.812c-.009.162-.02.363-.03.575.081,1.392.586,5.741,4.349,7.507a3.969,3.969,0,0,0-.928,1.019,8,8,0,0,1-3.975-5.065,8.619,8.619,0,0,1-3.733,5.065,4.2,4.2,0,0,0-1.009-.959c4.026-2.231,3.885-6.811,3.955-8.143Z" transform="translate(-311.728 -397.581)" fill="#00336f"/><path d="M357.643,403.532c-.2-.323-.525-.777-.858-1.212v4.562h-1.21v-3.9a8.908,8.908,0,0,1-1.232,2.26,5.838,5.838,0,0,0-.615-1.2,9.2,9.2,0,0,0,1.7-3.35h-1.4v-1.14h1.554v-2.078h1.21v2.078h1.272v1.14h-1.272v.272c.4.333,1.333,1.3,1.555,1.554Zm5.62-2.845H362.3v4.722c0,.7-.151,1.009-.564,1.2a4.769,4.769,0,0,1-1.917.232,4.62,4.62,0,0,0-.4-1.211c.556.021,1.181.021,1.352.021s.252-.061.252-.243v-3.067a11.735,11.735,0,0,1-2.683,3.057,4.7,4.7,0,0,0-.868-.989,9.7,9.7,0,0,0,3.188-3.723h-2.32v-1.14h2.683v-2.058H362.3v2.058h.959Z" transform="translate(-317.443 -397.468)" fill="#00336f"/><path d="M309.643,419.867a17.352,17.352,0,0,1-3.557,4.078c.6.594,1.21,1.272,1.617,1.762l-1.22.97a27.346,27.346,0,0,0-1.992-2.253,22.045,22.045,0,0,0-2.3-2l1.106-.887c.417.314,1.105.877,1.762,1.45a11.572,11.572,0,0,0,2.648-3H302.2c-.417,0-.98.052-1.2.073V418.6a10.013,10.013,0,0,0,1.2.094h5.788a3.378,3.378,0,0,0,.969-.115l1.043.855a3.665,3.665,0,0,0-.357.433Z" transform="translate(-300.184 -404.376)" fill="#00336f"/><path d="M323.662,417.906v.542h1.252a3.1,3.1,0,0,0,.866-.1l.866.845c-.272.261-.584.616-.814.866a15.669,15.669,0,0,1-2.19,2.044c0,.834-.011,1.972-.011,2.628,0,.418.042,1.012.073,1.335h-1.5a12.026,12.026,0,0,0,.083-1.335v-1.783a18.237,18.237,0,0,1-3.2,1.283l-.8-1.23a12.948,12.948,0,0,0,4.255-1.742,6.891,6.891,0,0,0,1.752-1.554h-3.775c-.375,0-1.033.01-1.356.042v-1.366a9.808,9.808,0,0,0,1.335.073h1.8v-.542a6.645,6.645,0,0,0-.063-.96h1.492A8.457,8.457,0,0,0,323.662,417.906Zm.636,4.765.866-1a23.5,23.5,0,0,1,2.5,1.512l-.875,1.148a16.344,16.344,0,0,0-2.489-1.66Z" transform="translate(-305.841 -403.843)" fill="#00336f"/><path d="M339.772,421.113l-.761,1.168c-.6-.417-1.679-1.115-2.378-1.491l.751-1.147a28.006,28.006,0,0,1,2.388,1.47Zm.834,2.378a10.553,10.553,0,0,0,4.057-3.911l.8,1.419a12.587,12.587,0,0,1-4.14,3.754,13.125,13.125,0,0,1-3.482,1.282l-.783-1.366a11.207,11.207,0,0,0,3.548-1.179Zm.761-4.734L340.6,419.9c-.584-.407-1.668-1.106-2.357-1.491l.751-1.148c.684.378,1.831,1.108,2.373,1.5Zm3.108.323-.907.385a9.394,9.394,0,0,0-.918-1.637l.876-.365a17.718,17.718,0,0,1,.949,1.616Zm1.46-.564-.887.4a9.978,9.978,0,0,0-.98-1.585l.887-.365a13.51,13.51,0,0,1,.981,1.549Z" transform="translate(-311.848 -403.849)" fill="#00336f"/><path d="M361.309,418.892a15.787,15.787,0,0,1-1.4,2.837,27.2,27.2,0,0,1,2.5,2.3l-1.074,1.189a21.038,21.038,0,0,0-2.315-2.305,13.022,13.022,0,0,1-3.879,3.223l-1.168-1.053a11.465,11.465,0,0,0,3.963-3.076,28.49,28.49,0,0,0-2.815-1.981l.887-1.064c.834.511,1.929,1.262,2.773,1.888a10.8,10.8,0,0,0,1.158-2.482,6.559,6.559,0,0,0,.25-.96l1.554.543C361.611,418.193,361.413,418.652,361.309,418.892Z" transform="translate(-317.525 -403.996)" fill="#00336f"/><path d="M376.076,423.409a9.824,9.824,0,0,0,3.8-4.056l.813,1.47a11.092,11.092,0,0,1-3.858,3.859,11.3,11.3,0,0,1-3.869,1.47l-.876-1.376a10.748,10.748,0,0,0,3.99-1.367Zm0-3.368-1.064,1.084a21.678,21.678,0,0,0-2.607-2.251l.98-1.043a21.01,21.01,0,0,1,2.691,2.21Z" transform="translate(-323.451 -404.133)" fill="#00336f"/><path d="M390.446,418.6a7.285,7.285,0,0,0-.1-1.252h1.627a11.341,11.341,0,0,0-.094,1.252v1.543a34.125,34.125,0,0,1,4.358,1.616l-.594,1.44a30.1,30.1,0,0,0-3.764-1.555V424.6c0,.3.052,1.033.094,1.46h-1.627a11.6,11.6,0,0,0,.1-1.46Z" transform="translate(-329.427 -403.975)" fill="#00336f"/><path d="M407.169,426.23l-1.116-1.053c2.013-.7,2.9-1.6,2.9-4.161v-.4h-2.472v1.418c0,.459.032.887.042,1.1h-1.46a8.484,8.484,0,0,0,.063-1.1v-1.418h-.887c-.521,0-.9.021-1.126.042V419.24a6.8,6.8,0,0,0,1.126.094h.887V418.3c0-.3-.032-.625-.063-.938h1.481a6.316,6.316,0,0,0-.063.938v1.033h2.472v-1.1a6.82,6.82,0,0,0-.063-.971h1.492a6.537,6.537,0,0,0-.073.971v1.1h.772a6.188,6.188,0,0,0,1.147-.073v1.387c-.229-.022-.594-.032-1.147-.032h-.772v.344C410.309,423.549,409.683,425.124,407.169,426.23Z" transform="translate(-333.608 -403.95)" fill="#00336f"/><path d="M422.524,422.5h5.6c.49,0,.949-.041,1.22-.063v1.637c-.25-.011-.782-.052-1.22-.052h-5.6c-.6,0-1.293.021-1.678.052v-1.637C421.221,422.465,421.982,422.5,422.524,422.5Z" transform="translate(-339.412 -405.64)" fill="#00336f"/><path d="M440.238,418.36v1.97a26.24,26.24,0,0,0,3.608-1.157,6.749,6.749,0,0,0,1.137-.563l.563,1.324c-.407.167-.877.365-1.22.49a36.046,36.046,0,0,1-4.088,1.273v1.929c0,.448.208.563.678.657a9.762,9.762,0,0,0,1.21.063,17.622,17.622,0,0,0,3.629-.365V425.5a29.636,29.636,0,0,1-3.713.219,11.571,11.571,0,0,1-1.752-.115,1.5,1.5,0,0,1-1.429-1.564v-5.68a8.7,8.7,0,0,0-.083-1.085h1.544A7.788,7.788,0,0,0,440.238,418.36Zm5.412-.1-.845.355a12.487,12.487,0,0,0-.813-1.45l.824-.334a16.382,16.382,0,0,1,.835,1.424Zm1.241-.479-.824.355a11.107,11.107,0,0,0-.845-1.44l.824-.334a11.475,11.475,0,0,1,.846,1.414Z" transform="translate(-345.281 -403.651)" fill="#00336f"/><path d="M461.616,419.438a15.343,15.343,0,0,1-1.637,2.868,29.264,29.264,0,0,1,2.91,2.983l-1.189,1.033a23.78,23.78,0,0,0-2.628-2.952,13.745,13.745,0,0,1-3.921,2.93l-1.075-1.126a11.7,11.7,0,0,0,4.276-2.993,8.1,8.1,0,0,0,1.554-2.554H456.37c-.438,0-1.012.062-1.23.073v-1.481a11.816,11.816,0,0,0,1.23.073h3.682a3.748,3.748,0,0,0,1.074-.136l.855.636a4.934,4.934,0,0,0-.365.646Z" transform="translate(-350.288 -404.239)" fill="#00336f"/></g></g></g></svg>