<?xml version="1.0" encoding="utf-8"?>
<!-- Generator: Adobe Illustrator 26.2.1, SVG Export Plug-In . SVG Version: 6.00 Build 0)  -->
<svg version="1.1" id="レイヤー_1" xmlns="http://www.w3.org/2000/svg" xmlns:xlink="http://www.w3.org/1999/xlink" x="0px"
	 y="0px" viewBox="0 0 113 43" style="enable-background:new 0 0 113 43;" xml:space="preserve">
<style type="text/css">
	.st0{fill:#FFFFFF;}
</style>
<g>
	<g>
		<path d="M81.17,18.33h8.38c0.1,0,0.18-0.08,0.18-0.18v-1.21c0-0.1-0.08-0.18-0.18-0.18h-8.38c-0.1,0-0.18,0.08-0.18,0.18v1.21
			C80.98,18.25,81.06,18.33,81.17,18.33z"/>
		<path d="M90.27,19.94h-9.98c-0.1,0-0.18,0.08-0.18,0.18v1.21c0,0.1,0.08,0.18,0.18,0.18h4.35c-0.13,2.35-1.41,3.67-3.91,4.04
			c-0.09,0.01-0.16,0.09-0.16,0.18v1.24c0,0.05,0.02,0.1,0.06,0.14c0.03,0.03,0.08,0.05,0.12,0.05c0.01,0,0.02,0,0.02,0
			c3.39-0.44,5.54-2.55,5.76-5.65h3.72c0.1,0,0.18-0.08,0.18-0.18v-1.21C90.45,20.02,90.37,19.94,90.27,19.94z"/>
	</g>
	<g>
		<path d="M94.46,22.58c0.03-0.04,0.05-0.09,0.04-0.14c-0.16-1.23-0.48-2.55-0.72-3.44c-0.02-0.08-0.09-0.13-0.18-0.13h-1.26
			c-0.06,0-0.11,0.03-0.15,0.07c-0.03,0.05-0.05,0.1-0.03,0.16c0.2,0.72,0.57,2.13,0.74,3.4c0.01,0.09,0.09,0.16,0.18,0.16h1.22
			C94.38,22.64,94.43,22.62,94.46,22.58z"/>
		<path d="M95.72,22.49c0.01,0.09,0.09,0.16,0.18,0.16h1.22c0.05,0,0.1-0.02,0.14-0.06c0.03-0.04,0.05-0.09,0.04-0.14v0
			c-0.16-1.23-0.48-2.55-0.72-3.44c-0.02-0.08-0.09-0.13-0.18-0.13h-1.26c-0.06,0-0.11,0.03-0.15,0.07
			c-0.03,0.05-0.05,0.1-0.03,0.16C95.18,19.82,95.54,21.22,95.72,22.49z"/>
		<path d="M100.7,18.86h-1.38c-0.05,0-0.1,0.02-0.13,0.06s-0.05,0.08-0.05,0.13c0.02,0.62,0.05,6.08-4.77,6.7
			c-0.09,0.01-0.16,0.09-0.16,0.18v1c0,0.05,0.02,0.1,0.06,0.14c0.03,0.03,0.08,0.05,0.12,0.05c0.01,0,0.01,0,0.02,0
			c2.71-0.25,4.69-1.64,5.71-4.03c0.79-1.85,0.77-3.7,0.76-4.05C100.88,18.94,100.8,18.86,100.7,18.86z"/>
	</g>
	<path d="M112.68,16.63h-6.96c-0.08,0-0.16,0.06-0.18,0.14c-0.56,2.31-2.17,3.47-2.64,3.77c-0.05,0.03-0.09,0.09-0.09,0.15v1.45
		c0,0.06,0.03,0.12,0.09,0.16c0.05,0.03,0.12,0.04,0.18,0.01c1.09-0.53,3.06-1.76,3.99-4.08h3.74c-0.18,2.05-0.62,6.15-6.72,7.21
		c-0.09,0.02-0.15,0.09-0.15,0.18v1.32c0,0.05,0.02,0.1,0.06,0.14c0.03,0.03,0.08,0.05,0.12,0.05c0.01,0,0.01,0,0.02,0
		c3.42-0.35,5.87-1.75,7.3-4.16c0.97-1.64,1.45-3.71,1.43-6.15c0,0,0,0,0,0C112.86,16.72,112.78,16.63,112.68,16.63z"/>
	<path d="M57.03,22.11h-3.89l-0.15-2.69h3.26c0.1,0,0.18-0.08,0.18-0.18v-1.21c0-0.1-0.08-0.18-0.18-0.18H52.9l-0.1-1.83
		c-0.01-0.1-0.09-0.17-0.18-0.17H51.4c-0.05,0-0.1,0.02-0.13,0.06c-0.03,0.04-0.05,0.09-0.05,0.14l0.1,1.81H48.2
		c-0.1,0-0.18,0.08-0.18,0.18v1.21c0,0.1,0.08,0.18,0.18,0.18h3.21l0.15,2.69h-4.19c-0.1,0-0.18,0.08-0.18,0.18v1.21
		c0,0.1,0.08,0.18,0.18,0.18h4.28l0.19,3.29c0.01,0.1,0.09,0.17,0.18,0.17h1.21c0.05,0,0.1-0.02,0.13-0.06
		c0.03-0.04,0.05-0.09,0.05-0.14l-0.18-3.27h3.8c0.1,0,0.18-0.08,0.18-0.18v-1.21C57.21,22.19,57.13,22.11,57.03,22.11z"/>
	<path d="M67.29,19.49l-4.76,0l-0.09-1.67c-0.01-0.1-0.09-0.17-0.18-0.17h-1.21c-0.05,0-0.1,0.02-0.13,0.06
		c-0.03,0.04-0.05,0.09-0.05,0.14l0.09,1.65h-1.77c-0.1,0-0.18,0.08-0.18,0.18v1.21c0,0.1,0.08,0.18,0.18,0.18h1.86l0.33,5.91
		c0.01,0.1,0.09,0.17,0.18,0.17h1.21c0.05,0,0.1-0.02,0.13-0.06c0.03-0.04,0.05-0.09,0.05-0.14l-0.33-5.89h3.03
		c-0.31,0.91-0.89,1.61-1.73,2.1c-0.06,0.03-0.09,0.09-0.09,0.16v1.35c0,0.06,0.03,0.12,0.08,0.15c0.05,0.03,0.12,0.04,0.17,0.02
		c3.05-1.32,3.39-4.05,3.39-5.17C67.47,19.57,67.39,19.49,67.29,19.49z"/>
	<path d="M76.71,20.41h-1.34c-0.06,0-0.12,0.03-0.16,0.09c-0.03,0.05-0.04,0.12-0.01,0.18c0.3,0.61,1.29,2.75,1.66,4.92h-6.4
		c1.77-3.82,2.67-6.78,3.12-8.6c0.01-0.05,0-0.11-0.03-0.16c-0.03-0.04-0.09-0.07-0.14-0.07h-1.26c-0.08,0-0.15,0.05-0.18,0.14
		c-0.48,1.86-1.43,4.88-3.25,8.69c-0.01,0.02-0.02,0.05-0.02,0.08v1.29c0,0.1,0.08,0.18,0.18,0.18h9.52c0.05,0,0.1-0.02,0.13-0.06
		c0.03-0.04,0.05-0.08,0.05-0.13c-0.06-2.46-1.1-5.09-1.72-6.44C76.85,20.45,76.79,20.41,76.71,20.41z"/>
	<g>
		<path d="M33.09,18.98c-0.66-0.3-1.93-0.98-3.03-2.24c-0.03-0.04-0.08-0.06-0.14-0.06h-2.86c-0.05,0-0.11,0.02-0.14,0.07
			c-1.06,1.28-2.56,1.95-3.16,2.18c-0.07,0.03-0.11,0.09-0.12,0.16l-0.03,0.84c0,0.06,0.03,0.12,0.07,0.15
			c0.05,0.04,0.11,0.05,0.17,0.03c0.73-0.25,2.43-0.82,3.69-2.15h1.9c1.31,1.38,2.82,1.97,3.47,2.22c0.02,0.01,0.04,0.01,0.07,0.01
			c0.04,0,0.07-0.01,0.1-0.03c0.05-0.03,0.08-0.09,0.08-0.15l0.03-0.86C33.2,19.08,33.16,19.01,33.09,18.98z"/>
		<path d="M31.01,20.94c0.1,0,0.18-0.08,0.18-0.18v-0.82c0-0.1-0.08-0.18-0.18-0.18h-5.17c-0.1,0-0.18,0.08-0.18,0.18v0.82
			c0,0.1,0.08,0.18,0.18,0.18H31.01z"/>
		<path d="M32.8,21.6h-8.81c-0.1,0-0.18,0.08-0.18,0.18v0.97c0,0.1,0.08,0.18,0.18,0.18h1.37c-0.24,0.53-0.78,1.9-0.8,3.12
			c0,0.05,0.02,0.1,0.05,0.13c0.03,0.03,0.08,0.05,0.13,0.05h7.37c0.05,0,0.1-0.02,0.13-0.06c0.03-0.04,0.05-0.08,0.05-0.13
			c-0.02-0.8-0.46-2.02-0.55-2.25c-0.03-0.07-0.09-0.12-0.17-0.12h-1.01c-0.06,0-0.12,0.03-0.15,0.08
			c-0.03,0.05-0.04,0.11-0.02,0.17c0.06,0.14,0.23,0.61,0.26,0.98h-4.48c0.05-0.75,0.46-1.69,0.59-1.97h6.02
			c0.1,0,0.18-0.08,0.18-0.18v-0.97C32.98,21.68,32.9,21.6,32.8,21.6z"/>
	</g>
	<g>
		<path d="M39.18,23.13c0.06-0.03,0.1-0.09,0.1-0.16v-0.81c0-0.06-0.03-0.11-0.07-0.15c0,0,0,0,0,0c-0.45-0.34-0.77-0.68-0.97-0.91
			c0.42-0.47,0.8-1.21,1.02-1.98c0-0.01,0.01-0.04,0.01-0.05v-0.72c0-0.1-0.08-0.18-0.18-0.18h-1.18v-1.23
			c0-0.1-0.08-0.18-0.18-0.18h-0.82c-0.1,0-0.18,0.08-0.18,0.18v1.23h-1.33c-0.1,0-0.18,0.08-0.18,0.18v0.82
			c0,0.1,0.08,0.18,0.18,0.18h2.41c-0.18,0.44-0.81,1.75-2.49,2.61c-0.06,0.03-0.1,0.09-0.1,0.16v1.02c0,0.06,0.03,0.12,0.08,0.15
			c0.05,0.03,0.11,0.04,0.17,0.02c0.49-0.19,0.98-0.53,1.26-0.74v3.46c0,0.1,0.08,0.18,0.18,0.18h0.82c0.1,0,0.18-0.08,0.18-0.18
			v-3.79c0.33,0.32,0.7,0.62,1.1,0.88C39.04,23.16,39.12,23.17,39.18,23.13z"/>
		<path d="M44.88,24.66h-2.25v-3.93h1.82c0.1,0,0.18-0.08,0.18-0.18v-0.97c0-0.1-0.08-0.18-0.18-0.18h-1.82v-2.46
			c0-0.1-0.08-0.18-0.18-0.18h-0.97c-0.1,0-0.18,0.08-0.18,0.18v2.46h-1.6c-0.1,0-0.18,0.08-0.18,0.18v0.97
			c0,0.1,0.08,0.18,0.18,0.18h1.6v3.93h-2.25c-0.1,0-0.18,0.08-0.18,0.18v0.97c0,0.1,0.08,0.18,0.18,0.18h5.84
			c0.1,0,0.18-0.08,0.18-0.18v-0.97C45.06,24.75,44.98,24.66,44.88,24.66z"/>
	</g>
	<g>
		<path d="M3.54,18.2H2.81v-1.35c0-0.1-0.08-0.18-0.18-0.18H1.66c-0.1,0-0.18,0.08-0.18,0.18v1.35H0.32c-0.1,0-0.18,0.08-0.18,0.18
			v0.97c0,0.1,0.08,0.18,0.18,0.18l1.06,0c-0.22,0.99-0.62,1.89-1.18,2.68c-0.02,0.03-0.03,0.07-0.03,0.11v1.28
			c0,0.08,0.05,0.14,0.12,0.17c0.07,0.03,0.15,0.01,0.2-0.04c0.37-0.39,0.71-0.82,0.99-1.28v3.61c0,0.1,0.08,0.18,0.18,0.18h0.97
			c0.1,0,0.18-0.08,0.18-0.18v-3.67c0.17,0.21,0.35,0.42,0.55,0.63c0.05,0.05,0.13,0.07,0.2,0.04c0.07-0.03,0.11-0.09,0.11-0.17
			v-1.27c0-0.04-0.01-0.08-0.04-0.11c-0.4-0.54-0.67-1.11-0.83-1.7v-0.28h0.72c0.1,0,0.18-0.08,0.18-0.18v-0.97
			C3.72,18.28,3.64,18.2,3.54,18.2z"/>
		<path d="M9.92,23.96c-0.45-0.32-1.48-0.97-1.95-2.13h1.8c0.1,0,0.18-0.08,0.18-0.18v-0.97c0-0.1-0.08-0.18-0.18-0.18h-2.1v-0.95
			h1.92c0.1,0,0.18-0.08,0.18-0.18v-0.97c0-0.1-0.08-0.18-0.18-0.18H7.67v-1.35c0-0.1-0.08-0.18-0.18-0.18H6.52
			c-0.1,0-0.18,0.08-0.18,0.18v1.35H5.62c0.08-0.45,0.13-0.9,0.15-1.34c0-0.05-0.02-0.1-0.05-0.13c-0.03-0.04-0.08-0.06-0.13-0.06
			H4.76c-0.1,0-0.18,0.08-0.18,0.17c-0.02,0.6-0.15,1.8-0.74,3.1C3.82,20,3.82,20.07,3.86,20.12c0.03,0.05,0.09,0.08,0.15,0.08H4.9
			c0.07,0,0.14-0.05,0.17-0.12c0.08-0.19,0.14-0.37,0.2-0.55h1.06v0.95H4.3c-0.1,0-0.18,0.08-0.18,0.18v0.97
			c0,0.1,0.08,0.18,0.18,0.18h1.66c-0.45,1.12-1.79,1.99-1.94,2.1c-0.05,0.03-0.08,0.09-0.08,0.15v0.97c0,0.07,0.03,0.13,0.09,0.16
			c0.06,0.03,0.12,0.03,0.18,0c0.37-0.21,1.48-0.93,2.12-1.69v2.55c0,0.1,0.08,0.18,0.18,0.18h0.97c0.1,0,0.18-0.08,0.18-0.18v-2.58
			c0.75,0.97,1.52,1.52,2.05,1.81c0.06,0.03,0.12,0.03,0.18,0c0.06-0.03,0.09-0.09,0.09-0.16v-1.02
			C9.99,24.05,9.97,23.99,9.92,23.96z"/>
	</g>
	<g>
		<path d="M19.24,19.54h2.29c0.1,0,0.18-0.08,0.18-0.18v-0.97c0-0.1-0.08-0.18-0.18-0.18h-2.31c0-0.33,0.01-1.13,0.01-1.35
			c0-0.05-0.02-0.09-0.05-0.13c-0.03-0.03-0.08-0.05-0.13-0.05h-0.97c-0.1,0-0.18,0.08-0.18,0.18c0,0.21-0.01,1.02-0.01,1.35h-5.45
			c-0.1,0-0.18,0.08-0.18,0.18v0.97c0,0.1,0.08,0.18,0.18,0.18h5.48c0.19,2.96,1.39,5.23,3.56,6.75c0.03,0.02,0.07,0.03,0.11,0.03
			c0.03,0,0.06-0.01,0.09-0.02c0.06-0.03,0.1-0.09,0.1-0.16v-1.2c0-0.07-0.03-0.13-0.08-0.18C20.19,23.5,19.39,21.79,19.24,19.54z"
			/>
		<path d="M21.53,16.67h-1.52c-0.1,0-0.18,0.08-0.18,0.18v0.66c0,0.1,0.08,0.18,0.18,0.18h1.52c0.1,0,0.18-0.08,0.18-0.18v-0.66
			C21.72,16.75,21.63,16.67,21.53,16.67z"/>
		<path d="M17.37,23.52c-0.06-0.03-0.12-0.03-0.18,0c-0.18,0.1-0.68,0.35-1.61,0.6v-2.3h1.56c0.1,0,0.18-0.08,0.18-0.18v-0.97
			c0-0.1-0.08-0.18-0.18-0.18h-4.63c-0.1,0-0.18,0.08-0.18,0.18v0.97c0,0.1,0.08,0.18,0.18,0.18h1.73v2.6
			c-0.75,0.13-1.44,0.14-1.69,0.14c-0.02,0-0.03,0-0.04,0c-0.05,0-0.09,0.02-0.13,0.05c-0.03,0.03-0.05,0.08-0.05,0.13v1.03
			c0,0.05,0.02,0.1,0.06,0.13c0.03,0.03,0.08,0.05,0.12,0.05c0,0,0.01,0,0.01,0c1.05-0.05,3.07-0.26,4.86-1.06
			c0.07-0.03,0.11-0.1,0.11-0.17l-0.03-1.05C17.46,23.61,17.43,23.56,17.37,23.52z"/>
	</g>
</g>
</svg>
