<svg id="logo-white" xmlns="http://www.w3.org/2000/svg" width="157.504" height="60" viewBox="0 0 157.504 60">
  <g id="logo1">
    <path id="パス_787" data-name="パス 787" d="M42.093,33.247a28.662,28.662,0,0,1-1.433,7.036q-.657,1.7-5.11,3.058a38.963,38.963,0,0,1-11.145,1.454q-10.421,0-17.369-6.084A20.145,20.145,0,0,1,0,22.861a21.136,21.136,0,0,1,7.267-16.4A24.392,24.392,0,0,1,24.2.155,36.417,36.417,0,0,1,36.017,1.8c2.832.98,4.295,1.89,4.41,2.728a61.884,61.884,0,0,1,.369,8.039c0,.611-.571.97-1.706,1.078-.871.088-1.4-.168-1.607-.774-1.182-3.7-2.752-6.262-4.694-7.7-1.96-1.436-4.894-2.136-8.8-2.136A15.935,15.935,0,0,0,12,7.826Q6.978,13.033,6.978,22.069q0,8.99,5.3,14.507a17.388,17.388,0,0,0,13.213,5.44q5.22,0,8.234-2.219a14.758,14.758,0,0,0,4.7-6.941c.356-.94,1.166-1.274,2.419-1.018.9.205,1.309.674,1.245,1.409" transform="translate(0 -0.041)" fill="#fff"/>
    <path id="パス_788" data-name="パス 788" d="M71.723,36.2a5.3,5.3,0,0,0-.461,2.036,2.769,2.769,0,0,0,2,2.645c2.05.872,3.052,1.524,3.016,1.988-.049.745-.745,1.033-2.092.878a39.1,39.1,0,0,0-11.5.4q-1.391.286-1.558-.985c-.095-.552.63-1.145,2.163-1.8,1.643-.667,3.024-2.208,4.159-4.622q6.419-13.706,8.3-18A148.02,148.02,0,0,0,82.213,1.885C82.388,1.228,83.269.6,84.845.018c.384-.125.856.5,1.433,1.858Q93.43,18.706,102.3,37.849a7.288,7.288,0,0,0,4.79,4.064c1.009.286,1.451.677,1.356,1.2a2.015,2.015,0,0,1-.431,1.038c-.13.093-.446.068-.925-.06a61.407,61.407,0,0,0-13.784-.176c-1.145.073-1.778-.138-1.888-.66-.1-.619.262-1.088,1.087-1.416q3.551-1.425,3.549-2.655a3.847,3.847,0,0,0-.4-1.394c-1.633-3.833-8.9-20-11.993-26.782-.169-.361-.364-.552-.589-.552s-.4.191-.556.552c0,0-9.411,21.881-10.8,25.195" transform="translate(-14.77 -0.002)" fill="#fff"/>
    <path id="パス_789" data-name="パス 789" d="M189.115,42.867c0,.574-.115.92-.366,1.053a4.056,4.056,0,0,1-1.766.138,121.264,121.264,0,0,0-13.5,0c-1.009.047-1.5-.364-1.5-1.2,0-.464.494-.8,1.5-.987a13.654,13.654,0,0,0,3.549-1.078c.5-.374.712-1.2.661-2.477l-1.081-27.732c-.02-.559-.159-.852-.425-.852-.2,0-.4.205-.61.594q-5.908,11.653-8.308,16.572-4.813,9.81-6.8,14.893c-.6,1.592-.91,2.394-.935,2.444a1.9,1.9,0,0,1-1.54.93c-.451,0-.861-.652-1.217-1.925q-2.1-7.335-14.471-32.63c-.243-.5-.505-.74-.789-.74-.346,0-.53.343-.545,1q-.4,9.63-.925,25.637c-.136,2.85,1.351,4.553,4.433,5.082,1.222.236,1.843.651,1.843,1.3,0,.551-.121.9-.356,1.028a4,4,0,0,1-1.745.138,112.506,112.506,0,0,0-11.9,0c-1,.047-1.5-.364-1.5-1.2,0-.464.5-.8,1.486-.987,1.763-.374,2.914-.94,3.464-1.725a6.262,6.262,0,0,0,.741-3.266l1.046-28.695a4.153,4.153,0,0,0-.761-2.878,8.611,8.611,0,0,0-2.936-1.885c-1.063-.471-1.568-.98-1.492-1.545.043-.6.51-.84,1.414-.714a36.6,36.6,0,0,0,8.874.24,4.937,4.937,0,0,1,1.988.053,2.038,2.038,0,0,1,.94,1.133L159.489,33.78c.177.441.336.657.472.657s.336-.291.6-.882q1.33-2.813,14.922-30.221c.548-1.1,1.251-1.662,2.076-1.662a60.544,60.544,0,0,0,8.605-.849A6.321,6.321,0,0,1,187.728.7c.366.118.561.514.561,1.218,0,.534-.587.985-1.763,1.346q-4.159,1.271-4.092,3.046l1.184,31.555a3.48,3.48,0,0,0,.953,2.667,5.437,5.437,0,0,0,2.685,1.033c1.243.24,1.858.676,1.858,1.3" transform="translate(-31.61 -0.178)" fill="#fff"/>
    <path id="パス_790" data-name="パス 790" d="M14.227,75.009a6.485,6.485,0,0,1-.3,1.5c-.1.258-.472.474-1.107.665a8.332,8.332,0,0,1-2.38.313,5.483,5.483,0,0,1-3.721-1.3,4.342,4.342,0,0,1-1.507-3.41,4.52,4.52,0,0,1,1.558-3.5,5.214,5.214,0,0,1,3.618-1.356,7.935,7.935,0,0,1,2.537.353c.613.213.927.406.956.587a15.248,15.248,0,0,1,.067,1.727c0,.123-.125.206-.361.226-.19.015-.3-.038-.346-.165a3.224,3.224,0,0,0-1-1.649,3.222,3.222,0,0,0-1.888-.461,3.374,3.374,0,0,0-2.557,1.033A4.167,4.167,0,0,0,6.7,72.621a4.3,4.3,0,0,0,1.138,3.1,3.692,3.692,0,0,0,2.826,1.165,2.927,2.927,0,0,0,1.763-.474,3.157,3.157,0,0,0,1-1.489.4.4,0,0,1,.518-.22c.194.048.284.148.274.309" transform="translate(-1.258 -17.534)" fill="#fff"/>
    <path id="パス_791" data-name="パス 791" d="M19.007,77a.79.79,0,0,0-.085.323.437.437,0,0,0,.3.416c.325.138.489.236.485.313-.013.113-.123.148-.333.128a6.541,6.541,0,0,0-1.8.068.164.164,0,0,1-.228-.153c-.026-.088.095-.18.333-.283a1.361,1.361,0,0,0,.651-.72c.671-1.419,1.091-2.359,1.3-2.8a21.083,21.083,0,0,0,.992-2.63c.036-.093.164-.191.415-.278.059-.025.141.068.221.278q1.126,2.628,2.493,5.6a1.146,1.146,0,0,0,.745.629c.158.05.223.108.2.2a.252.252,0,0,1-.056.16.306.306,0,0,1-.149-.005,9.021,9.021,0,0,0-2.148-.043c-.167.018-.271-.015-.287-.1s.041-.16.167-.211c.374-.151.556-.288.556-.421a.959.959,0,0,0-.061-.213c-.254-.594-1.392-3.116-1.866-4.169-.031-.053-.072-.088-.095-.088s-.061.035-.093.088c0,0-1.45,3.417-1.665,3.915" transform="translate(-4.192 -18.428)" fill="#fff"/>
    <path id="パス_792" data-name="パス 792" d="M129.148,77a.957.957,0,0,0-.064.323.432.432,0,0,0,.3.416c.32.138.479.236.469.313,0,.113-.118.148-.331.128a6.432,6.432,0,0,0-1.781.068c-.143.035-.225-.025-.241-.153-.013-.088.1-.18.331-.283a1.341,1.341,0,0,0,.651-.72c.667-1.419,1.091-2.359,1.3-2.8a22.812,22.812,0,0,0,1-2.63c.026-.093.169-.191.41-.278.064-.025.136.068.236.278q1.1,2.628,2.486,5.6a1.133,1.133,0,0,0,.745.629c.156.05.231.108.2.2-.011.088-.026.14-.056.16a.278.278,0,0,1-.141-.005,9.018,9.018,0,0,0-2.142-.043c-.184.018-.279-.015-.3-.1s.041-.16.162-.211c.364-.151.546-.288.546-.421a.7.7,0,0,0-.041-.213c-.269-.594-1.4-3.116-1.871-4.169-.036-.053-.067-.088-.093-.088s-.064.035-.1.088c0,0-1.459,3.417-1.669,3.915" transform="translate(-30.808 -18.428)" fill="#fff"/>
    <path id="パス_793" data-name="パス 793" d="M149.39,77a.909.909,0,0,0-.08.323.446.446,0,0,0,.315.416c.325.138.469.236.469.313-.005.113-.118.148-.331.128a6.377,6.377,0,0,0-1.776.068c-.146.035-.231-.025-.246-.153-.008-.088.1-.18.336-.283a1.278,1.278,0,0,0,.641-.72c.671-1.419,1.091-2.359,1.3-2.8a23.852,23.852,0,0,0,1-2.63c.026-.093.169-.191.41-.278.059-.025.146.068.225.278.745,1.752,1.566,3.617,2.5,5.6a1.115,1.115,0,0,0,.741.629c.156.05.231.108.221.2a.373.373,0,0,1-.074.16.3.3,0,0,1-.146-.005,9.025,9.025,0,0,0-2.15-.043c-.167.018-.271-.015-.287-.1s.046-.16.167-.211c.364-.151.551-.288.551-.421a.5.5,0,0,0-.061-.213c-.254-.594-1.386-3.116-1.866-4.169-.03-.053-.056-.088-.087-.088s-.064.035-.095.088c0,0-1.463,3.417-1.673,3.915" transform="translate(-35.7 -18.428)" fill="#fff"/>
    <path id="パス_794" data-name="パス 794" d="M65.079,75.637a1.208,1.208,0,0,0-.1.441.579.579,0,0,0,.435.556c.441.193.656.338.646.427-.015.168-.162.226-.446.2a7.989,7.989,0,0,0-2.468.085c-.2.038-.32-.03-.331-.211-.02-.123.13-.261.466-.378a1.839,1.839,0,0,0,.877-1c.92-1.958,1.52-3.241,1.786-3.858a31.173,31.173,0,0,0,1.381-3.61c.046-.14.231-.273.567-.4.084-.03.179.108.31.4,1.025,2.4,2.163,4.966,3.434,7.7a1.561,1.561,0,0,0,1.02.869c.221.06.315.153.29.261a.405.405,0,0,1-.09.226.357.357,0,0,1-.2-.02,13.917,13.917,0,0,0-2.947-.04c-.246.025-.377-.02-.407-.135-.023-.133.052-.231.241-.306.5-.211.756-.391.756-.562a.73.73,0,0,0-.089-.309c-.356-.812-1.907-4.279-2.557-5.728-.041-.085-.089-.123-.136-.123s-.085.038-.126.123c0,0-2.023,4.684-2.312,5.389" transform="translate(-15.178 -17.525)" fill="#fff"/>
    <path id="パス_795" data-name="パス 795" d="M29.961,74.886a3.245,3.245,0,0,0,1.117-.376,1.309,1.309,0,0,0,.505-1.118,1.329,1.329,0,0,0-.392-1.063,1.991,1.991,0,0,0-1.245-.313.869.869,0,0,0-.531.1.581.581,0,0,0-.136.446v4.853a.354.354,0,0,0,.136.313,1.358,1.358,0,0,0,.515.131c.187.03.277.1.277.193s-.005.14-.046.156c-.02.03-.115.03-.259.03a17.426,17.426,0,0,0-2.027.03c-.146.018-.231-.035-.231-.163,0-.1.084-.145.231-.145a.5.5,0,0,0,.51-.544V72.6c0-.313-.2-.509-.582-.579-.184-.038-.274-.093-.274-.18a.167.167,0,0,1,.184-.185c.041,0,.08.005.126.01a3.7,3.7,0,0,0,.646.03c.095,0,.341,0,.73-.01.374-.01.736-.02,1.076-.02a2.984,2.984,0,0,1,1.617.381,1.386,1.386,0,0,1,.674,1.228c0,.932-.541,1.549-1.656,1.843a8.6,8.6,0,0,0,1.251,2,2.406,2.406,0,0,0,1.3.94.2.2,0,0,1,.174.2c0,.078-.069.123-.2.123-1.235,0-2.381-1.043-3.482-3.081-.152-.269-.116-.377,0-.407" transform="translate(-6.652 -18.498)" fill="#fff"/>
    <path id="パス_796" data-name="パス 796" d="M53.3,74.886a3.2,3.2,0,0,0,1.117-.376,1.556,1.556,0,0,0,.113-2.181,1.97,1.97,0,0,0-1.245-.313.823.823,0,0,0-.52.1c-.089.065-.136.216-.136.446v4.853a.362.362,0,0,0,.126.313,1.391,1.391,0,0,0,.52.131c.19.03.282.1.282.193s-.015.14-.041.156a.558.558,0,0,1-.262.03,17.773,17.773,0,0,0-2.045.03c-.136.018-.21-.035-.21-.163,0-.1.074-.145.21-.145a.5.5,0,0,0,.5-.544V72.6c0-.313-.169-.509-.556-.579-.195-.038-.279-.093-.279-.18,0-.118.054-.185.19-.185a1.1,1.1,0,0,1,.115.01,3.717,3.717,0,0,0,.651.03c.095,0,.331,0,.72-.01s.741-.02,1.081-.02a3.018,3.018,0,0,1,1.627.381,1.388,1.388,0,0,1,.664,1.228c0,.932-.543,1.549-1.645,1.843a9.077,9.077,0,0,0,1.225,2,2.451,2.451,0,0,0,1.312.94.193.193,0,0,1,.174.2c.005.078-.064.123-.2.123-1.23,0-2.386-1.043-3.493-3.081-.137-.269-.1-.377,0-.407" transform="translate(-12.293 -18.498)" fill="#fff"/>
    <path id="パス_797" data-name="パス 797" d="M41.109,76.969a7.825,7.825,0,0,0-.184,1.208c0,.055-.11.09-.315.07-.541-.02-1.228-.03-2.053-.03-.918,0-1.7.01-2.358.05-.146.005-.221-.05-.221-.178,0-.088.074-.131.221-.151a.72.72,0,0,0,.39-.113c.082-.07.1-.211.1-.421V72.757a1.222,1.222,0,0,0-.084-.6,1.035,1.035,0,0,0-.485-.251c-.136-.038-.187-.116-.146-.229.015-.065.036-.1.084-.1a.451.451,0,0,1,.271.018c.215.03.789.05,1.717.05s1.717-.02,2.386-.055c.221-.013.346,0,.346.035s-.015.04-.015.056a3.839,3.839,0,0,0-.084,1.14c0,.1-.054.151-.162.151a.21.21,0,0,1-.2-.14,1.749,1.749,0,0,0-.249-.481.754.754,0,0,0-.477-.243c-.159-.025-.736-.035-1.732-.035-.113,0-.195.015-.221.047a.261.261,0,0,0-.028.148v2.105c0,.083.049.128.143.128.325-.005.771-.036,1.358-.065a.309.309,0,0,0,.231-.151,1.892,1.892,0,0,0,.113-.407c.036-.153.11-.2.251-.163.105.02.167.065.146.163a7.639,7.639,0,0,0-.089,1.757c.005.088-.046.131-.171.151-.105.01-.164-.047-.18-.16a1.492,1.492,0,0,0-.136-.514.38.38,0,0,0-.3-.143,10.547,10.547,0,0,0-1.276-.053c-.061,0-.089.027-.089.078v2.2c0,.313.19.509.556.572.095.015.4.02.961.02.856,0,1.392-.283,1.6-.88.054-.128.138-.178.243-.128.116.026.162.094.137.191" transform="translate(-8.69 -18.476)" fill="#fff"/>
    <path id="パス_798" data-name="パス 798" d="M48.587,76.969a7.223,7.223,0,0,0-.174,1.208c-.011.055-.115.09-.325.07-.535-.02-1.217-.03-2.053-.03-.912,0-1.7.01-2.358.05-.146.005-.221-.05-.221-.178,0-.088.074-.131.221-.151a.745.745,0,0,0,.4-.113.634.634,0,0,0,.1-.421V72.757a1.2,1.2,0,0,0-.089-.6.979.979,0,0,0-.474-.251c-.146-.038-.192-.116-.156-.229.02-.065.041-.1.084-.1a.435.435,0,0,1,.266.018c.236.03.795.05,1.722.05s1.725-.02,2.386-.055c.231-.013.34,0,.34.035s-.011.04-.011.056a4.926,4.926,0,0,0-.089,1.14c.011.1-.046.151-.156.151a.2.2,0,0,1-.2-.14,2.106,2.106,0,0,0-.249-.481.783.783,0,0,0-.476-.243c-.164-.025-.741-.035-1.727-.035a.349.349,0,0,0-.231.047.34.34,0,0,0-.023.148v2.105c0,.083.049.128.149.128.3-.005.766-.036,1.358-.065a.319.319,0,0,0,.225-.151,1.783,1.783,0,0,0,.118-.407c.026-.153.105-.2.241-.163.115.02.162.065.152.163a7.35,7.35,0,0,0-.089,1.757c0,.088-.056.131-.171.151s-.164-.047-.19-.16a1.231,1.231,0,0,0-.126-.514.383.383,0,0,0-.3-.143,10.546,10.546,0,0,0-1.276-.053c-.056,0-.084.027-.084.078v2.2c0,.313.19.509.556.572.095.015.416.02.964.02.853,0,1.386-.283,1.589-.88.064-.128.149-.178.259-.128a.148.148,0,0,1,.125.191" transform="translate(-10.498 -18.476)" fill="#fff"/>
    <path id="パス_799" data-name="パス 799" d="M81.229,76.434a1.679,1.679,0,0,1-.641,1.372,2.848,2.848,0,0,1-1.822.534c-1.015,0-1.6-.185-1.786-.549a7.031,7.031,0,0,1-.3-.847c-.061-.151-.026-.248.089-.3a.228.228,0,0,1,.315.083,2.991,2.991,0,0,0,.892.9,1.95,1.95,0,0,0,.989.253c.961,0,1.448-.376,1.448-1.111a1.051,1.051,0,0,0-.315-.76,6.054,6.054,0,0,0-1.258-.782,7.723,7.723,0,0,1-1.586-1,1.484,1.484,0,0,1-.469-1.111,1.512,1.512,0,0,1,.595-1.2,2.347,2.347,0,0,1,1.533-.494,4.941,4.941,0,0,1,1.271.165c.325.08.505.188.546.318a4.561,4.561,0,0,1,.169,1.01c.015.145-.043.228-.141.238a.264.264,0,0,1-.3-.136,2.083,2.083,0,0,0-.72-.9,1.9,1.9,0,0,0-.981-.233,1.311,1.311,0,0,0-.851.253.83.83,0,0,0-.315.694,1.017,1.017,0,0,0,.31.74,4.5,4.5,0,0,0,1.081.672,7.513,7.513,0,0,1,1.661,1.007,1.5,1.5,0,0,1,.588,1.176" transform="translate(-18.521 -18.44)" fill="#fff"/>
    <path id="パス_800" data-name="パス 800" d="M87.926,76.434a1.66,1.66,0,0,1-.651,1.372,2.828,2.828,0,0,1-1.822.534c-1.009,0-1.6-.185-1.776-.549a8.728,8.728,0,0,1-.325-.847c-.036-.151-.005-.248.11-.3a.228.228,0,0,1,.315.083,2.921,2.921,0,0,0,.881.9,1.934,1.934,0,0,0,1,.253c.951,0,1.427-.376,1.427-1.111a1.024,1.024,0,0,0-.3-.76,5.934,5.934,0,0,0-1.256-.782,7.881,7.881,0,0,1-1.583-1,1.444,1.444,0,0,1-.463-1.111,1.522,1.522,0,0,1,.589-1.2,2.328,2.328,0,0,1,1.533-.494,5.149,5.149,0,0,1,1.286.165c.31.08.5.188.53.318a4.272,4.272,0,0,1,.169,1.01c.015.145-.039.228-.149.238a.23.23,0,0,1-.272-.136,2.36,2.36,0,0,0-.725-.9,1.936,1.936,0,0,0-.992-.233,1.311,1.311,0,0,0-.851.253.841.841,0,0,0-.31.694.958.958,0,0,0,.31.74,4.332,4.332,0,0,0,1.076.672,7.623,7.623,0,0,1,1.671,1.007,1.542,1.542,0,0,1,.582,1.176" transform="translate(-20.138 -18.44)" fill="#fff"/>
    <path id="パス_801" data-name="パス 801" d="M94.856,76.969a8.52,8.52,0,0,0-.18,1.208c0,.055-.11.09-.315.07-.535-.02-1.222-.03-2.053-.03-.925,0-1.707.01-2.358.05-.152.005-.231-.05-.231-.178,0-.088.08-.131.231-.151a.685.685,0,0,0,.389-.113.63.63,0,0,0,.105-.421V72.757a1.383,1.383,0,0,0-.08-.6,1.213,1.213,0,0,0-.479-.251c-.146-.038-.2-.116-.167-.229.02-.065.052-.1.089-.1a.47.47,0,0,1,.277.018c.21.03.789.05,1.722.05s1.715-.02,2.386-.055c.221-.013.331,0,.331.035a.183.183,0,0,1-.005.056,5.56,5.56,0,0,0-.095,1.14c.011.1-.046.151-.146.151a.189.189,0,0,1-.2-.14,2.041,2.041,0,0,0-.259-.481.73.73,0,0,0-.476-.243c-.164-.025-.741-.035-1.737-.035a.367.367,0,0,0-.223.047.512.512,0,0,0-.01.148v2.105c0,.083.049.128.143.128.3-.005.761-.036,1.353-.065a.283.283,0,0,0,.221-.151,1.978,1.978,0,0,0,.128-.407c.02-.153.1-.2.241-.163.11.02.167.065.146.163a7.151,7.151,0,0,0-.085,1.757c0,.088-.051.131-.177.151-.105.01-.164-.047-.18-.16a1.543,1.543,0,0,0-.13-.514.378.378,0,0,0-.3-.143,10.611,10.611,0,0,0-1.271-.053c-.074,0-.084.027-.084.078v2.2c0,.313.169.509.546.572.089.015.41.02.964.02.861,0,1.386-.283,1.6-.88.043-.128.133-.178.249-.128.116.026.152.094.126.191" transform="translate(-21.678 -18.476)" fill="#fff"/>
    <path id="パス_802" data-name="パス 802" d="M103.524,73.212a.237.237,0,0,1-.026.118.166.166,0,0,1-.105.062.2.2,0,0,1-.253-.145,1.726,1.726,0,0,0-.526-.907,2.658,2.658,0,0,0-1.473-.293c-.279,0-.441.035-.469.088a.469.469,0,0,0-.01.085v5.016a.516.516,0,0,0,.159.436,1.363,1.363,0,0,0,.607.236l.228.062c.046.03.051.1.046.2-.015.073-.046.125-.11.131a1.411,1.411,0,0,1-.215-.02,10.492,10.492,0,0,0-2.237-.007.522.522,0,0,1-.275,0,.128.128,0,0,1-.056-.122c-.036-.113.02-.183.177-.22a1.42,1.42,0,0,0,.589-.266.8.8,0,0,0,.174-.567V72.228c0-.1-.064-.151-.18-.171-.02,0-.126-.01-.315-.01a2.523,2.523,0,0,0-1.438.323,2.122,2.122,0,0,0-.63.915c-.049.138-.133.188-.234.138-.115-.025-.167-.093-.131-.18A5.2,5.2,0,0,0,97,71.7c0-.078.105-.111.315-.093.741.045,1.563.08,2.458.08,1.7,0,2.809-.045,3.308-.1.19-.03.3,0,.31.088a6.176,6.176,0,0,1,.131,1.54" transform="translate(-23.393 -18.478)" fill="#fff"/>
    <path id="パス_803" data-name="パス 803" d="M122.664,77.07c0,.118-.02.2-.069.231a1.256,1.256,0,0,1-.387.02c-1.245-.045-2.206-.045-2.9,0-.21.01-.315-.07-.315-.256,0-.1.105-.165.315-.211a3.36,3.36,0,0,0,.777-.231.608.608,0,0,0,.136-.529l-.236-5.949c0-.123-.026-.18-.084-.18s-.1.045-.136.123q-1.276,2.5-1.771,3.559c-.692,1.4-1.182,2.467-1.458,3.186-.139.343-.2.519-.2.524a.424.424,0,0,1-.21.178.513.513,0,0,1-.125.027c-.1,0-.184-.14-.249-.411a61.187,61.187,0,0,0-3.109-7.007c-.052-.093-.105-.145-.174-.145s-.11.067-.11.211c-.056,1.384-.121,3.211-.2,5.493A1,1,0,0,0,113.1,76.8c.259.048.384.135.384.278,0,.118-.015.191-.069.226a1.114,1.114,0,0,1-.372.02,23.414,23.414,0,0,0-2.547,0c-.221.01-.325-.07-.325-.256,0-.1.1-.165.325-.211a1.2,1.2,0,0,0,.741-.371,1.264,1.264,0,0,0,.146-.7l.231-6.149a.841.841,0,0,0-.156-.612,2.145,2.145,0,0,0-.635-.4c-.236-.108-.331-.22-.32-.338s.11-.176.3-.145a7.781,7.781,0,0,0,1.912.047.8.8,0,0,1,.42.016.4.4,0,0,1,.195.236l2.993,6.688c.026.088.067.14.095.14s.077-.073.131-.191c.182-.4,1.258-2.565,3.2-6.477.126-.231.266-.349.446-.349a11.707,11.707,0,0,0,1.838-.2,2.233,2.233,0,0,1,.34-.018c.08.018.115.111.115.258,0,.113-.131.211-.382.283-.584.188-.877.4-.871.662l.256,6.756a.767.767,0,0,0,.2.579,1.2,1.2,0,0,0,.576.226c.262.049.4.137.4.274" transform="translate(-26.622 -17.563)" fill="#fff"/>
    <path id="パス_804" data-name="パス 804" d="M145.77,71.695c0,.083-.089.156-.279.205a.7.7,0,0,0-.607.7v3.62c0,.762,0,1.378.026,1.84.015.171-.03.278-.121.3-.154.03-.29-.043-.394-.24a20.047,20.047,0,0,0-2.016-2.343q-1.472-1.565-2.845-2.918a.084.084,0,0,0-.095-.04.15.15,0,0,0-.044.123v4.123a.73.73,0,0,0,.674.782c.187.04.282.1.282.205,0,.123-.095.176-.31.168a17.126,17.126,0,0,0-1.912,0c-.146.007-.21-.045-.21-.168,0-.078.064-.128.21-.16a1,1,0,0,0,.535-.246.783.783,0,0,0,.133-.524V72.681a.642.642,0,0,0-.128-.441,1.285,1.285,0,0,0-.446-.3c-.182-.08-.262-.153-.262-.241.02-.077.089-.122.241-.1a5.005,5.005,0,0,0,1.166.045.511.511,0,0,1,.441.171l4.307,4.5c.056.063.092.1.11.1s.052-.055.052-.143V72.635a.7.7,0,0,0-.682-.745c-.164-.04-.243-.082-.243-.142,0-.156.074-.208.221-.205a8.024,8.024,0,0,0,1.886-.007,1.031,1.031,0,0,1,.221-.015c.068.019.09.076.09.174" transform="translate(-33.326 -18.464)" fill="#fff"/>
    <path id="パス_805" data-name="パス 805" d="M164.233,75.191c0,.1-.08.175-.246.2-.221.04-.353.06-.394.067a.294.294,0,0,0-.179.3v1.572c0,.2-.267.406-.8.634a5.15,5.15,0,0,1-2,.378,3.909,3.909,0,0,1-2.693-.945,3.113,3.113,0,0,1-1.092-2.454,3.25,3.25,0,0,1,1.133-2.539,3.8,3.8,0,0,1,2.622-.975,6.106,6.106,0,0,1,1.994.278c.41.123.626.26.641.4a10.593,10.593,0,0,1,.054,1.131c0,.123-.069.185-.215.185-.164.005-.264-.045-.31-.143a2.187,2.187,0,0,0-.792-1.081,3.013,3.013,0,0,0-3.331.411,3.168,3.168,0,0,0-.717,2.216,3.044,3.044,0,0,0,.827,2.229,2.73,2.73,0,0,0,2.045.822,2.93,2.93,0,0,0,1.2-.233c.351-.142.526-.286.526-.431V76.156a.763.763,0,0,0-.149-.539,1.082,1.082,0,0,0-.526-.266c-.2-.058-.292-.116-.287-.206.026-.093.052-.145.072-.156a.414.414,0,0,1,.249-.005A8.964,8.964,0,0,0,164,75h.1c.087,0,.133.068.133.191" transform="translate(-37.896 -18.44)" fill="#fff"/>
    <path id="パス_806" data-name="パス 806" d="M171.873,76.969a8.413,8.413,0,0,0-.184,1.208c-.005.055-.1.09-.31.07q-.8-.03-2.042-.03c-.922,0-1.706.01-2.368.05-.136.005-.221-.05-.221-.178,0-.088.084-.131.215-.151a.7.7,0,0,0,.4-.113.63.63,0,0,0,.1-.421V72.757a1.293,1.293,0,0,0-.084-.6,1.067,1.067,0,0,0-.485-.251c-.141-.038-.182-.116-.151-.229.01-.065.041-.1.084-.1a.434.434,0,0,1,.266.018c.231.03.8.05,1.722.05s1.725-.02,2.391-.055c.221-.013.336,0,.336.035s-.005.04-.005.056a4.4,4.4,0,0,0-.1,1.14c.011.1-.046.151-.141.151a.2.2,0,0,1-.21-.14,1.91,1.91,0,0,0-.249-.481.8.8,0,0,0-.482-.243c-.159-.025-.741-.035-1.732-.035-.118,0-.19.015-.221.047s-.028.075-.028.148v2.105c0,.083.049.128.154.128.315-.005.766-.036,1.343-.065a.3.3,0,0,0,.236-.151,1.461,1.461,0,0,0,.108-.407c.046-.153.13-.2.256-.163.115.02.161.065.151.163a6.784,6.784,0,0,0-.087,1.757c0,.088-.064.131-.18.151-.1.01-.159-.047-.18-.16a1.26,1.26,0,0,0-.141-.514.357.357,0,0,0-.29-.143,10.629,10.629,0,0,0-1.276-.053c-.061,0-.095.027-.095.078v2.2c0,.313.184.509.551.572.09.015.415.02.968.02.853,0,1.386-.283,1.594-.88.059-.128.138-.178.254-.128.111.026.162.094.126.191" transform="translate(-40.29 -18.476)" fill="#fff"/>
    <path id="パス_807" data-name="パス 807" d="M179.714,71.7c0,.088-.084.153-.269.211-.418.123-.628.283-.628.478v4.893c0,.318.192.509.566.576.19.03.284.093.284.2,0,.078-.013.128-.049.153a.809.809,0,0,1-.262.015,20.643,20.643,0,0,0-2.1,0c-.13.007-.2-.005-.225-.06a.6.6,0,0,1-.005-.108c0-.067.074-.113.231-.151a2.64,2.64,0,0,0,.5-.138.465.465,0,0,0,.177-.416V72.407c0-.278-.21-.446-.6-.509-.159-.025-.236-.073-.236-.148,0-.1.015-.156.036-.171.026-.035.08-.037.195-.035a8.972,8.972,0,0,0,2.058-.007,1.126,1.126,0,0,1,.246-.02c.059.021.08.079.08.181" transform="translate(-42.776 -18.463)" fill="#fff"/>
    <path id="パス_808" data-name="パス 808" d="M189.079,71.695c0,.083-.1.156-.284.205a.711.711,0,0,0-.607.7v3.62c0,.762.005,1.378.03,1.84,0,.171-.036.278-.125.3-.164.03-.284-.043-.4-.24a19.74,19.74,0,0,0-2.007-2.343q-1.472-1.565-2.839-2.918a.1.1,0,0,0-.1-.04.15.15,0,0,0-.044.123v4.123a.728.728,0,0,0,.679.782c.187.04.282.1.282.205,0,.123-.11.176-.325.168a16.942,16.942,0,0,0-1.9,0c-.146.007-.221-.045-.221-.168,0-.078.074-.128.221-.16a.959.959,0,0,0,.53-.246.81.81,0,0,0,.133-.524V72.681a.7.7,0,0,0-.123-.441,1.188,1.188,0,0,0-.461-.3c-.172-.08-.246-.153-.236-.241s.089-.122.236-.1a4.9,4.9,0,0,0,1.156.045.512.512,0,0,1,.441.171l4.315,4.5c.054.063.089.1.118.1s.046-.055.046-.143V72.635a.7.7,0,0,0-.687-.745c-.174-.04-.243-.082-.243-.142,0-.156.069-.208.221-.205a7.981,7.981,0,0,0,1.881-.007,1.124,1.124,0,0,1,.225-.015c.058.019.095.076.095.174" transform="translate(-43.788 -18.464)" fill="#fff"/>
    <path id="パス_809" data-name="パス 809" d="M198.123,76.552a5.049,5.049,0,0,1-.215,1.083c-.064.176-.331.331-.8.474a5.923,5.923,0,0,1-1.735.231,3.844,3.844,0,0,1-2.672-.945,3.1,3.1,0,0,1-1.1-2.454,3.285,3.285,0,0,1,1.125-2.539,3.767,3.767,0,0,1,2.619-.976,5.846,5.846,0,0,1,1.832.251c.441.151.666.293.689.431a9.666,9.666,0,0,1,.061,1.249c0,.088-.089.145-.271.16-.138.01-.21-.03-.243-.122a2.355,2.355,0,0,0-.733-1.194,2.286,2.286,0,0,0-1.371-.323,2.442,2.442,0,0,0-1.85.734,3.491,3.491,0,0,0,.038,4.45,2.736,2.736,0,0,0,2.058.842,2.087,2.087,0,0,0,1.276-.343,2.266,2.266,0,0,0,.741-1.07c.056-.143.174-.2.361-.163.138.03.2.108.184.226" transform="translate(-46.299 -18.44)" fill="#fff"/>
    <path id="パス_810" data-name="パス 810" d="M202.083,79.519a.7.7,0,0,1-.195.524.6.6,0,0,1-.472.226c-.394,0-.585-.226-.585-.667a.715.715,0,0,1,.195-.494.694.694,0,0,1,.485-.206c.377,0,.572.217.572.617" transform="translate(-48.529 -20.37)" fill="#fff"/>
  </g>
</svg>
