<?xml version="1.0" encoding="utf-8"?>
<!-- Generator: Adobe Illustrator 26.2.1, SVG Export Plug-In . SVG Version: 6.00 Build 0)  -->
<svg version="1.1" id="レイヤー_1" xmlns="http://www.w3.org/2000/svg" xmlns:xlink="http://www.w3.org/1999/xlink" x="0px"
	 y="0px" viewBox="0 0 157 16" style="enable-background:new 0 0 157 16;" xml:space="preserve">
<style type="text/css">
	.st0{fill:#FFFFFF;}
</style>
<g>
	<g>
		<path class="st0" d="M112.85,3.58h11.67c0.14,0,0.26-0.11,0.26-0.26V1.64c0-0.14-0.11-0.26-0.26-0.26h-11.67
			c-0.14,0-0.26,0.11-0.26,0.26v1.69C112.6,3.47,112.71,3.58,112.85,3.58z"/>
		<path class="st0" d="M125.53,5.83h-13.9c-0.14,0-0.26,0.11-0.26,0.26v1.69c0,0.14,0.11,0.26,0.26,0.26h6.06
			c-0.19,3.27-1.97,5.11-5.44,5.63c-0.12,0.02-0.22,0.13-0.22,0.25v1.72c0,0.07,0.03,0.14,0.09,0.19c0.05,0.04,0.11,0.06,0.17,0.06
			c0.01,0,0.02,0,0.03,0c4.72-0.61,7.71-3.55,8.02-7.86h5.18c0.14,0,0.26-0.11,0.26-0.26V6.08C125.79,5.94,125.67,5.83,125.53,5.83z
			"/>
	</g>
	<g>
		<path class="st0" d="M131.38,9.51c0.05-0.05,0.07-0.13,0.06-0.2c-0.22-1.71-0.67-3.55-1-4.79c-0.03-0.11-0.13-0.19-0.24-0.19
			h-1.75c-0.08,0-0.16,0.04-0.2,0.1c-0.05,0.06-0.06,0.14-0.04,0.22c0.28,1.01,0.79,2.96,1.04,4.73c0.02,0.12,0.13,0.22,0.25,0.22
			h1.7C131.26,9.59,131.33,9.56,131.38,9.51z"/>
		<path class="st0" d="M133.12,9.37c0.02,0.13,0.13,0.22,0.25,0.22h1.7c0.07,0,0.14-0.03,0.19-0.09c0.05-0.05,0.07-0.13,0.06-0.2v0
			c-0.22-1.71-0.67-3.55-1-4.8c-0.03-0.11-0.13-0.19-0.24-0.19h-1.75c-0.08,0-0.15,0.04-0.2,0.1c-0.05,0.06-0.06,0.14-0.04,0.22
			C132.37,5.65,132.88,7.61,133.12,9.37z"/>
		<path class="st0" d="M140.07,4.32h-1.92c-0.07,0-0.14,0.03-0.18,0.08c-0.05,0.05-0.07,0.12-0.07,0.19
			c0.03,0.86,0.08,8.47-6.64,9.33c-0.13,0.02-0.22,0.12-0.22,0.25v1.4c0,0.07,0.03,0.14,0.08,0.19c0.05,0.04,0.11,0.07,0.17,0.07
			c0.01,0,0.02,0,0.02,0c3.78-0.34,6.53-2.28,7.95-5.61c1.1-2.58,1.07-5.15,1.06-5.64C140.32,4.43,140.2,4.32,140.07,4.32z"/>
	</g>
	<path class="st0" d="M156.74,1.22h-9.69c-0.12,0-0.22,0.08-0.25,0.19c-0.78,3.22-3.02,4.84-3.68,5.25C143.05,6.72,143,6.8,143,6.89
		V8.9c0,0.09,0.04,0.17,0.12,0.22c0.07,0.05,0.17,0.05,0.24,0.01c1.52-0.74,4.26-2.45,5.55-5.69h5.21
		c-0.25,2.86-0.87,8.57-9.36,10.05c-0.12,0.02-0.21,0.13-0.21,0.25v1.84c0,0.07,0.03,0.14,0.08,0.19c0.05,0.04,0.11,0.07,0.17,0.07
		c0.01,0,0.02,0,0.03,0c4.76-0.49,8.18-2.44,10.17-5.8c1.35-2.28,2.02-5.16,1.99-8.56c0,0,0,0,0,0C157,1.34,156.88,1.22,156.74,1.22
		z"/>
	<path class="st0" d="M79.24,8.84h-5.41L73.61,5.1h4.55c0.14,0,0.26-0.11,0.26-0.26V3.16c0-0.14-0.11-0.26-0.26-0.26h-4.67
		l-0.14-2.55c-0.01-0.13-0.12-0.24-0.25-0.24H71.4c-0.07,0-0.14,0.03-0.19,0.08c-0.05,0.05-0.07,0.12-0.07,0.19l0.14,2.52h-4.34
		c-0.14,0-0.26,0.11-0.26,0.26v1.69c0,0.14,0.11,0.26,0.26,0.26h4.47l0.21,3.75h-5.83c-0.14,0-0.26,0.11-0.26,0.26v1.69
		c0,0.14,0.11,0.26,0.26,0.26h5.96L72,15.62c0.01,0.14,0.12,0.24,0.25,0.24h1.69c0.07,0,0.14-0.03,0.19-0.08
		c0.05-0.05,0.07-0.12,0.07-0.19l-0.26-4.55h5.29c0.14,0,0.26-0.11,0.26-0.26V9.1C79.49,8.96,79.38,8.84,79.24,8.84z"/>
	<path class="st0" d="M93.52,5.2l-6.62,0l-0.13-2.33c-0.01-0.14-0.12-0.24-0.25-0.24h-1.69c-0.07,0-0.14,0.03-0.19,0.08
		s-0.07,0.12-0.07,0.19l0.13,2.3h-2.47c-0.14,0-0.26,0.11-0.26,0.26v1.69c0,0.14,0.11,0.26,0.26,0.26h2.59l0.46,8.23
		c0.01,0.14,0.12,0.24,0.25,0.24h1.69c0.07,0,0.14-0.03,0.19-0.08c0.05-0.05,0.07-0.12,0.07-0.19l-0.46-8.2h4.22
		c-0.43,1.26-1.24,2.25-2.41,2.92c-0.08,0.04-0.13,0.13-0.13,0.22v1.88c0,0.09,0.04,0.17,0.12,0.21c0.07,0.05,0.16,0.06,0.24,0.02
		c4.25-1.84,4.72-5.65,4.72-7.2C93.78,5.31,93.67,5.2,93.52,5.2z"/>
	<path class="st0" d="M106.65,6.48h-1.87c-0.09,0-0.17,0.04-0.22,0.12c-0.05,0.07-0.05,0.17-0.01,0.25
		c0.41,0.85,1.79,3.83,2.32,6.86h-8.91c2.47-5.32,3.72-9.45,4.34-11.98c0.02-0.08,0-0.16-0.05-0.22c-0.05-0.06-0.12-0.1-0.2-0.1
		h-1.75c-0.12,0-0.22,0.08-0.24,0.19c-0.67,2.59-2,6.79-4.53,12.11c-0.02,0.03-0.02,0.07-0.02,0.11v1.79c0,0.14,0.11,0.25,0.26,0.25
		h13.26c0.07,0,0.14-0.03,0.18-0.08c0.05-0.05,0.07-0.12,0.07-0.18c-0.09-3.42-1.54-7.09-2.39-8.97
		C106.84,6.54,106.75,6.48,106.65,6.48z"/>
	<g>
		<path class="st0" d="M45.89,4.49c-0.92-0.41-2.69-1.37-4.22-3.12c-0.05-0.06-0.12-0.09-0.19-0.09H37.5c-0.08,0-0.15,0.03-0.2,0.09
			c-1.48,1.79-3.57,2.72-4.4,3.04c-0.09,0.04-0.16,0.13-0.16,0.23L32.7,5.81c0,0.08,0.04,0.16,0.1,0.21
			c0.07,0.05,0.15,0.06,0.23,0.04c1.01-0.34,3.38-1.14,5.13-2.99h2.65c1.82,1.92,3.93,2.74,4.84,3.09c0.03,0.01,0.06,0.02,0.09,0.02
			c0.05,0,0.1-0.01,0.14-0.04C45.96,6.09,46,6.01,46,5.93l0.04-1.2C46.05,4.62,45.99,4.53,45.89,4.49z"/>
		<path class="st0" d="M43,7.21c0.14,0,0.26-0.11,0.26-0.26V5.82c0-0.14-0.11-0.26-0.26-0.26h-7.2c-0.14,0-0.26,0.11-0.26,0.26v1.14
			c0,0.14,0.11,0.26,0.26,0.26H43z"/>
		<path class="st0" d="M45.49,8.14H33.22c-0.14,0-0.26,0.11-0.26,0.26v1.35c0,0.14,0.11,0.26,0.26,0.26h1.9
			c-0.33,0.74-1.09,2.64-1.11,4.34c0,0.07,0.03,0.13,0.07,0.18c0.05,0.05,0.11,0.08,0.18,0.08h10.27c0.07,0,0.14-0.03,0.18-0.08
			c0.05-0.05,0.07-0.11,0.07-0.18c-0.03-1.12-0.64-2.81-0.76-3.14c-0.04-0.1-0.13-0.17-0.24-0.17h-1.4c-0.08,0-0.16,0.04-0.21,0.11
			c-0.05,0.07-0.06,0.16-0.03,0.24c0.08,0.2,0.32,0.84,0.37,1.36h-6.24c0.06-1.04,0.64-2.36,0.82-2.75h8.39
			c0.14,0,0.26-0.11,0.26-0.26V8.4C45.74,8.26,45.63,8.14,45.49,8.14z"/>
	</g>
	<g>
		<path class="st0" d="M54.37,10.28c0.08-0.04,0.13-0.13,0.13-0.22V8.92c0-0.08-0.04-0.15-0.1-0.2c0,0,0,0,0,0
			c-0.63-0.48-1.08-0.94-1.36-1.27c0.58-0.65,1.12-1.69,1.42-2.76c0-0.01,0.01-0.05,0.01-0.07v-1c0-0.14-0.11-0.26-0.26-0.26h-1.65
			V1.65c0-0.14-0.11-0.26-0.26-0.26h-1.14c-0.14,0-0.26,0.11-0.26,0.26v1.71h-1.85c-0.14,0-0.26,0.11-0.26,0.26v1.14
			c0,0.14,0.11,0.26,0.26,0.26h3.36c-0.24,0.62-1.13,2.44-3.47,3.63c-0.09,0.04-0.14,0.13-0.14,0.23v1.42
			c0,0.09,0.04,0.16,0.11,0.21c0.07,0.05,0.16,0.06,0.24,0.03c0.68-0.27,1.37-0.74,1.76-1.03v4.82c0,0.14,0.11,0.26,0.26,0.26h1.14
			c0.14,0,0.26-0.11,0.26-0.26V9.04c0.46,0.45,0.98,0.86,1.53,1.23C54.19,10.32,54.29,10.32,54.37,10.28z"/>
		<path class="st0" d="M62.32,12.41h-3.13V6.94h2.54c0.14,0,0.26-0.11,0.26-0.26V5.33c0-0.14-0.11-0.26-0.26-0.26h-2.54V1.65
			c0-0.14-0.11-0.26-0.26-0.26h-1.35c-0.14,0-0.26,0.11-0.26,0.26v3.42h-2.23c-0.14,0-0.26,0.11-0.26,0.26v1.35
			c0,0.14,0.11,0.26,0.26,0.26h2.23v5.47h-3.13c-0.14,0-0.26,0.11-0.26,0.26v1.35c0,0.14,0.11,0.26,0.26,0.26h8.13
			c0.14,0,0.26-0.11,0.26-0.26v-1.35C62.57,12.52,62.46,12.41,62.32,12.41z"/>
	</g>
	<g>
		<path class="st0" d="M4.73,3.4H3.73V1.53c0-0.14-0.11-0.26-0.26-0.26H2.12c-0.14,0-0.26,0.11-0.26,0.26V3.4H0.26
			C0.11,3.4,0,3.52,0,3.66v1.35c0,0.14,0.11,0.26,0.26,0.26l1.48,0C1.43,6.65,0.88,7.9,0.09,9C0.05,9.04,0.04,9.1,0.04,9.15v1.78
			c0,0.1,0.06,0.2,0.16,0.24c0.1,0.04,0.21,0.02,0.28-0.06C1,10.56,1.46,9.96,1.86,9.33v5.02c0,0.14,0.11,0.26,0.26,0.26h1.35
			c0.14,0,0.26-0.11,0.26-0.26V9.24c0.23,0.3,0.49,0.59,0.76,0.87c0.07,0.08,0.18,0.1,0.28,0.06c0.1-0.04,0.16-0.13,0.16-0.24V8.17
			c0-0.05-0.02-0.11-0.05-0.15C4.33,7.27,3.94,6.47,3.73,5.66V5.27h1.01c0.14,0,0.26-0.11,0.26-0.26V3.66
			C4.99,3.52,4.88,3.4,4.73,3.4z"/>
		<path class="st0" d="M13.62,11.42c-0.62-0.44-2.06-1.35-2.71-2.97h2.51c0.14,0,0.26-0.11,0.26-0.26V6.84
			c0-0.14-0.11-0.26-0.26-0.26h-2.93V5.27h2.68c0.14,0,0.26-0.11,0.26-0.26V3.66c0-0.14-0.11-0.26-0.26-0.26h-2.68V1.53
			c0-0.14-0.11-0.26-0.26-0.26H8.88c-0.14,0-0.26,0.11-0.26,0.26V3.4h-1c0.12-0.63,0.19-1.26,0.21-1.87c0-0.07-0.02-0.13-0.07-0.18
			C7.72,1.3,7.65,1.27,7.58,1.27H6.44c-0.14,0-0.25,0.11-0.25,0.24C6.15,2.35,5.97,4.02,5.16,5.84C5.12,5.92,5.13,6.01,5.18,6.08
			C5.22,6.15,5.3,6.2,5.39,6.2h1.24c0.1,0,0.2-0.06,0.24-0.16c0.1-0.26,0.2-0.52,0.28-0.77h1.48v1.32H5.8
			c-0.14,0-0.26,0.11-0.26,0.26V8.2c0,0.14,0.11,0.26,0.26,0.26H8.1c-0.63,1.56-2.49,2.78-2.7,2.93c-0.07,0.05-0.11,0.13-0.11,0.21
			v1.35c0,0.09,0.05,0.18,0.13,0.22c0.08,0.05,0.17,0.05,0.25,0c0.51-0.29,2.06-1.3,2.96-2.36v3.55c0,0.14,0.11,0.26,0.26,0.26h1.35
			c0.14,0,0.26-0.11,0.26-0.26v-3.59c1.05,1.35,2.12,2.11,2.86,2.52c0.08,0.04,0.17,0.04,0.25,0c0.08-0.05,0.13-0.13,0.13-0.22
			v-1.42C13.73,11.55,13.69,11.47,13.62,11.42z"/>
	</g>
	<g>
		<path class="st0" d="M26.6,5.27h3.18c0.14,0,0.25-0.11,0.25-0.25V3.66c0-0.14-0.11-0.26-0.26-0.26h-3.22
			c0-0.46,0.01-1.58,0.01-1.87c0-0.07-0.03-0.13-0.07-0.18c-0.05-0.05-0.11-0.08-0.18-0.08h-1.35c-0.14,0-0.25,0.11-0.26,0.25
			c0,0.29-0.01,1.42-0.01,1.88H17.1c-0.14,0-0.26,0.11-0.26,0.26v1.35c0,0.14,0.11,0.26,0.26,0.26h7.63
			c0.26,4.12,1.93,7.28,4.96,9.4c0.04,0.03,0.09,0.05,0.15,0.05c0.04,0,0.08-0.01,0.12-0.03c0.09-0.04,0.14-0.13,0.14-0.23v-1.67
			c0-0.1-0.04-0.19-0.12-0.25C27.92,10.78,26.82,8.4,26.6,5.27z"/>
		<path class="st0" d="M29.8,1.27h-2.11c-0.14,0-0.26,0.11-0.26,0.26v0.93c0,0.14,0.11,0.26,0.26,0.26h2.11
			c0.14,0,0.26-0.11,0.26-0.26V1.53C30.05,1.39,29.94,1.27,29.8,1.27z"/>
		<path class="st0" d="M24,10.82c-0.08-0.04-0.17-0.04-0.25,0c-0.25,0.14-0.94,0.49-2.24,0.84V8.45h2.18c0.14,0,0.26-0.11,0.26-0.26
			V6.84c0-0.14-0.11-0.26-0.26-0.26h-6.45c-0.14,0-0.26,0.11-0.26,0.26V8.2c0,0.14,0.11,0.26,0.26,0.26h2.41v3.62
			c-1.04,0.17-2,0.19-2.35,0.19c-0.02,0-0.04,0-0.06,0c-0.07,0-0.13,0.03-0.18,0.07c-0.05,0.05-0.08,0.11-0.08,0.18v1.44
			c0,0.07,0.03,0.14,0.08,0.19c0.05,0.05,0.11,0.07,0.17,0.07c0,0,0.01,0,0.01,0c1.46-0.07,4.27-0.36,6.77-1.48
			c0.1-0.04,0.16-0.14,0.15-0.24l-0.04-1.46C24.13,10.95,24.08,10.86,24,10.82z"/>
	</g>
</g>
</svg>
