<svg xmlns="http://www.w3.org/2000/svg" width="371.786" height="120.852" viewBox="0 0 371.786 120.852">
  <g id="グループ_9199" data-name="グループ 9199" transform="translate(-100.107 -227.227)">
    <path id="パス_4361" data-name="パス 4361" d="M-4.5-6.264A25.514,25.514,0,0,1-.18-.36L1.26-1.476A15.165,15.165,0,0,1,2.268,3.1c1.332,0,2.412.036,2.772.036,4.9,0,6.516-1.08,6.516-4.392V-8.388a20.812,20.812,0,0,1,3.384.18v-5.256a23.16,23.16,0,0,1-3.384.144V-15.3a23.359,23.359,0,0,1,3.564.18V-20.3a38.229,38.229,0,0,1-4.176.18H7.416v-2.16h2.772a36.272,36.272,0,0,1,3.924.144V-27.4a30.6,30.6,0,0,1-4,.216h-2.7v-.72a15.65,15.65,0,0,1,.18-2.484H1.944a12.9,12.9,0,0,1,.18,2.52v.684H-.108A30.812,30.812,0,0,1-4.14-27.4v5.256a10.751,10.751,0,0,1,1.368-.072c1.116-.036,2.088-.036,2.844-.072H2.124v2.16H-.54a40.352,40.352,0,0,1-4.32-.18v5.184c1.116-.108,2.772-.18,4.248-.18H6.3v1.98H-.612a38.9,38.9,0,0,1-4.248-.144v5.256c1.3-.108,2.16-.144,3.924-.18ZM6.3-8.388V-2.7c0,.684-.288.9-1.3.9a28.04,28.04,0,0,1-3.1-.18l2.3-1.8A21.793,21.793,0,0,0,.468-8.388ZM-17.532-3.42a31.774,31.774,0,0,1-.216,4.752h5.22V-1.8h1.944V0h5c-.072-1.08-.072-1.656-.072-3.78V-25.236c0-2.088,0-2.772.072-3.564-.9.072-1.584.108-2.988.108h-6.084a22.843,22.843,0,0,1-3.024-.144c.108,1.4.144,2.088.144,3.888Zm5.04-20.448h1.944v6.084h-1.944Zm0,10.8h1.944v6.3h-1.944ZM46.836-16.38a20.158,20.158,0,0,1,2.3-.108,12.508,12.508,0,0,1,1.548.072l-.036-5.616a33.27,33.27,0,0,1-4.248.468l-.972.036,3.96-2.88a45.8,45.8,0,0,0-5.256-5.832l-4.392,2.952a42.659,42.659,0,0,1,4.788,5.832l-5.04.288c-.18-2.592-.216-4-.216-6.048a17.086,17.086,0,0,1,.18-3.06l-6.048.108a19.727,19.727,0,0,1,.216,3.06c.108,4.14.108,4.14.252,6.3l-1.944.108c-.612.036-1.908.072-2.484.072-.4,0-.5,0-1.548-.036l.036,5.508a31.42,31.42,0,0,1,3.636-.36l2.844-.18C35.352-9.108,37.332-4.1,40.392-.36c2.052,2.484,3.852,3.636,5.688,3.636a3.75,3.75,0,0,0,3.312-1.944C50.436-.36,51.012-2.52,51.48-6.624a19.13,19.13,0,0,1-4.752-3.1c-.252,3.888-.684,6.156-1.152,6.156a3.22,3.22,0,0,1-1.044-.864,16.175,16.175,0,0,1-2.448-3.924A28.632,28.632,0,0,1,40-15.984ZM21.456-1.224A38.464,38.464,0,0,1,21.24,3.24h5.94a39.343,39.343,0,0,1-.216-4.464V-21.816a64.111,64.111,0,0,0,2.88-7.2l-5.616-1.836A19.4,19.4,0,0,1,22.9-26.28,30.138,30.138,0,0,1,16.56-16.2a24.478,24.478,0,0,1,2.268,6.264,22.2,22.2,0,0,0,2.7-3.24c-.072,1.152-.072,1.908-.072,3.852Zm56.088-21.06a6.033,6.033,0,0,1,3.024,1.26,8.471,8.471,0,0,1,3.168,7.092c0,3.852-1.548,6.876-4.32,8.352a18.723,18.723,0,0,1-7.56,1.836,17.688,17.688,0,0,1,3.06,5.9C79.956,1.368,82.8.216,85.248-1.98a15.491,15.491,0,0,0,4.788-11.628,14.314,14.314,0,0,0-3.528-10.008c-2.664-2.808-6.912-4.428-11.736-4.428A17.213,17.213,0,0,0,61.74-22.752a16,16,0,0,0-4.14,10.98c0,6.588,3.384,11.2,8.208,11.2,3.276,0,5.688-2.016,7.776-6.624A50.432,50.432,0,0,0,77.544-22.284Zm-6.228.072a46.675,46.675,0,0,1-2.7,10.98c-1.08,2.736-2.016,4-2.916,4-1.26,0-2.232-2.016-2.232-4.572a11.648,11.648,0,0,1,3.924-8.568A7.2,7.2,0,0,1,71.316-22.212Zm-231.48,46.524.432-.972c.216-.468.288-.612.792-1.836.324-.864.432-1.116.864-2.124l-6.624-1.368c-.756,5.04-4.788,11.592-9.252,15.084a17.653,17.653,0,0,1,5.256,4.032,29.811,29.811,0,0,0,5.724-7.02h7.344c-.432,8.064-3.852,12.276-12.276,15.12a15.571,15.571,0,0,1,4.212,5.688c9.828-4.176,13.932-10.044,14.58-20.808h2.556a53.278,53.278,0,0,1,5.724.216V24.06a48.153,48.153,0,0,1-5.688.252h-.36l2.88-.936a23.145,23.145,0,0,0-2.808-5.58l-3.6,1.044a25.007,25.007,0,0,1,2.7,5.472Zm15.12-6.8a28.042,28.042,0,0,1,2.808,5.616l3.456-1.152a25.754,25.754,0,0,0-2.844-5.472Zm6.66,20.232c2.2-.18,3.384-.216,7.416-.216h17.136a69.484,69.484,0,0,1,7.416.216V30.792a59.067,59.067,0,0,1-7.38.324H-131a51.013,51.013,0,0,1-7.38-.324Zm45.216-19.4a31.974,31.974,0,0,1-1.4,6.444,165.4,165.4,0,0,1-5.976,17.892,6.668,6.668,0,0,1-.9.036l-1.116.036c-.4.036-.684.036-.9.036-.18,0-.468,0-1.152-.036l.936,6.732a18.9,18.9,0,0,1,1.98-.324l8.244-.792c5.58-.576,9.252-1.08,14.4-1.98a27.456,27.456,0,0,1,1.332,4.032l6.156-3.132a77.593,77.593,0,0,0-8.568-17.208l-5.652,2.16A59.356,59.356,0,0,1-81.252,40.8,110.377,110.377,0,0,1-93.6,42.2c2.34-5.976,3.888-10.548,6.7-19.872a14.344,14.344,0,0,1,.936-2.664Zm48.348-.4A21.388,21.388,0,0,1-49.356,19.6a75.375,75.375,0,0,1-15.768,1.872c-.54,0-1.188,0-2.412-.072A18.5,18.5,0,0,1-65.7,26.868c5.8-.252,6.084-.252,9.5-.612v1.008c0,1.26,0,1.944-.072,3.024h-7.56a34.857,34.857,0,0,1-5.724-.252v5.9a49.656,49.656,0,0,1,5.616-.18h7.092a9.389,9.389,0,0,1-1.764,4.68c-1.548,2.16-3.78,3.564-8.136,5.148a16.544,16.544,0,0,1,4.464,5.4,20.128,20.128,0,0,0,3.492-1.836,19.524,19.524,0,0,0,5.976-5.76A18.173,18.173,0,0,0-50.4,35.76h6.408a48.9,48.9,0,0,1,5.58.18v-5.9a45.042,45.042,0,0,1-5.688.252H-50c.036-.792.072-3.1.108-4.9a53.466,53.466,0,0,0,6.984-1.728,13.419,13.419,0,0,1,2.016-.612Zm27.792,15.12h3.456a46.251,46.251,0,0,1,4.716.18V27.732a32.035,32.035,0,0,1-4.716.252H-26.136a32.24,32.24,0,0,1-4.644-.252V33.24a40.924,40.924,0,0,1,4.68-.18h3.312V43.788h-5.4a31.975,31.975,0,0,1-4.86-.216v5.472a46.085,46.085,0,0,1,4.9-.144h16.74c2.556,0,3.564.036,4.86.144V43.572a35.57,35.57,0,0,1-4.86.216h-5.616Zm16.7-7.848a38.448,38.448,0,0,1,9.792,7.6l4.248-5.616a52.518,52.518,0,0,0-9.9-7.056ZM1.908,49.4c.972-.288,1.188-.324,2.592-.648,6.7-1.548,10.116-2.88,14-5.4,5.04-3.24,8.46-7.488,11.736-14.58a23.241,23.241,0,0,1-5.292-4.824,33.144,33.144,0,0,1-3.528,7.056A21.648,21.648,0,0,1,10.872,39.9,36.124,36.124,0,0,1,.036,42.492ZM35.82,23.952A44.564,44.564,0,0,1,46.152,29.1l3.2-5.508A62.854,62.854,0,0,0,39.024,18.84ZM54.072,19.7a25.515,25.515,0,0,1,3.168,5.832l3.564-1.3a25.142,25.142,0,0,0-3.168-5.724Zm-21.06,13.1a43.6,43.6,0,0,1,10.3,5.616l3.06-5.652A51.256,51.256,0,0,0,36.324,27.66Zm26.244-14.8a25.687,25.687,0,0,1,3.132,5.652l3.456-1.26a23.95,23.95,0,0,0-3.2-5.544Zm-23.4,32.22a24.808,24.808,0,0,1,2.556-.612c13.32-2.268,21.492-8.46,26.064-19.764a22.44,22.44,0,0,1-5.292-4.5c-2.556,7.776-7.308,13.068-14.04,15.732a33.936,33.936,0,0,1-11.088,2.3ZM74.916,29.64l-2.16.36a32.77,32.77,0,0,1-3.816.4l.972,5.508a27.482,27.482,0,0,1,3.564-.828l2.34-.4L77.76,45.912a35.773,35.773,0,0,1,.648,5l6.264-1.08a31.272,31.272,0,0,1-1.188-5L81.36,33.744l7.92-1.368a16.019,16.019,0,0,1-5.4,5.688,15.814,15.814,0,0,1,4.572,3.456,22.641,22.641,0,0,0,7.2-10.224,5.027,5.027,0,0,1,.9-1.944l-3.384-3.1a4.4,4.4,0,0,1-2.124.684L80.424,28.7l-.432-2.16a16.47,16.47,0,0,1-.324-3.1l-5.9.864a16.4,16.4,0,0,1,.756,3.06Zm26.1,8.1c2.2-.18,3.384-.216,7.416-.216h17.136a69.484,69.484,0,0,1,7.416.216V30.792a59.067,59.067,0,0,1-7.38.324H108.4a51.013,51.013,0,0,1-7.38-.324Zm42.336,4.176.648-.792c.468-.54.468-.54,1.26-1.44,1.368-1.512,3.6-4.32,5-6.228,2.448-3.348,2.484-3.384,3.06-3.384.54,0,.828.252,2.016,1.656,6.588,7.92,9.4,10.944,14.256,15.372.612.576.828.756,1.3,1.224l3.168-7.056a16.3,16.3,0,0,1-3.06-2.3,102.527,102.527,0,0,1-10.008-10.3c-2.808-3.42-2.808-3.42-3.672-4.212a5.735,5.735,0,0,0-4.032-1.692,5.893,5.893,0,0,0-4,1.62,27.086,27.086,0,0,0-3.312,3.888c-3.168,4.032-5.148,6.192-6.624,7.308Z" transform="translate(286 258.079)"/>
    <line id="線_63" data-name="線 63" x2="371.786" transform="translate(100.107 346.079)" fill="none" stroke="#000" stroke-width="4"/>
    <path id="パス_4360" data-name="パス 4360" d="M-30.312-4.032A34.359,34.359,0,0,1-30.6,1.224c1.512-.072,2.52-.108,5.292-.108h7.6c4.284,0,7.7-1.224,10.116-3.6C-4.86-5.22-3.42-9.18-3.42-14.112c0-4.788-1.332-8.568-3.96-11.16-2.412-2.34-5.976-3.564-10.4-3.564h-7.524c-2.988,0-3.888-.036-5.328-.108a30.923,30.923,0,0,1,.324,5.292Zm7.128-1.152V-22.536h4.716c2.592,0,4.32.576,5.58,1.836,1.4,1.4,2.088,3.636,2.088,6.7,0,2.988-.792,5.4-2.268,6.912A6.968,6.968,0,0,1-18.36-5.184ZM16.488-9.4l3.924,6.084C21.636-1.4,22.32-.18,23,1.116h9.54c-1.512-1.836-2.52-3.132-3.672-4.752L20.916-14.8l6.768-9.5c1.26-1.8,2.124-2.916,3.42-4.536H21.852a29.885,29.885,0,0,1-2.628,4.716l-2.7,4.212-2.736-4.176a31.346,31.346,0,0,1-2.664-4.752H1.8c1.332,1.584,2.412,2.988,3.528,4.608L12.06-14.76,4.14-3.636C3.1-2.2,2.376-1.26.432,1.116h9.54C10.872-.54,11.628-1.8,12.6-3.312Z" transform="translate(228 258.079)" fill="#538eb4"/>
  </g>
</svg>
