<svg xmlns="http://www.w3.org/2000/svg" width="870" height="215.631" viewBox="0 0 870 215.631"><g transform="translate(-100.5 -194.869)"><line x2="870" transform="translate(100.5 408)" fill="none" stroke="#000" stroke-width="5"/><path d="M201.275-14.442A58.824,58.824,0,0,1,211.235-.83l3.32-2.573a34.964,34.964,0,0,1,2.324,10.541c3.071,0,5.561.083,6.391.083,11.288,0,15.023-2.49,15.023-10.126V-19.339a47.983,47.983,0,0,1,7.8.415V-31.042a53.4,53.4,0,0,1-7.8.332v-4.565a53.856,53.856,0,0,1,8.217.415V-46.812a88.139,88.139,0,0,1-9.628.415h-8.134v-4.98h6.391a83.628,83.628,0,0,1,9.047.332V-63.163a70.539,70.539,0,0,1-9.213.5h-6.225v-1.66a36.082,36.082,0,0,1,.415-5.727H216.132a29.752,29.752,0,0,1,.415,5.81v1.577H211.4a71.04,71.04,0,0,1-9.3-.5v12.118a24.787,24.787,0,0,1,3.154-.166c2.573-.083,4.814-.083,6.557-.166h4.731v4.98H210.4a93.034,93.034,0,0,1-9.96-.415V-34.86c2.573-.249,6.391-.415,9.794-.415h15.936v4.565H210.239a89.676,89.676,0,0,1-9.794-.332v12.118c2.988-.249,4.98-.332,9.047-.415Zm24.9-4.9V-6.225c0,1.577-.664,2.075-2.988,2.075a64.648,64.648,0,0,1-7.138-.415l5.312-4.15a50.244,50.244,0,0,0-8.632-10.624ZM171.229-7.885a73.259,73.259,0,0,1-.5,10.956h12.035V-4.15h4.482V0h11.537c-.166-2.49-.166-3.818-.166-8.715V-58.183c0-4.814,0-6.391.166-8.217-2.075.166-3.652.249-6.889.249H177.869a52.666,52.666,0,0,1-6.972-.332c.249,3.237.332,4.814.332,8.964Zm11.62-47.144h4.482V-41h-4.482Zm0,24.9h4.482V-15.6h-4.482Zm136.784-7.636a46.476,46.476,0,0,1,5.312-.249,28.837,28.837,0,0,1,3.569.166L328.431-50.8a76.706,76.706,0,0,1-9.794,1.079l-2.241.083,9.13-6.64A105.6,105.6,0,0,0,313.408-69.72l-10.126,6.806a98.351,98.351,0,0,1,11.039,13.446L302.7-48.8c-.415-5.976-.5-9.213-.5-13.944a39.394,39.394,0,0,1,.415-7.055l-13.944.249a45.481,45.481,0,0,1,.5,7.055c.249,9.545.249,9.545.581,14.525l-4.482.249c-1.411.083-4.4.166-5.727.166-.913,0-1.162,0-3.569-.083l.083,12.7a72.44,72.44,0,0,1,8.383-.83L291-36.188C293.156-21,297.721-9.462,304.776-.83c4.731,5.727,8.881,8.383,13.114,8.383,3.237,0,5.727-1.494,7.636-4.482,2.407-3.9,3.735-8.881,4.814-18.343a44.105,44.105,0,0,1-10.956-7.138c-.581,8.964-1.577,14.193-2.656,14.193a7.423,7.423,0,0,1-2.407-1.992,37.292,37.292,0,0,1-5.644-9.047,66.013,66.013,0,0,1-4.814-17.6ZM261.118-2.822a88.679,88.679,0,0,1-.5,10.292h13.7a90.707,90.707,0,0,1-.5-10.292V-50.3c4.233-9.628,4.233-9.628,6.64-16.6l-12.948-4.233a44.739,44.739,0,0,1-3.071,10.541A69.486,69.486,0,0,1,249.83-37.35a56.437,56.437,0,0,1,5.229,14.442,51.184,51.184,0,0,0,6.225-7.47c-.166,2.656-.166,4.4-.166,8.881ZM376.54-37.14a10.056,10.056,0,0,1,5.04,2.1c3.48,2.64,5.28,6.72,5.28,11.82,0,6.42-2.58,11.46-7.2,13.92-3.24,1.68-6.96,2.64-12.6,3.06a29.479,29.479,0,0,1,5.1,9.84c8.4-1.32,13.14-3.24,17.22-6.9,5.04-4.5,7.98-11.58,7.98-19.38,0-6.78-2.04-12.6-5.88-16.68-4.44-4.68-11.52-7.38-19.56-7.38-8.82,0-16.44,3.06-21.72,8.82a26.673,26.673,0,0,0-6.9,18.3c0,10.98,5.64,18.66,13.68,18.66,5.46,0,9.48-3.36,12.96-11.04C373.18-19.08,375.22-26.82,376.54-37.14Zm-10.38.12a77.791,77.791,0,0,1-4.5,18.3c-1.8,4.56-3.36,6.66-4.86,6.66-2.1,0-3.72-3.36-3.72-7.62a19.412,19.412,0,0,1,6.54-14.28A12,12,0,0,1,366.16-37.02ZM33.283,51.386l1-2.241c.5-1.079.664-1.411,1.826-4.233.747-1.992,1-2.573,1.992-4.9L22.825,36.861C21.082,48.481,11.786,63.587,1.494,71.638a40.7,40.7,0,0,1,12.118,9.3c5.561-5.146,8.549-8.8,13.2-16.185H43.741c-1,18.592-8.881,28.3-28.3,34.86a35.9,35.9,0,0,1,9.711,13.114C47.808,103.1,57.27,89.566,58.764,64.749h5.893a122.834,122.834,0,0,1,13.2.5V50.8a111.019,111.019,0,0,1-13.114.581h-.83l6.64-2.158a53.361,53.361,0,0,0-6.474-12.865l-8.3,2.407A57.654,57.654,0,0,1,62,51.386ZM68.143,35.7a64.654,64.654,0,0,1,6.474,12.948l7.968-2.656a59.378,59.378,0,0,0-6.557-12.616ZM83.5,82.345c5.063-.415,7.8-.5,17.1-.5H140.1c9.462,0,13.114.083,17.1.5V66.326a136.184,136.184,0,0,1-17.015.747H100.513c-8.632,0-13.114-.166-17.015-.747ZM187.746,37.608c-.332,3.818-1,6.972-3.237,14.857a381.349,381.349,0,0,1-13.778,41.251,15.374,15.374,0,0,1-2.075.083l-2.573.083c-.913.083-1.577.083-2.075.083-.415,0-1.079,0-2.656-.083L163.51,109.4a43.568,43.568,0,0,1,4.565-.747l19.007-1.826c12.865-1.328,21.331-2.49,33.2-4.565a63.3,63.3,0,0,1,3.071,9.3l14.193-7.221a178.9,178.9,0,0,0-19.754-39.674l-13.031,4.98A136.85,136.85,0,0,1,215.219,89.4a254.483,254.483,0,0,1-28.469,3.237c5.395-13.778,8.964-24.319,15.438-45.816a33.07,33.07,0,0,1,2.158-6.142Zm111.469-.913a49.312,49.312,0,0,1-10.458,3.818c-9.462,2.407-25.315,4.316-36.354,4.316-1.245,0-2.739,0-5.561-.166a42.653,42.653,0,0,1,4.233,12.616c13.363-.581,14.027-.581,21.912-1.411v2.324c0,2.9,0,4.482-.166,6.972h-17.43c-7.719,0-9.711-.083-13.2-.581V78.195a114.482,114.482,0,0,1,12.948-.415h16.351c-.747,4.9-1.826,7.8-4.067,10.79-3.569,4.98-8.715,8.217-18.758,11.869a38.143,38.143,0,0,1,10.292,12.45,46.407,46.407,0,0,0,8.051-4.233,45.013,45.013,0,0,0,13.778-13.28c2.988-4.9,4.565-9.96,5.561-17.6h14.774a112.733,112.733,0,0,1,12.865.415V64.583a103.847,103.847,0,0,1-13.114.581H287.263c.083-1.826.166-7.138.249-11.288a123.269,123.269,0,0,0,16.1-3.984,30.938,30.938,0,0,1,4.648-1.411Zm64.076,34.86h7.968a106.633,106.633,0,0,1,10.873.415v-12.7a73.86,73.86,0,0,1-10.873.581H342.292a74.332,74.332,0,0,1-10.707-.581v12.7a94.352,94.352,0,0,1,10.79-.415h7.636V96.289h-12.45a73.72,73.72,0,0,1-11.205-.5v12.616a106.248,106.248,0,0,1,11.288-.332h38.6c5.893,0,8.217.083,11.205.332V95.791a82.009,82.009,0,0,1-11.205.5H363.291ZM401.8,53.461a88.644,88.644,0,0,1,22.576,17.513l9.794-12.948C427.2,51.718,421.806,47.9,411.348,41.758Zm5.146,55.776c2.241-.664,2.739-.747,5.976-1.494,15.438-3.569,23.323-6.64,32.287-12.45,11.62-7.47,19.5-17.264,27.058-33.615-6.225-4.565-8.134-6.225-12.2-11.122a76.415,76.415,0,0,1-8.134,16.268c-6.391,9.96-13.861,16.185-24.319,20.5A83.285,83.285,0,0,1,402.633,93.3Zm78.186-58.681a102.745,102.745,0,0,1,23.821,11.869l7.387-12.7A144.915,144.915,0,0,0,492.522,38.77Zm42.081-9.794a58.828,58.828,0,0,1,7.3,13.446l8.217-2.988a57.965,57.965,0,0,0-7.3-13.2ZM478.661,70.974A100.532,100.532,0,0,1,502.4,83.922l7.055-13.031A118.173,118.173,0,0,0,486.3,59.1Zm60.507-34.113a59.226,59.226,0,0,1,7.221,13.031l7.968-2.9a55.216,55.216,0,0,0-7.387-12.782Zm-53.95,74.285a57.2,57.2,0,0,1,5.893-1.411c30.71-5.229,49.551-19.5,60.092-45.567A51.738,51.738,0,0,1,539,53.793c-5.893,17.928-16.849,30.129-32.37,36.271-7.719,3.071-18.26,5.312-25.564,5.312ZM575.273,63.67l-4.98.83a75.554,75.554,0,0,1-8.8.913l2.241,12.7a63.361,63.361,0,0,1,8.217-1.909l5.4-.913,4.482,25.9a82.481,82.481,0,0,1,1.494,11.537l14.442-2.49A72.1,72.1,0,0,1,595.027,98.7l-4.9-25.564,18.26-3.154a36.932,36.932,0,0,1-12.45,13.114,36.46,36.46,0,0,1,10.541,7.968c8.466-7.3,13.114-13.944,16.6-23.572,1.079-3.154,1.245-3.4,2.075-4.482l-7.8-7.138c-1.245.83-2.158,1.162-4.9,1.577l-24.485,4.067-1-4.98a37.974,37.974,0,0,1-.747-7.138l-13.612,1.992a37.819,37.819,0,0,1,1.743,7.055Zm60.175,18.675c5.063-.415,7.8-.5,17.1-.5h39.508c9.462,0,13.114.083,17.1.5V66.326a136.184,136.184,0,0,1-17.015.747H652.463c-8.632,0-13.114-.166-17.015-.747ZM730.02,95.86l1.08-1.32c.78-.9.78-.9,2.1-2.4,2.28-2.52,6-7.2,8.34-10.38,4.08-5.58,4.14-5.64,5.1-5.64.9,0,1.38.42,3.36,2.76,10.98,13.2,15.66,18.24,23.76,25.62,1.02.96,1.38,1.26,2.16,2.04l5.28-11.76a27.159,27.159,0,0,1-5.1-3.84,170.878,170.878,0,0,1-16.68-17.16c-4.68-5.7-4.68-5.7-6.12-7.02a9.558,9.558,0,0,0-6.72-2.82,9.821,9.821,0,0,0-6.66,2.7c-1.38,1.26-1.62,1.56-5.52,6.48-5.28,6.72-8.58,10.32-11.04,12.18Z" transform="translate(100 266)"/><path d="M5.893-9.3A79.216,79.216,0,0,1,5.229,2.822c3.486-.166,5.81-.249,12.2-.249H34.943c9.877,0,17.762-2.822,23.323-8.3,6.308-6.308,9.628-15.438,9.628-26.809,0-11.039-3.071-19.754-9.13-25.73-5.561-5.4-13.778-8.217-23.987-8.217H17.43c-6.889,0-8.964-.083-12.284-.249a71.3,71.3,0,0,1,.747,12.2Zm16.434-2.656V-51.958H33.2c5.976,0,9.96,1.328,12.865,4.233,3.237,3.237,4.814,8.383,4.814,15.438,0,6.889-1.826,12.45-5.229,15.936-2.988,2.988-6.806,4.4-12.2,4.4Zm91.466-9.711L122.84-7.636c2.822,4.4,4.4,7.221,5.976,10.209h22C147.325-1.66,145-4.648,142.345-8.383L124-34.113l15.6-21.912c2.9-4.15,4.9-6.723,7.885-10.458H126.16A68.9,68.9,0,0,1,120.1-55.61L113.876-45.9l-6.308-9.628a72.27,72.27,0,0,1-6.142-10.956h-21.5C83-62.831,85.49-59.594,88.063-55.859L103.584-34.03,85.324-8.383C82.917-5.063,81.257-2.9,76.775,2.573H98.77c2.075-3.818,3.818-6.723,6.059-10.209Z" transform="translate(100 266)" fill="#4983ab"/></g></svg>