<?xml version="1.0" encoding="utf-8"?>
<!-- Generator: Adobe Illustrator 27.6.1, SVG Export Plug-In . SVG Version: 6.00 Build 0)  -->
<svg version="1.1" id="Layer_1" xmlns="http://www.w3.org/2000/svg" xmlns:xlink="http://www.w3.org/1999/xlink" x="0px" y="0px"
	 viewBox="0 0 411 116.5" style="enable-background:new 0 0 411 116.5;" xml:space="preserve">
<style type="text/css">
	.st0{fill:#3A7EEF;}
	.st1{fill:#005161;}
	.st2{clip-path:url(#SVGID_00000147909168631636689250000004347007738766291616_);}
	.st3{fill:url(#パス_4340_00000098923030842689348210000009454530218010335407_);}
	.st4{fill:url(#パス_4341_00000160874953388749915110000013889080441462996409_);}
	.st5{fill:url(#パス_4342_00000164474777685222355860000011901133669697433007_);}
	.st6{fill:#009FE8;}
	.st7{fill:#0099D9;}
	.st8{fill-rule:evenodd;clip-rule:evenodd;fill:#0099D9;}
</style>
<g id="グループ_9092" transform="translate(-745.505 -1266.444)">
	<g id="レイヤー_2" transform="translate(872.285 1266.444)">
		<g id="フルカラー" transform="translate(0 0)">
			<path id="パス_4094" class="st0" d="M-24.6,14.3l4.3,0.4c0.6,0,1.2-0.5,1.2-1.1c0-0.6-0.5-1.2-1.2-1.1l0,0l-4.3-0.4
				c-0.3,0-0.6,0.1-0.8,0.3c-0.2,0.2-0.3,0.5-0.3,0.8c0,0.3,0.1,0.6,0.3,0.8C-25.2,14.2-24.9,14.3-24.6,14.3L-24.6,14.3z"/>
			<path id="パス_4095" class="st0" d="M-18.7,9.7L-18.7,9.7c0.2,0.2,0.5,0.3,0.8,0.3c0.3,0,0.7-0.1,0.9-0.3
				c0.2-0.2,0.3-0.5,0.3-0.8c0-0.3-0.1-0.6-0.3-0.8l-2.9-2.9c-0.5-0.4-1.2-0.4-1.6,0c-0.4,0.4-0.5,1.1-0.1,1.5c0,0,0,0,0.1,0.1
				L-18.7,9.7z"/>
			<path id="パス_4096" class="st0" d="M-12.8,7.4c0.6,0,1.2-0.5,1.2-1.1V2.5c0-0.6-0.5-1.1-1.2-1.1c-0.6,0-1.2,0.5-1.2,1.1v3.7
				C-14,6.9-13.5,7.4-12.8,7.4z"/>
			<path id="パス_4097" class="st0" d="M9,20.2L9,20.2c-3.8-1.1-7.8-1.1-11.6-0.1c0-2.3-0.1-5.5-2.1-7.6c-1.3-1.2-2.9-1.8-4.6-1.8
				h-0.3c-8.1,1.7-7,13.1-6.7,16.9c0,0.9,0.1,1.8,0.3,2.8c0.2,1.2,0.4,2.8,0,3.1c-0.2,0.2-0.7,0.1-1.1,0.1c-4.3-0.3-4.9,0.3-5.1,0.6
				c-0.2,0.2-0.3,0.4-0.3,0.6c-0.1,1-0.1,2,0,3.1c0.1,2.4,0.1,4.8,0,7.2h-0.9V35c0-0.3-0.1-0.6-0.3-0.8c-0.5-0.5-1.6-0.5-3.3-0.4
				h-1.1c-0.7,0-1.2,0.5-1.2,1.2v10.1h-1c-0.1-2.3-0.1-4.5,0-6.8c0.1-2.7,0.1-3.2-0.2-3.4c-0.2-0.5-0.7-0.7-1.2-0.6
				c-1,0.2-1.2,1.4-1,9.1v2.8c0,0.3,0.1,0.6,0.3,0.8c0.5,0.6,1.7,0.5,3.3,0.4h1.1c0.7,0,1.2-0.5,1.2-1.2V36.2c0.2,0,0.4,0,0.7,0h0.3
				c0.2,2.4,0.2,4.8,0.1,7.2c-0.1,1-0.1,2,0,3c0,0.2,0.1,0.4,0.3,0.6c0.5,0.5,1.6,0.5,3.2,0.4h1.1c0.7,0,1.2-0.5,1.2-1.2V36.1
				c1.6-0.1,3.3-0.1,4.9,0.2h0.6c0.5,0.1,1-0.1,1.4-0.5c0.8-0.9,0.4-2.5,0-4.7c-0.3-1.2-0.5-2.5-0.6-3.8c-0.6-6.5,0.2-10.9,2.2-12.9
				c0.9-0.9,2.2-1.3,3.5-1.2c2.9,0.8,3.1,2.9,3.1,5.9c0,1.7,0,3.1,1.1,3.7l0.8,0.3l0.3-0.1c0.6-0.3,1.2-0.5,1.8-0.6
				c3.2-0.9,6.6-0.8,9.7,0.3c6.7,2.1,11.1,8.3,11.1,15.7c-0.2,6.9-4.6,13.1-11.1,15.5c-5.8,1.2-9.8,0.5-12.9-2.4
				c-1.4-1.3-2-3.2-1.5-5c0.1-0.6,0.5-1.1,1.1-1.3c1.6,1.2,4.3,2.2,9.1,0.3c0.2-0.1,0.3-0.2,0.4-0.3c2.1-2,1.4-3.3,0.9-3.9
				c-1.9-2-7.7-1.6-10,0.2c-0.1-0.1-0.2-0.3-0.3-0.5c-0.3-1.7,0-3.4,0.8-4.8c0.2,0.3,0.5,0.5,0.7,0.8c0.5,0.7,1.1,1.6,2,1.7
				c2.1,0.9,4.5,0.5,6.1-1.1l0.2-0.2c1-0.8,1.2-2.3,0.5-3.4c-1.3-1.9-5.5-2.8-7.8-2.3c0.4-2,2.5-3,5.6-2.6c0.3,0.1,0.7,0,1-0.2
				c0.3-0.2,0.4-0.5,0.5-0.8c0-0.3-0.1-0.6-0.3-0.9c-0.2-0.3-0.6-0.4-0.9-0.4c-3.3,0-5.5,0.5-6.8,1.7c-1.2,1.3-1.7,3.1-1.5,4.8
				c-3.1,2.6-2.6,7-2,10c-1.8,2.2-3.6,5.5,0.5,9.8L-6,53c2.5,2.5,5.9,3.8,9.4,3.8C5.3,56.8,7.2,56.5,9,56
				c9.9-3.2,15.3-13.8,12.1-23.7C19.3,26.6,14.8,22.1,9,20.2L9,20.2z M2.7,42.6c0,0.4-0.2,0.7-0.6,0.8C0.7,44-2.2,44-2.8,43.3
				c0,0,0-0.1,0-0.1c0,0,0,0,0,0c1.5-0.8,3.2-1.2,5-1.1C2.4,42.1,2.7,42.3,2.7,42.6z M2.4,36.1c-1,0.6-2.2,0.5-3.1-0.2
				c-0.7-0.4-1.1-1.1-1-1.9c1.6-0.5,3.2-0.2,4.5,0.8C3,34.9,3.3,35.3,2.4,36.1z"/>
			<path id="パス_4098" class="st0" d="M42.5,41.9v-6.8c0-0.1,0.1-0.1,0.1-0.1c0,0,0,0,0,0h14.7c0.5,0,1-0.3,1.3-0.7l2.1-4
				c0.2-0.4,0.2-0.9-0.1-1.3c-0.3-0.4-0.7-0.6-1.2-0.7h-0.4c-0.5,0-1,0.3-1.3,0.7l-1.1,2.1c0,0-0.1,0.1-0.1,0.1H40
				c-0.8,0-1.4,0.6-1.5,1.4c0,0,0,0,0,0v6.9c0,0.1-0.1,0.1-0.1,0.1c0,0,0,0,0,0h-1.2c-0.8,0-1.4,0.6-1.4,1.4v1
				c0,0.8,0.7,1.4,1.4,1.4h3.9c0.4,0,0.7-0.2,1-0.4C42.4,42.7,42.5,42.3,42.5,41.9z"/>
			<path id="パス_4099" class="st0" d="M63.4,28.3H63c-0.5,0-1,0.3-1.2,0.7L60,32.2c-0.2,0.4-0.2,0.9,0.1,1.3
				c0.3,0.4,0.7,0.6,1.2,0.7h0.4c0.5,0,1-0.3,1.3-0.7l1.8-3.2c0.2-0.4,0.2-0.9,0-1.3C64.4,28.5,63.9,28.3,63.4,28.3z"/>
			<path id="パス_4100" class="st0" d="M61.3,34.3h-1.2c-0.8,0-1.4,0.6-1.4,1.4v9.6c-0.1,3.8-3.2,6.7-7,6.6H39.4
				c-0.8,0-1.4,0.6-1.4,1.4v1.1c0,0.8,0.7,1.4,1.4,1.4h15.2c4.4,0.1,8.1-3.4,8.2-7.8V35.6C62.8,34.8,62.1,34.2,61.3,34.3z"/>
			<path id="パス_4101" class="st0" d="M70.4,47.2c0,0.3,0.1,0.6,0.4,0.9c0.2,0.2,0.6,0.4,0.9,0.4h0.8c0.3,0,0.7-0.1,0.9-0.4
				c0.2-0.2,0.4-0.5,0.4-0.9v-7.6c0-0.7-0.6-1.3-1.3-1.2h-2.1c-0.7,0-1.3,0.5-1.3,1.2v0.5c0.1,0.7,0.6,1.2,1.3,1.3V47.2z"/>
			<path id="パス_4102" class="st0" d="M86.7,37.7h-0.9c-0.7,0-1.3,0.5-1.3,1.2v9.9c0,0.9-0.4,1.8-1.1,2.5c-0.7,0.7-1.6,1-2.6,1
				h-9.8c-0.7,0-1.3,0.5-1.3,1.2v0.8c0,0.7,0.6,1.3,1.3,1.2h12c2.6,0.1,4.8-2,4.9-4.6V39C88,38.2,87.4,37.7,86.7,37.7z"/>
			<path id="長方形_22951" class="st0" d="M77.9,38.4h1.5c0.5,0,0.9,0.4,0.9,0.9v8.3c0,0.5-0.4,0.9-0.9,0.9h-1.5
				c-0.5,0-0.9-0.4-0.9-0.9v-8.3C77,38.8,77.4,38.4,77.9,38.4z"/>
			<path id="パス_4103" class="st0" d="M115.6,34h0.4c0.5,0,1-0.3,1.2-0.7l1.7-3.1c0.3-0.4,0.3-1,0-1.4c-0.3-0.4-0.7-0.6-1.2-0.6
				h-0.4c-0.5,0-1,0.3-1.3,0.8l-1.7,3.1c-0.3,0.4-0.3,1,0,1.4C114.6,33.8,115.1,34,115.6,34z"/>
			<path id="長方形_22952" class="st0" d="M96,31.4h14.2c0.5,0,1,0.4,1,1v1.8c0,0.5-0.4,1-1,1H96c-0.5,0-1-0.4-1-1v-1.8
				C95.1,31.8,95.5,31.4,96,31.4z"/>
			<path id="長方形_22953" class="st0" d="M96,40h14.2c0.5,0,1,0.4,1,1v1.8c0,0.5-0.4,1-1,1H96c-0.5,0-1-0.4-1-1V41
				C95.1,40.4,95.5,40,96,40z"/>
			<path id="パス_4104" class="st0" d="M121.6,28.3h-0.4c-0.5,0-1,0.3-1.3,0.7l-1.7,3.1c-0.3,0.4-0.3,1,0,1.4
				c0.2,0.3,0.5,0.5,0.8,0.6h-0.7c-0.8,0-1.4,0.6-1.4,1.4v9.8c-0.1,3.8-3.2,6.8-7,6.7H96.2c-0.8,0-1.4,0.6-1.4,1.4c0,0,0,0,0,0v1.1
				c0,0.8,0.7,1.4,1.4,1.4h16.5c4.5,0.1,8.2-3.4,8.3-7.9V35.5c0-0.6-0.5-1.1-1.1-1.3c0.5,0,1-0.3,1.2-0.7l1.7-3.1
				c0.2-0.4,0.2-0.9-0.1-1.3c-0.3-0.4-0.7-0.6-1.2-0.7V28.3z"/>
			<path id="パス_4105" class="st0" d="M144.9,38h-16.3c-0.7,0-1.3,0.5-1.3,1.2V40c0,0.7,0.6,1.3,1.3,1.2h14.1v3.8H129
				c-0.7,0-1.3,0.5-1.3,1.2c0,0,0,0,0,0V47c0,0.3,0.1,0.6,0.4,0.9c0.2,0.2,0.6,0.4,0.9,0.4h13.7v0.7c0,2-1.7,3.5-3.6,3.5h-10.4
				c-0.7,0-1.3,0.5-1.3,1.2v0.8c0,0.7,0.6,1.3,1.3,1.2h12.7c2.6,0.1,4.8-2,4.9-4.7V39.2c0-0.3-0.1-0.7-0.4-0.9
				C145.5,38.1,145.2,38,144.9,38z"/>
			<path id="パス_4106" class="st0" d="M179.5,29c-0.3-0.4-0.7-0.7-1.2-0.6h-0.4c-0.5,0-1,0.3-1.3,0.7l-1.6,3
				c-0.2,0.4-0.2,0.9,0.1,1.3c0.3,0.4,0.7,0.6,1.2,0.7h0.5c0.5,0,1-0.3,1.2-0.7l1.6-3C179.8,29.9,179.8,29.4,179.5,29L179.5,29z"/>
			<path id="パス_4107" class="st0" d="M174.8,34.6h-1.2c-0.1,0-0.2,0-0.4,0c0.1-0.1,0.2-0.2,0.3-0.3l2.2-4.1
				c0.2-0.4,0.2-0.9-0.1-1.3c-0.3-0.4-0.7-0.6-1.2-0.7H174c-0.5,0-1,0.3-1.2,0.7l-1.1,2.1c0,0-0.1,0.1-0.1,0.1h-19.1
				c-0.8,0-1.4,0.6-1.4,1.4v1.2c0,0.8,0.7,1.4,1.4,1.4h19.9c0.1,0,0.2,0,0.4,0c-0.3,0.2-0.4,0.6-0.4,1v9.1c-0.1,3.7-3.2,6.7-7,6.6
				h-7.8c-0.8,0-1.4,0.6-1.4,1.4v1.1c0,0.8,0.7,1.4,1.4,1.4H168c4.5,0.1,8.2-3.4,8.3-7.9V35.9C176.2,35.2,175.6,34.6,174.8,34.6z"/>
			<path id="パス_4108" class="st0" d="M45.5,9.1h-1.3v6.6h2.2v-1.3h-0.8V9.1z"/>
			<path id="パス_4109" class="st0" d="M39.5,14.5h-0.8v1.3h2.1v-5.4h0.8V9.1h-2.2V14.5z"/>
			<path id="パス_4110" class="st0" d="M52,8.9h-1.3v3.2h-0.6v1.2h2v-2.4h3.4v3.6h-4.7v1.3h6.1v-4.9h0.8V9.6H52V8.9z"/>
			<path id="パス_4111" class="st0" d="M66.7,14.4h-5.5v1.3h6.8V9.1h-1.3V14.4z"/>
			<path id="パス_4112" class="st0" d="M63.7,11.1H65V9.3h-3.9v1.3h2.5V11.1z"/>
			<path id="パス_4113" class="st0" d="M71.9,10.5h5.9v2.7h-4.3v2.6h1.4v-1.4h4.2V9.3h-7.2V10.5z"/>
			<path id="パス_4114" class="st0" d="M89.9,10.9V9.4h-2.6V8.9H86v0.6H83v1.3H88l-4.3,3.1h-0.8v1.3h1.2l1.9-1.4v2.1h1.3v-2.3
				l3,1.4v-1.4l-2.5-1.2L89.9,10.9z"/>
			<rect id="長方形_22954" x="94.1" y="11.5" class="st0" width="4.3" height="1.2"/>
			<path id="パス_4115" class="st0" d="M100.4,10h-0.5l0.8-1.4h-1.3l-1,1.7h1v4.1H94v1.3h6.9v-5.4h0.6l1-1.7h-1.3L100.4,10z"/>
			<rect id="長方形_22955" x="94.1" y="9.4" class="st0" width="4.3" height="1.3"/>
			<path id="パス_4116" class="st0" d="M110.7,10.4h1.6V9.1h-2.4l-1.4,2.3l-3.4-1.9V11l2.7,1.5l-1.1,1.9h-1.6v1.3h2.4l1.5-2.5
				l3.4,1.9v-1.5l-2.7-1.5L110.7,10.4z"/>
			<path id="パス_4117" class="st0" d="M118.6,11.1h1.3V9.3H116v1.3h2.6V11.1z"/>
			<path id="パス_4118" class="st0" d="M121.6,14.4h-5.5v1.3h6.8V9.1h-1.3V14.4z"/>
			<path id="パス_4119" class="st0" d="M128.3,8.9H127v6.9h1.3v-3.1h5.2v-1.3h-5.2V8.9z"/>
			<path id="パス_4120" class="st0" d="M137.8,11.4h-0.7v1.2h2v-2.1h3.7v3.9h-5.2v1.2h6.5V9.3h-6.4V11.4z"/>
			<path id="パス_4121" class="st0" d="M148.1,12.4h5.8v2.1h-5.6v1.3h6.9v-4.6h-7.1V12.4z"/>
			<rect id="長方形_22956" x="148.1" y="9.1" class="st0" width="7.1" height="1.3"/>
			<path id="パス_4122" class="st0" d="M163.2,8.9h-1.3v0.6h-2.7v3.7h1.3v-2.4h4.3v3.7h-5.1v1.3h6.4V9.5h-2.9V8.9z"/>
			<path id="パス_4123" class="st0" d="M176.3,10.3l1-1.7H176l-1,1.7H176.3z"/>
			<path id="パス_4124" class="st0" d="M171.5,8.9h-1.3v6.9h1.3v-3.1h5.2v-1.3h-5.2V8.9z"/>
			<path id="パス_4125" class="st0" d="M175.5,8.6h-1.3l-1,1.7h1.3L175.5,8.6z"/>
		</g>
	</g>
	<g id="グループ_9101" transform="translate(943.505 1356.444)">
		<path id="パス_4237" class="st1" d="M-53.6,8.1c-0.9-0.3-1.3-0.7-1.3-1.1c0-0.5,0.4-0.8,1.1-0.8c0.3,0,0.5,0,0.8,0.2
			c0.3,0.1,0.5,0.3,0.8,0.5l1.1-1c-0.7-0.7-1.6-1.1-2.6-1.2c-0.7,0-1.4,0.2-1.9,0.7c-0.5,0.4-0.8,1-0.8,1.7c0,0.5,0.2,1,0.5,1.4
			c0.6,0.5,1.2,0.9,1.9,1.1c0.9,0.4,1.4,0.8,1.4,1.2c0,0.3-0.2,0.5-0.4,0.7c-0.3,0.2-0.6,0.3-0.9,0.3c-0.6,0-1.1-0.3-1.5-0.7
			l-1.3,0.6c0.6,1,1.7,1.6,2.8,1.6c0.7,0,1.4-0.3,2-0.8c0.5-0.4,0.8-1.1,0.8-1.8c0-0.6-0.2-1.1-0.6-1.5C-52.2,8.7-52.9,8.3-53.6,8.1
			z"/>
		<path id="パス_4238" class="st1" d="M-46,9.3L-48.9,5h-1.9l4.1,6.1l-2.6,5.8h1.8L-42.2,5H-44L-46,9.3z"/>
		<path id="パス_4239" class="st1" d="M-39,8.1c-0.9-0.3-1.3-0.7-1.3-1.1c0-0.5,0.4-0.8,1.1-0.8c0.3,0,0.5,0.1,0.8,0.2
			c0.3,0.1,0.5,0.3,0.8,0.5l1.1-1c-0.7-0.7-1.6-1.1-2.6-1.2c-0.7,0-1.4,0.2-1.9,0.7c-0.5,0.4-0.8,1-0.8,1.7c0,0.5,0.2,1,0.5,1.4
			c0.6,0.5,1.2,0.9,1.9,1.1c0.9,0.4,1.4,0.8,1.4,1.2c0,0.3-0.2,0.5-0.4,0.7c-0.3,0.2-0.6,0.3-0.9,0.3c-0.6,0-1.1-0.3-1.5-0.7
			l-1.3,0.6c0.6,1,1.7,1.6,2.8,1.6c0.7,0,1.4-0.3,2-0.8c0.5-0.4,0.8-1.1,0.8-1.8c0-0.6-0.2-1.1-0.6-1.5C-37.7,8.7-38.3,8.3-39,8.1z"
			/>
		<path id="パス_4240" class="st1" d="M-32.6,2.6h-1.7V5h-1.3v1.6h1.3V13h1.7V6.5h1.7V5h-1.7V2.6z"/>
		<path id="パス_4241" class="st1" d="M-22.9,6c-1.6-1.7-4.2-1.7-5.9-0.1c0,0-0.1,0.1-0.1,0.1c-0.8,0.8-1.2,1.9-1.2,3
			c0,1.1,0.4,2.3,1.2,3.1c0.8,0.8,1.9,1.3,3,1.2c1.5,0,2.9-0.6,3.7-1.8l-1.2-0.9c-0.6,0.8-1.5,1.2-2.4,1.2c-0.6,0-1.2-0.2-1.7-0.6
			c-0.6-0.4-0.9-1.1-1-1.8h6.9C-21.6,8.1-22,6.9-22.9,6z M-28.4,8c0.4-1,1.4-1.7,2.5-1.7c1.1,0,2,0.7,2.4,1.7H-28.4z"/>
		<path id="パス_4242" class="st1" d="M-9.8,5.5c-0.4-0.5-1-0.7-1.7-0.7c-0.5,0-1,0.1-1.4,0.4c-0.5,0.4-0.9,0.8-1.2,1.3
			c-0.2-0.5-0.5-0.9-0.9-1.3c-0.4-0.3-0.9-0.4-1.4-0.4c-0.4,0-0.9,0.1-1.2,0.4c-0.4,0.3-0.8,0.7-1.1,1.1V5h-1.7V13h1.7V8.5
			c0-0.6,0.2-1.1,0.5-1.6c0.3-0.4,0.8-0.6,1.3-0.6c0.9,0,1.3,0.5,1.3,1.6V13h1.7V8.6c0-0.6,0.2-1.2,0.5-1.7c0.3-0.4,0.8-0.7,1.3-0.7
			c0.6-0.1,1.2,0.4,1.3,1c0,0.1,0,0.2,0,0.3V13h1.7V7.2C-9.1,6.5-9.3,5.9-9.8,5.5z"/>
		<path id="パス_4243" class="st1" d="M-63.3,13.6c-0.1-0.1-0.3-0.1-0.4-0.1c-0.7,0-1.4,0.3-1.9,0.8c0,0-0.1,0.1-0.1,0.1
			c-1.4,2.7-4.1,4.4-7.1,4.4c-4.7,0-8.6-4.6-8.6-10.2s3.8-10.2,8.6-10.2s8.6,4.6,8.6,10.2c0,0.5,0,1-0.1,1.5c0.5-0.2,1-0.3,1.6-0.3
			c0.2,0,0.4,0,0.6,0c0.1-0.4,0.1-0.8,0.1-1.2C-62.2,2.8-67-2-72.9-2S-83.7,2.8-83.7,8.7c0,5.9,4.8,10.8,10.7,10.8
			C-68.9,19.5-65.2,17.2-63.3,13.6L-63.3,13.6z"/>
		<path id="パス_4244" class="st1" d="M-62.1,18.5c1.3-1.1,2.6-2.3,2.6-4.3c0-1.8-1.4-3.3-3.2-3.3c0,0-0.1,0-0.1,0
			c-1.7,0.1-3.2,1-4.1,2.5c-0.1,0.2-0.2,0.4-0.2,0.6c0,0.1,0.1,0.2,0.2,0.2c0.1,0,0.3-0.2,0.6-0.5c0.7-0.7,1.6-1.1,2.5-1.1
			c1.1,0,2,0.8,2,1.9c0,0.1,0,0.1,0,0.2c0,2.1-1.7,3.7-3.4,5.3c-1.3,1.2-2.6,2.3-4.1,3.3c-0.2,0.2-0.6,0.5-0.6,0.7
			c0,0.3,0.3,0.3,0.5,0.3h2c1,0,5.2,0.1,5.5,0.1c0.3,0,0.6-0.1,0.8-0.3c0.5-0.8,0.9-1.6,1.2-2.4c0.1-0.3,0.1-0.6-0.1-0.6
			s-0.2,0-0.4,0.3c-0.6,0.8-1,0.9-1.3,1c-0.6,0.1-4.7,0.1-5.2,0.1c-0.1,0-0.2-0.1-0.1-0.2C-65.1,20.8-63.7,19.8-62.1,18.5z"/>
		<path id="パス_4245" class="st1" d="M-6.4,11.6c0-0.3-0.2-0.4-0.5-0.4h-0.5v1.3h0.2V12H-7l0.3,0.5h0.3L-6.7,12
			C-6.6,11.9-6.4,11.8-6.4,11.6z M-7,11.8h-0.2v-0.4h0.3c0.2,0,0.2,0.1,0.3,0.2S-6.8,11.8-7,11.8L-7,11.8z"/>
		<path id="パス_4246" class="st1" d="M-6.9,10.6c-0.7,0-1.2,0.5-1.2,1.2c0,0.7,0.5,1.2,1.2,1.2s1.2-0.5,1.2-1.2c0,0,0,0,0,0
			C-5.7,11.1-6.2,10.6-6.9,10.6z M-6.9,12.9c-0.6,0-1-0.5-1-1s0.5-1,1-1c0.6,0,1,0.5,1,1c0,0,0,0,0,0C-5.9,12.4-6.3,12.9-6.9,12.9z"
			/>
	</g>
	
		<image style="overflow:visible;enable-background:new    ;" width="226" height="101" id="長方形_23043" xlink:href="64B86B56.jpg"  transform="matrix(0.3168 0 0 0.3168 951.2873 1350.9814)">
	</image>
	<g id="グループ_9135" transform="translate(1122.505 1353.444)">
		<g id="グループ_9133" transform="translate(0)">
			<g id="グループ_9132">
				<g>
					<defs>
						<path id="SVGID_1_" d="M-58.4,6c2.7,7.8-1.4,16.4-9.2,19.1c-7.8,2.7-16.4-1.4-19.1-9.2c-2.7-7.8,1.4-16.4,9.2-19.1
							C-69.6-5.9-61.1-1.8-58.4,6z"/>
					</defs>
					<clipPath id="SVGID_00000065760121623342757230000013228482404100228002_">
						<use xlink:href="#SVGID_1_"  style="overflow:visible;"/>
					</clipPath>
					<g id="グループ_9131" style="clip-path:url(#SVGID_00000065760121623342757230000013228482404100228002_);">
						<g id="グループ_9130" transform="translate(2.237 2.567)">
							
								<radialGradient id="パス_4340_00000017497492206493653080000003987754573442093734_" cx="-1122.9619" cy="487.9977" r="0.69" gradientTransform="matrix(21.5099 0 0 -21.5098 24075.623 10504.752)" gradientUnits="userSpaceOnUse">
								<stop  offset="0" style="stop-color:#ACDDF7"/>
								<stop  offset="1" style="stop-color:#009FE8"/>
							</radialGradient>
							<path id="パス_4340" style="fill:url(#パス_4340_00000017497492206493653080000003987754573442093734_);" d="M-66.6,8.6
								c2,5.6-1,11.7-6.6,13.7s-11.7-1-13.7-6.6c-2-5.6,1-11.7,6.6-13.7C-74.7,0-68.6,3-66.6,8.6C-66.6,8.6-66.6,8.6-66.6,8.6z"/>
							
								<radialGradient id="パス_4341_00000119114714051300757670000006458861247623029689_" cx="-1099.4241" cy="471.7535" r="0.695" gradientTransform="matrix(12.3914 0 0 -12.3914 13550.918 5844.9619)" gradientUnits="userSpaceOnUse">
								<stop  offset="0" style="stop-color:#ECF1BA"/>
								<stop  offset="1" style="stop-color:#C3D600"/>
							</radialGradient>
							<path id="パス_4341" style="fill:url(#パス_4341_00000119114714051300757670000006458861247623029689_);" d="M-65,0.1
								c1.1,3.2-0.6,6.8-3.8,7.9c-3.2,1.1-6.8-0.6-7.9-3.8c-1.1-3.2,0.6-6.8,3.8-7.9C-69.6-4.8-66.1-3.1-65,0.1
								C-65,0.1-65,0.1-65,0.1z"/>
						</g>
					</g>
				</g>
			</g>
			
				<radialGradient id="パス_4342_00000045595057702545453220000010713638308854590872_" cx="-1132.6232" cy="493.6149" r="0.633" gradientTransform="matrix(29.5968 -4.8578 -4.8578 -29.5968 35846.7852 9100.1963)" gradientUnits="userSpaceOnUse">
				<stop  offset="0" style="stop-color:#FFFFFF"/>
				<stop  offset="1" style="stop-color:#BCE1DE"/>
			</radialGradient>
			<path id="パス_4342" style="fill:url(#パス_4342_00000045595057702545453220000010713638308854590872_);" d="M-57.7,8.5
				c1.3,8.2-4.2,15.9-12.4,17.2c-8.2,1.3-15.9-4.2-17.2-12.4c-1.3-8.2,4.2-15.9,12.4-17.2C-66.8-5.2-59.1,0.4-57.7,8.5
				C-57.7,8.5-57.7,8.5-57.7,8.5z"/>
		</g>
		<g id="グループ_9134" transform="translate(33.854 6.992)">
			<path id="パス_4343" class="st6" d="M-78.8,10.9c-0.1,0.5-0.3,1-0.5,1.5c-0.3,0.5-0.9,0.9-1.5,0.9h-4.6c-0.5,0-1-0.1-1.4-0.2
				c-0.5-0.2-0.8-0.8-0.6-1.3l2.4-13.3c0.1-0.5,0.3-1,0.5-1.5c0.3-0.5,0.8-0.9,1.5-0.9h4.6c0.5,0,1,0.1,1.4,0.2
				c0.5,0.2,0.8,0.8,0.6,1.3l-0.6,3.3c-0.1,0.4-0.5,0.7-0.9,0.8H-79c-0.3,0-0.6-0.3-0.6-0.6c0-0.1,0-0.1,0-0.2l0.3-1.9
				c0.1-0.3-0.1-0.7-0.5-0.7c-0.1,0-0.1,0-0.2,0h-1.8c-0.4,0-0.8,0.3-0.9,0.8l-2,11.3c-0.1,0.3,0.1,0.7,0.5,0.7c0.1,0,0.1,0,0.2,0
				h1.8c0.4,0,0.8-0.3,0.9-0.8l0.4-2.1c0.1-0.4,0.5-0.7,0.9-0.8h1.1c0.3,0,0.6,0.3,0.6,0.6c0,0.1,0,0.1,0,0.2L-78.8,10.9z"/>
			<path id="パス_4344" class="st6" d="M-68.5,12.5c0.1,0.3-0.1,0.6-0.5,0.7c-0.1,0-0.1,0-0.2,0h-1.2c-0.4,0-0.8-0.3-0.9-0.7
				l-1.2-6.6c-0.1-0.5-0.1-1,0-1.5l0,0c0.1-0.4,0.5-0.7,0.9-0.8h1c0.4,0,0.8-0.3,0.9-0.8l0.7-4c0.1-0.3-0.1-0.7-0.5-0.7
				c-0.1,0-0.1,0-0.2,0h-1.7c-0.4,0-0.8,0.3-0.9,0.8l-2.4,13.5c-0.1,0.4-0.5,0.7-0.9,0.8h-1.1c-0.3,0-0.6-0.3-0.6-0.6
				c0-0.1,0-0.1,0-0.2l2.8-15.7c0.1-0.4,0.5-0.7,0.9-0.8h5.3c0.5,0,1,0.1,1.4,0.2c0.5,0.2,0.8,0.8,0.6,1.3l-1,5.5
				c-0.1,0.5-0.2,1-0.4,1.5c-0.1,0.3-0.4,0.5-0.7,0.7c-0.6,0.1-1.1,0.2-1.7,0.2L-68.5,12.5z"/>
			<path id="パス_4345" class="st6" d="M-57.7,10.9c-0.1,0.5-0.3,1-0.5,1.5c-0.3,0.5-0.9,0.9-1.5,0.9h-4.8c-0.5,0-1-0.1-1.4-0.2
				c-0.5-0.2-0.8-0.8-0.6-1.3l2.4-13.3c0.1-0.5,0.3-1,0.5-1.5c0.3-0.5,0.8-0.9,1.5-0.9h4.8c0.5,0,1,0.1,1.4,0.2
				c0.5,0.2,0.8,0.8,0.6,1.3L-57.7,10.9z M-61.1,11c0.4,0,0.8-0.3,0.9-0.8l2-11.3c0.1-0.3-0.1-0.7-0.5-0.7c-0.1,0-0.1,0-0.2,0h-2
				c-0.4,0-0.8,0.3-0.9,0.8l-2,11.3c-0.1,0.3,0.1,0.7,0.5,0.7c0.1,0,0.1,0,0.2,0H-61.1z"/>
			<path id="パス_4346" class="st6" d="M-26.5,12.5c-0.1,0.4-0.5,0.7-0.9,0.8h-0.8c-0.4,0-0.8-0.3-0.9-0.7L-31,3.1l-1.8,9.4
				c-0.1,0.4-0.5,0.7-0.9,0.8h-1c-0.3,0-0.6-0.3-0.6-0.6c0-0.1,0-0.1,0-0.2l2.8-15.7C-32.4-3.7-32-4-31.6-4h0.8
				c0.4,0,0.8,0.3,0.9,0.7l2,9.2l1.7-9.2c0.1-0.4,0.5-0.7,0.9-0.8h1c0.3,0,0.6,0.3,0.6,0.6c0,0.1,0,0.1,0,0.2L-26.5,12.5z"/>
			<path id="パス_4347" class="st6" d="M-15.9,12.5c0,0.4-0.3,0.7-0.7,0.7c0,0,0,0,0,0h-1c-0.4,0-0.7-0.3-0.7-0.7c0,0,0,0,0,0
				l0-1.8c0-0.4-0.3-0.7-0.7-0.7c0,0,0,0,0,0h-1.7c-0.5,0-0.8,0.3-1,0.7l-0.6,1.8c-0.2,0.4-0.5,0.7-1,0.7h-1c-0.3,0-0.5-0.2-0.5-0.5
				c0-0.1,0-0.2,0.1-0.3l5.8-15.8c0.2-0.4,0.6-0.7,1-0.7h1.2c0.4,0,0.8,0.3,0.8,0.7L-15.9,12.5z M-19.1,7.8c0.4,0,0.8-0.3,0.8-0.7
				l0.1-6.3L-20.6,7c-0.1,0.3,0,0.6,0.2,0.7c0.1,0,0.2,0.1,0.3,0.1H-19.1z"/>
			<path id="パス_4348" class="st6" d="M-10.4,7.8l3.8-11.1C-6.5-3.7-6.1-4-5.7-4h1.1c0.3,0,0.5,0.2,0.5,0.5c0,0.1,0,0.2-0.1,0.3
				l-5.8,15.8c-0.2,0.4-0.6,0.7-1,0.7H-12c-0.4,0-0.8-0.3-0.8-0.7L-13-3.3c0-0.4,0.3-0.7,0.7-0.7c0,0,0,0,0,0h1.1
				c0.4,0,0.7,0.3,0.7,0.7c0,0,0,0,0,0"/>
			<path id="パス_4349" class="st6" d="M-2.7,12.5c-0.1,0.4-0.5,0.7-0.9,0.8h-1.1c-0.3,0-0.6-0.3-0.6-0.6c0-0.1,0-0.1,0-0.2
				l2.8-15.7C-2.4-3.7-2-4-1.6-4h1.1c0.3,0,0.6,0.3,0.6,0.6c0,0.1,0,0.1,0,0.2L-2.7,12.5z"/>
			<path id="パス_4350" class="st6" d="M-35.3-3.8C-35.8-3.9-36.2-4-36.7-4h-4.4c-0.6,0-1.2,0.3-1.5,0.9c-0.2,0.5-0.4,1-0.5,1.5
				l-0.5,3.1c-0.1,0.7,0.2,1.4,0.8,1.9l3.4,4.1c0.3,0.4,0.4,0.8,0.3,1.3l-0.3,1.6c-0.1,0.4-0.5,0.7-0.9,0.8H-42
				c-0.3,0-0.6-0.3-0.6-0.6c0-0.1,0-0.1,0-0.2l0.3-1.7c0.1-0.3-0.1-0.7-0.5-0.7c-0.1,0-0.1,0-0.2,0H-44c-0.4,0-0.8,0.3-0.9,0.8
				l-0.5,3.1c-0.2,0.5,0.1,1.1,0.6,1.3c0.5,0.1,0.9,0.2,1.4,0.2h4.4c0.6,0,1.2-0.3,1.5-0.9c0.2-0.5,0.4-1,0.5-1.5l0.5-3.1
				c0.1-0.7-0.2-1.4-0.8-1.9l-3.4-4.1C-40.9,1.4-41,1-40.9,0.5l0.3-1.6c0.1-0.4,0.5-0.7,0.9-0.8h1.6c0.3,0,0.6,0.3,0.6,0.6
				c0,0.1,0,0.1,0,0.2l-0.3,1.7c-0.1,0.3,0.1,0.7,0.5,0.7c0.1,0,0.1,0,0.2,0h1.1c0.4,0,0.8-0.3,0.9-0.8l0.5-3.1
				C-34.5-3-34.8-3.6-35.3-3.8z"/>
			<path id="パス_4351" class="st6" d="M-45.6-3.8C-46.1-3.9-46.6-4-47.1-4h-4.4c-0.6,0-1.2,0.3-1.5,0.9c-0.2,0.5-0.4,1-0.5,1.5
				L-54,1.4c-0.1,0.7,0.2,1.4,0.8,1.9l3.4,4.1c0.3,0.4,0.4,0.8,0.3,1.3l-0.3,1.6c-0.1,0.4-0.5,0.7-0.9,0.8h-1.6
				c-0.3,0-0.6-0.3-0.6-0.6c0-0.1,0-0.1,0-0.2l0.3-1.7c0.1-0.3-0.1-0.7-0.5-0.7c-0.1,0-0.1,0-0.2,0h-1.1c-0.4,0-0.8,0.3-0.9,0.8
				l-0.5,3.1c-0.2,0.5,0.1,1.1,0.6,1.3c0.5,0.1,0.9,0.2,1.4,0.2h4.4c0.6,0,1.2-0.3,1.5-0.9c0.2-0.5,0.4-1,0.5-1.5l0.5-3.1
				c0.1-0.7-0.2-1.4-0.8-1.9l-3.4-4.1c-0.3-0.4-0.4-0.8-0.3-1.3l0.3-1.6c0.1-0.4,0.5-0.7,0.9-0.8h1.6c0.3,0,0.6,0.3,0.6,0.6
				c0,0.1,0,0.1,0,0.2l-0.3,1.7C-48.2,1-48,1.3-47.7,1.4c0.1,0,0.1,0,0.2,0h1.1c0.4,0,0.8-0.3,0.9-0.8l0.5-3.1
				C-44.9-3-45.1-3.6-45.6-3.8z"/>
		</g>
	</g>
	<g id="グループ_9235" transform="translate(459.545 1179.702)">
		<path id="パス_4361" class="st7" d="M326.3,178.3v3.1h-5.8V196h-3.1v-14.6h-5.8v-3.1L326.3,178.3z"/>
		<path id="パス_4362" class="st7" d="M328.8,186.3v2.7h-5.1v-2.7H328.8z"/>
		<path id="パス_4363" class="st7" d="M340.9,178.3c4,0,5.7,2.5,5.7,5.3c0.1,2.4-1.4,4.7-3.8,5.3l4.1,7.1h-3.4l-4-6.9h-4.6
			c-0.2,0-0.4,0.1-0.4,0.3c0,0,0,0.1,0,0.1v6.4h-3.1v-7c0-2,0.8-2.8,2.8-2.8h6.9c1.3,0.1,2.4-0.8,2.5-2.1c0-0.1,0-0.2,0-0.4
			c0.1-1.2-0.9-2.3-2.1-2.3c-0.1,0-0.2,0-0.4,0h-9.6v-3.1L340.9,178.3z"/>
		<path id="パス_4364" class="st7" d="M368.5,178.3l5,6.5l5.3-6.5h3.5l-7,8.7l7.1,9h-3.5l-5.4-7l-5.6,7h-3.5l7.3-9.3l-6.7-8.5
			L368.5,178.3z"/>
		<g id="グループ_9234" transform="translate(285.96 177.742)">
			<path id="パス_4365" class="st7" d="M14.3-0.1c-0.4,0-0.8,0.4-0.8,0.8s0.4,0.8,0.8,0.8c0.4,0,0.8-0.4,0.8-0.8c0,0,0,0,0,0
				C15.1,0.2,14.8-0.1,14.3-0.1z"/>
			<path id="パス_4366" class="st7" d="M18.4,7.6c0.1-0.2,0-0.5-0.2-0.7c-0.5-0.5-1.1-0.8-1.8-0.8c-0.1,0-0.2,0-0.3,0
				C16,6.1,15.9,6,15.7,6l0-0.7c0.7,0.1,2,0.2,3.3,0.3c1,0.1,1.9-0.4,2.5-1.1c0.8-1.1,1-2.5,0.5-3.8c-0.6-2.1-2.5-3.1-5.4-2.7
				C16.2-2.1,15.9-2,15.5-2c-0.3,0.1-0.7,0.1-1,0l0,0C13.4-2,12.3-1.7,11.4-1c-0.8,0.5-1.3,1.5-1.2,2.5c0,0.2,0,0.5-0.1,0.8
				c-0.1,0.9,0,1.9,0.2,2.8c0,0.1,0.1,0.3,0.1,0.4c-0.3,0.2-0.6,0.4-0.9,0.6C9,6.5,8.2,7,7.2,7.8c-1.3,1-2.1,2.4-2.1,4
				C5,12.4,4.9,13,4.7,13.5c-0.4,1.3-3.2,0.7-4.1,0.4C0.4,13.9,0.1,14,0,14.3c-0.1,0.2,0,0.4,0.1,0.5c0.3,0.3,2.9,2.8,4.7,2.8
				c1.3-0.1,2.5-0.4,3.7-0.9c-0.1,0.3-0.2,0.7-0.2,1c-0.2,1.3,0.2,1.7,1,1.9c0.1,0,0.1,0,0.2,0.1c0.3,0.1,0.6,0.1,0.9,0.1
				c0.7,0,1.5-0.2,2.2-0.5c0.3-0.1,0.5-0.5,0.5-0.8c2.6,2.2,6.6,1.9,8.8-0.7c2.2-2.6,1.9-6.6-0.7-8.8C20.3,8.3,19.4,7.8,18.4,7.6
				L18.4,7.6z M9.8,18.7c-0.1,0-0.2-0.1-0.3-0.1s-0.2-0.1-0.2-0.1c-0.1-0.2,0-0.5,0-0.7c0.1-0.5,0.2-1,0.3-1.4
				c0.1-0.3,0.2-0.6,0-0.9c-0.1-0.1-0.3-0.2-0.4-0.2c-0.1,0-0.2,0-0.3,0.1c-0.1,0-0.3,0.1-0.5,0.2c-1.1,0.5-2.3,0.8-3.6,1
				c-0.9-0.2-1.8-0.6-2.5-1.2c1.3,0.1,2.9-0.1,3.4-1.5C5.9,13.2,6,12.6,6.1,12c0-1.3,0.6-2.6,1.7-3.4c1-0.8,1.8-1.3,2.4-1.7
				c0.9-0.6,1.4-0.9,1.4-1.4c0-0.2-0.1-0.5-0.1-0.7c-0.2-0.8-0.3-1.6-0.2-2.4c0-0.3,0.1-0.6,0.1-0.8c0.1-1,0.1-1.3,0.7-1.7
				c0.6-0.5,1.5-0.8,2.3-0.8c0.5,0.1,1,0.1,1.5,0c0.3-0.1,0.7-0.2,1-0.2c2.4-0.3,3.9,0.3,4.3,2c0.4,1,0.2,2.1-0.3,2.9
				c-0.4,0.5-1,0.8-1.7,0.7c-1.8-0.1-3.7-0.3-3.8-0.3c-0.3,0-0.5,0.2-0.6,0.4c0,0,0,0,0,0l-0.1,1.7c0,0.2,0.1,0.4,0.3,0.5
				c0,0,0.5,0.2,0.8,0.2c-0.3,0-0.6,0.1-0.8,0.3c-0.1,0.1-0.2,0.3-0.2,0.5c-3.2,1.2-4.8,4.8-3.6,8c0.2,0.5,0.5,1,0.8,1.5
				c-0.1,0.3-0.1,0.6-0.1,0.9c0,0,0,0.1,0,0.1C11.3,18.7,10.5,18.8,9.8,18.7L9.8,18.7z M17,18.9c-2.9,0-5.2-2.3-5.2-5.2
				s2.3-5.2,5.2-5.2c2.9,0,5.2,2.3,5.2,5.2C22.2,16.6,19.9,18.9,17,18.9L17,18.9z"/>
			<g id="グループ_9233" transform="translate(12.259 11.181)">
				<g id="グループ_9231" transform="translate(0 4.559)">
					<path id="パス_4367" class="st7" d="M1-1.8H0.2C0.1-1.8,0-1.9,0-2c0-0.1,0.1-0.2,0.2-0.2c0,0,0,0,0,0H1
						c0.1,0,0.2,0.1,0.2,0.2C1.2-1.9,1.1-1.8,1-1.8C1-1.8,1-1.8,1-1.8z"/>
					<path id="パス_4368" class="st7" d="M9.3-1.8H8.5C8.4-1.8,8.3-1.9,8.3-2c0-0.1,0.1-0.2,0.2-0.2c0,0,0,0,0,0h0.8
						c0.1,0,0.2,0.1,0.2,0.2C9.5-1.9,9.4-1.8,9.3-1.8C9.3-1.8,9.3-1.8,9.3-1.8L9.3-1.8z"/>
				</g>
				<g id="グループ_9232" transform="translate(4.559)">
					<path id="パス_4369" class="st7" d="M0.2,7.3C0.1,7.3,0,7.2,0,7.1c0,0,0,0,0,0V6.3c0-0.1,0.1-0.2,0.2-0.2
						c0.1,0,0.2,0.1,0.2,0.2v0.8C0.4,7.2,0.3,7.3,0.2,7.3z"/>
					<path id="パス_4370" class="st7" d="M0.2-1C0.1-1,0-1.1,0-1.2c0,0,0,0,0,0V-2c0-0.1,0.1-0.2,0.2-0.2c0.1,0,0.2,0.1,0.2,0.2
						c0,0,0,0,0,0v0.8C0.4-1.1,0.3-1,0.2-1z"/>
				</g>
			</g>
			<path id="パス_4371" class="st8" d="M19.4,15.5L18,14.1c-0.1,0.3-0.3,0.5-0.6,0.6l1.4,1.4c0.2,0.2,0.4,0.2,0.6,0
				S19.6,15.7,19.4,15.5L19.4,15.5z"/>
			<path id="パス_4372" class="st8" d="M19.3,9.5c-0.2-0.1-0.5,0-0.6,0.2l-1.6,2.7c0.3,0.1,0.5,0.2,0.7,0.4l1.6-2.7
				C19.5,9.9,19.5,9.6,19.3,9.5z"/>
			<path id="パス_4373" class="st8" d="M16.9,12.8c0.5,0,0.8,0.4,0.8,0.8s-0.4,0.8-0.8,0.8c-0.5,0-0.8-0.4-0.8-0.8
				S16.4,12.8,16.9,12.8L16.9,12.8z"/>
		</g>
		<rect id="長方形_23081" x="348.6" y="192.9" class="st7" width="14.5" height="3.1"/>
		<rect id="長方形_23082" x="348.6" y="178.3" class="st7" width="14.4" height="3.1"/>
		<rect id="長方形_23083" x="348.6" y="185.7" class="st7" width="14.3" height="2.8"/>
	</g>
</g>
</svg>
