<svg xmlns="http://www.w3.org/2000/svg" width="500" height="120" viewBox="0 0 500 120">
  <g id="グループ_9228" transform="translate(-738 -2453)">
    <rect id="長方形_23079" width="500" height="120" transform="translate(738 2453)" fill="#fff"/>
    <g id="グループ_9227" transform="translate(696.006 2485.769)">
      <g id="グループ_9113" transform="translate(266.73 3.372)">
        <g id="ロゴマーク" transform="translate(0 0)">
          <circle id="楕円形_7" cx="2.126" cy="2.126" r="2.126" transform="translate(21.075 23.629)"/>
          <g id="グループ_9105" transform="translate(0.061 23.54)">
            <path id="パス_4247" d="M6,15.3C5.245,14,2.588,14.156,1.3,14.916A2.4,2.4,0,0,0,.31,18.181c.076.076.076.152.152.228a2.611,2.611,0,0,0,3.417,1.139l.076-.076C5.245,18.712,6.764,16.586,6,15.3Z" transform="translate(-0.025 -3.374)" fill="#683aa3"/>
            <path id="パス_4248" d="M7.388,1.191a16.811,16.811,0,0,0,.835,6.454,17.188,17.188,0,0,0,5.923,8.125,15.222,15.222,0,0,0,2.809,1.67,1.385,1.385,0,0,0,1.822-.607,1.171,1.171,0,0,0-.076-1.215,1.407,1.407,0,0,0-.607-.532,12.2,12.2,0,0,1-2.354-1.443,12.166,12.166,0,0,1-2.05-1.9c-.152-.228-.38-.38-.532-.607l7.669-5.543a1.019,1.019,0,0,0,.38-1.443h0a1.035,1.035,0,0,0-1.443-.38l-8.732,3.8c-.076-.228-.228-.532-.3-.759a13.246,13.246,0,0,1-.683-5.467A1.353,1.353,0,0,0,8.831-.1h0A1.366,1.366,0,0,0,7.388,1.191Z" transform="translate(-1.788 0.1)" fill="#683aa3"/>
          </g>
          <g id="グループ_9106" transform="translate(13.043 29.961)">
            <path id="パス_4249" d="M12.558,20.1c1.519,0,2.658,2.354,2.658,3.873A2.644,2.644,0,0,1,12.33,26.4a2.613,2.613,0,0,1-2.43-2.43C9.9,22.378,11.115,20.1,12.558,20.1Z" transform="translate(-2.404 -4.838)" fill="#428fce"/>
            <path id="パス_4250" d="M19.825,10.251a16.721,16.721,0,0,1-6.15,2.506,17.637,17.637,0,0,1-6.91,0,18.131,18.131,0,0,1-6.15-2.506,1.33,1.33,0,0,1-.38-1.822h0a1.439,1.439,0,0,1,1.9-.38A14.6,14.6,0,0,0,7.3,10.175c.3.076.532.076.835.152l.987-9.264A1.1,1.1,0,0,1,10.257,0,1.038,1.038,0,0,1,11.32,1.063l1.063,9.264c.3-.076.532-.076.835-.152a14.6,14.6,0,0,0,5.163-2.126,1.439,1.439,0,0,1,1.9.38,1.449,1.449,0,0,1-.456,1.822Z" transform="translate(-0.027)" fill="#428fce"/>
          </g>
          <g id="グループ_9107" transform="translate(26.78 23.609)">
            <path id="パス_4251" d="M17.844,15.3c.759-1.291,3.417-1.139,4.708-.38a2.4,2.4,0,0,1,.987,3.265c-.076.076-.076.152-.152.228a2.611,2.611,0,0,1-3.417,1.139l-.076-.076C18.6,18.712,17.161,16.586,17.844,15.3Z" transform="translate(-4.25 -3.443)" fill="#55bc42"/>
            <path id="パス_4252" d="M14.046,1.213a16.811,16.811,0,0,1-.835,6.454,17.188,17.188,0,0,1-5.923,8.125,15.222,15.222,0,0,1-2.809,1.67,1.385,1.385,0,0,1-1.822-.607,1.171,1.171,0,0,1,.076-1.215,1.407,1.407,0,0,1,.607-.532,12.2,12.2,0,0,0,2.354-1.443,12.166,12.166,0,0,0,2.05-1.9c.152-.228.38-.38.532-.607L.531,5.693A1.019,1.019,0,0,1,.151,4.25h0a1.035,1.035,0,0,1,1.443-.38l8.732,3.8c.076-.228.228-.532.3-.759a13.246,13.246,0,0,0,.683-5.467A1.353,1.353,0,0,1,12.528,0h0A1.371,1.371,0,0,1,14.046,1.213Z" transform="translate(0.004 0.01)" fill="#55bc42"/>
          </g>
          <g id="グループ_9108" transform="translate(26.756 10.274)">
            <path id="パス_4253" d="M17.833,6.169c-.759-1.291.683-3.417,2.05-4.176a2.591,2.591,0,0,1,3.493.911l.076.076a2.414,2.414,0,0,1-.607,3.341l-.228.228C21.25,7.308,18.593,7.46,17.833,6.169Z" transform="translate(-4.215 -0.418)" fill="#f90"/>
            <path id="パス_4254" d="M4.4.158a17.146,17.146,0,0,1,2.809,1.67,16.7,16.7,0,0,1,5.923,8.125,16.811,16.811,0,0,1,.835,6.454,1.371,1.371,0,0,1-1.519,1.215,1.477,1.477,0,0,1-1.063-.683.935.935,0,0,1-.152-.759,13.407,13.407,0,0,0-.683-5.467,3.173,3.173,0,0,0-.3-.759L1.51,13.75a1.019,1.019,0,0,1-1.443-.38A1.043,1.043,0,0,1,.523,12h0L8.192,6.46c-.152-.228-.38-.38-.532-.607a12.166,12.166,0,0,0-2.05-1.9A15.051,15.051,0,0,0,3.257,2.512,1.307,1.307,0,0,1,2.573.766h0A1.385,1.385,0,0,1,4.4.158Z" transform="translate(0.035 -0.026)" fill="#f90"/>
          </g>
          <g id="グループ_9110">
            <path id="パス_4255" d="M29.658,6.3c1.519,0,2.658-2.354,2.658-3.873A2.644,2.644,0,0,0,29.43,0,2.613,2.613,0,0,0,27,2.425C27,3.944,28.215,6.3,29.658,6.3Z" transform="translate(-6.456 0.019)" fill="#f76262"/>
            <path id="パス_4256" d="M36.825,14a16.721,16.721,0,0,0-6.15-2.506,17.637,17.637,0,0,0-6.91,0A18.131,18.131,0,0,0,17.614,14a1.33,1.33,0,0,0-.38,1.822h0a1.439,1.439,0,0,0,1.9.38A14.6,14.6,0,0,1,24.3,14.073c.3-.076.532-.076.835-.152l1.063,9.264a1.086,1.086,0,0,0,1.063,1.063,1.038,1.038,0,0,0,1.063-1.063l1.063-9.264c.3.076.532.076.835.152A14.6,14.6,0,0,1,35.382,16.2a1.439,1.439,0,0,0,1.9-.38A1.286,1.286,0,0,0,36.825,14Z" transform="translate(-4.056 -2.669)" fill="#f76262"/>
            <path id="パス_4257" d="M7.372,28.085A1.344,1.344,0,0,1,8.815,26.87a1.371,1.371,0,0,1,1.215,1.139c0-.3.076-.683.076-.987a17.657,17.657,0,0,1,.607-2.734,3.173,3.173,0,0,1,.3-.759l8.732,3.8A1.055,1.055,0,0,0,20.812,25.5h0L13.143,19.96c.152-.228.38-.38.532-.607a24.271,24.271,0,0,1,2.05-1.9,15.051,15.051,0,0,1,2.354-1.443,1.276,1.276,0,0,0,.607-1.746h0a1.362,1.362,0,0,0-1.822-.607,17.146,17.146,0,0,0-2.809,1.67,16.7,16.7,0,0,0-5.923,8.125A14.969,14.969,0,0,0,7.3,28.92,3.115,3.115,0,0,1,7.372,28.085Z" transform="translate(-1.711 -3.241)" fill="#e81818"/>
            <g id="グループ_9109" transform="translate(0 11.507)">
              <path id="パス_4258" d="M5.985,4.559C6.745,3.268,5.3,1.142,3.935.382a2.508,2.508,0,0,0-3.493.911l-.076.076A2.414,2.414,0,0,0,.974,4.71c.076.076.152.076.228.152C2.568,5.622,5.226,5.773,5.985,4.559Z" transform="translate(0.055 -0.011)" fill="#e81818"/>
            </g>
          </g>
        </g>
        <g id="グループ_9112" transform="translate(56.731 11.342)">
          <path id="パス_4259" d="M16.477,29.082l-8.2-9.34,8.2-9.264H9.8L5.163,15.11V0H0V29.082H5.163V23.918L9.8,29.082Z"/>
          <path id="パス_4260" d="M45.341,32.4V13.8H40.253v1.519a9.277,9.277,0,1,0-10.1,15.566,9.35,9.35,0,0,0,10.1,0V32.4ZM35.166,27.316a4.214,4.214,0,1,1,4.252-4.252,4.245,4.245,0,0,1-4.252,4.252Z" transform="translate(-6.236 -3.321)"/>
          <g id="グループ_9111" transform="translate(43.297)">
            <path id="パス_4261" d="M5.163,32.1c0,2.2-.607,4.252-5.163,4.252v5.087c6.454,0,10.327-3.493,10.327-9.34l-.076-18.3H5.087Z" transform="translate(0 -3.321)"/>
            <circle id="楕円形_8" cx="3.417" cy="3.417" r="3.417" transform="translate(4.328)"/>
          </g>
          <rect id="長方形_23045" width="5.163" height="18.527" transform="translate(62.795 10.479)"/>
          <circle id="楕円形_9" cx="3.417" cy="3.417" r="3.417" transform="translate(61.96)"/>
        </g>
      </g>
    </g>
    <g id="グループ_1161" transform="translate(738 2498.462)">
      <g id="グループ_1160" transform="translate(0 0)">
        <g id="グループ_1159" transform="translate(34.082)">
          <path id="パス_255" d="M673.69,2150.793h-6.8v-24.359a3.543,3.543,0,0,0-.265-1.324,3.181,3.181,0,0,0-.706-1.059,3.356,3.356,0,0,0-4.766,0,3.135,3.135,0,0,0-.971,2.471v24.359h-6.8v-24.359a3.4,3.4,0,0,0-6.8-.265v24.535h-6.8v-24.359a10.216,10.216,0,0,1,6.266-9.443,10.071,10.071,0,0,1,10.767,1.853,10.246,10.246,0,0,1,10.767-1.853,10.216,10.216,0,0,1,6.266,9.443Z" transform="translate(-639.8 -2116.176)" fill="#00336f"/>
          <path id="パス_256" d="M683.1,2126.937a10.216,10.216,0,0,1,10.238-10.237h14.386v6.8H693.249a3.488,3.488,0,0,0-3.442,3.354v.088a3.543,3.543,0,0,0,.265,1.324,3.178,3.178,0,0,0,.706,1.059,3.411,3.411,0,0,0,2.383.971h5.648a10.238,10.238,0,0,1,9.443,14.209,10.37,10.37,0,0,1-5.472,5.471,10.283,10.283,0,0,1-3.972.794H683.63v-6.8h15.18a3.4,3.4,0,1,0,.265-6.8h-5.825a10.215,10.215,0,0,1-9.443-6.266A11.747,11.747,0,0,1,683.1,2126.937Z" transform="translate(-644.885 -2116.238)" fill="#00336f"/>
        </g>
        <path id="パス_257" d="M668.56,2130.352v17.034a16.951,16.951,0,0,1-11.385,4.148,16.6,16.6,0,0,1-4.678-.618,15.882,15.882,0,0,1-4.148-1.765,17.987,17.987,0,0,1-3.53-2.736,17.254,17.254,0,0,1-2.736-3.531,17.894,17.894,0,0,1-1.765-4.236,18.016,18.016,0,0,1,0-9.355,15.874,15.874,0,0,1,1.765-4.148,17.985,17.985,0,0,1,2.736-3.531,17.654,17.654,0,0,1,23.829-.971l-3.53,5.913a12.156,12.156,0,0,0-3.53-2.471,10.487,10.487,0,0,0-8.472,0,11.191,11.191,0,0,0-3.442,2.295,10.237,10.237,0,0,0-2.295,3.442,11.281,11.281,0,0,0-.883,4.148,10.136,10.136,0,0,0,.883,4.236,11.037,11.037,0,0,0,5.737,5.737,11.356,11.356,0,0,0,4.236.883,11.164,11.164,0,0,0,2.471-.265,10.317,10.317,0,0,0,2.295-.883v-6.972h-6.354v-6.354Z" transform="translate(-639.7 -2116.211)" fill="#00336f"/>
      </g>
    </g>
    <g id="グループ_1162" transform="translate(841.722 2512.86)">
      <path id="パス_258" d="M641.012,2120.324a4.737,4.737,0,0,0-1.412-.882l.618-.794a4.9,4.9,0,0,1,1.5.794Zm-1.236,3.53a29.259,29.259,0,0,0,1.324-2.912l.883.617a20.87,20.87,0,0,1-1.236,2.824Zm1.677-5.913a7.966,7.966,0,0,0-1.412-.971l.618-.795a8.417,8.417,0,0,1,1.5.883Zm5.825,3.442a3.625,3.625,0,0,1-.088.971h.706v.882H647.1a1.424,1.424,0,0,1-.265.795,1.215,1.215,0,0,1-.706.441,4.965,4.965,0,0,1-1.147,0,1.7,1.7,0,0,0-.265-.882h.883a.352.352,0,0,0,.353-.177.325.325,0,0,0,.088-.265H643.4l-.088.441-.971-.089c.088-.618.265-1.324.353-2.206h-.794v-.971h.883c.088-.53.088-.971.176-1.412a.688.688,0,0,1-.353.353,3.165,3.165,0,0,0-.882-.618A5.935,5.935,0,0,0,643.13,2116l1.059.176-.265.795h3.883v.971h-4.325c-.088.177-.265.441-.353.617h4.236V2119a6.674,6.674,0,0,1-.088,1.324h.706v.971Zm-3.618,0a3.625,3.625,0,0,0-.088.971h.794c0-.265.088-.618.088-.971Zm.088-.882h.794c0-.265.088-.53.088-.883h-.794Zm2.471,1.853c0-.265.088-.529.088-.971h-.883c0,.353-.088.618-.088.971Zm.088-1.853v-.883h-.883a3.312,3.312,0,0,1-.088.883Z" transform="translate(-639.6 -2116)" fill="#00336f"/>
      <path id="パス_259" d="M659.084,2120.348a6.8,6.8,0,0,0,1.853,1.236c-.265.265-.529.618-.794.882a7.349,7.349,0,0,1-1.059-.706v2.736h-1.147v-3.707a5.377,5.377,0,0,1-1.059-1.412,7.841,7.841,0,0,1-3.53,5.119,7.986,7.986,0,0,0-.883-.794,5.964,5.964,0,0,0,2.383-2.295l-1.324-1.059c-.177.177-.265.353-.441.53a7.77,7.77,0,0,0-.883-.706,8.285,8.285,0,0,0,2.118-3.971l1.059.177a4.966,4.966,0,0,1-.353,1.059h1.412l.706.265c-.088.264-.088.53-.176.794l.353-.088c.176.265.353.618.529.882v-3H659v4.06Zm-4.413-1.853-.529,1.059a6.257,6.257,0,0,1,1.236.883,7.326,7.326,0,0,0,.53-1.854h-1.236Z" transform="translate(-641.08 -2116.023)" fill="#00336f"/>
      <path id="パス_260" d="M668.878,2116.4v.53c.088,1.236.529,5.031,3.795,6.619a2.5,2.5,0,0,0-.794.882,7.237,7.237,0,0,1-3.53-4.5,8.035,8.035,0,0,1-3.266,4.5,4.178,4.178,0,0,0-.883-.882c3.53-1.942,3.442-6,3.53-7.149Z" transform="translate(-642.489 -2116.047)" fill="#00336f"/>
      <path id="パス_261" d="M679.342,2121.584a6.536,6.536,0,0,0-.794-1.059v4.06h-1.059v-3.442a8.888,8.888,0,0,1-1.059,2.03l-.529-1.059a7.65,7.65,0,0,0,1.5-2.912h-1.236v-.971h1.412v-1.854h1.059v1.854h1.147v.971h-1.147v.265c.353.265,1.147,1.147,1.412,1.412Zm4.942-2.56H683.4v4.148c0,.618-.177.883-.53,1.059a3.65,3.65,0,0,1-1.677.177,4.97,4.97,0,0,0-.353-1.059h1.236c.177,0,.265-.088.265-.177v-2.736a10.057,10.057,0,0,1-2.383,2.736,2.508,2.508,0,0,0-.794-.883,7.787,7.787,0,0,0,2.824-3.265h-2.03v-.971h2.383V2116.2h1.147v1.853h.883Z" transform="translate(-643.863 -2116.023)" fill="#00336f"/>
      <path id="パス_262" d="M648.078,2131.547a17.662,17.662,0,0,1-3.177,3.618,20.476,20.476,0,0,1,1.412,1.589l-1.059.882c-.53-.706-1.147-1.324-1.765-2.03a19.414,19.414,0,0,0-2.03-1.765l.971-.794c.353.265.971.794,1.589,1.235a9.379,9.379,0,0,0,2.295-2.648h-4.854c-.353,0-.883.088-1.059.088V2130.4a4.3,4.3,0,0,0,1.059.088h5.119a3.007,3.007,0,0,0,.883-.088l.883.794A1.221,1.221,0,0,0,648.078,2131.547Z" transform="translate(-639.694 -2117.691)" fill="#00336f"/>
      <path id="パス_263" d="M656.778,2130.171v.441h1.147a2.435,2.435,0,0,0,.794-.089l.794.706a5.709,5.709,0,0,0-.706.794,18.48,18.48,0,0,1-1.942,1.765v2.294a4.662,4.662,0,0,0,.088,1.147h-1.412a5.035,5.035,0,0,0,.088-1.147V2134.5a15.764,15.764,0,0,1-2.824,1.147l-.706-1.059a11.762,11.762,0,0,0,3.795-1.5,4.828,4.828,0,0,0,1.589-1.412h-4.589v-1.236a5.025,5.025,0,0,0,1.147.088h1.589v-.441a3.311,3.311,0,0,0-.088-.882h1.324C656.866,2129.553,656.778,2129.818,656.778,2130.171Zm.618,4.148.794-.882c.794.441,1.5.882,2.206,1.324l-.794.971c-.706-.441-1.412-.971-2.206-1.412Z" transform="translate(-641.068 -2117.55)" fill="#00336f"/>
      <path id="パス_264" d="M667.124,2133.007l-.706,1.059c-.53-.353-1.5-.97-2.118-1.324l.706-.971A6.369,6.369,0,0,1,667.124,2133.007Zm.794,2.03a9.68,9.68,0,0,0,3.618-3.442l.706,1.235a10.578,10.578,0,0,1-6.708,4.5l-.706-1.236a9.873,9.873,0,0,0,3.089-1.059Zm.618-4.148-.706.971c-.53-.353-1.5-.971-2.118-1.324l.706-.971a22.147,22.147,0,0,1,2.118,1.324Zm2.736.265-.794.353c-.265-.53-.529-.971-.794-1.412l.794-.353a11.421,11.421,0,0,1,.794,1.412Zm1.324-.441-.794.353a7.607,7.607,0,0,0-.883-1.412l.794-.353a7.644,7.644,0,0,1,.883,1.412Z" transform="translate(-642.501 -2117.562)" fill="#00336f"/>
      <path id="パス_265" d="M682.531,2130.9a12.936,12.936,0,0,1-1.236,2.471,24.067,24.067,0,0,1,2.206,2.03l-.971,1.059a22.084,22.084,0,0,0-2.03-2.03,11.8,11.8,0,0,1-3.442,2.824l-1.059-.971a10.591,10.591,0,0,0,3.53-2.736,25.017,25.017,0,0,0-2.471-1.765l.794-.971c.706.441,1.677,1.148,2.471,1.677a10.149,10.149,0,0,0,1.059-2.206,2.613,2.613,0,0,0,.177-.883l1.412.441C682.8,2130.282,682.619,2130.724,682.531,2130.9Z" transform="translate(-643.875 -2117.573)" fill="#00336f"/>
      <path id="パス_266" d="M691.718,2134.842a8.827,8.827,0,0,0,3.354-3.618l.706,1.324a9.884,9.884,0,0,1-3.442,3.442,11.613,11.613,0,0,1-3.442,1.324l-.794-1.236A9.246,9.246,0,0,0,691.718,2134.842Zm0-3-.971.971a25.093,25.093,0,0,0-2.295-2.03l.883-.883A17.54,17.54,0,0,1,691.718,2131.842Z" transform="translate(-645.296 -2117.632)" fill="#00336f"/>
      <path id="パス_267" d="M700.588,2130.647a5.423,5.423,0,0,0-.088-1.147h1.412a4.666,4.666,0,0,0-.088,1.147v1.324a34.339,34.339,0,0,1,3.883,1.412l-.53,1.236c-1.059-.53-2.206-.971-3.354-1.412v2.647c0,.265.088.883.088,1.324H700.5a6.677,6.677,0,0,0,.088-1.324Z" transform="translate(-646.753 -2117.585)" fill="#00336f"/>
      <path id="パス_268" d="M712.719,2137.431l-.971-.971c1.765-.617,2.559-1.412,2.559-3.706v-.353H712.1v2.207h-1.324c0-.353.088-.618.088-.971V2132.4H709.1v-1.236a3.615,3.615,0,0,0,.971.088h.794v-.882a2.447,2.447,0,0,0-.088-.794H712.1c0,.265-.088.53-.088.794v.882h2.206v-.971a3.313,3.313,0,0,0-.088-.883h1.324c0,.265-.088.53-.088.883v.971h.706a3.3,3.3,0,0,0,.971-.088v1.236h-1.677v.265C715.454,2135.048,714.925,2136.46,712.719,2137.431Z" transform="translate(-647.763 -2117.573)" fill="#00336f"/>
      <path id="パス_269" d="M722.5,2133.088h4.942A3.641,3.641,0,0,0,728.5,2133v1.412c-.176,0-.706-.089-1.059-.089H722.5a7.579,7.579,0,0,0-1.5.089V2133C721.353,2133,722.059,2133.088,722.5,2133.088Z" transform="translate(-649.16 -2117.996)" fill="#00336f"/>
      <path id="パス_270" d="M734.424,2130.677v1.765a22.355,22.355,0,0,0,3.177-1.059,3.421,3.421,0,0,0,.971-.53l.53,1.147a9.224,9.224,0,0,1-1.059.441c-1.147.441-2.383.794-3.618,1.147v1.677c0,.353.177.53.618.618.353,0,.706.088,1.059.088a13.011,13.011,0,0,0,3.177-.353v1.324a20.286,20.286,0,0,1-3.266.176,9.579,9.579,0,0,1-1.589-.088,1.257,1.257,0,0,1-1.236-1.412v-5.031a3.624,3.624,0,0,0-.088-.971h1.324C734.424,2130.059,734.424,2130.323,734.424,2130.677Zm4.766-.088-.706.353a9.633,9.633,0,0,0-.706-1.324l.706-.265c.177.353.53.883.706,1.235Zm1.059-.441-.706.353a5.622,5.622,0,0,0-.706-1.236l.706-.265a5,5,0,0,1,.706,1.147Z" transform="translate(-650.581 -2117.526)" fill="#00336f"/>
      <path id="パス_271" d="M750.019,2131.247a14.491,14.491,0,0,1-1.412,2.56,24.3,24.3,0,0,1,2.559,2.647l-1.059.883a32.851,32.851,0,0,0-2.295-2.648,10.971,10.971,0,0,1-3.442,2.559l-.971-.971a11.334,11.334,0,0,0,3.795-2.648,6.7,6.7,0,0,0,1.412-2.295h-3.089c-.353,0-.883.089-1.059.089V2130.1c.353,0,.706.088,1.059.088h3.266a3.615,3.615,0,0,0,.971-.088l.794.53A2.814,2.814,0,0,0,750.019,2131.247Z" transform="translate(-651.791 -2117.656)" fill="#00336f"/>
    </g>
    <g id="グループ_9250" data-name="グループ 9250" transform="translate(1001.697 2294.086)">
      <g id="グループ_9249" data-name="グループ 9249" transform="translate(110.903 201.214)">
        <g id="グループ_9248" data-name="グループ 9248">
          <g id="グループ_9242" data-name="グループ 9242" transform="translate(0 15.168)">
            <path id="パス_4387" data-name="パス 4387" d="M126.209,240.8a.97.97,0,0,1-.582,1.189s-2.892,1.066-4.756,1.756-4.757,1.756-4.757,1.756a.57.57,0,0,0-.239.99,3.864,3.864,0,0,0,1.018.715,4.983,4.983,0,0,0,2.3.518,4.75,4.75,0,0,0,2.4-.8,1.023,1.023,0,0,1,1.34.169l.928,1.092a.907.907,0,0,1-.111,1.283,8,8,0,0,1-1.659,1.031,7.161,7.161,0,0,1-2.9.58,8.26,8.26,0,0,1-5.885-2.4,8.357,8.357,0,0,1-1.761-2.59,8.094,8.094,0,0,1,0-6.32,8.047,8.047,0,0,1,1.761-2.59,8.439,8.439,0,0,1,2.632-1.741,8.245,8.245,0,0,1,3.253-.642,6.08,6.08,0,0,1,2.466.518,7.061,7.061,0,0,1,2.113,1.43,9.441,9.441,0,0,1,1.637,2.176A11.918,11.918,0,0,1,126.209,240.8Zm-7.017-2.65a4.779,4.779,0,0,0-3.44,1.264,5.172,5.172,0,0,0-1.208,2.278c-.111.491.186.752.659.579,0,0,1.731-.632,3.015-1.116s3.015-1.115,3.015-1.115a.551.551,0,0,0,.223-.972,3.581,3.581,0,0,0-.669-.482A3.04,3.04,0,0,0,119.192,238.148Z" transform="translate(-110.903 -234.791)" fill="#00afeb"/>
          </g>
          <g id="グループ_9243" data-name="グループ 9243" transform="translate(17.833)">
            <path id="パス_4388" data-name="パス 4388" d="M163.972,231.882v-.828c0-.228-.075-.309-.166-.179l-.248.22a5.136,5.136,0,0,1-1.057.684,8.8,8.8,0,0,1-1.637.622,7.945,7.945,0,0,1-2.155.269,8.4,8.4,0,0,1-3.274-.642,8.174,8.174,0,0,1-2.652-1.761,8.273,8.273,0,0,1-1.761-2.611,7.873,7.873,0,0,1-.643-3.15,7.729,7.729,0,0,1,.643-3.129,8.342,8.342,0,0,1,1.761-2.59,8.18,8.18,0,0,1,2.652-1.761,8.4,8.4,0,0,1,3.274-.642,6.608,6.608,0,0,1,1.969.29,9.67,9.67,0,0,1,1.637.663,6.292,6.292,0,0,1,1.139.746l.29.249c.125.137.172.053.1-.187l-.083-.207-.083-.207a6.539,6.539,0,0,1-.124-1.351V205.4a.918.918,0,0,0-.915-.915h-.9a.918.918,0,0,1-.915-.916v-1.443a.918.918,0,0,1,.915-.915h4.345a.918.918,0,0,1,.915.915v25.978a.918.918,0,0,0,.915.915h1.319a.918.918,0,0,1,.915.915v1.444a.918.918,0,0,1-.915.915h-4.345C164.384,232.3,163.972,232.11,163.972,231.882Zm-10.154-7.377a4.87,4.87,0,1,0,9.739,0,4.623,4.623,0,0,0-1.353-3.419,5.264,5.264,0,0,0-7.033,0A4.62,4.62,0,0,0,153.818,224.505Z" transform="translate(-150.378 -201.214)" fill="#00afeb"/>
          </g>
          <g id="グループ_9244" data-name="グループ 9244" transform="translate(49.336 15.168)">
            <path id="パス_4389" data-name="パス 4389" d="M220.53,258.708a.918.918,0,0,1,.915-.915h.946a.918.918,0,0,0,.915-.916V239.354a.918.918,0,0,0-.915-.916H221.03a.918.918,0,0,1-.915-.915v-1.443a.918.918,0,0,1,.915-.915h4.221c.5,0,.921.283.929.628l.028.346.027.346c.054.346.182.513.284.373l.29-.263a6.246,6.246,0,0,1,1.14-.787,9.54,9.54,0,0,1,1.637-.7,6.312,6.312,0,0,1,2.01-.311,8.4,8.4,0,0,1,3.274.642,8.191,8.191,0,0,1,2.652,1.761,8.365,8.365,0,0,1,1.761,2.59,7.744,7.744,0,0,1,.642,3.129,7.887,7.887,0,0,1-.642,3.15,8.3,8.3,0,0,1-1.761,2.611,8.184,8.184,0,0,1-2.652,1.761,8.4,8.4,0,0,1-3.274.642,7.886,7.886,0,0,1-2.072-.248,8.544,8.544,0,0,1-1.575-.58,6.119,6.119,0,0,1-1.057-.643l-.263-.207c-.14-.148-.2-.148-.138,0l.07.124.068.124a4.523,4.523,0,0,1,.118,1.185v6.044a.918.918,0,0,0,.915.916h1.153a.918.918,0,0,1,.915.915v1.443a.918.918,0,0,1-.915.915h-7.37a.918.918,0,0,1-.915-.915Zm15.956-15.794a4.623,4.623,0,0,0-1.353-3.419,5.264,5.264,0,0,0-7.033,0,4.619,4.619,0,0,0-1.353,3.419,4.87,4.87,0,1,0,9.739,0Z" transform="translate(-220.115 -234.791)" fill="#46c3c8"/>
          </g>
          <g id="グループ_9245" data-name="グループ 9245" transform="translate(71.322 15.168)">
            <path id="パス_4390" data-name="パス 4390" d="M268.782,242.914a7.876,7.876,0,0,1,.643-3.15,8.048,8.048,0,0,1,1.761-2.59,8.423,8.423,0,0,1,2.632-1.741,8.243,8.243,0,0,1,3.253-.642A8.462,8.462,0,0,1,283,237.174a8.063,8.063,0,0,1,1.761,2.59,8.089,8.089,0,0,1,0,6.32,8.374,8.374,0,0,1-1.761,2.59,8.175,8.175,0,0,1-2.652,1.761,8.4,8.4,0,0,1-3.274.642,8.26,8.26,0,0,1-5.885-2.4,8.358,8.358,0,0,1-1.761-2.59A7.828,7.828,0,0,1,268.782,242.914Zm3.441.042a4.678,4.678,0,0,0,.373,1.865,4.715,4.715,0,0,0,2.528,2.528,4.853,4.853,0,0,0,3.73,0,5.02,5.02,0,0,0,1.533-1.016,4.605,4.605,0,0,0,1.036-1.513,4.847,4.847,0,0,0,0-3.73,4.869,4.869,0,0,0-2.57-2.57,4.848,4.848,0,0,0-3.73,0,4.621,4.621,0,0,0-1.513,1.036,5.03,5.03,0,0,0-1.015,1.534A4.678,4.678,0,0,0,272.223,242.955Z" transform="translate(-268.782 -234.791)" fill="#46c3c8"/>
          </g>
          <g id="グループ_9246" data-name="グループ 9246" transform="translate(89.528)">
            <path id="パス_4391" data-name="パス 4391" d="M319.694,229.938c0-.5.1-.915.228-.915s-.019-.33-.319-.734c0,0-.282-.378-.7-.945s-.673-.932-.673-.932a.777.777,0,0,0-1.2-.121l-.7.654a2.2,2.2,0,0,0-.667,1.352.839.839,0,0,0,.915.725h.781a.918.918,0,0,1,.915.915v1.444a.918.918,0,0,1-.915.915H310a.918.918,0,0,1-.915-.915v-1.444a.918.918,0,0,1,.915-.915h1.32a.918.918,0,0,0,.915-.915V205.4a.918.918,0,0,0-.915-.915h-.9a.918.918,0,0,1-.915-.916v-1.443a.918.918,0,0,1,.915-.915h4.344a.918.918,0,0,1,.915.915v20.508c0,.5.3.634.669.291l2.434-2.273c.368-.344.324-.625-.1-.625a.853.853,0,0,1-.767-.915v-1.443a.918.918,0,0,1,.915-.915h6.5a.918.918,0,0,1,.915.915v1.443a.918.918,0,0,1-.915.915h-.739a2.7,2.7,0,0,0-1.586.624s-.532.5-1.112,1.076-1.113,1.075-1.113,1.075a1.077,1.077,0,0,0-.139,1.37s.8,1.126,1.479,2.052,1.51,2.06,1.51,2.06a2.041,2.041,0,0,0,1.457.738h2.023a.918.918,0,0,1,.915.915v1.444a.918.918,0,0,1-.915.915h-6.5a.918.918,0,0,1-.915-.915Z" transform="translate(-309.084 -201.214)" fill="#46c3c8"/>
          </g>
          <g id="グループ_9247" data-name="グループ 9247" transform="translate(110.051 15.168)">
            <path id="パス_4392" data-name="パス 4392" d="M369.819,240.8a.969.969,0,0,1-.581,1.189s-2.892,1.066-4.756,1.756-4.757,1.756-4.757,1.756a.57.57,0,0,0-.239.99,3.873,3.873,0,0,0,1.017.715,4.985,4.985,0,0,0,2.3.518,4.747,4.747,0,0,0,2.4-.8,1.024,1.024,0,0,1,1.341.169l.928,1.092a.907.907,0,0,1-.111,1.283A8.012,8.012,0,0,1,365.7,250.5a7.163,7.163,0,0,1-2.9.58,8.258,8.258,0,0,1-5.885-2.4,8.358,8.358,0,0,1-1.761-2.59,8.09,8.09,0,0,1,0-6.32,8.048,8.048,0,0,1,1.761-2.59,8.421,8.421,0,0,1,2.631-1.741,8.244,8.244,0,0,1,3.254-.642,6.081,6.081,0,0,1,2.466.518,7.075,7.075,0,0,1,2.114,1.43,9.467,9.467,0,0,1,1.637,2.176A11.966,11.966,0,0,1,369.819,240.8Zm-7.017-2.65a4.779,4.779,0,0,0-3.44,1.264,5.175,5.175,0,0,0-1.208,2.278c-.111.491.186.751.658.579,0,0,1.73-.632,3.016-1.116s3.015-1.115,3.015-1.115a.551.551,0,0,0,.223-.972,3.581,3.581,0,0,0-.669-.482A3.041,3.041,0,0,0,362.8,238.148Z" transform="translate(-354.513 -234.791)" fill="#46c3c8"/>
          </g>
        </g>
      </g>
      <path id="パス_4393" data-name="パス 4393" d="M243.374,253.224H239.03a.918.918,0,0,0-.915.915v3.548h-.029v4.7c0,7.546-1.88,17.578-18.124,17.587-16.244-.009-18.123-10.04-18.123-17.587V244.457h.017c0-.008,0-.017,0-.025v-7.9a.918.918,0,0,0-.915-.915h-4.344a.918.918,0,0,0-.916.915v1.443a.918.918,0,0,0,.916.915h.9a.918.918,0,0,1,.915.916v4.154h-.009v18.422c0,13.933,7.246,21,21.535,21.019h.042c14.289-.014,21.535-7.085,21.535-21.019v-.318h.037v-4.65a.918.918,0,0,1,.915-.915h.9a.918.918,0,0,0,.916-.916V254.14A.918.918,0,0,0,243.374,253.224Z" transform="translate(-46.479 -18.861)" fill="#00afeb"/>
    </g>
  </g>
</svg>
