<?xml version="1.0" encoding="utf-8"?>
<!-- Generator: Adobe Illustrator 25.3.1, SVG Export Plug-In . SVG Version: 6.00 Build 0)  -->
<svg version="1.1" id="レイヤー_1" xmlns="http://www.w3.org/2000/svg" xmlns:xlink="http://www.w3.org/1999/xlink" x="0px"
	 y="0px" viewBox="0 0 500 120" style="enable-background:new 0 0 500 120;" xml:space="preserve">
<style type="text/css">
	.st0{fill:#FFFFFF;}
	.st1{fill:#00AFEB;}
	.st2{fill:#46C3C8;}
	.st3{fill:#CCCCCC;}
	.st4{fill:#231815;}
	.st5{fill:#009FE8;}
</style>
<g id="グループ_9228" transform="translate(-735 -2453)">
	<rect id="長方形_23079" x="735" y="2453.8" class="st0" width="500" height="120"/>
	<g>
		<g>
			<g>
				<g>
					<path class="st1" d="M1036,2512.3c0.3,1.1-0.2,2.2-1.3,2.6c0,0-2.6,1-4.8,1.8c-2.2,0.8-4.8,1.8-4.8,1.8c-1,0.4-1.4,1.3-0.8,2
						c0,0,0,0,0.8,0.4c0.8,0.4,1.7,0.6,2.8,0.6c1.5,0,2.1-0.4,2.1-0.4c0.9-0.6,2.2-0.5,2.9,0.3s0.6,2.1-0.3,2.8c0,0-0.2,0.2-1.3,0.6
						c-1.1,0.5-2.2,0.7-3.5,0.7c-1.4,0-2.7-0.3-3.9-0.8c-1.2-0.5-2.3-1.2-3.2-2.1c-0.9-0.9-1.6-1.9-2.1-3.1
						c-0.5-1.2-0.8-2.4-0.8-3.8c0-1.3,0.3-2.6,0.8-3.8c0.5-1.2,1.2-2.2,2.1-3.1c0.9-0.9,1.9-1.6,3.2-2.1c1.2-0.5,2.5-0.8,3.9-0.8
						c1,0,2,0.2,3,0.6c0.9,0.4,1.8,1,2.5,1.7c0.7,0.7,1.4,1.6,2,2.6C1035.9,2512,1036,2512.3,1036,2512.3z M1027.8,2510
						c-1.7,0-3.1,0.5-4.1,1.5c-1.1,1-1.2,1.8-1.2,1.8c-0.2,1.1,0.4,1.7,1.5,1.3c0,0,1.2-0.4,2.7-1c1.5-0.6,2.7-1,2.7-1
						c1-0.4,1.5-1.2,0.9-1.7c0,0,0,0-0.6-0.3C1029.2,2510.2,1028.5,2510,1027.8,2510z"/>
				</g>
				<g>
					<path class="st1" d="M1055.6,2524.6c0-0.3,0-0.7,0-1c0-0.3-0.1-0.4-0.2-0.2c0,0,0,0-0.3,0.3c-0.3,0.3-0.7,0.5-1.3,0.8
						c-0.5,0.3-1.2,0.5-2,0.7c-0.8,0.2-1.6,0.3-2.6,0.3c-1.4,0-2.7-0.3-3.9-0.8c-1.2-0.5-2.3-1.2-3.2-2.1c-0.9-0.9-1.6-1.9-2.1-3.1
						c-0.5-1.2-0.8-2.5-0.8-3.8c0-1.3,0.3-2.6,0.8-3.8c0.5-1.2,1.2-2.2,2.1-3.1c0.9-0.9,2-1.6,3.2-2.1c1.2-0.5,2.5-0.8,3.9-0.8
						c0.8,0,1.6,0.1,2.4,0.3c0.7,0.2,1.4,0.5,2,0.8c0.6,0.3,1,0.6,1.4,0.9c0.3,0.3,0.3,0.3,0.3,0.3c0.2,0.2,0.2,0.1,0.1-0.2
						c0,0,0,0-0.1-0.2c-0.1-0.2-0.1-0.2-0.1-0.2c-0.1-0.3-0.1-1.4-0.1-2.5v-11.3c0-1.1-0.7-2-1.6-2c-0.9,0-1.6-0.9-1.6-2
						c0-1.1,0.9-2,2-2h3.4c1.1,0,2,0.9,2,2v29.3c0,1.1,0.8,2,1.9,2s1.9,0.9,1.9,2s-0.9,2-2,2h-3.4
						C1056.5,2525.1,1055.6,2524.9,1055.6,2524.6z M1043.4,2515.7c0,1.6,0.5,3,1.6,4.1c1.1,1.1,2.5,1.7,4.2,1.7
						c1.7,0,3.1-0.6,4.2-1.7c1.1-1.1,1.6-2.5,1.6-4.1c0-1.7-0.5-3-1.6-4.1c-1.1-1.1-2.5-1.6-4.2-1.6c-1.7,0-3.1,0.5-4.2,1.6
						C1044,2512.7,1043.4,2514.1,1043.4,2515.7z"/>
				</g>
				<g>
					<path class="st1" d="M1063.8,2508.4c0-1.1,0.9-2,2-2h3.4c1.1,0,2,0.9,2,2v7.6c0,1.1,0.2,2.8,0.4,3.7c0,0,0,0,0.6,0.6
						c0.6,0.6,1.5,1,2.8,1.1c0.9,0,1.7-0.1,2.5-0.5c0.8-0.3,1.5-0.7,2.1-1.3c0.6-0.5,1.1-1.2,1.4-1.9c0.4-0.7,0.4-0.7,0.4-0.7
						c0.1-0.9,0.2-2.6,0.2-3.7v-1.1c0-1.1-0.7-2-1.6-2c-0.9,0-1.6-0.9-1.6-2c0-1.1,0.9-2,2-2h3.4c1.1,0,2,0.9,2,2v11.1
						c0,1.1,0.7,2,1.5,2s1.5,0.8,1.5,1.7c0,1-0.9,1.7-2,1.7h-3.2c-1.1,0-2-0.6-2-1.3c0-0.7,0-1.8,0.1-2.4s-0.4-0.3-1,0.6
						c0,0-0.7,1.1-2.2,2.1c-1.5,0.9-3.1,1.4-4.9,1.4c-2,0-3.5-0.5-4.6-1.5c-1.1-1-1.4-2-1.4-2c-0.2-1.1-0.4-2.9-0.4-4v-5.5
						c0-1.1-0.7-2-1.6-2S1063.8,2509.5,1063.8,2508.4z"/>
				</g>
				<g>
					<path class="st2" d="M1090.2,2535.5c0-1.1,0.7-2,1.7-2s1.7-0.9,1.7-2v-19.2c0-1.1-0.9-2-1.9-2c-1.1,0-1.9-0.9-1.9-2
						c0-1.1,0.9-2,2-2h3.2c1.1,0,2,0.3,2,0.8c0,0,0,0,0,0.4c0,0.4,0,0.4,0,0.4c0.1,0.4,0.2,0.6,0.3,0.4c0,0,0,0,0.3-0.3
						c0.3-0.3,0.8-0.6,1.4-0.9c0.6-0.3,1.2-0.6,2-0.8s1.5-0.4,2.4-0.4c1.4,0,2.7,0.3,3.9,0.8c1.2,0.5,2.3,1.2,3.2,2.1
						c0.9,0.9,1.6,1.9,2.1,3.1c0.5,1.2,0.8,2.4,0.8,3.8c0,1.3-0.3,2.6-0.8,3.8c-0.5,1.2-1.2,2.2-2.1,3.1c-0.9,0.9-2,1.6-3.2,2.1
						c-1.2,0.5-2.5,0.8-3.9,0.8c-0.9,0-1.8-0.1-2.5-0.3c-0.7-0.2-1.4-0.4-1.9-0.7c-0.5-0.3-1-0.5-1.3-0.8c-0.3-0.2-0.3-0.2-0.3-0.2
						c-0.2-0.2-0.2-0.2-0.2,0c0,0,0,0,0.1,0.1c0.1,0.1,0.1,0.1,0.1,0.1c0.1,0.2,0.1,1.2,0.1,2.3v5.4c0,1.1,0.8,2,1.8,2
						s1.8,0.9,1.8,2c0,1.1-0.9,2-2,2h-7C1091.1,2537.5,1090.2,2536.6,1090.2,2535.5z M1109.3,2515.7c0-1.7-0.5-3-1.6-4.1
						c-1.1-1.1-2.5-1.6-4.2-1.6c-1.7,0-3.1,0.5-4.2,1.6c-1.1,1.1-1.6,2.4-1.6,4.1c0,1.6,0.5,3,1.6,4.1c1.1,1.1,2.5,1.7,4.2,1.7
						c1.7,0,3.1-0.6,4.2-1.7C1108.8,2518.7,1109.3,2517.4,1109.3,2515.7z"/>
				</g>
				<g>
					<path class="st2" d="M1116.1,2515.7c0-1.3,0.3-2.6,0.8-3.8c0.5-1.2,1.2-2.2,2.1-3.1c0.9-0.9,1.9-1.6,3.2-2.1
						c1.2-0.5,2.5-0.8,3.9-0.8c1.4,0,2.7,0.3,3.9,0.8c1.2,0.5,2.3,1.2,3.2,2.1c0.9,0.9,1.6,1.9,2.1,3.1c0.5,1.2,0.8,2.5,0.8,3.8
						c0,1.4-0.3,2.6-0.8,3.8c-0.5,1.2-1.2,2.2-2.1,3.1c-0.9,0.9-2,1.6-3.2,2.1c-1.2,0.5-2.5,0.8-3.9,0.8c-1.4,0-2.7-0.3-3.9-0.8
						c-1.2-0.5-2.3-1.2-3.2-2.1c-0.9-0.9-1.6-1.9-2.1-3.1C1116.3,2518.4,1116.1,2517.1,1116.1,2515.7z M1120.2,2515.8
						c0,0.8,0.1,1.5,0.4,2.2c0.3,0.7,0.7,1.3,1.2,1.8c0.5,0.5,1.1,0.9,1.8,1.2c0.7,0.3,1.4,0.4,2.2,0.4c0.8,0,1.5-0.1,2.2-0.4
						c0.7-0.3,1.3-0.7,1.8-1.2c0.5-0.5,0.9-1.1,1.2-1.8c0.3-0.7,0.4-1.4,0.4-2.2s-0.1-1.5-0.4-2.2c-0.3-0.7-0.7-1.3-1.2-1.8
						c-0.5-0.5-1.1-0.9-1.8-1.2c-0.7-0.3-1.4-0.4-2.2-0.4c-0.8,0-1.5,0.1-2.2,0.4c-0.7,0.3-1.3,0.7-1.8,1.2
						c-0.5,0.5-0.9,1.1-1.2,1.8C1120.3,2514.3,1120.2,2515,1120.2,2515.8z"/>
				</g>
				<g>
					<path class="st2" d="M1150.6,2523.1c0-1.1,0.1-2,0.3-2c0.2,0-0.2-0.6-0.7-1.3c0,0,0,0-0.5-0.7c-0.5-0.7-0.5-0.7-0.5-0.7
						c-0.5-0.7-1.5-0.8-2.2-0.2c-0.7,0.6-1.2,1.5-1.2,2s0.7,0.9,1.6,0.9s1.6,0.9,1.6,2s-0.9,2-2,2h-7c-1.1,0-2-0.9-2-2s0.8-2,1.9-2
						c1,0,1.9-0.9,1.9-2v-25.4c0-1.1-0.7-2-1.6-2s-1.6-0.9-1.6-2c0-1.1,0.9-2,2-2h3.4c1.1,0,2,0.9,2,2v22.7c0,1.1,0.7,1.4,1.5,0.6
						l1.6-1.5c0.8-0.8,1.1-1.4,0.6-1.4c-0.5,0-0.9-0.9-0.9-2c0-1.1,0.9-2,2-2h5.9c1.1,0,2,0.9,2,2c0,1.1-0.7,2-1.5,2s-2.2,0.6-3,1.3
						c0,0,0,0-0.7,0.7c-0.7,0.7-0.7,0.7-0.7,0.7c-0.8,0.7-0.9,2.1-0.3,3c0,0,0.4,0.6,1.2,1.7c0.8,1.1,1.3,1.7,1.3,1.7
						c0.7,0.9,2.1,1.6,3.2,1.6h0.6c1.1,0,2,0.9,2,2s-0.9,2-2,2h-5.9C1151.5,2525.1,1150.6,2524.2,1150.6,2523.1z"/>
				</g>
				<g>
					<path class="st2" d="M1180.6,2512.3c0.3,1.1-0.2,2.2-1.3,2.6c0,0-2.6,1-4.8,1.8c-2.2,0.8-4.8,1.8-4.8,1.8c-1,0.4-1.4,1.3-0.8,2
						c0,0,0,0,0.8,0.4c0.8,0.4,1.7,0.6,2.8,0.6c1.5,0,2.1-0.4,2.1-0.4c0.9-0.6,2.2-0.5,2.9,0.3c0.7,0.8,0.6,2.1-0.3,2.8
						c0,0-0.2,0.2-1.3,0.6c-1.1,0.5-2.2,0.7-3.5,0.7c-1.4,0-2.7-0.3-3.9-0.8c-1.2-0.5-2.3-1.2-3.2-2.1s-1.6-1.9-2.1-3.1
						c-0.5-1.2-0.8-2.4-0.8-3.8c0-1.3,0.3-2.6,0.8-3.8c0.5-1.2,1.2-2.2,2.1-3.1c0.9-0.9,1.9-1.6,3.2-2.1c1.2-0.5,2.5-0.8,3.9-0.8
						c1,0,2,0.2,3,0.6c0.9,0.4,1.8,1,2.5,1.7c0.7,0.7,1.4,1.6,2,2.6C1180.5,2512,1180.6,2512.3,1180.6,2512.3z M1172.4,2510
						c-1.7,0-3.1,0.5-4.1,1.5c-1.1,1-1.2,1.8-1.2,1.8c-0.2,1.1,0.4,1.7,1.5,1.3c0,0,1.2-0.4,2.7-1c1.5-0.6,2.7-1,2.7-1
						c1-0.4,1.5-1.2,0.9-1.7c0,0,0,0-0.6-0.3C1173.8,2510.2,1173.1,2510,1172.4,2510z"/>
				</g>
			</g>
		</g>
		<g>
			<polygon class="st3" points="1065.7,2534 1065.7,2529.9 1059.7,2529.9 1059.7,2533 1062.3,2533 1062.3,2534 			"/>
			<polygon class="st3" points="1133.4,2529.9 1133.4,2534 1136.7,2534 1136.7,2533 1139.4,2533 1139.4,2529.9 			"/>
			<path class="st3" d="M1126.6,2545.2c-5.9,3.8-15,5.7-27.1,5.7c-12.1,0-21.2-1.9-27.1-5.7c-5.6-3.6-6.8-8.1-6.8-11.2h-3.3
				c0,5.6,3,10.6,8.3,14c6.4,4.1,16.1,6.2,28.8,6.2v0c0,0,0.1,0,0.1,0s0.1,0,0.1,0v0c12.7,0,22.4-2.1,28.8-6.2
				c5.4-3.5,8.3-8.4,8.3-14h-3.3C1133.4,2537.1,1132.2,2541.6,1126.6,2545.2z"/>
		</g>
	</g>
	<g>
		<path class="st4" d="M798.9,2483.2v64.4c0,0-0.1,0.7,0.2,0.9c0.2,0.2,0.5,0.2,1.3,0.3c1.3,0.1,51.1,4.7,51.1,4.7v-66.3l-6.5-0.6
			V2471c0,0,0-0.4-0.3-0.7c-0.3-0.3-0.6-0.3-0.9-0.2c-0.2,0.1-43.5,11.1-43.5,11.1s-0.9,0.2-1.2,0.5c-0.3,0.3-0.2,1.1-0.2,1.2
			C798.9,2483,798.9,2483.2,798.9,2483.2z"/>
		<g>
			<g>
				<path class="st4" d="M866.9,2506.4c0,0-0.1,0-0.1,0l-10.3-0.9c-0.7-0.1-1.2-0.6-1.2-1.3c0-0.7,0.5-1.2,1.2-1.2c0,0,0.1,0,0.1,0
					c0.1,0,0.2,0,0.4,0c0.2,0,0.4,0,0.4,0c0,0,0-0.1,0-0.3v-12c0-0.2,0-0.5-1-0.6c-0.7-0.1-1.2-0.6-1.2-1.3c0-0.7,0.5-1.2,1.2-1.2
					c0,0,0.1,0,0.1,0l5.1,0.4c0.7,0.1,1.2,0.6,1.2,1.3c0,0.7-0.5,1.2-1.2,1.2c0,0-0.1,0-0.1,0c-0.1,0-0.3,0-0.4,0
					c-0.4,0-0.5,0.1-0.5,0.1c0,0,0,0.1,0,0.2v12c0,0.2,0,0.3,0,0.4c0.1,0,0.4,0.1,0.9,0.2l2.1,0.2c1.3,0.1,2.4-0.7,3.4-2.5
					c0.3-0.6,1-0.8,1.6-0.5c0.6,0.3,0.9,0.9,0.6,1.6l-1.3,3.4C867.8,2506.2,867.4,2506.4,866.9,2506.4L866.9,2506.4z"/>
			</g>
			<g>
				<path class="st4" d="M861.7,2554.4c0,0-0.1,0-0.1,0l-5.1-0.4c-0.7-0.1-1.2-0.6-1.2-1.3c0-0.7,0.5-1.2,1.2-1.2c0,0,0.1,0,0.1,0
					c0.1,0,0.2,0,0.3,0c0.7,0,0.7-0.2,0.7-0.3v-12c0-0.2,0-0.5-1.1-0.6c-0.7-0.1-1.2-0.6-1.2-1.3c0-0.7,0.5-1.2,1.2-1.2
					c0,0,0.1,0,0.1,0l7.2,0.6c1.3,0.1,2.5,0.6,3.5,1.4c1.3,1,1.9,2.3,1.9,3.9c0,1.6-0.6,2.9-1.7,3.7c-1.1,0.8-2.4,1.2-4,1l-3-0.3
					v4.7c0,0.1,0,0.5,1.1,0.6c0.7,0.1,1.2,0.6,1.2,1.3C862.8,2553.9,862.4,2554.4,861.7,2554.4L861.7,2554.4z M860.6,2544.1l2.9,0.3
					c0.1,0,0.2,0,0.3,0l0,0c0.6,0,1-0.2,1.4-0.6c0.5-0.4,0.7-1.1,0.7-1.9c0-0.7-0.3-1.3-0.8-1.8c-0.5-0.5-1.1-0.8-1.7-0.9l-1.9-0.2
					c-0.3,0-0.6,0-0.8,0c0,0.1,0,0.2,0,0.3V2544.1L860.6,2544.1z"/>
			</g>
			<path class="st5" d="M859.3,2528.7c-0.9,0.8-2,1.8-3,2.9c-4.6,4.6-10.9,10.9-22,10.9l0,0c0,0,0,0-0.1,0c-4,0-7.3-1.9-10.1-5.6
				l1.6-1.5c2.2,3.1,5,5,8.4,5c0,0,0,0,0.1,0c10.2,0,15.8-5.7,20.4-10.2c1.1-1,2.1-2.1,3-2.9c0,0,0.4,0.5,0.8,0.9
				C859,2528.5,859.3,2528.7,859.3,2528.7z"/>
			<g>
				<g>
					<path class="st4" d="M872.9,2505.9c-0.4,0-0.8-0.1-1.1-0.2c-0.5-0.2-1.1-0.7-1.1-1.8c0-1.1,0.8-2.2,2.3-3.2
						c0.8-0.5,1.7-0.9,2.6-1.3l0-0.7c0-0.3-0.1-0.6-0.3-0.8c-0.2-0.3-0.4-0.3-0.7-0.3c-0.4,0.1-0.7,0.2-0.9,0.4
						c-0.2,0.1-0.2,0.3-0.2,0.4c0,0.4-0.1,0.8-0.4,1.1c-0.3,0.3-0.6,0.5-0.9,0.5c-0.3,0.1-0.6,0-0.9-0.2c-0.3-0.2-0.4-0.5-0.4-1
						c0-0.7,0.4-1.3,1.2-1.8c0.7-0.4,1.4-0.7,2.2-0.9c0.2,0,0.3,0,0.5-0.1c0.1,0,0.3,0,0.4,0c1.6,0,2.4,0.8,2.4,2.3l0,4.5
						c0,0.2,0,0.3,0,0.4c0,0,0,0,0,0c0.2-0.1,0.3-0.2,0.5-0.2c0.1,0,0.4,0,0.6,0.4c0.2,0.2,0.3,0.7-0.2,1.1
						c-0.4,0.4-0.9,0.6-1.4,0.7c-0.3,0-0.5,0-0.8-0.1c-0.2-0.1-0.4-0.2-0.6-0.5c-0.8,0.7-1.7,1.1-2.4,1.3
						C873.3,2505.9,873.1,2505.9,872.9,2505.9L872.9,2505.9z M875.6,2501.1c-0.6,0.3-1.1,0.6-1.5,0.9c-0.8,0.6-1.1,1.1-1.1,1.6
						c0,0.3,0.1,0.4,0.5,0.4l0,0c0.1,0,0.1,0,0.2,0c0.6-0.1,1.2-0.5,2-1.3L875.6,2501.1L875.6,2501.1z"/>
				</g>
				<g>
					<path class="st4" d="M881,2504.5L881,2504.5c-0.5,0-0.8-0.3-0.8-0.8l0-10.2c0-0.2,0-0.4,0-0.4c-0.1,0-0.3,0-0.4,0
						c-0.5,0.1-0.8-0.2-0.9-0.7c-0.1-0.4,0.1-0.7,0.5-0.9l1.8-0.9c0.3-0.1,0.5-0.1,0.7,0c0.2,0.1,0.4,0.4,0.4,0.7l0,3.9
						c0.6-0.5,1.2-0.8,2-0.9c1.2-0.2,2.2,0.2,2.9,1.1c0.6,0.8,0.9,1.8,1,3c0,1.4-0.3,2.6-1,3.6c-0.7,1-1.6,1.6-2.7,1.8
						c-0.9,0.1-1.7,0-2.4-0.5l-0.2,0.5C881.6,2504.3,881.3,2504.5,881,2504.5L881,2504.5z M884.4,2496.3c-0.1,0-0.2,0-0.3,0
						c-0.6,0.1-1.1,0.5-1.5,1.1c-0.3,0.5-0.3,0.8-0.3,0.9l0,3c0,0.1,0,0.4,0.5,0.7c0.4,0.3,0.8,0.4,1.3,0.3c0.5-0.1,0.9-0.4,1.2-1
						c0.4-0.6,0.6-1.4,0.6-2.2c0-0.8-0.1-1.5-0.3-2C885.2,2496.4,884.8,2496.3,884.4,2496.3L884.4,2496.3z"/>
				</g>
				<g>
					<path class="st4" d="M892.8,2502.6c-0.9,0-1.7-0.4-2.4-1.1c-0.8-0.8-1.2-1.9-1.2-3.2c0-1.3,0.4-2.4,1.1-3.5
						c0.8-1.1,1.8-1.7,2.9-1.9c1.2-0.2,2.3,0.2,3.1,1.1c0.7,0.8,1.1,1.9,1.1,3.1c0,1.2-0.3,2.4-1,3.4c-0.8,1.1-1.8,1.8-3,2
						C893.3,2502.6,893,2502.6,892.8,2502.6L892.8,2502.6z M893.8,2494.5c-0.1,0-0.2,0-0.3,0c-0.6,0.1-1.1,0.4-1.4,1.1
						c-0.4,0.7-0.6,1.5-0.6,2.6c0,1,0.2,1.8,0.6,2.3c0.3,0.5,0.7,0.6,1.3,0.5c0.6-0.1,1.1-0.5,1.4-1.1c0.4-0.6,0.5-1.5,0.5-2.5
						c0-1-0.2-1.8-0.5-2.3C894.5,2494.7,894.2,2494.5,893.8,2494.5L893.8,2494.5z"/>
				</g>
				<g>
					<path class="st4" d="M899.2,2501.3c-0.3,0-0.4-0.1-0.5-0.2c-0.1-0.1-0.2-0.3-0.2-0.6c0-0.4,0.3-0.7,0.7-0.8l0.3,0
						c0.4-0.1,0.4-0.2,0.4-0.4l0-4.8c0-0.1,0-0.2,0-0.3c-0.1,0-0.3,0-0.5,0.1c-0.1,0-0.1,0-0.2,0c-0.4,0-0.7-0.3-0.7-0.6
						c-0.1-0.4,0.1-0.7,0.5-0.9l1.9-0.9c0.2-0.1,0.5-0.1,0.7,0c0.2,0.1,0.4,0.4,0.4,0.6v0.2c0.8-0.9,1.6-1.4,2.3-1.5
						c0.4-0.1,0.7,0,1,0.2c0.3,0.2,0.5,0.5,0.5,0.9c0,0.4-0.1,0.7-0.4,0.9c-0.2,0.3-0.5,0.4-0.8,0.5c-0.2,0-0.5,0-0.8-0.1
						c-0.2-0.1-0.3-0.1-0.3-0.1c0,0-0.1,0-0.2,0.1c-0.4,0.4-0.9,0.9-1.3,1.7l0,3.7c0,0,0.1,0,0.3,0c0.2,0,0.3,0,0.6-0.1
						c0.6-0.1,0.9,0.2,0.9,0.7c0,0.5-0.3,0.8-0.7,0.9L899.2,2501.3L899.2,2501.3z"/>
				</g>
				<g>
					<path class="st4" d="M908.3,2494.2c-0.1,0-0.4,0-0.6-0.3c-0.2-0.4-0.2-0.8,0.2-1.1c0.6-0.5,0.8-0.8,0.9-1
						c-0.3,0-0.6-0.1-0.9-0.3c-0.3-0.3-0.5-0.7-0.5-1.1c0-0.4,0.2-0.9,0.4-1.2c0.3-0.3,0.7-0.6,1.1-0.6c0.8-0.1,1.4,0.2,1.6,1l0,0.1
						c0.1,0.3,0.1,0.6,0.1,0.9c0,1.4-0.6,2.5-1.9,3.5l-0.1,0.1C908.6,2494.1,908.5,2494.2,908.3,2494.2L908.3,2494.2z"/>
				</g>
				<g>
					<path class="st4" d="M913.8,2499.1c-0.3,0-0.6-0.2-0.7-0.5l-0.8-2c-0.2-0.4,0-0.8,0.4-1c0.4-0.2,0.8-0.2,1.1,0.2
						c0.3,0.5,0.7,0.8,1.2,1.1l0.5,0.2c0.4,0.1,0.7,0.1,1.1,0c0.2,0,0.4-0.2,0.7-0.3c0.3-0.2,0.4-0.5,0.4-0.8c0-0.3-0.1-0.5-0.3-0.6
						c-0.1-0.1-0.5-0.2-1.5-0.3c-1-0.1-1.7-0.3-2.1-0.5c-0.8-0.4-1.2-1.1-1.2-2c0-0.9,0.3-1.6,0.9-2.2c0.5-0.5,1.1-0.8,1.7-0.9
						c0.5-0.1,1.1,0,1.7,0.1c0.1-0.2,0.3-0.4,0.6-0.4c0,0,0.1,0,0.2,0c0.3,0,0.5,0.2,0.6,0.4l0.8,1.8c0.2,0.4,0,0.8-0.3,1
						c-0.4,0.3-0.8,0.2-1.1-0.2c-0.4-0.6-0.9-1-1.6-1.2c-0.2-0.1-0.5-0.1-0.7,0c-0.6,0.1-1,0.5-1,1.2c0,0.2,0,0.3,0.3,0.5
						c0.1,0.1,0.5,0.2,1.5,0.3c1,0.1,1.7,0.2,2.1,0.5c0.8,0.4,1.2,1.1,1.2,2.1c0,0.8-0.3,1.5-0.8,2.1c-0.5,0.6-1.2,1-2,1.1
						c-0.7,0.1-1.4,0.1-2.1-0.2c-0.1,0.3-0.3,0.4-0.6,0.5C913.9,2499.1,913.9,2499.1,913.8,2499.1L913.8,2499.1z"/>
				</g>
			</g>
			<g>
				<g>
					<path class="st4" d="M878,2529.2c-0.4,0-0.8-0.1-1.2-0.3c-0.8-0.4-1.2-1.3-1.2-2.6v-4c0-0.1,0-0.1,0-0.2l-0.3,0
						c-0.5,0.1-0.8-0.2-0.9-0.7c0-0.4,0.1-0.7,0.5-0.9l1.6-0.6c0.3-0.1,0.5-0.1,0.7,0c0.2,0.1,0.4,0.4,0.4,0.7v5.2
						c0,1.5,0.6,1.5,0.8,1.5c0.1,0,0.1,0,0.2,0c0.4-0.1,0.9-0.4,1.5-0.9l0.7-0.7v-4.4c0-0.1,0-0.1,0-0.2c-0.1,0-0.2,0-0.4,0.1
						l-0.2,0c-0.5,0.1-0.8-0.2-0.9-0.6c0-0.4,0.2-0.7,0.6-0.9l1.9-0.7c0.2-0.1,0.5-0.1,0.7,0.1c0.2,0.1,0.3,0.4,0.3,0.6v6.7
						c0,0,0.1,0,0.1,0l0,0c0.1,0,0.2,0,0.3,0c0.1,0,0.1,0,0.2,0c0.4,0,0.7,0.3,0.7,0.8c0,0.5-0.3,0.8-0.7,0.8l-1.7,0.3
						c-0.3,0-0.5,0-0.7-0.2c0-0.1-0.1-0.1-0.1-0.2c-0.8,0.7-1.6,1.1-2.3,1.2C878.4,2529.2,878.2,2529.2,878,2529.2L878,2529.2z"/>
				</g>
				<g>
					<path class="st4" d="M887.4,2527.7c-0.4,0-0.8-0.1-1.1-0.2c-0.5-0.2-1.1-0.7-1.1-1.8c0-1.1,0.8-2.2,2.3-3.2
						c0.8-0.5,1.6-0.9,2.6-1.3v-0.7c0-0.3-0.1-0.6-0.3-0.8c-0.2-0.3-0.4-0.3-0.7-0.3c-0.4,0.1-0.7,0.2-0.9,0.4
						c-0.2,0.1-0.3,0.3-0.3,0.4c0,0.4-0.1,0.8-0.4,1.1c-0.3,0.3-0.6,0.5-0.9,0.5c-0.3,0.1-0.6,0-0.9-0.2c-0.3-0.2-0.4-0.5-0.4-1
						c0-0.7,0.4-1.3,1.2-1.8c0.7-0.4,1.4-0.7,2.2-0.9c0.2,0,0.3,0,0.5-0.1c0.1,0,0.3,0,0.4,0c1.6,0,2.4,0.8,2.4,2.3v4.5
						c0,0.2,0,0.3,0,0.4c0,0,0,0,0,0c0.2-0.1,0.3-0.2,0.5-0.2c0.1,0,0.4,0,0.6,0.4c0.2,0.2,0.3,0.7-0.2,1.1
						c-0.4,0.4-0.9,0.6-1.4,0.7c-0.3,0-0.5,0-0.8-0.1c-0.2-0.1-0.4-0.2-0.6-0.5c-0.8,0.7-1.7,1.1-2.4,1.2
						C887.8,2527.7,887.6,2527.7,887.4,2527.7L887.4,2527.7z M890.1,2522.9c-0.6,0.3-1.1,0.6-1.5,0.9c-0.8,0.6-1.1,1.1-1.1,1.6
						c0,0.3,0.1,0.4,0.5,0.4c0.1,0,0.1,0,0.2,0c0.6-0.1,1.2-0.5,2-1.3V2522.9L890.1,2522.9z"/>
				</g>
				<g>
					<path class="st4" d="M895.3,2526.2c-0.3,0-0.5-0.1-0.5-0.2c-0.1-0.1-0.2-0.3-0.2-0.6c0-0.4,0.3-0.7,0.7-0.8
						c0.3,0,0.4-0.1,0.4-0.5v-8.9c0-0.2,0-0.4,0-0.5c-0.1,0-0.1,0-0.2,0c-0.5,0.1-0.8-0.2-0.9-0.6c-0.1-0.4,0.1-0.7,0.5-0.9l1.6-0.7
						c0.2-0.1,0.5-0.1,0.7,0c0.2,0.1,0.3,0.4,0.3,0.6v10.8c0,0.1,0,0.1,0,0.2c0.1,0,0.2,0,0.4,0c0.6-0.1,0.9,0.2,0.9,0.7
						c0,0.5-0.3,0.8-0.7,0.9L895.3,2526.2L895.3,2526.2z"/>
				</g>
				<g>
					<path class="st4" d="M900.6,2525.3c-0.3,0-0.5-0.1-0.5-0.2c-0.1-0.1-0.2-0.3-0.2-0.6c0-0.4,0.3-0.7,0.7-0.8
						c0.4-0.1,0.4-0.2,0.4-0.4v-4.8c0-0.2,0-0.4,0-0.5c-0.1,0-0.1,0-0.2,0c-0.5,0.1-0.8-0.2-0.9-0.6c-0.1-0.4,0.1-0.7,0.5-0.9
						l1.6-0.7c0.2-0.1,0.5-0.1,0.7,0c0.2,0.1,0.4,0.4,0.4,0.7v6.7c0,0,0,0,0.1,0l0,0c0.1,0,0.2,0,0.2,0c0.6-0.1,0.9,0.2,0.9,0.7
						c0,0.5-0.3,0.8-0.7,0.9L900.6,2525.3L900.6,2525.3z M901.8,2514.4c-0.3,0-0.6-0.1-0.8-0.3c-0.3-0.2-0.4-0.6-0.4-0.9
						c0-0.4,0.1-0.7,0.4-1c0.2-0.3,0.5-0.5,0.9-0.5c0.4-0.1,0.7,0,1,0.3c0.3,0.2,0.4,0.6,0.4,0.9c0,0.4-0.1,0.7-0.4,1
						c-0.2,0.3-0.5,0.5-0.9,0.5C902,2514.4,901.9,2514.4,901.8,2514.4L901.8,2514.4z"/>
				</g>
				<g>
					<path class="st4" d="M907.8,2524.4c-0.1,0-0.2,0-0.3,0c-0.6-0.1-1.5-0.4-1.5-2v-5.3l-0.3,0.1c-0.5,0.1-0.8-0.2-0.9-0.6
						c-0.1-0.4,0.2-0.7,0.6-0.9c0.1,0,0.3-0.1,0.5-0.4c0.4-0.4,0.5-1,0.5-1.8c0-0.5,0.3-0.8,0.7-0.9c0.1,0,0.1,0,0.2,0
						c0.4,0,0.7,0.2,0.7,0.8v1.8l1.7-0.3c0.1,0,0.1,0,0.2,0c0.4,0,0.7,0.3,0.7,0.8c0,0.5-0.3,0.8-0.7,0.9l-1.9,0.3v4.8
						c0,0.6,0.1,0.9,0.3,0.9c0,0,0.1,0,0.1,0c0.2,0,0.4-0.1,0.6-0.3c0.3-0.2,0.4-0.3,0.4-0.4c0.2-0.4,0.5-0.4,0.7-0.4
						c0.1,0,0.2,0,0.4,0.1c0.3,0.1,0.4,0.3,0.4,0.5c0.1,0.2,0,0.4-0.1,0.7c-0.2,0.4-0.6,0.7-1.1,1c-0.5,0.3-1.1,0.5-1.6,0.6
						C908.1,2524.4,908,2524.4,907.8,2524.4L907.8,2524.4z"/>
				</g>
				<g>
					<path class="st4" d="M914.2,2525.6c-0.3,0-0.6-0.1-0.9-0.3c-0.4-0.3-0.5-0.6-0.5-0.9c0-0.7,0.4-1.1,1.1-1.2c0.2,0,0.5,0,1,0.2
						c0.3,0.1,0.4,0.1,0.4,0.1c0,0,0.3-0.1,0.8-1.7l-2.6-5.6c-0.1-0.3-0.2-0.4-0.2-0.4c0,0,0,0-0.1,0c0,0-0.1,0-0.2,0
						c-0.3,0.1-0.5,0-0.7-0.2c-0.1-0.1-0.2-0.3-0.2-0.5c0-0.5,0.3-0.8,0.7-0.9l2.9-0.5c0.5-0.1,0.9,0.2,0.9,0.7
						c0,0.5-0.3,0.8-0.7,0.9c-0.2,0-0.4,0.1-0.4,0.1l1.7,3.6l1.4-3.8c0-0.1,0.1-0.2,0.1-0.3c-0.1,0-0.3,0-0.4,0c-0.1,0-0.1,0-0.2,0
						c-0.4,0-0.7-0.3-0.7-0.8c0-0.5,0.3-0.8,0.7-0.9l2.7-0.4c0.1,0,0.1,0,0.2,0c0.4,0,0.7,0.3,0.7,0.8c0,0.5-0.3,0.8-0.7,0.8l-0.1,0
						c-0.1,0-0.2,0.1-0.3,0.1c-0.1,0.1-0.2,0.3-0.5,1c-2.2,6.4-2.7,7.5-2.9,7.8c-0.3,0.5-0.6,0.8-0.8,1.1c-0.5,0.5-1.1,0.8-1.8,0.9
						C914.5,2525.6,914.4,2525.6,914.2,2525.6L914.2,2525.6z"/>
				</g>
			</g>
			<g>
				<g>
					<path class="st4" d="M869.7,2555c-0.3,0-0.4-0.1-0.5-0.2c-0.1-0.1-0.2-0.3-0.2-0.6c0-0.4,0.3-0.7,0.7-0.8l0.3,0
						c0.4-0.1,0.4-0.2,0.4-0.4v-4.8c0-0.1,0-0.2,0-0.3c-0.1,0-0.2,0-0.5,0.1c-0.5,0.1-0.8-0.2-0.9-0.6c-0.1-0.4,0.1-0.7,0.5-0.9
						l1.8-0.9c0.2-0.1,0.5-0.1,0.7,0c0.2,0.1,0.4,0.4,0.4,0.6v0.2c0.8-0.9,1.5-1.3,2.2-1.5c0.4-0.1,0.7,0,1,0.2
						c0.3,0.2,0.5,0.5,0.5,0.9c0,0.4-0.1,0.7-0.4,0.9c-0.2,0.3-0.5,0.4-0.8,0.5c-0.2,0-0.5,0-0.8-0.1c-0.2-0.1-0.3-0.1-0.3-0.1
						c0,0-0.1,0-0.2,0.1c-0.4,0.4-0.9,0.9-1.3,1.7v3.7c0,0,0.1,0,0.3,0c0.1,0,0.3,0,0.5,0c0.1,0,0.1,0,0.2,0c0.4,0,0.7,0.2,0.7,0.8
						c0,0.5-0.3,0.8-0.7,0.8L869.7,2555L869.7,2555z"/>
				</g>
				<g>
					<path class="st4" d="M879.3,2553.7c-0.9,0-1.7-0.4-2.4-1.1c-0.7-0.8-1.1-1.9-1.1-3.2c0-1.3,0.4-2.4,1.1-3.5
						c0.7-1.1,1.7-1.7,2.8-1.9c1.2-0.2,2.2,0.2,3,1.1c0.7,0.8,1.1,1.9,1.1,3.1c0,1.2-0.3,2.3-1,3.4c-0.8,1.1-1.7,1.8-2.9,2
						C879.7,2553.6,879.5,2553.7,879.3,2553.7L879.3,2553.7z M880.2,2545.6c-0.1,0-0.2,0-0.3,0c-0.6,0.1-1,0.4-1.4,1
						c-0.4,0.7-0.6,1.5-0.6,2.6c0,1,0.2,1.8,0.5,2.3c0.3,0.5,0.7,0.6,1.2,0.5c0.6-0.1,1-0.4,1.4-1.1c0.3-0.6,0.5-1.5,0.5-2.5
						c0-1-0.2-1.8-0.5-2.3C880.9,2545.7,880.6,2545.6,880.2,2545.6L880.2,2545.6z"/>
				</g>
				<g>
					<path class="st4" d="M886.5,2554.8c-0.8,0-1.4-0.1-1.8-0.4c-0.5-0.3-0.8-0.7-0.8-1.3c0-0.6,0.4-1.2,1.2-1.8
						c-0.4-0.3-0.5-0.7-0.5-1c0-0.5,0.3-1,0.8-1.4c-0.6-0.5-0.9-1.3-0.9-2.2c0-1,0.4-1.9,1.1-2.6c0.6-0.6,1.3-1.1,2-1.3
						c0.8-0.2,1.6-0.1,2.3,0.2c0.2-0.2,0.3-0.3,0.4-0.4c0.4-0.3,0.7-0.5,1-0.6c0.6-0.2,1.1,0,1.4,0.4c0.2,0.2,0.2,0.4,0.2,0.7
						c0,0.3-0.1,0.5-0.2,0.8c-0.2,0.3-0.4,0.4-0.6,0.5c-0.2,0.1-0.5,0.1-0.8,0c0.2,0.4,0.3,0.8,0.3,1.3c0,1-0.4,1.8-1.1,2.6
						c-0.7,0.7-1.5,1.1-2.4,1.3c-0.4,0.1-0.8,0.1-1.1,0c0,0,0,0,0,0c0.3,0,0.8,0,1.4,0c1.2-0.1,1.9,0,2.4,0.1c1,0.2,1.5,0.8,1.5,1.7
						c0,0.7-0.4,1.4-1.1,2c-0.7,0.6-1.7,1-3,1.2c-0.4,0.1-0.6,0.1-0.7,0.1C887.2,2554.8,886.8,2554.8,886.5,2554.8L886.5,2554.8z
						 M887.8,2551.7c-0.2,0.1-0.4,0.2-0.7,0.3c-0.9,0.4-1.1,0.8-1.1,0.9c0,0.2,0.6,0.3,0.8,0.3c0.2,0,0.4,0,0.6,0
						c0.3,0,0.5,0,0.7-0.1c1-0.2,2.2-0.5,2.2-1.2c0-0.1-0.2-0.1-0.4-0.2c-0.3,0-1,0-1.9,0L887.8,2551.7L887.8,2551.7z M888.3,2544.3
						L888.3,2544.3c-0.1,0-0.2,0-0.2,0c-0.3,0.1-0.6,0.2-0.9,0.6c-0.3,0.4-0.5,0.9-0.5,1.6c0,1.6,0.7,1.6,1,1.6l0,0c0,0,0.1,0,0.1,0
						c0.1,0,0.1,0,0.2,0c0.4-0.1,0.8-0.3,1.1-0.7c0.3-0.4,0.4-0.9,0.4-1.4c0-0.5-0.1-0.9-0.4-1.2
						C888.9,2544.4,888.6,2544.3,888.3,2544.3L888.3,2544.3z"/>
				</g>
				<g>
					<path class="st4" d="M894.4,2551c-0.3,0-0.4-0.1-0.5-0.2c-0.1-0.1-0.2-0.3-0.2-0.6c0-0.4,0.3-0.7,0.7-0.8l0.3,0
						c0.4-0.1,0.4-0.2,0.4-0.4v-4.8c0-0.1,0-0.2,0-0.3c-0.1,0-0.2,0-0.5,0.1c-0.5,0.1-0.8-0.2-0.9-0.6c-0.1-0.4,0.1-0.7,0.5-0.9
						l1.8-0.9c0.2-0.1,0.5-0.1,0.7,0c0.2,0.1,0.4,0.4,0.4,0.6v0.2c0.8-0.9,1.5-1.3,2.2-1.5c0.4-0.1,0.7,0,1,0.2
						c0.3,0.2,0.5,0.5,0.5,0.9c0,0.4-0.1,0.7-0.4,0.9c-0.2,0.3-0.5,0.4-0.8,0.5c-0.2,0-0.5,0-0.8-0.1c-0.2-0.1-0.3-0.1-0.3-0.1
						c0,0-0.1,0-0.2,0.1c-0.4,0.4-0.9,0.9-1.3,1.7v3.7c0,0,0.1,0,0.3,0c0.1,0,0.3,0,0.5-0.1c0.1,0,0.1,0,0.2,0
						c0.4,0,0.7,0.2,0.7,0.8c0,0.5-0.3,0.8-0.7,0.8L894.4,2551L894.4,2551z"/>
				</g>
				<g>
					<path class="st4" d="M903.3,2549.7c-0.4,0-0.8-0.1-1.1-0.3c-0.5-0.2-1-0.7-1-1.8c0-1.1,0.7-2.2,2.2-3.1
						c0.7-0.5,1.6-0.9,2.5-1.3v-0.7c0-0.3-0.1-0.6-0.2-0.8c-0.2-0.2-0.4-0.3-0.7-0.3c-0.4,0.1-0.6,0.2-0.8,0.3
						c-0.1,0.1-0.2,0.2-0.2,0.4c0,0.4-0.1,0.8-0.4,1.1c-0.2,0.3-0.5,0.5-0.9,0.5c-0.3,0.1-0.6,0-0.8-0.2c-0.3-0.2-0.4-0.5-0.4-1
						c0-0.7,0.4-1.3,1.2-1.8c0.7-0.4,1.4-0.7,2.1-0.9c0.2,0,0.3,0,0.5-0.1c0.1,0,0.3,0,0.4,0c1.5,0,2.4,0.8,2.4,2.4v4.5
						c0,0.2,0,0.3,0,0.4c0,0,0,0,0,0c0.2-0.1,0.3-0.2,0.5-0.2c0.1,0,0.4,0,0.6,0.4c0.2,0.3,0.2,0.8-0.2,1.1
						c-0.4,0.4-0.9,0.6-1.3,0.7c-0.3,0-0.5,0-0.8-0.1c-0.2-0.1-0.4-0.2-0.6-0.5c-0.8,0.7-1.6,1.1-2.3,1.2
						C903.6,2549.7,903.5,2549.7,903.3,2549.7L903.3,2549.7z M905.9,2545c-0.5,0.3-1,0.6-1.5,0.9c-0.7,0.6-1.1,1.1-1.1,1.6
						c0,0.3,0.1,0.4,0.5,0.4c0.1,0,0.1,0,0.2,0c0.5-0.1,1.2-0.5,1.9-1.3V2545L905.9,2545z"/>
				</g>
				<g>
					<path class="st4" d="M910.1,2548.4c-0.2,0-0.4-0.1-0.5-0.2c-0.1-0.2-0.2-0.4-0.2-0.6c0-0.4,0.3-0.7,0.7-0.8
						c0.3,0,0.3-0.1,0.3-0.1c0,0,0-0.1,0-0.3v-4.7c0-0.2,0-0.4,0-0.5c-0.1,0-0.1,0-0.2,0c-0.5,0.1-0.8-0.2-0.9-0.7
						c0-0.4,0.1-0.7,0.5-0.9l1.5-0.7c0.2-0.1,0.5-0.1,0.7,0c0.2,0.1,0.3,0.3,0.3,0.4c0.1-0.1,0.2-0.1,0.3-0.2
						c0.6-0.5,1.1-0.7,1.5-0.8c0.5-0.1,1-0.1,1.3,0c0.5,0.1,0.9,0.4,1.2,0.8c0.5-0.5,0.9-0.9,1.3-1.1c0.4-0.3,0.8-0.4,1.2-0.5
						c0.5-0.1,1,0,1.5,0.2c0.6,0.3,1.2,0.9,1.2,2.3v4.6c0,0.1,0,0.1,0,0.1c0.1,0,0.2,0,0.3,0c0.5-0.1,0.8,0.2,0.9,0.7
						c0,0.5-0.2,0.8-0.7,0.9l-2.9,0.5c-0.3,0-0.5,0-0.7-0.2c-0.1-0.1-0.2-0.3-0.2-0.5c0-0.5,0.3-0.8,0.7-0.9c0.3,0,0.4-0.1,0.5-0.1
						c0,0,0,0,0-0.1v-4.1c0-1.5-0.5-1.5-0.7-1.5c-0.1,0-0.1,0-0.2,0c-0.3,0.1-0.9,0.4-1.7,1.5v4.6c0.1,0,0.2,0,0.4,0
						c0.5-0.1,0.8,0.2,0.9,0.7c0,0.4-0.2,0.7-0.6,0.9l-0.1,0l-3.1,0.5c-0.3,0.1-0.5,0-0.7-0.2c-0.1-0.1-0.2-0.3-0.2-0.5
						c0-0.5,0.3-0.8,0.7-0.8c0.3-0.1,0.5-0.1,0.5-0.1c0,0,0-0.2,0-0.4v-3.7c0-1.5-0.5-1.5-0.7-1.5c-0.1,0-0.1,0-0.2,0
						c-0.2,0-0.6,0.2-1.1,0.7c-0.3,0.2-0.5,0.5-0.6,0.7v4.6c0,0,0,0.1,0,0.1c0.1,0,0.2,0,0.3,0c0.1,0,0.1,0,0.2,0
						c0.4,0,0.7,0.2,0.7,0.8c0,0.5-0.3,0.8-0.7,0.8l-2.8,0.5C910.2,2548.4,910.2,2548.4,910.1,2548.4L910.1,2548.4z"/>
				</g>
			</g>
			<path class="st5" d="M809.8,2478.8c-1.2-1.9-2.6-3-4.5-3c0,0-0.1,0-0.1,0c-1.6,0-2.9,0.6-3.9,1.6c-1.3,1.4-1.5,3.1-1.5,4l2.3-0.6
				c0.1-0.6,0.4-1.4,0.9-1.9c0.5-0.6,1.3-0.9,2.3-0.9c0,0,0,0,0,0c0.8,0,1.6,0.5,2.3,1.4"/>
			<path class="st4" d="M871.2,2521.8c0,5.2-3.6,9-7.9,8.6c-4.4-0.4-7.9-5-7.9-10.1c0-5.2,3.6-9,7.9-8.6
				C867.7,2512.1,871.2,2516.7,871.2,2521.8z M863.3,2514.3c-2.5-0.2-4.5,2.6-4.5,6.3c0,3.7,2,6.9,4.5,7.2c2.5,0.2,4.5-2.6,4.5-6.3
				C867.8,2517.8,865.8,2514.5,863.3,2514.3z"/>
			<path class="st5" d="M861.6,2527.2c0.5-0.2,0.9-0.3,1.4-0.3c2.5,0,3.1,1.2,3.9,2.8c0.7,1.3,1.5,2.9,3.7,2.9
				c1.5,0,2.3-0.6,2.8-1.2c1.3-1.5,1-3.9,1-4.2c-0.1-0.6-0.6-1-1.2-0.9c-0.6,0.1-1,0.6-0.9,1.2c0.1,0.4,0.1,1.8-0.5,2.4
				c-0.2,0.2-0.4,0.4-1.1,0.4c-0.8,0-1-0.4-1.7-1.7c-0.8-1.6-2-4-5.9-4c-1,0-1.9,0.3-2.9,0.8c0,0,0.4,0.6,0.7,0.9
				C861.3,2527,861.6,2527.2,861.6,2527.2z"/>
		</g>
		<path class="st0" d="M800.8,2483v63.7l21-10.3c0,0,1.6-0.7,2.9-4.3c1.3-3.6,1.4-8.2,1.4-9.2c0-0.9,0-2.1,0-2.7
			c0-0.7-0.4-1.3,1.7-1.5c2.1-0.3,3.5-0.4,6.9-1.1c3.4-0.7,6.4-1.4,7.2-2.2c0.8-0.8,1.2-2.2,1.2-6.2c0-4,0-37,0-37L800.8,2483z"/>
		<path class="st0" d="M826.8,2531.5l12.1-12.9c0,0-3.5,0.8-5.7,1.2c-2.2,0.4-5.2,0.8-5.2,0.8s0.1,3.6-0.2,5.8
			C827.4,2528.7,826.8,2531.5,826.8,2531.5z"/>
	</g>
</g>
</svg>
