<?xml version="1.0" encoding="UTF-8"?><svg id="_イヤー_2" xmlns="http://www.w3.org/2000/svg" viewBox="0 0 168.68 137.09"><defs><style>.cls-1{fill:#1d9bf0;}</style></defs><g id="Content"><path class="cls-1" d="M53.05,137.09c63.65,0,98.47-52.74,98.47-98.47,0-1.5-.03-2.99-.1-4.47,6.76-4.88,12.63-10.98,17.26-17.92-6.2,2.75-12.87,4.61-19.87,5.45,7.14-4.28,12.63-11.06,15.22-19.14-6.69,3.97-14.09,6.85-21.97,8.4-6.32-6.73-15.31-10.93-25.26-10.93-19.11,0-34.61,15.5-34.61,34.6,0,2.72,.3,5.36,.9,7.89C54.31,41.05,28.81,27.28,11.74,6.34c-2.97,5.11-4.69,11.06-4.69,17.39,0,12.01,6.11,22.61,15.4,28.81-5.68-.17-11.01-1.74-15.67-4.33,0,.14,0,.29,0,.44,0,16.76,11.93,30.75,27.76,33.93-2.91,.79-5.96,1.22-9.12,1.22-2.23,0-4.4-.22-6.51-.62,4.41,13.75,17.18,23.75,32.33,24.04-11.85,9.28-26.77,14.81-42.98,14.81-2.79,0-5.55-.16-8.26-.48,15.32,9.81,33.5,15.54,53.05,15.54"/></g></svg>