<svg id="main_ttl" xmlns="http://www.w3.org/2000/svg" xmlns:xlink="http://www.w3.org/1999/xlink" width="807.207" height="188" viewBox="0 0 807.207 188">
  <defs>
    <clipPath id="clip-path">
      <rect id="Rectangle_9" data-name="Rectangle 9" width="807.207" height="188" fill="none"/>
    </clipPath>
  </defs>
  <g id="Group_7" data-name="Group 7" clip-path="url(#clip-path)">
    <path id="Path_81" data-name="Path 81" d="M25.142,65.661c-1.9-1.47-3.716-2.939-5.444-4.493a99.686,99.686,0,0,1-9.5,4.147A76.84,76.84,0,0,0,2.16,57.452c9.5-2.591,18.747-6.911,24.623-12.354-3.2-1.122-4.32-3.282-4.665-7.084a33.03,33.03,0,0,1-9.849,10.971L4.147,42.333A25.048,25.048,0,0,0,12.355,34.9H1.728V19.266H15.291a54.335,54.335,0,0,0-3.628-6.135l-5.616.087A35.359,35.359,0,0,0,3.716,4.579C24.277,4.234,47.863,2.765,61.686,0l7.947,7.863c-3.022.6-6.393,1.209-9.849,1.728l6.826,2.073c-1.9,2.679-3.8,5.357-5.617,7.6H73.435V36.373H65.746A31.745,31.745,0,0,1,70.411,41.9l-8.466,6.392a44.437,44.437,0,0,0-7.862-9.071c-1.124,5.27-3.889,6.739-10.022,6.739H39.569A27.62,27.62,0,0,1,36.978,48.9H52.7l1.9-.346,7.516,4.666A40.671,40.671,0,0,1,50.541,65.315a156,156,0,0,0,25.4,2.678,45.4,45.4,0,0,0-6.912,10.714c-12.008-.952-22.721-3.025-31.707-6.568-9.244,3.455-19.871,5.53-31.1,6.741A41.045,41.045,0,0,0,0,69.029a143.975,143.975,0,0,0,25.142-3.368M14.774,31.016l7.257,3.2V31.274H32.138c-.949-.516-1.9-.862-2.851-1.3l1.641-1.641H13.045v5.7a27.065,27.065,0,0,0,1.728-3.024M23.586,12.7a22.018,22.018,0,0,1,2.937,5.614l-2.332.951h9.158a48.468,48.468,0,0,0-3.2-6.911c-2.245.173-4.4.259-6.565.346M37.322,61.426a34.853,34.853,0,0,0,7.43-4.578H28.942a38.414,38.414,0,0,0,8.381,4.578M33,35.767c0,1.987.519,2.16,3.024,2.16h6.652c1.814,0,2.333-.519,2.679-3.025a27.431,27.431,0,0,0,6.911,2.679c-.951-.949-1.987-1.814-2.938-2.592l7.862-5.7c1.47,1.038,2.938,2.16,4.32,3.285V28.337H43.8c1.124.692,2.16,1.468,3.025,2.074l-5.962,6.565A39.856,39.856,0,0,0,33,31.793Zm16.328-16.5a61.027,61.027,0,0,0,4.492-8.9q-6.09.776-12.439,1.3A24.536,24.536,0,0,1,44.061,17.8l-3.974,1.468Z" transform="translate(0 0)"/>
    <path id="Path_82" data-name="Path 82" d="M93.573,60.881a55.282,55.282,0,0,0,7.947-1.468c10.455-2.592,17.366-9.849,17.366-20.562,0-10.625-5.1-18.142-14.514-20.3-2.42,14.082-9.331,48.641-26.7,48.641-10.108,0-17.8-10.972-17.8-24.969,0-19.439,16.76-35.94,38.617-35.94,20.821,0,34.04,14.342,34.04,33,0,17.106-10.195,29.805-31.448,33.348Zm-2.679-42.16C78.8,22.09,72.751,33.061,72.751,40.924c0,7.084,2.419,10.8,5.27,10.8,6.912,0,12.009-27.04,12.872-33" transform="translate(21.678 2.274)"/>
    <path id="Path_83" data-name="Path 83" d="M174.275,24.7c-.346.865-.864,2.333-1.468,3.8,9.244,3.284,15.637,10.628,15.637,20.389,0,11.489-6.393,23.327-27.042,26.351l-6.478-10.282c16.327-1.813,21.252-10.022,21.252-16.674,0-4.146-2.247-7.776-6.739-9.85-4.406,10.714-10.711,18.923-16.588,23.759.606,1.986,1.125,3.889,1.814,5.789l-11.4,3.368a20.765,20.765,0,0,1-.864-2.762,29.823,29.823,0,0,1-12.008,2.762c-6.395,0-11.839-3.8-11.839-12.871,0-10.455,8.469-21.6,19.958-27.127.173-3.109.346-6.222.692-9.244h-1.3c-4.751,0-11.144-.346-15.206-.519l-.346-11.32a131.411,131.411,0,0,0,15.983,1.126h1.987l.346-3.285c.087-1.554.259-3.8.173-5.444l12.872.347a37.173,37.173,0,0,0-1.9,8.122,130.5,130.5,0,0,0,27.13-3.541l.084,11.317a233.077,233.077,0,0,1-28.854,2.935c-.173,1.989-.26,3.89-.432,5.877a54.877,54.877,0,0,1,11.4-1.211h.43a42.06,42.06,0,0,0,.691-4.578ZM139.891,57.439a118.8,118.8,0,0,1-1.468-14.169c-5.1,3.8-8.206,8.985-8.206,12.527,0,2.246.862,3.544,3.2,3.544a15.377,15.377,0,0,0,6.479-1.9m18.489-20.823a38.4,38.4,0,0,0-8.985,1.47c.086,4.146.346,7.776.691,11.145a45.041,45.041,0,0,0,8.295-12.615" transform="translate(42.918 0.964)"/>
    <path id="Path_84" data-name="Path 84" d="M233.385,12.976c-2.074,1.3-4.147,2.591-6.222,3.973-4.665,3.111-11.836,8.985-16.328,12.442a26.342,26.342,0,0,1,5.7-.519c14.083,0,25.142,9.071,25.142,21.339,0,12.785-9.244,23.931-30.411,23.931-11.577,0-21.166-5.357-21.166-14.341,0-7.171,6.652-13.909,15.9-13.909,10.022,0,16.415,5.789,17.883,13.563a10.89,10.89,0,0,0,4.752-9.417c0-7-7.171-11.4-16.156-11.4-12.009,0-20.561,7.17-28.424,16.76l-8.984-9.33c5.27-4.062,14.773-12.183,19.612-16.156,4.578-3.8,12.181-9.676,16.068-13.22-4.06.087-12.527.433-16.933.779a60.514,60.514,0,0,0-7.344.692l-.345-12.787a64.943,64.943,0,0,0,8.293.518c4.406,0,20.734-.26,25.659-.691a63.265,63.265,0,0,0,7.257-.951ZM212.477,62.739c-.432-4.493-2.938-7.43-6.393-7.43-2.678,0-4.233,1.641-4.233,3.282,0,2.5,2.765,4.319,6.911,4.319,1.3,0,2.506-.087,3.716-.172" transform="translate(63.379 1.539)"/>
    <path id="Path_85" data-name="Path 85" d="M237,26.448H288.38a52.7,52.7,0,0,0,7.8-.6V38.8c-2.134-.172-5.417-.259-7.8-.259H270.816c-1.066,15.637-7.3,29.461-21.091,36.8l-11.162-8.468a32.646,32.646,0,0,0,13.869-11.4c3.119-4.751,4.6-10.454,5.089-16.933H237c-2.3,0-5.745.172-7.879.345V25.843a59.337,59.337,0,0,0,7.879.6M238.07,4.5a65.649,65.649,0,0,0,9.109.692h31.434a65.668,65.668,0,0,0,9.111-.692V17.376c-2.956-.173-6.156-.346-9.111-.346H247.179c-2.708,0-6.483.173-9.109.346Z" transform="translate(82.948 1.631)"/>
    <path id="Path_86" data-name="Path 86" d="M351.647,19.158a36.758,36.758,0,0,0-3.119,6.825c-7.468,24.969-22.405,40.951-45.385,50.885L291.817,66.242C308.806,60.8,316.932,53.8,323.58,45.94c5.005-5.789,9.356-15.29,10.422-20.648H314.469A102.159,102.159,0,0,1,294.69,45.076L284.021,36.7C297.89,27.71,304.21,17.776,308.4,10.863a48.352,48.352,0,0,0,4.185-9.847l13.869,4.751c-1.8,2.679-3.692,6.047-4.842,8.208h12.64a30.456,30.456,0,0,0,7.714-1.036Z" transform="translate(102.822 0.368)"/>
    <path id="Path_87" data-name="Path 87" d="M388.737,18.528c-3.447,9.849-8.782,22.462-15.019,30.5C367.234,57.4,356.483,68.033,343.844,73.3L333.01,61.553a68.305,68.305,0,0,0,29.875-21.339c7.714-9.5,12.721-24.191,14.854-36.027l14.937,4.06a75.556,75.556,0,0,0-3.939,10.281" transform="translate(120.557 1.516)"/>
    <path id="Path_88" data-name="Path 88" d="M387.063,69.718s.247-7.949.247-12.439V17.106c0-2.679,0-6.481-.163-8.987,3.2.086,6.728.173,9.026.173h43.744c2.136,0,5.088,0,8.289-.087-.163,2.679-.163,6.135-.163,8.9V57.451c0,3.541.163,12.266.163,12.266H434.993l.165-4.406H400.194v4.406Zm48.176-48.639H400.113V52.526h35.127Z" transform="translate(140.126 2.939)"/>
    <path id="Path_89" data-name="Path 89" d="M467.7,34.825l-6.976,11.231C455.963,42.6,448,37.157,442.5,33.962L449.4,22.9a200.913,200.913,0,0,1,18.3,11.922m4.76,18.4c13.46-7.862,24.785-19.525,30.941-31.361l7.3,13.65c-7.468,11.663-18.713,22.031-31.762,29.894-7.961,4.664-19.533,8.984-26.263,10.108L445.538,62.3c8.864-1.555,18.056-4.062,26.92-9.072m7.551-37.408L472.95,26.876c-4.76-3.282-12.721-8.639-18.22-11.922L461.625,3.9c5.5,3.2,13.87,8.725,18.385,11.922M503.071,18.5l-8.124,3.628a66.946,66.946,0,0,0-6.813-12.958l7.879-3.455A142.021,142.021,0,0,1,503.071,18.5M514.4,13.918l-7.961,3.714a76.118,76.118,0,0,0-7.3-12.441l7.962-3.543a115.222,115.222,0,0,1,7.3,12.269" transform="translate(160.196 0.597)"/>
    <path id="Path_90" data-name="Path 90" d="M499.447,22.836c3.118.257,9.766.6,13.623.6h41.611c3.529,0,7.386-.432,9.684-.6V38.645c-2.053-.086-6.485-.518-9.684-.518H513.07c-4.514,0-10.422.259-13.623.518Z" transform="translate(180.811 8.267)"/>
    <path id="Path_91" data-name="Path 91" d="M560.38,23.837c5.514-.5,14.537-1.19,25.377-2.129,5.953-.5,12.908-.879,17.231-1.065l.063,9.273c-3.07,0-8.084,0-11.34.689-6.456,1.442-11.968,8.4-11.968,15.415,0,8.709,8.208,12.155,18.484,12.719l-3.385,10.027c-13.221-1-24.563-8.21-24.563-20.868A24.081,24.081,0,0,1,577.8,30.6c-5.139.564-15.539,1.754-22.683,3.322l-.877-9.775c2.381-.063,4.951-.188,6.141-.315m39.1,19.051-5.326,2.318A48.467,48.467,0,0,0,589.579,37l5.2-2.13a75.9,75.9,0,0,1,4.7,8.021m7.08-3.134-5.326,2.507A46.192,46.192,0,0,0,596.41,34.3l5.138-2.318c1.566,2.129,3.759,5.639,5.012,7.769" transform="translate(200.647 7.473)"/>
    <path id="Path_92" data-name="Path 92" d="M17.167,99.49c0,5.357,0,10.712.518,16.156.951,10.714,2.679,18.229,7.344,18.229,3.8,0,6.652-10.195,7.863-15.725l10.02,12.183c-5.7,14.514-10.971,19.61-18.142,19.61-20.993,0-20.907-37.5-20.907-52.96a53.176,53.176,0,0,0-.692-8.814l15.206.173A72.474,72.474,0,0,0,17.167,99.49M73.5,132.579l-13.133,5.012c-1.122-12.269-5.1-33.176-14.687-43.544L58.291,89.9c8.035,9.416,14.6,30.843,15.206,42.678" transform="translate(1.148 31.92)" fill="#4a82aa"/>
    <path id="Path_93" data-name="Path 93" d="M74.953,99.49c0,5.357,0,10.712.518,16.156.951,10.714,2.679,18.229,7.344,18.229,3.8,0,6.652-10.195,7.863-15.725l10.02,12.183c-5.7,14.514-10.971,19.61-18.142,19.61-20.993,0-20.907-37.5-20.907-52.96a53.176,53.176,0,0,0-.692-8.814l15.206.173A72.473,72.473,0,0,0,74.953,99.49m56.329,33.089-13.133,5.012c-1.122-12.269-5.1-33.176-14.687-43.544L116.077,89.9c8.035,9.416,14.6,30.843,15.206,42.678" transform="translate(22.068 31.92)" fill="#4a82aa"/>
    <path id="Path_94" data-name="Path 94" d="M136.168,80.308l11.577,3.714a131.618,131.618,0,0,1-8.122,16.934v57.539H127.7V118.322c-1.641,1.9-3.282,3.714-4.925,5.357a84.813,84.813,0,0,0-6.825-12.442c8.035-7.344,15.725-19.179,20.216-30.929m6.22,35.854V104.585h21.08V81.949h12.355v22.635h19.439v11.577H175.824v27.992h17.969v11.489H144.635V144.154h18.834V116.162Z" transform="translate(41.977 29.073)" fill="#4a82aa"/>
    <path id="Path_95" data-name="Path 95" d="M177.734,135.881V126.9h32.138V124.65H186.288V116.7h23.585v-2.5H188.1V96.745h21.771v-2.5H179.721V84.91h30.151V80.244H222.14V84.91h30.843v9.33H222.14v2.5h22.808V114.2H222.14v2.5h24.278V126.9h8.638v8.984h-8.638v14.342H234.149v-3.37H222.14v1.038c0,5.443-1.209,7.687-4.838,9.416-3.541,1.47-8.035,1.643-15.118,1.643a34.956,34.956,0,0,0-3.887-9.244c3.368.173,8.206.173,9.589.173,1.555-.087,1.987-.6,1.987-1.987v-1.038H185.681v-8.466h24.191v-2.506Zm21.858-29.027h10.281v-2.765H199.592Zm22.548,0h10.454v-2.765H222.14Zm0,20.044h12.009v-2.246H222.14Zm12.009,8.984H222.14v2.506h12.009Z" transform="translate(64.344 29.05)" fill="#4a82aa"/>
    <path id="Path_96" data-name="Path 96" d="M266.456,138.21c.125-1.5.251-3.759.313-5.952-3.7,2.13-5.327,4.072-5.327,6.453,0,2.507,1.818,3.573,7.394,3.573a89.121,89.121,0,0,0,17.295-1.881l-.313,9.274a154.441,154.441,0,0,1-17.107,1c-9.775,0-16.792-2.506-16.792-10.4,0-7.708,7.08-12.72,13.66-16.167a4.679,4.679,0,0,0-3.259-1.19c-3.07,0-6.7,1.942-8.709,3.949a67.261,67.261,0,0,0-5.513,6.7l-7.708-5.765c5.639-4.95,9.837-9.837,12.72-15.287-2.443,0-6.768-.127-9.9-.377v-8.334a84.517,84.517,0,0,0,10.652.691h2.381a37.274,37.274,0,0,0,1-6.455l9.462.752c-.251,1.316-.689,3.2-1.316,5.451a142.782,142.782,0,0,0,15.978-1.692l-.063,8.334c-5.576.689-12.783,1.253-19.173,1.5a36.086,36.086,0,0,1-2.257,4.136,32.414,32.414,0,0,1,5.891-.564,8.652,8.652,0,0,1,7.9,4.2c2.381-1.128,4.323-1.942,6.391-2.882,2.569-1.128,5.014-2.256,7.582-3.509l3.509,8.27a151.648,151.648,0,0,0-16.354,6.265c.063,3.2.188,7.206.251,9.9Z" transform="translate(87.027 35.495)"/>
    <path id="Path_97" data-name="Path 97" d="M280.224,147.027c10.368-1.208,19.785-3.2,27.992-6.478a65.58,65.58,0,0,1-12.182-15.985l8.724-2.937H288v-11.75H313.14v-7.862H283.765V90.094H313.14v-9.85h12.528v9.85h29.545v11.922H325.668v7.862h13.389l2.076-.432L349.6,114.2a59.184,59.184,0,0,1-18.229,26.523c7.774,3.2,17.02,5.271,27.818,6.306a55.606,55.606,0,0,0-7.687,11.837c-13.046-1.814-23.675-5.185-32.4-10.195-9.5,5.01-20.475,8.12-32.311,10.022a47.409,47.409,0,0,0-6.565-11.664m27.646-25.4A42.491,42.491,0,0,0,319.879,134.5a40.9,40.9,0,0,0,12.355-12.872Z" transform="translate(101.447 29.05)"/>
    <path id="Path_98" data-name="Path 98" d="M341.942,123.591c2.592-.519,5.7-1.211,8.985-1.987v-15.29h-7.69V95.341h7.69V80.307h11.058V95.341h6.565v10.972h-6.565v12.611l5.874-1.468,1.554,10.712c-2.5.692-5.01,1.384-7.428,2.074v16.069c0,5.272-.864,8.295-3.716,10.109-2.764,1.9-6.565,2.333-12.009,2.333a39.781,39.781,0,0,0-3.024-11.145c1.555.086,3.2.173,4.406.173.864,0,1.555-.087,1.987-.087,1.036,0,1.3-.259,1.3-1.382V133.181l-7.344,1.986Zm37.062.518H369.76V114.52h10.455l.173-2.245H371.4v-9.333h4.32c-.6-2.332-1.727-5.614-2.506-7.949l7.258-1.986c-2.851.086-5.616.172-8.38.172a32.759,32.759,0,0,0-2.592-8.9c14.774-.345,31.361-1.64,41.988-3.8l6.652,8.812q-4.536.778-9.59,1.557l8.293,2.33c-2.16,3.371-4.319,6.828-6.306,9.763h6.566v9.333H391.878l-.173,2.245H419.7v9.589H390.5l-.346,1.987H407.6l1.9-.257,6.479,2.5a41.4,41.4,0,0,1-8.554,17.107,68.782,68.782,0,0,0,14.515,3.543,41.059,41.059,0,0,0-7,9.763,63.317,63.317,0,0,1-16.415-5.7,56.02,56.02,0,0,1-14.342,5.789,44.943,44.943,0,0,0-5.355-7.776,48.9,48.9,0,0,1-8.639,7.344,28.881,28.881,0,0,0-7.6-8.639c10.625-6.393,14.6-15.812,16.414-25.661m10.368,22.377a44.462,44.462,0,0,1-4.406-4.579,40.12,40.12,0,0,1-4.838,7.6,48.266,48.266,0,0,0,9.244-3.024m-.691-43.543a81.486,81.486,0,0,0-1.382-9.33l8.466-1.468c-4.492.345-8.985.606-13.391.778,1.124,2.764,2.506,6.479,3.284,8.812l-3.974,1.208Zm2.851,31.707A31.559,31.559,0,0,0,398.1,140.7a26.847,26.847,0,0,0,4.665-6.047Zm8.639-31.707a76.349,76.349,0,0,0,5.357-11.75c-2.938.347-5.962.6-8.985.866a84.572,84.572,0,0,1,2.073,9.59l-6.306,1.294Z" transform="translate(123.791 29.073)"/>
    <path id="Path_99" data-name="Path 99" d="M454.682,113.388c-3.51-.187-9.086-.312-16.606-.375.063,2.819.063,5.827.063,8.27a15.444,15.444,0,0,1,2.318,8.585c0,7.581-4.887,17.857-19.738,21.869l-7.644-7.645c5.2-1,10.151-2.443,13.6-5.2a5.732,5.732,0,0,1-1.065.063,11.01,11.01,0,0,1-10.527-11.4c0-7.142,5.765-11.53,12.659-11.53a12.064,12.064,0,0,1,1.5.063l-.063-3.007c-8.961.125-17.67.5-24.937.814l-.252-8.585h2.381c6.768,0,15.791-.188,22.683-.313l-.063-.689c-.188-2.256-.439-4.763-.688-5.891h10.4c-.188,1.128-.439,4.763-.5,5.828v.689c4.386,0,10.4-.063,14.225-.063h2.381Zm-27.2,17.671c1.942,0,3.886-1.378,3.259-5.952a4.015,4.015,0,0,0-3.259-1.568,3.59,3.59,0,0,0-3.759,3.823,3.754,3.754,0,0,0,3.759,3.7" transform="translate(146.253 35.628)"/>
    <path id="Path_100" data-name="Path 100" d="M483.085,105.8c-1.5.938-3.007,1.88-4.512,2.882-3.383,2.256-8.583,6.516-11.841,9.023a19.149,19.149,0,0,1,4.135-.376c10.214,0,18.235,6.579,18.235,15.477,0,9.274-6.705,17.356-22.058,17.356-8.4,0-15.351-3.884-15.351-10.4,0-5.2,4.826-10.09,11.529-10.09,7.269,0,11.905,4.2,12.971,9.839a7.9,7.9,0,0,0,3.447-6.831c0-5.075-5.2-8.272-11.718-8.272-8.711,0-14.913,5.2-20.616,12.156l-6.517-6.767c3.823-2.945,10.715-8.835,14.224-11.717,3.322-2.758,8.837-7.019,11.655-9.587-2.945.063-9.085.313-12.281.564a44.024,44.024,0,0,0-5.326.5l-.251-9.274a46.73,46.73,0,0,0,6.016.377c3.194,0,15.038-.188,18.609-.5a45.437,45.437,0,0,0,5.263-.689Zm-15.163,36.092c-.313-3.259-2.13-5.39-4.636-5.39-1.944,0-3.071,1.19-3.071,2.382,0,1.817,2,3.133,5.012,3.133.941,0,1.817-.063,2.7-.125" transform="translate(159.576 36.011)"/>
  </g>
</svg>
