<svg xmlns="http://www.w3.org/2000/svg" width="674.099" height="157" viewBox="0 0 674.099 157">
  <g id="ttl" transform="translate(0 0.001)">
    <g id="Group_8552" data-name="Group 8552" transform="translate(0 -0.001)">
      <g id="Group_8551" data-name="Group 8551" transform="translate(67.673 91.244)">
        <path id="Path_92" data-name="Path 92" d="M14.864,97.628c0,4.475,0,8.95.432,13.5.794,8.951,2.238,15.23,6.136,15.23,3.176,0,5.558-8.517,6.569-13.137L36.373,123.4c-4.763,12.126-9.166,16.384-15.157,16.384-17.539,0-17.467-31.326-17.467-44.246a44.427,44.427,0,0,0-.578-7.363l12.7.145a60.549,60.549,0,0,0-1.01,9.312m47.061,27.645L50.953,129.46c-.938-10.25-4.258-27.717-12.27-36.379l10.538-3.464c6.713,7.866,12.2,25.768,12.7,35.656" transform="translate(-3.171 -79.151)" fill="#4a82aa"/>
        <path id="Path_93" data-name="Path 93" d="M72.65,97.628c0,4.475,0,8.95.432,13.5.794,8.951,2.238,15.23,6.136,15.23,3.176,0,5.558-8.517,6.569-13.137L94.159,123.4C89.4,135.523,84.993,139.781,79,139.781c-17.539,0-17.467-31.326-17.467-44.246a44.426,44.426,0,0,0-.578-7.363l12.7.145a60.549,60.549,0,0,0-1.01,9.312m47.061,27.645-10.972,4.187c-.938-10.25-4.258-27.717-12.27-36.379l10.538-3.464c6.713,7.866,12.2,25.768,12.7,35.656" transform="translate(4.799 -79.151)" fill="#4a82aa"/>
        <path id="Path_94" data-name="Path 94" d="M132.842,80.308l9.672,3.1a109.967,109.967,0,0,1-6.785,14.148V145.63h-9.96V112.067c-1.371,1.587-2.742,3.1-4.115,4.475a70.858,70.858,0,0,0-5.7-10.395c6.713-6.136,13.137-16.023,16.89-25.84m5.2,29.955V100.59h17.612V81.679h10.322V100.59h16.24v9.672h-16.24v23.386h15.013v9.6h-41.07v-9.6h15.735V110.263Z" transform="translate(12.304 -80.235)" fill="#4a82aa"/>
        <path id="Path_95" data-name="Path 95" d="M177.734,126.727v-7.506h26.85v-1.878h-19.7V110.7h19.7v-2.093H186.4V94.03h18.189V91.937h-25.19V84.143h25.19v-3.9h10.249v3.9H240.6v7.795H214.834V94.03h19.056v14.581H214.834V110.7h20.283v8.517h7.217v7.506h-7.217v11.982h-10.25v-2.815H214.834v.867c0,4.547-1.01,6.422-4.042,7.866-2.959,1.228-6.713,1.372-12.631,1.372a29.2,29.2,0,0,0-3.248-7.723c2.814.145,6.856.145,8.011.145,1.3-.073,1.66-.505,1.66-1.66v-.867H184.374v-7.073h20.211v-2.094ZM196,102.476h8.589v-2.31H196Zm18.838,0h8.733v-2.31h-8.733Zm0,16.746h10.033v-1.876H214.834Zm10.033,7.506H214.834v2.094h10.033Z" transform="translate(20.782 -80.244)" fill="#4a82aa"/>
        <path id="Path_96" data-name="Path 96" d="M262.167,131.6c.1-1.256.209-3.141.262-4.973-3.088,1.78-4.45,3.4-4.45,5.391,0,2.095,1.519,2.985,6.178,2.985a74.457,74.457,0,0,0,14.449-1.571l-.262,7.748a129.024,129.024,0,0,1-14.292.837c-8.167,0-14.029-2.094-14.029-8.689,0-6.439,5.915-10.627,11.412-13.507a3.909,3.909,0,0,0-2.723-.995,11.586,11.586,0,0,0-7.276,3.3,56.2,56.2,0,0,0-4.606,5.6l-6.439-4.817a45.427,45.427,0,0,0,10.627-12.772c-2.041,0-5.654-.106-8.272-.315v-6.963a70.614,70.614,0,0,0,8.9.577h1.989a31.142,31.142,0,0,0,.838-5.393l7.905.628c-.209,1.1-.576,2.67-1.1,4.554a119.284,119.284,0,0,0,13.349-1.413l-.052,6.963c-4.659.576-10.679,1.047-16.018,1.256a30.155,30.155,0,0,1-1.886,3.456,27.082,27.082,0,0,1,4.921-.471,7.229,7.229,0,0,1,6.6,3.507c1.989-.942,3.612-1.623,5.339-2.408,2.146-.942,4.189-1.884,6.335-2.931l2.931,6.909a126.694,126.694,0,0,0-13.663,5.234c.052,2.671.157,6.021.209,8.272Z" transform="translate(29.387 -77.789)"/>
        <path id="Path_97" data-name="Path 97" d="M280.224,136.038a91.893,91.893,0,0,0,23.386-5.412,54.79,54.79,0,0,1-10.178-13.355l7.288-2.453h-14V105h21V98.434H283.183v-9.96h24.541V80.244h10.467v8.229h24.684v9.96H318.191V105h11.186l1.734-.361,7.073,3.97a49.446,49.446,0,0,1-15.23,22.159,81.7,81.7,0,0,0,23.241,5.269,46.455,46.455,0,0,0-6.422,9.89c-10.9-1.516-19.779-4.332-27.069-8.517-7.939,4.185-17.106,6.784-26.995,8.373a39.608,39.608,0,0,0-5.485-9.745m23.1-21.22a35.5,35.5,0,0,0,10.033,10.754,34.171,34.171,0,0,0,10.322-10.754Z" transform="translate(34.845 -80.244)"/>
        <path id="Path_98" data-name="Path 98" d="M341.942,116.469c2.165-.434,4.763-1.012,7.507-1.66V102.034h-6.425V92.867h6.425V80.307h9.239v12.56h5.485v9.167h-5.485V112.57l4.908-1.227,1.3,8.95c-2.093.578-4.185,1.156-6.206,1.733v13.425c0,4.4-.721,6.93-3.1,8.446-2.309,1.587-5.485,1.949-10.033,1.949a33.235,33.235,0,0,0-2.526-9.312c1.3.072,2.671.145,3.681.145.721,0,1.3-.073,1.66-.073.866,0,1.083-.216,1.083-1.155V124.481l-6.136,1.659Zm30.964.432h-7.723V108.89h8.735l.145-1.875h-7.508v-7.8h3.609c-.505-1.948-1.443-4.69-2.094-6.641l6.064-1.659c-2.382.072-4.692.143-7,.143a27.368,27.368,0,0,0-2.165-7.434c12.343-.288,26.2-1.37,35.08-3.176l5.558,7.362q-3.789.65-8.012,1.3l6.929,1.947c-1.8,2.816-3.608,5.7-5.269,8.157h5.486v7.8H383.662l-.145,1.875H406.9V116.9h-24.4l-.289,1.66H396.8l1.589-.215,5.413,2.091a34.587,34.587,0,0,1-7.146,14.292,57.464,57.464,0,0,0,12.127,2.96,34.305,34.305,0,0,0-5.847,8.157,52.9,52.9,0,0,1-13.714-4.764,46.8,46.8,0,0,1-11.982,4.836,37.548,37.548,0,0,0-4.474-6.5,40.857,40.857,0,0,1-7.218,6.136,24.13,24.13,0,0,0-6.352-7.218c8.877-5.341,12.2-13.21,13.713-21.438m8.662,18.695a37.142,37.142,0,0,1-3.681-3.826,33.518,33.518,0,0,1-4.042,6.352,40.324,40.324,0,0,0,7.723-2.526m-.577-36.378a68.079,68.079,0,0,0-1.155-7.795l7.073-1.227c-3.753.288-7.507.506-11.188.65.939,2.309,2.094,5.413,2.743,7.362l-3.32,1.009Zm2.382,26.49a26.368,26.368,0,0,0,5.486,5.052,22.427,22.427,0,0,0,3.9-5.052Zm7.218-26.49a63.79,63.79,0,0,0,4.475-9.817c-2.455.29-4.981.505-7.507.724a70.64,70.64,0,0,1,1.732,8.012l-5.269,1.081Z" transform="translate(43.313 -80.235)"/>
        <path id="Path_99" data-name="Path 99" d="M446.341,110.924c-2.932-.156-7.591-.261-13.874-.313.052,2.355.052,4.868.052,6.909a12.9,12.9,0,0,1,1.937,7.172c0,6.334-4.083,14.919-16.491,18.27l-6.386-6.387c4.345-.838,8.481-2.041,11.36-4.345a4.789,4.789,0,0,1-.89.052,9.2,9.2,0,0,1-8.8-9.528c0-5.967,4.817-9.632,10.576-9.632a10.079,10.079,0,0,1,1.255.052l-.052-2.513c-7.486.1-14.762.419-20.834.68l-.211-7.172h1.989c5.654,0,13.193-.157,18.951-.262l-.052-.576c-.157-1.884-.366-3.979-.575-4.921h8.689c-.157.942-.366,3.979-.419,4.869v.576c3.664,0,8.69-.052,11.884-.052h1.989ZM423.62,125.688c1.623,0,3.246-1.152,2.723-4.973a3.355,3.355,0,0,0-2.723-1.31,3,3,0,0,0-3.141,3.194,3.136,3.136,0,0,0,3.141,3.088" transform="translate(51.817 -77.738)"/>
        <path id="Path_100" data-name="Path 100" d="M476.126,104.759c-1.256.784-2.513,1.57-3.77,2.408-2.827,1.884-7.171,5.444-9.893,7.539a16,16,0,0,1,3.455-.314c8.533,0,15.235,5.5,15.235,12.93,0,7.748-5.6,14.5-18.429,14.5-7.015,0-12.826-3.245-12.826-8.689,0-4.346,4.032-8.43,9.632-8.43,6.073,0,9.947,3.508,10.836,8.22a6.6,6.6,0,0,0,2.88-5.707c0-4.24-4.346-6.911-9.79-6.911-7.278,0-12.459,4.345-17.223,10.156l-5.445-5.653c3.194-2.46,8.952-7.382,11.883-9.79,2.775-2.3,7.383-5.864,9.737-8.01-2.46.052-7.59.262-10.26.471a36.781,36.781,0,0,0-4.449.419l-.209-7.748a39.041,39.041,0,0,0,5.026.315c2.668,0,12.564-.157,15.547-.42a37.963,37.963,0,0,0,4.4-.576Zm-12.668,30.154c-.262-2.723-1.78-4.5-3.873-4.5-1.624,0-2.566.995-2.566,1.99,0,1.518,1.675,2.617,4.188,2.617.786,0,1.518-.052,2.252-.1" transform="translate(56.892 -77.592)"/>
      </g>
      <g id="Group_8553" data-name="Group 8553">
        <path id="Path_81" data-name="Path 81" d="M21,54.857c-1.589-1.228-3.1-2.456-4.548-3.754a83.284,83.284,0,0,1-7.939,3.465A64.2,64.2,0,0,0,1.8,48c7.939-2.164,15.662-5.774,20.571-10.321-2.671-.938-3.609-2.742-3.9-5.918a27.6,27.6,0,0,1-8.228,9.166L3.465,35.368a20.927,20.927,0,0,0,6.857-6.208H1.444V16.1H12.775a45.4,45.4,0,0,0-3.031-5.125l-4.692.073A29.541,29.541,0,0,0,3.1,3.826C20.282,3.537,39.988,2.31,51.536,0l6.64,6.569c-2.525.505-5.341,1.01-8.228,1.444l5.7,1.732c-1.589,2.238-3.176,4.475-4.693,6.352H61.352V30.388H54.928a26.522,26.522,0,0,1,3.9,4.619l-7.073,5.34a37.125,37.125,0,0,0-6.568-7.579c-.939,4.4-3.249,5.63-8.373,5.63H33.059a23.076,23.076,0,0,1-2.165,2.454H44.029l1.589-.289,6.279,3.9a33.979,33.979,0,0,1-9.672,10.1,130.332,130.332,0,0,0,21.221,2.237,37.928,37.928,0,0,0-5.775,8.951c-10.032-.8-18.983-2.527-26.49-5.487A108.153,108.153,0,0,1,5.2,65.9,34.292,34.292,0,0,0,0,57.671a120.285,120.285,0,0,0,21-2.814M12.343,25.913l6.063,2.671V26.128H26.85c-.793-.431-1.587-.72-2.382-1.082l1.371-1.371H10.9v4.764a22.612,22.612,0,0,0,1.444-2.526m7.362-15.3A18.4,18.4,0,0,1,22.159,15.3l-1.948.794h7.651a40.494,40.494,0,0,0-2.672-5.774c-1.875.145-3.68.216-5.485.289M31.181,51.319a29.118,29.118,0,0,0,6.207-3.825H24.18a32.094,32.094,0,0,0,7,3.825M27.573,29.882c0,1.66.434,1.8,2.526,1.8h5.558c1.516,0,1.949-.434,2.238-2.527A22.918,22.918,0,0,0,43.669,31.4c-.794-.793-1.66-1.516-2.454-2.165l6.568-4.764c1.228.867,2.454,1.8,3.609,2.745V23.675h-14.8c.939.578,1.8,1.227,2.527,1.733l-4.981,5.485a33.3,33.3,0,0,0-6.568-4.331ZM41.214,16.1a50.985,50.985,0,0,0,3.753-7.434q-5.088.649-10.393,1.082a20.5,20.5,0,0,1,2.237,5.125L33.491,16.1Z" transform="translate(0 0.001)"/>
        <path id="Path_82" data-name="Path 82" d="M88.029,51.9a46.187,46.187,0,0,0,6.64-1.227c8.735-2.165,14.508-8.228,14.508-17.179,0-8.877-4.258-15.157-12.126-16.962-2.022,11.765-7.8,40.637-22.3,40.637-8.444,0-14.868-9.167-14.868-20.86,0-16.24,14-30.026,32.263-30.026,17.4,0,28.439,11.982,28.439,27.573,0,14.291-8.517,24.9-26.273,27.861ZM85.791,16.674c-10.1,2.815-15.157,11.981-15.157,18.55,0,5.918,2.021,9.021,4.4,9.021,5.775,0,10.033-22.591,10.754-27.572" transform="translate(8.258 0.867)"/>
        <path id="Path_83" data-name="Path 83" d="M165.107,21.07c-.289.723-.721,1.949-1.227,3.176,7.723,2.744,13.064,8.879,13.064,17.035,0,9.6-5.341,19.489-22.592,22.015l-5.412-8.59c13.64-1.515,17.755-8.373,17.755-13.93,0-3.464-1.878-6.5-5.63-8.229-3.681,8.951-8.949,15.809-13.859,19.85.506,1.659.94,3.249,1.516,4.836L139.2,60.046a17.35,17.35,0,0,1-.721-2.308,24.916,24.916,0,0,1-10.032,2.308c-5.343,0-9.891-3.176-9.891-10.753,0-8.735,7.076-18.045,16.674-22.664.145-2.6.289-5.2.578-7.723H134.72c-3.969,0-9.31-.289-12.7-.434l-.289-9.457a109.789,109.789,0,0,0,13.353.941h1.66l.289-2.745c.073-1.3.216-3.175.145-4.548l10.754.29a31.058,31.058,0,0,0-1.589,6.785A109.029,109.029,0,0,0,169.006,6.78l.071,9.455a194.726,194.726,0,0,1-24.107,2.452c-.145,1.661-.217,3.25-.361,4.91a45.848,45.848,0,0,1,9.528-1.012h.36a35.144,35.144,0,0,0,.577-3.825ZM136.38,48.427a99.254,99.254,0,0,1-1.227-11.838c-4.259,3.176-6.856,7.507-6.856,10.465,0,1.876.72,2.961,2.67,2.961a12.847,12.847,0,0,0,5.413-1.589m15.447-17.4a32.084,32.084,0,0,0-7.507,1.228c.072,3.464.289,6.5.577,9.312a37.631,37.631,0,0,0,6.93-10.539" transform="translate(16.286 0.368)"/>
        <path id="Path_84" data-name="Path 84" d="M223.79,11.541c-1.733,1.082-3.465,2.164-5.2,3.319-3.9,2.6-9.889,7.507-13.641,10.395a22.007,22.007,0,0,1,4.763-.434c11.766,0,21,7.579,21,17.828,0,10.682-7.723,19.993-25.407,19.993-9.672,0-17.683-4.475-17.683-11.981,0-5.991,5.558-11.62,13.281-11.62,8.373,0,13.714,4.836,14.941,11.331a9.1,9.1,0,0,0,3.97-7.868c0-5.847-5.991-9.527-13.5-9.527-10.033,0-17.178,5.99-23.747,14l-7.506-7.795c4.4-3.393,12.342-10.179,16.385-13.5,3.825-3.177,10.176-8.084,13.424-11.045-3.392.073-10.465.362-14.147.651a50.558,50.558,0,0,0-6.136.578l-.288-10.683a54.258,54.258,0,0,0,6.929.432c3.681,0,17.323-.217,21.437-.577a52.855,52.855,0,0,0,6.063-.794ZM206.322,53.116c-.361-3.754-2.455-6.207-5.341-6.207-2.237,0-3.537,1.371-3.537,2.742,0,2.093,2.31,3.608,5.774,3.608,1.083,0,2.094-.073,3.1-.143" transform="translate(24.051 0.587)"/>
        <path id="Path_85" data-name="Path 85" d="M235.707,22.837H278.63a44.026,44.026,0,0,0,6.513-.505V33.159c-1.783-.143-4.526-.216-6.513-.216H263.956c-.891,13.064-6.1,24.613-17.621,30.749l-9.325-7.074A27.275,27.275,0,0,0,248.6,47.089c2.606-3.969,3.839-8.734,4.251-14.147H235.707c-1.92,0-4.8.143-6.583.288v-10.9a49.573,49.573,0,0,0,6.583.505M236.6,4.5a54.847,54.847,0,0,0,7.61.578H270.47a54.864,54.864,0,0,0,7.612-.578V15.258c-2.469-.145-5.143-.289-7.612-.289H244.208c-2.262,0-5.417.145-7.61.289Z" transform="translate(31.477 0.622)"/>
        <path id="Path_86" data-name="Path 86" d="M340.52,16.173a30.716,30.716,0,0,0-2.606,5.7C331.675,42.736,319.2,56.088,300,64.388l-9.462-8.878c14.193-4.547,20.982-10.393,26.536-16.962,4.182-4.836,7.816-12.774,8.707-17.251H309.459a85.35,85.35,0,0,1-16.525,16.529l-8.913-7c11.587-7.507,16.867-15.807,20.364-21.582a40.4,40.4,0,0,0,3.5-8.227l11.587,3.969c-1.508,2.238-3.085,5.052-4.045,6.857h10.56a25.445,25.445,0,0,0,6.445-.866Z" transform="translate(39.019 0.141)"/>
        <path id="Path_87" data-name="Path 87" d="M379.568,16.168c-2.88,8.228-7.337,18.767-12.548,25.48-5.418,7-14.4,15.88-24.959,20.282l-9.051-9.817a57.066,57.066,0,0,0,24.959-17.828c6.445-7.94,10.628-20.211,12.41-30.1l12.48,3.392a63.116,63.116,0,0,0-3.291,8.589" transform="translate(45.751 0.579)"/>
        <path id="Path_88" data-name="Path 88" d="M387.063,59.583s.206-6.641.206-10.393V15.627c0-2.238,0-5.414-.137-7.508,2.674.072,5.621.145,7.541.145H431.22c1.784,0,4.251,0,6.925-.073-.137,2.238-.137,5.125-.137,7.436V49.334c0,2.959.137,10.248.137,10.248H427.106l.138-3.681h-29.21v3.681Zm40.249-40.636H397.965V45.22h29.347Z" transform="translate(53.177 1.121)"/>
        <path id="Path_89" data-name="Path 89" d="M463.552,29.366l-5.828,9.383c-3.976-2.887-10.628-7.435-15.222-10.1l5.759-9.239a167.849,167.849,0,0,1,15.291,9.96m3.977,15.373c11.245-6.568,20.707-16.312,25.85-26.2l6.1,11.4c-6.239,9.744-15.634,18.406-26.536,24.975-6.651,3.9-16.319,7.506-21.941,8.444l-5.966-11.044a69.09,69.09,0,0,0,22.491-7.58m6.309-31.253-5.9,9.239c-3.977-2.742-10.628-7.218-15.222-9.96l5.76-9.239c4.594,2.67,11.587,7.29,15.36,9.96m19.267,2.237-6.788,3.031a55.935,55.935,0,0,0-5.692-10.826l6.583-2.887a118.666,118.666,0,0,1,5.9,10.682m9.462-3.825L495.916,15a63.6,63.6,0,0,0-6.1-10.394l6.652-2.96a96.248,96.248,0,0,1,6.1,10.25" transform="translate(60.79 0.229)"/>
        <path id="Path_90" data-name="Path 90" d="M499.447,22.836c2.6.215,8.159.5,11.382.5h34.764c2.948,0,6.171-.361,8.091-.5V36.044c-1.715-.072-5.418-.432-8.091-.432H510.829c-3.771,0-8.707.216-11.382.432Z" transform="translate(68.591 3.138)"/>
        <path id="Path_91" data-name="Path 91" d="M559.37,23.311c4.606-.418,12.145-.995,21.2-1.779,4.974-.419,10.784-.734,14.4-.89l.052,7.747a53.223,53.223,0,0,0-9.474.576c-5.394,1.205-10,7.015-10,12.879,0,7.276,6.857,10.155,15.443,10.626l-2.828,8.377c-11.046-.839-20.521-6.859-20.521-17.434a20.119,20.119,0,0,1,6.282-14.448c-4.293.471-12.983,1.466-18.951,2.775l-.733-8.167c1.989-.052,4.136-.157,5.131-.263m32.666,15.916-4.449,1.937a40.5,40.5,0,0,0-3.822-6.858l4.346-1.78a63.409,63.409,0,0,1,3.926,6.7m5.915-2.618L593.5,38.7a38.6,38.6,0,0,0-4.03-6.649l4.292-1.937c1.309,1.779,3.141,4.711,4.188,6.491" transform="translate(76.148 2.848)"/>
        <rect id="Rectangle_9" data-name="Rectangle 9" width="674.099" height="156.999" transform="translate(0 0.001)" fill="none"/>
      </g>
    </g>
  </g>
</svg>
