<svg xmlns="http://www.w3.org/2000/svg" xmlns:xlink="http://www.w3.org/1999/xlink" width="960" height="80" viewBox="0 0 960 80">
  <defs>
    <clipPath id="clip-path">
      <rect id="長方形_23140" data-name="長方形 23140" width="607" height="80" transform="translate(-146.5 -1)" fill="none"/>
    </clipPath>
  </defs>
  <g id="グループ_9174" data-name="グループ 9174" transform="translate(-0.5)">
    <rect id="長方形_23080" data-name="長方形 23080" width="960" height="80" transform="translate(0.5)"/>
    <g id="マスクグループ_27" data-name="マスクグループ 27" transform="translate(461 79) rotate(180)" opacity="0.201" clip-path="url(#clip-path)">
      <g id="グループ_9365" data-name="グループ 9365" transform="translate(51.292 -142.09)">
        <path id="パス_5319" data-name="パス 5319" d="M202.171,321.382a12.5,12.5,0,0,1-1.866-.137c-5.323-.786-8.722-4.439-10.887-8.968a71.556,71.556,0,0,1-10.053,4.2c-3.785,1.262-8.269,2.467-12.809,1.9-6.062-.761-11.894-4.627-17.332-11.491l-.017-.02c-7.262,6.336-17.064,9.29-25.917,7.611a29.966,29.966,0,0,1-8.305-2.909,31.259,31.259,0,0,1-15.324,7.684c-13.318,2.78-27.481,2.084-41.179,1.415-2.769-.134-5.513-.269-8.23-.372a7.811,7.811,0,0,1-4.733-1.312L44.1,317.829,45.729,317c17.164-8.714,33.607-26.409,29.139-44.662a67.694,67.694,0,0,0-4.652-11.961c-3.32-7.189-6.758-14.619-5.309-23a23.354,23.354,0,0,1,4.305-9.819,70.1,70.1,0,0,1-4.339-8.621c-5.6,1.071-10.716.215-14.591-2.607-7.072-5.147-7.855-14.7-8.546-23.122-.123-1.485-.241-2.954-.394-4.383-.112-1.057-.249-2.12-.386-3.183-.515-3.961-1.049-8.056-.238-12.1a24.32,24.32,0,0,1,7.1-12.3,24.321,24.321,0,0,1,4.968-22.655,30.309,30.309,0,0,1,13.656-8.691c-.708-.7-1.4-1.429-2.048-2.2a27.183,27.183,0,0,1,13.34-43.761A37.642,37.642,0,0,1,88.3,65.233c6.554-6.118,16.168-9.273,25.716-8.445.78.07,1.547.162,2.3.28a40.88,40.88,0,0,1,9-10.367c10.224-8.518,26.532-16.14,42.2-13.08,7.818-3.446,17.472-4.431,27.844-2.685,9.273,1.561,16.806,4.8,22.387,9.628a30.037,30.037,0,0,1,3.164,3.181,43.606,43.606,0,0,1,31.109,4.568c5.287,3.041,8.993,6.714,11.021,10.915,2.526,5.239,2.109,11.466-1.041,15.489-2.179,2.792-5.217,4.3-8.453,5.4a28.339,28.339,0,0,1-3.843,21.436Q249,102.6,248.2,103.565a27.52,27.52,0,0,1,4.934,16.834,23.845,23.845,0,0,0,9.922-3.843c-4.358-6.272-6.333-13.175-5.569-19.494.918-7.617,6.218-14.182,12.884-15.967a17.076,17.076,0,0,1,13.186,2.12,6.99,6.99,0,0,1,4.8-.836c4.185.7,8.084,4.562,10.149,7.651,6.246,9.329,10.7,23.632,2.7,33.224a19.1,19.1,0,0,1-10.322,6.143q-.848,1.083-1.706,2.151c-1.732,2.173-3.368,4.224-4.705,6.263-.179.271-.352.545-.526.825,7.136-1.93,14.552-2.333,21.038-.711,3.34.836,7.788,2.671,10,6.68a16.24,16.24,0,0,1,1.684,6.73,41.543,41.543,0,0,1-4.515,21.967c-.255.492-.509.962-.769,1.413a46.631,46.631,0,0,1,4.009,39.738,46.122,46.122,0,0,1-19.041,22.8q.021,1.448-.064,2.918c-.562,10.079-4.621,18.694-11.136,23.64-4.087,3.1-9.365,5.03-16.082,5.858a17.838,17.838,0,0,1-1.975,2.795c-4.151,4.8-10.445,7.947-19.245,9.634a55.279,55.279,0,0,1-13.021.909,71.255,71.255,0,0,1-2.873,11.729,44.657,44.657,0,0,1-19.88,23.578C208.425,320.369,205.166,321.382,202.171,321.382ZM191.5,311.152c1.871,3.955,4.744,7.091,9.15,7.74,2.946.436,6.305-.428,10.255-2.649a42.276,42.276,0,0,0,18.809-22.308,68.9,68.9,0,0,0,2.727-11.091,48.6,48.6,0,0,1-17.475-4.817q-1.162.684-2.386,1.315a31.849,31.849,0,0,1-4.976,17.181A44.652,44.652,0,0,1,191.5,311.152Zm-142.31,6.7c.369.036.758.056,1.15.07,2.722.106,5.477.241,8.252.378,13.547.66,27.559,1.348,40.578-1.371a29.247,29.247,0,0,0,13.645-6.585c-8.149-5.027-14.389-13.4-19.6-21.466-3.477-5.385-4.817-10.115-3.978-13.771q-.793-.655-1.536-1.371a29.928,29.928,0,0,1-7.1-30.653,76.777,76.777,0,0,1-7.03-8.747q-1.624-2.325-3.024-4.562a20.685,20.685,0,0,0-3.306,8.006h0c-1.32,7.656,1.813,14.431,5.127,21.6a69.552,69.552,0,0,1,4.8,12.395C81.741,290.418,66.264,308.332,49.195,317.849Zm101.752-12.616.14.176c5.041,6.361,10.344,9.93,15.766,10.61,4.073.506,8.227-.624,11.757-1.8a69.322,69.322,0,0,0,9.874-4.137,48.819,48.819,0,0,1-2.66-13.463c-.243-3.553-.425-7.262-.319-10.951a29.2,29.2,0,0,1-10.2-1.8,21.029,21.029,0,0,1-5.511-3.113,24.622,24.622,0,0,1-8.35,5.1c-.14.053-.283.1-.425.151a39.583,39.583,0,0,1-9.007,18.1Q151.493,304.683,150.946,305.233Zm-34.264,4.529a27.561,27.561,0,0,0,7.049,2.38c8.2,1.555,17.3-1.231,24.034-7.172a64.66,64.66,0,0,1-9.712-19.612,30.807,30.807,0,0,1-13.995-8.518,29.872,29.872,0,0,1-3.883,2.218,26.624,26.624,0,0,1-4.087,1.536,28.229,28.229,0,0,1,5.581,13.986A20.374,20.374,0,0,1,116.682,309.762Zm71.2-24.135c-.112,3.639.07,7.309.308,10.826a47.254,47.254,0,0,0,2.392,12.484,42.231,42.231,0,0,0,15.019-13.69,30.419,30.419,0,0,0,4.59-14.756A61.39,61.39,0,0,1,192.87,285.2Q190.239,285.532,187.885,285.627ZM91.392,276.7c-.3,3.732,2.053,8.14,3.824,10.884,5.153,7.975,11.326,16.261,19.327,21.013a17.885,17.885,0,0,0,4.758-13.816,26.262,26.262,0,0,0-5.734-13.595A30.5,30.5,0,0,1,91.392,276.7Zm49.383,9.4a62.133,62.133,0,0,0,8.725,17.215c.252-.263.5-.526.744-.8a36.849,36.849,0,0,0,8.163-15.794,36.093,36.093,0,0,1-10.865.467A47.659,47.659,0,0,1,140.775,286.1Zm-.8-2.655a44.46,44.46,0,0,0,7.776,1.376,32.159,32.159,0,0,0,11.212-.677,43.935,43.935,0,0,0,.694-9.139c-.185-6.627-1.916-11.645-5.147-14.918-3.438-3.48-10.009-4.761-13.662-1.27-2.336,2.232-3.3,5.838-3.024,11.346A61.242,61.242,0,0,0,139.978,283.445Zm31.526-4.4a18.364,18.364,0,0,0,4.649,2.6,27.026,27.026,0,0,0,9.463,1.642c.462-6.985,2.151-13.774,6.655-19.2a13.067,13.067,0,0,1,6.216-4.322l-.2-.529a20.809,20.809,0,0,0-3.457-6.691,10.815,10.815,0,0,0-8.361-3.432h-.014q-1.024,2.341-1.983,4.932C181.213,262.823,177.658,272.412,171.5,279.047Zm-25.1-24.686a14.193,14.193,0,0,1,9.8,4.056c3.667,3.715,5.628,9.273,5.832,16.524a46.3,46.3,0,0,1-.517,8.339A22.379,22.379,0,0,0,168,279.148a15.972,15.972,0,0,1-4.478-8.395c-1.309-7.477,3.564-14.507,8.557-18.594a24.151,24.151,0,0,1,12.784-5.32,66.8,66.8,0,0,1,3.609-6.87,45.224,45.224,0,0,1-9.066-3.843c-.165.109-.336.215-.509.319-3.913,2.344-9.035,3.055-15.242,2.126a23.446,23.446,0,0,1-9.181,5.583,57.332,57.332,0,0,1-11.111,1.762c-.283.025-.562.053-.845.078a52.237,52.237,0,0,1-3.049,10.862A10.29,10.29,0,0,1,146.406,254.361ZM199.376,262a10.534,10.534,0,0,0-5.276,3.6c-4.067,4.9-5.639,11.147-6.1,17.64,1.441-.067,2.957-.2,4.562-.406a58.319,58.319,0,0,0,17.612-4.96,25.15,25.15,0,0,0-.333-2.968,31.013,31.013,0,0,1-10.412-12.772C199.418,262.093,199.4,262.048,199.376,262Zm-73.384,13.43A27.788,27.788,0,0,0,137.3,282.6a63.5,63.5,0,0,1-1.846-12.322,27.831,27.831,0,0,1,.277-5.986c-.336.543-.68,1.08-1.038,1.608A41.13,41.13,0,0,1,125.992,275.43Zm109.24,5.223a53.21,53.21,0,0,0,12.168-.892c8.258-1.58,14.112-4.476,17.9-8.853.263-.3.512-.618.752-.945a69.169,69.169,0,0,1-27.716-3.762,55.735,55.735,0,0,0-1.491,5.555c-.565,2.6-1.013,5.3-1.446,7.9C235.341,279.987,235.288,280.317,235.232,280.653Zm-17.914-4.115a46.828,46.828,0,0,0,15.528,3.964c.07-.414.137-.825.2-1.236.439-2.632.892-5.357,1.469-8.017a58.589,58.589,0,0,1,1.583-5.872q-3.264-1.267-6.392-2.853a35.116,35.116,0,0,1-7.749,10.347A40.094,40.094,0,0,1,217.318,276.538ZM92.052,274.267a27.889,27.889,0,0,0,19.729,4.809,36.408,36.408,0,0,0-4.389-4.056c-4.526-3.539-10.951-5.715-14.37-2.12A5.909,5.909,0,0,0,92.052,274.267Zm5.567-5.567c3.774,0,7.961,1.885,11.24,4.448a38.352,38.352,0,0,1,5.634,5.413,24.6,24.6,0,0,0,4.666-1.65,27.407,27.407,0,0,0,3.4-1.93c-4.9-6.887-6.087-17.791.526-24.563,4.708-4.825,11.019-5.953,17.363-6.61a49.763,49.763,0,0,0-5.723-30.8,18.621,18.621,0,0,0-5.035-6.16c-2.174-1.541-4.8-2.241-7.581-2.985-.982-.26-1.964-.523-2.926-.822a32.5,32.5,0,0,1-6.459-2.828,39.747,39.747,0,0,1-6.456,14.9q-.541.755-1.116,1.494a32,32,0,0,1,8.314,3.849c5.262,3.446,10.806,9.849,10.593,17.483a15.993,15.993,0,0,1-6.532,12.132,23.054,23.054,0,0,1-18.6,4.369c-5.718-1.245-11.158-4.361-16.44-9.452a27.508,27.508,0,0,0,6.867,27.044c.266.252.534.5.808.744a8.083,8.083,0,0,1,1.136-1.5A8.4,8.4,0,0,1,97.619,268.7Zm86.151-19.366A22.2,22.2,0,0,0,173.585,254c-4.473,3.656-8.851,9.872-7.721,16.342a13.68,13.68,0,0,0,3.849,7.116c5.88-6.325,9.351-15.684,12.526-24.247Q182.987,251.2,183.77,249.335Zm28.669,27.293.011.1.078-.042Zm-.487-3.127q1.406.969,2.918,1.8a38.385,38.385,0,0,0,5.483-4.182,32.775,32.775,0,0,0,7.259-9.7,67.938,67.938,0,0,1-14.479-10.663,59.492,59.492,0,0,1-7.365-8.6,54.3,54.3,0,0,1-14.915-1.53A61.927,61.927,0,0,0,187.5,246.8a12.815,12.815,0,0,1,9.1,4.168,22.9,22.9,0,0,1,3.905,7.432c.137.364.274.73.414,1.1a6.735,6.735,0,0,1,1.866.38,10,10,0,0,1,4.064,3.077A23.871,23.871,0,0,1,211.953,273.5Zm-71.882-27.262c-5.858.635-11.262,1.723-15.282,5.838-5.558,5.693-4.624,15.4-.3,21.511a38.811,38.811,0,0,0,8.227-9.007A48.415,48.415,0,0,0,140.071,246.238Zm61.977,15.894a28.374,28.374,0,0,0,6.8,8.943,20.762,20.762,0,0,0-3.8-6.576A7.6,7.6,0,0,0,202.047,262.132Zm37.084,1.829a66.556,66.556,0,0,0,27.414,3.578c.344-.028.688-.059,1.027-.1,2.235-4.565,2.526-10.33-.814-14.4-4.638-5.651-13.978-4.912-19.464-.719C243.831,254.974,241.131,258.812,239.131,263.962Zm18.238-17.385a14.17,14.17,0,0,1,11.228,4.96c3.634,4.428,3.7,10.484,1.706,15.561,5.564-.864,9.975-2.571,13.413-5.181,5.955-4.52,9.673-12.5,10.2-21.88.025-.47.045-.94.053-1.41a44.262,44.262,0,0,1-15.48,5.01c-12.126,1.516-26.661-4.249-28.969-16.2a15.411,15.411,0,0,1-.271-2.367,28.863,28.863,0,0,1-8.683-1.39,24.432,24.432,0,0,1-2.392,3.936,32.157,32.157,0,0,1-8.988,8.031,23.963,23.963,0,0,1,3.25,7.877,28.9,28.9,0,0,1-1.757,16.829q3.038,1.548,6.221,2.786c2.162-5.586,5.122-9.777,8.946-12.7A19.368,19.368,0,0,1,257.37,246.576ZM208.579,242a58,58,0,0,0,6.207,7.046,65.573,65.573,0,0,0,13.791,10.191,26.48,26.48,0,0,0,1.536-15.212,21.234,21.234,0,0,0-3.029-7.178A47.879,47.879,0,0,1,208.579,242Zm-125.2.526c5.2,5.217,10.507,8.378,16.054,9.584a20.86,20.86,0,0,0,16.63-3.916,13.65,13.65,0,0,0,5.623-10.328c.185-6.655-4.795-12.333-9.516-15.427a29.839,29.839,0,0,0-8.652-3.838c-2.269,2.643-4.769,5.1-7.211,7.5-5.211,5.119-10.132,9.953-12.879,16.314Zm29.8-44.8a30.5,30.5,0,0,0,6.716,3.043c.932.291,1.883.543,2.834.8,2.862.764,5.821,1.552,8.342,3.343a20.771,20.771,0,0,1,5.729,6.929,52.162,52.162,0,0,1,6.073,31.741c.092-.011.182-.02.274-.028a54.464,54.464,0,0,0,10.641-1.67,20.173,20.173,0,0,0,6.948-3.852c-5.158-1.147-9.027-3.077-11.791-5.874-4.929-4.985-7.133-14.442-6.613-21.942-7.983-5.2-14.943-13.326-19.914-23.483-2.425-4.954-3.071-9.074-1.936-12.283a41.932,41.932,0,0,1-9.813-14.031c-.744-1.667-1.457-3.382-2.174-5.108q-.415-.994-.836-1.994a26.655,26.655,0,0,0-6.327,7.863q.474.441.937.9C111.337,171.144,115.116,184.893,113.177,197.722Zm138.455,27.257a12.437,12.437,0,0,0,.224,2.008c2.045,10.6,15.273,15.668,26.339,14.289a42.176,42.176,0,0,0,15.743-5.343c-.35-7.623-2.884-14.644-7.186-19.7a23.966,23.966,0,0,0-14.275-8.157,21.6,21.6,0,0,1-10.795,13.861A24.286,24.286,0,0,1,251.632,224.978ZM72.091,227.734q1.565,2.56,3.438,5.239a76.486,76.486,0,0,0,6.079,7.687c2.993-6.4,8.093-11.407,13.033-16.261,2.1-2.064,4.246-4.174,6.23-6.389a31.766,31.766,0,0,0-22.98,4.565A27.469,27.469,0,0,0,72.091,227.734Zm120.155,10.784a54.134,54.134,0,0,0,11.972,1.292,44.725,44.725,0,0,1-4.369-9.167A31.075,31.075,0,0,0,192.246,238.517Zm9.687-9.15a42.428,42.428,0,0,0,5.055,10.356c.327-.02.657-.039.987-.064a45.892,45.892,0,0,0,17.685-4.75c-4.21-5.127-10.563-8.3-16.787-7.681A18.393,18.393,0,0,0,201.933,229.367Zm-20.454,5.183a43.249,43.249,0,0,0,8.325,3.332,33.535,33.535,0,0,1,9.321-9.62c-.322-1.2-.593-2.431-.8-3.69-1.642-9.947,1.334-20.115,7.637-26.6a33.788,33.788,0,0,1-6.011-15.7c-.036-.322-.064-.646-.09-.968a67.464,67.464,0,0,1-8.322.386,28.54,28.54,0,0,1-.036,15.463,27.7,27.7,0,0,1,2.059,8.364c.744,9.225-2.5,18.479-9.136,26.051A30.734,30.734,0,0,1,181.479,234.551Zm-15.768,1.883c4.579.464,8.4-.106,11.4-1.706a38.054,38.054,0,0,1-4.63-3.55q-.961-.864-1.843-1.785A39.764,39.764,0,0,1,165.711,236.433Zm-21.1-24.834c-.187,6.943,2.162,14.977,6.025,18.882,2.7,2.73,6.686,4.543,12.188,5.541l.07.011a36.35,36.35,0,0,0,6.081-8.5,34.768,34.768,0,0,1-6.176-11,33.786,33.786,0,0,1-9.419-1.242A39.471,39.471,0,0,1,144.611,211.6Zm128.362-5.849a26.4,26.4,0,0,1,15.592,8.937,34.778,34.778,0,0,1,7.665,19.836,43.557,43.557,0,0,0,16.935-20.9,44.169,44.169,0,0,0-3.217-36.67,16.262,16.262,0,0,1-3.986,3.983,14.283,14.283,0,0,1-2.45,1.351,23.952,23.952,0,0,1-1.083,5.486,13.3,13.3,0,0,1-15.889,8.949c-4.867-1.1-8.915-4.425-12.767-7.914-.053.848-.092,1.718-.112,2.61-.031,1.186-.036,2.386-.045,3.586A66.255,66.255,0,0,1,272.973,205.75Zm-62.489,19.019c6.618,0,13.052,3.5,17.324,8.937a29.843,29.843,0,0,0,8.465-7.519,22.01,22.01,0,0,0,2.056-3.329,25.558,25.558,0,0,1-12.389-10.467c-.081-.14-.162-.28-.241-.422A34.832,34.832,0,0,1,207.4,199.9c-5.611,5.964-8.235,15.209-6.736,24.286q.243,1.452.593,2.845a20.739,20.739,0,0,1,7.376-2.168Q209.561,224.769,210.484,224.769Zm-38.689,2.375a30.962,30.962,0,0,0,2.271,2.263,36.141,36.141,0,0,0,5.211,3.883,26.143,26.143,0,0,0,3.357-3.29c6.21-7.083,9.248-15.71,8.554-24.292a24.918,24.918,0,0,0-.985-5.158,27.768,27.768,0,0,1-14.669,13.382c-.025.406-.062.808-.109,1.2A38.989,38.989,0,0,1,171.795,227.144Zm-104.577-8.77a67.219,67.219,0,0,0,3.6,7.206,29.836,29.836,0,0,1,5.754-4.982,34.259,34.259,0,0,1,26.065-4.652c.59-.73,1.161-1.469,1.7-2.227a37.6,37.6,0,0,0,6.252-14.842c-8.356-5.639-14.121-14.9-14.63-24.474a27.153,27.153,0,0,1,2.459-12.635,37.12,37.12,0,0,0-19.349-8.227A33.039,33.039,0,0,1,69.472,169.3a14.369,14.369,0,0,1-5.485,3.435c-4.565,1.337-9.074-1.155-11.774-3.936a18,18,0,0,1-3.463-5.113A21.415,21.415,0,0,0,43.049,174c-.733,3.659-.249,7.385.263,11.326.143,1.083.283,2.162.4,3.242.154,1.446.274,2.934.4,4.439.683,8.3,1.387,16.887,7.575,21.394,3.513,2.56,7.942,2.979,12.3,2.224a46.025,46.025,0,0,1-2.543-10.688c-1.259-11.388,3.015-22.543,10.882-28.421,5.432-4.056,13.928-5.158,18.182.134a12.669,12.669,0,0,1,2.372,5.424c2.918,13.631-7.421,26.255-18.261,32.219A35.068,35.068,0,0,1,67.218,218.374Zm98.132-1.958a32.69,32.69,0,0,0,4.781,8.73,36.394,36.394,0,0,0,2.934-10.288v-.008A34.211,34.211,0,0,1,165.35,216.416Zm76.154,5.108a26.337,26.337,0,0,0,7.8,1.2h.028a19.909,19.909,0,0,1,14.389-16.58,21.286,21.286,0,0,1,6.879-.666,63.013,63.013,0,0,0,.638-10.487c.008-1.217.014-2.431.045-3.631q.059-2.392.266-4.588a47.459,47.459,0,0,0-7.094-5.681q-1.926-1.171-3.8-2.092c1.555,6.921-.137,14.5-4.747,21.047a30.966,30.966,0,0,1-12.613,10.49A27.389,27.389,0,0,1,241.5,221.524Zm27.7-13.715a18.687,18.687,0,0,0-4.865.629A17.757,17.757,0,0,0,251.758,222.6a21.986,21.986,0,0,0,8.747-2.733,20.48,20.48,0,0,0,8.16-8.319,19.7,19.7,0,0,0,1.415-3.723C269.79,207.811,269.5,207.809,269.208,207.809Zm-40.315,4.783a23.664,23.664,0,0,0,10.386,8.126,25.007,25.007,0,0,0,1.7-9.273,25.81,25.81,0,0,1-7.018,1.365A27.568,27.568,0,0,1,228.893,212.592ZM82.34,176.465a14.905,14.905,0,0,0-8.6,2.96c-7.206,5.382-11.108,15.687-9.942,26.253a43.721,43.721,0,0,0,2.523,10.434,32.282,32.282,0,0,0,7.141-2.9c10.1-5.55,19.746-17.195,17.083-29.637a10.423,10.423,0,0,0-1.9-4.434A7.831,7.831,0,0,0,82.34,176.465Zm62.475,32.5a37.517,37.517,0,0,0,9.209,4.042,31.093,31.093,0,0,0,8.065,1.161,29.261,29.261,0,0,1,.878-18.177c.112-.28.227-.554.347-.825a10.761,10.761,0,0,0-8.361.3,17.453,17.453,0,0,0-9.3,9.819A18.636,18.636,0,0,0,144.815,208.964Zm20.6-12.677c-.084.193-.162.386-.241.582a27.1,27.1,0,0,0-.568,17.231,31.644,31.644,0,0,0,8.6-1.787C173.174,206.318,170.667,199.7,165.417,196.287Zm1.077-2.132c5.83,3.664,8.761,10.677,9.06,17.2a24.858,24.858,0,0,0,12.854-12.619c.207-.481.392-.973.562-1.469a20.109,20.109,0,0,0-5.9-7.762,9.988,9.988,0,0,0-8.263-2.031C171.551,188.149,168.575,190.577,166.494,194.155Zm60.8,15.754a25.505,25.505,0,0,0,6.537.526,23.592,23.592,0,0,0,6.976-1.452,17.914,17.914,0,0,0-5.8-11.475,17.539,17.539,0,0,0-9.251-4.084A24.232,24.232,0,0,0,227.3,209.909Zm-18.191-11.64a32.751,32.751,0,0,0,15.248,10.851,27.012,27.012,0,0,1-.951-15.883,21.3,21.3,0,0,0-14.2,4.951Zm17.332-7.128a19.774,19.774,0,0,1,10.146,4.582,20.061,20.061,0,0,1,6.467,12.305,28.669,28.669,0,0,0,10.912-9.354c4.54-6.439,6-13.933,4-20.56l-.117-.378a32.05,32.05,0,0,0-5.995-1.8A21.883,21.883,0,0,1,248.5,180.7c-5.052,5.354-13.195,7.8-21.03,7.894A26.736,26.736,0,0,0,226.44,191.142ZM122.492,176.07c-.537,2.492.151,5.709,2.062,9.609,4.574,9.351,10.876,16.9,18.09,21.878a18.923,18.923,0,0,1,.769-3.057,19.9,19.9,0,0,1,10.61-11.223,12.859,12.859,0,0,1,10.367-.235c2.428-4.2,5.992-7.077,9.93-7.894a12.418,12.418,0,0,1,10.174,2.453,21.032,21.032,0,0,1,5.351,6.221,26.866,26.866,0,0,0-.8-12.219,108.533,108.533,0,0,1-12.442-1.4,21.933,21.933,0,0,1-5.256,4.109c-5.48,3.007-13.844,2.775-17.794-2.839a11.125,11.125,0,0,1-1.866-6.884c-2.353-.579-4.725-1.152-7.105-1.692a9.956,9.956,0,0,1-.808,1.726,11.521,11.521,0,0,1-8.554,5.108A17.588,17.588,0,0,1,122.492,176.07ZM202.218,181c.025.338.056.677.092,1.013a31.471,31.471,0,0,0,5.388,14.331,23.727,23.727,0,0,1,16.356-5.441c.255-.8.548-1.589.876-2.361a34.26,34.26,0,0,1-9.195-1.7,26.122,26.122,0,0,1-10.076-6.437C204.509,180.641,203.359,180.837,202.218,181Zm-101.956-17.57a24.822,24.822,0,0,0-1.933,10.842c.453,8.5,5.407,16.728,12.666,22,1.471-11.779-2.12-24.227-10.412-32.519C100.478,163.645,100.368,163.539,100.262,163.435Zm173.779,22.4c4.028,3.7,8.2,7.477,13.021,8.571a10.945,10.945,0,0,0,13.1-7.362,21.315,21.315,0,0,0,.876-3.958,16.506,16.506,0,0,1-9.34-.786,25.224,25.224,0,0,1-12.775-10.921C276.352,175.1,274.738,179.866,274.041,185.83ZM208.422,179.8a23.135,23.135,0,0,0,8.079,4.8,32.765,32.765,0,0,0,9.528,1.631,24.92,24.92,0,0,1,9.01-9.7,23.472,23.472,0,0,1,15.477-3.228c.918-1.994,1.662-4.137,2.42-6.339a27.85,27.85,0,0,1-2.666-8.473c-1.071-9.027,5.508-18.387,14.364-20.437a20.7,20.7,0,0,1,14.428,2.157q.776-.294,1.561-.562c.568-1.069,1.189-2.12,1.857-3.141,1.4-2.132,3.069-4.224,4.837-6.442l.109-.137a22.073,22.073,0,0,1-6.588-.5c-6.109-1.4-11.863-5.273-16.37-10.963a26.1,26.1,0,0,1-11.584,4.355c-1.278,8.417-6.361,16.23-13.819,21.841,1.589,3.7,1.127,8.708-.792,12.879C232.546,169.986,220.644,176.8,208.422,179.8Zm38.829-4.311a20.931,20.931,0,0,0-10.985,3.074,22.419,22.419,0,0,0-7.525,7.648c6.82-.313,13.693-2.546,18.029-7.139a18.871,18.871,0,0,0,2.568-3.488C248.636,175.522,247.94,175.489,247.252,175.489Zm12.5.467a50.086,50.086,0,0,1,5.933,3.1,43.16,43.16,0,0,1,6.216,4.823,32.137,32.137,0,0,1,5.348-14.255q.248-.344.512-.68a17.257,17.257,0,0,1-.6-1.815,37.648,37.648,0,0,1,1.919-24.222l-.084-.048c-8.879,3.53-16.694,9.421-20.417,16.409a52.751,52.751,0,0,0-3.077,7.55c.383.792.783,1.586,1.189,2.392A62.134,62.134,0,0,1,259.753,175.956Zm-105.718-.789A8.657,8.657,0,0,0,155.5,180.1c3.189,4.537,10.121,4.635,14.708,2.123a18.478,18.478,0,0,0,3.53-2.537c-6.185-1.158-12.294-2.68-18.3-4.171C154.975,175.4,154.5,175.282,154.035,175.167Zm126.511-5.827a22.919,22.919,0,0,0,11.975,10.722,13.959,13.959,0,0,0,8.694.537c.09-4.979-1.32-10.5-4.218-16.5C290.988,162.031,284.54,164.988,280.545,169.34Zm19.836-3.516a37.869,37.869,0,0,1,3.211,13.785c.341-.19.685-.4,1.027-.635a14.786,14.786,0,0,0,3.969-4.244,40.5,40.5,0,0,0-3.774-4.9A25.132,25.132,0,0,0,300.381,165.824Zm-109.6,13.469a64.866,64.866,0,0,0,8.974-.366,36.031,36.031,0,0,1,.456-5.9,37.8,37.8,0,0,1-3.754-10.316,52.313,52.313,0,0,1-.982-12.607,42.013,42.013,0,0,1-4.828-2.308c-.229,6.182-2.344,13.091-6.369,20.873a32.54,32.54,0,0,1,2.853,3.536A30.544,30.544,0,0,1,190.783,179.293Zm-12.342-1.206c3.239.506,6.5.887,9.757,1.088a28.076,28.076,0,0,0-3.015-5.611,30.556,30.556,0,0,0-2.1-2.666A51.288,51.288,0,0,1,178.441,178.087Zm23.78-1.807c-.056.78-.087,1.558-.087,2.339.551-.081,1.1-.171,1.659-.269Q202.971,177.356,202.221,176.28Zm.476-3.715a30.737,30.737,0,0,0,3.765,5.259c12.1-2.663,24.057-9.122,29.651-21.276,1.376-2.99,2.146-7.3,1-10.5a43.067,43.067,0,0,1-9.522,4.744,45.438,45.438,0,0,1-15.377,2.557A40.423,40.423,0,0,0,202.7,172.565Zm-48.486.193c.6.151,1.206.3,1.8.448,6.47,1.611,13.066,3.253,19.727,4.431a46.748,46.748,0,0,0,5.55-8.409l.076-.137a38.278,38.278,0,0,0-18.258-9.628c-.985-.221-1.978-.408-2.976-.585C157.668,162.811,154.921,168.048,154.211,172.759Zm-30.773,1.069c3.39,2.6,7.27,4.081,11.486,3.541a9.132,9.132,0,0,0,6.809-3.969,6.988,6.988,0,0,0,.5-1.027q-2.937-.638-5.872-1.178c-6.554-1.186-10.75-.38-12.817,2.478C123.508,173.724,123.471,173.774,123.438,173.827Zm129.492-.112a33.568,33.568,0,0,1,3.79,1.057c-.66-1.522-1.415-3.024-2.157-4.492l-.159-.316C253.951,171.228,253.473,172.487,252.93,173.715Zm45.786-11.508a22.508,22.508,0,0,1,7.866,6.028,42.763,42.763,0,0,1,3.334,4.216c.042-.078.084-.159.123-.241A39.149,39.149,0,0,0,314.3,151.5a14.039,14.039,0,0,0-1.393-5.743c-1.8-3.262-5.617-4.806-8.5-5.527-6.73-1.684-14.68-.962-22.157,1.457l-.159.324c5.611,3.782,10.437,9.508,13.931,15.312Q297.514,159.811,298.716,162.207Zm-189.1-10.384q.541,1.284,1.074,2.568c.711,1.7,1.415,3.4,2.151,5.055a40.193,40.193,0,0,0,8.778,12.834h0c2.657-3.676,7.611-4.792,15.167-3.424q3.013.55,6.023,1.208a14.964,14.964,0,0,0,.117-1.992,19.625,19.625,0,0,0-7.307-14.6,20.7,20.7,0,0,0-26.006-1.653Zm35.528,18.759c2.271.515,4.534,1.06,6.778,1.611.769-4.753,3.259-9.774,5.67-13.746a40.649,40.649,0,0,1-10.428-2.772A22.641,22.641,0,0,1,134.6,138.047c-.448-.126-.9-.269-1.334-.425a22.58,22.58,0,0,1-13.041-13.268,21.155,21.155,0,0,1,.713-17.64c1.877-3.471,4.671-6.308,7.376-9.049,3.01-3.055,5.863-5.95,7.477-9.595-1.712-.422-3.415-.859-5.094-1.365-5.978-1.807-13.712-5.477-16.6-12.691C112.14,69.1,112.9,64.005,115.138,59.3c-.439-.056-.878-.1-1.323-.143-8.907-.766-17.822,2.148-23.889,7.813a34.936,34.936,0,0,0-9.592,16.364c10.017-1.748,20.708,3.027,25.181,11.337a20.137,20.137,0,0,1,1.083,15.743,17.4,17.4,0,0,1-9.161,10.563,12.4,12.4,0,0,1-10.633.154c-3.385-1.757-5.245-5.214-6.49-8.031a46,46,0,0,1-3.141-26.5,24.8,24.8,0,0,0-10.963,39.557,38.7,38.7,0,0,0,2.887,2.99,41.052,41.052,0,0,1,13.3-.9,29.768,29.768,0,0,1,13.234,4c6.389,3.955,10,10.5,13.03,17.374a23.755,23.755,0,0,1,9.416-3.726,24.243,24.243,0,0,1,19.08,5.774,21.963,21.963,0,0,1,8.14,16.395A17.132,17.132,0,0,1,145.142,170.582Zm-94.577-8.66a16,16,0,0,0,3.354,5.22c2.115,2.176,5.846,4.35,9.4,3.312a12.274,12.274,0,0,0,4.551-2.912,30.712,30.712,0,0,0,8.82-14.216A35.927,35.927,0,0,0,51.158,161.4C50.963,161.569,50.764,161.743,50.565,161.922Zm147.266-10.949a49.244,49.244,0,0,0,.954,11.254,36.136,36.136,0,0,0,2.235,6.99,43.249,43.249,0,0,1,8.19-15.981A45.8,45.8,0,0,1,197.832,150.973Zm83.281-6.769a35.165,35.165,0,0,0-1.662,22.3c.039.143.081.283.123.422,4.081-3.992,10.059-6.694,15.97-5.656q-.734-1.347-1.564-2.725A47.388,47.388,0,0,0,281.113,144.2Zm-119.57,12.512c.7.131,1.4.271,2.09.428a40.889,40.889,0,0,1,18.882,9.757c3.927-7.763,5.844-14.554,5.776-20.532a37.526,37.526,0,0,1-4.971-3.88q-1.041-.965-2-2.031a39.269,39.269,0,0,0-17.041,12.473C163.915,153.4,162.852,154.783,161.543,156.716Zm107.38-16.775a16.481,16.481,0,0,0-3.751.431,16.956,16.956,0,0,0-12.543,17.841,21.756,21.756,0,0,0,1.463,5.452,43.286,43.286,0,0,1,2.386-5.511c3.74-7.024,11.086-12.935,19.606-16.725A18.814,18.814,0,0,0,268.922,139.941ZM79.543,151.228a39.589,39.589,0,0,1,19.97,8.364,29.147,29.147,0,0,1,7.183-8.537c-2.926-6.708-6.355-13.1-12.314-16.787a27.466,27.466,0,0,0-12.2-3.656,39.432,39.432,0,0,0-10.968.509A32.22,32.22,0,0,1,77.257,138,19.417,19.417,0,0,1,79.543,151.228ZM68.423,131.775a28.327,28.327,0,0,0-13.847,8.372,21.968,21.968,0,0,0-4.8,19.313c7.564-6.367,17.6-9.144,27.422-8.459a17.13,17.13,0,0,0-1.98-11.777A32.62,32.62,0,0,0,69,132.307Zm68.7,6.8c1.1,6.333,5.237,12.263,11.035,14.938a40.37,40.37,0,0,0,10.392,2.683l.42.07c1.477-2.246,2.783-3.964,3.446-4.806a41.659,41.659,0,0,1,17.31-12.932,33.916,33.916,0,0,1-6.66-16.082,41.512,41.512,0,0,0-8.2-4.582,23.207,23.207,0,0,1-1.169,4.887C159.87,133.389,147.911,140.176,137.122,138.578Zm60.813,9.925a43.392,43.392,0,0,0,13.242,2.459,42.959,42.959,0,0,1,12.386-9.332c4.652-2.308,8.551-2.716,11.584-1.214a7.934,7.934,0,0,1,2.7,2.19c6.711-5.119,11.315-12.118,12.6-19.657-.218,0-.436-.006-.655-.014a22.223,22.223,0,0,1-17.237-9.765,35.123,35.123,0,0,1-5.491.954,35.735,35.735,0,0,1-7.95-.134,23.242,23.242,0,0,1-1.32,14.831,15.75,15.75,0,0,1-12.876,9.192,46.085,46.085,0,0,1-5.72.257A90.311,90.311,0,0,0,197.935,148.5Zm33.224-6.6a15.155,15.155,0,0,0-6.537,1.855,40.447,40.447,0,0,0-10.107,7.169,42.906,42.906,0,0,0,12.28-2.38,40.865,40.865,0,0,0,9.136-4.571,5.75,5.75,0,0,0-1.841-1.432A6.507,6.507,0,0,0,231.159,141.907Zm-40.533,3.127a38.573,38.573,0,0,0,4.985,2.56,93.148,93.148,0,0,1,1.189-9.351c-1.852-.02-3.757-.039-5.609.078q-.894.059-1.782.165A25.808,25.808,0,0,1,190.626,145.034Zm-6.817-5.4q.55.571,1.127,1.108a34.919,34.919,0,0,0,3.141,2.587,22.715,22.715,0,0,0-.932-4.115c-.039-.12-.078-.241-.12-.361C185.946,139.065,184.869,139.325,183.809,139.639ZM175.84,124.5a32.307,32.307,0,0,0,6.252,13.175,38.429,38.429,0,0,1,4.025-1.063C184.128,132.346,180.735,128.349,175.84,124.5Zm-38.989,11.628c9.872,1.832,21.075-4.358,24.611-14.182a21.16,21.16,0,0,0,1.113-4.887,21.932,21.932,0,0,0-5.251-.923c-8.89-.467-17.872,6.249-20,14.907A17.864,17.864,0,0,0,136.851,136.131Zm38.46-15c6.518,4.708,10.87,9.659,13.228,15.072q1.246-.172,2.5-.252c2.039-.131,4.1-.106,6.084-.078h.112q.432-2.249.915-4.464c1.625-7.53,3.687-15.338,7.6-22.121a28.672,28.672,0,0,1-5.041-3.992,31.6,31.6,0,0,1-5.494-7.418h-.056a19.7,19.7,0,0,0-14.414,5.76c-4.825,5.046-5.684,11.3-5.555,15.648C175.21,119.9,175.249,120.513,175.311,121.129Zm32.5-10.66c-3.757,6.509-5.757,14.1-7.34,21.438-.285,1.318-.562,2.649-.822,3.986a43.71,43.71,0,0,0,5-.243,13.289,13.289,0,0,0,11-7.838,21.315,21.315,0,0,0,.9-14.249A33.24,33.24,0,0,1,207.813,110.468ZM138.135,88.649c-1.765,4.235-5,7.511-8.123,10.686-2.588,2.624-5.262,5.337-6.976,8.509a18.774,18.774,0,0,0-.585,15.656,20.166,20.166,0,0,0,11.617,11.88c.123.045.246.087.369.129a20.557,20.557,0,0,1,.582-5.03,22.627,22.627,0,0,1,22.423-16.717,23.747,23.747,0,0,1,5.259.876,25.473,25.473,0,0,0-12.677-21.833A47.916,47.916,0,0,0,138.135,88.649ZM266.4,117.07c4.16,5.223,9.421,8.764,14.977,10.042a19.91,19.91,0,0,0,8.154.151,36.114,36.114,0,0,0,5.511-9.046c2.422-6.6.811-12.5-1.729-20.113a28.438,28.438,0,0,0-9.6-12.009c-1.284,1.348-1.877,3.432-2.45,5.455-2.655,9.349-5.939,16.054-10.358,21.2A31.974,31.974,0,0,1,266.4,117.07ZM285.9,84.784a31.341,31.341,0,0,1,9.628,12.479c2.193,6.557,4.635,13.886,1.74,21.774a31.167,31.167,0,0,1-3.925,7.072,15.894,15.894,0,0,0,6.031-4.378c7.158-8.585,2.94-21.729-2.848-30.379-1.947-2.909-5.351-6.087-8.568-6.63A4.909,4.909,0,0,0,285.9,84.784ZM235.008,112.44a20,20,0,0,0,14.882,8.118c.285.011.576.014.85.011a24.983,24.983,0,0,0-4.19-15.2A29.842,29.842,0,0,1,235.008,112.44ZM79.722,85.88a43.568,43.568,0,0,0,2.769,26.258c1.088,2.462,2.683,5.469,5.407,6.884a10.005,10.005,0,0,0,8.56-.215,15.037,15.037,0,0,0,7.888-9.156,17.733,17.733,0,0,0-.923-13.852c-4.132-7.67-14.247-11.947-23.506-9.961C79.85,85.849,79.786,85.866,79.722,85.88Zm85.334,29.528a40.59,40.59,0,0,1,7.762,4.009l0-.062c-.207-6.893,1.941-12.9,6.213-17.366a21.846,21.846,0,0,1,15.038-6.47,35.851,35.851,0,0,1-2.28-7.164c-3.438.187-6.806.151-9.986.045-5.592-.19-11.981-.688-17.022-4.238-5.013-3.53-7.983-11.192-4.232-16.543,2.45-3.5,6.479-4.61,10.565-5.444q-2.069-.5-4.112-1.066c-3.348-.937-14.224-4.655-13.542-13.128.215-2.671,1.656-5.265,4.4-7.933a31.574,31.574,0,0,1,6.023-4.565c-13.869-1.39-27.942,5.469-37.033,13.044a39.254,39.254,0,0,0-8.048,9.021,27.3,27.3,0,0,1,15.824,9.989c4.322,5.732,5.883,12.778,4.274,18.851a49.926,49.926,0,0,1,12.277,4.336A27.935,27.935,0,0,1,165.056,115.408ZM274.422,82.94a13.169,13.169,0,0,0-3.438.453c-5.754,1.536-10.333,7.276-11.139,13.95-.691,5.729,1.13,12.037,5.136,17.819A29.847,29.847,0,0,0,269.1,111.2c4.188-4.873,7.318-11.293,9.849-20.2a16.35,16.35,0,0,1,2.7-6.154A15.478,15.478,0,0,0,274.422,82.94Zm-56,28.549a33.437,33.437,0,0,0,8.425.269,33.04,33.04,0,0,0,4.431-.719,20.577,20.577,0,0,1-1.93-5.343,21.194,21.194,0,0,1,.369-9.981c-5.69.09-11.514,2.767-16.238,7.36a20.542,20.542,0,0,1,2.291,2.9A24.4,24.4,0,0,1,218.426,111.489Zm-9.36-3.046a30.68,30.68,0,0,0,6.6,2.481,21.336,21.336,0,0,0-1.888-3.648,18.51,18.51,0,0,0-1.941-2.478,32.1,32.1,0,0,0-2.106,2.666C209.505,107.786,209.281,108.113,209.066,108.443Zm23.139-12.6a18.774,18.774,0,0,0-.526,9.363,17.853,17.853,0,0,0,1.98,5.172,27.512,27.512,0,0,0,11.463-6.951l-.028-.036A19.877,19.877,0,0,0,232.205,95.847Zm-34.116,2.2a27.985,27.985,0,0,0,4.3,5.558,26.37,26.37,0,0,0,4.6,3.653c.257-.394.526-.789.8-1.172a34.449,34.449,0,0,1,2.325-2.934A22.942,22.942,0,0,0,198.089,98.051Zm34.972-4.487a22.277,22.277,0,0,1,13.654,8.056q.545-.684,1.035-1.4a25.857,25.857,0,0,0,3.53-19.38c-.652.193-1.3.378-1.955.559a44.239,44.239,0,0,0-7.125,2.442A19.533,19.533,0,0,0,233.061,93.564Zm-36.3,1.98c.294.02.59.039.887.07a25.386,25.386,0,0,1,14.118,5.821c5.4-5.273,12.135-8.291,18.761-8.093A21.883,21.883,0,0,1,241.168,81.7a45.862,45.862,0,0,1,7.514-2.59c.683-.193,1.357-.383,2.022-.579l-.025-.084c-1.969-6.546-6.274-11.6-11.819-13.861a27.868,27.868,0,0,0-11.435-1.765c-.943,8.909-7.835,17.4-17.573,21.659a49.557,49.557,0,0,1-15.561,3.7A33.4,33.4,0,0,0,196.758,95.545ZM176.863,63.4c-1.259.316-2.543.568-3.815.817-4.3.839-8.358,1.631-10.554,4.767-2.864,4.087-.431,10.356,3.656,13.234,4.5,3.172,10.481,3.625,15.732,3.8,3.029.1,6.23.143,9.494-.025a39.013,39.013,0,0,1,2.708-20.7A116.869,116.869,0,0,1,176.863,63.4Zm19.852,1.961a37.337,37.337,0,0,0-2.842,20.468A47.588,47.588,0,0,0,208.9,82.3c8.828-3.855,15.111-11.421,16.115-19.357-2.82.2-5.667.6-8.481,1-1.379.193-2.755.386-4.118.557A114.35,114.35,0,0,1,196.716,65.362Zm-79.147-5.651c-2.2,4.327-3.027,8.993-1.256,13.419,2.534,6.339,9.6,9.642,15.077,11.3,1.712.518,3.452.959,5.2,1.39,1.4-5.337-.031-11.768-3.863-16.848A25.087,25.087,0,0,0,117.569,59.711Zm111.067.708a29,29,0,0,1,11.122,1.964c6.213,2.537,11.021,8.14,13.2,15.377l.017.05c2.853-.99,5.388-2.28,7.169-4.557,2.6-3.329,2.915-8.549.769-12.991-1.813-3.765-5.2-7.091-10.065-9.891a41.372,41.372,0,0,0-28.219-4.437,25.857,25.857,0,0,1,4.912,14.5C227.906,60.425,228.269,60.419,228.636,60.419ZM197.9,62.993a104.354,104.354,0,0,0,14.219-.853c1.351-.168,2.713-.358,4.084-.551,2.965-.417,5.969-.839,8.96-1.043a23.665,23.665,0,0,0-5.063-14.04,36.519,36.519,0,0,0-17.472,9.986A31.51,31.51,0,0,0,197.9,62.993Zm-16.493-1.242a114.684,114.684,0,0,0,13.774,1.2,35.019,35.019,0,0,1,5.72-8.1,38.938,38.938,0,0,1,17.43-10.445,27.852,27.852,0,0,0-2.129-2.048c-5.248-4.54-12.389-7.595-21.226-9.083a48.657,48.657,0,0,0-23.489,1.351,35.236,35.236,0,0,1,3.981,1.539c4.926,2.257,8.543,5.444,10.465,9.214,2.4,4.716,1.874,10.434-1.284,13.9A11.638,11.638,0,0,1,181.409,61.751ZM167.8,36.1a30.214,30.214,0,0,0-8.288,5.653C157.2,44,156,46.1,155.831,48.172c-.428,5.292,5.821,8.971,11.813,10.647q4.507,1.263,9.139,2.146a12.215,12.215,0,0,0,6.112-3.281c2.506-2.753,2.887-7.365.92-11.22-2.115-4.154-6.244-6.716-9.335-8.132A33.028,33.028,0,0,0,167.8,36.1Z" transform="translate(80 0)" fill="#fff"/>
      </g>
    </g>
  </g>
</svg>
