<svg xmlns="http://www.w3.org/2000/svg" width="310" height="221.434" viewBox="0 0 310 221.434">
  <g id="グループ_9166" data-name="グループ 9166" transform="translate(-0.5 -37.439)">
    <path id="パス_4356" data-name="パス 4356" d="M35.068,0H274.932C294.3,0,310,15.194,310,33.937s-15.7,33.937-35.068,33.937H35.068C15.7,67.873,0,52.679,0,33.937S15.7,0,35.068,0Z" transform="translate(0.5 191)" fill="#ffda2b"/>
    <path id="パス_5558" data-name="パス 5558" d="M-112.88-14.04c0-1.3-.62-1.84-1.86-1.84h-10.52c-1.24,0-1.86.54-1.86,1.84V-1.16c0,1.28.62,1.82,1.86,1.82h10.52c1.24,0,1.86-.54,1.86-1.82Zm-12.64,5.4v-5.12c0-.46.24-.6.68-.6h9.68c.44,0,.68.14.68.6v5.12Zm0,1.5h11.04v5.68c0,.46-.24.6-.68.6h-9.68c-.44,0-.68-.14-.68-.6ZM-104.26-.3c0,1.04.54,1.48,1.66,1.48h10.82c.32,0,.5-.26.5-.6s-.18-.58-.5-.58h-5.16V-1.56h4.42c.26,0,.42-.28.42-.58s-.16-.56-.42-.56h-4.42V-4.08h4.42c.26,0,.42-.28.42-.58s-.16-.56-.42-.56h-4.42V-6.64h4.92a.5.5,0,0,0,.52-.56.5.5,0,0,0-.52-.56h-4.72a5.607,5.607,0,0,0,.48-.72.735.735,0,0,0,.1-.32c0-.2-.14-.38-.46-.48a.987.987,0,0,0-.3-.06.612.612,0,0,0-.58.44,7.664,7.664,0,0,1-.68,1.14h-2.62a6.973,6.973,0,0,0-1.42.14,6.722,6.722,0,0,0,.48-.76.707.707,0,0,0,.12-.38c0-.2-.12-.38-.46-.52a1,1,0,0,0-.32-.06c-.28,0-.44.18-.58.48a9.979,9.979,0,0,1-2.94,3.54.578.578,0,0,0-.24.3,38.348,38.348,0,0,0,.28-4.52h12.02c1.2,0,1.7-.34,1.7-1.44v-1.18c0-1.14-.5-1.5-1.7-1.5h-11.78c-1.2,0-1.76.4-1.76,1.58,0,4.74-.16,6.74-.54,8.46A12.027,12.027,0,0,1-109.36.14a1.147,1.147,0,0,0-.18.58.71.71,0,0,0,.38.6.934.934,0,0,0,.48.14.766.766,0,0,0,.64-.42,15.5,15.5,0,0,0,1.66-4.72c.06-.32.12-.64.16-.96a.944.944,0,0,0,.14.34.591.591,0,0,0,.48.28.782.782,0,0,0,.48-.2,9.907,9.907,0,0,0,1.04-1.02,7.079,7.079,0,0,0-.18,1.42Zm1.44-2.4V-4.08h4.48V-2.7Zm0,1.14h4.48V0h-3.9c-.4,0-.58-.1-.58-.48Zm4.48-5.08v1.42h-4.48v-.94c0-.38.18-.48.58-.48Zm-7.54-4.12v-1.18c0-.42.24-.5.64-.5h10.98c.4,0,.62.06.62.48v.72c0,.4-.22.48-.62.48Zm-2.2-5.54c-.36,0-.54.26-.54.66s.18.66.54.66h16.52c.34,0,.54-.28.54-.68,0-.38-.2-.64-.54-.64Zm20.28,2.4c0,2.14.02,4.48.14,6.08a13.74,13.74,0,0,0,1.68,6.38,2.863,2.863,0,0,0,2.42,1.4,2.827,2.827,0,0,0,2.22-1.18A8.967,8.967,0,0,0-79.88-5.3a.554.554,0,0,0,.02-.18.752.752,0,0,0-.76-.78.68.68,0,0,0-.2-.02c-.42,0-.64.22-.72.72a7.589,7.589,0,0,1-.98,3.04,1.256,1.256,0,0,1-1.14.62,1.549,1.549,0,0,1-1.22-.9,14,14,0,0,1-1.14-5.14c-.06-.92-.08-2.12-.08-3.4V-13.9c0-.5-.16-.84-.8-.84A.805.805,0,0,0-87.8-13.9Zm11.46.32a.726.726,0,0,0-.42.66.981.981,0,0,0,.16.5,20.086,20.086,0,0,1,3.3,9.5.777.777,0,0,0,.82.78.9.9,0,0,0,.22-.02.844.844,0,0,0,.7-.96v-.14a21.263,21.263,0,0,0-3.62-10.06.786.786,0,0,0-.68-.4A.885.885,0,0,0-76.34-13.58ZM-59.46,1.08c0,.4.28.6.72.6.5,0,.76-.2.76-.6V-10.34c.7-.08,1.42-.16,2.12-.28.22,4.7,1.22,8.64,3.64,11.74a.776.776,0,0,0,.62.3.824.824,0,0,0,.54-.2.835.835,0,0,0,.32-.64.775.775,0,0,0-.2-.52,14.057,14.057,0,0,1-2.88-5.84A26.024,26.024,0,0,0-50.96-7.8a.76.76,0,0,0,.32-.6.7.7,0,0,0-.22-.5.729.729,0,0,0-.54-.26.883.883,0,0,0-.56.24,13.119,13.119,0,0,1-2.16,1.66,24.622,24.622,0,0,1-.34-3.62,20.525,20.525,0,0,0,2.74-.78.7.7,0,0,0,.5-.66.908.908,0,0,0-.08-.36.686.686,0,0,0-.64-.42.906.906,0,0,0-.32.06,29.272,29.272,0,0,1-9.58,1.62v-1.6c0-.44.18-.66.58-.68a33.833,33.833,0,0,0,8.86-1.5.8.8,0,0,0,.54-.74.657.657,0,0,0-.08-.34.686.686,0,0,0-.64-.44.8.8,0,0,0-.3.06,31.075,31.075,0,0,1-8.9,1.6c-1.1.04-1.54.54-1.54,1.74v2.14c0,5.22-.42,8.66-2.02,11.4a.989.989,0,0,0-.14.48.683.683,0,0,0,.4.62.9.9,0,0,0,.38.1A.792.792,0,0,0-64,1c1.6-2.8,2.12-6.14,2.16-11.08l2.38-.12Zm-7.7-17.42a.787.787,0,0,0-.42-.12.885.885,0,0,0-.66.3.808.808,0,0,0-.18.5.625.625,0,0,0,.26.5,17.2,17.2,0,0,1,2.44,2.08.746.746,0,0,0,.54.24.906.906,0,0,0,.6-.26.8.8,0,0,0,.22-.52.889.889,0,0,0-.26-.6A14.889,14.889,0,0,0-67.16-16.34Zm-.92,4.94a.84.84,0,0,0-.42-.12.908.908,0,0,0-.66.32.7.7,0,0,0-.18.46.6.6,0,0,0,.26.5A20.583,20.583,0,0,1-66.54-8.2a.86.86,0,0,0,.56.22.778.778,0,0,0,.58-.26.716.716,0,0,0,.22-.5.828.828,0,0,0-.3-.62A18.557,18.557,0,0,0-68.08-11.4Zm2.26,5.72a1.016,1.016,0,0,0-.34-.06.649.649,0,0,0-.64.44A29.127,29.127,0,0,1-69.16,0a1.063,1.063,0,0,0-.2.58.668.668,0,0,0,.36.58.912.912,0,0,0,.44.12.822.822,0,0,0,.72-.42,35.18,35.18,0,0,0,2.52-5.62,1.171,1.171,0,0,0,.04-.26A.682.682,0,0,0-65.82-5.68ZM-37-11.4v-.98h3.52c.98,0,1.46-.38,1.46-1.18v-1.16c0-.82-.48-1.2-1.46-1.2H-37v-.6c0-.32-.26-.48-.66-.48-.42,0-.68.16-.68.48v.6h-3.4c-.98,0-1.46.38-1.46,1.2v1.16c0,.8.48,1.18,1.46,1.18h3.4v.98h-5.8a.491.491,0,0,0-.5.56.491.491,0,0,0,.5.56H-31.3a.491.491,0,0,0,.5-.56.491.491,0,0,0-.5-.56Zm0-2.06V-14.8h3.1c.36,0,.52.1.52.4v.54c0,.3-.16.4-.52.4Zm-1.34,0h-3c-.36,0-.52-.1-.52-.4v-.54c0-.3.16-.4.52-.4h3ZM-46.42-2.54A16.9,16.9,0,0,1-49.2-.18a.668.668,0,0,0-.3.56.87.87,0,0,0,.14.46.694.694,0,0,0,.62.36.766.766,0,0,0,.38-.1A17.547,17.547,0,0,0-45.7-1.26,4.536,4.536,0,0,0-42.58.96a21.713,21.713,0,0,0,4.26.28c2.38,0,4.96-.08,7-.16.52-.04.76-.3.76-.74V.28a.627.627,0,0,0-.7-.68h-.12c-2.04.16-4.36.26-6.82.26a21.78,21.78,0,0,1-3.9-.24,3.584,3.584,0,0,1-2.82-2.06V-7.3c0-1.06-.44-1.58-1.46-1.58h-2.4c-.36,0-.6.24-.6.7a.576.576,0,0,0,.6.66h1.88c.36,0,.48.12.48.52Zm-1.1-13.74a.755.755,0,0,0-.48-.18.85.85,0,0,0-.54.22.787.787,0,0,0-.3.56.557.557,0,0,0,.2.42,25.416,25.416,0,0,1,2.52,2.92.668.668,0,0,0,.56.3.824.824,0,0,0,.54-.2.754.754,0,0,0,.32-.58.863.863,0,0,0-.2-.54A17.925,17.925,0,0,0-47.52-16.28Zm6.16,11.26v-.96h7.18c1.02,0,1.5-.38,1.5-1.18V-8.22c0-.82-.48-1.18-1.48-1.18h-7.08c-1.04,0-1.52.36-1.52,1.26V-2.8c0,1,.48,1.38,1.52,1.38h7.74c1.02,0,1.5-.36,1.5-1.18V-3.84c0-.82-.48-1.18-1.5-1.18Zm0-2.04v-.86c0-.3.16-.4.5-.4h6.28c.36,0,.52.1.52.4v.5c0,.28-.16.36-.52.36Zm0,3.12h7.44c.36,0,.52.1.52.4v.64c0,.28-.16.38-.52.38h-6.92c-.34,0-.52-.1-.52-.44Zm25.06.34a13.382,13.382,0,0,0,4.38,4.8.762.762,0,0,0,.44.14.841.841,0,0,0,.7-.38.991.991,0,0,0,.16-.52.673.673,0,0,0-.32-.62,13.31,13.31,0,0,1-4.44-4.76c.14-.24.28-.48.42-.74,1.38-2.64,2.08-5.22,2.22-9.92v-.04a.694.694,0,0,0-.76-.72c-.52,0-.8.24-.82.7-.1,3.98-.7,6.84-1.98,9.26-1.74,3.3-4.48,5-7.52,6.28a.731.731,0,0,0-.52.68,1.068,1.068,0,0,0,.1.4.706.706,0,0,0,.7.44,1.261,1.261,0,0,0,.44-.1A15.665,15.665,0,0,0-16.3-3.6Zm-9.1-12.18c0-.38-.36-.58-.8-.58-.46,0-.82.2-.82.58l.08,12.56c-.56.2-1.14.38-1.68.56a.675.675,0,0,0-.52.68.906.906,0,0,0,.06.32.783.783,0,0,0,.72.6,1.376,1.376,0,0,0,.26-.04,42.687,42.687,0,0,0,8.44-3.98.736.736,0,0,0,.36-.62.9.9,0,0,0-.12-.42.7.7,0,0,0-.6-.34.7.7,0,0,0-.42.14,32.982,32.982,0,0,1-4.9,2.48Zm3.1,1.1a.733.733,0,0,0-.32.6.62.62,0,0,0,.18.44,21.666,21.666,0,0,1,3,4.02.631.631,0,0,0,.58.32,1.029,1.029,0,0,0,.56-.18.839.839,0,0,0,.38-.7.91.91,0,0,0-.1-.4,24.04,24.04,0,0,0-3.18-4.06.79.79,0,0,0-.56-.24A.788.788,0,0,0-22.3-14.68ZM-1.32-12.7c.28,0,.4.12.4.36a.75.75,0,0,1-.02.2A22.882,22.882,0,0,1-2.42-7.1a17.886,17.886,0,0,0-2.1-1.96A.755.755,0,0,0-5-9.24a.692.692,0,0,0-.54.28.746.746,0,0,0-.18.46.656.656,0,0,0,.28.52A15.387,15.387,0,0,1-3.12-5.72,16.951,16.951,0,0,1-8.42,0a.746.746,0,0,0-.34.64.863.863,0,0,0,.18.52.806.806,0,0,0,.66.34.921.921,0,0,0,.54-.18A18.882,18.882,0,0,0,.34-11.12a14.261,14.261,0,0,0,2.62,4V1.02c0,.38.3.62.78.62s.78-.24.78-.62v-6.9A16.365,16.365,0,0,0,8.1-3.46a1.068,1.068,0,0,0,.4.1.719.719,0,0,0,.68-.5,1.075,1.075,0,0,0,.1-.42.735.735,0,0,0-.44-.7A17.222,17.222,0,0,1,4.52-7.76v-8.4c0-.4-.3-.62-.78-.62s-.78.22-.78.62v6.98a15.748,15.748,0,0,1-2.02-3.4A1.688,1.688,0,0,0-.88-14.1H-3.96c.22-.64.4-1.28.58-1.92a.554.554,0,0,0,.02-.18.691.691,0,0,0-.66-.64.75.75,0,0,0-.2-.02.686.686,0,0,0-.74.54,18.417,18.417,0,0,1-4.2,8.36.79.79,0,0,0-.24.56.738.738,0,0,0,.26.56.86.86,0,0,0,.56.22.81.81,0,0,0,.6-.28A20.616,20.616,0,0,0-4.5-12.7Zm22.22-.72a5.662,5.662,0,0,1,5.76,5.96A5.682,5.682,0,0,1,24.48-2.8a9.182,9.182,0,0,1-4,1.44.779.779,0,0,0-.72.78.68.68,0,0,0,.02.2.774.774,0,0,0,.84.7A.9.9,0,0,0,20.84.3a10.769,10.769,0,0,0,4.2-1.44,7.075,7.075,0,0,0,3.3-6.28c0-4.4-3.12-7.48-7.84-7.48-5.46,0-8.94,3.6-8.94,8.58,0,3.36,1.66,5.38,3.74,5.38a3.262,3.262,0,0,0,2.3-.88,8.165,8.165,0,0,0,1.98-3.62A32.988,32.988,0,0,0,20.9-13.42Zm-1.66.06A30,30,0,0,1,17.98-6,6.962,6.962,0,0,1,16.6-3.26a1.839,1.839,0,0,1-1.34.58c-1.06,0-2.08-1.26-2.08-3.66C13.18-10.22,15.58-13.02,19.24-13.36Zm20.9,5.72c.06-.66.1-1.34.1-2.08,0-.38-.32-.6-.78-.6-.48,0-.76.22-.76.6a16.9,16.9,0,0,1-.12,2.08H33.36c-.36,0-.58.26-.58.68s.22.68.58.68h5c-.74,3.2-2.72,4.9-6.18,6.16a.7.7,0,0,0-.5.66.928.928,0,0,0,.08.38.7.7,0,0,0,.68.44,1.21,1.21,0,0,0,.44-.08c3.94-1.48,6.24-3.72,7.04-7.56h4.64c.4,0,.62.12.62.52a18.088,18.088,0,0,1-.64,4.66c-.2.62-.44.82-1.4.82A6.623,6.623,0,0,1,41.4-.54a.75.75,0,0,0-.2-.02.756.756,0,0,0-.72.54,1,1,0,0,0-.04.24.727.727,0,0,0,.54.72,9.547,9.547,0,0,0,2.36.28c1.48,0,2.22-.38,2.64-1.64a18.848,18.848,0,0,0,.78-5.62c0-1.16-.6-1.6-1.76-1.6Zm4.74-4.76a20.252,20.252,0,0,0,1.9-3.18.784.784,0,0,0,.08-.36.582.582,0,0,0-.44-.56,1.375,1.375,0,0,0-.48-.1.659.659,0,0,0-.64.46,21.178,21.178,0,0,1-2.14,3.74H33.12c-1.16,0-1.72.48-1.72,1.6v2.34c0,.36.3.58.76.58s.76-.22.76-.58V-10.5c0-.42.2-.54.6-.54h12.9c.42,0,.6.12.6.54v2.04c0,.36.3.58.76.58.48,0,.76-.22.76-.58V-10.8c0-1.12-.58-1.6-1.74-1.6ZM33.66-16.36a.7.7,0,0,0-.4.6.452.452,0,0,0,.1.3,24.411,24.411,0,0,1,1.36,2.14.75.75,0,0,0,.66.4.784.784,0,0,0,.36-.08.739.739,0,0,0,.44-.68.762.762,0,0,0-.08-.34,14.764,14.764,0,0,0-1.38-2.14.776.776,0,0,0-.62-.3A1.17,1.17,0,0,0,33.66-16.36Zm5.1-.42a.706.706,0,0,0-.46.58.645.645,0,0,0,.12.36,20.655,20.655,0,0,1,1.18,2.26.77.77,0,0,0,.74.46,1.109,1.109,0,0,0,.34-.06.651.651,0,0,0,.44-.62,1.016,1.016,0,0,0-.06-.34,18.7,18.7,0,0,0-1.24-2.32.864.864,0,0,0-.7-.4A.784.784,0,0,0,38.76-16.78ZM59.44-2.38h2.52c.3,0,.48-.3.48-.64s-.18-.58-.48-.58H59.44V-4.82h1.92c1.02,0,1.5-.4,1.5-1.44V-9.48c0-1.04-.48-1.44-1.5-1.44H59.44V-12.1h3c.32,0,.5-.26.5-.62,0-.34-.18-.6-.5-.6h-3v-1.36a18.7,18.7,0,0,0,2.68-.58.55.55,0,0,0,.44-.54.762.762,0,0,0-.08-.34.608.608,0,0,0-.58-.4,1.376,1.376,0,0,0-.26.04,23.8,23.8,0,0,1-5.78,1.02.51.51,0,0,0-.54.56v.04c.02.38.2.6.6.6h.06c.68-.06,1.44-.12,2.22-.22v1.18h-3c-.32,0-.5.26-.5.62,0,.34.18.6.5.6h3v1.18H56.38c-1.02,0-1.5.4-1.5,1.44v3.22c0,1.04.48,1.44,1.5,1.44H58.2V-3.6H55.3c-.3,0-.46.24-.46.58s.16.64.46.64h2.9V-.86c-1.06.1-2.14.18-3.12.2a.584.584,0,0,0-.6.66V.06a.63.63,0,0,0,.68.64h.04a59.831,59.831,0,0,0,6.46-.82.774.774,0,0,0,.5-.28q-.24.36-.48.66a.779.779,0,0,0-.22.52.624.624,0,0,0,.36.56.658.658,0,0,0,.38.12.956.956,0,0,0,.74-.44,16.5,16.5,0,0,0,2.64-6.78,45.59,45.59,0,0,0,.58-5.4h.92c.4,0,.6.1.6.56v.38A60.091,60.091,0,0,1,67.04-.8c-.14.72-.44.82-.82.82A5.48,5.48,0,0,1,65.2-.1.68.68,0,0,0,65-.12a.6.6,0,0,0-.6.54.974.974,0,0,0-.02.24.623.623,0,0,0,.52.64,6.89,6.89,0,0,0,1.48.14,1.8,1.8,0,0,0,2-1.64,63.921,63.921,0,0,0,.72-10.64c0-1.2-.56-1.7-1.74-1.7H66.22c.04-1.12.06-2.32.08-3.62,0-.38-.28-.6-.72-.6s-.72.22-.72.58c0,1.32-.02,2.52-.06,3.64H63.62c-.36,0-.56.28-.56.68,0,.42.2.7.56.7h1.12a42.471,42.471,0,0,1-.52,5.14A15.547,15.547,0,0,1,62.2-.44a.829.829,0,0,0,.06-.32V-.88a.509.509,0,0,0-.54-.46.254.254,0,0,0-.12.02c-.68.12-1.4.22-2.16.32ZM58.2-9.86v1.44H56.08V-9.4c0-.38.18-.46.54-.46Zm0,2.48v1.5H56.62c-.36,0-.54-.1-.54-.48V-7.38Zm1.24,1.5v-1.5h2.22v1.02c0,.38-.16.48-.54.48Zm0-2.54V-9.86h1.68c.38,0,.54.08.54.46v.98ZM52.12,1.16c0,.38.28.56.72.56.46,0,.76-.18.76-.56V-11.5a28.128,28.128,0,0,0,1.58-4.54,1.032,1.032,0,0,0,.04-.22c0-.32-.22-.52-.6-.6a.9.9,0,0,0-.22-.02.61.61,0,0,0-.64.52,21.692,21.692,0,0,1-3.44,7.78.628.628,0,0,0-.14.42.73.73,0,0,0,.3.58.8.8,0,0,0,.46.16.73.73,0,0,0,.6-.36A13.333,13.333,0,0,0,52.3-9.2a16.993,16.993,0,0,0-.18,2.4ZM72.66-12.6c-.46,0-.7.3-.7.78a.685.685,0,0,0,.7.78h5.8A14.633,14.633,0,0,1,76.7-4.78,11.735,11.735,0,0,1,71.92-.34a.789.789,0,0,0-.48.72.885.885,0,0,0,.14.48.734.734,0,0,0,.66.4,1.353,1.353,0,0,0,.54-.14A13.04,13.04,0,0,0,78.14-4a16.893,16.893,0,0,0,1.96-7.04h5.26c.74,0,.94.2.94.96a55.918,55.918,0,0,1-.66,8.46c-.16.82-.58,1.14-1.58,1.14a10.988,10.988,0,0,1-2.7-.38,1.544,1.544,0,0,0-.3-.04.724.724,0,0,0-.7.64,1.569,1.569,0,0,0-.04.28.766.766,0,0,0,.62.78,12.6,12.6,0,0,0,3.18.38c1.84,0,2.76-.72,3.04-2.14a55.1,55.1,0,0,0,.74-9.36v-.34c0-1.3-.68-1.94-2.14-1.94H80.22c.06-1.04.1-2.2.1-3.48,0-.56-.32-.76-.84-.76-.56,0-.82.2-.82.74,0,1.3-.04,2.46-.08,3.5ZM98.94-.62c0,1.24.48,1.7,1.74,1.7h7.74c.36,0,.54-.18.54-.64,0-.4-.18-.64-.54-.64h-3.68V-2.54h3.02c.34,0,.5-.22.5-.58,0-.34-.16-.58-.5-.58h-3.02V-5.8h3.04c.32,0,.5-.22.5-.58,0-.34-.18-.58-.5-.58h-3.04v-2.1h3.4c.34,0,.52-.2.52-.62,0-.38-.18-.6-.52-.6h-3.12a10.093,10.093,0,0,0,.68-1.54,1.032,1.032,0,0,0,.04-.22.593.593,0,0,0-.52-.56.507.507,0,0,0-.24-.04.591.591,0,0,0-.6.46,11,11,0,0,1-.8,1.9h-2.5a25.1,25.1,0,0,0,1.68-3.26h4.34c.46,0,.54.08.54.56v1.18c0,.38.26.56.72.56s.74-.18.74-.56v-1.44c0-1.16-.32-1.62-1.56-1.62h-4.3c.14-.42.28-.84.4-1.24a.554.554,0,0,0,.02-.18c0-.3-.24-.48-.62-.56a1.23,1.23,0,0,0-.26-.02.542.542,0,0,0-.6.5c-.14.5-.28,1-.44,1.5H99.18c-1.12,0-1.56.34-1.56,1.5v1.64c0,.36.24.56.68.56s.68-.2.68-.56v-1.26c0-.46.06-.56.54-.56h1.78a15.839,15.839,0,0,1-3.76,5.76.773.773,0,0,0-.22.54.793.793,0,0,0,.16.44.723.723,0,0,0,.56.3.61.61,0,0,0,.42-.18,6.336,6.336,0,0,0,.56-.66c-.04.58-.08,1.22-.08,1.8Zm1.4-3.08V-5.8h3.04v2.1Zm0,1.16h3.04V-.2H100.9c-.36,0-.56-.1-.56-.52Zm3.04-6.52v2.1h-3.04V-8.52c0-.42.1-.54.56-.54Zm-9.9-5.48a17.987,17.987,0,0,1-3,7.96.681.681,0,0,0-.16.46.73.73,0,0,0,.3.58.8.8,0,0,0,.46.16.731.731,0,0,0,.6-.32c.22-.36.44-.74.64-1.1a12.753,12.753,0,0,0-.18,1.96V-1.5c0,1.2.42,1.68,1.48,1.68h1.96c1.08,0,1.46-.46,1.46-1.66V-8.02c0-1.18-.38-1.68-1.46-1.68H94.2a1.69,1.69,0,0,0-.66.12,18.677,18.677,0,0,0,1.38-4.96h2.06c.36,0,.56-.28.56-.7,0-.4-.2-.68-.56-.68H91.52c-.38,0-.58.28-.58.7,0,.4.2.68.58.68ZM95.66-1.76c0,.44-.14.58-.5.58H94.02c-.36,0-.5-.14-.5-.58v-6c0-.44.14-.6.5-.6h1.14c.36,0,.5.16.5.6Zm25.9-7.76v1.98h-5.3c-.34,0-.56.3-.56.7,0,.38.22.72.56.72h4.62a14.644,14.644,0,0,1-5.3,4.8.721.721,0,0,0-.4.64.769.769,0,0,0,.16.48.8.8,0,0,0,.66.36.987.987,0,0,0,.46-.12,12.628,12.628,0,0,0,5.26-5.5,10.336,10.336,0,0,0-.16,1.78V1.1c0,.38.26.6.72.6s.72-.22.72-.6V-3.68a13.676,13.676,0,0,0-.14-1.82,12.731,12.731,0,0,0,5.36,5.46.885.885,0,0,0,.48.14.7.7,0,0,0,.66-.44.885.885,0,0,0,.14-.48.713.713,0,0,0-.42-.66,14.87,14.87,0,0,1-5.38-4.64h4.9c.34,0,.54-.34.54-.72,0-.4-.2-.7-.54-.7H123V-9.52h3.28c1.1,0,1.6-.48,1.6-1.46V-14.5c0-1-.5-1.48-1.6-1.48h-7.5c-1.1,0-1.62.5-1.62,1.5v3.5c0,.98.48,1.46,1.58,1.46ZM119.2-10.9c-.36,0-.56-.1-.56-.48v-2.7c0-.38.22-.5.6-.5h6.58c.38,0,.56.1.56.48v2.72c0,.38-.18.48-.56.48Zm-6.22,12c0,.38.3.58.76.58s.76-.2.76-.58V-11.64a26.4,26.4,0,0,0,1.76-4.3.431.431,0,0,0,.04-.22c0-.32-.22-.54-.6-.64a1.544,1.544,0,0,0-.3-.04.614.614,0,0,0-.66.5,19.106,19.106,0,0,1-4.22,7.9.7.7,0,0,0-.18.46.8.8,0,0,0,.3.6.775.775,0,0,0,.52.2.867.867,0,0,0,.64-.32,12.783,12.783,0,0,0,1.38-2.02,19.131,19.131,0,0,0-.2,2.56Z" transform="translate(155.5 232)"/>
    <g id="グループ_9307" data-name="グループ 9307" transform="translate(-375.697 -223.811)">
      <g id="グループ_9303" data-name="グループ 9303" transform="translate(530.061 261.25)">
        <path id="パス_4662" data-name="パス 4662" d="M878.044,262.588V271.7a1.385,1.385,0,0,0,2.769,0v-9.114a1.385,1.385,0,0,0-2.769,0Z" transform="translate(-878.044 -261.25)" fill="#ffdc64"/>
      </g>
      <g id="グループ_9304" data-name="グループ 9304" transform="translate(539.035 265.044)">
        <path id="パス_4663" data-name="パス 4663" d="M921.68,278.363l-4.557,7.893a1.386,1.386,0,0,0,2.391,1.4l4.557-7.893a1.386,1.386,0,0,0-2.391-1.4Z" transform="translate(-916.927 -277.691)" fill="#ffdc64"/>
      </g>
      <g id="グループ_9305" data-name="グループ 9305" transform="translate(516.516 265.045)">
        <path id="パス_4664" data-name="パス 4664" d="M819.548,279.762l4.557,7.893a1.386,1.386,0,0,0,2.391-1.4l-4.557-7.894a1.386,1.386,0,0,0-2.391,1.4Z" transform="translate(-819.351 -277.693)" fill="#ffdc64"/>
      </g>
      <g id="グループ_9306" data-name="グループ 9306" transform="translate(425.661 279.552)">
        <path id="パス_4665" data-name="パス 4665" d="M766.7,623.678a1.458,1.458,0,0,1,.356-.382q-2.748-2.45-5.524-4.868l-.006.006a3.121,3.121,0,0,0,0,5.085C762.688,624.278,765.73,625.166,766.7,623.678Z" transform="translate(-683.005 -554.301)" fill="#fff"/>
        <path id="パス_4666" data-name="パス 4666" d="M806.257,625.392c.955-1.649,2.55-4.46.481-5.9-1.562-.966-2.992-1.554-4.4-.054a16.864,16.864,0,0,0-2.416,3.511A9.343,9.343,0,0,0,798.534,627c-.008,1.418,1.534,2.567,2.779,2.971,1.691.548,2.4-.505,3.208-1.8C805.1,627.24,805.71,626.337,806.257,625.392Z" transform="translate(-712.483 -554.378)" fill="#fff"/>
        <path id="パス_4667" data-name="パス 4667" d="M765.358,468.947a24.419,24.419,0,0,0-3.165-3.65c-1.448-1.635-2.878-3.285-4.318-4.927q-4.288-4.888-8.583-9.77-4.8-5.456-9.607-10.906a1.449,1.449,0,0,1,.418-2.229c-.513-.424-1.032-.838-1.541-1.248-.019.043-.04.085-.064.128-2.482,4.455-5.8,8.221-11.091,8.957-2.442.34-5.161.011-6.928-1.886a5,5,0,0,1-.382-6.489c1.486-2.1,3.148-4.1,4.7-6.151.232-.307.465-.618.7-.93-5.538-.321-10.935,1.164-16.46,1.334-4.767.146-8.879-1.479-12.936-3.848a1.323,1.323,0,0,1-.394-1.969l-1.1-.416a1.484,1.484,0,0,1-.056.39c-3.137,11.232-6.318,22.591-10.416,33.556l1.219-.424a1.537,1.537,0,0,1,1.585-2.157,22.961,22.961,0,0,1,5.736,1.073,16.009,16.009,0,0,1,4.233,3.144c4.3,3.844,8.665,7.607,12.974,11.437.448-.725.916-1.4,1.35-1.98a7.419,7.419,0,0,1,3.633-3.046c1.807-.522,3.583.234,5.114,1.16a1.591,1.591,0,0,1,.16.1,1.567,1.567,0,0,1,.183.134,4.969,4.969,0,0,1,2.118,4.341,5.385,5.385,0,0,1,4.109.561,1.477,1.477,0,0,1,.309.171,1.5,1.5,0,0,1,.307.239c2.086,1.7,2.3,4.086,1.714,6.467a5.653,5.653,0,0,1,2.441.054,5.6,5.6,0,0,1,4.21,6.158c0,.041-.014.08-.02.121.015.011.03.021.044.033,2.365,1.977,5.681,2.108,7.241-.828.006-.013.014-.023.021-.035a42.116,42.116,0,0,1-5.427-4.127c-1.87-1.5-3.735-3-5.616-4.484-1.4-1.1.573-3.05,1.958-1.958,2.85,2.246,5.65,4.557,8.514,6.785,1.494,1.162,3.22,2.5,5.233,2.061a3.725,3.725,0,0,0,2.909-3.482c-.07-.065-.139-.13-.207-.2-1.4-1.368-2.807-2.693-4.241-4.027-1.7-1.584-3.195-3.364-4.96-4.887-1.352-1.167.615-3.117,1.958-1.958,1.434,1.237,2.689,2.625,4.017,3.968,1.17,1.184,2.485,2.2,3.656,3.387.546.552,1.157,1.214,1.822,1.829a1.368,1.368,0,0,1,.491.435c1.49,1.257,3.223,2.117,5.1,1a2.491,2.491,0,0,0,1.208-2.665c-.29-1.5-1.911-2.6-2.924-3.623-2.643-2.669-5.268-5.356-7.921-8.016a1.385,1.385,0,0,1,1.958-1.958c3.2,3.21,6.517,6.365,9.608,9.686a1.518,1.518,0,0,1,.243.14,3.622,3.622,0,0,0,5.4-.922A4.249,4.249,0,0,0,765.358,468.947Z" transform="translate(-624.482 -405.472)" fill="#fff"/>
        <path id="パス_4668" data-name="パス 4668" d="M1099.964,352.38c-.031.015-.062.03-.1.043l-6.623,2.594-28.653,11.222-15.929,6.239a7.432,7.432,0,0,1,1.466.868,1.252,1.252,0,0,1,1.72.145,27.7,27.7,0,0,1,5.329,8.482,68.627,68.627,0,0,1,4.755,20.832,72.78,72.78,0,0,1-.5,18.676l6.914-2.442,34.422-12.159,20.48-7.234Z" transform="translate(-904.889 -349.651)" fill="#64c8e6"/>
        <path id="パス_4669" data-name="パス 4669" d="M898.208,456.721c-1.153-6.458-3.05-13.79-8.111-18.345a1.263,1.263,0,0,1-.426-.732c-.085-.026-.171-.052-.258-.072a1.43,1.43,0,0,1-1.314,1.3,29.352,29.352,0,0,1-7.367-.148,45.729,45.729,0,0,1-7.811-2.35c-2.48-.884-4.96-1.772-7.474-2.556-1.217-.38-2.439-.728-3.642-1.152a5.312,5.312,0,0,0-3.42-.47c-1.935.64-3.32,2.684-4.522,4.22-1.362,1.74-2.654,3.535-4,5.288-1.133,1.475-3.323,3.337-1.69,5.22,1.417,1.633,4.094,1.341,5.961.835,3.712-1,5.928-4.148,7.71-7.346a1.387,1.387,0,0,1,2.455,1.269c.509.41,1.028.824,1.541,1.248a1.171,1.171,0,0,1,1.54.271q2.256,2.557,4.509,5.116c6.222,7.063,12.344,14.223,18.648,21.212a24.271,24.271,0,0,1,2.857,3.338,30.934,30.934,0,0,0,3.476-1.582,1.316,1.316,0,0,1,1.98.816c.242-.1.483-.208.72-.325A92.564,92.564,0,0,0,898.208,456.721Z" transform="translate(-750.216 -410.941)" fill="#fff"/>
        <path id="パス_4670" data-name="パス 4670" d="M1060.749,608.811q.061-2.31.032-4.629c-.237.117-.477.224-.719.325a1.311,1.311,0,0,1-.582,1.576,15.474,15.474,0,0,1-2.31,1.09,6.513,6.513,0,0,0,.46.988,1.409,1.409,0,0,1,2.612.181,22.781,22.781,0,0,0,2.127,4.951v-3.169A1.3,1.3,0,0,1,1060.749,608.811Z" transform="translate(-911.431 -543.343)" fill="#fff"/>
        <path id="パス_4671" data-name="パス 4671" d="M1035.876,490.818a1.435,1.435,0,0,1-1.172-1.7,56.751,56.751,0,0,0,.988-10.008,82.058,82.058,0,0,0-2.136-20.607c-1.349-5.659-3.344-11.78-7.467-16.064a1.368,1.368,0,0,1,.238-2.1,7.428,7.428,0,0,0-1.466-.868l-2.133.835a1.142,1.142,0,0,1-1.588-.788,10.758,10.758,0,0,0-3.421,2.383c.416-.026.832-.056,1.249-.092a1.206,1.206,0,0,1,1.314,1.466c.087.021.173.046.258.072a1.448,1.448,0,0,1,2.384-1.227c5.32,4.79,7.508,12.4,8.758,19.208a100.549,100.549,0,0,1,1.49,20.784,1.322,1.322,0,0,1-1.15,1.314v3.169c.652,1.172,1.366,2.308,2.069,3.4a1.324,1.324,0,0,1-1.054,2.025c.879.346,1.984-.506,2.959-.987A1.438,1.438,0,0,1,1035.876,490.818Z" transform="translate(-881.086 -416.641)" fill="#fff"/>
        <path id="パス_4672" data-name="パス 4672" d="M656.264,417.808c-.009.045-.018.089-.031.135-3.121,11.008-6.865,21.854-10.674,32.639-1.577,4.466-3.184,8.921-4.865,13.349q-.362.955-.722,1.916c1.84.18,3.593-1.477,4.6-3.283a1.466,1.466,0,0,1-.367-1.693c5.838-13.4,9.782-27.711,13.707-41.763a1.389,1.389,0,0,1,.3-.566Z" transform="translate(-590.513 -399.98)" fill="#fff"/>
        <path id="パス_4673" data-name="パス 4673" d="M494.843,365.985l-1.194-.45a1.262,1.262,0,0,1-1.679,1.369l-5.183-1.873L450.43,351.889a1.507,1.507,0,0,1-.382-.2l-16.616,50.308a1.558,1.558,0,0,1,.328.1q7.469,3.271,14.967,6.476c7.1,3.04,14.2,6.078,21.385,8.914,1.99.786,3.984,1.575,6.029,2.205.27-.561.553-1.164.736-1.6,3.281-7.767,6-15.8,8.765-23.76,3.212-9.258,6.372-18.558,9.046-27.989A1.481,1.481,0,0,1,494.843,365.985Z" transform="translate(-431.639 -349.117)" fill="#64c8e6"/>
        <path id="パス_4674" data-name="パス 4674" d="M616.8,648.647c-.009-.023.134-.206.145-.228l.012-.024C616.842,648.47,616.769,648.556,616.8,648.647Z" transform="translate(-572.686 -577.352)" fill="#64c8e6"/>
        <path id="パス_4675" data-name="パス 4675" d="M872.7,675.817a3.4,3.4,0,0,0-3.853.963c-.2.385-.411.758-.619,1.114,0,.01-.008.019-.01.03a3.107,3.107,0,0,0,3.271,3.81C874.349,681.424,875.5,677.093,872.7,675.817Z" transform="translate(-765.994 -598.249)" fill="#fff"/>
        <path id="パス_4676" data-name="パス 4676" d="M838.521,651.719a5.764,5.764,0,0,1,.858-1.5c1.163-2.179,2.35-5.232.4-6.636-1.724-1.012-2.64-.439-3.755,1.039a30.648,30.648,0,0,0-2.715,3.806c-.881,1.644-.829,3.718,1,4.662a3.09,3.09,0,0,0,4.149-1.264Z" transform="translate(-738.806 -573.261)" fill="#fff"/>
        <path id="パス_4677" data-name="パス 4677" d="M800.072,428.513a5.448,5.448,0,0,1,1.275.144,1.206,1.206,0,0,0-1.314-1.466c-.417.036-.833.066-1.249.092a6.293,6.293,0,0,0-1.205,1.785,6.293,6.293,0,0,1,1.205-1.785,23.352,23.352,0,0,1-6.613-.381,75.671,75.671,0,0,1-8.565-2.815c-2.945-1.042-5.952-1.889-8.9-2.918-2.692-.94-5.033-1.129-7.409.674a15.078,15.078,0,0,0-2.278,2.2,1.424,1.424,0,0,0-.8-.331c-5.589-.568-11.04.852-16.59,1.205-4.67.3-8.486-1.1-12.469-3.425a1.3,1.3,0,0,0-1.792.422l3.1,1.168-3.1-1.168a1.323,1.323,0,0,0,.394,1.969c4.057,2.369,8.169,3.994,12.936,3.848,5.525-.169,10.922-1.655,16.46-1.334-.234.312-.466.624-.7.93-1.553,2.051-3.215,4.053-4.7,6.151a5,5,0,0,0,.382,6.489c1.767,1.9,4.486,2.227,6.928,1.886,5.292-.737,8.609-4.5,11.091-8.957.024-.043.045-.086.063-.128-.273-.22-.544-.439-.806-.658.262.219.533.438.806.658a1.387,1.387,0,0,0-2.455-1.269c-1.782,3.2-4,6.341-7.71,7.346-1.867.505-4.544.8-5.961-.835-1.634-1.883.557-3.745,1.69-5.22,1.347-1.753,2.638-3.548,4-5.288,1.2-1.536,2.587-3.58,4.522-4.22a5.312,5.312,0,0,1,3.42.47c1.2.424,2.424.772,3.642,1.152,2.514.784,4.994,1.672,7.474,2.556a45.728,45.728,0,0,0,7.811,2.35,29.349,29.349,0,0,0,7.367.148,1.43,1.43,0,0,0,1.314-1.3A5.448,5.448,0,0,0,800.072,428.513Z" transform="translate(-662.15 -402.026)" fill="#2e2e2e"/>
        <path id="パス_4678" data-name="パス 4678" d="M1041.033,468.923c-1.25-6.8-3.438-14.418-8.758-19.208a1.448,1.448,0,0,0-2.384,1.227,3.594,3.594,0,0,1,1.513.892,3.594,3.594,0,0,0-1.513-.892,1.264,1.264,0,0,0,.426.732c5.061,4.556,6.958,11.888,8.111,18.345a92.564,92.564,0,0,1,1.358,15.059c.347-.172.69-.36,1.033-.566-.343.206-.686.394-1.033.566q.03,2.318-.032,4.629a1.3,1.3,0,0,0,1.619,1.314v0a1.322,1.322,0,0,0,1.15-1.314A100.557,100.557,0,0,0,1041.033,468.923Z" transform="translate(-890.436 -424.239)" fill="#2e2e2e"/>
        <path id="パス_4679" data-name="パス 4679" d="M1086.477,340.656l-18.062,7.074-28.653,11.223-6.623,2.594a1.489,1.489,0,0,0-.852,1.882c.211-.095.423-.184.636-.264-.213.08-.425.169-.636.264a1.142,1.142,0,0,0,1.588.788l2.133-.835a8.49,8.49,0,0,0-1.423-.494,8.49,8.49,0,0,1,1.423.494l15.929-6.239,28.653-11.222,6.623-2.594c.033-.013.064-.028.1-.043l-.7-1.43.7,1.43C1088.823,342.576,1088.106,340.018,1086.477,340.656Z" transform="translate(-892.233 -340.555)" fill="#2e2e2e"/>
        <path id="パス_4680" data-name="パス 4680" d="M1127.054,468.251l-1.028.363.713,1.447-.713-1.447-20.48,7.234-34.422,12.159-6.914,2.442a72.774,72.774,0,0,0,.5-18.676,68.624,68.624,0,0,0-4.755-20.832,27.7,27.7,0,0,0-5.33-8.482,1.252,1.252,0,0,0-1.72-.145,6.255,6.255,0,0,1,2.1,2.792,6.255,6.255,0,0,0-2.1-2.792,1.368,1.368,0,0,0-.239,2.1c4.123,4.284,6.119,10.405,7.467,16.064a82.052,82.052,0,0,1,2.136,20.607,56.716,56.716,0,0,1-.988,10.008,1.435,1.435,0,0,0,1.172,1.7,1.454,1.454,0,0,0,.122.216,3.08,3.08,0,0,1,.734-.273,3.08,3.08,0,0,0-.734.273,1.151,1.151,0,0,0,1.421.442l21.507-7.6,34.422-12.159,7.861-2.777C1129.459,470.332,1128.741,467.655,1127.054,468.251Z" transform="translate(-907.667 -418.619)" fill="#2e2e2e"/>
        <path id="パス_4681" data-name="パス 4681" d="M544.406,355.975l2.755,1.039a1.388,1.388,0,0,0-.942-1.3l-36.358-13.141-5.183-1.873c-1.532-.554-2.267,1.624-1.119,2.467l.582-1.764-.582,1.764a1.508,1.508,0,0,0,.382.2L540.3,356.509l5.183,1.873a1.262,1.262,0,0,0,1.678-1.369Z" transform="translate(-485.151 -340.596)" fill="#2e2e2e"/>
        <path id="パス_4682" data-name="パス 4682" d="M699.535,411.6l2.547.961A1.4,1.4,0,0,0,699.535,411.6Z" transform="translate(-636.331 -394.727)" fill="#2e2e2e"/>
        <path id="パス_4683" data-name="パス 4683" d="M488.865,413.646a1.48,1.48,0,0,0-.155.36c-2.674,9.431-5.834,18.731-9.046,27.989-2.762,7.961-5.484,15.993-8.765,23.76-.183.433-.466,1.036-.736,1.6-2.045-.63-4.04-1.419-6.029-2.205-7.183-2.836-14.287-5.874-21.385-8.914q-7.5-3.211-14.967-6.476a1.555,1.555,0,0,0-.328-.1l-.587,1.777.587-1.777c-1.467-.286-2.588,1.828-1.069,2.494,11.768,5.153,23.561,10.281,35.486,15.061,2.412.967,4.834,1.985,7.32,2.749a3.781,3.781,0,0,0,2.008.276c.752-.207,1.109-.943,1.423-1.587.945-1.941,1.731-3.973,2.5-6a3.106,3.106,0,0,1-1.54-.61,3.106,3.106,0,0,0,1.54.61c.241-.64.481-1.28.722-1.916,1.681-4.427,3.287-8.883,4.865-13.349,3.81-10.785,7.553-21.631,10.674-32.639.013-.046.023-.091.031-.135Zm-18.941,54.2c-.011.022-.153.205-.145.229-.035-.092.038-.177.156-.252Z" transform="translate(-425.661 -396.778)" fill="#2e2e2e"/>
        <path id="パス_4684" data-name="パス 4684" d="M719.015,419.625l2.422.913A1.426,1.426,0,0,0,719.015,419.625Z" transform="translate(-651.315 -401.062)" fill="#2e2e2e"/>
        <path id="パス_4685" data-name="パス 4685" d="M674.3,421.9l-2.422-.913a1.385,1.385,0,0,0-.3.566c-3.925,14.052-7.87,28.363-13.707,41.763a1.466,1.466,0,0,0,.367,1.693,7.237,7.237,0,0,0,.786-2.035,7.237,7.237,0,0,1-.786,2.035,1.194,1.194,0,0,0,2.024-.3c1.272-2.919,2.453-5.88,3.57-8.869l-2.124.739,2.124-.739c4.1-10.965,7.279-22.323,10.416-33.556A1.484,1.484,0,0,0,674.3,421.9Z" transform="translate(-604.184 -402.428)" fill="#2e2e2e"/>
        <path id="パス_4686" data-name="パス 4686" d="M773.983,508.542a11.917,11.917,0,0,0,2.678-.77,1.316,1.316,0,0,0-1.98-.816,30.929,30.929,0,0,1-3.476,1.582,24.283,24.283,0,0,0-2.857-3.338c-6.3-6.989-12.426-14.15-18.648-21.212q-2.254-2.559-4.509-5.116a1.171,1.171,0,0,0-1.54-.271,20.032,20.032,0,0,1,2.638,2.525,20.032,20.032,0,0,0-2.638-2.525,1.449,1.449,0,0,0-.418,2.229q4.808,5.449,9.607,10.906,4.295,4.882,8.583,9.77c1.44,1.641,2.87,3.292,4.318,4.927a24.435,24.435,0,0,1,3.165,3.65,4.25,4.25,0,0,1,.236,3.652,3.622,3.622,0,0,1-5.4.922,1.522,1.522,0,0,0-.243-.14c-3.091-3.32-6.406-6.475-9.608-9.686a1.385,1.385,0,0,0-1.958,1.958c2.653,2.66,5.278,5.346,7.921,8.016,1.013,1.023,2.634,2.118,2.924,3.623a2.491,2.491,0,0,1-1.208,2.665c-1.877,1.119-3.61.259-5.1-1a1.368,1.368,0,0,0-.491-.435c-.665-.615-1.276-1.277-1.822-1.829-1.17-1.183-2.485-2.2-3.656-3.387-1.328-1.343-2.584-2.732-4.017-3.969-1.343-1.159-3.311.792-1.958,1.958,1.765,1.523,3.257,3.3,4.96,4.886,1.433,1.333,2.84,2.659,4.241,4.027.068.066.137.132.207.2a3.726,3.726,0,0,1-2.909,3.482c-2.013.44-3.739-.9-5.233-2.061-2.864-2.229-5.664-4.539-8.514-6.785-1.385-1.091-3.358.855-1.958,1.958,1.882,1.483,3.746,2.986,5.616,4.484a42.115,42.115,0,0,0,5.427,4.127c-.007.012-.015.023-.021.035-1.56,2.936-4.876,2.8-7.241.828l-.044-.033c.006-.041.015-.08.02-.121a5.6,5.6,0,0,0-6.651-6.213c.583-2.381.371-4.766-1.714-6.467a1.5,1.5,0,0,0-.307-.239,1.479,1.479,0,0,0-.309-.171,5.385,5.385,0,0,0-4.109-.561,4.969,4.969,0,0,0-2.118-4.341,1.54,1.54,0,0,0-.183-.134,1.562,1.562,0,0,0-.16-.1c-1.531-.925-3.307-1.681-5.114-1.16a7.42,7.42,0,0,0-3.633,3.046c-.434.584-.9,1.254-1.35,1.98-4.309-3.83-8.677-7.594-12.974-11.437a16.01,16.01,0,0,0-4.233-3.144,22.961,22.961,0,0,0-5.736-1.073A1.537,1.537,0,0,0,688.9,499.6l2.339-.814-2.339.814a1.108,1.108,0,0,0,.848.513,22.3,22.3,0,0,1,5.4.934c1.527.633,2.779,2.06,3.984,3.137q2.65,2.369,5.33,4.7a5.884,5.884,0,0,0,.445,9.158,8.461,8.461,0,0,0,6.385,1.269,5.216,5.216,0,0,0,.2,1.325c.861,2.961,4.892,5.227,7.84,4.242a5.424,5.424,0,0,0,2.808,3.943,5.747,5.747,0,0,0,5.555.023,5.989,5.989,0,0,0,5.542,4.011,1.48,1.48,0,0,0,.292,0,1.548,1.548,0,0,0,.327-.048,6.194,6.194,0,0,0,4.186-2.578c3.613,2.4,8.434,2.206,10.7-2.052a1.459,1.459,0,0,0,.159-.479,6.637,6.637,0,0,0,7.511-4.358c2.222,1.2,4.779,1.5,7.08-.214a5.084,5.084,0,0,0,2-4.973c2.962.247,6.093-1.4,6.632-4.626a7.861,7.861,0,0,0,0-2.367c.535-.273,1.093-.5,1.651-.727a6.558,6.558,0,0,1-.339-1.341,6.558,6.558,0,0,0,.339,1.341,15.464,15.464,0,0,0,2.31-1.09,1.31,1.31,0,0,0,.582-1.576A11.917,11.917,0,0,1,773.983,508.542Zm-62.26,7.442c-.968,1.488-4.01.6-5.174-.159a3.121,3.121,0,0,1,0-5.085l.006-.005q2.77,2.425,5.524,4.868A1.461,1.461,0,0,0,711.724,515.984Zm8.346,4.411c-.806,1.3-1.518,2.351-3.208,1.8-1.245-.4-2.787-1.553-2.78-2.971a9.344,9.344,0,0,1,1.385-4.046,16.859,16.859,0,0,1,2.416-3.511c1.412-1.5,2.842-.912,4.4.054,2.068,1.437.474,4.248-.481,5.9C721.258,518.566,720.645,519.469,720.07,520.4Zm8.534,3.172a5.764,5.764,0,0,0-.858,1.5l-.066.11a3.09,3.09,0,0,1-4.149,1.264c-1.825-.944-1.877-3.017-1-4.662a30.66,30.66,0,0,1,2.715-3.806c1.115-1.478,2.031-2.051,3.755-1.039C730.953,518.336,729.766,521.389,728.6,523.568Zm4.918,6.524a3.107,3.107,0,0,1-3.271-3.81c0-.01.007-.019.01-.029.208-.356.417-.729.619-1.114a3.4,3.4,0,0,1,3.853-.963C737.539,525.452,736.385,529.782,733.521,530.092Z" transform="translate(-628.031 -446.607)" fill="#2e2e2e"/>
        <path id="パス_4687" data-name="パス 4687" d="M1065.591,627.306c-.7-1.095-1.417-2.231-2.069-3.4v0a22.786,22.786,0,0,1-2.127-4.951,1.409,1.409,0,0,0-2.612-.181,7.1,7.1,0,0,0,2.246,2.378,7.1,7.1,0,0,1-2.246-2.378,1.3,1.3,0,0,0-.058.918,34.193,34.193,0,0,0,4.475,9.016,1.323,1.323,0,0,0,1.337.627,1.507,1.507,0,0,1-.738-.706,1.507,1.507,0,0,0,.738.706A1.324,1.324,0,0,0,1065.591,627.306Z" transform="translate(-912.585 -553.951)" fill="#2e2e2e"/>
      </g>
    </g>
  </g>
</svg>
