<svg xmlns="http://www.w3.org/2000/svg" width="310" height="190.456" viewBox="0 0 310 190.456">
  <g id="グループ_9168" data-name="グループ 9168" transform="translate(-0.5 -68.418)">
    <path id="パス_4356" data-name="パス 4356" d="M35.068,0H274.932C294.3,0,310,15.194,310,33.937s-15.7,33.937-35.068,33.937H35.068C15.7,67.873,0,52.679,0,33.937S15.7,0,35.068,0Z" transform="translate(0.5 191)" fill="#ffda2b"/>
    <path id="パス_5560" data-name="パス 5560" d="M-89.86-7.64c.06-.66.1-1.34.1-2.08,0-.38-.32-.6-.78-.6-.48,0-.76.22-.76.6a16.894,16.894,0,0,1-.12,2.08h-5.22c-.36,0-.58.26-.58.68s.22.68.58.68h5c-.74,3.2-2.72,4.9-6.18,6.16a.7.7,0,0,0-.5.66.927.927,0,0,0,.08.38.7.7,0,0,0,.68.44,1.209,1.209,0,0,0,.44-.08c3.94-1.48,6.24-3.72,7.04-7.56h4.64c.4,0,.62.12.62.52a18.088,18.088,0,0,1-.64,4.66c-.2.62-.44.82-1.4.82A6.623,6.623,0,0,1-88.6-.54a.75.75,0,0,0-.2-.02.756.756,0,0,0-.72.54,1,1,0,0,0-.04.24.727.727,0,0,0,.54.72,9.547,9.547,0,0,0,2.36.28c1.48,0,2.22-.38,2.64-1.64a18.848,18.848,0,0,0,.78-5.62c0-1.16-.6-1.6-1.76-1.6Zm4.74-4.76a20.252,20.252,0,0,0,1.9-3.18.784.784,0,0,0,.08-.36.582.582,0,0,0-.44-.56,1.375,1.375,0,0,0-.48-.1.659.659,0,0,0-.64.46,21.178,21.178,0,0,1-2.14,3.74H-96.88c-1.16,0-1.72.48-1.72,1.6v2.34c0,.36.3.58.76.58s.76-.22.76-.58V-10.5c0-.42.2-.54.6-.54h12.9c.42,0,.6.12.6.54v2.04c0,.36.3.58.76.58.48,0,.76-.22.76-.58V-10.8c0-1.12-.58-1.6-1.74-1.6Zm-11.22-3.96a.7.7,0,0,0-.4.6.452.452,0,0,0,.1.3,24.411,24.411,0,0,1,1.36,2.14.75.75,0,0,0,.66.4.784.784,0,0,0,.36-.08.739.739,0,0,0,.44-.68.762.762,0,0,0-.08-.34,14.764,14.764,0,0,0-1.38-2.14.776.776,0,0,0-.62-.3A1.17,1.17,0,0,0-96.34-16.36Zm5.1-.42a.706.706,0,0,0-.46.58.645.645,0,0,0,.12.36,20.655,20.655,0,0,1,1.18,2.26.77.77,0,0,0,.74.46,1.109,1.109,0,0,0,.34-.06.651.651,0,0,0,.44-.62,1.016,1.016,0,0,0-.06-.34,18.7,18.7,0,0,0-1.24-2.32.864.864,0,0,0-.7-.4A.784.784,0,0,0-91.24-16.78ZM-68.12-4.4A6.924,6.924,0,0,1-72.56.14a.65.65,0,0,0-.42.62.762.762,0,0,0,.08.34.692.692,0,0,0,.66.46.928.928,0,0,0,.38-.08A8.676,8.676,0,0,0-66.6-4.4h2.94c.42,0,.58.1.58.48v.06a11.433,11.433,0,0,1-.56,3.18c-.24.58-.48.7-1.3.7a4.763,4.763,0,0,1-1.3-.2.554.554,0,0,0-.18-.02.628.628,0,0,0-.6.54.9.9,0,0,0-.02.22.633.633,0,0,0,.52.64,6.141,6.141,0,0,0,1.78.2c1.4,0,2.02-.38,2.38-1.32a14.027,14.027,0,0,0,.8-4.26v-.1c0-.98-.52-1.48-1.56-1.48h-3.16c.08-.46.16-.94.22-1.44v-.08c0-.36-.28-.58-.72-.6h-.06c-.44,0-.68.2-.72.58-.06.54-.12,1.06-.22,1.54H-71.3c-.36,0-.58.26-.58.68,0,.4.22.68.58.68Zm6.78-9.22c.3,0,.52-.28.52-.68,0-.38-.22-.66-.52-.66h-6.28a8.721,8.721,0,0,0,.52-1.24.584.584,0,0,0,.04-.18.586.586,0,0,0-.5-.54,1.97,1.97,0,0,0-.34-.04.568.568,0,0,0-.6.4A10.78,10.78,0,0,1-71.38-12a.639.639,0,0,0-.2.46.664.664,0,0,0,.24.5.738.738,0,0,0,.52.24.762.762,0,0,0,.54-.26,10.821,10.821,0,0,0,1.32-1.6,10.612,10.612,0,0,0,2.1,2.54A13.394,13.394,0,0,1-70.2-8.44a.6.6,0,0,0-.44.6,1.17,1.17,0,0,0,.04.26.613.613,0,0,0,.6.5.987.987,0,0,0,.3-.06,12.649,12.649,0,0,0,3.94-2.1A15.57,15.57,0,0,0-61.44-7.1a1,1,0,0,0,.24.04.7.7,0,0,0,.66-.56,1.376,1.376,0,0,0,.04-.26.644.644,0,0,0-.52-.66,15.686,15.686,0,0,1-3.7-1.64,10.755,10.755,0,0,0,2.2-3.44Zm-2.66,0a8,8,0,0,1-1.82,2.64,9.919,9.919,0,0,1-2.28-2.64Zm-9.9,4.7h1.4c.24,0,.34.08.34.22a.88.88,0,0,1-.04.2,6.889,6.889,0,0,1-1,1.74.736.736,0,0,0-.16.42.616.616,0,0,0,.28.48.879.879,0,0,0,.44.14.693.693,0,0,0,.56-.32,12.136,12.136,0,0,0,1.3-2.48,1.7,1.7,0,0,0,.14-.66c0-.68-.5-1.08-1.3-1.08h-2.34a.659.659,0,0,0,.26-.14.76.76,0,0,0,.3-.58.576.576,0,0,0-.18-.42l-.24-.24a11.915,11.915,0,0,0,2.82-2.52,1.4,1.4,0,0,0,.34-.88,1.135,1.135,0,0,0-1.24-1.1h-6.06c-.34,0-.56.26-.56.66,0,.42.22.68.58.68h5.14c.22,0,.34.08.34.2a.416.416,0,0,1-.1.24,10.134,10.134,0,0,1-2.16,1.82,16.842,16.842,0,0,0-1.28-1.1.814.814,0,0,0-.48-.16.775.775,0,0,0-.52.2.653.653,0,0,0-.24.46.467.467,0,0,0,.2.4,16.481,16.481,0,0,1,2.4,2.28.663.663,0,0,0,.28.2h-4.06c-.34,0-.56.24-.56.66,0,.4.22.68.56.68h3.08A16.74,16.74,0,0,1-79.3-3a.718.718,0,0,0-.2.48.81.81,0,0,0,.22.54.781.781,0,0,0,.54.24.714.714,0,0,0,.54-.24A17.113,17.113,0,0,0-75.16-7.1c-.06.7-.1,1.4-.1,1.96l.02,4.68c0,.52-.16.66-.76.66A5.224,5.224,0,0,1-77.14.04a.554.554,0,0,0-.18-.02c-.3,0-.48.18-.56.54a1,1,0,0,0-.04.24.627.627,0,0,0,.54.64,7.462,7.462,0,0,0,1.64.14c1.32,0,1.92-.56,1.92-1.58Zm22.84-4.36V-1.84h-7.56c-.38,0-.6.34-.6.76,0,.46.22.82.6.82h17.26c.38,0,.58-.36.58-.82,0-.42-.2-.76-.58-.76h-8.02V-13.28h6.68c.38,0,.6-.36.6-.78,0-.44-.22-.78-.6-.78H-57.32c-.38,0-.6.34-.6.78s.22.78.6.78Zm29.72,1.42c.36,0,.56-.28.56-.68,0-.42-.22-.7-.58-.7h-5.42A22.62,22.62,0,0,0-26-16.08a.75.75,0,0,0,.02-.2c0-.34-.22-.56-.62-.62a.82.82,0,0,0-.22-.02.6.6,0,0,0-.66.56A18.414,18.414,0,0,1-30.7-8.5a.8.8,0,0,0-.18.48.621.621,0,0,0,.28.5.755.755,0,0,0,.48.18.693.693,0,0,0,.56-.32,15.03,15.03,0,0,0,1.04-1.72,17.077,17.077,0,0,0,2.1,5.98A12.674,12.674,0,0,1-30.56.06a.669.669,0,0,0-.36.62.839.839,0,0,0,.14.48.771.771,0,0,0,.64.34.839.839,0,0,0,.48-.14,15.573,15.573,0,0,0,4.08-3.5,17.231,17.231,0,0,0,3.7,3.5.951.951,0,0,0,.46.14.8.8,0,0,0,.64-.34.929.929,0,0,0,.2-.58.7.7,0,0,0-.3-.58,15.735,15.735,0,0,1-3.8-3.4,17.912,17.912,0,0,0,2.28-8.46Zm-2.54,0a16.117,16.117,0,0,1-1.68,7.1,19.776,19.776,0,0,1-2.02-6.46,6.18,6.18,0,0,0,.28-.64Zm-6.1,6.74c.36,0,.56-.26.56-.66,0-.38-.2-.64-.56-.64h-4.68a7.276,7.276,0,0,0,.32-.72.456.456,0,0,0,.06-.22c0-.24-.22-.42-.56-.5a1.544,1.544,0,0,0-.3-.04.563.563,0,0,0-.56.42c-.14.36-.3.72-.46,1.06H-38.9c-.36,0-.54.26-.54.64,0,.4.18.66.54.66h2.08A11.972,11.972,0,0,1-37.7-3.9a1.2,1.2,0,0,0-.32.78.833.833,0,0,0,.68.8,18.439,18.439,0,0,1,2.2.8A10.581,10.581,0,0,1-38.76.16a.621.621,0,0,0-.52.62,1.569,1.569,0,0,0,.04.28.69.69,0,0,0,.68.52,1.171,1.171,0,0,0,.26-.04A11.669,11.669,0,0,0-33.82-.92,19.887,19.887,0,0,1-31.96.14a.815.815,0,0,0,.36.1.727.727,0,0,0,.64-.42.84.84,0,0,0,.12-.42.631.631,0,0,0-.36-.58A16.545,16.545,0,0,0-32.78-2a8.214,8.214,0,0,0,1.5-3.12Zm-2.7,0a6.6,6.6,0,0,1-1.36,2.56c-.72-.28-1.42-.54-2.04-.72-.22-.06-.32-.12-.32-.22a.623.623,0,0,1,.18-.3,10.112,10.112,0,0,0,.9-1.32Zm-.96-7.76v-3.56c0-.34-.26-.52-.68-.52-.44,0-.7.18-.7.52v3.56h-3.84c-.32,0-.5.28-.5.64,0,.34.18.6.5.6h2.98a9.8,9.8,0,0,1-3.14,2.92.59.59,0,0,0-.34.52.893.893,0,0,0,.1.36.631.631,0,0,0,.58.36.84.84,0,0,0,.42-.12,10.6,10.6,0,0,0,3.36-3.58,6.95,6.95,0,0,0-.12,1.2v1.44c0,.34.26.52.7.52.42,0,.68-.18.68-.52V-9.92a9.743,9.743,0,0,0-.1-1.26,7.649,7.649,0,0,0,2,2.28.874.874,0,0,0,.42.14.657.657,0,0,0,.52-.32.815.815,0,0,0,.1-.36.6.6,0,0,0-.3-.52,7.544,7.544,0,0,1-1.9-1.68h2.82a.539.539,0,0,0,.52-.6c0-.36-.2-.64-.52-.64Zm3.22-3.46a.928.928,0,0,0-.38-.08.517.517,0,0,0-.5.32,9.089,9.089,0,0,1-1.16,1.92.532.532,0,0,0-.12.32.566.566,0,0,0,.3.48.808.808,0,0,0,.44.14.56.56,0,0,0,.46-.24,10.193,10.193,0,0,0,1.3-2.04.785.785,0,0,0,.06-.28A.558.558,0,0,0-30.42-16.34Zm-7.78.06a.6.6,0,0,0-.3.5.539.539,0,0,0,.1.3,9.393,9.393,0,0,1,1.06,1.88.491.491,0,0,0,.46.24,1.068,1.068,0,0,0,.4-.1.688.688,0,0,0,.36-.56.554.554,0,0,0-.02-.18,9.721,9.721,0,0,0-1.12-2,.609.609,0,0,0-.48-.22A.87.87,0,0,0-38.2-16.28Zm29.1,2.86A5.662,5.662,0,0,1-3.34-7.46,5.682,5.682,0,0,1-5.52-2.8a9.182,9.182,0,0,1-4,1.44.779.779,0,0,0-.72.78.68.68,0,0,0,.02.2.774.774,0,0,0,.84.7A.9.9,0,0,0-9.16.3a10.769,10.769,0,0,0,4.2-1.44,7.075,7.075,0,0,0,3.3-6.28c0-4.4-3.12-7.48-7.84-7.48-5.46,0-8.94,3.6-8.94,8.58,0,3.36,1.66,5.38,3.74,5.38a3.262,3.262,0,0,0,2.3-.88,8.165,8.165,0,0,0,1.98-3.62A32.988,32.988,0,0,0-9.1-13.42Zm-1.66.06A30,30,0,0,1-12.02-6,6.962,6.962,0,0,1-13.4-3.26a1.839,1.839,0,0,1-1.34.58c-1.06,0-2.08-1.26-2.08-3.66C-16.82-10.22-14.42-13.02-10.76-13.36Zm29.16,2.8c.4,0,.62-.36.62-.8,0-.42-.22-.76-.62-.76H10.48c.1-1.2.14-2.48.14-3.88,0-.44-.3-.68-.8-.68-.48,0-.82.2-.82.68,0,1.48-.04,2.76-.12,3.88H1.64c-.4,0-.62.34-.62.76,0,.44.22.8.62.8H8.72A13.534,13.534,0,0,1,7.18-5.64,11.778,11.778,0,0,1,1.24-.38.733.733,0,0,0,.8.28.912.912,0,0,0,.92.72a.811.811,0,0,0,.74.5,1.068,1.068,0,0,0,.4-.1A13.863,13.863,0,0,0,8.5-4.78a14.48,14.48,0,0,0,1.42-3.7,15.539,15.539,0,0,0,2.64,5.12,16.055,16.055,0,0,0,5.32,4.38,1.147,1.147,0,0,0,.5.12A.822.822,0,0,0,19.1.72a1.06,1.06,0,0,0,.16-.54A.717.717,0,0,0,18.8-.5a14.884,14.884,0,0,1-5.04-3.9,15.08,15.08,0,0,1-3.12-6.16Zm6.64-2.82v-2.98c0-.38-.26-.58-.7-.58-.42,0-.68.2-.68.58v2.98H22.52c-1.04,0-1.5.44-1.5,1.62v8.7c0,.32.3.5.66.5.38,0,.68-.18.68-.5V-11.5c0-.4.18-.5.5-.5h.8V1.16c0,.38.28.56.68.56s.7-.18.7-.56V-12h.86c.32,0,.52.1.52.5v6.78c0,.28-.06.38-.28.38a3.592,3.592,0,0,1-.44-.04h-.08a.62.62,0,0,0-.56.58v.12a.655.655,0,0,0,.5.66,4,4,0,0,0,.88.08c.86,0,1.3-.44,1.3-1.46v-7.36c0-1.18-.48-1.62-1.52-1.62Zm13.58-1.54c.34,0,.52-.3.52-.68,0-.36-.18-.64-.52-.64H28.76c-.34,0-.52.28-.52.64,0,.38.18.68.52.68ZM30.9-13.64c-1.08,0-1.6.4-1.6,1.38v1.84c0,1,.52,1.4,1.6,1.4h5.54c1.1,0,1.62-.4,1.62-1.4v-1.84c0-.98-.52-1.38-1.62-1.38Zm.38,3.44c-.36,0-.54-.12-.54-.46V-12c0-.36.18-.46.54-.46h4.78c.36,0,.54.1.54.46v1.34c0,.34-.18.46-.54.46ZM30.3-7.76c-1.2,0-1.74.46-1.74,1.56V-.46c0,1.12.54,1.56,1.74,1.56h6.86c1.2,0,1.72-.44,1.72-1.56V-6.2c0-1.1-.52-1.56-1.72-1.56Zm3.98,3.72V-6.46h2.6c.38,0,.58.1.58.5v1.92Zm0,3.8V-2.8h3.18V-.74c0,.4-.2.5-.6.5Zm-1.36.02H30.58c-.42,0-.62-.12-.62-.52V-2.78h2.96ZM29.96-4.04V-5.96c0-.4.2-.5.58-.5h2.38v2.42Zm24.8-6.92c.76,0,1,.14,1,.8v.08a45.153,45.153,0,0,1-.52,6.4c-.36,1.96-.76,2.28-1.8,2.28a7.948,7.948,0,0,1-2.1-.3,1.569,1.569,0,0,0-.28-.04.687.687,0,0,0-.7.6,1.14,1.14,0,0,0-.02.26.807.807,0,0,0,.54.8,9.62,9.62,0,0,0,2.76.36c1.94,0,2.84-.86,3.26-3.52a56.408,56.408,0,0,0,.56-7.2,1.908,1.908,0,0,0-2.16-2.1l-5.48.02c.04-1,.08-1.88.1-2.88a.789.789,0,0,0-.88-.8.734.734,0,0,0-.84.78c0,.98-.02,1.84-.08,2.9l-4.88.02a.7.7,0,0,0-.76.8.663.663,0,0,0,.74.76H48a15.713,15.713,0,0,1-1.08,4.78,10.725,10.725,0,0,1-4.56,5.12.85.85,0,0,0-.44.74.762.762,0,0,0,.14.44.815.815,0,0,0,.7.42,1.071,1.071,0,0,0,.52-.14,12.387,12.387,0,0,0,5.14-5.78,17.325,17.325,0,0,0,1.28-5.6Zm9.36-.1a.722.722,0,0,0-.52.66.5.5,0,0,0,.08.28,26.78,26.78,0,0,1,1.6,4.06.685.685,0,0,0,.7.5,1,1,0,0,0,.32-.06.68.68,0,0,0,.56-.66,1.775,1.775,0,0,0-.04-.3,26.7,26.7,0,0,0-1.66-4.14.713.713,0,0,0-.66-.42A.867.867,0,0,0,64.12-11.06Zm4.22-.8a.74.74,0,0,0-.52.64.564.564,0,0,0,.08.3,23.217,23.217,0,0,1,1.5,3.96.643.643,0,0,0,.68.46,1.97,1.97,0,0,0,.34-.04.709.709,0,0,0,.54-.68.68.68,0,0,0-.02-.2,20.761,20.761,0,0,0-1.56-4.08.747.747,0,0,0-.68-.44A.784.784,0,0,0,68.34-11.86Zm7.18.34h-.1a.674.674,0,0,0-.74.62,13.921,13.921,0,0,1-2.16,6.48A10.436,10.436,0,0,1,66.64-.68a.661.661,0,0,0-.56.66,1.544,1.544,0,0,0,.04.3.711.711,0,0,0,.72.54A.9.9,0,0,0,67.06.8a11.625,11.625,0,0,0,6.72-4.24,14.742,14.742,0,0,0,2.5-7.18v-.14C76.28-11.2,76.02-11.44,75.52-11.52ZM87.1-8.44a55.083,55.083,0,0,1,9,3.56,1.075,1.075,0,0,0,.42.1.86.86,0,0,0,.8-.58,1.209,1.209,0,0,0,.08-.44.874.874,0,0,0-.54-.84,60.053,60.053,0,0,0-9.76-3.58v-5.14c0-.56-.38-.78-.88-.78-.54,0-.88.22-.88.76V.16c0,.54.34.76.88.76.5,0,.88-.22.88-.76Z" transform="translate(155.5 232)"/>
    <g id="グループ_9312" data-name="グループ 9312" transform="translate(9.102 7)">
      <g id="グループ_9311" data-name="グループ 9311" transform="translate(-1363.867 -109.856)">
        <path id="パス_4752" data-name="パス 4752" d="M1424.7,194.438h18.858l2.163-2.849a1.986,1.986,0,0,1-.18-.142l-11.359-10.158H1412.31v42.8h7.458a1.6,1.6,0,0,1,1.026.338l2.216-2.92V196.126A1.713,1.713,0,0,1,1424.7,194.438Z" transform="translate(-6.623 -6.633)" fill="#fff"/>
        <path id="パス_4753" data-name="パス 4753" d="M1405.688,217.453v-42.8h21.871l11.359,10.158a2,2,0,0,0,.18.142c1.606,1.129,3.773-1.13,2.208-2.53l-5.956-5.326c-1.956-1.75-3.846-3.761-5.956-5.326a3.614,3.614,0,0,0-2.465-.494H1404a1.713,1.713,0,0,0-1.689,1.689v46.174A1.713,1.713,0,0,0,1404,220.83h9.147a1.718,1.718,0,0,0,1.026-3.04,1.6,1.6,0,0,0-1.026-.338Z" fill="#323232"/>
        <path id="パス_4754" data-name="パス 4754" d="M1453.993,273.017h32.735V239.937l-10.864-9.716h-21.871v42.8Zm7.671-27.962H1479.3a1.69,1.69,0,0,1,0,3.377h-17.639A1.69,1.69,0,0,1,1461.664,245.055Zm.18,7.2h17.638a1.69,1.69,0,0,1,0,3.377h-17.638A1.69,1.69,0,0,1,1461.844,252.255Zm17.818,10.577h-17.638a1.69,1.69,0,0,1,0-3.377h17.638A1.69,1.69,0,0,1,1479.662,262.831Zm-5.288-28.78a1.69,1.69,0,0,1,3.377,0V237.5h4.432a1.69,1.69,0,0,1,0,3.377h-6.121a1.713,1.713,0,0,1-1.689-1.689Z" transform="translate(-34.228 -39.039)" fill="#fff"/>
        <path id="パス_4755" data-name="パス 4755" d="M1482.988,231.357l-5.956-5.326c-1.956-1.75-3.846-3.761-5.956-5.326a3.616,3.616,0,0,0-2.465-.494h-22.93a1.713,1.713,0,0,0-1.689,1.689v46.174a1.713,1.713,0,0,0,1.689,1.689h36.112a1.713,1.713,0,0,0,1.689-1.689V232.831A1.434,1.434,0,0,0,1482.988,231.357Zm-35.618-7.77h21.871l10.864,9.716v33.081H1447.37v-42.8Z" transform="translate(-27.605 -32.406)" fill="#323232"/>
        <path id="パス_4756" data-name="パス 4756" d="M1473.507,277.521h17.638a1.69,1.69,0,0,0,0-3.377h-17.638A1.69,1.69,0,0,0,1473.507,277.521Z" transform="translate(-46.071 -68.128)" fill="#64c8e6"/>
        <path id="パス_4757" data-name="パス 4757" d="M1474.039,298.838h17.638a1.69,1.69,0,0,0,0-3.377h-17.638A1.69,1.69,0,0,0,1474.039,298.838Z" transform="translate(-46.424 -82.245)" fill="#64c8e6"/>
        <path id="パス_4758" data-name="パス 4758" d="M1492.211,316.778h-17.638a1.69,1.69,0,0,0,0,3.377h17.638A1.69,1.69,0,0,0,1492.211,316.778Z" transform="translate(-46.777 -96.363)" fill="#64c8e6"/>
        <path id="パス_4759" data-name="パス 4759" d="M1516.028,245.187h6.121a1.69,1.69,0,0,0,0-3.377h-4.432v-3.444a1.69,1.69,0,0,0-3.377,0V243.5A1.713,1.713,0,0,0,1516.028,245.187Z" transform="translate(-74.193 -43.353)" fill="#323232"/>
      </g>
      <g id="グループ_9310" data-name="グループ 9310" transform="translate(-66 37.5)">
        <line id="線_56" data-name="線 56" x1="35.103" y2="38.5" transform="translate(131.25 42.5)" fill="none" stroke="#ffd526" stroke-linecap="round" stroke-width="6"/>
        <line id="線_57" data-name="線 57" x1="35.103" y1="38.5" transform="translate(131.25 42.5)" fill="none" stroke="#ffd526" stroke-linecap="round" stroke-width="6"/>
      </g>
    </g>
    <g id="グループ_9313" data-name="グループ 9313" transform="translate(86.102 7)">
      <g id="グループ_9311-2" data-name="グループ 9311" transform="translate(-1363.867 -109.856)">
        <path id="パス_4752-2" data-name="パス 4752" d="M1424.7,194.438h18.858l2.163-2.849a1.986,1.986,0,0,1-.18-.142l-11.359-10.158H1412.31v42.8h7.458a1.6,1.6,0,0,1,1.026.338l2.216-2.92V196.126A1.713,1.713,0,0,1,1424.7,194.438Z" transform="translate(-6.623 -6.633)" fill="#fff"/>
        <path id="パス_4753-2" data-name="パス 4753" d="M1405.688,217.453v-42.8h21.871l11.359,10.158a2,2,0,0,0,.18.142c1.606,1.129,3.773-1.13,2.208-2.53l-5.956-5.326c-1.956-1.75-3.846-3.761-5.956-5.326a3.614,3.614,0,0,0-2.465-.494H1404a1.713,1.713,0,0,0-1.689,1.689v46.174A1.713,1.713,0,0,0,1404,220.83h9.147a1.718,1.718,0,0,0,1.026-3.04,1.6,1.6,0,0,0-1.026-.338Z" fill="#323232"/>
        <path id="パス_4754-2" data-name="パス 4754" d="M1453.993,273.017h32.735V239.937l-10.864-9.716h-21.871v42.8Zm7.671-27.962H1479.3a1.69,1.69,0,0,1,0,3.377h-17.639A1.69,1.69,0,0,1,1461.664,245.055Zm.18,7.2h17.638a1.69,1.69,0,0,1,0,3.377h-17.638A1.69,1.69,0,0,1,1461.844,252.255Zm17.818,10.577h-17.638a1.69,1.69,0,0,1,0-3.377h17.638A1.69,1.69,0,0,1,1479.662,262.831Zm-5.288-28.78a1.69,1.69,0,0,1,3.377,0V237.5h4.432a1.69,1.69,0,0,1,0,3.377h-6.121a1.713,1.713,0,0,1-1.689-1.689Z" transform="translate(-34.228 -39.039)" fill="#fff"/>
        <path id="パス_4755-2" data-name="パス 4755" d="M1482.988,231.357l-5.956-5.326c-1.956-1.75-3.846-3.761-5.956-5.326a3.616,3.616,0,0,0-2.465-.494h-22.93a1.713,1.713,0,0,0-1.689,1.689v46.174a1.713,1.713,0,0,0,1.689,1.689h36.112a1.713,1.713,0,0,0,1.689-1.689V232.831A1.434,1.434,0,0,0,1482.988,231.357Zm-35.618-7.77h21.871l10.864,9.716v33.081H1447.37v-42.8Z" transform="translate(-27.605 -32.406)" fill="#323232"/>
        <path id="パス_4756-2" data-name="パス 4756" d="M1473.507,277.521h17.638a1.69,1.69,0,0,0,0-3.377h-17.638A1.69,1.69,0,0,0,1473.507,277.521Z" transform="translate(-46.071 -68.128)" fill="#64c8e6"/>
        <path id="パス_4757-2" data-name="パス 4757" d="M1474.039,298.838h17.638a1.69,1.69,0,0,0,0-3.377h-17.638A1.69,1.69,0,0,0,1474.039,298.838Z" transform="translate(-46.424 -82.245)" fill="#64c8e6"/>
        <path id="パス_4758-2" data-name="パス 4758" d="M1492.211,316.778h-17.638a1.69,1.69,0,0,0,0,3.377h17.638A1.69,1.69,0,0,0,1492.211,316.778Z" transform="translate(-46.777 -96.363)" fill="#64c8e6"/>
        <path id="パス_4759-2" data-name="パス 4759" d="M1516.028,245.187h6.121a1.69,1.69,0,0,0,0-3.377h-4.432v-3.444a1.69,1.69,0,0,0-3.377,0V243.5A1.713,1.713,0,0,0,1516.028,245.187Z" transform="translate(-74.193 -43.353)" fill="#323232"/>
      </g>
      <g id="グループ_9310-2" data-name="グループ 9310" transform="translate(-66 37.5)">
        <line id="線_56-2" data-name="線 56" x1="35.103" y2="38.5" transform="translate(131.25 42.5)" fill="none" stroke="#ffd526" stroke-linecap="round" stroke-width="6"/>
        <line id="線_57-2" data-name="線 57" x1="35.103" y1="38.5" transform="translate(131.25 42.5)" fill="none" stroke="#ffd526" stroke-linecap="round" stroke-width="6"/>
      </g>
    </g>
    <g id="グループ_9314" data-name="グループ 9314" transform="translate(163.102 7)">
      <g id="グループ_9311-3" data-name="グループ 9311" transform="translate(-1363.867 -109.856)">
        <path id="パス_4752-3" data-name="パス 4752" d="M1424.7,194.438h18.858l2.163-2.849a1.986,1.986,0,0,1-.18-.142l-11.359-10.158H1412.31v42.8h7.458a1.6,1.6,0,0,1,1.026.338l2.216-2.92V196.126A1.713,1.713,0,0,1,1424.7,194.438Z" transform="translate(-6.623 -6.633)" fill="#fff"/>
        <path id="パス_4753-3" data-name="パス 4753" d="M1405.688,217.453v-42.8h21.871l11.359,10.158a2,2,0,0,0,.18.142c1.606,1.129,3.773-1.13,2.208-2.53l-5.956-5.326c-1.956-1.75-3.846-3.761-5.956-5.326a3.614,3.614,0,0,0-2.465-.494H1404a1.713,1.713,0,0,0-1.689,1.689v46.174A1.713,1.713,0,0,0,1404,220.83h9.147a1.718,1.718,0,0,0,1.026-3.04,1.6,1.6,0,0,0-1.026-.338Z" fill="#323232"/>
        <path id="パス_4754-3" data-name="パス 4754" d="M1453.993,273.017h32.735V239.937l-10.864-9.716h-21.871v42.8Zm7.671-27.962H1479.3a1.69,1.69,0,0,1,0,3.377h-17.639A1.69,1.69,0,0,1,1461.664,245.055Zm.18,7.2h17.638a1.69,1.69,0,0,1,0,3.377h-17.638A1.69,1.69,0,0,1,1461.844,252.255Zm17.818,10.577h-17.638a1.69,1.69,0,0,1,0-3.377h17.638A1.69,1.69,0,0,1,1479.662,262.831Zm-5.288-28.78a1.69,1.69,0,0,1,3.377,0V237.5h4.432a1.69,1.69,0,0,1,0,3.377h-6.121a1.713,1.713,0,0,1-1.689-1.689Z" transform="translate(-34.228 -39.039)" fill="#fff"/>
        <path id="パス_4755-3" data-name="パス 4755" d="M1482.988,231.357l-5.956-5.326c-1.956-1.75-3.846-3.761-5.956-5.326a3.616,3.616,0,0,0-2.465-.494h-22.93a1.713,1.713,0,0,0-1.689,1.689v46.174a1.713,1.713,0,0,0,1.689,1.689h36.112a1.713,1.713,0,0,0,1.689-1.689V232.831A1.434,1.434,0,0,0,1482.988,231.357Zm-35.618-7.77h21.871l10.864,9.716v33.081H1447.37v-42.8Z" transform="translate(-27.605 -32.406)" fill="#323232"/>
        <path id="パス_4756-3" data-name="パス 4756" d="M1473.507,277.521h17.638a1.69,1.69,0,0,0,0-3.377h-17.638A1.69,1.69,0,0,0,1473.507,277.521Z" transform="translate(-46.071 -68.128)" fill="#64c8e6"/>
        <path id="パス_4757-3" data-name="パス 4757" d="M1474.039,298.838h17.638a1.69,1.69,0,0,0,0-3.377h-17.638A1.69,1.69,0,0,0,1474.039,298.838Z" transform="translate(-46.424 -82.245)" fill="#64c8e6"/>
        <path id="パス_4758-3" data-name="パス 4758" d="M1492.211,316.778h-17.638a1.69,1.69,0,0,0,0,3.377h17.638A1.69,1.69,0,0,0,1492.211,316.778Z" transform="translate(-46.777 -96.363)" fill="#64c8e6"/>
        <path id="パス_4759-3" data-name="パス 4759" d="M1516.028,245.187h6.121a1.69,1.69,0,0,0,0-3.377h-4.432v-3.444a1.69,1.69,0,0,0-3.377,0V243.5A1.713,1.713,0,0,0,1516.028,245.187Z" transform="translate(-74.193 -43.353)" fill="#323232"/>
      </g>
    </g>
  </g>
</svg>
