<svg xmlns="http://www.w3.org/2000/svg" width="310" height="224.873" viewBox="0 0 310 224.873">
  <g id="グループ_9167" data-name="グループ 9167" transform="translate(-0.5 -34)">
    <path id="パス_4356" data-name="パス 4356" d="M35.068,0H274.932C294.3,0,310,15.194,310,33.937s-15.7,33.937-35.068,33.937H35.068C15.7,67.873,0,52.679,0,33.937S15.7,0,35.068,0Z" transform="translate(0.5 191)" fill="#ffda2b"/>
    <path id="パス_5559" data-name="パス 5559" d="M-121.448-11.934c0-1.105-.527-1.564-1.581-1.564h-8.942c-1.054,0-1.581.459-1.581,1.564V-.986c0,1.088.527,1.547,1.581,1.547h8.942c1.054,0,1.581-.459,1.581-1.547Zm-10.744,4.59V-11.7c0-.391.2-.51.578-.51h8.228c.374,0,.578.119.578.51v4.352Zm0,1.275h9.384v4.828c0,.391-.2.51-.578.51h-8.228c-.374,0-.578-.119-.578-.51ZM-114.325-11v-2.856c0-.34-.238-.51-.629-.51s-.663.17-.663.51V-11h-2.006c-.306,0-.476.238-.476.578s.17.595.476.595h2.006v3.757c-.748.272-1.513.51-2.261.731a.493.493,0,0,0-.391.493,1.768,1.768,0,0,0,.034.255c.1.306.289.493.527.493a.853.853,0,0,0,.2-.034c.612-.187,1.241-.408,1.887-.646v4.2c0,.476-.119.6-.68.6a6.135,6.135,0,0,1-1.122-.136.331.331,0,0,0-.136-.017c-.2,0-.391.153-.476.476a.762.762,0,0,0-.017.187.517.517,0,0,0,.425.561,6.661,6.661,0,0,0,1.513.17c1.292,0,1.785-.408,1.785-1.6V-5.287c.714-.289,1.394-.6,1.989-.9a.526.526,0,0,0,.289-.476.943.943,0,0,0-.051-.289.521.521,0,0,0-.476-.357.453.453,0,0,0-.2.051c-.476.238-1,.459-1.547.68V-9.826h1.853c.306,0,.459-.255.459-.595s-.153-.578-.459-.578Zm9.469,9.248c-1.9.391-3.825.68-5.763.918a81.7,81.7,0,0,0,3.06-12.6v-.119c0-.306-.221-.544-.629-.578a.638.638,0,0,0-.17-.017.547.547,0,0,0-.629.527A73.883,73.883,0,0,1-112.03-.7c-.306.034-.612.068-.918.085a.567.567,0,0,0-.51.629V.1a.616.616,0,0,0,.629.629h.068a78.48,78.48,0,0,0,8.313-1.377c.136.391.255.782.374,1.19a.568.568,0,0,0,.578.425,1.155,1.155,0,0,0,.323-.051.6.6,0,0,0,.493-.6.943.943,0,0,0-.051-.289A44.611,44.611,0,0,0-105.706-6.9a.572.572,0,0,0-.527-.323,1.161,1.161,0,0,0-.374.085.583.583,0,0,0-.357.51.508.508,0,0,0,.085.289A49.037,49.037,0,0,1-104.856-1.751Zm4.726-10.064c0,1.819.017,3.808.119,5.168a11.679,11.679,0,0,0,1.428,5.423,2.433,2.433,0,0,0,2.057,1.19,2.4,2.4,0,0,0,1.887-1A7.622,7.622,0,0,0-93.4-4.5a.471.471,0,0,0,.017-.153.639.639,0,0,0-.646-.663.578.578,0,0,0-.17-.017c-.357,0-.544.187-.612.612a6.45,6.45,0,0,1-.833,2.584,1.068,1.068,0,0,1-.969.527,1.316,1.316,0,0,1-1.037-.765,11.9,11.9,0,0,1-.969-4.369c-.051-.782-.068-1.8-.068-2.89v-2.176c0-.425-.136-.714-.68-.714A.684.684,0,0,0-100.13-11.815Zm9.741.272a.617.617,0,0,0-.357.561.834.834,0,0,0,.136.425,17.073,17.073,0,0,1,2.805,8.075.66.66,0,0,0,.7.663.762.762,0,0,0,.187-.017.717.717,0,0,0,.595-.816v-.119A18.074,18.074,0,0,0-89.4-11.322a.668.668,0,0,0-.578-.34A.752.752,0,0,0-90.389-11.543Zm15.47,1.428v1.343h-2.346c-.255,0-.391.187-.391.51,0,.289.136.493.391.493h5.933c.255,0,.391-.2.391-.493,0-.323-.136-.51-.391-.51H-73.78v-1.343h2.091c.255,0,.374-.221.374-.51,0-.306-.119-.493-.374-.493H-73.78V-11.9c0-.306-.221-.476-.561-.476-.374,0-.578.17-.578.476v.782h-1.955c-.255,0-.374.187-.374.493,0,.289.119.51.374.51Zm-7.157,8.041A13.068,13.068,0,0,1-84.337-.051a.505.505,0,0,0-.2.442.734.734,0,0,0,.153.442.622.622,0,0,0,.51.272.539.539,0,0,0,.34-.1,11.747,11.747,0,0,0,2.074-2.04A3.912,3.912,0,0,0-78.744.884a18.006,18.006,0,0,0,3.553.255c2.023,0,4.335-.068,6.052-.153A.615.615,0,0,0-68.493.34V.289C-68.51-.1-68.7-.34-69.1-.34h-.085c-1.734.153-3.808.221-5.9.221a23.046,23.046,0,0,1-3.264-.17A3.068,3.068,0,0,1-80.8-2.074V-6.086c0-.9-.374-1.343-1.241-1.343h-1.921c-.289,0-.493.187-.493.578s.2.595.493.595H-82.5c.323,0,.425.085.425.425Zm-.8-11.662a.681.681,0,0,0-.391-.136.8.8,0,0,0-.476.187.617.617,0,0,0-.238.476.489.489,0,0,0,.153.357,15.03,15.03,0,0,1,2.108,2.55.589.589,0,0,0,.476.272.671.671,0,0,0,.476-.2.617.617,0,0,0,.272-.493.724.724,0,0,0-.153-.425A16.875,16.875,0,0,0-82.875-13.736Zm7.055,6.97c-.816,0-1.207.323-1.207,1.156v1.8c0,.85.391,1.156,1.207,1.156h2.805c.833,0,1.207-.306,1.207-1.156v-1.8c0-.833-.374-1.156-1.207-1.156Zm.323,3.094c-.255,0-.408-.085-.408-.374V-5.372c0-.289.153-.374.408-.374h2.142c.272,0,.425.085.425.374v1.326c0,.289-.153.374-.425.374Zm6.1-8.721c0-1.02-.425-1.411-1.411-1.411h-6.936c-.969,0-1.428.374-1.428,1.36,0,3.842-.017,5.9-.119,6.97a13.808,13.808,0,0,1-.561,2.958,1.608,1.608,0,0,0-.153.6.464.464,0,0,0,.374.459.716.716,0,0,0,.306.068c.323,0,.51-.238.629-.595a14.02,14.02,0,0,0,.6-3.128c.17-1.666.153-3.961.153-7.14,0-.34.17-.425.493-.425h6.341c.323,0,.493.085.493.425v9.316c0,.476-.119.629-.714.629a6.717,6.717,0,0,1-1.054-.1.471.471,0,0,0-.153-.017A.46.46,0,0,0-73-1.989a1.334,1.334,0,0,0-.034.238.48.48,0,0,0,.391.493,6.993,6.993,0,0,0,1.479.119c1.207,0,1.768-.425,1.768-1.428ZM-63.325-11v-2.856c0-.34-.238-.51-.629-.51s-.663.17-.663.51V-11h-2.006c-.306,0-.476.238-.476.578s.17.595.476.595h2.006v3.757c-.748.272-1.513.51-2.261.731a.493.493,0,0,0-.391.493,1.768,1.768,0,0,0,.034.255c.1.306.289.493.527.493a.853.853,0,0,0,.2-.034c.612-.187,1.241-.408,1.887-.646v4.2c0,.476-.119.6-.68.6a6.135,6.135,0,0,1-1.122-.136.331.331,0,0,0-.136-.017c-.2,0-.391.153-.476.476a.762.762,0,0,0-.017.187.517.517,0,0,0,.425.561,6.661,6.661,0,0,0,1.513.17c1.292,0,1.785-.408,1.785-1.6V-5.287c.714-.289,1.394-.6,1.989-.9a.526.526,0,0,0,.289-.476.943.943,0,0,0-.051-.289.521.521,0,0,0-.476-.357.453.453,0,0,0-.2.051c-.476.238-1,.459-1.547.68V-9.826h1.853c.306,0,.459-.255.459-.595S-61.166-11-61.472-11Zm9.469,9.248c-1.9.391-3.825.68-5.763.918a81.7,81.7,0,0,0,3.06-12.6v-.119c0-.306-.221-.544-.629-.578a.638.638,0,0,0-.17-.017.547.547,0,0,0-.629.527A73.884,73.884,0,0,1-61.03-.7c-.306.034-.612.068-.918.085a.567.567,0,0,0-.51.629V.1a.616.616,0,0,0,.629.629h.068A78.48,78.48,0,0,0-53.448-.646c.136.391.255.782.374,1.19A.568.568,0,0,0-52.5.969a1.155,1.155,0,0,0,.323-.051.6.6,0,0,0,.493-.6.943.943,0,0,0-.051-.289A44.612,44.612,0,0,0-54.706-6.9a.572.572,0,0,0-.527-.323,1.161,1.161,0,0,0-.374.085.583.583,0,0,0-.357.51.508.508,0,0,0,.085.289A49.038,49.038,0,0,1-53.856-1.751Zm4.726-10.064c0,1.819.017,3.808.119,5.168a11.679,11.679,0,0,0,1.428,5.423,2.433,2.433,0,0,0,2.057,1.19,2.4,2.4,0,0,0,1.887-1A7.622,7.622,0,0,0-42.4-4.5a.471.471,0,0,0,.017-.153.639.639,0,0,0-.646-.663.578.578,0,0,0-.17-.017c-.357,0-.544.187-.612.612a6.45,6.45,0,0,1-.833,2.584,1.068,1.068,0,0,1-.969.527,1.316,1.316,0,0,1-1.037-.765,11.9,11.9,0,0,1-.969-4.369c-.051-.782-.068-1.8-.068-2.89v-2.176c0-.425-.136-.714-.68-.714A.684.684,0,0,0-49.13-11.815Zm9.741.272a.617.617,0,0,0-.357.561.834.834,0,0,0,.136.425,17.073,17.073,0,0,1,2.805,8.075.66.66,0,0,0,.7.663.762.762,0,0,0,.187-.017.717.717,0,0,0,.595-.816v-.119A18.074,18.074,0,0,0-38.4-11.322a.668.668,0,0,0-.578-.34A.752.752,0,0,0-39.389-11.543Zm10.166,4.012a11.753,11.753,0,0,0,2.329-2.907,54.755,54.755,0,0,0,6.2-.544.626.626,0,0,0,.578-.629v-.119a.573.573,0,0,0-.612-.544.471.471,0,0,0-.153.017c-1.87.272-3.893.476-5.338.527.255-.51.476-.969.68-1.462a.648.648,0,0,0,.068-.289c0-.255-.187-.459-.527-.527a1.148,1.148,0,0,0-.238-.034.634.634,0,0,0-.629.493,11.225,11.225,0,0,1-.85,1.853h-.969c-1.122,0-2.21-.017-3.009-.085h-.051a.648.648,0,0,0-.612.629v.068a.6.6,0,0,0,.6.629c.765.034,1.734.051,2.584.051h.782a25.554,25.554,0,0,1-4.029,4.879.762.762,0,0,0-.238.544.671.671,0,0,0,.221.51.634.634,0,0,0,.459.2.744.744,0,0,0,.544-.255c2.04-2.074,3.91-3.2,5.355-3.2.748,0,1.258.289,1.36,1.326-3.162,1.139-4.726,2.72-4.726,4.335,0,1.955,1.8,2.839,5,2.839A28.722,28.722,0,0,0-19.7.425a.686.686,0,0,0,.629-.7.638.638,0,0,0-.017-.17.585.585,0,0,0-.629-.527,1.122,1.122,0,0,0-.238.017,28.158,28.158,0,0,1-4.59.374c-2.4,0-3.5-.527-3.5-1.53,0-1.054,1.054-2.074,3.434-2.992v2.38a.578.578,0,0,0,.629.646.619.619,0,0,0,.663-.646c.017-.323.017-.646.017-.969,0-.612-.017-1.207-.051-1.819,1.632-.6,3.23-1.02,4.471-1.343a.618.618,0,0,0,.544-.629,1.7,1.7,0,0,0-.034-.272.619.619,0,0,0-.629-.459,1.893,1.893,0,0,0-.289.034c-1.173.34-2.652.8-4.182,1.343a2.116,2.116,0,0,0-2.346-1.989,5.794,5.794,0,0,0-3.332,1.394Zm24.888-4.828V-1.02c0,.663-.2.816-.918.816A8.085,8.085,0,0,1-7.106-.459a.578.578,0,0,0-.17-.017.568.568,0,0,0-.561.527.762.762,0,0,0-.017.187.6.6,0,0,0,.51.612,10.641,10.641,0,0,0,2.227.238c1.581,0,2.142-.493,2.142-1.734V-12.359h1.7c.306,0,.493-.272.493-.629s-.187-.612-.493-.612H-15.691c-.323,0-.51.255-.51.612,0,.374.187.629.51.629ZM-7.14-8.7c0-1.088-.476-1.513-1.547-1.513H-12.7c-1.088,0-1.564.425-1.564,1.513v4.539c0,1.088.476,1.513,1.564,1.513h4.012c1.071,0,1.547-.425,1.547-1.513Zm-5.3,4.828c-.34,0-.51-.1-.51-.476V-8.517c0-.374.17-.476.51-.476h3.468c.357,0,.527.1.527.476v4.165c0,.374-.17.476-.527.476Zm23.035-6.6a18.375,18.375,0,0,0,4.828-2.006.52.52,0,0,0,.255-.459.724.724,0,0,0-.153-.425.62.62,0,0,0-.493-.255.739.739,0,0,0-.391.119,15.5,15.5,0,0,1-4.046,1.836v-2.159c0-.306-.238-.476-.612-.476s-.629.17-.629.476V-8.84c0,1.173.408,1.513,2.737,1.513a7.79,7.79,0,0,0,2.856-.289,1.771,1.771,0,0,0,.816-.8,5.6,5.6,0,0,0,.357-1.7v-.034c0-.289-.255-.476-.6-.51h-.085a.472.472,0,0,0-.527.425,6.293,6.293,0,0,1-.153,1,.952.952,0,0,1-.442.544,5.087,5.087,0,0,1-1.989.2c-1.581,0-1.734-.085-1.734-.714Zm0,7.735A16.577,16.577,0,0,0,15.419-4.76a.547.547,0,0,0,.255-.476.661.661,0,0,0-.119-.391.6.6,0,0,0-.51-.289.573.573,0,0,0-.289.085,15.049,15.049,0,0,1-4.165,1.887V-5.865c0-.306-.238-.476-.612-.476s-.629.17-.629.476V-.544c0,1.207.425,1.5,3.094,1.5A6.3,6.3,0,0,0,15.181.578a1.931,1.931,0,0,0,.7-.748,5.665,5.665,0,0,0,.357-1.9v-.034c0-.323-.221-.527-.6-.561h-.068a.53.53,0,0,0-.578.51A3.788,3.788,0,0,1,14.688-.68C14.5-.357,13.94-.2,12.631-.2c-1.921,0-2.04-.187-2.04-.714ZM3.247-10.948a18.851,18.851,0,0,0,1.5-2.72.453.453,0,0,0,.051-.2c0-.221-.153-.391-.459-.476a1.7,1.7,0,0,0-.272-.034.532.532,0,0,0-.544.374A21,21,0,0,1,1.87-10.88c-.272.017-.544.034-.816.034a.569.569,0,0,0-.476.612v.051a.594.594,0,0,0,.527.595h.034c1.972-.119,4.012-.357,6.086-.646.1.2.2.391.289.578a.5.5,0,0,0,.459.289.908.908,0,0,0,.34-.085.577.577,0,0,0,.357-.527.648.648,0,0,0-.068-.289,23.687,23.687,0,0,0-1.666-2.788.653.653,0,0,0-.51-.255.716.716,0,0,0-.306.068.5.5,0,0,0-.323.459.443.443,0,0,0,.068.255,10.444,10.444,0,0,1,.8,1.241C5.525-11.152,4.386-11.05,3.247-10.948ZM2.822-2.4H6.63v1.9c0,.408-.1.51-.493.51A3.99,3.99,0,0,1,5.219-.1.289.289,0,0,0,5.1-.119c-.2,0-.391.153-.459.459a.828.828,0,0,0-.017.2.472.472,0,0,0,.34.51,4.707,4.707,0,0,0,1.309.17c1.088,0,1.547-.476,1.547-1.36V-7.429c0-.969-.425-1.36-1.513-1.36h-3.2C2.023-8.789,1.6-8.4,1.6-7.429V.986c0,.289.255.476.612.476s.612-.187.612-.476Zm0-2.618H6.63v1.53H2.822ZM6.63-6.1H2.822v-1.1c0-.323.187-.442.51-.442H6.12c.34,0,.51.119.51.442Zm14.365-7.463a.7.7,0,0,0-.187-.017.666.666,0,0,0-.68.51,30.762,30.762,0,0,0-.969,7.8,26.863,26.863,0,0,0,.476,5.3c.085.459.34.646.663.646a.762.762,0,0,0,.187-.017.653.653,0,0,0,.578-.68,1.287,1.287,0,0,0-.017-.255A29.1,29.1,0,0,1,20.6-5.338a29.552,29.552,0,0,1,.935-7.429,1.17,1.17,0,0,0,.034-.221A.6.6,0,0,0,20.995-13.566Zm10.132,1.819a51.238,51.238,0,0,1-5.151.238c-.629,0-1.241-.017-1.785-.034h-.034a.693.693,0,0,0-.7.714.676.676,0,0,0,.714.748c.561.017,1.173.034,1.8.034A49.612,49.612,0,0,0,31.3-10.3a.685.685,0,0,0,.663-.765v-.051a.645.645,0,0,0-.7-.629ZM25.245-6.273A.681.681,0,0,0,24.8-6.46a.879.879,0,0,0-.578.255,3.808,3.808,0,0,0-1.292,2.822c0,2.142,1.666,3.026,4.794,3.026a22.326,22.326,0,0,0,4.318-.374.713.713,0,0,0,.578-.731.7.7,0,0,0-.017-.187.659.659,0,0,0-.663-.561.828.828,0,0,0-.2.017,20.76,20.76,0,0,1-4.182.408c-2.38,0-3.3-.544-3.3-1.6a2.682,2.682,0,0,1,.986-1.972.655.655,0,0,0,.221-.459A.648.648,0,0,0,25.245-6.273ZM38.692-13.6h-.034a.683.683,0,0,0-.731.714c-.119,2.5-.2,5.644-.2,8.279,0,2.159.357,3.264,1.139,4.029A5,5,0,0,0,42.483.6a6.429,6.429,0,0,0,4.607-1.8,9.343,9.343,0,0,0,2.261-4.08.943.943,0,0,0,.051-.289.714.714,0,0,0-.527-.7.77.77,0,0,0-.272-.051c-.289,0-.527.187-.646.578a8.088,8.088,0,0,1-1.8,3.383A4.961,4.961,0,0,1,42.517-.9a3.644,3.644,0,0,1-2.584-.714c-.544-.527-.748-1.411-.748-3.009,0-2.72.136-5.729.221-8.228V-12.9A.648.648,0,0,0,38.692-13.6Zm18,12.512c.935-.119,1.87-.272,2.788-.476l.153.459a.454.454,0,0,0,.442.323.748.748,0,0,0,.17-.034.516.516,0,0,0,.357-.476.374.374,0,0,0-.017-.136,14.885,14.885,0,0,0-.918-2.159.493.493,0,0,0-.442-.255.6.6,0,0,0-.17.034.41.41,0,0,0-.306.374.328.328,0,0,0,.051.17c.136.272.255.561.374.867-.408.068-.816.153-1.241.2a22.024,22.024,0,0,0,.7-2.771.1.1,0,0,0,.017-.068c0-.2-.153-.34-.391-.374H58.14a.4.4,0,0,0-.459.323,26.981,26.981,0,0,1-.748,3.026h-.017c-.085,0-.153.017-.221.017V-5.882h.918c.85,0,1.241-.391,1.241-1.275v-4.454a1.11,1.11,0,0,0-1.241-1.275H55.862a4.108,4.108,0,0,0,.34-.867.853.853,0,0,0,.034-.2c0-.238-.17-.374-.51-.425a.7.7,0,0,0-.187-.017.544.544,0,0,0-.561.391,6.988,6.988,0,0,1-.442,1.122H53.227c-.833,0-1.224.391-1.224,1.275v4.454c0,.884.374,1.275,1.224,1.275h.255c0,3.485-.476,4.828-1.734,6.154a.664.664,0,0,0-.2.459.669.669,0,0,0,.221.493.723.723,0,0,0,.459.187.572.572,0,0,0,.442-.2c1.36-1.513,1.955-3.468,1.955-7.089h.935v5.2c0,1.071.306,1.5,1.581,1.649a38.881,38.881,0,0,0,4.063.136A39.857,39.857,0,0,0,65.484.969c.935-.1,1.377-.374,1.649-1a6.27,6.27,0,0,0,.374-1.649v-.1c0-.323-.153-.51-.544-.561a.471.471,0,0,0-.153-.017.49.49,0,0,0-.561.476A4.349,4.349,0,0,1,66.011-.68c-.153.357-.425.493-1.156.561-.646.051-1.734.085-3.638.085A32.26,32.26,0,0,1,57.426-.17c-.629-.1-.731-.255-.731-.714Zm-3.57-8.84v-1.513c0-.323.153-.425.425-.425h1.292v1.938Zm2.805-1.938h1.377c.272,0,.425.1.425.425v1.513h-1.8Zm-1.088,5H53.55c-.272,0-.425-.119-.425-.442V-8.942h1.717Zm2.89-2.074V-7.31c0,.323-.153.442-.425.442H55.93V-8.942Zm5.882-3.179v-1.768c0-.323-.255-.459-.612-.459-.374,0-.544.136-.544.459v1.768H59.993c-.306,0-.459.2-.459.527s.153.544.459.544h2.465v2.108H59.687c-.289,0-.459.2-.459.544,0,.323.17.544.459.544h2.584a11.646,11.646,0,0,1-2.482,3.111.508.508,0,0,0-.238.425.627.627,0,0,0,.17.408.571.571,0,0,0,.408.187.619.619,0,0,0,.425-.17A10.97,10.97,0,0,0,62.56-6.63a13.59,13.59,0,0,0-.1,1.717v3.587c0,.289.187.459.561.459.357,0,.595-.17.595-.459V-4.981a14.337,14.337,0,0,0-.085-1.7,10.164,10.164,0,0,0,3.009,3.4.475.475,0,0,0,.306.1.59.59,0,0,0,.476-.255.778.778,0,0,0,.136-.408.586.586,0,0,0-.272-.476,10.159,10.159,0,0,1-3.4-3.536h2.992c.323,0,.476-.221.476-.544,0-.34-.153-.544-.476-.544H63.614V-11.05h2.822c.306,0,.476-.221.476-.544a.462.462,0,0,0-.476-.527Zm6.647,1.411c-.391,0-.6.255-.6.663a.582.582,0,0,0,.6.663h4.93a12.438,12.438,0,0,1-1.5,5.321A9.975,9.975,0,0,1,69.632-.289a.67.67,0,0,0-.408.612.752.752,0,0,0,.119.408.624.624,0,0,0,.561.34,1.15,1.15,0,0,0,.459-.119A11.084,11.084,0,0,0,74.919-3.4a14.359,14.359,0,0,0,1.666-5.984h4.471c.629,0,.8.17.8.816a47.529,47.529,0,0,1-.561,7.191c-.136.7-.493.969-1.343.969a9.339,9.339,0,0,1-2.3-.323A1.312,1.312,0,0,0,77.4-.765a.615.615,0,0,0-.6.544,1.334,1.334,0,0,0-.034.238A.651.651,0,0,0,77.3.68,10.71,10.71,0,0,0,80,1c1.564,0,2.346-.612,2.584-1.819a46.831,46.831,0,0,0,.629-7.956v-.289c0-1.1-.578-1.649-1.819-1.649H76.687c.051-.884.085-1.87.085-2.958,0-.476-.272-.646-.714-.646-.476,0-.7.17-.7.629,0,1.105-.034,2.091-.068,2.975Zm17.986.884v-1.292c0-.51.17-.68.8-.68H100.81c.323,0,.476-.255.476-.578,0-.306-.153-.544-.476-.544H94.622v-1c0-.306-.272-.493-.68-.493-.374,0-.646.187-.646.493v1H88.621c-1.105,0-1.717.527-1.717,1.6,0,2.771-.034,5.185-.187,6.783A15.033,15.033,0,0,1,85.476.17a.908.908,0,0,0-.085.34.6.6,0,0,0,.374.561,1.16,1.16,0,0,0,.391.085.6.6,0,0,0,.578-.425,18.459,18.459,0,0,0,1.292-5.117c.119-1.105.187-2.635.2-4.352h2.958v1.5c0,.867.374,1.258,1.343,1.258h3.893c.952,0,1.343-.391,1.343-1.258v-1.5h3.077c.289,0,.425-.238.425-.544s-.136-.544-.425-.544H97.767v-1.156c0-.306-.272-.476-.646-.476-.357,0-.612.17-.612.476v1.156H92.446v-1.156c0-.306-.255-.476-.629-.476-.357,0-.629.17-.629.476v1.156Zm8.262,1.088v1.343c0,.323-.17.408-.493.408H92.939c-.34,0-.493-.085-.493-.408V-8.738Zm-5.814,4.93A9.78,9.78,0,0,0,93.432-1,18.578,18.578,0,0,1,88.485.289a.57.57,0,0,0-.544.595V1a.559.559,0,0,0,.578.527.471.471,0,0,0,.153-.017A24.372,24.372,0,0,0,94.639-.272q.229.128.51.255A18.57,18.57,0,0,0,100.4,1.5a.471.471,0,0,0,.153.017c.323,0,.544-.2.612-.595a.578.578,0,0,0,.017-.17.558.558,0,0,0-.527-.561A19.872,19.872,0,0,1,95.931-1a14.617,14.617,0,0,0,2.6-2.074,1.354,1.354,0,0,0,.408-.9c0-.51-.425-.918-1.122-.918H89.556c-.323,0-.442.238-.442.544s.119.544.442.544Zm6.341,0c.2,0,.323.051.323.153,0,.068-.051.153-.17.272A11.734,11.734,0,0,1,94.69-1.6a8.655,8.655,0,0,1-2.567-2.21Zm12.8-7.922a14.8,14.8,0,0,0,.833-1.853.682.682,0,0,0,.051-.255c0-.238-.17-.425-.493-.51a1.873,1.873,0,0,0-.306-.034.626.626,0,0,0-.629.374,16.656,16.656,0,0,1-.9,2.278h-3.417c-1.071,0-1.53.442-1.53,1.547V.731c0,.306.272.493.663.493s.7-.187.7-.493V-9.843c0-.493.17-.663.765-.663h9.877c.6,0,.782.187.782.68V-.935c0,.595-.2.765-.884.765A8.794,8.794,0,0,1,113.8-.34a.578.578,0,0,0-.17-.017.547.547,0,0,0-.561.476,1.046,1.046,0,0,0-.017.221.541.541,0,0,0,.476.578,11.251,11.251,0,0,0,1.989.187c1.377,0,2.04-.476,2.04-1.649v-9.622c0-1.122-.476-1.564-1.564-1.564Zm-1.275,3.3c-1.02,0-1.479.374-1.479,1.394v3.4c0,1.02.459,1.377,1.479,1.377h3.757c1.02,0,1.479-.357,1.479-1.377v-3.4c0-1.02-.459-1.394-1.479-1.394Zm.272,5c-.306,0-.493-.1-.493-.459V-6.817c0-.357.187-.442.493-.442h3.2c.306,0,.51.085.51.442v2.924c0,.357-.2.459-.51.459Zm18.836,2.7V-7.463h5.661c.323,0,.527-.306.527-.68s-.2-.646-.527-.646H127.67v-4.692c0-.357-.272-.561-.68-.561-.425,0-.714.2-.714.561V-.731h-5.967c-.34,0-.527.289-.527.646s.187.68.527.68h14.365c.34,0,.527-.323.527-.68s-.187-.646-.527-.646Z" transform="translate(155.5 232)"/>
    <path id="パス_4688" data-name="パス 4688" d="M64.5,0A64.5,64.5,0,1,1,0,64.5,64.5,64.5,0,0,1,64.5,0Z" transform="translate(90.75 34)" fill="#f4f4f4"/>
    <path id="パス_5561" data-name="パス 5561" d="M-13.98-10.36a4.65,4.65,0,0,0,.38,1.9,5.09,5.09,0,0,0,1,1.5,4.4,4.4,0,0,0,1.48,1A4.666,4.666,0,0,0-9.3-5.6a4.666,4.666,0,0,0,1.82-.36A4.4,4.4,0,0,0-6-6.96a5.09,5.09,0,0,0,1-1.5,4.55,4.55,0,0,0,.38-1.86A4.453,4.453,0,0,0-5-12.14a5.09,5.09,0,0,0-1-1.5,4.4,4.4,0,0,0-1.48-1A4.666,4.666,0,0,0-9.3-15a4.666,4.666,0,0,0-1.82.36,4.4,4.4,0,0,0-1.48,1,5.17,5.17,0,0,0-1,1.48A4.316,4.316,0,0,0-13.98-10.36Zm-7.64-.08a9.985,9.985,0,0,1,.92-4.26,10.464,10.464,0,0,1,2.56-3.44,12.172,12.172,0,0,1,3.9-2.3,14.075,14.075,0,0,1,4.94-.84,14.262,14.262,0,0,1,4.9.82A12.129,12.129,0,0,1-.48-18.18,10.228,10.228,0,0,1,2.1-14.7a10.634,10.634,0,0,1,.92,4.46,10.442,10.442,0,0,1-.94,4.46A10.586,10.586,0,0,1-.5-2.3,11.555,11.555,0,0,1-4.44-.04a15.06,15.06,0,0,1-4.98.8,14.411,14.411,0,0,1-4.88-.8,11.263,11.263,0,0,1-3.86-2.28A10.579,10.579,0,0,1-20.7-5.86,11.108,11.108,0,0,1-21.62-10.44ZM7.18-20.52h7.24v3.36a8.316,8.316,0,0,1,2.84-2.82,7.639,7.639,0,0,1,3.92-.98h.62a4.419,4.419,0,0,1,.78.08v6.92a6.879,6.879,0,0,0-3.12-.72,4.657,4.657,0,0,0-3.78,1.5A6.651,6.651,0,0,0,14.42-8.8V0H7.18Z" transform="translate(154.75 110)" fill="#d0d0d0"/>
    <g id="グループ_9308" data-name="グループ 9308" transform="translate(-588.986 -88.402)">
      <path id="パス_4689" data-name="パス 4689" d="M751.81,272.829c-.3.026-.59.061-.885.093l-.04,0c-.119.016-.237.034-.355.052a22.737,22.737,0,0,0-3.079.693q-.669.2-1.321.452a2.091,2.091,0,0,0-.324.128l-.037.019c-.178.08-.354.162-.529.249a12.55,12.55,0,0,0-1.16.65q-.243.154-.477.321c-.035.025-.07.054-.1.081.113-.074.231-.119-.068.051a7.383,7.383,0,0,0-.8.769l-.062.073a.286.286,0,0,1-.087.15c-.072.1-.166.207-.193.254-.073.121-.133.248-.2.372-.01.028-.021.057-.03.085-.048.146-.081.294-.116.443v0c0,.161,0,.32,0,.48,0,.02,0,.042.008.059.023.106.055.21.088.314,0-.023.033.025.08.217.067.126.132.253.208.375.089.143.471.574.07.133.225.248.433.5.68.733.137.127.28.246.422.367l.142.1a11.246,11.246,0,0,0,1,.625c.4.225.818.423,1.238.613h0l.024.009.286.112q.322.123.649.234a21.616,21.616,0,0,0,2.991.77q.421.078.844.142c.077.011.54.115.108.017a2.835,2.835,0,0,0,.292.035q.819.095,1.643.139a28.2,28.2,0,0,0,3.7-.04q.482-.037.963-.091l.3-.036c.108-.016.217-.031.325-.048.551-.086,1.1-.192,1.641-.314a1.8,1.8,0,0,1,2.166,1.229,1.775,1.775,0,0,1-1.229,2.165,26.781,26.781,0,0,1-16.7-1.379,12.6,12.6,0,0,1-1.943-1.105v.863c0,.05,0,.1.007.148a5.385,5.385,0,0,0,.15.521c.048.092.094.185.146.275s.115.191.177.284c.016.024.054.076.087.122s.073.089.09.107q.1.12.215.234c.142.147.29.287.443.421.07.062.143.12.215.18.031.025.062.05.089.069q.276.2.564.379a12.952,12.952,0,0,0,1.376.747c.111.052.223.1.335.151.042.016.084.036.123.051q.405.162.819.3a22.025,22.025,0,0,0,3.611.888c.189.031.38.069.571.086-.36-.03.043,0,.186.019q.482.054.965.091c.715.055,1.432.08,2.15.081a1.76,1.76,0,0,1,0,3.521,29.848,29.848,0,0,1-5.368-.5A17.905,17.905,0,0,1,741.948,290v.25c0,.146,0,.293,0,.439a.25.25,0,0,0,0,.025c.021.1.045.2.074.3.013.045.069.192.1.269l.024.05c.107.208.24.394.363.592.019.023.038.047.058.07q.118.137.244.268c.175.182.36.353.552.517l.042.032c-.039-.045-.015-.049.155.122.083.06.166.12.251.178.268.181.543.35.825.508q.448.251.914.467c.121.057.25.106.371.165l.2.081a21.479,21.479,0,0,0,4.545,1.169l.239.033.088.011q.331.039.663.07.6.057,1.207.086,1.354.066,2.711,0,.68-.032,1.357-.1c.221-.021.442-.048.662-.072l.042,0,.211-.031a23.6,23.6,0,0,0,2.328-.467,19.639,19.639,0,0,0,2.159-.68c.1-.039.2-.081.307-.121.127-.057.254-.112.38-.171.292-.138.58-.284.861-.443s.558-.326.825-.508c.094-.064.187-.131.279-.2.032-.025.065-.049.094-.072a7.6,7.6,0,0,0,.658-.613c.083-.088.164-.177.242-.269l.03-.036c.13-.2.263-.4.373-.612.013-.156.07-.24.094-.245,0,0,0-.011.006-.016.034-.113.058-.227.085-.341V290.7c-.031-1.226,0-2.457,0-3.682l.009-7.188h-.573l.957-.745a1.823,1.823,0,0,1-.382-1.073c0-.079-.007-.158-.01-.238-.028-.124-.052-.247-.09-.369,0-.007-.006-.015-.009-.023-.016.013-.073-.064-.09-.227-.062-.12-.125-.238-.2-.353-.089-.143-.463-.566-.07-.133-.141-.155-.268-.321-.414-.472q-.2-.2-.407-.39c-.07-.062-.142-.121-.214-.182a1.651,1.651,0,0,1-.177-.111c-.312-.2-.609-.434-.932-.619-.432-.247-.88-.462-1.333-.667h0l-.024-.009c-.115-.044-.229-.09-.344-.134q-.353-.134-.713-.252-.815-.27-1.651-.47-.813-.2-1.639-.334c-.22-.037-.442-.074-.663-.1l-.161-.018q-.221-.026-.442-.048a28.191,28.191,0,0,0-3.37-.127Q752.722,272.75,751.81,272.829Z" transform="translate(-65.226 -79.097)" fill="#ffdc50"/>
      <path id="パス_4690" data-name="パス 4690" d="M700.981,168.85a.72.72,0,0,1-.082.057l.033-.019.011-.01C700.955,168.868,700.968,168.859,700.981,168.85Z" transform="translate(-38.636 -11.796)" fill="#ffdc50"/>
      <path id="パス_4691" data-name="パス 4691" d="M701.131,168.825l.019-.013Z" transform="translate(-38.786 -11.771)" fill="#ffdc50"/>
      <path id="パス_4692" data-name="パス 4692" d="M762.526,168.962l-.043-.027.006.005Z" transform="translate(-78.537 -11.851)" fill="#ffdc50"/>
      <path id="パス_4693" data-name="パス 4693" d="M762.112,168.685c-.074-.063-.173-.106-.132-.072.056.036.113.072.171.105Z" transform="translate(-78.205 -11.635)" fill="#ffdc50"/>
      <path id="パス_4694" data-name="パス 4694" d="M698.54,171.293a.086.086,0,0,1,0,.02v0A.132.132,0,0,0,698.54,171.293Z" transform="translate(-37.104 -13.379)" fill="#ffdc50"/>
      <path id="パス_4695" data-name="パス 4695" d="M766.179,173.156c0,.018,0,.032.005.048l.007.013A.306.306,0,0,1,766.179,173.156Z" transform="translate(-80.931 -14.586)" fill="#ffdc50"/>
      <path id="パス_4696" data-name="パス 4696" d="M766.267,173.433l-.053-.1c.02.071.06.149.084.214C766.307,173.537,766.3,173.5,766.267,173.433Z" transform="translate(-80.954 -14.699)" fill="#ffdc50"/>
      <path id="パス_4697" data-name="パス 4697" d="M698.181,171.446c-.111.126-.063.112,0,.053a.525.525,0,0,0,.085-.148Z" transform="translate(-36.831 -13.417)" fill="#ffdc50"/>
      <path id="パス_4698" data-name="パス 4698" d="M697.438,164.391l-.062.073a.286.286,0,0,1-.087.15c-.072.1-.166.207-.193.253-.073.121-.133.248-.2.372-.01.028-.021.057-.03.085-.048.146-.081.294-.116.443v0c0,.161,0,.32.005.48,0,.02,0,.042.008.059.023.106.056.21.088.314,0-.023.033.025.08.217.067.126.132.253.208.375.089.143.471.574.07.133.225.248.433.5.68.733.137.127.28.246.423.367l.142.1a11.26,11.26,0,0,0,1,.625c.4.225.818.423,1.238.613h0l.024.009.286.112q.323.123.65.234a21.613,21.613,0,0,0,2.991.77q.421.078.844.142c.077.011.54.115.108.017a2.853,2.853,0,0,0,.292.035q.82.095,1.643.139a28.2,28.2,0,0,0,3.7-.04q.482-.037.963-.091l.3-.037c.108-.015.216-.031.325-.048.55-.086,1.1-.192,1.641-.314a1.8,1.8,0,0,1,2.165,1.229,1.775,1.775,0,0,1-1.229,2.165,26.781,26.781,0,0,1-16.7-1.379,12.662,12.662,0,0,1-1.949-1.11v1.707c0,.09.011.182.014.272.037.178.1.348.15.521.049.092.094.185.146.275s.115.192.177.284c.016.023.054.076.087.121l.09.108q.1.119.215.234c.141.147.29.287.443.421.07.062.143.12.215.18.032.025.062.05.089.069q.276.2.564.379a13.015,13.015,0,0,0,1.376.747c.111.052.223.1.335.151.042.016.084.036.123.051q.406.162.819.3a21.99,21.99,0,0,0,3.612.888c.188.03.38.069.571.086-.36-.031.043,0,.186.019q.482.054.965.092c.715.055,1.433.08,2.15.082a1.76,1.76,0,0,1,0,3.521,29.91,29.91,0,0,1-5.368-.5,17.891,17.891,0,0,1-6.958-2.679v4.765a18.669,18.669,0,0,1,9.262,3.489c.165.131.324.269.479.411a6.387,6.387,0,0,1,2.43,4.794,1.654,1.654,0,0,1-.016.172c.027.53.016,1.063.016,1.594v8.082q.389.008.779,0c.149,0,.3-.011.447-.016,1.767-2.724,5.394-4.176,8.381-4.878a28.521,28.521,0,0,1,2.86-.517q.009-4.282.014-8.564v-20.9h-.005l.388-.3a1.823,1.823,0,0,1-.382-1.073c0-.079-.007-.158-.01-.238-.028-.124-.052-.247-.09-.369,0-.007-.006-.015-.008-.023-.016.013-.073-.064-.091-.227-.062-.12-.125-.238-.2-.353-.09-.143-.463-.566-.07-.133-.141-.155-.268-.321-.414-.472q-.2-.2-.407-.39c-.07-.062-.142-.121-.214-.182a1.591,1.591,0,0,1-.177-.111c-.312-.2-.609-.434-.932-.619-.433-.247-.88-.462-1.334-.667h0l-.024-.009c-.115-.044-.229-.09-.344-.134q-.353-.134-.713-.252c-.543-.18-1.094-.336-1.65-.47s-1.089-.242-1.639-.334c-.22-.037-.442-.074-.663-.1l-.161-.018q-.221-.026-.442-.048a28.187,28.187,0,0,0-3.37-.127q-.914.02-1.826.1c-.3.026-.59.061-.885.093l-.04,0c-.119.016-.237.034-.356.052a22.746,22.746,0,0,0-3.079.693q-.668.2-1.321.452a2.108,2.108,0,0,0-.324.128l-.038.019c-.178.08-.354.162-.529.249a12.539,12.539,0,0,0-1.16.65q-.243.154-.477.321c-.035.025-.069.053-.1.081.113-.074.231-.118-.068.051A7.387,7.387,0,0,0,697.438,164.391Z" transform="translate(-35.944 -6.531)" fill="#ffdc50"/>
      <path id="パス_4699" data-name="パス 4699" d="M697.26,178.107c-.006-.028-.011-.046-.017-.07l-.019-.034A.612.612,0,0,1,697.26,178.107Z" transform="translate(-36.255 -17.726)" fill="#ffdc50"/>
      <path id="パス_4700" data-name="パス 4700" d="M697.051,177.484a.344.344,0,0,0,.048.16l.012.023c-.011-.027-.023-.055-.032-.082S697.061,177.517,697.051,177.484Z" transform="translate(-36.142 -17.39)" fill="#ffdc50"/>
      <path id="パス_4701" data-name="パス 4701" d="M701.061,168.691l-.019.013c-.013.009-.026.018-.037.028l-.011.01C701.292,168.572,701.173,168.617,701.061,168.691Z" transform="translate(-38.697 -11.65)" fill="#323232"/>
      <path id="パス_4702" data-name="パス 4702" d="M762.169,168.741c-.058-.033-.114-.069-.171-.105a1.589,1.589,0,0,0,.177.111Z" transform="translate(-78.222 -11.657)" fill="#323232"/>
      <path id="パス_4703" data-name="パス 4703" d="M766.285,173.52c-.024-.065-.063-.143-.084-.214l-.007-.013C766.212,173.456,766.269,173.534,766.285,173.52Z" transform="translate(-80.941 -14.675)" fill="#323232"/>
      <path id="パス_4704" data-name="パス 4704" d="M698.38,171.346v0a.525.525,0,0,1-.085.148A.286.286,0,0,0,698.38,171.346Z" transform="translate(-36.947 -13.413)" fill="#323232"/>
      <path id="パス_4705" data-name="パス 4705" d="M697.052,177.474c.011.033.017.068.028.1s.021.055.032.082l.019.034C697.085,177.5,697.057,177.451,697.052,177.474Z" transform="translate(-36.143 -17.38)" fill="#323232"/>
      <path id="パス_4706" data-name="パス 4706" d="M655.539,315.853l.049.035C655.5,315.824,655.4,315.752,655.539,315.853Z" transform="translate(-9.201 -107.008)" fill="#ffdc50"/>
      <path id="パス_4707" data-name="パス 4707" d="M652.668,312.946Z" transform="translate(-7.363 -105.13)" fill="#ffdc50"/>
      <path id="パス_4708" data-name="パス 4708" d="M666.221,266.711q.3-.027.59-.062l.126-.013c.3-.026.609-.091.909-.144a21.4,21.4,0,0,0,3.5-.914q.235-.083.466-.174l.117-.046c-.075.027.242-.1.3-.129q.16-.073.317-.149a12.6,12.6,0,0,0,1.353-.759c.184-.12.362-.282.554-.391q.128-.106.251-.217c.162-.146.317-.3.465-.458.057-.061.112-.124.166-.187.07-.157.223-.314.308-.462.041-.071.08-.143.117-.217l.02-.041c.018-.048.039-.1.048-.129.028-.087.053-.175.075-.264s.032-.149.048-.223V246.551c0-1.394.031-2.792.017-4.187l.365-.284a1.824,1.824,0,0,1-.382-1.073c0-.079-.007-.158-.01-.238-.027-.124-.052-.247-.089-.369,0-.007-.006-.015-.009-.023-.016.013-.073-.064-.091-.227-.062-.12-.125-.238-.2-.353-.089-.143-.463-.566-.07-.133-.141-.155-.268-.321-.414-.472-.13-.135-.267-.265-.407-.39-.07-.062-.142-.121-.214-.182a1.643,1.643,0,0,1-.177-.111c-.312-.2-.609-.434-.932-.619-.432-.247-.88-.462-1.334-.667h0l-.024-.009c-.115-.044-.229-.09-.344-.134q-.354-.134-.713-.252c-.543-.18-1.094-.336-1.65-.47s-1.089-.242-1.639-.334c-.22-.037-.441-.074-.663-.1l-.161-.018q-.22-.026-.441-.048a28.183,28.183,0,0,0-3.37-.127q-.914.02-1.826.1c-.3.026-.59.061-.885.093l-.04,0c-.119.016-.237.034-.356.052a22.726,22.726,0,0,0-3.079.693q-.669.2-1.321.452a2.108,2.108,0,0,0-.324.128l-.038.019c-.178.08-.354.162-.529.249a12.646,12.646,0,0,0-1.16.65q-.243.154-.477.321c-.035.025-.069.054-.1.081.113-.074.231-.119-.068.051a7.425,7.425,0,0,0-.8.769l-.062.073a.284.284,0,0,1-.087.15c-.072.1-.166.207-.193.254-.073.121-.133.248-.2.372-.01.028-.02.057-.03.085-.048.146-.081.294-.116.443v0c0,.16,0,.32,0,.479,0,.02,0,.042.008.059.023.106.055.21.088.314,0-.023.033.025.079.217.067.126.132.253.208.375.089.143.471.574.07.133.225.248.434.5.68.733.137.127.28.246.423.367l.142.1a11.157,11.157,0,0,0,1,.625c.4.225.817.423,1.237.613h0l.024.009.286.112q.323.123.65.234a21.626,21.626,0,0,0,2.991.77q.422.078.845.142c.077.011.54.115.108.017a2.841,2.841,0,0,0,.292.035q.819.095,1.643.139a28.2,28.2,0,0,0,3.7-.041q.482-.037.963-.091l.3-.036c.109-.016.217-.031.325-.048.55-.086,1.1-.192,1.641-.314a1.8,1.8,0,0,1,2.165,1.229,1.774,1.774,0,0,1-1.229,2.165,26.78,26.78,0,0,1-16.7-1.379,12.641,12.641,0,0,1-1.949-1.11v1.707c0,.095.014.2.02.3.011.052.023.1.036.156a2.194,2.194,0,0,1,.124.376c.063.128.339.738.463.745q-.239-.3-.059-.083c.051.061.1.12.157.179q.123.135.253.263.179.177.369.341c.072.062.471.458.156.135a4.167,4.167,0,0,0,.806.542c.338.205.686.394,1.041.567q.181.089.364.172l.182.081a21.54,21.54,0,0,0,4,1.143c.309.057.619.106.93.151l.421.053q.313.035.628.062c.81.07,1.622.1,2.435.1a1.76,1.76,0,0,1,0,3.521,30.412,30.412,0,0,1-4.979-.432,18.984,18.984,0,0,1-6.98-2.5c-.124-.078-.246-.16-.367-.243v1.019c0,.09.011.182.014.272a5.377,5.377,0,0,0,.15.521c.049.092.094.185.146.275s.115.191.177.284c.016.023.054.076.088.122l.089.108q.105.119.215.233c.142.147.29.287.443.421.07.062.143.121.215.18.031.025.062.05.089.069.183.133.372.259.564.38a12.974,12.974,0,0,0,1.376.747c.111.052.224.1.336.151.042.016.083.036.122.051q.406.162.819.3a22,22,0,0,0,3.612.888c.189.03.38.069.571.086-.36-.031.043,0,.186.019q.482.055.965.092c.715.055,1.432.08,2.15.082a1.76,1.76,0,1,1,0,3.521,29.942,29.942,0,0,1-5.368-.5,17.893,17.893,0,0,1-6.958-2.679v1.125c0,.025.008.05.013.075q.027.134.064.266c.024.086.056.17.083.255.087.169.174.335.277.5.048.075.133.164.177.248l.016.019c.3.35.685.612,1,.943l.077.056q.149.106.3.206c.226.148.458.288.694.42s.466.252.7.367q.185.089.371.174a2.266,2.266,0,0,0,.247.081h0l-.173-.045c.539.139,1.064.406,1.6.57q.867.266,1.755.456.48.1.964.188c.141.025.282.048.424.07l.286.043.032,0,.152.018.22.025q.259.029.518.052.489.044.979.071,1.045.056,2.092.036Q665.2,266.806,666.221,266.711Z" transform="translate(-6.497 -55.124)" fill="#ffdc50"/>
      <path id="パス_4709" data-name="パス 4709" d="M651.892,214.751a29.885,29.885,0,0,0,9.4.168,20.108,20.108,0,0,0,7.473-2.426,7.946,7.946,0,0,0,4.123-5.272,1.685,1.685,0,0,0,.083-.5v-7.472c.071,0,.143,0,.215,0q0,2.967.007,5.934c0,.027-.008.052-.007.079,0,.053.006.1.008.156l0,2.889c0,1.111-.037,2.229,0,3.34.1,2.7,2.358,4.782,4.576,5.988a23.062,23.062,0,0,0,9.862,2.482,25.845,25.845,0,0,0,10.465-1.5c2.641-1.02,5.331-2.612,6.416-5.368a9.989,9.989,0,0,0,.347-3.7q.006-5.171.012-10.342v-.248c0-.009,0-.018,0-.027s0-.02,0-.03c-.044-4.083-4.21-6.448-7.609-7.573a26.059,26.059,0,0,0-8.313-1.257c0-.043,0-.084,0-.127q0-1.773.007-3.546,0-1.755.006-3.51V159.09a1.683,1.683,0,0,0-.073-.465c-.567-3.564-4.38-5.678-7.535-6.722a27.614,27.614,0,0,0-14.693-.5c-3.543.833-8,2.713-9.166,6.532a5.531,5.531,0,0,0-.15.618,1.5,1.5,0,0,0-.076.539v.093a5,5,0,0,0,0,.6v17.125a24.859,24.859,0,0,0-8.927,1.309c-2.593.931-5.317,2.589-6.464,5.173a6.433,6.433,0,0,0-.386.95,5.2,5.2,0,0,0-.223,1.9c0,.031,0,.063,0,.094v20.4a1.675,1.675,0,0,0,.081.488C642.157,211.889,647.766,214.01,651.892,214.751Zm10.371-57.641a.729.729,0,0,0,.082-.057l.019-.013c.035-.027.07-.056.1-.081q.234-.167.477-.321a12.547,12.547,0,0,1,1.16-.65c.175-.087.351-.169.529-.249l.038-.019a2.107,2.107,0,0,1,.324-.128q.652-.251,1.321-.452a22.747,22.747,0,0,1,3.079-.693c.118-.019.237-.037.356-.052l.04,0c.295-.032.589-.067.885-.093q.911-.08,1.826-.1a28.188,28.188,0,0,1,3.37.127q.221.022.442.048l.161.018c.221.028.443.065.663.1q.825.138,1.639.334c.556.134,1.107.29,1.65.47q.359.119.713.252c.115.044.229.09.344.134l.024.009h0c.453.205.9.42,1.334.667.323.184.62.418.932.619-.041-.035.057.008.132.072l.039.033.043.027-.037-.021c.071.06.144.12.214.182q.211.188.407.39c.146.151.273.317.414.472-.393-.433-.019-.011.07.133.072.115.134.233.2.353,0-.016,0-.03-.005-.048a.3.3,0,0,0,.012.062l.053.1c.036.069.04.1.031.112l.008.023c.037.122.062.246.09.369,0,.079.01.158.01.238a1.823,1.823,0,0,0,.382,1.073l-.388.3h.005v20.9q0,4.282-.014,8.564a28.528,28.528,0,0,0-2.86.517c-2.987.7-6.614,2.154-8.381,4.878-.149.006-.3.013-.446.016q-.39.008-.779,0v-8.082c0-.531.011-1.064-.016-1.594a1.621,1.621,0,0,0,.016-.172,6.387,6.387,0,0,0-2.43-4.794c-.155-.143-.314-.281-.479-.411a18.668,18.668,0,0,0-9.262-3.489v-4.765a17.891,17.891,0,0,0,6.958,2.679,29.906,29.906,0,0,0,5.368.5,1.76,1.76,0,0,0,0-3.521c-.717,0-1.434-.027-2.15-.082q-.483-.037-.965-.092c-.143-.016-.546-.05-.186-.019-.191-.016-.382-.055-.571-.086a21.991,21.991,0,0,1-3.612-.888q-.413-.142-.819-.3c-.039-.016-.081-.036-.123-.051-.112-.05-.224-.1-.335-.151a13.009,13.009,0,0,1-1.376-.747q-.288-.181-.564-.379c-.026-.019-.057-.045-.089-.069-.072-.06-.145-.118-.215-.18-.153-.134-.3-.274-.443-.421q-.11-.114-.215-.234l-.09-.108c-.033-.045-.071-.1-.087-.121q-.094-.139-.177-.284c-.052-.09-.1-.183-.146-.275-.054-.173-.112-.343-.15-.521,0-.09-.013-.182-.014-.272v-1.707a12.666,12.666,0,0,0,1.949,1.11,26.781,26.781,0,0,0,16.7,1.379,1.775,1.775,0,0,0,1.229-2.165,1.8,1.8,0,0,0-2.165-1.229c-.544.122-1.09.228-1.641.314-.108.017-.217.032-.325.048l-.3.037q-.48.054-.963.091a28.2,28.2,0,0,1-3.7.04q-.823-.045-1.643-.139a2.852,2.852,0,0,1-.292-.035c.432.1-.031-.006-.108-.017q-.423-.064-.844-.142a21.617,21.617,0,0,1-2.991-.77q-.327-.111-.65-.234l-.286-.112-.024-.009h0c-.42-.19-.835-.387-1.238-.613a11.256,11.256,0,0,1-1-.625l-.142-.1c-.143-.12-.286-.239-.423-.367-.246-.23-.454-.485-.68-.733.4.441.019.01-.07-.133-.076-.122-.141-.249-.208-.375.006.023.01.042.016.07a.606.606,0,0,0-.036-.1l-.012-.023a.344.344,0,0,1-.048-.16c-.032-.1-.064-.208-.088-.314,0-.017-.006-.039-.008-.059,0-.16-.009-.319,0-.48v0c.036-.149.068-.3.116-.443.009-.028.019-.057.03-.085.065-.125.126-.251.2-.372.028-.046.121-.155.193-.254-.059.059-.107.073,0-.053l.082-.1a.086.086,0,0,0,0-.02.124.124,0,0,1,0,.019l.062-.073a7.377,7.377,0,0,1,.8-.769Zm29.516,36.65q.221.022.442.048l.161.018c.221.028.443.065.663.1q.824.138,1.639.334.834.2,1.651.47.359.119.713.252c.115.044.229.09.344.134l.024.009h0c.454.205.9.42,1.333.667.323.184.62.418.932.619-.041-.035.058.008.132.072l.039.033.043.027-.037-.021c.071.06.144.12.214.182q.211.187.407.39c.146.151.273.317.414.472-.393-.433-.019-.011.07.133.072.115.134.233.2.353,0-.016,0-.03-.005-.048a.3.3,0,0,0,.012.062l.053.1c.036.069.039.1.03.112s.007.015.009.023c.037.122.062.246.09.369,0,.079.01.158.01.238a1.823,1.823,0,0,0,.382,1.073l-.957.745h.573l-.008,7.188c0,1.226-.036,2.457,0,3.682v.012c-.027.114-.051.229-.085.341,0,.005,0,.011-.006.016.016,0,.017.024-.015.083s-.046.1-.07.146l0,.007a.249.249,0,0,0-.008.047c0-.014,0-.025,0-.038-.11.214-.243.41-.373.612l-.03.036c-.078.092-.158.181-.242.269a7.578,7.578,0,0,1-.658.613c-.029.023-.062.048-.094.072-.093.067-.185.134-.279.2-.267.181-.543.35-.825.508s-.569.3-.861.443c-.126.059-.253.115-.38.171-.1.04-.2.082-.307.121a19.625,19.625,0,0,1-2.159.68,23.582,23.582,0,0,1-2.328.467l-.211.031-.042,0c-.221.024-.441.051-.662.072q-.678.065-1.357.1-1.355.063-2.711,0-.6-.03-1.207-.086-.332-.031-.663-.07l-.088-.011-.239-.033a21.479,21.479,0,0,1-4.545-1.169l-.2-.081c-.121-.059-.25-.108-.371-.165q-.465-.217-.914-.467-.423-.237-.825-.508c-.085-.058-.168-.118-.251-.178l.032.032a.659.659,0,0,0-.062-.053l-.055-.039a.423.423,0,0,1-.07-.062l-.042-.032c-.192-.163-.377-.335-.552-.517q-.126-.13-.244-.268c-.02-.023-.039-.046-.058-.07-.123-.2-.256-.384-.363-.592l-.024-.05c-.027-.077-.083-.223-.1-.269-.029-.1-.053-.2-.074-.3q0-.013,0-.025c0-.146,0-.293,0-.439v-.25a17.906,17.906,0,0,0,6.944,2.669,29.847,29.847,0,0,0,5.368.5,1.76,1.76,0,1,0,0-3.521c-.718,0-1.434-.026-2.15-.081q-.483-.037-.965-.091c-.143-.016-.546-.05-.186-.019-.19-.016-.382-.055-.571-.086a22.029,22.029,0,0,1-3.611-.888q-.413-.142-.819-.3c-.039-.015-.081-.036-.122-.051-.112-.05-.224-.1-.335-.151a12.958,12.958,0,0,1-1.376-.747q-.288-.181-.564-.379c-.026-.019-.057-.045-.089-.069-.072-.06-.145-.118-.215-.18-.153-.134-.3-.274-.443-.421q-.11-.114-.215-.234c-.017-.019-.053-.063-.09-.107s-.072-.1-.087-.122c-.062-.093-.122-.187-.177-.284s-.1-.183-.146-.275c-.055-.173-.112-.343-.15-.521,0-.049,0-.1-.007-.148v-.863a12.6,12.6,0,0,0,1.942,1.105,26.781,26.781,0,0,0,16.7,1.379,1.775,1.775,0,0,0,1.229-2.165,1.8,1.8,0,0,0-2.166-1.229c-.543.122-1.09.228-1.641.314-.108.017-.217.032-.325.048l-.3.036q-.481.054-.963.091a28.205,28.205,0,0,1-3.7.04q-.823-.045-1.643-.139a2.839,2.839,0,0,1-.292-.035c.432.1-.031-.006-.108-.017q-.423-.064-.844-.142a21.62,21.62,0,0,1-2.991-.77q-.326-.111-.649-.234l-.286-.112-.024-.009h0c-.42-.19-.835-.387-1.238-.613a11.256,11.256,0,0,1-1-.625l-.142-.1c-.143-.12-.286-.239-.422-.367-.246-.23-.455-.485-.68-.733.4.441.019.01-.07-.133-.076-.122-.141-.249-.208-.375.006.023.011.042.017.07a.6.6,0,0,0-.036-.1l-.012-.023a.338.338,0,0,1-.048-.16c-.032-.1-.064-.208-.088-.314,0-.017-.006-.039-.008-.059,0-.16-.009-.319,0-.48v0c.036-.149.068-.3.116-.443.009-.028.019-.057.03-.085.065-.125.126-.251.2-.372.027-.046.121-.155.193-.254-.059.059-.107.073,0-.053l.082-.1a.08.08,0,0,0,0-.02.125.125,0,0,1,0,.019l.062-.073a7.389,7.389,0,0,1,.8-.769l-.033.019a.807.807,0,0,0,.082-.057l.019-.013c.035-.027.07-.056.1-.081q.234-.167.477-.321a12.557,12.557,0,0,1,1.16-.65c.174-.087.351-.169.529-.249l.037-.019a2.1,2.1,0,0,1,.324-.128q.652-.251,1.321-.452a22.738,22.738,0,0,1,3.079-.693c.118-.019.237-.037.355-.052l.04,0c.3-.032.589-.067.885-.093q.911-.08,1.826-.1A28.194,28.194,0,0,1,691.779,193.76ZM645.3,207.816Zm1.081,1.064-.049-.035C646.2,208.743,646.3,208.816,646.386,208.879Zm9.192,2.785q-.49-.027-.98-.071-.259-.024-.518-.052l-.22-.025-.152-.018-.032,0-.286-.043c-.142-.023-.283-.045-.424-.07q-.484-.084-.964-.188-.886-.192-1.755-.456c-.536-.164-1.061-.431-1.6-.57l.173.045a2.265,2.265,0,0,1-.247-.081q-.187-.085-.371-.174-.357-.173-.7-.367c-.236-.132-.468-.272-.694-.42q-.152-.1-.3-.206l-.078-.056c-.311-.331-.7-.594-1-.943l-.016-.019c-.044-.084-.129-.173-.177-.248-.1-.16-.19-.327-.277-.5-.028-.085-.059-.169-.083-.255s-.046-.176-.064-.266c0-.025-.01-.05-.013-.075v-1.125a17.893,17.893,0,0,0,6.958,2.679,29.943,29.943,0,0,0,5.368.5,1.76,1.76,0,1,0,0-3.521c-.718,0-1.434-.027-2.15-.082q-.483-.037-.965-.092c-.143-.016-.546-.05-.186-.019-.19-.016-.382-.055-.571-.086a22,22,0,0,1-3.612-.888q-.412-.142-.819-.3c-.039-.015-.081-.035-.122-.051-.112-.05-.224-.1-.336-.151a12.973,12.973,0,0,1-1.376-.747c-.192-.12-.381-.247-.564-.38-.027-.019-.057-.044-.089-.069-.072-.059-.145-.118-.215-.18-.153-.135-.3-.274-.443-.421q-.11-.114-.215-.233l-.089-.108c-.033-.046-.072-.1-.088-.122-.062-.093-.121-.188-.177-.284s-.1-.183-.146-.275a5.408,5.408,0,0,1-.15-.521c0-.09-.014-.182-.014-.272v-1.019c.121.083.243.164.367.243a18.985,18.985,0,0,0,6.98,2.5,30.415,30.415,0,0,0,4.979.432,1.76,1.76,0,1,0,0-3.521c-.813,0-1.625-.035-2.435-.1q-.314-.027-.628-.062l-.421-.053c-.31-.046-.621-.094-.929-.151a21.54,21.54,0,0,1-4-1.143l-.182-.081q-.183-.083-.364-.172c-.355-.174-.7-.362-1.041-.567a4.167,4.167,0,0,1-.806-.541c.315.323-.084-.073-.156-.135q-.19-.165-.369-.341-.13-.129-.253-.263c-.053-.059-.106-.118-.157-.179q-.18-.221.059.083c-.123-.007-.4-.617-.463-.745a2.188,2.188,0,0,0-.124-.376c-.014-.052-.025-.1-.036-.156-.006-.1-.019-.2-.02-.3V191.5a12.646,12.646,0,0,0,1.949,1.11,26.78,26.78,0,0,0,16.7,1.379,1.774,1.774,0,0,0,1.229-2.165,1.8,1.8,0,0,0-2.165-1.229c-.544.122-1.09.228-1.641.314-.108.017-.216.032-.325.048l-.3.036q-.481.054-.963.091a28.2,28.2,0,0,1-3.7.04q-.823-.045-1.643-.139a2.842,2.842,0,0,1-.292-.035c.432.1-.031-.006-.108-.017q-.424-.064-.845-.142a21.626,21.626,0,0,1-2.991-.77q-.327-.111-.65-.234l-.286-.112-.024-.009h0c-.42-.19-.835-.387-1.237-.613a11.167,11.167,0,0,1-1-.625l-.142-.1c-.143-.12-.286-.239-.423-.367-.246-.23-.455-.485-.68-.733.4.441.019.01-.07-.133-.076-.122-.141-.249-.208-.375.006.023.011.042.017.07a.633.633,0,0,0-.036-.1l-.013-.023a.339.339,0,0,1-.048-.16c-.032-.1-.064-.208-.088-.314,0-.017-.006-.039-.008-.06,0-.16-.008-.319,0-.479v0c.036-.149.068-.3.116-.443.01-.028.02-.057.03-.085.065-.125.126-.251.2-.372.027-.046.121-.155.193-.253-.059.059-.107.073,0-.053.028-.031.055-.063.082-.1a.08.08,0,0,0,0-.02.131.131,0,0,1,0,.019l.062-.073a7.419,7.419,0,0,1,.8-.769l-.033.019a.74.74,0,0,0,.082-.057l.019-.013c.035-.027.07-.056.1-.081q.234-.167.477-.321a12.633,12.633,0,0,1,1.16-.65c.175-.087.351-.169.529-.249l.038-.019a2.105,2.105,0,0,1,.324-.128q.652-.251,1.321-.452a22.729,22.729,0,0,1,3.079-.693c.118-.019.237-.037.356-.052l.04,0c.3-.032.589-.067.885-.093q.911-.08,1.826-.1a28.187,28.187,0,0,1,3.37.127q.221.022.442.048l.161.018c.222.028.443.065.663.1q.825.138,1.639.334c.556.134,1.107.29,1.65.47q.359.119.713.252c.115.044.229.09.344.134l.024.009h0c.454.205.9.42,1.334.667.323.184.62.418.932.619-.041-.034.058.008.132.072l.039.033.043.027-.037-.021c.071.06.144.12.214.182.14.125.276.255.407.39.146.151.273.317.414.472-.393-.433-.019-.011.07.133.071.115.134.233.2.353,0-.016,0-.03-.006-.048a.288.288,0,0,0,.013.062l.053.1c.036.069.04.1.031.112s.006.016.009.023c.037.122.062.246.089.369,0,.079.009.158.011.238a1.823,1.823,0,0,0,.382,1.073l-.365.285c.014,1.395-.017,2.794-.017,4.187V206.61c-.017.074-.03.149-.048.223s-.047.177-.075.264c-.009.026-.03.081-.048.129l-.02.041c-.037.073-.076.145-.117.217-.085.148-.237.3-.308.462-.054.063-.109.126-.166.187-.148.16-.3.312-.465.458q-.123.11-.251.217c-.191.109-.369.271-.553.391a12.607,12.607,0,0,1-1.353.759q-.158.077-.317.149c-.054.025-.37.156-.3.129l-.117.046q-.232.091-.466.174a21.4,21.4,0,0,1-3.5.914c-.3.053-.606.118-.909.144l-.126.013q-.295.034-.59.062-1.025.1-2.054.114Q656.624,211.721,655.578,211.665Z" fill="#323232"/>
      <path id="パス_4710" data-name="パス 4710" d="M662.72,319.831Z" transform="translate(-13.899 -109.618)" fill="#323232"/>
      <path id="パス_4711" data-name="パス 4711" d="M811.358,325.533a.255.255,0,0,1,.009-.047l0,.008C811.361,325.508,811.358,325.518,811.358,325.533Z" transform="translate(-110.203 -113.282)" fill="#ffdc50"/>
      <path id="パス_4712" data-name="パス 4712" d="M746.511,330.109l-.032-.032-.03-.021A.653.653,0,0,1,746.511,330.109Z" transform="translate(-68.148 -116.243)" fill="#ffdc50"/>
      <path id="パス_4713" data-name="パス 4713" d="M746.165,329.83l.055.039c-.041-.034-.082-.069-.125-.1A.431.431,0,0,0,746.165,329.83Z" transform="translate(-67.919 -116.057)" fill="#ffdc50"/>
      <path id="パス_4714" data-name="パス 4714" d="M811.386,325.043c.024-.048.045-.1.07-.146s.03-.087.015-.083a2.486,2.486,0,0,0-.089.237Z" transform="translate(-110.219 -112.846)" fill="#ffdc50"/>
      <path id="パス_4715" data-name="パス 4715" d="M746.065,329.719c.042.033.083.067.125.1l.03.021C746.05,329.67,746.026,329.674,746.065,329.719Z" transform="translate(-67.889 -116.008)" fill="#323232"/>
      <path id="パス_4716" data-name="パス 4716" d="M811.369,325.059l0-.008a2.47,2.47,0,0,1,.089-.237C811.439,324.819,811.382,324.9,811.369,325.059Z" transform="translate(-110.21 -112.847)" fill="#323232"/>
      <path id="パス_4717" data-name="パス 4717" d="M653.091,246.293a.078.078,0,0,1,0,.02h0A.123.123,0,0,0,653.091,246.293Z" transform="translate(-7.657 -61.972)" fill="#ffdc50"/>
      <path id="パス_4718" data-name="パス 4718" d="M655.531,243.85a.732.732,0,0,1-.082.057l.033-.019.011-.01A.456.456,0,0,1,655.531,243.85Z" transform="translate(-9.188 -60.39)" fill="#ffdc50"/>
      <path id="パス_4719" data-name="パス 4719" d="M651.811,253.107c-.006-.028-.011-.046-.017-.07l-.019-.034A.632.632,0,0,1,651.811,253.107Z" transform="translate(-6.808 -66.32)" fill="#ffdc50"/>
      <path id="パス_4720" data-name="パス 4720" d="M652.731,246.445c-.111.126-.062.112,0,.053a.522.522,0,0,0,.085-.149C652.786,246.382,652.759,246.414,652.731,246.445Z" transform="translate(-7.384 -62.009)" fill="#ffdc50"/>
      <path id="パス_4721" data-name="パス 4721" d="M655.682,243.825l.019-.013Z" transform="translate(-9.339 -60.365)" fill="#ffdc50"/>
      <path id="パス_4722" data-name="パス 4722" d="M651.6,252.484a.339.339,0,0,0,.048.16l.013.023c-.012-.027-.024-.055-.033-.082S651.612,252.517,651.6,252.484Z" transform="translate(-6.695 -65.984)" fill="#ffdc50"/>
      <path id="パス_4723" data-name="パス 4723" d="M717.076,243.962l-.043-.027.006.005Z" transform="translate(-49.089 -60.445)" fill="#ffdc50"/>
      <path id="パス_4724" data-name="パス 4724" d="M716.662,243.685c-.074-.063-.173-.106-.132-.072.056.036.113.072.171.105Z" transform="translate(-48.757 -60.228)" fill="#ffdc50"/>
      <path id="パス_4725" data-name="パス 4725" d="M720.729,248.156c0,.018,0,.032.006.048l.007.013A.277.277,0,0,1,720.729,248.156Z" transform="translate(-51.484 -63.179)" fill="#ffdc50"/>
      <path id="パス_4726" data-name="パス 4726" d="M720.818,248.433l-.053-.1c.02.071.06.149.083.214C720.858,248.537,720.854,248.5,720.818,248.433Z" transform="translate(-51.507 -63.293)" fill="#ffdc50"/>
      <path id="パス_4727" data-name="パス 4727" d="M655.611,243.691l-.019.013a.463.463,0,0,0-.038.028l-.011.01C655.842,243.572,655.723,243.616,655.611,243.691Z" transform="translate(-9.249 -60.243)" fill="#323232"/>
      <path id="パス_4728" data-name="パス 4728" d="M651.6,252.474c.01.033.017.068.028.1s.021.055.033.082l.019.034C651.636,252.5,651.607,252.451,651.6,252.474Z" transform="translate(-6.696 -65.974)" fill="#323232"/>
      <path id="パス_4729" data-name="パス 4729" d="M652.93,246.346h0a.527.527,0,0,1-.086.149A.284.284,0,0,0,652.93,246.346Z" transform="translate(-7.5 -62.007)" fill="#323232"/>
      <path id="パス_4730" data-name="パス 4730" d="M716.719,243.741c-.058-.033-.114-.069-.171-.105a1.652,1.652,0,0,0,.177.111Z" transform="translate(-48.775 -60.251)" fill="#323232"/>
      <path id="パス_4731" data-name="パス 4731" d="M720.836,248.52c-.024-.065-.063-.143-.083-.214l-.007-.013C720.763,248.456,720.82,248.534,720.836,248.52Z" transform="translate(-51.494 -63.268)" fill="#323232"/>
      <path id="パス_4732" data-name="パス 4732" d="M807.7,280.962l-.043-.027.006.005Z" transform="translate(-107.807 -84.417)" fill="#ffdc50"/>
      <path id="パス_4733" data-name="パス 4733" d="M807.288,280.685c-.074-.063-.173-.106-.132-.072.057.036.113.072.171.105Z" transform="translate(-107.475 -84.201)" fill="#ffdc50"/>
      <path id="パス_4734" data-name="パス 4734" d="M746.309,280.825l.019-.013Z" transform="translate(-68.057 -84.338)" fill="#ffdc50"/>
      <path id="パス_4735" data-name="パス 4735" d="M746.158,280.85a.806.806,0,0,1-.082.057l.033-.019.011-.01A.4.4,0,0,1,746.158,280.85Z" transform="translate(-67.906 -84.362)" fill="#ffdc50"/>
      <path id="パス_4736" data-name="パス 4736" d="M811.356,285.156c0,.018,0,.032.005.048l.007.013A.3.3,0,0,1,811.356,285.156Z" transform="translate(-110.202 -87.152)" fill="#ffdc50"/>
      <path id="パス_4737" data-name="パス 4737" d="M811.444,285.433l-.053-.1c.02.071.06.149.083.214C811.484,285.537,811.48,285.5,811.444,285.433Z" transform="translate(-110.225 -87.266)" fill="#ffdc50"/>
      <path id="パス_4738" data-name="パス 4738" d="M743.716,283.293a.077.077,0,0,1,0,.02h0A.123.123,0,0,0,743.716,283.293Z" transform="translate(-66.375 -85.945)" fill="#ffdc50"/>
      <path id="パス_4739" data-name="パス 4739" d="M743.358,283.445c-.111.126-.063.112,0,.053a.522.522,0,0,0,.085-.149Z" transform="translate(-66.102 -85.982)" fill="#ffdc50"/>
      <path id="パス_4740" data-name="パス 4740" d="M742.437,290.107c-.006-.028-.011-.046-.017-.07L742.4,290A.6.6,0,0,1,742.437,290.107Z" transform="translate(-65.525 -90.293)" fill="#ffdc50"/>
      <path id="パス_4741" data-name="パス 4741" d="M742.228,289.484a.339.339,0,0,0,.048.16l.012.023c-.011-.027-.023-.055-.032-.082S742.238,289.517,742.228,289.484Z" transform="translate(-65.413 -89.956)" fill="#ffdc50"/>
      <path id="パス_4742" data-name="パス 4742" d="M807.345,280.741c-.058-.033-.114-.069-.171-.105a1.637,1.637,0,0,0,.177.111Z" transform="translate(-107.492 -84.224)" fill="#323232"/>
      <path id="パス_4743" data-name="パス 4743" d="M746.238,280.691l-.019.013a.407.407,0,0,0-.038.028l-.011.01C746.469,280.572,746.35,280.616,746.238,280.691Z" transform="translate(-67.967 -84.216)" fill="#323232"/>
      <path id="パス_4744" data-name="パス 4744" d="M811.461,285.52c-.024-.065-.063-.143-.083-.214l-.007-.013C811.389,285.456,811.446,285.534,811.461,285.52Z" transform="translate(-110.212 -87.241)" fill="#323232"/>
      <path id="パス_4745" data-name="パス 4745" d="M743.557,283.346h0a.523.523,0,0,1-.085.149A.286.286,0,0,0,743.557,283.346Z" transform="translate(-66.218 -85.979)" fill="#323232"/>
      <path id="パス_4746" data-name="パス 4746" d="M742.229,289.474c.01.033.017.068.028.1s.021.055.032.082l.019.034C742.262,289.5,742.234,289.451,742.229,289.474Z" transform="translate(-65.414 -89.946)" fill="#323232"/>
    </g>
    <g id="グループ_9309" data-name="グループ 9309" transform="translate(-823.892 -131.34)">
      <path id="パス_4747" data-name="パス 4747" d="M1027.5,222.518v27.329h57.261V222.518H1027.5Zm12.913,5.636h-8.464a1.83,1.83,0,0,1,0-3.657h8.464A1.83,1.83,0,0,1,1040.412,228.154Zm24.049,15.008a10.933,10.933,0,0,1-12,3.257,11.044,11.044,0,0,1-7.189-9.875,2.045,2.045,0,0,1-.023-.361,2.1,2.1,0,0,1,.014-.292,10.873,10.873,0,1,1,19.2,7.271Z" transform="translate(-6.343 -6.343)" fill="#fff"/>
      <path id="パス_4748" data-name="パス 4748" d="M1019.328,247.161h60.918a1.832,1.832,0,0,0,1.828-1.829V214.347a1.855,1.855,0,0,0-1.828-1.829h-60.918a1.855,1.855,0,0,0-1.829,1.829v30.986A1.855,1.855,0,0,0,1019.328,247.161Zm59.089-3.657h-57.261V216.175h57.261Z" fill="#323232"/>
      <path id="パス_4749" data-name="パス 4749" d="M1093.259,240.132a7.223,7.223,0,1,0,7.223,7.223A7.307,7.307,0,0,0,1093.259,240.132Z" transform="translate(-43.472 -17.515)" fill="#ffdc50"/>
      <path id="パス_4750" data-name="パス 4750" d="M1084.911,230.363a11,11,0,0,0-8.863,10.4,2.1,2.1,0,0,0-.014.292,2.045,2.045,0,0,0,.023.361,11.044,11.044,0,0,0,7.189,9.875,10.876,10.876,0,1,0,1.665-20.924Zm2,17.911a7.223,7.223,0,1,1,7.223-7.223A7.306,7.306,0,0,1,1086.914,248.274Z" transform="translate(-37.128 -11.211)" fill="#323232"/>
      <path id="パス_4751" data-name="パス 4751" d="M1045.065,227.928H1036.6a1.83,1.83,0,0,0,0,3.657h8.464A1.83,1.83,0,0,0,1045.065,227.928Z" transform="translate(-10.996 -9.774)" fill="#323232"/>
    </g>
  </g>
</svg>
