<svg xmlns="http://www.w3.org/2000/svg" width="61.257" height="80.137" viewBox="0 0 61.257 80.137">
  <path id="Icon_awesome-yen-sign" data-name="Icon awesome-yen-sign" d="M60.564,2.25H48.883a2.147,2.147,0,0,0-1.932,1.2L37.042,23.7c-2.594,6.207-4.848,12.861-4.848,12.861h-.233S29.708,29.9,27.114,23.7L17.2,3.448a2.147,2.147,0,0,0-1.932-1.2H3.61A2.146,2.146,0,0,0,1.714,5.4L16.042,32.3H5.613a2.153,2.153,0,0,0-2.147,2.147v5.724a2.153,2.153,0,0,0,2.147,2.147H21.39l3.542,6.654v4.794H5.613a2.153,2.153,0,0,0-2.147,2.147v5.724a2.153,2.153,0,0,0,2.147,2.147H24.932V80.24a2.153,2.153,0,0,0,2.147,2.147H37.1a2.153,2.153,0,0,0,2.147-2.147V63.784H58.561a2.153,2.153,0,0,0,2.147-2.147V55.913a2.153,2.153,0,0,0-2.147-2.147H39.242V48.973l3.542-6.654H58.561a2.153,2.153,0,0,0,2.147-2.147V34.448A2.153,2.153,0,0,0,58.561,32.3H48.132L62.46,5.4a2.14,2.14,0,0,0-1.9-3.148Z" transform="translate(-1.462 -2.25)" fill="#ffda2b"/>
</svg>
