<svg xmlns="http://www.w3.org/2000/svg" width="72.075" height="72.075" viewBox="0 0 72.075 72.075">
  <path id="Icon_awesome-pencil-alt" data-name="Icon awesome-pencil-alt" d="M70.091,20l-6.49,6.49a1.691,1.691,0,0,1-2.393,0L45.582,10.863a1.691,1.691,0,0,1,0-2.393l6.49-6.49a6.772,6.772,0,0,1,9.559,0l8.461,8.461A6.746,6.746,0,0,1,70.091,20ZM40.007,14.044,3.039,51.013.055,68.117a3.383,3.383,0,0,0,3.914,3.914l17.1-3L58.041,32.064a1.691,1.691,0,0,0,0-2.393L42.415,14.044a1.708,1.708,0,0,0-2.407,0Zm-22.538,33.8a1.963,1.963,0,0,1,0-2.787l21.68-21.68a1.971,1.971,0,1,1,2.787,2.787l-21.68,21.68a1.963,1.963,0,0,1-2.787,0ZM12.387,59.684h6.757v5.11l-9.08,1.591L5.686,62.007l1.591-9.08h5.11Z" transform="translate(-0.002 -0.005)" fill="#ffda2b"/>
</svg>
