<svg id="グループ_9157" data-name="グループ 9157" xmlns="http://www.w3.org/2000/svg" xmlns:xlink="http://www.w3.org/1999/xlink" width="442.59" height="109.278" viewBox="0 0 442.59 109.278">
  <defs>
    <clipPath id="clip-path">
      <path id="SVGID" d="M379.017,472.636a54.623,54.623,0,1,1-69.625-33.462A54.625,54.625,0,0,1,379.017,472.636Z" transform="translate(-272.836 -436.08)" fill="none"/>
    </clipPath>
    <radialGradient id="radial-gradient" cx="0.389" cy="0.308" r="0.69" gradientTransform="translate(0)" gradientUnits="objectBoundingBox">
      <stop offset="0" stop-color="#acddf7"/>
      <stop offset="1" stop-color="#009fe8"/>
    </radialGradient>
    <radialGradient id="radial-gradient-2" cx="0.368" cy="0.269" r="0.695" gradientTransform="translate(0)" gradientUnits="objectBoundingBox">
      <stop offset="0" stop-color="#ecf1ba"/>
      <stop offset="1" stop-color="#c3d600"/>
    </radialGradient>
    <radialGradient id="radial-gradient-3" cx="0.419" cy="0.007" r="0.633" gradientTransform="matrix(0.987, -0.162, 0.162, 0.987, 0.065, -0.042)" gradientUnits="objectBoundingBox">
      <stop offset="0" stop-color="#fff"/>
      <stop offset="1" stop-color="#bce1de"/>
    </radialGradient>
  </defs>
  <g id="グループ_9133" data-name="グループ 9133" transform="translate(0)">
    <g id="グループ_9132" data-name="グループ 9132">
      <g id="グループ_9131" data-name="グループ 9131" clip-path="url(#clip-path)">
        <g id="グループ_9130" data-name="グループ 9130" transform="translate(8.152 9.353)">
          <path id="パス_4340" data-name="パス 4340" d="M354.65,482.494a39.176,39.176,0,1,1-49.938-24A39.176,39.176,0,0,1,354.65,482.494Z" transform="translate(-278.494 -436.529)" fill="url(#radial-gradient)" style="mix-blend-mode: multiply;isolation: isolate"/>
          <path id="パス_4341" data-name="パス 4341" d="M348.911,457.676a22.57,22.57,0,1,1-28.769-13.825A22.57,22.57,0,0,1,348.911,457.676Z" transform="translate(-266.791 -442.571)" fill="url(#radial-gradient-2)" style="mix-blend-mode: multiply;isolation: isolate"/>
        </g>
      </g>
    </g>
    <path id="パス_4342" data-name="パス 4342" d="M381.371,481.856a54.623,54.623,0,1,1-62.758-45.04A54.622,54.622,0,0,1,381.371,481.856Z" transform="translate(-272.834 -436.077)" fill="url(#radial-gradient-3)" style="mix-blend-mode: multiply;isolation: isolate"/>
  </g>
  <g id="グループ_9134" data-name="グループ 9134" transform="translate(123.353 25.476)">
    <path id="パス_4343" data-name="パス 4343" d="M389.966,508.191a22.918,22.918,0,0,1-1.814,5.361,6.245,6.245,0,0,1-5.428,3.133H365.871a18.155,18.155,0,0,1-5.2-.891s-2.8-1.023-2.125-4.853l8.568-48.588a23.772,23.772,0,0,1,1.788-5.37,6.128,6.128,0,0,1,5.3-3.168H391.06a18.629,18.629,0,0,1,5.2.875s2.951,1.056,2.272,4.913l-2.108,11.951a3.433,3.433,0,0,1-3.235,2.751h-3.86a2.249,2.249,0,0,1-2.265-2.751l1.22-6.913a2.25,2.25,0,0,0-2.266-2.748h-6.671a3.432,3.432,0,0,0-3.236,2.748l-7.268,41.223a2.251,2.251,0,0,0,2.265,2.751h6.671a3.439,3.439,0,0,0,3.237-2.751l1.359-7.718a3.431,3.431,0,0,1,3.235-2.749h3.859a2.252,2.252,0,0,1,2.268,2.749Z" transform="translate(-358.445 -453.736)" fill="#009fe8"/>
    <path id="パス_4344" data-name="パス 4344" d="M415.969,514.1a2.156,2.156,0,0,1-2.265,2.583h-4.3a3.349,3.349,0,0,1-3.215-2.591l-4.288-24.02a18.4,18.4,0,0,1,.023-5.344l.029-.164a3.437,3.437,0,0,1,3.235-2.75h3.741a3.433,3.433,0,0,0,3.234-2.749l2.543-14.426a2.248,2.248,0,0,0-2.265-2.748h-6.35a3.43,3.43,0,0,0-3.235,2.748l-8.693,49.294a3.432,3.432,0,0,1-3.235,2.751h-3.9a2.251,2.251,0,0,1-2.267-2.751l10.116-57.368a3.44,3.44,0,0,1,3.236-2.752h19.444a18.263,18.263,0,0,1,5.2.889s2.878,1.042,2.2,4.9l-3.547,20.106a35.862,35.862,0,0,1-1.514,5.445,4.748,4.748,0,0,1-2.569,2.449,20.485,20.485,0,0,1-6.212.6Z" transform="translate(-346.861 -453.736)" fill="#009fe8"/>
    <path id="パス_4345" data-name="パス 4345" d="M443.647,508.191a23.114,23.114,0,0,1-1.81,5.361,6.208,6.208,0,0,1-5.392,3.133H418.787a18.155,18.155,0,0,1-5.195-.891s-2.8-1.023-2.127-4.853l8.569-48.588a23.849,23.849,0,0,1,1.786-5.37,6.133,6.133,0,0,1,5.3-3.168h17.656a18.557,18.557,0,0,1,5.2.882s2.913,1.049,2.234,4.906Zm-12.225.422a3.432,3.432,0,0,0,3.235-2.751l7.269-41.223a2.249,2.249,0,0,0-2.266-2.748h-7.393a3.427,3.427,0,0,0-3.234,2.748l-7.269,41.223a2.251,2.251,0,0,0,2.267,2.751Z" transform="translate(-335.115 -453.736)" fill="#009fe8"/>
    <path id="パス_4346" data-name="パス 4346" d="M522.367,513.935a3.434,3.434,0,0,1-3.238,2.751h-2.735a3.441,3.441,0,0,1-3.274-2.568l-7.039-34.429-6.413,34.246a3.434,3.434,0,0,1-3.235,2.751h-3.659a2.246,2.246,0,0,1-2.262-2.751l10.114-57.368a3.438,3.438,0,0,1,3.235-2.752H506.6a3.482,3.482,0,0,1,3.3,2.566l7.137,33.639,6.294-33.454a3.437,3.437,0,0,1,3.235-2.752h3.657a2.25,2.25,0,0,1,2.264,2.752Z" transform="translate(-300.236 -453.736)" fill="#009fe8"/>
    <path id="パス_4347" data-name="パス 4347" d="M549.768,514.008a2.682,2.682,0,0,1-2.707,2.7h-3.82a2.68,2.68,0,0,1-2.7-2.716l.114-6.5a2.681,2.681,0,0,0-2.7-2.716h-6.27a4.174,4.174,0,0,0-3.658,2.716l-2.17,6.5a4.178,4.178,0,0,1-3.661,2.716h-3.782c-1.511,0-2.272-1.373-1.722-2.859l21.246-57.389a4.362,4.362,0,0,1,3.751-2.7h4.38a2.788,2.788,0,0,1,2.791,2.7Zm-11.713-17.3a2.788,2.788,0,0,0,2.789-2.716l.339-22.932-8.66,22.932a1.9,1.9,0,0,0,1.829,2.716Z" transform="translate(-288.754 -453.76)" fill="#009fe8"/>
    <path id="パス_4348" data-name="パス 4348" d="M556.135,496.924l13.749-40.394a4.206,4.206,0,0,1,3.673-2.715h3.9a1.842,1.842,0,0,1,1.756,2.7l-21.167,57.548a4.336,4.336,0,0,1-3.742,2.7h-3.859a2.782,2.782,0,0,1-2.788-2.7l-.837-57.548a2.687,2.687,0,0,1,2.71-2.7h3.942a2.7,2.7,0,0,1,2.716,2.716" transform="translate(-275.391 -453.736)" fill="#009fe8"/>
    <path id="パス_4349" data-name="パス 4349" d="M575.839,513.935a3.433,3.433,0,0,1-3.234,2.751h-3.9a2.249,2.249,0,0,1-2.265-2.751l10.116-57.368a3.434,3.434,0,0,1,3.235-2.752h3.9a2.254,2.254,0,0,1,2.266,2.752Z" transform="translate(-266.761 -453.736)" fill="#009fe8"/>
    <path id="パス_4350" data-name="パス 4350" d="M501.716,454.688a18.653,18.653,0,0,0-5.206-.873H480.339a6.2,6.2,0,0,0-5.37,3.173,23.722,23.722,0,0,0-1.8,5.366l-1.978,11.23c-.588,3.71,1.912,5.872,2.827,6.909L486.5,495.517a6.273,6.273,0,0,1,1.184,4.637l-1.035,5.867a3.439,3.439,0,0,1-3.235,2.749h-5.994a2.249,2.249,0,0,1-2.264-2.749l1.12-6.353a2.25,2.25,0,0,0-2.264-2.751h-3.9a3.44,3.44,0,0,0-3.236,2.751l-1.993,11.313c-.672,3.8,2.242,4.834,2.242,4.834a18.643,18.643,0,0,0,5.2.872H488.5a6.2,6.2,0,0,0,5.37-3.171,23.642,23.642,0,0,0,1.8-5.366l1.98-11.232c.588-3.71-1.913-5.87-2.828-6.908l-12.481-15.024a6.272,6.272,0,0,1-1.183-4.637l1.034-5.867a3.437,3.437,0,0,1,3.235-2.749h5.994a2.25,2.25,0,0,1,2.264,2.749l-1.121,6.351a2.25,2.25,0,0,0,2.264,2.75h3.9a3.437,3.437,0,0,0,3.235-2.75l1.994-11.313C504.628,455.718,501.716,454.688,501.716,454.688Z" transform="translate(-311.561 -453.736)" fill="#009fe8"/>
    <path id="パス_4351" data-name="パス 4351" d="M475.621,454.688a18.651,18.651,0,0,0-5.2-.873H454.244a6.2,6.2,0,0,0-5.37,3.173,23.636,23.636,0,0,0-1.8,5.366l-1.98,11.23c-.588,3.71,1.914,5.872,2.828,6.909l12.481,15.024a6.273,6.273,0,0,1,1.183,4.637l-1.035,5.867a3.437,3.437,0,0,1-3.235,2.749h-5.994a2.25,2.25,0,0,1-2.264-2.749l1.121-6.353a2.251,2.251,0,0,0-2.264-2.751h-3.9a3.438,3.438,0,0,0-3.235,2.751l-1.994,11.313c-.67,3.8,2.242,4.834,2.242,4.834a18.646,18.646,0,0,0,5.2.872h16.173a6.2,6.2,0,0,0,5.37-3.171,23.758,23.758,0,0,0,1.8-5.366l1.978-11.232c.588-3.71-1.912-5.87-2.827-6.908l-12.481-15.024a6.266,6.266,0,0,1-1.184-4.637l1.035-5.867a3.439,3.439,0,0,1,3.235-2.749h5.994a2.249,2.249,0,0,1,2.264,2.749l-1.12,6.351a2.25,2.25,0,0,0,2.264,2.75h3.9a3.435,3.435,0,0,0,3.235-2.75l1.994-11.313C478.534,455.718,475.621,454.688,475.621,454.688Z" transform="translate(-323.066 -453.736)" fill="#009fe8"/>
  </g>
</svg>
