<svg xmlns="http://www.w3.org/2000/svg" width="75.25" height="86" viewBox="0 0 75.25 86">
  <path id="Icon_awesome-calculator" data-name="Icon awesome-calculator" d="M67.188,0H8.063A8.267,8.267,0,0,0,0,8.063V77.938A8.267,8.267,0,0,0,8.063,86H67.188a8.267,8.267,0,0,0,8.063-8.062V8.063A8.267,8.267,0,0,0,67.188,0ZM21.5,73.1a2.312,2.312,0,0,1-2.15,2.15H12.9a2.312,2.312,0,0,1-2.15-2.15V66.65A2.312,2.312,0,0,1,12.9,64.5h6.45a2.312,2.312,0,0,1,2.15,2.15Zm0-21.5a2.312,2.312,0,0,1-2.15,2.15H12.9a2.312,2.312,0,0,1-2.15-2.15V45.15A2.312,2.312,0,0,1,12.9,43h6.45a2.312,2.312,0,0,1,2.15,2.15ZM43,73.1a2.312,2.312,0,0,1-2.15,2.15H34.4a2.312,2.312,0,0,1-2.15-2.15V66.65A2.312,2.312,0,0,1,34.4,64.5h6.45A2.312,2.312,0,0,1,43,66.65Zm0-21.5a2.312,2.312,0,0,1-2.15,2.15H34.4a2.312,2.312,0,0,1-2.15-2.15V45.15A2.312,2.312,0,0,1,34.4,43h6.45A2.312,2.312,0,0,1,43,45.15ZM64.5,73.1a2.312,2.312,0,0,1-2.15,2.15H55.9a2.312,2.312,0,0,1-2.15-2.15V45.15A2.312,2.312,0,0,1,55.9,43h6.45a2.312,2.312,0,0,1,2.15,2.15Zm0-43a2.312,2.312,0,0,1-2.15,2.15H12.9a2.312,2.312,0,0,1-2.15-2.15V12.9a2.312,2.312,0,0,1,2.15-2.15H62.35A2.312,2.312,0,0,1,64.5,12.9Z" fill="#ffda2b"/>
</svg>
