<svg xmlns="http://www.w3.org/2000/svg" width="80" height="80.02" viewBox="0 0 80 80.02">
  <g id="Icon_ionic-ios-timer" data-name="Icon ionic-ios-timer" transform="translate(-3.938 -3.938)">
    <path id="パス_4354" data-name="パス 4354" d="M43.947,83.957A40.011,40.011,0,0,1,16.181,15.14a3.212,3.212,0,0,1,4.461,4.621,33.578,33.578,0,1,0,26.507-9.242V23.042a3.221,3.221,0,1,1-6.442,0V7.158a3.219,3.219,0,0,1,3.221-3.221,40.01,40.01,0,0,1,.02,80.02Z" transform="translate(0 0)" fill="#ffda2b"/>
    <path id="パス_4355" data-name="パス 4355" d="M14.427,11.627l19.9,14.3a6.023,6.023,0,1,1-7,9.8,5.816,5.816,0,0,1-1.4-1.4l-14.3-19.9a2.007,2.007,0,0,1,2.8-2.8Z" transform="translate(13.497 13.496)" fill="#ffda2b"/>
  </g>
</svg>
