<svg xmlns="http://www.w3.org/2000/svg" width="310" height="313.873" viewBox="0 0 310 313.873">
  <g id="グループ_9132" data-name="グループ 9132" transform="translate(-221.5 -1355)">
    <rect id="長方形_23080" data-name="長方形 23080" width="310" height="230" transform="translate(221.5 1355)" fill="#538eb4"/>
    <path id="パス_5571" data-name="パス 5571" d="M-28.8-66.2V-82.5h-4.6v11.8h-9.4v4.5Zm58.8,5v-11H6.1v11Zm0,14V-58.3H6.1v11.1ZM-44-30.3c11.8-7.1,22.7-16.6,27.5-29.9H-42.8v4.5h19.1s-3.6,10.4-21.4,20.4Zm74-2.6V-44.3H6.1v11.4ZM33.8,5.7C41.7,5.7,45,3.4,45-8.1v-9.8l-4.5-1.6V-9.1c0,7.3-.7,10.3-6.5,10.3H25.9C19.2,1.2,18-.1,18-9.2V-28.8H-.9V-76.2H37v47.4H24.4v17.7c0,5.2,1.5,5.6,4.3,5.6h3c2.4,0,4.7-.7,4.7-6v-9.4l-4.5-1.6v10.8c0,1.7-.6,1.7-1.2,1.7h-.6c-1.1,0-1.2-.2-1.2-1.1V-24.3H41.5V-80.7H-5.4V-35a86.021,86.021,0,0,1-10.3-6c4.7-5.8,8.6-15.9,8.6-15.9V-70.7H-17.2V-82.5h-4.6v16.3h10.5v9a77.6,77.6,0,0,1-9.9,16.5,110.555,110.555,0,0,0,14,10.6l1.8-3.4v9.2H.9C-.4-18.4-6.6-10.2-15.4-5.6l3,3.8C-3.4-6.9,3-14.6,5.5-23L2.4-24.3H13.5v5.2l-2.9-1.4C7.6-9.8,1.2-2.2-8.2,3.4l3.2,4A40.6,40.6,0,0,0,13.5-15.4v6.9c0,11.2,2.7,14.2,12,14.2ZM-17.3,7.4v-35a22.575,22.575,0,0,0,5.1,7l2.5-4.8A133.637,133.637,0,0,1-21.8-35.9V7.4Zm-11.5.1V-33.7A80.8,80.8,0,0,1-42.3-23.1l1.1,5.1a45.851,45.851,0,0,0,7.9-6.6v32ZM25.5-65H10.6v-3.4H25.5Zm0,14H10.6v-3.5H25.5Zm0,14.3H10.6v-3.8H25.5Z" transform="translate(376.618 1479.577)" fill="#fff"/>
    <path id="パス_4365" data-name="パス 4365" d="M35.068,0H274.932C294.3,0,310,15.194,310,33.937s-15.7,33.937-35.068,33.937H35.068C15.7,67.873,0,52.679,0,33.937S15.7,0,35.068,0Z" transform="translate(221.5 1601)" fill="#ffda2b"/>
    <path id="パス_5572" data-name="パス 5572" d="M-79.68-10.576a22.289,22.289,0,0,0-3.568-1.84.968.968,0,0,0-.352-.064.683.683,0,0,0-.592.368.658.658,0,0,0-.112.368.541.541,0,0,0,.368.512,23.118,23.118,0,0,1,3.5,1.856.623.623,0,0,0,.368.112.7.7,0,0,0,.624-.368.743.743,0,0,0,.1-.368A.718.718,0,0,0-79.68-10.576Zm-4.9,2.048a.889.889,0,0,0-.336-.064.588.588,0,0,0-.544.368.708.708,0,0,0-.112.384.528.528,0,0,0,.352.5,22.914,22.914,0,0,1,3.584,1.952.823.823,0,0,0,.448.144.7.7,0,0,0,.592-.336.848.848,0,0,0,.128-.432.637.637,0,0,0-.336-.56A25.594,25.594,0,0,0-84.576-8.528Zm11.2-1.04a1.6,1.6,0,0,0-.256-.032.617.617,0,0,0-.608.544,10.481,10.481,0,0,1-3.808,5.744A13.166,13.166,0,0,1-84.7-1.072a.6.6,0,0,0-.64.624v.112a.686.686,0,0,0,.736.656h.08A14.533,14.533,0,0,0-77.28-2.144a12.139,12.139,0,0,0,4.368-6.528,1.6,1.6,0,0,0,.032-.256A.65.65,0,0,0-73.376-9.568Zm12.544-.944c.4,0,.576.112.576.352a1.191,1.191,0,0,1-.08.352,13.532,13.532,0,0,1-3.616,5.2,17.956,17.956,0,0,1-5.68,3.456.735.735,0,0,0-.48.688.747.747,0,0,0,.048.272.586.586,0,0,0,.592.4,1.1,1.1,0,0,0,.384-.08A17.793,17.793,0,0,0-62.32-4.3,26.3,26.3,0,0,1-58.1-.272a.768.768,0,0,0,.576.256.751.751,0,0,0,.56-.24.771.771,0,0,0,.208-.512.893.893,0,0,0-.224-.56,28.484,28.484,0,0,0-4.448-3.984,15.026,15.026,0,0,0,2.544-4.16A3.036,3.036,0,0,0-58.7-10.4a1.562,1.562,0,0,0-.208-.8,1.586,1.586,0,0,0-1.424-.64l-8.144.08a.577.577,0,0,0-.592.64c0,.432.208.7.592.7Zm13.168,3.7a7.234,7.234,0,0,1-.96,3.888A5.192,5.192,0,0,1-51.872-.656a.635.635,0,0,0-.464.64.906.906,0,0,0,.048.288A.593.593,0,0,0-51.7.656a1.427,1.427,0,0,0,.352-.048,6.446,6.446,0,0,0,3.856-2.7,8.546,8.546,0,0,0,1.248-4.72h5.072c.384,0,.56-.288.56-.656a.551.551,0,0,0-.576-.624h-12.48a.559.559,0,0,0-.576.624c0,.368.192.656.56.656Zm-4.64-5.312a.578.578,0,0,0-.576.656.609.609,0,0,0,.576.672h9.728A.609.609,0,0,0-42-11.472c0-.368-.176-.656-.576-.656Zm16.048,10.3a63.638,63.638,0,0,0,3.824-10.112.944.944,0,0,0,.032-.224.687.687,0,0,0-.592-.688.912.912,0,0,0-.208-.016c-.32,0-.528.16-.64.56a60.4,60.4,0,0,1-3.9,10.544h-.576c-.192,0-.384,0-.576.016a.624.624,0,0,0-.592.7v.08a.643.643,0,0,0,.688.64h.064a82.077,82.077,0,0,0,11.1-1.152c.24.544.416.944.576,1.408a.58.58,0,0,0,.56.4.763.763,0,0,0,.32-.064.687.687,0,0,0,.512-.656,1.1,1.1,0,0,0-.1-.416,41.666,41.666,0,0,0-3.76-7.184.773.773,0,0,0-.624-.352.763.763,0,0,0-.32.064.566.566,0,0,0-.32.528.672.672,0,0,0,.1.336,47.805,47.805,0,0,1,2.576,4.72A63,63,0,0,1-36.256-1.824Zm19.7-5.7A1.434,1.434,0,0,0-18-6.08a1.434,1.434,0,0,0,1.44,1.44,1.444,1.444,0,0,0,1.44-1.44A1.455,1.455,0,0,0-16.56-7.52Zm10.08-4.512c-.368,0-.576.256-.576.672s.192.656.576.656H4.048c.368,0,.528.16.528.384a1.087,1.087,0,0,1-.112.4,7.4,7.4,0,0,1-3.488,3.1.666.666,0,0,0-.4.608.729.729,0,0,0,.1.352.592.592,0,0,0,.544.3,1.009,1.009,0,0,0,.352-.08A8.3,8.3,0,0,0,5.76-9.52,2.494,2.494,0,0,0,6-10.528a1.489,1.489,0,0,0-.272-.9A1.647,1.647,0,0,0,4.3-12.032ZM-.992-9.264a.653.653,0,0,0-.736.688,11.178,11.178,0,0,1-.816,4.992A5.711,5.711,0,0,1-5.968-.672.6.6,0,0,0-6.432-.1a.814.814,0,0,0,.064.32A.6.6,0,0,0-5.792.64.836.836,0,0,0-5.456.576,6.99,6.99,0,0,0-1.3-2.944,12.294,12.294,0,0,0-.288-8.608.62.62,0,0,0-.992-9.264ZM15.456-7.632c-.064,2.272-.448,3.664-1.216,4.672a6.646,6.646,0,0,1-3.6,2.3.576.576,0,0,0-.5.576.813.813,0,0,0,.048.272.612.612,0,0,0,.624.464A1.255,1.255,0,0,0,11.04.624a8.328,8.328,0,0,0,4.288-2.672c.96-1.232,1.424-2.608,1.536-5.584H21.7c.336,0,.5-.288.5-.656,0-.352-.16-.64-.512-.64H16.9V-12.24c0-.448-.288-.656-.72-.656-.448,0-.7.208-.7.64v3.328H9.312c-.352,0-.512.288-.512.64,0,.368.16.656.512.656h6.144ZM37.328-9.968a1.557,1.557,0,0,0-1.712-1.776H27.232A1.564,1.564,0,0,0,25.52-9.968v7.984a1.552,1.552,0,0,0,1.712,1.76h8.384a1.546,1.546,0,0,0,1.712-1.76ZM27.712-1.552c-.608,0-.768-.128-.768-.7V-9.712c0-.576.16-.72.768-.72h7.424c.608,0,.768.16.768.72v7.456c0,.56-.16.7-.768.7Zm22.8-8.08h.064c.448,0,.608.144.608.448a2.248,2.248,0,0,1-.032.288c-.96,4.336-3.824,7.184-8.5,8.416a.63.63,0,0,0-.528.624,1.255,1.255,0,0,0,.032.224.653.653,0,0,0,.656.464.779.779,0,0,0,.192-.016c5.456-1.312,8.64-4.976,9.6-9.5a2.809,2.809,0,0,0,.064-.608,1.483,1.483,0,0,0-1.664-1.6L46-10.8a6.575,6.575,0,0,0,.624-1.312.8.8,0,0,0,.032-.192.6.6,0,0,0-.5-.592,1.076,1.076,0,0,0-.288-.048.634.634,0,0,0-.624.464,11.4,11.4,0,0,1-4.256,5.456.71.71,0,0,0-.336.608.7.7,0,0,0,.128.4.669.669,0,0,0,.544.288.7.7,0,0,0,.416-.128,12.842,12.842,0,0,0,3.616-3.7Zm.576-3.248a.59.59,0,0,0,.16.384,10.545,10.545,0,0,1,1.264,1.744.426.426,0,0,0,.416.272.49.49,0,0,0,.528-.448.812.812,0,0,0-.112-.416,9.929,9.929,0,0,0-1.376-1.792.523.523,0,0,0-.416-.176A.47.47,0,0,0,51.088-12.88Zm2-.736a.492.492,0,0,0,.192.416,9.712,9.712,0,0,1,1.2,1.7.45.45,0,0,0,.416.256.491.491,0,0,0,.5-.448.863.863,0,0,0-.1-.4,9.392,9.392,0,0,0-1.312-1.744.6.6,0,0,0-.432-.192A.482.482,0,0,0,53.088-13.616Zm7.84,3.936a12.658,12.658,0,0,1-.72,4.08C59.488-6.5,58.72-7.36,58-8.128a.555.555,0,0,0-.4-.16.683.683,0,0,0-.432.16.581.581,0,0,0-.224.448.511.511,0,0,0,.16.368c.816.864,1.76,1.968,2.56,2.976-.128.272-.288.56-.448.832A12.159,12.159,0,0,1,56.384-.272a.525.525,0,0,0-.224.416.625.625,0,0,0,.192.432.531.531,0,0,0,.4.192A.957.957,0,0,0,57.3.528a13.065,13.065,0,0,0,2.8-3.3c.112-.176.224-.368.336-.56.608.864,1.184,1.728,1.6,2.464a.641.641,0,0,0,.528.3A.6.6,0,0,0,62.944-.7a.66.66,0,0,0,.272-.512.647.647,0,0,0-.112-.352,35.715,35.715,0,0,0-2.1-2.992A14.815,14.815,0,0,0,62.1-9.68H63.1c.288,0,.448-.224.448-.56s-.16-.56-.448-.56H60.64v-2.16c0-.3-.256-.448-.624-.448-.352,0-.608.144-.608.448v2.16H56.56c-.3,0-.464.24-.464.576,0,.32.16.544.464.544Zm8.064-.176v-3.008c0-.3-.24-.448-.608-.448s-.608.144-.608.448v3.008H64.16c-.3,0-.464.24-.464.592,0,.32.16.56.464.56h3.616V-.752c0,.5-.192.624-.944.624a4.681,4.681,0,0,1-1.2-.128A.352.352,0,0,0,65.5-.272a.523.523,0,0,0-.512.464A.984.984,0,0,0,64.976.4a.494.494,0,0,0,.416.528,7.225,7.225,0,0,0,1.584.144c1.424,0,2.016-.48,2.016-1.52V-8.7h1.456c.288,0,.464-.24.464-.576s-.176-.576-.464-.576Zm-5.2,2.608a.584.584,0,0,0-.288.48.489.489,0,0,0,.112.32,15.83,15.83,0,0,1,1.808,2.88.556.556,0,0,0,.512.352.672.672,0,0,0,.336-.1.6.6,0,0,0,.336-.528.61.61,0,0,0-.064-.272,16.918,16.918,0,0,0-1.888-3.024.6.6,0,0,0-.48-.224A.708.708,0,0,0,63.792-7.248Zm16.576-4.528v-1.3c0-.3-.256-.5-.64-.5-.368,0-.64.192-.64.5v1.3H74.752a1.429,1.429,0,0,0-1.6,1.6c0,1.888-.032,4.352-.144,5.728A14.165,14.165,0,0,1,71.936.176a.964.964,0,0,0-.1.384c0,.208.128.352.368.48A.726.726,0,0,0,72.5,1.1.683.683,0,0,0,73.1.64a15.817,15.817,0,0,0,1.1-4.608c.16-1.5.224-4.016.224-5.968,0-.5.192-.688.752-.688H86.256c.336,0,.448-.256.448-.576s-.112-.576-.448-.576ZM78.224-.352A1.226,1.226,0,0,0,78.96.976a5.956,5.956,0,0,0,2.144.192,4.727,4.727,0,0,0,1.84-.24,1.616,1.616,0,0,0,.928-1.072,9.272,9.272,0,0,0,.256-2.4.558.558,0,0,0-.576-.592H83.52a.526.526,0,0,0-.576.56,11.282,11.282,0,0,1-.112,1.536c-.08.5-.128.672-.448.832A2.74,2.74,0,0,1,81.04.016,4.481,4.481,0,0,1,79.808-.1c-.192-.048-.336-.208-.336-.528V-6.96c0-.288-.256-.48-.624-.48s-.624.192-.624.464Zm-2.4-5.424a15.215,15.215,0,0,1-1.136,4.608A.888.888,0,0,0,74.64-.9a.571.571,0,0,0,.4.528.628.628,0,0,0,.288.064.594.594,0,0,0,.56-.384,19.74,19.74,0,0,0,1.184-4.9V-5.7a.563.563,0,0,0-.576-.576h-.064A.559.559,0,0,0,75.824-5.776Zm3.712-4.016a.943.943,0,0,0-.384-.112.585.585,0,0,0-.48.272.718.718,0,0,0-.144.384.47.47,0,0,0,.288.4,19.258,19.258,0,0,1,3.136,2.112.647.647,0,0,0,.4.144.605.605,0,0,0,.48-.272.774.774,0,0,0,.144-.432.519.519,0,0,0-.224-.448A20.191,20.191,0,0,0,79.536-9.792ZM83.92-5.584a18.506,18.506,0,0,1,1.6,4.576.549.549,0,0,0,.56.464A1.08,1.08,0,0,0,86.3-.576a.594.594,0,0,0,.464-.592.717.717,0,0,0-.016-.176,22.336,22.336,0,0,0-1.7-4.72.615.615,0,0,0-.544-.336.725.725,0,0,0-.256.048.612.612,0,0,0-.4.528A.452.452,0,0,0,83.92-5.584ZM-64.4,8.208v1.9h-4.464c-1.008,0-1.472.416-1.472,1.376v9.3c0,.352.256.5.624.5s.608-.176.608-.5V11.808c0-.448.176-.608.736-.608H-64.4v6.464h-1.52c-.288,0-.416-.1-.416-.4V13.056c0-.32-.224-.464-.576-.464-.32,0-.56.144-.56.464v4.368c0,.96.416,1.312,1.36,1.312h4.672c.944,0,1.36-.352,1.36-1.312V13.056c0-.3-.24-.464-.56-.464-.352,0-.576.16-.576.464v4.192c0,.32-.112.416-.416.416h-1.584V11.2h4.1c.544,0,.72.16.72.608V19.36c0,.48-.1.608-.7.608a5.864,5.864,0,0,1-1.3-.16.544.544,0,0,0-.16-.016c-.256,0-.416.144-.5.448a1.133,1.133,0,0,0-.016.224c0,.272.144.432.464.528a8.27,8.27,0,0,0,1.7.144c1.232,0,1.728-.5,1.728-1.52V11.488c0-.96-.48-1.376-1.488-1.376h-4.544v-1.9h6.4c.288,0,.448-.256.448-.592,0-.32-.16-.56-.448-.56H-70.688c-.288,0-.448.24-.448.576,0,.32.16.576.448.576Zm9.92,11.152a1.325,1.325,0,0,0,1.52,1.488h10.384c1.008,0,1.536-.448,1.536-1.456V11.728c0-.992-.528-1.424-1.536-1.424h-5.6a11.932,11.932,0,0,0,.88-2.08h6.384c.288,0,.448-.224.448-.576,0-.32-.16-.56-.448-.56h-13.68c-.3,0-.464.24-.464.576s.16.56.464.56h5.984a9.18,9.18,0,0,1-.9,2.08H-52.96c-1.008,0-1.52.432-1.52,1.424ZM-53.232,12c0-.464.176-.608.72-.608h1.728v8.336h-1.744c-.544,0-.7-.16-.7-.608Zm3.616,7.728V17.584h3.536v2.144Zm4.7,0V11.392h1.9c.544,0,.72.128.72.592V19.12c0,.448-.176.608-.72.608Zm-1.168-8.336V13.44h-3.536V11.392Zm-3.536,3.1h3.536v2.032h-3.536Zm14.64-4.064c-1.04.08-2.368.24-3.328.384a.591.591,0,0,0-.544.592.312.312,0,0,0,.016.128.54.54,0,0,0,.544.512.443.443,0,0,0,.144-.016c.912-.128,2.048-.288,2.864-.352-.208.784-.48,1.552-.736,2.3a27.667,27.667,0,0,1-2.544,5.392.738.738,0,0,0-.128.416.65.65,0,0,0,.352.56.61.61,0,0,0,.352.112.686.686,0,0,0,.608-.4,29.341,29.341,0,0,0,2.592-5.68c.32-.928.608-1.872.864-2.8.4-.032.832-.064,1.376-.064,1.5,0,1.968.592,1.968,2.368a15.624,15.624,0,0,1-.464,3.84c-.288,1.024-.7,1.312-1.376,1.312a4.133,4.133,0,0,1-1.7-.4.857.857,0,0,0-.416-.112.548.548,0,0,0-.512.352.562.562,0,0,0-.08.32.68.68,0,0,0,.352.592,5.03,5.03,0,0,0,2.32.576,2.531,2.531,0,0,0,2.64-2.144,16.17,16.17,0,0,0,.56-4.272c0-2.5-.96-3.616-3.152-3.616-.384,0-.768.016-1.232.032.208-.88.4-1.824.528-2.736a.443.443,0,0,0,.016-.144c0-.32-.208-.512-.576-.544a.443.443,0,0,0-.144-.016.555.555,0,0,0-.608.56C-34.56,8.464-34.736,9.456-34.976,10.432Zm10.24,4.72a19.585,19.585,0,0,0-3.072-5.936.752.752,0,0,0-.576-.288.672.672,0,0,0-.336.1.626.626,0,0,0-.352.544.489.489,0,0,0,.112.32,19.559,19.559,0,0,1,2.96,5.7.632.632,0,0,0,.608.5.693.693,0,0,0,.3-.064.56.56,0,0,0,.4-.576A.985.985,0,0,0-24.736,15.152Zm6.208-7.872a.656.656,0,0,0-.176-.016.624.624,0,0,0-.592.5,1.08,1.08,0,0,0-.032.224.611.611,0,0,0,.464.608,37.63,37.63,0,0,0,6.4,1.056h.064a.689.689,0,0,0,.72-.624v-.08a.69.69,0,0,0-.64-.656A38.117,38.117,0,0,1-18.528,7.28Zm-1.456,7.664a5.567,5.567,0,0,0,.224-1.024c.064-.512.336-1.792.624-3.008a.779.779,0,0,0,.016-.192c0-.3-.208-.5-.544-.544a.443.443,0,0,0-.144-.016.605.605,0,0,0-.608.544,40.843,40.843,0,0,0-.88,4.976.845.845,0,0,0-.016.192.673.673,0,0,0,.576.768,1.235,1.235,0,0,0,.24.032,1.152,1.152,0,0,0,.816-.432,7.313,7.313,0,0,1,5.392-2.192c2.032,0,3.1,1.1,3.1,2.32,0,1.776-1.856,2.864-4.8,2.864a13.188,13.188,0,0,1-3.28-.416,1.08,1.08,0,0,0-.224-.032.6.6,0,0,0-.592.48.779.779,0,0,0-.016.192.669.669,0,0,0,.512.656,12.986,12.986,0,0,0,3.616.464c3.888,0,6.16-1.584,6.16-4.128,0-2.1-1.68-3.632-4.416-3.632a8.222,8.222,0,0,0-5.68,2.176ZM.96,9.264a4.529,4.529,0,0,1,4.608,4.768A4.546,4.546,0,0,1,3.824,17.76a7.346,7.346,0,0,1-3.2,1.152.623.623,0,0,0-.576.624.544.544,0,0,0,.016.16.619.619,0,0,0,.672.56.717.717,0,0,0,.176-.016,8.615,8.615,0,0,0,3.36-1.152,5.66,5.66,0,0,0,2.64-5.024c0-3.52-2.5-5.984-6.272-5.984-4.368,0-7.152,2.88-7.152,6.864,0,2.688,1.328,4.3,2.992,4.3a2.609,2.609,0,0,0,1.84-.7A6.532,6.532,0,0,0-.1,15.648,26.391,26.391,0,0,0,.96,9.264Zm-1.328.048A24,24,0,0,1-1.376,15.2a5.57,5.57,0,0,1-1.1,2.192,1.471,1.471,0,0,1-1.072.464c-.848,0-1.664-1.008-1.664-2.928A5.272,5.272,0,0,1-.368,9.312Zm14.16,7.2C13.5,18.624,12.016,19.7,9.424,20.16a.521.521,0,0,0-.48.56,1.1,1.1,0,0,0,.032.208.588.588,0,0,0,.624.48.717.717,0,0,0,.176-.016c3.056-.624,4.96-2.064,5.3-4.88h1.984v3.152c0,1.12.4,1.344,2.992,1.344,2.24,0,2.736-.288,3.04-.976a6.163,6.163,0,0,0,.448-1.936v-.048c0-.3-.176-.5-.56-.528a.352.352,0,0,0-.128-.016c-.3,0-.5.16-.528.544a4.533,4.533,0,0,1-.3,1.376c-.176.336-.432.464-2.08.464-1.488,0-1.632-.08-1.632-.592V16.512H20.08c1.008,0,1.456-.368,1.456-1.36V8.4c0-1.024-.448-1.408-1.456-1.408H12.368c-.992,0-1.456.384-1.456,1.408v6.752c0,.992.464,1.36,1.456,1.36Zm6.528-6.72H12.128V8.528c0-.336.144-.432.48-.432H19.84c.32,0,.48.1.48.432Zm0,2.768H12.128v-1.7H20.32Zm0,1.072v1.392c0,.336-.16.432-.48.432H12.608c-.336,0-.48-.1-.48-.432V13.632Zm8.864-6.608a.718.718,0,0,0-.176-.016.611.611,0,0,0-.592.464.8.8,0,0,0-.048.256.534.534,0,0,0,.432.544,44.288,44.288,0,0,0,6.528.88h.048a.608.608,0,0,0,.688-.592V8.48a.6.6,0,0,0-.64-.624A42.251,42.251,0,0,1,29.184,7.024Zm2.144,8.544a15.376,15.376,0,0,0,1.312-.976c.944-.8,2.016-1.712,2.976-2.608a.913.913,0,0,0,.336-.672.857.857,0,0,0-.112-.416.813.813,0,0,0-.8-.384h-.16c-2.32.24-5.552.448-7.584.48a.6.6,0,0,0-.544.656v.032a.645.645,0,0,0,.64.656,57.939,57.939,0,0,0,6.72-.592c-.928.768-2.272,1.984-3.6,3.168-1.664,1.52-3.328,3.056-4.5,4.144a.786.786,0,0,0-.272.592.694.694,0,0,0,.208.48.631.631,0,0,0,.48.208.848.848,0,0,0,.576-.256c.768-.72,1.632-1.568,2.384-2.272a5.056,5.056,0,0,1,3.072-1.6c.544,0,.848.24.912,1.44.112,2.16.688,2.816,2.656,2.816a7.672,7.672,0,0,0,3.024-.624.693.693,0,0,0,.432-.656.742.742,0,0,0-.064-.3.594.594,0,0,0-.56-.384.86.86,0,0,0-.336.08,5.787,5.787,0,0,1-2.4.608c-1.1,0-1.392-.3-1.488-1.936-.1-1.536-.576-2.064-1.584-2.064a3.13,3.13,0,0,0-1.648.5ZM45.76,13.28c.448-.256.992-.624,1.44-.928a34.044,34.044,0,0,0,4.176-3.3.877.877,0,0,0,.176-1.12.854.854,0,0,0-.8-.4h-.144c-2.128.144-4.864.224-7.024.224-.368,0-.56.288-.56.656a.58.58,0,0,0,.592.624c2.048-.016,4.5-.112,6.24-.256a69.3,69.3,0,0,1-8.208,6,.688.688,0,0,0-.368.608.576.576,0,0,0,.112.352.661.661,0,0,0,.576.3.871.871,0,0,0,.432-.112C45.024,14.3,46.96,13.6,49.088,13.6c2.272,0,3.52,1.1,3.52,2.624,0,1.488-1.216,2.5-2.848,2.88a3.312,3.312,0,0,0-3.424-3.152c-1.568,0-2.608.912-2.608,2.16,0,1.488,1.536,2.48,3.9,2.48,3.9,0,6.352-1.7,6.352-4.384,0-2.176-1.76-3.7-4.64-3.7a8.614,8.614,0,0,0-3.552.832Zm2.752,6.112c-.384.032-.784.032-1.168.032-1.424-.016-2.384-.624-2.384-1.36,0-.592.48-1.024,1.312-1.024A2.286,2.286,0,0,1,48.512,19.392Zm10.24,1.424c0,.3.256.48.624.48.384,0,.624-.176.624-.48V10.736a22.009,22.009,0,0,0,1.424-3.392.936.936,0,0,0,.032-.208.538.538,0,0,0-.432-.528,1.782,1.782,0,0,0-.272-.032.514.514,0,0,0-.544.368,15.991,15.991,0,0,1-3.792,6.56.639.639,0,0,0,.032.912.655.655,0,0,0,.432.192.607.607,0,0,0,.464-.24A13.276,13.276,0,0,0,58.88,12.3a20.616,20.616,0,0,0-.128,2.192Zm5.792-6.64a24.206,24.206,0,0,0,5.648-4.016.559.559,0,0,0,.224-.448.728.728,0,0,0-.24-.512.758.758,0,0,0-.48-.208.641.641,0,0,0-.416.176A19.435,19.435,0,0,1,64.544,12.8V7.072c0-.32-.256-.5-.64-.5-.368,0-.624.176-.624.5V19.12c0,1.024.352,1.472,1.456,1.6a17.172,17.172,0,0,0,2,.08,11,11,0,0,0,2.256-.176,1.833,1.833,0,0,0,1.472-1.1,8.3,8.3,0,0,0,.448-2.576v-.032a.554.554,0,0,0-.576-.576h-.08a.53.53,0,0,0-.592.56,7.149,7.149,0,0,1-.288,1.92,1.024,1.024,0,0,1-.688.592,7.867,7.867,0,0,1-1.9.176c-.672,0-1.136-.016-1.488-.048-.624-.064-.752-.24-.752-.72Z" transform="translate(376.5 1630.937)"/>
    <g id="Icon_ionic-ios-eye" data-name="Icon ionic-ios-eye" transform="translate(349.51 1507.328)">
      <path id="パス_4363" data-name="パス 4363" d="M27.082,7.875c-8.921,0-15.956,5.615-24.367,14.791A1.754,1.754,0,0,0,2.7,25.029c7.2,7.956,13.548,14.8,24.378,14.8,10.7,0,18.719-8.622,24.422-14.869a1.741,1.741,0,0,0,.055-2.3C45.745,15.62,37.7,7.875,27.082,7.875Zm.488,25.953a9.986,9.986,0,1,1,9.509-9.509A9.99,9.99,0,0,1,27.57,33.828Z" transform="translate(0)" fill="#ffda2b"/>
      <path id="パス_4364" data-name="パス 4364" d="M20.6,15.386a5.213,5.213,0,0,1,.344-1.875c-.111,0-.222-.011-.344-.011a7.1,7.1,0,1,0,7.1,7.1c0-.144-.011-.288-.011-.433a4.92,4.92,0,0,1-2.019.433A5.151,5.151,0,0,1,20.6,15.386Z" transform="translate(6.503 3.252)" fill="#ffda2b"/>
    </g>
    <path id="Icon_material-personal-video" data-name="Icon material-personal-video" d="M41.34,4.5H5.484A3.97,3.97,0,0,0,1.5,8.484v23.9a3.983,3.983,0,0,0,3.984,3.984h9.96v3.984H31.38V36.372h9.96A3.979,3.979,0,0,0,45.3,32.388l.02-23.9A3.983,3.983,0,0,0,41.34,4.5Zm0,27.888H5.484V8.484H41.34Z" transform="translate(290.695 1508.753)" fill="#ffda2b"/>
    <g id="Icon_feather-file-text" data-name="Icon feather-file-text" transform="translate(414.601 1508.175)">
      <path id="パス_4370" data-name="パス 4370" d="M25.467,3H9.893A3.893,3.893,0,0,0,6,6.893V38.041a3.893,3.893,0,0,0,3.893,3.893H33.254a3.893,3.893,0,0,0,3.893-3.893V14.68Z" fill="none" stroke="#ffda2b" stroke-linecap="round" stroke-linejoin="round" stroke-width="3"/>
      <path id="パス_4371" data-name="パス 4371" d="M21,3V14.68H32.68" transform="translate(4.467)" fill="none" stroke="#ffda2b" stroke-linecap="round" stroke-linejoin="round" stroke-width="3"/>
      <path id="パス_4372" data-name="パス 4372" d="M27.574,19.5H12" transform="translate(1.787 4.914)" fill="none" stroke="#ffda2b" stroke-linecap="round" stroke-linejoin="round" stroke-width="3"/>
      <path id="パス_4373" data-name="パス 4373" d="M27.574,25.5H12" transform="translate(1.787 6.701)" fill="none" stroke="#ffda2b" stroke-linecap="round" stroke-linejoin="round" stroke-width="3"/>
      <path id="パス_4374" data-name="パス 4374" d="M15.893,13.5H12" transform="translate(1.787 3.127)" fill="none" stroke="#ffda2b" stroke-linecap="round" stroke-linejoin="round" stroke-width="3"/>
    </g>
  </g>
</svg>
