<svg xmlns="http://www.w3.org/2000/svg" width="78.661" height="89.898" viewBox="0 0 78.661 89.898">
  <path id="Icon_awesome-building" data-name="Icon awesome-building" d="M76.554,84.28H73.042V4.214A4.214,4.214,0,0,0,68.828,0h-59A4.214,4.214,0,0,0,5.619,4.214V84.28H2.107A2.107,2.107,0,0,0,0,86.387V89.9H78.661V86.387A2.107,2.107,0,0,0,76.554,84.28ZM22.475,13.344a2.107,2.107,0,0,1,2.107-2.107H31.6a2.107,2.107,0,0,1,2.107,2.107v7.023A2.107,2.107,0,0,1,31.6,22.475H24.582a2.107,2.107,0,0,1-2.107-2.107Zm0,16.856a2.107,2.107,0,0,1,2.107-2.107H31.6A2.107,2.107,0,0,1,33.712,30.2v7.023A2.107,2.107,0,0,1,31.6,39.33H24.582a2.107,2.107,0,0,1-2.107-2.107ZM31.6,56.186H24.582a2.107,2.107,0,0,1-2.107-2.107V47.056a2.107,2.107,0,0,1,2.107-2.107H31.6a2.107,2.107,0,0,1,2.107,2.107v7.023A2.107,2.107,0,0,1,31.6,56.186ZM44.949,84.28H33.712V69.531a2.107,2.107,0,0,1,2.107-2.107h7.023a2.107,2.107,0,0,1,2.107,2.107Zm11.237-30.2a2.107,2.107,0,0,1-2.107,2.107H47.056a2.107,2.107,0,0,1-2.107-2.107V47.056a2.107,2.107,0,0,1,2.107-2.107h7.023a2.107,2.107,0,0,1,2.107,2.107Zm0-16.856a2.107,2.107,0,0,1-2.107,2.107H47.056a2.107,2.107,0,0,1-2.107-2.107V30.2a2.107,2.107,0,0,1,2.107-2.107h7.023A2.107,2.107,0,0,1,56.186,30.2Zm0-16.856a2.107,2.107,0,0,1-2.107,2.107H47.056a2.107,2.107,0,0,1-2.107-2.107V13.344a2.107,2.107,0,0,1,2.107-2.107h7.023a2.107,2.107,0,0,1,2.107,2.107Z" fill="#ffda2b"/>
</svg>
