<svg xmlns="http://www.w3.org/2000/svg" width="95.502" height="95.5" viewBox="0 0 95.502 95.5">
  <path id="Icon_awesome-book-reader" data-name="Icon awesome-book-reader" d="M65.656,17.906A17.906,17.906,0,1,0,47.75,35.812,17.906,17.906,0,0,0,65.656,17.906ZM43.57,44.971C32.5,38.2,14.579,36.335,5.558,35.822A5.161,5.161,0,0,0,0,40.875V82.432a5.13,5.13,0,0,0,4.941,5.045c8.144.427,24.619,1.992,36.006,7.728a2.6,2.6,0,0,0,3.82-2.214V47.108a2.482,2.482,0,0,0-1.2-2.138Zm46.372-9.149C80.923,36.333,63,38.2,51.932,44.971a2.528,2.528,0,0,0-1.2,2.169V92.986a2.6,2.6,0,0,0,3.831,2.22c11.385-5.73,27.852-7.295,35.993-7.722A5.133,5.133,0,0,0,95.5,82.436V40.875A5.163,5.163,0,0,0,89.941,35.822Z" fill="#ffda2b"/>
</svg>
