<svg xmlns="http://www.w3.org/2000/svg" xmlns:xlink="http://www.w3.org/1999/xlink" width="311" height="313.873" viewBox="0 0 311 313.873">
  <defs>
    <clipPath id="clip-path">
      <rect id="長方形_23113" data-name="長方形 23113" width="311" height="229" transform="translate(221.5 1356)" fill="none"/>
    </clipPath>
  </defs>
  <g id="グループ_9132" data-name="グループ 9132" transform="translate(-221.5 -1355)">
    <rect id="長方形_23080" data-name="長方形 23080" width="310" height="230" transform="translate(221.5 1355)" fill="#538eb4"/>
    <path id="パス_5569" data-name="パス 5569" d="M45-9C25.9-16.3,9.1-36.5,9.1-56.5v-26h-5v26c0,1.2.1,2.4.1,3.7C6.5-32.9,22.7-13.5,41.6-4.4ZM-41.8-3.8C-16.3-13.9-4.4-34.5-4.4-56.5v-26H-9.5v26C-9.5-37.4-17.6-18-45-8.2ZM36.3,2.9C19.8-4.8,6.3-20.3.4-37.8-4.1-20.2-16.3-5.3-36.8,3l3.2,4.4C-17.6.3-5.8-10.7.7-26.2,7.6-10.7,20.8.6,32.9,7.4Z" transform="translate(376.618 1472)" fill="#fff"/>
    <path id="パス_4365" data-name="パス 4365" d="M35.068,0H274.932C294.3,0,310,15.194,310,33.937s-15.7,33.937-35.068,33.937H35.068C15.7,67.873,0,52.679,0,33.937S15.7,0,35.068,0Z" transform="translate(221.5 1601)" fill="#ffda2b"/>
    <path id="パス_5570" data-name="パス 5570" d="M-65.408-3.76c.272,0,.448-.24.448-.56a.451.451,0,0,0-.464-.512H-72.96c.144-.208.272-.4.4-.608a.649.649,0,0,0,.08-.272c0-.176-.128-.32-.352-.416a.742.742,0,0,0-.3-.064.583.583,0,0,0-.48.3c-.208.352-.448.7-.7,1.056h-4.288a.459.459,0,0,0-.464.512c0,.336.176.56.448.56h3.44c-.3.336-.608.656-.912.944a.842.842,0,0,0-.272.576.626.626,0,0,0,.544.608c.944.192,1.92.416,2.9.672A16.972,16.972,0,0,1-78.48.112a.5.5,0,0,0-.512.544V.7a.577.577,0,0,0,.592.576h.032A15.567,15.567,0,0,0-71.376-.528a31.637,31.637,0,0,1,4.784,1.792,1.009,1.009,0,0,0,.352.08.6.6,0,0,0,.56-.368A.507.507,0,0,0-65.616.72.639.639,0,0,0-66.08.144c-1.3-.528-2.736-1.024-4.176-1.456a7.211,7.211,0,0,0,1.3-1.408,7.3,7.3,0,0,0,.592-1.04Zm-4.224,0a5.7,5.7,0,0,1-1.92,2.08c-1.088-.288-2.128-.528-3.056-.7-.16-.032-.24-.064-.24-.128s.048-.144.16-.24a11.473,11.473,0,0,0,.912-1.008Zm-4.1-5.344a13.434,13.434,0,0,1-5.088,2.448.553.553,0,0,0-.448.544.811.811,0,0,0,.032.208.481.481,0,0,0,.5.384.936.936,0,0,0,.208-.032A14,14,0,0,0-72.5-8.96a7.053,7.053,0,0,0-.176,1.344v1.04c0,.272.24.464.576.464.352,0,.576-.16.576-.448V-7.6a7.91,7.91,0,0,0-.16-1.376A13.414,13.414,0,0,0-65.392-5.6a1.6,1.6,0,0,0,.256.032A.479.479,0,0,0-64.624-6a.936.936,0,0,0,.032-.208c0-.24-.112-.416-.464-.5a13.8,13.8,0,0,1-5.408-2.4h5.152c.272,0,.432-.224.432-.544,0-.3-.16-.528-.432-.528H-71.52V-11.7a35.189,35.189,0,0,0,4.624-.688.5.5,0,0,0,.448-.512.375.375,0,0,0-.032-.176.49.49,0,0,0-.512-.416,1.492,1.492,0,0,0-.224.032,50.2,50.2,0,0,1-10.144.928.481.481,0,0,0-.48.544.485.485,0,0,0,.5.544c1.5,0,3.1-.048,4.672-.16v1.424H-78.7c-.272,0-.432.224-.432.528,0,.32.16.544.432.544ZM-54.48-7.152l-2.72.288a.474.474,0,0,0-.416.528v.08c.048.32.224.512.48.512h.064l2.592-.272V-.544c0,1.232.384,1.5,2.816,1.5a4.308,4.308,0,0,0,1.936-.3,1.252,1.252,0,0,0,.64-.672A9.441,9.441,0,0,0-48.7-2.752V-2.8c0-.368-.192-.512-.544-.528h-.064c-.368,0-.544.144-.56.528a11.15,11.15,0,0,1-.24,2.048c-.128.464-.4.608-1.616.608-1.408,0-1.536-.128-1.536-.72v-5.28l4.352-.464c.272-.032.4-.224.4-.544v-.064c-.032-.3-.192-.512-.448-.512h-.064l-4.24.448v-3.552A21.793,21.793,0,0,0-49.792-12.1a.508.508,0,0,0,.336-.48.86.86,0,0,0-.08-.336.647.647,0,0,0-.544-.336.649.649,0,0,0-.3.064A21.536,21.536,0,0,1-56.72-11.3a.479.479,0,0,0-.384.512.6.6,0,0,0,.016.16.542.542,0,0,0,.528.48.443.443,0,0,0,.144-.016c.656-.1,1.3-.224,1.936-.368Zm-8.528-3.616c-.288,0-.432.224-.432.544s.144.544.432.544h5.024c.272,0,.432-.224.432-.544s-.16-.544-.432-.544Zm4.736,3.408c.256,0,.4-.256.4-.528,0-.288-.144-.528-.4-.528h-4.192c-.272,0-.4.24-.4.528s.128.528.4.528Zm-4.176-5.728c-.256,0-.416.208-.416.528,0,.3.16.528.416.528h4.176c.272,0,.416-.224.416-.528,0-.32-.144-.528-.416-.528Zm4.48,10.4c0-.816-.384-1.152-1.232-1.152h-2.48c-.832,0-1.216.336-1.216,1.152V-.176c0,.816.384,1.152,1.216,1.152h2.48c.848,0,1.232-.336,1.232-1.152ZM-59.52-2.88c.288,0,.432.1.432.384v2.08c0,.3-.144.384-.432.384h-1.824c-.288,0-.432-.08-.432-.384V-2.5c0-.288.144-.384.432-.384ZM-58.3-5.056c.272,0,.416-.256.416-.528,0-.288-.144-.528-.416-.528H-62.5c-.272,0-.4.24-.4.528s.128.528.4.528Zm13.3,5.872c0,.3.256.48.624.48.384,0,.624-.176.624-.48V-9.264a22.009,22.009,0,0,0,1.424-3.392.936.936,0,0,0,.032-.208.538.538,0,0,0-.432-.528,1.782,1.782,0,0,0-.272-.032.514.514,0,0,0-.544.368A15.991,15.991,0,0,1-47.344-6.5a.721.721,0,0,0-.176.448.72.72,0,0,0,.208.464.655.655,0,0,0,.432.192.607.607,0,0,0,.464-.24A13.276,13.276,0,0,0-44.88-7.7,20.616,20.616,0,0,0-45.008-5.5Zm5.792-6.64A24.205,24.205,0,0,0-33.568-9.84a.559.559,0,0,0,.224-.448.728.728,0,0,0-.24-.512.758.758,0,0,0-.48-.208.641.641,0,0,0-.416.176A19.436,19.436,0,0,1-39.216-7.2v-5.728c0-.32-.256-.5-.64-.5-.368,0-.624.176-.624.5V-.88c0,1.024.352,1.472,1.456,1.6a17.172,17.172,0,0,0,2,.08A11,11,0,0,0-34.768.624,1.833,1.833,0,0,0-33.3-.48a8.3,8.3,0,0,0,.448-2.576v-.032a.554.554,0,0,0-.576-.576h-.08a.53.53,0,0,0-.592.56,7.149,7.149,0,0,1-.288,1.92,1.024,1.024,0,0,1-.688.592,7.867,7.867,0,0,1-1.9.176c-.672,0-1.136-.016-1.488-.048-.624-.064-.752-.24-.752-.72ZM-27.5-7.088a11.062,11.062,0,0,0,2.192-2.736,51.534,51.534,0,0,0,5.84-.512.589.589,0,0,0,.544-.592v-.112a.539.539,0,0,0-.576-.512.443.443,0,0,0-.144.016c-1.76.256-3.664.448-5.024.5.24-.48.448-.912.64-1.376a.61.61,0,0,0,.064-.272c0-.24-.176-.432-.5-.5a1.08,1.08,0,0,0-.224-.032.6.6,0,0,0-.592.464,10.565,10.565,0,0,1-.8,1.744h-.912c-1.056,0-2.08-.016-2.832-.08h-.048a.61.61,0,0,0-.576.592v.064a.563.563,0,0,0,.56.592c.72.032,1.632.048,2.432.048h.736A24.051,24.051,0,0,1-30.512-5.2a.717.717,0,0,0-.224.512.631.631,0,0,0,.208.48.6.6,0,0,0,.432.192.7.7,0,0,0,.512-.24c1.92-1.952,3.68-3.008,5.04-3.008.7,0,1.184.272,1.28,1.248-2.976,1.072-4.448,2.56-4.448,4.08,0,1.84,1.7,2.672,4.7,2.672A27.032,27.032,0,0,0-18.544.4a.645.645,0,0,0,.592-.656.6.6,0,0,0-.016-.16.55.55,0,0,0-.592-.5,1.056,1.056,0,0,0-.224.016,26.5,26.5,0,0,1-4.32.352c-2.256,0-3.3-.5-3.3-1.44,0-.992.992-1.952,3.232-2.816v2.24a.544.544,0,0,0,.592.608.583.583,0,0,0,.624-.608c.016-.3.016-.608.016-.912,0-.576-.016-1.136-.048-1.712,1.536-.56,3.04-.96,4.208-1.264a.581.581,0,0,0,.512-.592A1.6,1.6,0,0,0-17.3-7.3a.582.582,0,0,0-.592-.432,1.782,1.782,0,0,0-.272.032c-1.1.32-2.5.752-3.936,1.264A1.992,1.992,0,0,0-24.3-8.3,5.453,5.453,0,0,0-27.44-6.992Zm14.368,8c0,.288.256.448.608.448.368,0,.592-.16.592-.448v-4.9c0-.56-.032-1.152-.08-1.712a10.868,10.868,0,0,0,1.632,1.584.449.449,0,0,0,.3.112.575.575,0,0,0,.448-.272.545.545,0,0,0,.112-.352.519.519,0,0,0-.224-.448,10.086,10.086,0,0,1-1.9-1.7A10.972,10.972,0,0,0-10-9.28a1.666,1.666,0,0,0,.144-.64c0-.528-.368-.864-.992-.864h-1.04v-2.272c0-.288-.24-.448-.608-.448s-.608.16-.608.448v2.272h-1.728c-.288,0-.448.208-.448.528s.16.576.448.576h3.44c.16,0,.24.048.24.16a.626.626,0,0,1-.048.208,13.806,13.806,0,0,1-4.256,4.7.54.54,0,0,0-.256.464.647.647,0,0,0,.144.4.515.515,0,0,0,.448.256.612.612,0,0,0,.4-.16,12.473,12.473,0,0,0,1.664-1.568c-.032.5-.08,1.088-.08,1.568Zm8.4-4.736V-.048c0,.992.416,1.216,1.936,1.216C-1.52,1.168-1.04.96-.752.48A4.719,4.719,0,0,0-.336-1.568V-1.6a.488.488,0,0,0-.528-.5H-.912a.459.459,0,0,0-.512.464,4.178,4.178,0,0,1-.24,1.376c-.112.24-.368.336-1.056.336-.752,0-.848-.08-.848-.5V-3.824H-2.7c.992,0,1.344-.368,1.344-1.232V-11.7c0-.9-.448-1.264-1.36-1.264H-7.7c-.928,0-1.36.368-1.36,1.28v6.624c0,.88.3,1.232,1.344,1.232h.48A4.31,4.31,0,0,1-10.288.128.526.526,0,0,0-10.64.64a.526.526,0,0,0,.064.272.541.541,0,0,0,.528.384.61.61,0,0,0,.272-.064A5.542,5.542,0,0,0-6.032-3.824Zm-3.152-3.76V-9.216h5.344v1.632Zm0,.992h5.344v1.344c0,.32-.128.416-.448.416H-7.44c-.336,0-.448-.1-.448-.416Zm0-3.616V-11.52c0-.32.112-.4.448-.4h4.448c.32,0,.448.08.448.4v1.312ZM5.12-4.3V-5.9H6.7c.912,0,1.36-.368,1.36-1.248V-11.6c0-.88-.448-1.232-1.36-1.232H2.464c-.912,0-1.344.352-1.344,1.232v4.448c0,.88.432,1.248,1.344,1.248H4.032v1.6H1.376c-.288,0-.432.208-.432.544,0,.3.144.528.432.528H4.032v2.176c-.976.144-1.968.256-2.864.32A.522.522,0,0,0,.64-.208V-.1A.607.607,0,0,0,1.264.5h.1A52.348,52.348,0,0,0,7.9-.688.51.51,0,0,0,8.336-1.2a.717.717,0,0,0-.016-.176c-.064-.272-.208-.4-.448-.4a1.255,1.255,0,0,0-.224.032c-.784.192-1.648.368-2.528.512v-2H7.712c.272,0,.416-.224.416-.528,0-.336-.144-.544-.416-.544Zm-1.088-7.5v1.92H2.208v-1.536c0-.3.144-.384.448-.384Zm1.088,0H6.544c.3,0,.448.08.448.384v1.536H5.12ZM4.032-8.928v2.016H2.656c-.3,0-.448-.08-.448-.384V-8.928Zm1.088,0H6.992V-7.3c0,.3-.144.384-.448.384H5.12ZM10.976-6.72V-.64c0,.48-.16.608-.672.608A6.5,6.5,0,0,1,9.168-.16a.443.443,0,0,0-.144-.016A.533.533,0,0,0,8.5.3V.432a.546.546,0,0,0,.48.576,7.9,7.9,0,0,0,1.44.128c1.28,0,1.76-.48,1.76-1.472V-6.72h1.888c.144,0,.224.032.224.112a.368.368,0,0,1-.048.144,6.988,6.988,0,0,1-1.344,1.7.553.553,0,0,0-.208.416.641.641,0,0,0,.176.416.641.641,0,0,0,.416.176.647.647,0,0,0,.432-.208,9.248,9.248,0,0,0,1.6-2.208,1.566,1.566,0,0,0,.208-.736c0-.528-.384-.9-1.056-.9h-2.24a.7.7,0,0,0,.352-.16.5.5,0,0,0,.192-.384.607.607,0,0,0-.208-.416c-.1-.1-.192-.192-.3-.288a12.208,12.208,0,0,0,2.3-2.1,1.349,1.349,0,0,0,.32-.8c0-.48-.4-.88-1.1-.88H9.008c-.272,0-.432.24-.432.56,0,.3.144.544.432.544h4.16c.16,0,.256.032.256.128a.532.532,0,0,1-.128.256,10.769,10.769,0,0,1-1.808,1.6c-.448-.368-.912-.72-1.312-.992a.732.732,0,0,0-.384-.128.532.532,0,0,0-.368.176.511.511,0,0,0-.16.368.493.493,0,0,0,.224.384,13.944,13.944,0,0,1,2.176,1.92.688.688,0,0,0,.432.208H8.8c-.288,0-.432.24-.432.544,0,.32.144.544.432.544Zm8.784-6.048a.656.656,0,0,0-.176-.016.627.627,0,0,0-.64.48,28.953,28.953,0,0,0-.912,7.344A25.283,25.283,0,0,0,18.48.032c.08.432.32.608.624.608A.718.718,0,0,0,19.28.624a.614.614,0,0,0,.544-.64,1.211,1.211,0,0,0-.016-.24,27.386,27.386,0,0,1-.416-4.768,27.814,27.814,0,0,1,.88-6.992,1.1,1.1,0,0,0,.032-.208A.56.56,0,0,0,19.76-12.768ZM29.3-11.056a48.224,48.224,0,0,1-4.848.224c-.592,0-1.168-.016-1.68-.032h-.032a.652.652,0,0,0-.656.672.636.636,0,0,0,.672.7c.528.016,1.1.032,1.7.032a46.694,46.694,0,0,0,5.008-.24.644.644,0,0,0,.624-.72v-.048a.607.607,0,0,0-.656-.592ZM23.76-5.9a.641.641,0,0,0-.416-.176.827.827,0,0,0-.544.24,3.584,3.584,0,0,0-1.216,2.656c0,2.016,1.568,2.848,4.512,2.848A21.013,21.013,0,0,0,30.16-.688a.671.671,0,0,0,.544-.688.656.656,0,0,0-.016-.176.62.62,0,0,0-.624-.528.779.779,0,0,0-.192.016,19.539,19.539,0,0,1-3.936.384c-2.24,0-3.1-.512-3.1-1.5A2.525,2.525,0,0,1,23.76-5.04a.616.616,0,0,0,.208-.432A.61.61,0,0,0,23.76-5.9Zm15.1-5.536c.368,0,.5.08.5.448a13.04,13.04,0,0,1-1.68,5.648,13.419,13.419,0,0,1-4.624,4.88A.691.691,0,0,0,32.7.1a.774.774,0,0,0,.144.432.7.7,0,0,0,.592.336A.9.9,0,0,0,33.92.7a14.431,14.431,0,0,0,6.16-8.88A14.072,14.072,0,0,0,46.144.672a.823.823,0,0,0,.448.144A.746.746,0,0,0,47.184.5a.823.823,0,0,0,.144-.448.671.671,0,0,0-.3-.56,13.994,13.994,0,0,1-4.656-4.864A12.621,12.621,0,0,1,40.7-11.344c-.016-.96-.48-1.328-1.456-1.328H36.08a.561.561,0,0,0-.48.608c0,.352.208.624.48.624ZM53.44-9.264a.669.669,0,0,0,.24-.5.527.527,0,0,0-.592-.5H53.04c.032-.784.064-1.52.112-2.288v-.032a.544.544,0,0,0-.608-.592H52.5a.56.56,0,0,0-.624.608c-.032.832-.064,1.632-.08,2.384-.784.064-1.632.112-2.448.192a.61.61,0,0,0-.5.656v.08a.554.554,0,0,0,.576.528h.064c.784-.08,1.584-.144,2.272-.208-.032.9-.048,1.7-.064,2.544-1.04,1.12-2.032,2.368-2.864,3.424a.807.807,0,0,0-.176.48A.648.648,0,0,0,48.88-2a.68.68,0,0,0,.432.176.642.642,0,0,0,.528-.288c.416-.56.944-1.2,1.408-1.856a5.188,5.188,0,0,0,.5-.784,14.849,14.849,0,0,0-.08,1.52v.944c0,.848.016,1.84.016,2.752a.587.587,0,0,0,.64.56h.032a.565.565,0,0,0,.64-.576c-.016-1.536-.048-3.024-.048-4.512,0-.624,0-1.232.016-1.856a24.18,24.18,0,0,1,2.128-2.128c1.3-1.072,2.224-1.584,3.152-1.584a1.1,1.1,0,0,1,1.2,1.248A14.084,14.084,0,0,1,59.1-5.872a19.858,19.858,0,0,0-.464,3.6,1.988,1.988,0,0,0,2.112,2.24c1.28,0,2.192-.7,2.816-2.656a.888.888,0,0,0,.048-.272.575.575,0,0,0-.416-.56.725.725,0,0,0-.256-.048.587.587,0,0,0-.56.448c-.448,1.328-.912,1.728-1.536,1.728-.544,0-.864-.272-.864-1.056a22.755,22.755,0,0,1,.5-3.488,13.536,13.536,0,0,0,.32-2.7,2.149,2.149,0,0,0-2.368-2.224A5.94,5.94,0,0,0,54.8-9.248a16.848,16.848,0,0,0-1.392,1.264,6.061,6.061,0,0,0-.512.608,5.827,5.827,0,0,0,.08-.72c0-.192,0-.48.016-.768Zm15.024.112A46.92,46.92,0,0,1,65.456-.768a1.033,1.033,0,0,0-.1.4.62.62,0,0,0,.352.576.789.789,0,0,0,.368.1.689.689,0,0,0,.608-.432,52.553,52.553,0,0,0,3.12-9.12c1.3-.1,2.56-.24,3.584-.416a.571.571,0,0,0,.464-.576.544.544,0,0,0-.016-.16.538.538,0,0,0-.576-.512.544.544,0,0,0-.16.016c-.848.16-1.9.288-2.976.384.16-.688.288-1.344.4-1.968a.4.4,0,0,0,.016-.128.569.569,0,0,0-.576-.56.443.443,0,0,0-.144-.016.557.557,0,0,0-.608.512c-.128.752-.288,1.5-.464,2.256-1.04.064-2.112.08-2.976.08a.559.559,0,0,0-.608.592V-9.7a.552.552,0,0,0,.576.624h.32C66.8-9.072,67.648-9.12,68.464-9.152Zm7.632.528a23.855,23.855,0,0,0-4.08.384.6.6,0,0,0-.512.608.352.352,0,0,0,.016.128.591.591,0,0,0,.624.56.443.443,0,0,0,.144-.016A22.124,22.124,0,0,1,76.016-7.3c.448,0,1.008,0,1.424.016H77.5a.584.584,0,0,0,.608-.624.626.626,0,0,0-.624-.672C76.992-8.608,76.512-8.624,76.1-8.624ZM72.144-3.616a.511.511,0,0,0,.16-.368.557.557,0,0,0-.256-.464A.7.7,0,0,0,71.7-4.56a.655.655,0,0,0-.432.192,3.1,3.1,0,0,0-.976,2.144,2.178,2.178,0,0,0,1.28,2.16,6.767,6.767,0,0,0,2.976.512A16.748,16.748,0,0,0,78.16.112a.664.664,0,0,0,.592-.672.6.6,0,0,0-.016-.16.554.554,0,0,0-.592-.5,1.056,1.056,0,0,0-.224.016,18.338,18.338,0,0,1-3.472.32,5.449,5.449,0,0,1-2.192-.3,1.147,1.147,0,0,1-.72-1.12A1.794,1.794,0,0,1,72.144-3.616ZM-48.016,12A12.907,12.907,0,0,0-41.9,20.688a.954.954,0,0,0,.448.128.685.685,0,0,0,.592-.336.954.954,0,0,0,.128-.448.6.6,0,0,0-.288-.56,12.257,12.257,0,0,1-4.864-4.96c-1.056-2.1-1.488-3.824-1.488-7.328,0-.352-.3-.544-.672-.544-.416,0-.72.192-.72.544a15.4,15.4,0,0,1-1.44,7.472,10.755,10.755,0,0,1-4.7,4.864.652.652,0,0,0-.384.592.89.89,0,0,0,.128.416.637.637,0,0,0,.592.368.9.9,0,0,0,.432-.128A12.415,12.415,0,0,0-48.016,12Zm11.9-5.04c-.944,0-1.408.336-1.408,1.2V9.2c0,.848.448,1.168,1.408,1.168H-27.9c.96,0,1.408-.32,1.408-1.168V8.16c0-.864-.448-1.2-1.408-1.2Zm.256,2.416c-.32,0-.48-.064-.48-.352V8.336c0-.3.16-.384.48-.384h7.7c.32,0,.48.08.48.384v.688c0,.288-.16.352-.48.352Zm-.784,1.984c-.992,0-1.424.368-1.424,1.248v4.8c0,.88.432,1.248,1.424,1.248h9.264c.992,0,1.424-.368,1.424-1.248v-4.8c0-.88-.432-1.248-1.424-1.248Zm9.5,2.144H-36.88v-.736c0-.3.16-.384.5-.384h8.752c.336,0,.5.08.5.384Zm0,.96v1.088H-36.88V14.464Zm0,2.048v.72c0,.32-.16.4-.5.4h-8.752c-.336,0-.5-.08-.5-.4v-.72Zm-7.744,2.624a16.616,16.616,0,0,1-3.888,1.12.537.537,0,0,0-.48.544.544.544,0,0,0,.016.16.513.513,0,0,0,.56.448.779.779,0,0,0,.192-.016,16.652,16.652,0,0,0,4.16-1.264.55.55,0,0,0,.368-.48.554.554,0,0,0-.112-.32.547.547,0,0,0-.48-.256A.836.836,0,0,0-34.88,19.136Zm5.728.048a.747.747,0,0,0-.384-.112A.569.569,0,0,0-30,19.3a.557.557,0,0,0-.144.352.546.546,0,0,0,.32.464,14.976,14.976,0,0,0,4.4,1.312.544.544,0,0,0,.16.016.535.535,0,0,0,.56-.464.544.544,0,0,0,.016-.16.507.507,0,0,0-.448-.528A16.824,16.824,0,0,1-29.152,19.184Zm15.44-2.208V13.392a11.211,11.211,0,0,0-.112-1.76,15,15,0,0,0,4.448,6.224.721.721,0,0,0,.448.176.657.657,0,0,0,.48-.256A.691.691,0,0,0-8.3,17.36a.7.7,0,0,0-.256-.528,15.652,15.652,0,0,1-4.688-5.888H-9.04c.288,0,.448-.256.448-.576,0-.336-.16-.56-.448-.56H-13.7v-2.8c0-.3-.224-.464-.592-.464-.352,0-.592.16-.592.464v2.8H-18.9c-.288,0-.448.24-.448.56,0,.336.16.576.448.576h3.488a15.25,15.25,0,0,1-4.384,5.888.662.662,0,0,0-.256.5.7.7,0,0,0,.16.448A.61.61,0,0,0-19.44,18a.68.68,0,0,0,.432-.176,14.969,14.969,0,0,0,4.24-6.176,15.657,15.657,0,0,0-.112,1.744v3.584h-2.192c-.288,0-.432.208-.432.544,0,.32.144.56.432.56h2.192v2.8c0,.3.24.464.592.464.368,0,.576-.16.576-.464v-2.8h2.3c.288,0,.432-.24.432-.56,0-.336-.144-.544-.432-.544Zm-7.872,3.952c0,.3.24.464.608.464s.624-.16.624-.464V10.576a24.934,24.934,0,0,0,1.344-3.3.656.656,0,0,0,.016-.176.52.52,0,0,0-.48-.512A1.255,1.255,0,0,0-19.7,6.56a.5.5,0,0,0-.544.4,16.75,16.75,0,0,1-3.3,6.24.7.7,0,0,0-.16.448.584.584,0,0,0,.24.464.732.732,0,0,0,.384.128A.652.652,0,0,0-22.56,14a13.824,13.824,0,0,0,1.12-1.584,21.511,21.511,0,0,0-.144,2.4ZM-2.4,15.376H-.7c.272,0,.416.1.416.416v2.864c0,.24-.112.336-.5.336a4.344,4.344,0,0,1-.784-.08.174.174,0,0,0-.08-.016c-.208,0-.384.176-.432.464v.112a.509.509,0,0,0,.336.512,5.185,5.185,0,0,0,1.2.112c.88,0,1.408-.384,1.408-1.12V15.568c0-.928-.4-1.3-1.2-1.3H-2.4V12.72H.9c.288,0,.448-.24.448-.56,0-.336-.16-.56-.448-.56H-2.4V9.84H.432C.72,9.84.88,9.6.88,9.28c0-.336-.16-.544-.448-.544H-2.4V6.944c0-.3-.256-.448-.608-.448-.336,0-.56.144-.56.448V8.736H-5.152c.176-.448.32-.9.448-1.344a.443.443,0,0,0,.016-.144c0-.224-.176-.4-.464-.464a.544.544,0,0,0-.16-.016.508.508,0,0,0-.528.384,9.3,9.3,0,0,1-1.328,3.232.617.617,0,0,0-.1.32.506.506,0,0,0,.288.432.779.779,0,0,0,.352.1.5.5,0,0,0,.464-.272,12.142,12.142,0,0,0,.592-1.12h2V11.6H-6.9c-.288,0-.448.24-.448.56s.16.56.448.56h3.328v1.552H-5.632c-.8,0-1.2.368-1.2,1.3v4.256c0,.3.24.448.576.448s.608-.144.608-.448V15.792c0-.32.16-.416.432-.416h1.648v5.536c0,.3.24.448.576.448.352,0,.592-.144.592-.448ZM3.408,7.92c0-.288-.272-.448-.64-.448-.336,0-.608.144-.608.448v9.2c0,.3.272.448.608.448.368,0,.64-.144.64-.448Zm3.3-.832c0-.32-.24-.48-.624-.48-.368,0-.624.16-.624.48V19.28c0,.528-.112.656-.768.656A5.1,5.1,0,0,1,3.5,19.792a.4.4,0,0,0-.128-.016.527.527,0,0,0-.5.48.779.779,0,0,0-.016.192.506.506,0,0,0,.432.528,7.228,7.228,0,0,0,1.616.144c1.248,0,1.792-.5,1.792-1.536ZM16.72,9.264a4.529,4.529,0,0,1,4.608,4.768,4.546,4.546,0,0,1-1.744,3.728,7.346,7.346,0,0,1-3.2,1.152.623.623,0,0,0-.576.624.544.544,0,0,0,.016.16.619.619,0,0,0,.672.56.718.718,0,0,0,.176-.016,8.615,8.615,0,0,0,3.36-1.152,5.66,5.66,0,0,0,2.64-5.024c0-3.52-2.5-5.984-6.272-5.984-4.368,0-7.152,2.88-7.152,6.864,0,2.688,1.328,4.3,2.992,4.3a2.609,2.609,0,0,0,1.84-.7,6.532,6.532,0,0,0,1.584-2.9A26.391,26.391,0,0,0,16.72,9.264Zm-1.328.048A24,24,0,0,1,14.384,15.2a5.57,5.57,0,0,1-1.1,2.192,1.471,1.471,0,0,1-1.072.464c-.848,0-1.664-1.008-1.664-2.928A5.272,5.272,0,0,1,15.392,9.312Zm14.48,5.056c0,.9.384,1.264,1.312,1.264h7.744c.272,0,.416-.192.416-.528,0-.288-.144-.5-.416-.5h-3.68v-1.3h3.04c.24,0,.352-.24.352-.5,0-.24-.112-.464-.352-.464h-3.04v-1.1h3.024c.256,0,.368-.224.368-.48s-.112-.448-.368-.448H35.248V9.136h3.424c.272,0,.4-.176.4-.5,0-.272-.128-.5-.4-.5H35.52a11.217,11.217,0,0,0,.656-1.056.365.365,0,0,0,.048-.176c0-.176-.128-.336-.4-.4a1.4,1.4,0,0,0-.256-.032.507.507,0,0,0-.48.32,7.37,7.37,0,0,1-.8,1.344h-1.52a4.213,4.213,0,0,0-1.088.128,7.986,7.986,0,0,0,.656-1.12A.549.549,0,0,0,32.4,6.9a.47.47,0,0,0-.368-.432.906.906,0,0,0-.288-.048.474.474,0,0,0-.448.3,11.757,11.757,0,0,1-2.736,3.6.538.538,0,0,0-.176.384.557.557,0,0,0,.144.352.538.538,0,0,0,.384.176.655.655,0,0,0,.432-.192c.192-.192.416-.416.64-.656a7.471,7.471,0,0,0-.112,1.3Zm1.12-4.048V9.5c0-.288.16-.368.432-.368H34.16V10.32Zm0,.928H34.16v1.1H30.992Zm0,2.064H34.16v1.3H31.424c-.272,0-.432-.08-.432-.368Zm.336,5.3v2.384c0,.288.256.432.608.432s.608-.144.608-.432V18.608H38.9c.288,0,.448-.256.448-.576,0-.336-.16-.544-.448-.544H32.544V16.464c0-.3-.288-.464-.608-.464-.336,0-.608.16-.608.464v1.024h-6.16c-.288,0-.448.224-.448.544s.16.576.448.576ZM26.688,6.672a.672.672,0,0,0-.336-.1.542.542,0,0,0-.464.24.559.559,0,0,0-.128.352.61.61,0,0,0,.224.448,9.98,9.98,0,0,1,1.872,1.392.64.64,0,0,0,.416.16.648.648,0,0,0,.48-.224.592.592,0,0,0,.144-.352.642.642,0,0,0-.224-.464A10.643,10.643,0,0,0,26.688,6.672Zm-.976,3.04a.86.86,0,0,0-.336-.08.6.6,0,0,0-.592.576.506.506,0,0,0,.272.448,13.745,13.745,0,0,1,2.08,1.376.5.5,0,0,0,.336.112.63.63,0,0,0,.512-.24.576.576,0,0,0,.112-.352.652.652,0,0,0-.224-.48A13.11,13.11,0,0,0,25.712,9.712Zm2.464,3.008a14.268,14.268,0,0,1-2.992,2.48.638.638,0,0,0-.3.528.672.672,0,0,0,.1.336.615.615,0,0,0,.512.288.592.592,0,0,0,.336-.1,15.51,15.51,0,0,0,3.184-2.7.68.68,0,0,0,.176-.432.513.513,0,0,0-.176-.4.68.68,0,0,0-.432-.176A.513.513,0,0,0,28.176,12.72Zm21.9,5.616V20.7c0,.256.176.4.512.4s.528-.144.528-.4V18.336h2.544v1.392c0,.352-.112.448-.528.448a3.7,3.7,0,0,1-.736-.08.144.144,0,0,0-.08-.016.447.447,0,0,0-.432.432v.112a.46.46,0,0,0,.368.48,5.566,5.566,0,0,0,1.136.1c.928,0,1.36-.4,1.36-1.312V14.016c0-.912-.384-1.264-1.28-1.264H47.856c-.864,0-1.3.3-1.3,1.216v6.848c0,.3.224.448.56.448.368,0,.544-.144.544-.448v-2.48Zm0-.912H47.664V16.032H50.08Zm1.04,0V16.032h2.544v1.392Zm-1.04-2.3H47.664V14.112c0-.3.16-.384.448-.384H50.08Zm1.04,0V13.728h2.112c.288,0,.432.08.432.384V15.12Zm-9.056,5.824c0,.3.24.464.592.464.384,0,.624-.16.624-.464V10.5a17.2,17.2,0,0,0,1.248-3.312.375.375,0,0,0,.032-.176c0-.256-.176-.416-.48-.464a.936.936,0,0,0-.208-.032.511.511,0,0,0-.528.432,16.2,16.2,0,0,1-2.96,6.128.683.683,0,0,0-.16.416.528.528,0,0,0,.24.432.612.612,0,0,0,.4.16.586.586,0,0,0,.48-.256,6.484,6.484,0,0,0,.864-1.456,15.21,15.21,0,0,0-.144,1.872Zm5.28-12.992H45.168c-.288,0-.448.208-.448.512V8.5a.454.454,0,0,0,.5.5h2.128v.864c0,.256.224.416.576.416s.576-.16.576-.416V8.992h2.7v.864c0,.24.224.416.576.416s.576-.176.576-.416V8.992H54.9c.288,0,.448-.176.448-.512s-.16-.528-.448-.528H52.352V6.944c0-.272-.224-.448-.576-.448s-.576.176-.576.448V7.952H48.5V6.944c0-.272-.224-.448-.576-.448s-.576.176-.576.448ZM46.08,10.624c-.912,0-1.408.5-1.408,1.5v2.064a14.529,14.529,0,0,1-1.04,6,.628.628,0,0,0-.064.288.534.534,0,0,0,.368.48.8.8,0,0,0,.3.064.485.485,0,0,0,.48-.368,16.69,16.69,0,0,0,1.056-6.192c0-.72.032-1.472.032-2.176,0-.48.192-.592.64-.592H54.96c.32,0,.464-.208.464-.528s-.144-.544-.464-.544Z" transform="translate(376.5 1630.937)"/>
    <g id="グループ_9236" data-name="グループ 9236" transform="translate(282.242 1442.33)">
      <path id="Icon_material-people" data-name="Icon material-people" d="M55.738,29.2A10.848,10.848,0,1,0,44.89,18.348,10.8,10.8,0,0,0,55.738,29.2Zm-28.927,0A10.848,10.848,0,1,0,15.963,18.348,10.8,10.8,0,0,0,26.811,29.2Zm0,7.232C18.386,36.427,1.5,40.657,1.5,49.082v9.04H52.122v-9.04C52.122,40.657,35.236,36.427,26.811,36.427Zm28.927,0c-1.049,0-2.242.072-3.507.181,4.194,3.037,7.123,7.123,7.123,12.475v9.04h21.7v-9.04C81.049,40.657,64.163,36.427,55.738,36.427Z" transform="translate(25.447 55)" fill="#ffda2b"/>
      <path id="Icon_material-people-2" data-name="Icon material-people" d="M82.467,29.2A10.848,10.848,0,1,0,71.62,18.348,10.8,10.8,0,0,0,82.467,29.2Zm0,7.232c-1.049,0-2.242.072-3.507.181,4.194,3.037,7.123,7.123,7.123,12.475v9.04h21.7v-9.04C107.778,40.657,90.892,36.427,82.467,36.427Z" transform="translate(26.564 55)" fill="#ffda2b"/>
      <path id="Icon_material-people-3" data-name="Icon material-people" d="M82.467,29.2A10.848,10.848,0,1,0,71.62,18.348,10.8,10.8,0,0,0,82.467,29.2Zm0,7.232c-1.049,0-2.242.072-3.507.181,4.194,3.037,7.123,7.123,7.123,12.475v9.04h21.7v-9.04C107.778,40.657,90.892,36.427,82.467,36.427Z" transform="translate(53.791 55)" fill="#ffda2b"/>
    </g>
    <g id="マスクグループ_22" data-name="マスクグループ 22" clip-path="url(#clip-path)">
      <path id="パス_5577" data-name="パス 5577" d="M67.84-150.528H39.68v-42.5h78.336V0H67.84Z" transform="translate(417.5 1570)" fill="#fff" opacity="0.249"/>
    </g>
  </g>
</svg>
