<svg xmlns="http://www.w3.org/2000/svg" xmlns:xlink="http://www.w3.org/1999/xlink" width="312" height="313.873" viewBox="0 0 312 313.873">
  <defs>
    <clipPath id="clip-path">
      <rect id="長方形_23115" data-name="長方形 23115" width="311" height="229" transform="translate(225.5 1356)" fill="none"/>
    </clipPath>
  </defs>
  <g id="グループ_9132" data-name="グループ 9132" transform="translate(-219.5 -1355)">
    <rect id="長方形_23080" data-name="長方形 23080" width="310" height="230" transform="translate(221.5 1355)" fill="#538eb4"/>
    <path id="パス_5573" data-name="パス 5573" d="M45-73.9v-4.2H22a17.4,17.4,0,0,0,1.8-3.3l-4.9-.2a42.28,42.28,0,0,1-4.1,7.7Zm-43.4,0v-4.2H-16.8a12.678,12.678,0,0,0,2.2-3.3l-5.2-.2a46.273,46.273,0,0,1-5.1,7.7ZM-42-65.3A45.071,45.071,0,0,0-25.8-82.1l-5.5-.3c-2.7,5.2-7.3,9.6-14,13.2Zm87-.4v-3.9H26.7a71.936,71.936,0,0,1,4.8,9l5.4-.5a46.3,46.3,0,0,0-3.1-4.6ZM-3.6-54.9v-8.3H-5.3c-.4-.7-.9-1.6-1.5-2.5H-1l.4.4A41.859,41.859,0,0,0,12.6-82.1l-5.2-.3A28.138,28.138,0,0,1-2.7-69.6h-11a54.745,54.745,0,0,1,4.3,8.3l.9-.1v2.3H-33.2a32.452,32.452,0,0,0,7.7-6.6h3a35.4,35.4,0,0,1,1.6,5.4l4.7-.4a87.093,87.093,0,0,0-3.4-8.9H-28a33.872,33.872,0,0,1-10.5,8.5l1.6,2h-5.7v20.8h4.8V-54.9ZM42.6-38.3V-59.1H8.3a26.233,26.233,0,0,0,5.8-6.6h3.6a42.4,42.4,0,0,1,2.3,6l5-.4a92.818,92.818,0,0,0-4.2-9.5H11.7a23.281,23.281,0,0,1-5.8,6.4H3.7v8.3H37.8v16.6ZM22.2-27.9v-9.9H-22.2v9.9ZM37.1,7.5V-18.9H-17.7v-2.4H34.2V-44.6H31.1v-6.7H-31.1v6.7h-3.1v52h4.5V-41H29.7v16.2H-22.2v9.3H32.6V7.4Zm-12-9.3V-11.9H-22.2V-1.8Zm0,9.3V1.8H-22.2V7.4h4.5v-2H20.6v2Zm1.2-52.1H-26.3v-2.7H26.3Zm-8.6,13H-17.7v-2.6H17.7ZM20.6-5.4H-17.7V-8.2H20.6Z" transform="translate(376.618 1476)" fill="#fff"/>
    <path id="パス_4365" data-name="パス 4365" d="M35.068,0H274.932C294.3,0,310,15.194,310,33.937s-15.7,33.937-35.068,33.937H35.068C15.7,67.873,0,52.679,0,33.937S15.7,0,35.068,0Z" transform="translate(221.5 1601)" fill="#ffda2b"/>
    <path id="パス_5574" data-name="パス 5574" d="M-96.848-3.76c.272,0,.448-.24.448-.56a.451.451,0,0,0-.464-.512H-104.4c.144-.208.272-.4.4-.608a.649.649,0,0,0,.08-.272c0-.176-.128-.32-.352-.416a.742.742,0,0,0-.3-.064.583.583,0,0,0-.48.3c-.208.352-.448.7-.7,1.056h-4.288a.459.459,0,0,0-.464.512c0,.336.176.56.448.56h3.44c-.3.336-.608.656-.912.944a.842.842,0,0,0-.272.576.626.626,0,0,0,.544.608c.944.192,1.92.416,2.9.672A16.972,16.972,0,0,1-109.92.112a.5.5,0,0,0-.512.544V.7a.577.577,0,0,0,.592.576h.032a15.567,15.567,0,0,0,6.992-1.808,31.637,31.637,0,0,1,4.784,1.792,1.009,1.009,0,0,0,.352.08.6.6,0,0,0,.56-.368A.507.507,0,0,0-97.056.72.639.639,0,0,0-97.52.144c-1.3-.528-2.736-1.024-4.176-1.456a7.211,7.211,0,0,0,1.3-1.408,7.3,7.3,0,0,0,.592-1.04Zm-4.224,0a5.7,5.7,0,0,1-1.92,2.08c-1.088-.288-2.128-.528-3.056-.7-.16-.032-.24-.064-.24-.128s.048-.144.16-.24a11.473,11.473,0,0,0,.912-1.008Zm-4.1-5.344a13.434,13.434,0,0,1-5.088,2.448.553.553,0,0,0-.448.544.811.811,0,0,0,.032.208.481.481,0,0,0,.5.384.936.936,0,0,0,.208-.032,14,14,0,0,0,6.032-3.408,7.053,7.053,0,0,0-.176,1.344v1.04c0,.272.24.464.576.464.352,0,.576-.16.576-.448V-7.6a7.91,7.91,0,0,0-.16-1.376A13.414,13.414,0,0,0-96.832-5.6a1.6,1.6,0,0,0,.256.032A.479.479,0,0,0-96.064-6a.936.936,0,0,0,.032-.208c0-.24-.112-.416-.464-.5A13.8,13.8,0,0,1-101.9-9.1h5.152c.272,0,.432-.224.432-.544,0-.3-.16-.528-.432-.528h-6.208V-11.7a35.189,35.189,0,0,0,4.624-.688.5.5,0,0,0,.448-.512.375.375,0,0,0-.032-.176.49.49,0,0,0-.512-.416,1.492,1.492,0,0,0-.224.032,50.2,50.2,0,0,1-10.144.928.481.481,0,0,0-.48.544.485.485,0,0,0,.5.544c1.5,0,3.1-.048,4.672-.16v1.424h-6.032c-.272,0-.432.224-.432.528,0,.32.16.544.432.544ZM-85.92-7.152l-2.72.288a.474.474,0,0,0-.416.528v.08c.048.32.224.512.48.512h.064l2.592-.272V-.544c0,1.232.384,1.5,2.816,1.5a4.308,4.308,0,0,0,1.936-.3,1.252,1.252,0,0,0,.64-.672,9.441,9.441,0,0,0,.384-2.736V-2.8c0-.368-.192-.512-.544-.528h-.064c-.368,0-.544.144-.56.528a11.15,11.15,0,0,1-.24,2.048c-.128.464-.4.608-1.616.608-1.408,0-1.536-.128-1.536-.72v-5.28l4.352-.464c.272-.032.4-.224.4-.544v-.064c-.032-.3-.192-.512-.448-.512h-.064l-4.24.448v-3.552A21.793,21.793,0,0,0-81.232-12.1a.508.508,0,0,0,.336-.48.86.86,0,0,0-.08-.336.647.647,0,0,0-.544-.336.649.649,0,0,0-.3.064A21.536,21.536,0,0,1-88.16-11.3a.479.479,0,0,0-.384.512.6.6,0,0,0,.016.16.542.542,0,0,0,.528.48.443.443,0,0,0,.144-.016c.656-.1,1.3-.224,1.936-.368Zm-8.528-3.616c-.288,0-.432.224-.432.544s.144.544.432.544h5.024c.272,0,.432-.224.432-.544s-.16-.544-.432-.544Zm4.736,3.408c.256,0,.4-.256.4-.528,0-.288-.144-.528-.4-.528H-93.9c-.272,0-.4.24-.4.528s.128.528.4.528Zm-4.176-5.728c-.256,0-.416.208-.416.528,0,.3.16.528.416.528h4.176c.272,0,.416-.224.416-.528,0-.32-.144-.528-.416-.528Zm4.48,10.4c0-.816-.384-1.152-1.232-1.152h-2.48c-.832,0-1.216.336-1.216,1.152V-.176c0,.816.384,1.152,1.216,1.152h2.48c.848,0,1.232-.336,1.232-1.152ZM-90.96-2.88c.288,0,.432.1.432.384v2.08c0,.3-.144.384-.432.384h-1.824c-.288,0-.432-.08-.432-.384V-2.5c0-.288.144-.384.432-.384Zm1.216-2.176c.272,0,.416-.256.416-.528,0-.288-.144-.528-.416-.528h-4.192c-.272,0-.4.24-.4.528s.128.528.4.528Zm12.976-6.384v3.616H-78.24c-.288,0-.448.24-.448.56s.16.544.448.544h1.472v4.192c-.624.24-1.232.448-1.792.624a.516.516,0,0,0-.384.528,1.4,1.4,0,0,0,.032.256.514.514,0,0,0,.5.416.725.725,0,0,0,.256-.048,30.688,30.688,0,0,0,4.512-1.872.633.633,0,0,0,.384-.544.549.549,0,0,0-.064-.256.467.467,0,0,0-.448-.32.779.779,0,0,0-.352.1c-.432.208-.944.448-1.488.672V-6.72h1.44c.288,0,.448-.224.448-.544,0-.336-.16-.56-.448-.56h-1.44V-11.44h1.632c.3,0,.464-.224.464-.56s-.16-.56-.464-.56H-78.4c-.288,0-.448.224-.448.56s.16.56.448.56Zm5.616,7.632c-.064,2.128-1.1,3.312-3.472,4.08a.615.615,0,0,0-.416.576.511.511,0,0,0,.048.224.515.515,0,0,0,.512.4.742.742,0,0,0,.3-.064c2.768-.96,4.128-2.512,4.192-5.216H-68.5v3.7c0,.656.176.992.672,1.152a5.62,5.62,0,0,0,1.568.128c1.056,0,1.616-.16,1.92-.592a4.177,4.177,0,0,0,.528-2.1v-.032a.539.539,0,0,0-.512-.576h-.08a.473.473,0,0,0-.528.464A3.673,3.673,0,0,1-65.2-.208c-.112.208-.4.3-1.04.3-.9,0-1.056-.048-1.056-.56V-3.808h.944c.928,0,1.344-.336,1.344-1.232V-11.7c0-.9-.432-1.264-1.36-1.264H-71.68c-.928,0-1.36.368-1.36,1.264V-5.04c0,.9.416,1.232,1.328,1.232Zm-.736-3.824V-9.2h5.728v1.568Zm0,1.024h5.728v1.376c0,.32-.112.4-.448.4H-71.44c-.336,0-.448-.08-.448-.4Zm0-3.616v-1.264c0-.3.112-.384.448-.384h4.832c.336,0,.448.08.448.384v1.264ZM-54.48-4A9.032,9.032,0,0,1-58.16-.944a.522.522,0,0,0-.32.48.652.652,0,0,0,.08.288A.5.5,0,0,0-57.936.1a.964.964,0,0,0,.384-.1,10.738,10.738,0,0,0,4.3-4h1.424A9.1,9.1,0,0,1-55.712.288a.483.483,0,0,0-.272.448.663.663,0,0,0,.1.32.545.545,0,0,0,.48.256.841.841,0,0,0,.368-.1A10.468,10.468,0,0,0-50.672-4h.576c.336,0,.448.1.448.384a12.352,12.352,0,0,1-.384,3.168c-.128.432-.448.512-.992.512A5.513,5.513,0,0,1-52.1-.048a.312.312,0,0,0-.112-.016.509.509,0,0,0-.5.448.4.4,0,0,0-.016.128.53.53,0,0,0,.464.56,6.381,6.381,0,0,0,1.344.128c1.072,0,1.6-.336,1.888-1.12a12.716,12.716,0,0,0,.5-3.856c0-.8-.416-1.168-1.3-1.168h-5.392a8.306,8.306,0,0,0,.592-1.04h6.176c.272,0,.416-.208.416-.5s-.144-.5-.416-.5H-57.9c-.272,0-.416.208-.416.5s.16.5.416.5h2.064a7.8,7.8,0,0,1-3.344,3.152.527.527,0,0,0-.3.464.652.652,0,0,0,.08.288.478.478,0,0,0,.448.272.779.779,0,0,0,.352-.1A9.659,9.659,0,0,0-55.968-4Zm-5.28-5.6v-3.392c0-.3-.224-.464-.576-.464s-.576.16-.576.464V-9.6h-1.536c-.288,0-.448.224-.448.56,0,.32.16.56.448.56h1.536v4.656a18.048,18.048,0,0,1-1.664.72.541.541,0,0,0-.368.512A.906.906,0,0,0-62.9-2.3a.514.514,0,0,0,.512.368A.628.628,0,0,0-62.1-2a20.172,20.172,0,0,0,3.7-2.016.654.654,0,0,0,.3-.5.652.652,0,0,0-.08-.288.509.509,0,0,0-.432-.256.564.564,0,0,0-.336.112c-.24.16-.528.336-.816.512V-8.48h1.328c.288,0,.432-.24.432-.56,0-.336-.144-.56-.432-.56Zm3.728-3.44c-.88,0-1.264.32-1.264,1.136v2.848c0,.816.384,1.136,1.264,1.136h5.392c.864,0,1.264-.32,1.264-1.136V-11.9c0-.816-.4-1.136-1.264-1.136Zm-.144,2.1v-.768c0-.288.144-.368.432-.368h4.816c.288,0,.432.08.432.368v.768Zm0,.928h5.68v.8c0,.288-.144.368-.432.368h-4.816c-.288,0-.432-.08-.432-.368Zm17.456-.72a4.529,4.529,0,0,1,4.608,4.768A4.546,4.546,0,0,1-35.856-2.24a7.346,7.346,0,0,1-3.2,1.152.623.623,0,0,0-.576.624.544.544,0,0,0,.016.16.619.619,0,0,0,.672.56A.718.718,0,0,0-38.768.24a8.615,8.615,0,0,0,3.36-1.152,5.66,5.66,0,0,0,2.64-5.024c0-3.52-2.5-5.984-6.272-5.984-4.368,0-7.152,2.88-7.152,6.864,0,2.688,1.328,4.3,2.992,4.3a2.609,2.609,0,0,0,1.84-.7,6.532,6.532,0,0,0,1.584-2.9A26.391,26.391,0,0,0-38.72-10.736Zm-1.328.048A24,24,0,0,1-41.056-4.8a5.57,5.57,0,0,1-1.1,2.192,1.471,1.471,0,0,1-1.072.464c-.848,0-1.664-1.008-1.664-2.928A5.272,5.272,0,0,1-40.048-10.688Zm15.952-.656c.272,0,.416-.192.416-.512s-.144-.5-.416-.5h-3.632c.112-.192.224-.368.32-.56a.649.649,0,0,0,.08-.272.465.465,0,0,0-.368-.432.906.906,0,0,0-.288-.048.522.522,0,0,0-.464.288,9.185,9.185,0,0,1-2,2.528.588.588,0,0,0-.208.432.5.5,0,0,0,.144.352.66.66,0,0,0,.448.192.72.72,0,0,0,.464-.208,11.148,11.148,0,0,0,1.168-1.264H-27.3a8.028,8.028,0,0,1,.608,1.264.482.482,0,0,0,.5.352,1.235,1.235,0,0,0,.24-.032c.24-.08.384-.208.384-.416a.628.628,0,0,0-.048-.224,5.139,5.139,0,0,0-.512-.944Zm3.264,0a7.426,7.426,0,0,1,.672,1.232.562.562,0,0,0,.544.336,1.42,1.42,0,0,0,.24-.032.483.483,0,0,0,.384-.432.493.493,0,0,0-.048-.208,5.769,5.769,0,0,0-.56-.9h3.008c.272,0,.432-.192.432-.512s-.16-.5-.432-.5H-21.36c.1-.208.192-.4.288-.592a.628.628,0,0,0,.048-.224.488.488,0,0,0-.384-.464,1.664,1.664,0,0,0-.24-.032.507.507,0,0,0-.5.352,7.333,7.333,0,0,1-1.248,1.936.511.511,0,0,0-.16.368.47.47,0,0,0,.224.384.834.834,0,0,0,.4.128.63.63,0,0,0,.448-.24,5.716,5.716,0,0,0,.48-.608Zm-2.256,1.92v-.592c0-.3-.192-.448-.608-.448-.4,0-.592.144-.592.448v.592h-4.688c-.96,0-1.36.384-1.36,1.248v1.328c0,.32.208.48.592.48s.592-.16.592-.48V-8.016c0-.32.144-.416.5-.416h10.4c.352,0,.512.1.512.416v1.168c0,.32.208.48.592.48s.592-.16.592-.48V-8.176c0-.864-.4-1.248-1.36-1.248ZM-27.1-2.848v-1.12h6.96c.928,0,1.28-.32,1.28-1.136V-6.256c0-.816-.352-1.152-1.28-1.152h-6.848c-.928,0-1.3.384-1.3,1.216v5.92c0,.816.368,1.232,1.3,1.232h7.632c.832,0,1.232-.352,1.232-1.168V-1.7c0-.816-.4-1.152-1.232-1.152Zm0-2.064V-6.08c0-.288.144-.368.432-.368h6.192c.288,0,.448.08.448.368v.816c0,.288-.16.352-.448.352Zm0,3.056h7.344c.272,0,.432.08.432.368V-.4c0,.288-.16.368-.432.368h-6.912c-.288,0-.432-.1-.432-.384Zm14.272-9.632v3.632H-14.3c-.288,0-.448.224-.448.544s.16.544.448.544h1.472v4.352c-.608.208-1.216.416-1.808.576a.52.52,0,0,0-.384.528,1.664,1.664,0,0,0,.032.24.55.55,0,0,0,.528.432,1.255,1.255,0,0,0,.224-.032,36.283,36.283,0,0,0,4.3-1.68.516.516,0,0,0,.3-.48.718.718,0,0,0-.08-.3.491.491,0,0,0-.448-.336.628.628,0,0,0-.288.064c-.384.176-.8.368-1.232.544v-3.9h1.312c.3,0,.464-.224.464-.544,0-.336-.16-.544-.464-.544H-11.68v-3.632h1.568c.3,0,.464-.24.464-.56,0-.336-.16-.56-.464-.56h-4.336c-.288,0-.448.224-.448.56,0,.32.16.56.448.56Zm7.264,6.24v1.664h-3.3c-.288,0-.432.224-.432.528,0,.32.144.56.432.56h3.3V-.368H-10.08c-.288,0-.432.224-.432.544s.144.56.432.56H-.32C-.032.736.112.48.112.176c0-.32-.144-.544-.432-.544h-4.1V-2.5H-.9c.272,0,.416-.24.416-.56S-.624-3.584-.9-3.584h-3.52V-5.248h2.48C-.992-5.248-.56-5.6-.56-6.56v-5.008c0-.992-.48-1.328-1.376-1.328h-5.92c-.944,0-1.36.352-1.36,1.328V-6.56c0,.96.464,1.312,1.36,1.312Zm0-6.592v2.256h-2.5v-1.824c0-.352.144-.432.464-.432Zm1.152,0h2.24c.32,0,.464.128.464.432v1.824h-2.7ZM-5.568-8.56V-6.3H-7.6c-.32,0-.464-.128-.464-.432V-8.56Zm1.152,0h2.7v1.824c0,.352-.144.432-.464.432h-2.24Zm17.2-1.52c.4,0,.592.128.592.384a1.021,1.021,0,0,1-.144.448A14.326,14.326,0,0,1,8.3-4.336a33.359,33.359,0,0,0-3.04-2.992.839.839,0,0,0-.512-.208.631.631,0,0,0-.432.176.605.605,0,0,0-.272.48.633.633,0,0,0,.24.464,38.226,38.226,0,0,1,5.52,6.3.773.773,0,0,0,.624.368.74.74,0,0,0,.4-.128.847.847,0,0,0,.352-.656.7.7,0,0,0-.128-.416A26.009,26.009,0,0,0,9.184-3.28,16.87,16.87,0,0,0,14.7-8.864,2.365,2.365,0,0,0,15.024-10a1.412,1.412,0,0,0-.272-.848,1.664,1.664,0,0,0-1.408-.592L2.5-11.424c-.32,0-.544.3-.544.688,0,.368.208.672.544.672Zm12.3-.8v-1.664c0-.384-.3-.576-.688-.576s-.688.192-.688.576v1.664h-4.56a.56.56,0,0,0-.528.624.56.56,0,0,0,.528.624h8.672c.224,0,.352.064.352.192,0,.08-.064.192-.224.336A27.915,27.915,0,0,1,18.144-3.92a.576.576,0,0,0-.48.576.936.936,0,0,0,.032.208.644.644,0,0,0,.64.48.718.718,0,0,0,.176-.016,21.165,21.165,0,0,0,5.264-2.256l.048.016c-.048.48-.064,1.12-.064,1.664V.368c0,.384.288.576.672.576.4,0,.688-.192.688-.576V-4.1A5.84,5.84,0,0,0,25.072-5.1L25.1-5.12a5.237,5.237,0,0,0,.7.352,44.685,44.685,0,0,1,4.608,2.352.685.685,0,0,0,.352.1A.67.67,0,0,0,31.36-2.7a.743.743,0,0,0,.1-.368.694.694,0,0,0-.352-.576,33.762,33.762,0,0,0-5.328-2.4A16.772,16.772,0,0,0,29.2-8.528a1.869,1.869,0,0,0,.608-1.232.939.939,0,0,0-.064-.368,1.206,1.206,0,0,0-1.264-.752Zm14.416.5a22.288,22.288,0,0,0-3.568-1.84.968.968,0,0,0-.352-.064.683.683,0,0,0-.592.368.61.61,0,0,0-.112.352.547.547,0,0,0,.368.528,23.118,23.118,0,0,1,3.5,1.856.623.623,0,0,0,.368.112.7.7,0,0,0,.624-.368.743.743,0,0,0,.1-.368A.718.718,0,0,0,39.5-10.384Zm-4.9,2.048a.889.889,0,0,0-.336-.064.588.588,0,0,0-.544.368.708.708,0,0,0-.112.384.528.528,0,0,0,.352.5,23.1,23.1,0,0,1,3.6,1.952A.737.737,0,0,0,38-5.056a.69.69,0,0,0,.608-.336,1.019,1.019,0,0,0,.112-.432.653.653,0,0,0-.32-.56A25.759,25.759,0,0,0,34.608-8.336Zm11.2-1.04a.748.748,0,0,0-.256-.032.617.617,0,0,0-.608.544A10.481,10.481,0,0,1,41.136-3.12,13.166,13.166,0,0,1,34.48-.88a.6.6,0,0,0-.64.624.272.272,0,0,0,.016.112.664.664,0,0,0,.72.656h.1A14.475,14.475,0,0,0,41.9-1.952,12.139,12.139,0,0,0,46.272-8.48a1.6,1.6,0,0,0,.032-.256A.65.65,0,0,0,45.808-9.376ZM43.584-12.5a.59.59,0,0,0,.16.384,10.546,10.546,0,0,1,1.264,1.744.426.426,0,0,0,.416.272.49.49,0,0,0,.528-.448.812.812,0,0,0-.112-.416,9.929,9.929,0,0,0-1.376-1.792.523.523,0,0,0-.416-.176A.47.47,0,0,0,43.584-12.5Zm1.808-.976a.492.492,0,0,0,.192.416,9.712,9.712,0,0,1,1.2,1.7.45.45,0,0,0,.416.256.491.491,0,0,0,.5-.448.863.863,0,0,0-.1-.4A9.392,9.392,0,0,0,46.288-13.7a.6.6,0,0,0-.432-.192A.482.482,0,0,0,45.392-13.472ZM56.848-4.816a33.322,33.322,0,0,1,2.928,3.232.746.746,0,0,0,.592.32.667.667,0,0,0,.448-.176.645.645,0,0,0,.272-.528.862.862,0,0,0-.176-.512A25.7,25.7,0,0,0,57.68-5.968a20.019,20.019,0,0,0,2.544-5.808,1.576,1.576,0,0,0,.032-.272.678.678,0,0,0-.544-.672,1.182,1.182,0,0,0-.3-.048c-.32,0-.48.224-.56.608a16.587,16.587,0,0,1-2.224,5.248,40.793,40.793,0,0,0-4.416-3.28.867.867,0,0,0-.5-.16.652.652,0,0,0-.512.24.765.765,0,0,0-.16.448.547.547,0,0,0,.256.48,44.046,44.046,0,0,1,4.528,3.408A15.866,15.866,0,0,1,49.76-1.04a.657.657,0,0,0-.448.608.964.964,0,0,0,.1.384.562.562,0,0,0,.544.336,1.092,1.092,0,0,0,.368-.08A16.953,16.953,0,0,0,56.848-4.816Zm9.984-6.768a.862.862,0,0,0-.48-.16.626.626,0,0,0-.512.24.729.729,0,0,0-.176.464.622.622,0,0,0,.256.512A19,19,0,0,1,69.264-7.6a.824.824,0,0,0,.592.3.656.656,0,0,0,.5-.224.82.82,0,0,0,.224-.544.817.817,0,0,0-.192-.512A15.771,15.771,0,0,0,66.832-11.584Zm10.72,1.168a1.235,1.235,0,0,0-.24-.032c-.288,0-.528.176-.64.608a11.4,11.4,0,0,1-3.84,6.16,12.946,12.946,0,0,1-6.688,2.272.657.657,0,0,0-.64.7v.08a.691.691,0,0,0,.752.64h.032a14.092,14.092,0,0,0,7.376-2.5,12.447,12.447,0,0,0,4.4-6.992A1.763,1.763,0,0,0,78.1-9.76.665.665,0,0,0,77.552-10.416ZM85.12-6.752A44.067,44.067,0,0,1,92.32-3.9a.86.86,0,0,0,.336.08.688.688,0,0,0,.64-.464.968.968,0,0,0,.064-.352.7.7,0,0,0-.432-.672A48.043,48.043,0,0,0,85.12-8.176v-4.112c0-.448-.3-.624-.7-.624-.432,0-.7.176-.7.608V.128c0,.432.272.608.7.608.4,0,.7-.176.7-.608Zm14.816-.336a11.062,11.062,0,0,0,2.192-2.736,51.534,51.534,0,0,0,5.84-.512.589.589,0,0,0,.544-.592v-.112a.539.539,0,0,0-.576-.512.443.443,0,0,0-.144.016c-1.76.256-3.664.448-5.024.5.24-.48.448-.912.64-1.376a.61.61,0,0,0,.064-.272c0-.24-.176-.432-.5-.5a1.08,1.08,0,0,0-.224-.032.6.6,0,0,0-.592.464,10.565,10.565,0,0,1-.8,1.744h-.912c-1.056,0-2.08-.016-2.832-.08h-.048a.61.61,0,0,0-.576.592v.064a.563.563,0,0,0,.56.592c.72.032,1.632.048,2.432.048h.736A24.051,24.051,0,0,1,96.928-5.2a.717.717,0,0,0-.224.512.631.631,0,0,0,.208.48.6.6,0,0,0,.432.192.7.7,0,0,0,.512-.24c1.92-1.952,3.68-3.008,5.04-3.008.7,0,1.184.272,1.28,1.248-2.976,1.072-4.448,2.56-4.448,4.08,0,1.84,1.7,2.672,4.7,2.672A27.032,27.032,0,0,0,108.9.4a.645.645,0,0,0,.592-.656.6.6,0,0,0-.016-.16.55.55,0,0,0-.592-.5,1.056,1.056,0,0,0-.224.016,26.5,26.5,0,0,1-4.32.352c-2.256,0-3.3-.5-3.3-1.44,0-.992.992-1.952,3.232-2.816v2.24a.544.544,0,0,0,.592.608.583.583,0,0,0,.624-.608c.016-.3.016-.608.016-.912,0-.576-.016-1.136-.048-1.712,1.536-.56,3.04-.96,4.208-1.264a.581.581,0,0,0,.512-.592,1.6,1.6,0,0,0-.032-.256.582.582,0,0,0-.592-.432,1.782,1.782,0,0,0-.272.032c-1.1.32-2.5.752-3.936,1.264A1.992,1.992,0,0,0,103.136-8.3,5.453,5.453,0,0,0,100-6.992ZM-36,10.3h-2.448a.548.548,0,0,0-.608.608.567.567,0,0,0,.592.64H-36v3.936c0,.4.256.608.672.608.4,0,.7-.208.7-.608V11.552h5.232v1.44a6.984,6.984,0,0,1-.944,4.08,6.187,6.187,0,0,1-3.872,2.336c-.368.064-.576.272-.576.592a.656.656,0,0,0,.016.176.573.573,0,0,0,.624.5.984.984,0,0,0,.208-.016A7.253,7.253,0,0,0-29.2,17.84a7.968,7.968,0,0,0,1.168-4.576V11.552h2.464a.567.567,0,0,0,.592-.64.559.559,0,0,0-.608-.624h-2.448V7.744a.625.625,0,0,0-.7-.608.578.578,0,0,0-.656.608v2.544h-5.232V7.744a.625.625,0,0,0-.7-.608A.591.591,0,0,0-36,7.744Zm26.08,4.432c.4,0,.624-.256.624-.688a.637.637,0,0,0-.64-.72H-22.08a.637.637,0,0,0-.64.72c0,.432.224.688.624.688Zm6.176-.864A23.275,23.275,0,0,0,4.544,11.2a.653.653,0,0,0,.336-.576.76.76,0,0,0-.112-.4.7.7,0,0,0-.592-.352.76.76,0,0,0-.4.112,21.936,21.936,0,0,1-7.5,2.544V8.192c0-.432-.256-.608-.688-.608-.384,0-.688.176-.688.608v8.352c0,3.024.672,3.616,4.56,3.616a32.076,32.076,0,0,0,5.424-.384.663.663,0,0,0,.592-.688v-.112a.588.588,0,0,0-.608-.576.779.779,0,0,0-.192.016,29.439,29.439,0,0,1-4.912.416c-3.152,0-3.5-.128-3.5-2.192ZM3.712,7.3a.59.59,0,0,0,.16.384A10.545,10.545,0,0,1,5.136,9.424a.426.426,0,0,0,.416.272.49.49,0,0,0,.528-.448.812.812,0,0,0-.112-.416A9.929,9.929,0,0,0,4.592,7.04a.524.524,0,0,0-.416-.176A.47.47,0,0,0,3.712,7.3Zm1.9-.848a.492.492,0,0,0,.192.416,9.712,9.712,0,0,1,1.2,1.7.45.45,0,0,0,.416.256.491.491,0,0,0,.5-.448.863.863,0,0,0-.1-.4A9.392,9.392,0,0,0,6.512,6.224a.6.6,0,0,0-.432-.192A.482.482,0,0,0,5.616,6.448Zm12.992,3.04c.4,0,.576.112.576.352a1.191,1.191,0,0,1-.08.352,13.532,13.532,0,0,1-3.616,5.2,17.956,17.956,0,0,1-5.68,3.456.735.735,0,0,0-.48.688.747.747,0,0,0,.048.272.586.586,0,0,0,.592.4,1.1,1.1,0,0,0,.384-.08A17.793,17.793,0,0,0,17.12,15.7a26.3,26.3,0,0,1,4.224,4.032.768.768,0,0,0,.576.256.751.751,0,0,0,.56-.24.771.771,0,0,0,.208-.512.893.893,0,0,0-.224-.56,28.484,28.484,0,0,0-4.448-3.984,15.026,15.026,0,0,0,2.544-4.16,3.036,3.036,0,0,0,.176-.928,1.562,1.562,0,0,0-.208-.8A1.586,1.586,0,0,0,19.1,8.16l-8.144.08a.577.577,0,0,0-.592.64c0,.432.208.7.592.7Zm8.384,11.328c0,.3.256.48.624.48.384,0,.624-.176.624-.48V10.736a22.009,22.009,0,0,0,1.424-3.392.936.936,0,0,0,.032-.208.538.538,0,0,0-.432-.528,1.782,1.782,0,0,0-.272-.032.514.514,0,0,0-.544.368,15.991,15.991,0,0,1-3.792,6.56.639.639,0,0,0,.032.912.655.655,0,0,0,.432.192.607.607,0,0,0,.464-.24A13.276,13.276,0,0,0,27.12,12.3a20.616,20.616,0,0,0-.128,2.192Zm5.792-6.64a24.205,24.205,0,0,0,5.648-4.016.559.559,0,0,0,.224-.448.728.728,0,0,0-.24-.512.758.758,0,0,0-.48-.208.641.641,0,0,0-.416.176A19.436,19.436,0,0,1,32.784,12.8V7.072c0-.32-.256-.5-.64-.5-.368,0-.624.176-.624.5V19.12c0,1.024.352,1.472,1.456,1.6a17.172,17.172,0,0,0,2,.08,11,11,0,0,0,2.256-.176,1.833,1.833,0,0,0,1.472-1.1,8.3,8.3,0,0,0,.448-2.576v-.032a.554.554,0,0,0-.576-.576H38.5a.53.53,0,0,0-.592.56,7.149,7.149,0,0,1-.288,1.92,1.024,1.024,0,0,1-.688.592,7.867,7.867,0,0,1-1.9.176c-.672,0-1.136-.016-1.488-.048-.624-.064-.752-.24-.752-.72Z" transform="translate(376.5 1630.937)"/>
    <g id="Icon_feather-package" data-name="Icon feather-package" transform="translate(311.516 1496.997)">
      <path id="パス_4366" data-name="パス 4366" d="M39.234,22.453,11.25,6.315" transform="translate(7.242 3.553)" fill="#ffda2b" stroke="#538eb4" stroke-linecap="round" stroke-linejoin="round" stroke-width="3"/>
      <path id="パス_4367" data-name="パス 4367" d="M60.468,46.528V21.653a6.219,6.219,0,0,0-3.109-5.379L35.594,3.836a6.219,6.219,0,0,0-6.219,0L7.609,16.274A6.219,6.219,0,0,0,4.5,21.653V46.528a6.219,6.219,0,0,0,3.109,5.379L29.375,64.344a6.219,6.219,0,0,0,6.219,0L57.359,51.907a6.219,6.219,0,0,0,3.109-5.379Z" transform="translate(0 0)" fill="#ffda2b" stroke="#538eb4" stroke-linecap="round" stroke-linejoin="round" stroke-width="3"/>
      <path id="パス_4368" data-name="パス 4368" d="M4.905,10.44l27.145,15.7,27.145-15.7" transform="translate(0.435 7.979)" fill="#ffda2b" stroke="#538eb4" stroke-linecap="round" stroke-linejoin="round" stroke-width="3"/>
      <path id="パス_4369" data-name="パス 4369" d="M18,49.342V18" transform="translate(14.484 16.09)" fill="#ffda2b" stroke="#538eb4" stroke-linecap="round" stroke-linejoin="round" stroke-width="3"/>
    </g>
    <g id="Icon_feather-package-2" data-name="Icon feather-package" transform="translate(376.516 1496.997)">
      <path id="パス_4366-2" data-name="パス 4366" d="M39.234,22.453,11.25,6.315" transform="translate(7.242 3.553)" fill="#ffda2b" stroke="#538eb4" stroke-linecap="round" stroke-linejoin="round" stroke-width="3"/>
      <path id="パス_4367-2" data-name="パス 4367" d="M60.468,46.528V21.653a6.219,6.219,0,0,0-3.109-5.379L35.594,3.836a6.219,6.219,0,0,0-6.219,0L7.609,16.274A6.219,6.219,0,0,0,4.5,21.653V46.528a6.219,6.219,0,0,0,3.109,5.379L29.375,64.344a6.219,6.219,0,0,0,6.219,0L57.359,51.907a6.219,6.219,0,0,0,3.109-5.379Z" transform="translate(0 0)" fill="#ffda2b" stroke="#538eb4" stroke-linecap="round" stroke-linejoin="round" stroke-width="3"/>
      <path id="パス_4368-2" data-name="パス 4368" d="M4.905,10.44l27.145,15.7,27.145-15.7" transform="translate(0.435 7.979)" fill="#ffda2b" stroke="#538eb4" stroke-linecap="round" stroke-linejoin="round" stroke-width="3"/>
      <path id="パス_4369-2" data-name="パス 4369" d="M18,49.342V18" transform="translate(14.484 16.09)" fill="#ffda2b" stroke="#538eb4" stroke-linecap="round" stroke-linejoin="round" stroke-width="3"/>
    </g>
    <g id="マスクグループ_24" data-name="マスクグループ 24" transform="translate(-6)" clip-path="url(#clip-path)">
      <path id="パス_5575" data-name="パス 5575" d="M76.544-117.76A28.632,28.632,0,0,0,80-117.5h2.432q9.472,0,15.36-5.632t5.888-14.592q0-8.7-5.5-14.08t-14.208-5.376q-9.216,0-14.848,6.144t-5.632,15.872H17.152a83.048,83.048,0,0,1,7.552-26.88,64.385,64.385,0,0,1,14.72-19.84,61.392,61.392,0,0,1,20.992-12.288A79.932,79.932,0,0,1,87.04-198.4a80.234,80.234,0,0,1,25.984,3.968,58.489,58.489,0,0,1,19.968,11.264,49.051,49.051,0,0,1,12.8,17.664,57.832,57.832,0,0,1,4.48,23.168q0,13.824-5.248,22.656a47.128,47.128,0,0,1-14.976,15.232Q144.9-99.84,153.216-87.936t8.32,29.312A59.74,59.74,0,0,1,155.9-32.512,59.564,59.564,0,0,1,140.16-12.288,72.576,72.576,0,0,1,116.1.768,97.064,97.064,0,0,1,85.5,5.376q-22.272,0-40.192-8.7T16.64-30.976a55.275,55.275,0,0,1-6.528-16.9A88.541,88.541,0,0,1,8.448-65.024H58.112q.512,13.568,7.936,20.608t19.968,7.04q13.312,0,19.456-7.168t6.144-17.664q0-12.544-7.424-18.944a26.166,26.166,0,0,0-17.664-6.4,29.573,29.573,0,0,0-4.864.384q-2.3.384-5.12.9Z" transform="translate(381.5 1568)" fill="#fff" opacity="0.249"/>
    </g>
  </g>
</svg>
