<svg xmlns="http://www.w3.org/2000/svg" width="54.222" height="60.382" viewBox="0 0 54.222 60.382">
  <path id="パス_5564" data-name="パス 5564" d="M-14.47-11.22a4.841,4.841,0,0,0-1.28-.77,3.4,3.4,0,0,0-1.24-.25,2.012,2.012,0,0,0-1.24.36,1.122,1.122,0,0,0-.48.94.935.935,0,0,0,.24.66,2.091,2.091,0,0,0,.63.45,5.392,5.392,0,0,0,.88.33q.49.14.97.3a6.048,6.048,0,0,1,2.81,1.71,4.219,4.219,0,0,1,.89,2.79,5.432,5.432,0,0,1-.39,2.1A4.382,4.382,0,0,1-13.82-.99,5.26,5.26,0,0,1-15.66.05a7.663,7.663,0,0,1-2.47.37,9.084,9.084,0,0,1-5.3-1.7l1.68-3.16a6.815,6.815,0,0,0,1.74,1.16,4.182,4.182,0,0,0,1.7.38,2.029,2.029,0,0,0,1.43-.44,1.339,1.339,0,0,0,.47-1,1.351,1.351,0,0,0-.12-.59,1.278,1.278,0,0,0-.4-.46,3.206,3.206,0,0,0-.73-.39q-.45-.18-1.09-.4-.76-.24-1.49-.53a4.688,4.688,0,0,1-1.3-.77,3.578,3.578,0,0,1-.92-1.21,4.279,4.279,0,0,1-.35-1.85,5.344,5.344,0,0,1,.37-2.03,4.511,4.511,0,0,1,1.04-1.56,4.636,4.636,0,0,1,1.64-1.01,6.2,6.2,0,0,1,2.17-.36,9.5,9.5,0,0,1,2.34.31,10.321,10.321,0,0,1,2.34.91Zm10.46-.54V0H-7.93V-11.76h-3.22v-3.32H-.79v3.32Zm13.54,0H4.87v2.52h4.4v3.32H4.87v2.6H9.53V0H.95V-15.08H9.53Zm6.74,3.6h1.3q2.16,0,2.16-1.88t-2.16-1.88h-1.3Zm0,8.16H12.35V-15.08h6.24a5.338,5.338,0,0,1,3.89,1.32,4.965,4.965,0,0,1,1.35,3.72,4.965,4.965,0,0,1-1.35,3.72A5.338,5.338,0,0,1,18.59-5H16.27ZM-19.572,28.124a17.859,17.859,0,0,0,.378,3.822,11.117,11.117,0,0,0,1.071,2.982,5.767,5.767,0,0,0,1.659,1.953,3.655,3.655,0,0,0,2.184.693,3.684,3.684,0,0,0,2.163-.693,5.473,5.473,0,0,0,1.659-1.953,11.623,11.623,0,0,0,1.05-2.982,17.859,17.859,0,0,0,.378-3.822,17.938,17.938,0,0,0-.378-3.8,11.253,11.253,0,0,0-1.05-2.982,5.518,5.518,0,0,0-1.659-1.932,3.684,3.684,0,0,0-2.163-.693,3.655,3.655,0,0,0-2.184.693,5.819,5.819,0,0,0-1.659,1.932,10.775,10.775,0,0,0-1.071,2.982A17.938,17.938,0,0,0-19.572,28.124Zm-8.148,0a22.475,22.475,0,0,1,.987-6.867,15.862,15.862,0,0,1,2.772-5.271A12.5,12.5,0,0,1-19.719,12.6a12.252,12.252,0,0,1,5.439-1.2,12.291,12.291,0,0,1,5.418,1.2A12.243,12.243,0,0,1-4.62,15.986a16.089,16.089,0,0,1,2.751,5.271,22.475,22.475,0,0,1,.987,6.867,22.475,22.475,0,0,1-.987,6.867A16.342,16.342,0,0,1-4.62,40.283a12.143,12.143,0,0,1-4.242,3.4,12.291,12.291,0,0,1-5.418,1.2,12.252,12.252,0,0,1-5.439-1.2,12.4,12.4,0,0,1-4.242-3.4,16.109,16.109,0,0,1-2.772-5.292A22.475,22.475,0,0,1-27.72,28.124ZM12.558,24.68a4.7,4.7,0,0,0,.567.042h.4a3.494,3.494,0,0,0,2.52-.924A3.164,3.164,0,0,0,17.01,21.4a3.084,3.084,0,0,0-.9-2.31,3.2,3.2,0,0,0-2.331-.882A3.148,3.148,0,0,0,11.34,19.22a3.7,3.7,0,0,0-.924,2.6h-7.6a13.625,13.625,0,0,1,1.239-4.41,10.563,10.563,0,0,1,2.415-3.255,10.072,10.072,0,0,1,3.444-2.016,13.114,13.114,0,0,1,4.368-.693,13.163,13.163,0,0,1,4.263.651,9.6,9.6,0,0,1,3.276,1.848,8.047,8.047,0,0,1,2.1,2.9,9.488,9.488,0,0,1,.735,3.8,7.2,7.2,0,0,1-.861,3.717,7.732,7.732,0,0,1-2.457,2.5,7.021,7.021,0,0,1,3.8,2.709A8.187,8.187,0,0,1,26.5,34.382,9.643,9.643,0,0,1,23,41.984a11.907,11.907,0,0,1-3.948,2.142,15.925,15.925,0,0,1-5.019.756,14.9,14.9,0,0,1-6.594-1.428,10.788,10.788,0,0,1-4.7-4.536,9.069,9.069,0,0,1-1.071-2.772,14.526,14.526,0,0,1-.273-2.814H9.534a4.7,4.7,0,0,0,1.3,3.381,4.565,4.565,0,0,0,3.276,1.155A3.984,3.984,0,0,0,17.3,36.692a4.3,4.3,0,0,0,1.008-2.9,3.879,3.879,0,0,0-1.218-3.108,4.293,4.293,0,0,0-2.9-1.05,4.852,4.852,0,0,0-.8.063q-.378.063-.84.147Z" transform="translate(27.72 15.5)" fill="#fff"/>
</svg>
