<svg xmlns="http://www.w3.org/2000/svg" width="49.21" height="60.34" viewBox="0 0 49.21 60.34">
  <path id="パス_5563" data-name="パス 5563" d="M-14.47-11.22a4.841,4.841,0,0,0-1.28-.77,3.4,3.4,0,0,0-1.24-.25,2.012,2.012,0,0,0-1.24.36,1.122,1.122,0,0,0-.48.94.935.935,0,0,0,.24.66,2.091,2.091,0,0,0,.63.45,5.392,5.392,0,0,0,.88.33q.49.14.97.3a6.048,6.048,0,0,1,2.81,1.71,4.219,4.219,0,0,1,.89,2.79,5.432,5.432,0,0,1-.39,2.1A4.382,4.382,0,0,1-13.82-.99,5.26,5.26,0,0,1-15.66.05a7.663,7.663,0,0,1-2.47.37,9.084,9.084,0,0,1-5.3-1.7l1.68-3.16a6.815,6.815,0,0,0,1.74,1.16,4.182,4.182,0,0,0,1.7.38,2.029,2.029,0,0,0,1.43-.44,1.339,1.339,0,0,0,.47-1,1.351,1.351,0,0,0-.12-.59,1.278,1.278,0,0,0-.4-.46,3.206,3.206,0,0,0-.73-.39q-.45-.18-1.09-.4-.76-.24-1.49-.53a4.688,4.688,0,0,1-1.3-.77,3.578,3.578,0,0,1-.92-1.21,4.279,4.279,0,0,1-.35-1.85,5.344,5.344,0,0,1,.37-2.03,4.511,4.511,0,0,1,1.04-1.56,4.636,4.636,0,0,1,1.64-1.01,6.2,6.2,0,0,1,2.17-.36,9.5,9.5,0,0,1,2.34.31,10.321,10.321,0,0,1,2.34.91Zm10.46-.54V0H-7.93V-11.76h-3.22v-3.32H-.79v3.32Zm13.54,0H4.87v2.52h4.4v3.32H4.87v2.6H9.53V0H.95V-15.08H9.53Zm6.74,3.6h1.3q2.16,0,2.16-1.88t-2.16-1.88h-1.3Zm0,8.16H12.35V-15.08h6.24a5.338,5.338,0,0,1,3.89,1.32,4.965,4.965,0,0,1,1.35,3.72,4.965,4.965,0,0,1-1.35,3.72A5.338,5.338,0,0,1,18.59-5H16.27ZM-17.62,28.88a17.009,17.009,0,0,0,.36,3.64,10.588,10.588,0,0,0,1.02,2.84,5.492,5.492,0,0,0,1.58,1.86,3.481,3.481,0,0,0,2.08.66,3.509,3.509,0,0,0,2.06-.66,5.212,5.212,0,0,0,1.58-1.86,11.069,11.069,0,0,0,1-2.84,17.009,17.009,0,0,0,.36-3.64,17.084,17.084,0,0,0-.36-3.62,10.718,10.718,0,0,0-1-2.84,5.255,5.255,0,0,0-1.58-1.84,3.508,3.508,0,0,0-2.06-.66,3.481,3.481,0,0,0-2.08.66,5.542,5.542,0,0,0-1.58,1.84,10.262,10.262,0,0,0-1.02,2.84A17.084,17.084,0,0,0-17.62,28.88Zm-7.76,0a21.4,21.4,0,0,1,.94-6.54,15.107,15.107,0,0,1,2.64-5.02,11.909,11.909,0,0,1,4.04-3.22,11.668,11.668,0,0,1,5.18-1.14A11.705,11.705,0,0,1-7.42,14.1a11.66,11.66,0,0,1,4.04,3.22A15.323,15.323,0,0,1-.76,22.34a21.4,21.4,0,0,1,.94,6.54,21.4,21.4,0,0,1-.94,6.54,15.564,15.564,0,0,1-2.62,5.04A11.565,11.565,0,0,1-7.42,43.7a11.705,11.705,0,0,1-5.16,1.14,11.668,11.668,0,0,1-5.18-1.14,11.81,11.81,0,0,1-4.04-3.24,15.342,15.342,0,0,1-2.64-5.04A21.4,21.4,0,0,1-25.38,28.88Zm34.96-8.4H5.18V13.84H17.42V44H9.58Z" transform="translate(25.38 15.5)" fill="#fff"/>
</svg>
