<svg xmlns="http://www.w3.org/2000/svg" width="54.39" height="60.382" viewBox="0 0 54.39 60.382">
  <path id="パス_5565" data-name="パス 5565" d="M-14.47-11.22a4.841,4.841,0,0,0-1.28-.77,3.4,3.4,0,0,0-1.24-.25,2.012,2.012,0,0,0-1.24.36,1.122,1.122,0,0,0-.48.94.935.935,0,0,0,.24.66,2.091,2.091,0,0,0,.63.45,5.392,5.392,0,0,0,.88.33q.49.14.97.3a6.048,6.048,0,0,1,2.81,1.71,4.219,4.219,0,0,1,.89,2.79,5.432,5.432,0,0,1-.39,2.1A4.382,4.382,0,0,1-13.82-.99,5.26,5.26,0,0,1-15.66.05a7.663,7.663,0,0,1-2.47.37,9.084,9.084,0,0,1-5.3-1.7l1.68-3.16a6.815,6.815,0,0,0,1.74,1.16,4.182,4.182,0,0,0,1.7.38,2.029,2.029,0,0,0,1.43-.44,1.339,1.339,0,0,0,.47-1,1.351,1.351,0,0,0-.12-.59,1.278,1.278,0,0,0-.4-.46,3.206,3.206,0,0,0-.73-.39q-.45-.18-1.09-.4-.76-.24-1.49-.53a4.688,4.688,0,0,1-1.3-.77,3.578,3.578,0,0,1-.92-1.21,4.279,4.279,0,0,1-.35-1.85,5.344,5.344,0,0,1,.37-2.03,4.511,4.511,0,0,1,1.04-1.56,4.636,4.636,0,0,1,1.64-1.01,6.2,6.2,0,0,1,2.17-.36,9.5,9.5,0,0,1,2.34.31,10.321,10.321,0,0,1,2.34.91Zm10.46-.54V0H-7.93V-11.76h-3.22v-3.32H-.79v3.32Zm13.54,0H4.87v2.52h4.4v3.32H4.87v2.6H9.53V0H.95V-15.08H9.53Zm6.74,3.6h1.3q2.16,0,2.16-1.88t-2.16-1.88h-1.3Zm0,8.16H12.35V-15.08h6.24a5.338,5.338,0,0,1,3.89,1.32,4.965,4.965,0,0,1,1.35,3.72,4.965,4.965,0,0,1-1.35,3.72A5.338,5.338,0,0,1,18.59-5H16.27ZM-19.572,28.124a17.859,17.859,0,0,0,.378,3.822,11.117,11.117,0,0,0,1.071,2.982,5.767,5.767,0,0,0,1.659,1.953,3.655,3.655,0,0,0,2.184.693,3.684,3.684,0,0,0,2.163-.693,5.473,5.473,0,0,0,1.659-1.953,11.623,11.623,0,0,0,1.05-2.982,17.859,17.859,0,0,0,.378-3.822,17.938,17.938,0,0,0-.378-3.8,11.253,11.253,0,0,0-1.05-2.982,5.518,5.518,0,0,0-1.659-1.932,3.684,3.684,0,0,0-2.163-.693,3.655,3.655,0,0,0-2.184.693,5.819,5.819,0,0,0-1.659,1.932,10.775,10.775,0,0,0-1.071,2.982A17.938,17.938,0,0,0-19.572,28.124Zm-8.148,0a22.475,22.475,0,0,1,.987-6.867,15.862,15.862,0,0,1,2.772-5.271A12.5,12.5,0,0,1-19.719,12.6a12.252,12.252,0,0,1,5.439-1.2,12.291,12.291,0,0,1,5.418,1.2A12.243,12.243,0,0,1-4.62,15.986a16.089,16.089,0,0,1,2.751,5.271,22.475,22.475,0,0,1,.987,6.867,22.475,22.475,0,0,1-.987,6.867A16.342,16.342,0,0,1-4.62,40.283a12.143,12.143,0,0,1-4.242,3.4,12.291,12.291,0,0,1-5.418,1.2,12.252,12.252,0,0,1-5.439-1.2,12.4,12.4,0,0,1-4.242-3.4,16.109,16.109,0,0,1-2.772-5.292A22.475,22.475,0,0,1-27.72,28.124ZM26.67,44H1.176L9.03,35.852q3.108-3.234,4.872-5.481a30.176,30.176,0,0,0,2.625-3.8A9.989,9.989,0,0,0,17.6,24.05a7.926,7.926,0,0,0,.21-1.638,4.234,4.234,0,0,0-.231-1.386,3.531,3.531,0,0,0-.693-1.2,3.362,3.362,0,0,0-2.646-1.155,3.287,3.287,0,0,0-2.625,1.092,4.023,4.023,0,0,0-.945,2.73,10.307,10.307,0,0,0,.126,1.344H1.806a13.515,13.515,0,0,1,.9-5.04A11.431,11.431,0,0,1,5.25,14.894a11.222,11.222,0,0,1,3.885-2.52,13.394,13.394,0,0,1,4.935-.882,13.866,13.866,0,0,1,4.893.84,11.691,11.691,0,0,1,3.885,2.352,10.8,10.8,0,0,1,2.562,3.591,10.99,10.99,0,0,1,.924,4.515A10.519,10.519,0,0,1,25.221,27.6a16.928,16.928,0,0,1-3.549,4.515l-5.25,4.914H26.67Z" transform="translate(27.72 15.5)" fill="#fff"/>
</svg>
