<svg xmlns="http://www.w3.org/2000/svg" width="12.875" height="12.508" viewBox="0 0 12.875 12.508">
  <path id="パス_5441" data-name="パス 5441" d="M13.719.219H11.43L10.484-.75A6.084,6.084,0,0,1,7.125.219,6.285,6.285,0,0,1,2.867-1.406,5.828,5.828,0,0,1,.844-5.977a6.016,6.016,0,0,1,1.914-4.547,6.164,6.164,0,0,1,4.391-1.766,6.188,6.188,0,0,1,4.117,1.547,6.064,6.064,0,0,1,2.188,4.852,5.881,5.881,0,0,1-1.727,4.164ZM8.711-4.773l1.75,1.742a4.129,4.129,0,0,0,1.156-2.977,4.465,4.465,0,0,0-1.289-3.258,4.309,4.309,0,0,0-3.2-1.312A4.21,4.21,0,0,0,3.938-9.266a4.568,4.568,0,0,0-1.258,3.3,4.229,4.229,0,0,0,1.3,3.2A4.362,4.362,0,0,0,7.063-1.484,4.256,4.256,0,0,0,9.2-2.023L6.359-4.773Z" transform="translate(-0.844 12.289)"/>
</svg>
