<svg xmlns="http://www.w3.org/2000/svg" width="85.696" height="20.696" viewBox="0 0 85.696 20.696">
  <path id="パス_6970" data-name="パス 6970" d="M-31.252-14.586a6.293,6.293,0,0,0-1.664-1,4.419,4.419,0,0,0-1.612-.325,2.616,2.616,0,0,0-1.612.468,1.458,1.458,0,0,0-.624,1.222,1.216,1.216,0,0,0,.312.858,2.719,2.719,0,0,0,.819.585,7.01,7.01,0,0,0,1.144.429q.637.182,1.261.39a7.863,7.863,0,0,1,3.653,2.223A5.484,5.484,0,0,1-28.418-6.11a7.061,7.061,0,0,1-.507,2.73,5.7,5.7,0,0,1-1.482,2.093A6.838,6.838,0,0,1-32.8.065,9.962,9.962,0,0,1-36.01.546a11.809,11.809,0,0,1-6.89-2.21l2.184-4.108a8.859,8.859,0,0,0,2.262,1.508,5.437,5.437,0,0,0,2.21.494,2.638,2.638,0,0,0,1.859-.572,1.741,1.741,0,0,0,.611-1.3,1.756,1.756,0,0,0-.156-.767,1.661,1.661,0,0,0-.52-.6,4.167,4.167,0,0,0-.949-.507q-.585-.234-1.417-.52-.988-.312-1.937-.689a6.1,6.1,0,0,1-1.69-1,4.652,4.652,0,0,1-1.2-1.573,5.563,5.563,0,0,1-.455-2.405,6.948,6.948,0,0,1,.481-2.639,5.865,5.865,0,0,1,1.352-2.028,6.026,6.026,0,0,1,2.132-1.313,8.059,8.059,0,0,1,2.821-.468,12.348,12.348,0,0,1,3.042.4,13.417,13.417,0,0,1,3.042,1.183Zm13.6-.7V0h-5.1V-15.288h-4.186V-19.6h13.468v4.316Zm17.6,0H-6.11v3.276H-.39V-7.7H-6.11v3.38H-.052V0H-11.206V-19.6H-.052Zm8.762,4.68H10.4q2.808,0,2.808-2.444T10.4-15.5H8.71ZM8.71,0h-5.1V-19.6h8.112a6.939,6.939,0,0,1,5.057,1.716,6.455,6.455,0,0,1,1.755,4.836,6.455,6.455,0,0,1-1.755,4.836A6.939,6.939,0,0,1,11.726-6.5H8.71ZM18.928-2.5a3.033,3.033,0,0,1,.234-1.183,3,3,0,0,1,.65-.975,3,3,0,0,1,.975-.65,3.033,3.033,0,0,1,1.183-.234,3.033,3.033,0,0,1,1.183.234,3,3,0,0,1,.975.65,3,3,0,0,1,.65.975A3.033,3.033,0,0,1,25.012-2.5a3.033,3.033,0,0,1-.234,1.183,3,3,0,0,1-.65.975,3,3,0,0,1-.975.65A3.033,3.033,0,0,1,21.97.546,3.033,3.033,0,0,1,20.787.312a3,3,0,0,1-.975-.65,3,3,0,0,1-.65-.975A3.033,3.033,0,0,1,18.928-2.5ZM34.164-11.96a2.908,2.908,0,0,0,.351.026h.247a2.163,2.163,0,0,0,1.56-.572,1.959,1.959,0,0,0,.6-1.482,1.909,1.909,0,0,0-.559-1.43,1.978,1.978,0,0,0-1.443-.546,1.949,1.949,0,0,0-1.508.624,2.292,2.292,0,0,0-.572,1.612H28.132a8.435,8.435,0,0,1,.767-2.73,6.539,6.539,0,0,1,1.495-2.015,6.235,6.235,0,0,1,2.132-1.248,8.118,8.118,0,0,1,2.7-.429,8.149,8.149,0,0,1,2.639.4A5.94,5.94,0,0,1,39.9-18.6a4.982,4.982,0,0,1,1.3,1.794,5.874,5.874,0,0,1,.455,2.353,4.455,4.455,0,0,1-.533,2.3A4.786,4.786,0,0,1,39.6-10.608a4.346,4.346,0,0,1,2.353,1.677A5.068,5.068,0,0,1,42.8-5.954,6.067,6.067,0,0,1,42.224-3.3a6.049,6.049,0,0,1-1.6,2.054A7.371,7.371,0,0,1,38.181.078a9.858,9.858,0,0,1-3.107.468,9.221,9.221,0,0,1-4.082-.884A6.678,6.678,0,0,1,28.08-3.146a5.614,5.614,0,0,1-.663-1.716A8.992,8.992,0,0,1,27.248-6.6h5.044A2.91,2.91,0,0,0,33.1-4.511a2.826,2.826,0,0,0,2.028.715A2.466,2.466,0,0,0,37.1-4.524a2.661,2.661,0,0,0,.624-1.794,2.4,2.4,0,0,0-.754-1.924,2.657,2.657,0,0,0-1.794-.65,3,3,0,0,0-.494.039q-.234.039-.52.091Z" transform="translate(42.9 20.15)"/>
</svg>
