<svg xmlns="http://www.w3.org/2000/svg" width="85.8" height="20.696" viewBox="0 0 85.8 20.696">
  <path id="パス_6969" data-name="パス 6969" d="M-31.252-14.586a6.293,6.293,0,0,0-1.664-1,4.419,4.419,0,0,0-1.612-.325,2.616,2.616,0,0,0-1.612.468,1.458,1.458,0,0,0-.624,1.222,1.216,1.216,0,0,0,.312.858,2.719,2.719,0,0,0,.819.585,7.01,7.01,0,0,0,1.144.429q.637.182,1.261.39a7.863,7.863,0,0,1,3.653,2.223A5.484,5.484,0,0,1-28.418-6.11a7.061,7.061,0,0,1-.507,2.73,5.7,5.7,0,0,1-1.482,2.093A6.838,6.838,0,0,1-32.8.065,9.962,9.962,0,0,1-36.01.546a11.809,11.809,0,0,1-6.89-2.21l2.184-4.108a8.859,8.859,0,0,0,2.262,1.508,5.437,5.437,0,0,0,2.21.494,2.638,2.638,0,0,0,1.859-.572,1.741,1.741,0,0,0,.611-1.3,1.756,1.756,0,0,0-.156-.767,1.661,1.661,0,0,0-.52-.6,4.167,4.167,0,0,0-.949-.507q-.585-.234-1.417-.52-.988-.312-1.937-.689a6.1,6.1,0,0,1-1.69-1,4.652,4.652,0,0,1-1.2-1.573,5.563,5.563,0,0,1-.455-2.405,6.948,6.948,0,0,1,.481-2.639,5.865,5.865,0,0,1,1.352-2.028,6.026,6.026,0,0,1,2.132-1.313,8.059,8.059,0,0,1,2.821-.468,12.348,12.348,0,0,1,3.042.4,13.417,13.417,0,0,1,3.042,1.183Zm13.6-.7V0h-5.1V-15.288h-4.186V-19.6h13.468v4.316Zm17.6,0H-6.11v3.276H-.39V-7.7H-6.11v3.38H-.052V0H-11.206V-19.6H-.052Zm8.762,4.68H10.4q2.808,0,2.808-2.444T10.4-15.5H8.71ZM8.71,0h-5.1V-19.6h8.112a6.939,6.939,0,0,1,5.057,1.716,6.455,6.455,0,0,1,1.755,4.836,6.455,6.455,0,0,1-1.755,4.836A6.939,6.939,0,0,1,11.726-6.5H8.71ZM18.928-2.5a3.033,3.033,0,0,1,.234-1.183,3,3,0,0,1,.65-.975,3,3,0,0,1,.975-.65,3.033,3.033,0,0,1,1.183-.234,3.033,3.033,0,0,1,1.183.234,3,3,0,0,1,.975.65,3,3,0,0,1,.65.975A3.033,3.033,0,0,1,25.012-2.5a3.033,3.033,0,0,1-.234,1.183,3,3,0,0,1-.65.975,3,3,0,0,1-.975.65A3.033,3.033,0,0,1,21.97.546,3.033,3.033,0,0,1,20.787.312a3,3,0,0,1-.975-.65,3,3,0,0,1-.65-.975A3.033,3.033,0,0,1,18.928-2.5ZM42.9,0H27.118L31.98-5.044Q33.9-7.046,35-8.437a18.68,18.68,0,0,0,1.625-2.353,6.183,6.183,0,0,0,.663-1.56,4.907,4.907,0,0,0,.13-1.014,2.621,2.621,0,0,0-.143-.858,2.186,2.186,0,0,0-.429-.741,2.16,2.16,0,0,0-.689-.52,2.157,2.157,0,0,0-.949-.195A2.035,2.035,0,0,0,33.579-15a2.491,2.491,0,0,0-.585,1.69,6.381,6.381,0,0,0,.078.832H27.508a8.366,8.366,0,0,1,.559-3.12,7.076,7.076,0,0,1,1.573-2.418,6.947,6.947,0,0,1,2.4-1.56,8.291,8.291,0,0,1,3.055-.546,8.584,8.584,0,0,1,3.029.52,7.237,7.237,0,0,1,2.405,1.456,6.685,6.685,0,0,1,1.586,2.223,6.8,6.8,0,0,1,.572,2.8A6.512,6.512,0,0,1,42-10.153a10.48,10.48,0,0,1-2.2,2.8l-3.25,3.042H42.9Z" transform="translate(42.9 20.15)"/>
</svg>
