<svg xmlns="http://www.w3.org/2000/svg" width="85.28" height="20.696" viewBox="0 0 85.28 20.696">
  <path id="パス_6972" data-name="パス 6972" d="M-31.252-14.586a6.293,6.293,0,0,0-1.664-1,4.419,4.419,0,0,0-1.612-.325,2.616,2.616,0,0,0-1.612.468,1.458,1.458,0,0,0-.624,1.222,1.216,1.216,0,0,0,.312.858,2.719,2.719,0,0,0,.819.585,7.01,7.01,0,0,0,1.144.429q.637.182,1.261.39a7.863,7.863,0,0,1,3.653,2.223A5.484,5.484,0,0,1-28.418-6.11a7.061,7.061,0,0,1-.507,2.73,5.7,5.7,0,0,1-1.482,2.093A6.838,6.838,0,0,1-32.8.065,9.962,9.962,0,0,1-36.01.546a11.809,11.809,0,0,1-6.89-2.21l2.184-4.108a8.859,8.859,0,0,0,2.262,1.508,5.437,5.437,0,0,0,2.21.494,2.638,2.638,0,0,0,1.859-.572,1.741,1.741,0,0,0,.611-1.3,1.756,1.756,0,0,0-.156-.767,1.661,1.661,0,0,0-.52-.6,4.167,4.167,0,0,0-.949-.507q-.585-.234-1.417-.52-.988-.312-1.937-.689a6.1,6.1,0,0,1-1.69-1,4.652,4.652,0,0,1-1.2-1.573,5.563,5.563,0,0,1-.455-2.405,6.948,6.948,0,0,1,.481-2.639,5.865,5.865,0,0,1,1.352-2.028,6.026,6.026,0,0,1,2.132-1.313,8.059,8.059,0,0,1,2.821-.468,12.348,12.348,0,0,1,3.042.4,13.417,13.417,0,0,1,3.042,1.183Zm13.6-.7V0h-5.1V-15.288h-4.186V-19.6h13.468v4.316Zm17.6,0H-6.11v3.276H-.39V-7.7H-6.11v3.38H-.052V0H-11.206V-19.6H-.052Zm8.762,4.68H10.4q2.808,0,2.808-2.444T10.4-15.5H8.71ZM8.71,0h-5.1V-19.6h8.112a6.939,6.939,0,0,1,5.057,1.716,6.455,6.455,0,0,1,1.755,4.836,6.455,6.455,0,0,1-1.755,4.836A6.939,6.939,0,0,1,11.726-6.5H8.71ZM18.928-2.5a3.033,3.033,0,0,1,.234-1.183,3,3,0,0,1,.65-.975,3,3,0,0,1,.975-.65,3.033,3.033,0,0,1,1.183-.234,3.033,3.033,0,0,1,1.183.234,3,3,0,0,1,.975.65,3,3,0,0,1,.65.975A3.033,3.033,0,0,1,25.012-2.5a3.033,3.033,0,0,1-.234,1.183,3,3,0,0,1-.65.975,3,3,0,0,1-.975.65A3.033,3.033,0,0,1,21.97.546,3.033,3.033,0,0,1,20.787.312a3,3,0,0,1-.975-.65,3,3,0,0,1-.65-.975A3.033,3.033,0,0,1,18.928-2.5ZM40.95-15.288H34.164l-.338,2.158q.468-.052.858-.091t.806-.039a7.223,7.223,0,0,1,2.756.52,6.546,6.546,0,0,1,2.184,1.43,6.546,6.546,0,0,1,1.43,2.184,7.293,7.293,0,0,1,.52,2.782,6.776,6.776,0,0,1-.585,2.86,6.163,6.163,0,0,1-1.651,2.171,7.442,7.442,0,0,1-2.6,1.378,11.349,11.349,0,0,1-3.406.481A12.941,12.941,0,0,1,30.771.117a10.912,10.912,0,0,1-3-1.313l.754-4.784a10.465,10.465,0,0,0,2.652,1.7,6.485,6.485,0,0,0,2.574.585,3.487,3.487,0,0,0,2.47-.845,2.741,2.741,0,0,0,.91-2.093,2.786,2.786,0,0,0-1.222-2.353,5.275,5.275,0,0,0-3.2-.9,8.914,8.914,0,0,0-1.82.195,8.7,8.7,0,0,0-1.846.611L30.68-19.6H40.95Z" transform="translate(42.9 20.15)"/>
</svg>
