<svg xmlns="http://www.w3.org/2000/svg" width="79.482" height="20.696" viewBox="0 0 79.482 20.696">
  <path id="パス_6969" data-name="パス 6969" d="M-30.355-14.586a6.293,6.293,0,0,0-1.664-1,4.419,4.419,0,0,0-1.612-.325,2.616,2.616,0,0,0-1.612.468,1.458,1.458,0,0,0-.624,1.222,1.216,1.216,0,0,0,.312.858,2.719,2.719,0,0,0,.819.585,7.01,7.01,0,0,0,1.144.429q.637.182,1.261.39a7.863,7.863,0,0,1,3.653,2.223A5.484,5.484,0,0,1-27.521-6.11a7.061,7.061,0,0,1-.507,2.73A5.7,5.7,0,0,1-29.51-1.287,6.838,6.838,0,0,1-31.9.065a9.962,9.962,0,0,1-3.211.481A11.809,11.809,0,0,1-42-1.664l2.184-4.108a8.859,8.859,0,0,0,2.262,1.508,5.437,5.437,0,0,0,2.21.494,2.638,2.638,0,0,0,1.859-.572,1.741,1.741,0,0,0,.611-1.3,1.756,1.756,0,0,0-.156-.767,1.661,1.661,0,0,0-.52-.6,4.167,4.167,0,0,0-.949-.507q-.585-.234-1.417-.52-.988-.312-1.937-.689a6.1,6.1,0,0,1-1.69-1,4.652,4.652,0,0,1-1.2-1.573A5.563,5.563,0,0,1-41.2-13.7a6.948,6.948,0,0,1,.481-2.639,5.865,5.865,0,0,1,1.352-2.028,6.026,6.026,0,0,1,2.132-1.313,8.059,8.059,0,0,1,2.821-.468,12.348,12.348,0,0,1,3.042.4,13.417,13.417,0,0,1,3.042,1.183Zm13.6-.7V0h-5.1V-15.288h-4.186V-19.6h13.468v4.316Zm17.6,0H-5.213v3.276H.507V-7.7h-5.72v3.38H.845V0H-10.309V-19.6H.845Zm8.762,4.68H11.3q2.808,0,2.808-2.444T11.3-15.5H9.607ZM9.607,0h-5.1V-19.6h8.112a6.939,6.939,0,0,1,5.057,1.716,6.455,6.455,0,0,1,1.755,4.836A6.455,6.455,0,0,1,17.68-8.216,6.939,6.939,0,0,1,12.623-6.5H9.607ZM19.825-2.5a3.033,3.033,0,0,1,.234-1.183,3,3,0,0,1,.65-.975,3,3,0,0,1,.975-.65,3.033,3.033,0,0,1,1.183-.234A3.033,3.033,0,0,1,24.05-5.3a3,3,0,0,1,.975.65,3,3,0,0,1,.65.975A3.033,3.033,0,0,1,25.909-2.5a3.033,3.033,0,0,1-.234,1.183,3,3,0,0,1-.65.975,3,3,0,0,1-.975.65,3.033,3.033,0,0,1-1.183.234A3.033,3.033,0,0,1,21.684.312a3,3,0,0,1-.975-.65,3,3,0,0,1-.65-.975A3.033,3.033,0,0,1,19.825-2.5ZM32.383-15.288h-2.86V-19.6h7.956V0h-5.1Z" transform="translate(42.003 20.15)"/>
</svg>
