<svg xmlns="http://www.w3.org/2000/svg" width="128.19" height="23.88" viewBox="0 0 128.19 23.88">
  <path id="パス_6809" data-name="パス 6809" d="M8.25-12.24H10.2q3.24,0,3.24-2.82T10.2-17.88H8.25ZM8.25,0H2.37V-22.62h9.36a8.007,8.007,0,0,1,5.835,1.98,7.448,7.448,0,0,1,2.025,5.58,7.448,7.448,0,0,1-2.025,5.58A8.007,8.007,0,0,1,11.73-7.5H8.25ZM27.84-11.31a6.028,6.028,0,0,0,.51,2.49,6.3,6.3,0,0,0,1.38,1.98,6.238,6.238,0,0,0,2.025,1.305A6.485,6.485,0,0,0,34.2-5.07a6.485,6.485,0,0,0,2.445-.465,6.413,6.413,0,0,0,2.04-1.305,6.179,6.179,0,0,0,1.4-1.98,6.027,6.027,0,0,0,.51-2.49,6.027,6.027,0,0,0-.51-2.49,6.179,6.179,0,0,0-1.4-1.98,6.413,6.413,0,0,0-2.04-1.305A6.485,6.485,0,0,0,34.2-17.55a6.485,6.485,0,0,0-2.445.465A6.238,6.238,0,0,0,29.73-15.78a6.3,6.3,0,0,0-1.38,1.98A6.028,6.028,0,0,0,27.84-11.31Zm-6.15,0a11.815,11.815,0,0,1,.93-4.7,11.716,11.716,0,0,1,2.58-3.8,11.789,11.789,0,0,1,3.945-2.535A13.533,13.533,0,0,1,34.2-23.25a13.566,13.566,0,0,1,5.04.915A11.921,11.921,0,0,1,43.215-19.8a11.6,11.6,0,0,1,2.595,3.8,11.815,11.815,0,0,1,.93,4.7,11.815,11.815,0,0,1-.93,4.7,11.6,11.6,0,0,1-2.595,3.8A11.921,11.921,0,0,1,39.24-.285,13.566,13.566,0,0,1,34.2.63a13.533,13.533,0,0,1-5.055-.915A11.789,11.789,0,0,1,25.2-2.82a11.716,11.716,0,0,1-2.58-3.8A11.815,11.815,0,0,1,21.69-11.31ZM56.34-22.62V0H50.46V-22.62ZM61.08,0V-22.62h5.88L77.82-8.79V-22.62h5.85V0H77.82L66.96-13.83V0ZM96.99-17.64V0H91.11V-17.64H86.28v-4.98h15.54v4.98Zm6.03,14.76a3.5,3.5,0,0,1,.27-1.365,3.466,3.466,0,0,1,.75-1.125,3.466,3.466,0,0,1,1.125-.75,3.5,3.5,0,0,1,1.365-.27,3.5,3.5,0,0,1,1.365.27,3.466,3.466,0,0,1,1.125.75,3.466,3.466,0,0,1,.75,1.125,3.5,3.5,0,0,1,.27,1.365,3.5,3.5,0,0,1-.27,1.365,3.466,3.466,0,0,1-.75,1.125A3.466,3.466,0,0,1,107.9.36a3.5,3.5,0,0,1-1.365.27,3.5,3.5,0,0,1-1.365-.27,3.466,3.466,0,0,1-1.125-.75,3.466,3.466,0,0,1-.75-1.125A3.5,3.5,0,0,1,103.02-2.88ZM120.6-13.8a3.355,3.355,0,0,0,.4.03h.285a2.5,2.5,0,0,0,1.8-.66,2.26,2.26,0,0,0,.69-1.71,2.2,2.2,0,0,0-.645-1.65,2.282,2.282,0,0,0-1.665-.63,2.248,2.248,0,0,0-1.74.72,2.645,2.645,0,0,0-.66,1.86h-5.43a9.732,9.732,0,0,1,.885-3.15,7.545,7.545,0,0,1,1.725-2.325,7.194,7.194,0,0,1,2.46-1.44,9.367,9.367,0,0,1,3.12-.5,9.4,9.4,0,0,1,3.045.465,6.854,6.854,0,0,1,2.34,1.32,5.748,5.748,0,0,1,1.5,2.07,6.777,6.777,0,0,1,.525,2.715,5.14,5.14,0,0,1-.615,2.655,5.523,5.523,0,0,1-1.755,1.785,5.015,5.015,0,0,1,2.715,1.935,5.848,5.848,0,0,1,.975,3.435,7,7,0,0,1-.66,3.06,6.98,6.98,0,0,1-1.845,2.37,8.5,8.5,0,0,1-2.82,1.53,11.375,11.375,0,0,1-3.585.54,10.64,10.64,0,0,1-4.71-1.02,7.706,7.706,0,0,1-3.36-3.24,6.478,6.478,0,0,1-.765-1.98,10.376,10.376,0,0,1-.195-2.01h5.82a3.357,3.357,0,0,0,.93,2.415,3.261,3.261,0,0,0,2.34.825,2.846,2.846,0,0,0,2.28-.84,3.07,3.07,0,0,0,.72-2.07,2.771,2.771,0,0,0-.87-2.22,3.066,3.066,0,0,0-2.07-.75,3.466,3.466,0,0,0-.57.045q-.27.045-.6.1Z" transform="translate(-2.37 23.25)" fill="#538eb4"/>
</svg>
