<svg xmlns="http://www.w3.org/2000/svg" width="121.02" height="23.88" viewBox="0 0 121.02 23.88">
  <path id="パス_6807" data-name="パス 6807" d="M8.25-12.24H10.2q3.24,0,3.24-2.82T10.2-17.88H8.25ZM8.25,0H2.37V-22.62h9.36a8.007,8.007,0,0,1,5.835,1.98,7.448,7.448,0,0,1,2.025,5.58,7.448,7.448,0,0,1-2.025,5.58A8.007,8.007,0,0,1,11.73-7.5H8.25ZM27.84-11.31a6.028,6.028,0,0,0,.51,2.49,6.3,6.3,0,0,0,1.38,1.98,6.238,6.238,0,0,0,2.025,1.305A6.485,6.485,0,0,0,34.2-5.07a6.485,6.485,0,0,0,2.445-.465,6.413,6.413,0,0,0,2.04-1.305,6.179,6.179,0,0,0,1.4-1.98,6.027,6.027,0,0,0,.51-2.49,6.027,6.027,0,0,0-.51-2.49,6.179,6.179,0,0,0-1.4-1.98,6.413,6.413,0,0,0-2.04-1.305A6.485,6.485,0,0,0,34.2-17.55a6.485,6.485,0,0,0-2.445.465A6.238,6.238,0,0,0,29.73-15.78a6.3,6.3,0,0,0-1.38,1.98A6.028,6.028,0,0,0,27.84-11.31Zm-6.15,0a11.815,11.815,0,0,1,.93-4.7,11.716,11.716,0,0,1,2.58-3.8,11.789,11.789,0,0,1,3.945-2.535A13.533,13.533,0,0,1,34.2-23.25a13.566,13.566,0,0,1,5.04.915A11.921,11.921,0,0,1,43.215-19.8a11.6,11.6,0,0,1,2.595,3.8,11.815,11.815,0,0,1,.93,4.7,11.815,11.815,0,0,1-.93,4.7,11.6,11.6,0,0,1-2.595,3.8A11.921,11.921,0,0,1,39.24-.285,13.566,13.566,0,0,1,34.2.63a13.533,13.533,0,0,1-5.055-.915A11.789,11.789,0,0,1,25.2-2.82a11.716,11.716,0,0,1-2.58-3.8A11.815,11.815,0,0,1,21.69-11.31ZM56.34-22.62V0H50.46V-22.62ZM61.08,0V-22.62h5.88L77.82-8.79V-22.62h5.85V0H77.82L66.96-13.83V0ZM96.99-17.64V0H91.11V-17.64H86.28v-4.98h15.54v4.98Zm6.03,14.76a3.5,3.5,0,0,1,.27-1.365,3.466,3.466,0,0,1,.75-1.125,3.466,3.466,0,0,1,1.125-.75,3.5,3.5,0,0,1,1.365-.27,3.5,3.5,0,0,1,1.365.27,3.466,3.466,0,0,1,1.125.75,3.466,3.466,0,0,1,.75,1.125,3.5,3.5,0,0,1,.27,1.365,3.5,3.5,0,0,1-.27,1.365,3.466,3.466,0,0,1-.75,1.125A3.466,3.466,0,0,1,107.9.36a3.5,3.5,0,0,1-1.365.27,3.5,3.5,0,0,1-1.365-.27,3.466,3.466,0,0,1-1.125-.75,3.466,3.466,0,0,1-.75-1.125A3.5,3.5,0,0,1,103.02-2.88Zm14.49-14.76h-3.3v-4.98h9.18V0h-5.88Z" transform="translate(-2.37 23.25)" fill="#538eb4"/>
</svg>
