<svg xmlns="http://www.w3.org/2000/svg" width="104.023" height="103.105" viewBox="0 0 104.023 103.105">
  <path id="Icon_weather-stars" data-name="Icon weather-stars" d="M6.444,69.618a12.726,12.726,0,0,0,8.912-4.051,12.693,12.693,0,0,0,3.673-9.074,13.105,13.105,0,0,0,12.53,13.124,13.105,13.105,0,0,0-12.53,13.124,12.473,12.473,0,0,0-3.673-9.074A12.726,12.726,0,0,0,6.444,69.618ZM19.028,30.731a24.822,24.822,0,0,0,17.337-7.939A24.723,24.723,0,0,0,43.495,5.076a24.723,24.723,0,0,0,7.129,17.715,25.067,25.067,0,0,0,17.391,7.939,25.033,25.033,0,0,0-12.368,3.835,25.954,25.954,0,0,0-8.912,9.344,25.4,25.4,0,0,0-3.241,12.584,24.848,24.848,0,0,0-7.129-17.769A24.66,24.66,0,0,0,19.028,30.731ZM36.96,88.9a18.6,18.6,0,0,0,13.07-5.941,18.6,18.6,0,0,0,5.347-13.34A19.3,19.3,0,0,0,73.741,88.9a19.3,19.3,0,0,0-18.363,19.282,18.6,18.6,0,0,0-5.347-13.34A18.92,18.92,0,0,0,36.96,88.9ZM73.741,63.3a18.473,18.473,0,0,0,13.016-5.941A18.587,18.587,0,0,0,92.05,43.963a19.292,19.292,0,0,0,18.417,19.282A19.292,19.292,0,0,0,92.05,82.526,19.1,19.1,0,0,0,73.741,63.3Z" transform="translate(-6.444 -5.076)" fill="#ffda2b"/>
</svg>
