<svg xmlns="http://www.w3.org/2000/svg" width="107.588" height="107.567" viewBox="0 0 107.588 107.567">
  <path id="Icon_awesome-bomb" data-name="Icon awesome-bomb" d="M92.563,18.6,81.637,29.524l5.569,5.569a5.022,5.022,0,0,1,0,7.123l-3.656,3.656A43.712,43.712,0,1,1,61.695,24.039l3.656-3.656a5.022,5.022,0,0,1,7.124,0l5.569,5.569L88.97,15.024Zm12.5-5.989h-5.043a2.522,2.522,0,1,0,0,5.043h5.043a2.522,2.522,0,0,0,0-5.043ZM92.458,0a2.529,2.529,0,0,0-2.522,2.522V7.565a2.522,2.522,0,1,0,5.043,0V2.522A2.529,2.529,0,0,0,92.458,0Zm7.123,11.557,3.572-3.572a2.526,2.526,0,1,0-3.572-3.572L96.01,7.985a2.526,2.526,0,0,0,3.572,3.572Zm-14.247,0a2.526,2.526,0,1,0,3.572-3.572L85.335,4.413a2.526,2.526,0,0,0-3.572,3.572ZM99.582,18.7a2.526,2.526,0,1,0-3.572,3.572l3.572,3.572a2.526,2.526,0,1,0,3.572-3.572ZM23.535,57.156A13.461,13.461,0,0,1,36.983,43.708a3.362,3.362,0,0,0,0-6.724A20.2,20.2,0,0,0,16.811,57.156a3.362,3.362,0,0,0,6.724,0Z" fill="#ffda2b"/>
</svg>
