<svg xmlns="http://www.w3.org/2000/svg" width="150.014" height="81.612" viewBox="0 0 150.014 81.612">
  <g id="グループ_10859" data-name="グループ 10859" transform="translate(-262 -1411)">
    <g id="グループ_10858" data-name="グループ 10858">
      <path id="パス_4656" data-name="パス 4656" d="M490.173,488.279h11.972c3.572,0,7.2.653,10.074-1.788,5.527-4.691,10.467-10.315,15.56-15.534h19.665c8.606,0,17.5.656,26.086,0,4.966-.379,8.79-6.067,12.1-9.373q11.427-11.427,22.853-22.853l15.573-15.573c4.556-4.556-2.513-11.629-7.071-7.071q-22.436,22.436-44.87,44.87H532a59.675,59.675,0,0,0-6.144,0c-2.87.3-4.147,1.9-6.036,3.792l-13.529,13.53H490.173C483.739,478.279,483.728,488.279,490.173,488.279Z" transform="translate(-223.344 996.385)" fill="#ffda2b"/>
    </g>
    <path id="Icon_awesome-sort-amount-up" data-name="Icon awesome-sort-amount-up" d="M2.085,18.924H8.337v39.6a2.084,2.084,0,0,0,2.084,2.084H14.59a2.084,2.084,0,0,0,2.084-2.084v-39.6h6.253A2.085,2.085,0,0,0,24.4,15.366L13.979,2.861a2.084,2.084,0,0,0-2.947,0L.611,15.366A2.086,2.086,0,0,0,2.085,18.924Z" transform="translate(387 1432.003)" fill="#ffda2b"/>
  </g>
</svg>
