<svg xmlns="http://www.w3.org/2000/svg" width="881.164" height="323" viewBox="0 0 881.164 323">
  <g id="グループ_10636" data-name="グループ 10636" transform="translate(-258.602 -4053.25)">
    <g id="グループ_9407" data-name="グループ 9407" transform="translate(-63 1278.25)">
      <g id="グループ_9415" data-name="グループ 9415">
        <path id="パス_6589" data-name="パス 6589" d="M3.724-5.362A20.366,20.366,0,0,0,10.976-7.7a.571.571,0,0,0,.294-.5.665.665,0,0,0-.1-.35.612.612,0,0,0-.518-.308.665.665,0,0,0-.35.1A19.194,19.194,0,0,1,3.738-6.538v-3.794c0-.378-.224-.532-.6-.532-.336,0-.6.154-.6.532v7.308C2.534-.378,3.122.14,6.524.14A28.067,28.067,0,0,0,11.27-.2a.58.58,0,0,0,.518-.6V-.9a.515.515,0,0,0-.532-.5.682.682,0,0,0-.168.014,25.759,25.759,0,0,1-4.3.364c-2.758,0-3.066-.112-3.066-1.918Zm6.524-5.754a.517.517,0,0,0,.14.336,9.227,9.227,0,0,1,1.106,1.526.373.373,0,0,0,.364.238.429.429,0,0,0,.462-.392.71.71,0,0,0-.1-.364,8.688,8.688,0,0,0-1.2-1.568.458.458,0,0,0-.364-.154A.412.412,0,0,0,10.248-11.116Zm1.666-.742a.43.43,0,0,0,.168.364,8.5,8.5,0,0,1,1.05,1.484.394.394,0,0,0,.364.224.43.43,0,0,0,.434-.392.755.755,0,0,0-.084-.35A8.218,8.218,0,0,0,12.7-12.054a.522.522,0,0,0-.378-.168A.422.422,0,0,0,11.914-11.858Zm8.722,2.772a19.5,19.5,0,0,0-3.122-1.61.847.847,0,0,0-.308-.056.6.6,0,0,0-.518.322.533.533,0,0,0-.1.308.478.478,0,0,0,.322.462,20.228,20.228,0,0,1,3.066,1.624.545.545,0,0,0,.322.1.608.608,0,0,0,.546-.322.65.65,0,0,0,.084-.322A.628.628,0,0,0,20.636-9.086ZM16.352-7.294a.778.778,0,0,0-.294-.056.515.515,0,0,0-.476.322.619.619,0,0,0-.1.336.462.462,0,0,0,.308.434,20.216,20.216,0,0,1,3.15,1.708.645.645,0,0,0,.378.126.6.6,0,0,0,.532-.294.891.891,0,0,0,.1-.378.571.571,0,0,0-.28-.49A22.539,22.539,0,0,0,16.352-7.294Zm9.8-.91a.655.655,0,0,0-.224-.028.54.54,0,0,0-.532.476A9.171,9.171,0,0,1,22.064-2.73,11.52,11.52,0,0,1,16.24-.77a.525.525,0,0,0-.56.546.238.238,0,0,0,.014.1.581.581,0,0,0,.63.574h.084a12.665,12.665,0,0,0,6.328-2.156A10.622,10.622,0,0,0,26.558-7.42a1.4,1.4,0,0,0,.028-.224A.568.568,0,0,0,26.152-8.2Zm-1.946-2.73a.517.517,0,0,0,.14.336,9.227,9.227,0,0,1,1.106,1.526.373.373,0,0,0,.364.238.429.429,0,0,0,.462-.392.71.71,0,0,0-.1-.364,8.688,8.688,0,0,0-1.2-1.568.458.458,0,0,0-.364-.154A.412.412,0,0,0,24.206-10.934Zm1.582-.854a.43.43,0,0,0,.168.364,8.5,8.5,0,0,1,1.05,1.484.394.394,0,0,0,.364.224.43.43,0,0,0,.434-.392.755.755,0,0,0-.084-.35,8.218,8.218,0,0,0-1.148-1.526.522.522,0,0,0-.378-.168A.422.422,0,0,0,25.788-11.788ZM35.462-9.52v-1.456c0-.336-.266-.5-.6-.5s-.6.168-.6.5V-9.52h-3.99a.49.49,0,0,0-.462.546.49.49,0,0,0,.462.546h7.588c.2,0,.308.056.308.168,0,.07-.056.168-.2.294A24.425,24.425,0,0,1,29.386-3.43a.5.5,0,0,0-.42.5.819.819,0,0,0,.028.182.563.563,0,0,0,.56.42.628.628,0,0,0,.154-.014,18.52,18.52,0,0,0,4.606-1.974l.042.014c-.042.42-.056.98-.056,1.456V.322c0,.336.252.5.588.5s.6-.168.6-.5V-3.584a5.11,5.11,0,0,0-.042-.882l.028-.014a4.583,4.583,0,0,0,.616.308,39.1,39.1,0,0,1,4.032,2.058.6.6,0,0,0,.308.084.586.586,0,0,0,.518-.336.65.65,0,0,0,.084-.322.608.608,0,0,0-.308-.5,29.542,29.542,0,0,0-4.662-2.1,14.675,14.675,0,0,0,3-2.17,1.636,1.636,0,0,0,.532-1.078.821.821,0,0,0-.056-.322A1.055,1.055,0,0,0,38.43-9.52Zm15.82.322c.35,0,.5.1.5.308a1.042,1.042,0,0,1-.07.308,11.841,11.841,0,0,1-3.164,4.55,15.711,15.711,0,0,1-4.97,3.024.644.644,0,0,0-.42.6.654.654,0,0,0,.042.238.513.513,0,0,0,.518.35.962.962,0,0,0,.336-.07A15.569,15.569,0,0,0,49.98-3.766a23.014,23.014,0,0,1,3.7,3.528.672.672,0,0,0,.5.224.657.657,0,0,0,.49-.21.674.674,0,0,0,.182-.448.781.781,0,0,0-.2-.49,24.924,24.924,0,0,0-3.892-3.486,13.148,13.148,0,0,0,2.226-3.64,2.657,2.657,0,0,0,.154-.812,1.366,1.366,0,0,0-.182-.7,1.387,1.387,0,0,0-1.246-.56l-7.126.07a.5.5,0,0,0-.518.56c0,.378.182.616.518.616ZM66.7-8.82c.35,0,.518.112.518.336a.893.893,0,0,1-.126.392,12.535,12.535,0,0,1-4.312,4.3,29.189,29.189,0,0,0-2.66-2.618.734.734,0,0,0-.448-.182.552.552,0,0,0-.378.154.53.53,0,0,0-.238.42.554.554,0,0,0,.21.406A33.448,33.448,0,0,1,64.092-.1a.676.676,0,0,0,.546.322.648.648,0,0,0,.35-.112A.741.741,0,0,0,65.3-.462a.616.616,0,0,0-.112-.364A22.757,22.757,0,0,0,63.546-2.87a14.761,14.761,0,0,0,4.83-4.886,2.07,2.07,0,0,0,.28-.994,1.236,1.236,0,0,0-.238-.742,1.456,1.456,0,0,0-1.232-.518L57.694-10c-.28,0-.476.266-.476.6s.182.588.476.588ZM77.014-6.678A6.793,6.793,0,0,1,75.95-2.59,5.816,5.816,0,0,1,72.8-.574a.5.5,0,0,0-.434.5.711.711,0,0,0,.042.238.535.535,0,0,0,.546.406,1.1,1.1,0,0,0,.2-.028A7.287,7.287,0,0,0,76.9-1.792c.84-1.078,1.246-2.282,1.344-4.886h4.228c.294,0,.434-.252.434-.574s-.14-.56-.448-.56H78.274v-2.9c0-.392-.252-.574-.63-.574s-.616.182-.616.56v2.912h-5.39c-.308,0-.448.252-.448.56s.14.574.448.574h5.376ZM96.32-4.606c.35,0,.546-.224.546-.6a.557.557,0,0,0-.56-.63H85.68a.557.557,0,0,0-.56.63c0,.378.2.6.546.6Z" transform="translate(529 2836)"/>
        <path id="パス_6590" data-name="パス 6590" d="M8.19-6.412c.028-.854.028-1.764.028-2.7A23.2,23.2,0,0,0,11.578-10a.532.532,0,0,0,.364-.5.752.752,0,0,0-.07-.294.573.573,0,0,0-.5-.308.607.607,0,0,0-.266.056,21.566,21.566,0,0,1-3.962.98,31.866,31.866,0,0,1-4.69.448.5.5,0,0,0-.476.532v.056a.5.5,0,0,0,.56.49,39.668,39.668,0,0,0,4.48-.392c0,.812,0,1.708-.028,2.52H1.568a.481.481,0,0,0-.518.532.493.493,0,0,0,.5.56H6.93c-.014.126-.014.266-.028.406-.2,2.562-1.638,3.766-3.7,4.438A.576.576,0,0,0,2.814.1.607.607,0,0,0,2.87.364a.489.489,0,0,0,.476.322A.847.847,0,0,0,3.654.63,5.8,5.8,0,0,0,8.106-4.648q.021-.315.042-.672H12.5a.5.5,0,0,0,.518-.56.481.481,0,0,0-.518-.532ZM26.32-4.606c.35,0,.546-.224.546-.6a.557.557,0,0,0-.56-.63H15.68a.557.557,0,0,0-.56.63c0,.378.2.6.546.6ZM31.066-1.6a55.683,55.683,0,0,0,3.346-8.848.826.826,0,0,0,.028-.2.6.6,0,0,0-.518-.6.8.8,0,0,0-.182-.014c-.28,0-.462.14-.56.49A52.853,52.853,0,0,1,29.764-1.54h-.5c-.168,0-.336,0-.5.014a.546.546,0,0,0-.518.616v.07a.563.563,0,0,0,.6.56H28.9a71.817,71.817,0,0,0,9.716-1.008c.21.476.364.826.5,1.232a.508.508,0,0,0,.49.35.667.667,0,0,0,.28-.056.6.6,0,0,0,.448-.574A.967.967,0,0,0,40.25-.7a36.458,36.458,0,0,0-3.29-6.286.676.676,0,0,0-.546-.308.667.667,0,0,0-.28.056.5.5,0,0,0-.28.462.588.588,0,0,0,.084.294,41.83,41.83,0,0,1,2.254,4.13A55.123,55.123,0,0,1,31.066-1.6ZM44.1-10.458a1.344,1.344,0,0,0-1.54,1.47v2.9a.572.572,0,0,0,.63.56.568.568,0,0,0,.616-.56V-8.722c0-.476.154-.588.686-.588h6.636c.532,0,.728.168.728.63v.042a8.406,8.406,0,0,1-1.582,5.166A8,8,0,0,1,45.78-.756a.538.538,0,0,0-.476.532,1.081,1.081,0,0,0,.028.21.591.591,0,0,0,.6.448,1.543,1.543,0,0,0,.252-.028A9.094,9.094,0,0,0,51.03-2.436a9.647,9.647,0,0,0,2.086-6.188V-8.75c0-1.12-.574-1.708-1.834-1.708ZM67.06-4.606c.35,0,.546-.224.546-.6a.557.557,0,0,0-.56-.63H56.42a.557.557,0,0,0-.56.63c0,.378.2.6.546.6ZM78.876-8.47h.056c.392,0,.532.126.532.392a1.731,1.731,0,0,1-.028.252C78.6-4.032,76.09-1.54,72-.462A.535.535,0,0,0,71.54.07a1.081,1.081,0,0,0,.028.21.561.561,0,0,0,.574.406A.682.682,0,0,0,72.31.672a10.641,10.641,0,0,0,8.4-8.316,2.458,2.458,0,0,0,.056-.532,1.3,1.3,0,0,0-1.456-1.4l-4.382.084a5.753,5.753,0,0,0,.546-1.148.819.819,0,0,0,.028-.182.514.514,0,0,0-.434-.5.941.941,0,0,0-.252-.042.555.555,0,0,0-.546.406,9.979,9.979,0,0,1-3.724,4.774.6.6,0,0,0-.294.518.624.624,0,0,0,.112.364.626.626,0,0,0,.476.252.734.734,0,0,0,.364-.112A11.236,11.236,0,0,0,74.368-8.4Z" transform="translate(589 2940)"/>
        <path id="パス_6591" data-name="パス 6591" d="M2.674-10c-.378,0-.546.238-.546.616s.168.574.532.574h7.35c.546,0,.686.14.686.644v5.81c0,.5-.14.658-.686.658H2.436c-.378,0-.546.21-.546.588a.528.528,0,0,0,.532.6H10.36c1.078,0,1.6-.574,1.6-1.694v-6.09c0-1.12-.518-1.708-1.6-1.708Zm14.938-.98h-.1a.583.583,0,0,0-.574.462.8.8,0,0,0-.014.182.5.5,0,0,0,.448.532A48.7,48.7,0,0,1,24.85-8.316a.793.793,0,0,0,.252.042.509.509,0,0,0,.518-.448.8.8,0,0,0,.014-.182.551.551,0,0,0-.406-.56A48.857,48.857,0,0,0,17.612-10.976ZM17.374-7.07h-.1a.543.543,0,0,0-.56.476.945.945,0,0,0-.028.2.469.469,0,0,0,.434.5A46.8,46.8,0,0,1,24.36-4.382a.634.634,0,0,0,.224.042.526.526,0,0,0,.532-.476A.8.8,0,0,0,25.13-5a.535.535,0,0,0-.406-.546A57.734,57.734,0,0,0,17.374-7.07ZM16.38-3h-.1a.566.566,0,0,0-.56.448,1.081,1.081,0,0,0-.028.21.517.517,0,0,0,.448.532A55.005,55.005,0,0,1,25.186.35a.7.7,0,0,0,.224.042.561.561,0,0,0,.532-.476.826.826,0,0,0,.028-.2.562.562,0,0,0-.406-.56A59.685,59.685,0,0,0,16.38-3ZM36.974-1.162A41.927,41.927,0,0,0,37.842-6.3a1.06,1.06,0,0,0,.014-.21,1.2,1.2,0,0,0-.28-.84,1.11,1.11,0,0,0-.882-.336H31.64c-.266,0-.434.252-.434.56a.469.469,0,0,0,.434.518h4.578c.35,0,.448.084.448.336v.126A34.35,34.35,0,0,1,35.8-1.162H30.6a.472.472,0,0,0-.462.518.511.511,0,0,0,.462.56h8.722c.294,0,.434-.266.434-.56s-.14-.518-.434-.518Zm7.938-8.554a.582.582,0,0,0-.518.63.566.566,0,0,0,.518.63h8.232a.565.565,0,0,0,.5-.63.582.582,0,0,0-.518-.63ZM43.75-1.974a.582.582,0,0,0-.518.63.578.578,0,0,0,.5.644h10.57c.322,0,.5-.308.5-.644a.572.572,0,0,0-.518-.63ZM67.984-7.812c.35,0,.518-.21.518-.56a.478.478,0,0,0-.532-.546H60.186a11.752,11.752,0,0,0,.756-1.862.525.525,0,0,0,.014-.14.542.542,0,0,0-.462-.518.963.963,0,0,0-.182-.028.552.552,0,0,0-.518.42A8.689,8.689,0,0,1,59.4-10a10.452,10.452,0,0,1-2.842,4.06.608.608,0,0,0-.238.476.614.614,0,0,0,.182.434.575.575,0,0,0,.406.182.708.708,0,0,0,.434-.168,9.961,9.961,0,0,0,2.352-2.8h4.242C63.784-3.962,62.048-1.68,59-.546a.571.571,0,0,0-.42.546.748.748,0,0,0,.07.28.557.557,0,0,0,.532.336,1.046,1.046,0,0,0,.28-.042c3.654-1.316,5.572-4.242,5.7-8.386ZM81.06-4.606c.35,0,.546-.224.546-.6a.557.557,0,0,0-.56-.63H70.42a.557.557,0,0,0-.56.63c0,.378.2.6.546.6Zm8.47-4.648a19.5,19.5,0,0,0-3.122-1.61.847.847,0,0,0-.308-.056.6.6,0,0,0-.518.322.575.575,0,0,0-.1.322.474.474,0,0,0,.322.448A20.228,20.228,0,0,1,88.872-8.2a.545.545,0,0,0,.322.1.608.608,0,0,0,.546-.322.65.65,0,0,0,.084-.322A.628.628,0,0,0,89.53-9.254ZM85.246-7.462a.778.778,0,0,0-.294-.056.515.515,0,0,0-.476.322.619.619,0,0,0-.1.336.462.462,0,0,0,.308.434,20.05,20.05,0,0,1,3.136,1.708.72.72,0,0,0,.392.126.611.611,0,0,0,.518-.294.742.742,0,0,0,.112-.378.557.557,0,0,0-.294-.49A22.394,22.394,0,0,0,85.246-7.462Zm9.8-.91a1.4,1.4,0,0,0-.224-.028.54.54,0,0,0-.532.476A9.171,9.171,0,0,1,90.958-2.9a11.52,11.52,0,0,1-5.824,1.96.525.525,0,0,0-.56.546v.1a.6.6,0,0,0,.644.574h.07A12.716,12.716,0,0,0,91.63-1.876a10.622,10.622,0,0,0,3.822-5.712,1.4,1.4,0,0,0,.028-.224A.568.568,0,0,0,95.046-8.372Zm11.48,3.7h-6.188c-.28,0-.42.238-.42.532s.14.518.42.518h6.188v2.24c0,.392-.112.5-.518.5H99.862c-.294,0-.434.224-.434.532,0,.28.14.518.434.518h6.566a1.117,1.117,0,0,0,1.218-1.274V-7a1.111,1.111,0,0,0-1.218-1.274H99.974c-.28,0-.434.224-.434.518s.154.532.434.532h6.034c.406,0,.518.126.518.5Zm7.182-5.46a.754.754,0,0,0-.42-.14.548.548,0,0,0-.448.21.638.638,0,0,0-.154.406.544.544,0,0,0,.224.448,16.627,16.627,0,0,1,2.926,2.562.721.721,0,0,0,.518.266.574.574,0,0,0,.434-.2.718.718,0,0,0,.2-.476.715.715,0,0,0-.168-.448A13.8,13.8,0,0,0,113.708-10.136Zm9.38,1.022a1.081,1.081,0,0,0-.21-.028c-.252,0-.462.154-.56.532a9.972,9.972,0,0,1-3.36,5.39,11.328,11.328,0,0,1-5.852,1.988.575.575,0,0,0-.56.616v.07a.6.6,0,0,0,.658.56h.028a12.331,12.331,0,0,0,6.454-2.184,10.891,10.891,0,0,0,3.85-6.118,1.543,1.543,0,0,0,.028-.252A.582.582,0,0,0,123.088-9.114Z" transform="translate(530 3045)"/>
        <path id="パス_6592" data-name="パス 6592" d="M-35.546-9.66a12.19,12.19,0,0,0,.686-1.526.562.562,0,0,0,.042-.21c0-.2-.14-.35-.406-.42a1.543,1.543,0,0,0-.252-.028.515.515,0,0,0-.518.308,13.717,13.717,0,0,1-.742,1.876H-39.55c-.882,0-1.26.364-1.26,1.274V.6c0,.252.224.406.546.406S-39.69.854-39.69.6V-8.106c0-.406.14-.546.63-.546h8.134c.49,0,.644.154.644.56V-.77c0,.49-.168.63-.728.63a7.242,7.242,0,0,1-1.274-.14.476.476,0,0,0-.14-.014A.45.45,0,0,0-32.886.1.861.861,0,0,0-32.9.28a.446.446,0,0,0,.392.476A9.265,9.265,0,0,0-30.87.91c1.134,0,1.68-.392,1.68-1.358V-8.372c0-.924-.392-1.288-1.288-1.288ZM-36.6-6.944c-.84,0-1.218.308-1.218,1.148V-3c0,.84.378,1.134,1.218,1.134H-33.5c.84,0,1.218-.294,1.218-1.134V-5.8c0-.84-.378-1.148-1.218-1.148Zm.224,4.116c-.252,0-.406-.084-.406-.378V-5.614c0-.294.154-.364.406-.364h2.632c.252,0,.42.07.42.364v2.408c0,.294-.168.378-.42.378ZM-20.86-.6V-6.146H-16.2c.266,0,.434-.252.434-.56s-.168-.532-.434-.532H-20.86V-11.1c0-.294-.224-.462-.56-.462s-.588.168-.588.462V-.6h-4.914c-.28,0-.434.238-.434.532s.154.56.434.56h11.83c.28,0,.434-.266.434-.56S-14.812-.6-15.092-.6Zm8.834-6.174a14.386,14.386,0,0,1-1.5,4.886.752.752,0,0,0-.07.294.59.59,0,0,0,.308.5.735.735,0,0,0,.322.084.555.555,0,0,0,.5-.322,17.661,17.661,0,0,0,1.568-5.25v-.1a.5.5,0,0,0-.476-.518h-.112A.493.493,0,0,0-12.026-6.776ZM-9.716-.49c0,.952.392,1.316,2.436,1.358h.364A6.508,6.508,0,0,0-4.34.49a1.476,1.476,0,0,0,.7-.6A6.341,6.341,0,0,0-3.15-2.87.511.511,0,0,0-3.7-3.4h-.042a.472.472,0,0,0-.532.476,5.807,5.807,0,0,1-.336,2.17c-.2.336-.686.546-2.212.546-1.68,0-1.75-.112-1.75-.616V-8.26c0-.252-.2-.42-.574-.42-.35,0-.574.168-.574.42Zm.91-11.144a.945.945,0,0,0-.2-.028.56.56,0,0,0-.5.378.649.649,0,0,0-.056.266.429.429,0,0,0,.322.434A20.33,20.33,0,0,1-5.39-8.778a.677.677,0,0,0,.378.126.523.523,0,0,0,.476-.308.646.646,0,0,0,.112-.364.566.566,0,0,0-.294-.49A21.292,21.292,0,0,0-8.806-11.634Zm5.5,4.34a.484.484,0,0,0-.322.434.57.57,0,0,0,.07.252A23.123,23.123,0,0,1-1.512-1.862a.491.491,0,0,0,.49.392.607.607,0,0,0,.266-.056.579.579,0,0,0,.392-.546.951.951,0,0,0-.042-.266A23.058,23.058,0,0,0-2.548-7.1.486.486,0,0,0-3-7.364.883.883,0,0,0-3.3-7.294Z" transform="translate(422 3045)"/>
        <path id="パス_6593" data-name="パス 6593" d="M-34.594-7.784v-.784h4.34a.36.36,0,0,0,.336-.406.36.36,0,0,0-.336-.406h-4.34v-.728h4.956c.224,0,.35-.168.35-.42s-.126-.42-.35-.42h-4.956v-.588c0-.266-.2-.406-.5-.406s-.5.14-.5.406v.588h-4.816a.383.383,0,0,0-.35.42c0,.252.14.42.35.42H-35.6v.728h-4.186a.368.368,0,0,0-.336.406c0,.238.126.406.336.406H-35.6v.784h-5.446a.363.363,0,0,0-.35.406.389.389,0,0,0,.35.434h12.082c.224,0,.35-.2.35-.434s-.126-.406-.35-.406ZM-38.57-6.272c-.84,0-1.19.294-1.19,1.008v3.3c0,.728.35,1.022,1.19,1.022h7.126c.854,0,1.19-.294,1.19-1.008V-5.264c0-.714-.336-1.008-1.19-1.008Zm-.182,1.512v-.448c0-.238.126-.308.392-.308h6.706c.266,0,.392.07.392.308v.448Zm7.49,1.54h-7.49V-4h7.49Zm0,.742V-2c0,.238-.126.308-.392.308H-38.36c-.266,0-.392-.07-.392-.308v-.476ZM-37.24-.588a14.859,14.859,0,0,1-3.752.812.436.436,0,0,0-.392.462v.1a.48.48,0,0,0,.5.434h.056A15.752,15.752,0,0,0-36.708.252a.451.451,0,0,0,.266-.42.477.477,0,0,0-.1-.308.5.5,0,0,0-.392-.182A.763.763,0,0,0-37.24-.588Zm4.41.014a.731.731,0,0,0-.294-.056.524.524,0,0,0-.406.182.482.482,0,0,0-.112.294.439.439,0,0,0,.28.406,17.421,17.421,0,0,0,4.27.952h.056a.484.484,0,0,0,.462-.462V.658a.41.41,0,0,0-.392-.434A19.369,19.369,0,0,1-32.83-.574ZM-18.858-5.81v-3.5a23.658,23.658,0,0,0,3.15-1.078.516.516,0,0,0,.336-.476.588.588,0,0,0-.084-.294.509.509,0,0,0-.476-.294.912.912,0,0,0-.364.084,22.145,22.145,0,0,1-6.79,1.876.479.479,0,0,0-.462.518v.07a.471.471,0,0,0,.49.462.388.388,0,0,0,.126-.014c.994-.14,2-.336,2.982-.574v3.22h-3.808c-.238,0-.406.21-.406.5s.168.518.406.518h3.808V-.546h-3.262c-.252,0-.406.224-.406.5s.154.5.406.5h7.924c.238,0,.392-.21.392-.5s-.154-.5-.392-.5h-3.57V-4.788h4c.238,0,.406-.224.406-.518s-.168-.5-.406-.5ZM-25.914.714c0,.266.224.406.532.406.336,0,.56-.14.56-.406V-8.3a19.212,19.212,0,0,0,1.232-2.8.7.7,0,0,0,.028-.168.473.473,0,0,0-.406-.448.777.777,0,0,0-.238-.042.451.451,0,0,0-.462.336,14.577,14.577,0,0,1-2.926,5.376.577.577,0,0,0-.14.378.545.545,0,0,0,.2.42.6.6,0,0,0,.322.112.676.676,0,0,0,.49-.252,7.408,7.408,0,0,0,.938-1.372,18.639,18.639,0,0,0-.126,1.946ZM-4.8-10.528c-.028-.294-.028-.6-.042-.924,0-.28-.2-.42-.5-.42s-.49.168-.49.434c0,.308.014.616.042.91h-5.558A.964.964,0,0,0-12.46-9.436v1.19a9.5,9.5,0,0,1-.84,4.69.891.891,0,0,0-.1.336.484.484,0,0,0,.238.392.778.778,0,0,0,.364.112.52.52,0,0,0,.49-.336,11.214,11.214,0,0,0,.882-4.928V-9.212c0-.308.14-.378.406-.378h5.292A14.871,14.871,0,0,0-5.04-6.44c.126.35.266.672.406.98A8.482,8.482,0,0,1-6.286-3.976a.485.485,0,0,0-.2.378.489.489,0,0,0,.112.308.48.48,0,0,0,.364.2.594.594,0,0,0,.35-.14A9.426,9.426,0,0,0-4.144-4.606a4.747,4.747,0,0,0,1.26,1.274,1.886,1.886,0,0,0,1.008.378A.882.882,0,0,0-1.092-3.4a4.578,4.578,0,0,0,.56-1.666A.348.348,0,0,0-.518-5.18.406.406,0,0,0-.91-5.6H-.994a.432.432,0,0,0-.448.392,4.063,4.063,0,0,1-.294,1.022.276.276,0,0,1-.238.2.846.846,0,0,1-.434-.21A4.4,4.4,0,0,1-3.486-5.39,13.594,13.594,0,0,0-1.96-8.022a.7.7,0,0,0,.042-.224.445.445,0,0,0-.322-.42.5.5,0,0,0-.238-.056.408.408,0,0,0-.392.308A11.368,11.368,0,0,1-3.962-6.328a4.2,4.2,0,0,1-.2-.5A11.533,11.533,0,0,1-4.732-9.59H-1.19c.252,0,.378-.224.378-.476s-.154-.462-.378-.462h-.966a.407.407,0,0,0,.238-.2.383.383,0,0,0,.056-.2.479.479,0,0,0-.224-.378,6.14,6.14,0,0,0-1.3-.588,1.456,1.456,0,0,0-.21-.028.433.433,0,0,0-.392.238.4.4,0,0,0-.056.21.4.4,0,0,0,.28.35,13.123,13.123,0,0,1,1.19.56c.028.014.042.014.07.028Zm-2.6,7.42a.54.54,0,0,0-.28-.084.452.452,0,0,0-.392.21.515.515,0,0,0-.112.294.416.416,0,0,0,.224.35A16.786,16.786,0,0,1-6.342-1.2a.493.493,0,0,0,.322.126.533.533,0,0,0,.392-.2A.561.561,0,0,0-5.516-1.6a.489.489,0,0,0-.2-.392A12.226,12.226,0,0,0-7.406-3.108ZM-12-2.324a8.552,8.552,0,0,1-1.246,2.24.561.561,0,0,0-.112.322.485.485,0,0,0,.224.392.6.6,0,0,0,.364.126.525.525,0,0,0,.42-.2,9.394,9.394,0,0,0,1.316-2.478.777.777,0,0,0,.042-.238.462.462,0,0,0-.322-.434.793.793,0,0,0-.252-.042A.449.449,0,0,0-12-2.324Zm8.722.5A15.074,15.074,0,0,1-1.848.238a.517.517,0,0,0,.434.28A.493.493,0,0,0-1.12.42.474.474,0,0,0-.84,0,.58.58,0,0,0-.924-.28,13.661,13.661,0,0,0-2.478-2.436a.545.545,0,0,0-.42-.2.493.493,0,0,0-.294.1.479.479,0,0,0-.224.378A.5.5,0,0,0-3.276-1.82ZM-9.8-6.986c-.658,0-.91.252-.91.91v1.3c0,.658.252.91.91.91h2.576c.644,0,.91-.252.91-.91v-1.3c0-.658-.252-.91-.91-.91Zm2.282.784c.182,0,.308.07.308.308v.938c0,.238-.126.308-.308.308H-9.506c-.182,0-.308-.07-.308-.308v-.938c0-.238.126-.308.308-.308ZM-6.3-7.812c.224,0,.336-.182.336-.434s-.112-.42-.336-.42h-4.438c-.224,0-.336.182-.336.42s.112.434.336.434Zm-3.71,7.6c0,.77.238,1.078,1.162,1.148.5.042,1.232.07,1.946.07A14.785,14.785,0,0,0-5,.91,1.331,1.331,0,0,0-3.836.21a3.825,3.825,0,0,0,.28-1.148V-.994c0-.252-.168-.406-.462-.434H-4.1a.412.412,0,0,0-.462.406,1.972,1.972,0,0,1-.21.8C-4.9-.042-5.152.084-6.93.084c-1.946,0-2.044-.056-2.044-.5V-2.38c0-.252-.21-.406-.518-.406s-.518.154-.518.406Z" transform="translate(363 2940)"/>
        <path id="パス_6588" data-name="パス 6588" d="M-47.824-9.632a22.635,22.635,0,0,0-6.65,1.092.634.634,0,0,0-.462.6.945.945,0,0,0,.028.2.556.556,0,0,0,.56.448.712.712,0,0,0,.28-.056,20.686,20.686,0,0,1,6.3-1.106c2.128,0,3.234,1.134,3.234,2.786a3.345,3.345,0,0,1-2.1,3.22,12.771,12.771,0,0,1-4.8.812.556.556,0,0,0-.6.616V-.98c.014.378.266.588.714.588a14.107,14.107,0,0,0,5.152-.91A4.553,4.553,0,0,0-43.3-5.67C-43.3-7.994-44.828-9.632-47.824-9.632Zm15.442.056a.793.793,0,0,0-.252-.042.6.6,0,0,0-.518.294A.65.65,0,0,0-33.236-9a.426.426,0,0,0,.266.42,15.179,15.179,0,0,1,2.926,1.54.648.648,0,0,0,.35.112.582.582,0,0,0,.476-.266.65.65,0,0,0,.084-.322.616.616,0,0,0-.28-.518A15.494,15.494,0,0,0-32.382-9.576Zm-4.8,1.54c.84-.07,1.666-.14,2.394-.252a.532.532,0,0,0,.5-.532V-8.9a.492.492,0,0,0-.5-.462.388.388,0,0,0-.126.014c-.588.084-1.246.14-1.932.2.154-.6.294-1.2.42-1.778a.861.861,0,0,0,.014-.182c0-.28-.182-.434-.49-.49a.525.525,0,0,0-.14-.014.478.478,0,0,0-.518.462q-.21,1.071-.5,2.1c-.6.028-1.232.042-1.834.042h-.6a.493.493,0,0,0-.518.546c0,.336.168.546.49.546H-40c.546,0,1.092-.014,1.61-.042a26.649,26.649,0,0,1-2.478,5.53.85.85,0,0,0-.126.42.527.527,0,0,0,.266.462.757.757,0,0,0,.392.126.625.625,0,0,0,.518-.364A31.332,31.332,0,0,0-37.184-8.036Zm5.334,4.76a27.422,27.422,0,0,1-.168-3.178.523.523,0,0,0-.574-.574.509.509,0,0,0-.546.574c0,.91.07,2.016.154,2.8a6.654,6.654,0,0,0-1.736-.238c-1.736,0-2.926.966-2.926,2.31,0,1.316,1.162,2.24,2.912,2.24,1.9,0,2.884-.714,2.954-2.24a2.964,2.964,0,0,0-.028-.476A9.546,9.546,0,0,1-29.988-.6a.663.663,0,0,0,.42.182.587.587,0,0,0,.406-.2.6.6,0,0,0,.154-.392.667.667,0,0,0-.21-.462A9.981,9.981,0,0,0-31.85-3.276Zm-1.05.742a6.337,6.337,0,0,1,.028.7c0,.994-.644,1.442-1.834,1.442-1.148,0-1.834-.434-1.834-1.2s.714-1.3,1.848-1.3A4.413,4.413,0,0,1-32.9-2.534Zm6.356-3.514c0,.28.2.476.574.49A45.376,45.376,0,0,0-20.2-6.02a11.386,11.386,0,0,0,1.848,2.2l-.056.07a7.154,7.154,0,0,0-3.206-.714c-3.038,0-4.368,1.12-4.368,2.632,0,1.61,1.5,2.548,4.368,2.548A13.9,13.9,0,0,0-17.584.182a.548.548,0,0,0,.42-.546,1.081,1.081,0,0,0-.028-.21.491.491,0,0,0-.5-.406.793.793,0,0,0-.252.042,12.652,12.652,0,0,1-3.6.532c-2.24,0-3.234-.476-3.234-1.47,0-.91.756-1.624,3.192-1.624a7.9,7.9,0,0,1,3.556.77,1.492,1.492,0,0,0,.672.224.63.63,0,0,0,.588-.63.736.736,0,0,0-.28-.56A16.729,16.729,0,0,1-19.138-6.2c1.078-.182,2-.378,2.8-.574.294-.1.448-.238.448-.49a.963.963,0,0,0-.028-.182.44.44,0,0,0-.49-.364,1.4,1.4,0,0,0-.224.028c-.952.252-2.03.476-3.122.658a12.359,12.359,0,0,1-.784-1.47c1.064-.182,1.792-.294,2.66-.5a.417.417,0,0,0,.378-.406.777.777,0,0,0-.042-.238A.457.457,0,0,0-18-10.108a.992.992,0,0,0-.2.014,27.013,27.013,0,0,1-2.772.5c-.168-.434-.35-.9-.5-1.358a.524.524,0,0,0-.518-.434,1.4,1.4,0,0,0-.224.028.459.459,0,0,0-.392.448.5.5,0,0,0,.056.238c.168.406.322.826.49,1.2a35.925,35.925,0,0,1-4.018.238.481.481,0,0,0-.5.518.512.512,0,0,0,.56.518,36.345,36.345,0,0,0,4.438-.294,13.731,13.731,0,0,0,.8,1.5,42.657,42.657,0,0,1-5.264.392.453.453,0,0,0-.49.5Zm8.848-5.04a.517.517,0,0,0,.14.336A9.227,9.227,0,0,1-16.45-9.226a.373.373,0,0,0,.364.238.429.429,0,0,0,.462-.392.71.71,0,0,0-.1-.364,8.688,8.688,0,0,0-1.2-1.568.458.458,0,0,0-.364-.154A.412.412,0,0,0-17.7-11.088Zm1.61-.77a.43.43,0,0,0,.168.364,8.5,8.5,0,0,1,1.05,1.484.394.394,0,0,0,.364.224.43.43,0,0,0,.434-.392.755.755,0,0,0-.084-.35A8.218,8.218,0,0,0-15.3-12.054a.522.522,0,0,0-.378-.168A.422.422,0,0,0-16.086-11.858Zm3.948,3.038c-.322,0-.49.21-.49.546a.48.48,0,0,0,.49.546h4.06A10.243,10.243,0,0,1-9.31-3.346,8.215,8.215,0,0,1-12.656-.238a.552.552,0,0,0-.336.5.619.619,0,0,0,.1.336.514.514,0,0,0,.462.28.947.947,0,0,0,.378-.1A9.128,9.128,0,0,0-8.3-2.8,11.825,11.825,0,0,0-6.93-7.728h3.682c.518,0,.658.14.658.672a39.142,39.142,0,0,1-.462,5.922c-.112.574-.406.8-1.106.8A7.691,7.691,0,0,1-6.048-.6a1.081,1.081,0,0,0-.21-.028.506.506,0,0,0-.49.448,1.1,1.1,0,0,0-.028.2A.536.536,0,0,0-6.342.56,8.82,8.82,0,0,0-4.116.826c1.288,0,1.932-.5,2.128-1.5A38.566,38.566,0,0,0-1.47-7.224v-.238c0-.91-.476-1.358-1.5-1.358H-6.846c.042-.728.07-1.54.07-2.436,0-.392-.224-.532-.588-.532-.392,0-.574.14-.574.518,0,.91-.028,1.722-.056,2.45Z" transform="translate(422 2836)"/>
        <g id="楕円形_37" data-name="楕円形 37" transform="translate(369.002 2828)" fill="#cacaca" stroke="#cacaca" stroke-width="1" opacity="0.144">
          <circle cx="107" cy="107" r="107" stroke="none"/>
          <circle cx="107" cy="107" r="106.5" fill="none"/>
        </g>
        <path id="パス_5419" data-name="パス 5419" d="M18139.895,1541.684l53.67,3.684,33.133,42.536-18.951,67.391-73.787-6.954-49.064-60.437Z" transform="translate(-17694 1347)" fill="#ffda2b" opacity="0.754"/>
        <g id="パス_5421" data-name="パス 5421" transform="translate(-17694 1347)" fill="none">
          <path d="M18139.895,1541.684l53.67,3.684,33.133,42.536-18.951,67.391-73.787-6.954-49.064-60.437Z" stroke="none"/>
          <path d="M 18140.5625 1543.734497070312 L 18087.6875 1588.170532226562 L 18134.982421875 1646.429077148438 L 18206.2734375 1653.1474609375 L 18224.498046875 1588.336059570312 L 18192.53515625 1547.302124023438 L 18140.5625 1543.734497070312 M 18139.89453125 1541.683837890625 L 18193.564453125 1545.368041992188 L 18226.697265625 1587.904418945312 L 18207.74609375 1655.295166015625 L 18133.958984375 1648.341430664062 L 18084.89453125 1587.904418945312 L 18139.89453125 1541.683837890625 Z" stroke="none" fill="#ffda2b"/>
        </g>
        <path id="パス_5418" data-name="パス 5418" d="M18143.541,1545.01l55.629-6.488,20.662,48.978-17.367,57.309-61.906-5.139-41.369-52.17Z" transform="translate(-17694 1347)" fill="#538eb4" opacity="0.863"/>
        <g id="パス_5420" data-name="パス 5420" transform="translate(-17694 1347)" fill="none" opacity="0.986">
          <path d="M18143.541,1545.01l55.629-6.488,20.662,48.978-17.367,57.309-61.906-5.139-41.369-52.17Z" stroke="none"/>
          <path d="M 18197.91015625 1540.682739257812 L 18144.439453125 1546.918823242188 L 18101.888671875 1587.684448242188 L 18141.587890625 1637.748901367188 L 18201.01953125 1642.682373046875 L 18217.708984375 1587.611694335938 L 18197.91015625 1540.682739257812 M 18199.169921875 1538.522338867188 L 18219.83203125 1587.500122070312 L 18202.46484375 1644.809204101562 L 18140.55859375 1639.67041015625 L 18099.189453125 1587.500122070312 L 18143.541015625 1545.010131835938 L 18199.169921875 1538.522338867188 Z" stroke="none" fill="#538eb4"/>
        </g>
        <g id="グループ_9406" data-name="グループ 9406" transform="translate(0.002)" opacity="0.497">
          <path id="パス_5415" data-name="パス 5415" d="M18423.389,1255.383h214" transform="translate(-18054.391 1680)" fill="none" stroke="#cacaca" stroke-width="1"/>
          <path id="パス_5416" data-name="パス 5416" d="M18423.391,1255.383h213" transform="translate(-7702.158 -13739.848) rotate(60)" fill="none" stroke="#cacaca" stroke-width="1"/>
          <path id="パス_5417" data-name="パス 5417" d="M18423.391,1255.383h213" transform="translate(10828.051 -12484.649) rotate(120)" fill="none" stroke="#cacaca" stroke-width="1"/>
          <g id="楕円形_33" data-name="楕円形 33" transform="translate(455 2914)" fill="none" stroke="#cacaca" stroke-width="1">
            <circle cx="21" cy="21" r="21" stroke="none"/>
            <circle cx="21" cy="21" r="20.5" fill="none"/>
          </g>
          <g id="楕円形_34" data-name="楕円形 34" transform="translate(434 2893)" fill="none" stroke="#cacaca" stroke-width="1">
            <circle cx="42" cy="42" r="42" stroke="none"/>
            <circle cx="42" cy="42" r="41.5" fill="none"/>
          </g>
          <g id="楕円形_35" data-name="楕円形 35" transform="translate(411 2870)" fill="none" stroke="#cacaca" stroke-width="1">
            <circle cx="65" cy="65" r="65" stroke="none"/>
            <circle cx="65" cy="65" r="64.5" fill="none"/>
          </g>
          <g id="楕円形_36" data-name="楕円形 36" transform="translate(390 2849)" fill="none" stroke="#cacaca" stroke-width="1">
            <circle cx="86" cy="86" r="86" stroke="none"/>
            <circle cx="86" cy="86" r="85.5" fill="none"/>
          </g>
        </g>
        <g id="グループ_9405" data-name="グループ 9405" transform="translate(-1 4)">
          <rect id="長方形_23157" data-name="長方形 23157" width="87" height="32" rx="16" transform="translate(434 2771)" fill="#323232"/>
          <path id="パス_6587" data-name="パス 6587" d="M-16.686-12.186c0-1.314-.324-1.71-1.512-1.71h-.162l-2.3.054a.816.816,0,0,0-.792.864.791.791,0,0,0,.792.81h.036l1.692-.054h.072c.378,0,.468.144.468.54V-.522c0,.5.342.756.846.756a.763.763,0,0,0,.864-.774ZM.54-9.108a1.276,1.276,0,0,0-1.458-1.44H-5.4a1.276,1.276,0,0,0-1.458,1.44v4.356A1.276,1.276,0,0,0-5.4-3.312H-.918A1.276,1.276,0,0,0,.54-4.752ZM-1.4-9.36c.4,0,.576.126.576.54v3.762c0,.414-.18.54-.576.54H-4.9c-.4,0-.594-.126-.594-.54V-8.82c0-.414.2-.54.594-.54Zm5.94-3.492c0-1.134-.576-1.656-1.71-1.656H-9.09c-1.134,0-1.71.522-1.71,1.656V-.846C-10.8.288-10.224.81-9.09.81H2.826C3.96.81,4.536.288,4.536-.846ZM-8.586-.468c-.63,0-.81-.18-.81-.7V-12.528c0-.522.18-.7.81-.7H2.322c.612,0,.81.18.81.7V-1.17c0,.522-.2.7-.81.7ZM21.06-12.744c0-1.224-.558-1.674-1.836-1.674h-8.73c-1.26,0-1.818.45-1.818,1.692V-.936c0,1.224.558,1.674,1.818,1.674h8.73C20.5.738,21.06.306,21.06-.918Zm-1.4,2.88H10.08v-2.664c0-.432.18-.558.612-.558h8.352c.432,0,.612.126.612.558Zm0,4.554H10.08V-8.532h9.576ZM10.08-3.978h9.576v2.826c0,.432-.18.558-.612.558H10.692c-.432,0-.612-.126-.612-.558Z" transform="translate(478 2794)" fill="#fff"/>
        </g>
      </g>
    </g>
    <g id="グループ_9408" data-name="グループ 9408" transform="translate(470 1278.25)">
      <path id="パス_6596" data-name="パス 6596" d="M3.724-5.362A20.366,20.366,0,0,0,10.976-7.7a.571.571,0,0,0,.294-.5.665.665,0,0,0-.1-.35.612.612,0,0,0-.518-.308.665.665,0,0,0-.35.1A19.194,19.194,0,0,1,3.738-6.538v-3.794c0-.378-.224-.532-.6-.532-.336,0-.6.154-.6.532v7.308C2.534-.378,3.122.14,6.524.14A28.067,28.067,0,0,0,11.27-.2a.58.58,0,0,0,.518-.6V-.9a.515.515,0,0,0-.532-.5.682.682,0,0,0-.168.014,25.759,25.759,0,0,1-4.3.364c-2.758,0-3.066-.112-3.066-1.918Zm6.524-5.754a.517.517,0,0,0,.14.336,9.227,9.227,0,0,1,1.106,1.526.373.373,0,0,0,.364.238.429.429,0,0,0,.462-.392.71.71,0,0,0-.1-.364,8.688,8.688,0,0,0-1.2-1.568.458.458,0,0,0-.364-.154A.412.412,0,0,0,10.248-11.116Zm1.666-.742a.43.43,0,0,0,.168.364,8.5,8.5,0,0,1,1.05,1.484.394.394,0,0,0,.364.224.43.43,0,0,0,.434-.392.755.755,0,0,0-.084-.35A8.218,8.218,0,0,0,12.7-12.054a.522.522,0,0,0-.378-.168A.422.422,0,0,0,11.914-11.858Zm8.722,2.772a19.5,19.5,0,0,0-3.122-1.61.847.847,0,0,0-.308-.056.6.6,0,0,0-.518.322.533.533,0,0,0-.1.308.478.478,0,0,0,.322.462,20.228,20.228,0,0,1,3.066,1.624.545.545,0,0,0,.322.1.608.608,0,0,0,.546-.322.65.65,0,0,0,.084-.322A.628.628,0,0,0,20.636-9.086ZM16.352-7.294a.778.778,0,0,0-.294-.056.515.515,0,0,0-.476.322.619.619,0,0,0-.1.336.462.462,0,0,0,.308.434,20.216,20.216,0,0,1,3.15,1.708.645.645,0,0,0,.378.126.6.6,0,0,0,.532-.294.891.891,0,0,0,.1-.378.571.571,0,0,0-.28-.49A22.539,22.539,0,0,0,16.352-7.294Zm9.8-.91a.655.655,0,0,0-.224-.028.54.54,0,0,0-.532.476A9.171,9.171,0,0,1,22.064-2.73,11.52,11.52,0,0,1,16.24-.77a.525.525,0,0,0-.56.546.238.238,0,0,0,.014.1.581.581,0,0,0,.63.574h.084a12.665,12.665,0,0,0,6.328-2.156A10.622,10.622,0,0,0,26.558-7.42a1.4,1.4,0,0,0,.028-.224A.568.568,0,0,0,26.152-8.2Zm-1.946-2.73a.517.517,0,0,0,.14.336,9.227,9.227,0,0,1,1.106,1.526.373.373,0,0,0,.364.238.429.429,0,0,0,.462-.392.71.71,0,0,0-.1-.364,8.688,8.688,0,0,0-1.2-1.568.458.458,0,0,0-.364-.154A.412.412,0,0,0,24.206-10.934Zm1.582-.854a.43.43,0,0,0,.168.364,8.5,8.5,0,0,1,1.05,1.484.394.394,0,0,0,.364.224.43.43,0,0,0,.434-.392.755.755,0,0,0-.084-.35,8.218,8.218,0,0,0-1.148-1.526.522.522,0,0,0-.378-.168A.422.422,0,0,0,25.788-11.788ZM35.462-9.52v-1.456c0-.336-.266-.5-.6-.5s-.6.168-.6.5V-9.52h-3.99a.49.49,0,0,0-.462.546.49.49,0,0,0,.462.546h7.588c.2,0,.308.056.308.168,0,.07-.056.168-.2.294A24.425,24.425,0,0,1,29.386-3.43a.5.5,0,0,0-.42.5.819.819,0,0,0,.028.182.563.563,0,0,0,.56.42.628.628,0,0,0,.154-.014,18.52,18.52,0,0,0,4.606-1.974l.042.014c-.042.42-.056.98-.056,1.456V.322c0,.336.252.5.588.5s.6-.168.6-.5V-3.584a5.11,5.11,0,0,0-.042-.882l.028-.014a4.583,4.583,0,0,0,.616.308,39.1,39.1,0,0,1,4.032,2.058.6.6,0,0,0,.308.084.586.586,0,0,0,.518-.336.65.65,0,0,0,.084-.322.608.608,0,0,0-.308-.5,29.542,29.542,0,0,0-4.662-2.1,14.675,14.675,0,0,0,3-2.17,1.636,1.636,0,0,0,.532-1.078.821.821,0,0,0-.056-.322A1.055,1.055,0,0,0,38.43-9.52Zm15.82.322c.35,0,.5.1.5.308a1.042,1.042,0,0,1-.07.308,11.841,11.841,0,0,1-3.164,4.55,15.711,15.711,0,0,1-4.97,3.024.644.644,0,0,0-.42.6.654.654,0,0,0,.042.238.513.513,0,0,0,.518.35.962.962,0,0,0,.336-.07A15.569,15.569,0,0,0,49.98-3.766a23.014,23.014,0,0,1,3.7,3.528.672.672,0,0,0,.5.224.657.657,0,0,0,.49-.21.674.674,0,0,0,.182-.448.781.781,0,0,0-.2-.49,24.924,24.924,0,0,0-3.892-3.486,13.148,13.148,0,0,0,2.226-3.64,2.657,2.657,0,0,0,.154-.812,1.366,1.366,0,0,0-.182-.7,1.387,1.387,0,0,0-1.246-.56l-7.126.07a.5.5,0,0,0-.518.56c0,.378.182.616.518.616ZM66.7-8.82c.35,0,.518.112.518.336a.893.893,0,0,1-.126.392,12.535,12.535,0,0,1-4.312,4.3,29.189,29.189,0,0,0-2.66-2.618.734.734,0,0,0-.448-.182.552.552,0,0,0-.378.154.53.53,0,0,0-.238.42.554.554,0,0,0,.21.406A33.448,33.448,0,0,1,64.092-.1a.676.676,0,0,0,.546.322.648.648,0,0,0,.35-.112A.741.741,0,0,0,65.3-.462a.616.616,0,0,0-.112-.364A22.757,22.757,0,0,0,63.546-2.87a14.761,14.761,0,0,0,4.83-4.886,2.07,2.07,0,0,0,.28-.994,1.236,1.236,0,0,0-.238-.742,1.456,1.456,0,0,0-1.232-.518L57.694-10c-.28,0-.476.266-.476.6s.182.588.476.588ZM77.014-6.678A6.793,6.793,0,0,1,75.95-2.59,5.816,5.816,0,0,1,72.8-.574a.5.5,0,0,0-.434.5.711.711,0,0,0,.042.238.535.535,0,0,0,.546.406,1.1,1.1,0,0,0,.2-.028A7.287,7.287,0,0,0,76.9-1.792c.84-1.078,1.246-2.282,1.344-4.886h4.228c.294,0,.434-.252.434-.574s-.14-.56-.448-.56H78.274v-2.9c0-.392-.252-.574-.63-.574s-.616.182-.616.56v2.912h-5.39c-.308,0-.448.252-.448.56s.14.574.448.574h5.376ZM96.32-4.606c.35,0,.546-.224.546-.6a.557.557,0,0,0-.56-.63H85.68a.557.557,0,0,0-.56.63c0,.378.2.6.546.6Z" transform="translate(529 2836)"/>
      <path id="パス_6597" data-name="パス 6597" d="M8.19-6.412c.028-.854.028-1.764.028-2.7A23.2,23.2,0,0,0,11.578-10a.532.532,0,0,0,.364-.5.752.752,0,0,0-.07-.294.573.573,0,0,0-.5-.308.607.607,0,0,0-.266.056,21.566,21.566,0,0,1-3.962.98,31.866,31.866,0,0,1-4.69.448.5.5,0,0,0-.476.532v.056a.5.5,0,0,0,.56.49,39.668,39.668,0,0,0,4.48-.392c0,.812,0,1.708-.028,2.52H1.568a.481.481,0,0,0-.518.532.493.493,0,0,0,.5.56H6.93c-.014.126-.014.266-.028.406-.2,2.562-1.638,3.766-3.7,4.438A.576.576,0,0,0,2.814.1.607.607,0,0,0,2.87.364a.489.489,0,0,0,.476.322A.847.847,0,0,0,3.654.63,5.8,5.8,0,0,0,8.106-4.648q.021-.315.042-.672H12.5a.5.5,0,0,0,.518-.56.481.481,0,0,0-.518-.532ZM26.32-4.606c.35,0,.546-.224.546-.6a.557.557,0,0,0-.56-.63H15.68a.557.557,0,0,0-.56.63c0,.378.2.6.546.6ZM31.066-1.6a55.683,55.683,0,0,0,3.346-8.848.826.826,0,0,0,.028-.2.6.6,0,0,0-.518-.6.8.8,0,0,0-.182-.014c-.28,0-.462.14-.56.49A52.853,52.853,0,0,1,29.764-1.54h-.5c-.168,0-.336,0-.5.014a.546.546,0,0,0-.518.616v.07a.563.563,0,0,0,.6.56H28.9a71.817,71.817,0,0,0,9.716-1.008c.21.476.364.826.5,1.232a.508.508,0,0,0,.49.35.667.667,0,0,0,.28-.056.6.6,0,0,0,.448-.574A.967.967,0,0,0,40.25-.7a36.458,36.458,0,0,0-3.29-6.286.676.676,0,0,0-.546-.308.667.667,0,0,0-.28.056.5.5,0,0,0-.28.462.588.588,0,0,0,.084.294,41.83,41.83,0,0,1,2.254,4.13A55.123,55.123,0,0,1,31.066-1.6ZM44.1-10.458a1.344,1.344,0,0,0-1.54,1.47v2.9a.572.572,0,0,0,.63.56.568.568,0,0,0,.616-.56V-8.722c0-.476.154-.588.686-.588h6.636c.532,0,.728.168.728.63v.042a8.406,8.406,0,0,1-1.582,5.166A8,8,0,0,1,45.78-.756a.538.538,0,0,0-.476.532,1.081,1.081,0,0,0,.028.21.591.591,0,0,0,.6.448,1.543,1.543,0,0,0,.252-.028A9.094,9.094,0,0,0,51.03-2.436a9.647,9.647,0,0,0,2.086-6.188V-8.75c0-1.12-.574-1.708-1.834-1.708ZM67.06-4.606c.35,0,.546-.224.546-.6a.557.557,0,0,0-.56-.63H56.42a.557.557,0,0,0-.56.63c0,.378.2.6.546.6ZM78.876-8.47h.056c.392,0,.532.126.532.392a1.731,1.731,0,0,1-.028.252C78.6-4.032,76.09-1.54,72-.462A.535.535,0,0,0,71.54.07a1.081,1.081,0,0,0,.028.21.561.561,0,0,0,.574.406A.682.682,0,0,0,72.31.672a10.641,10.641,0,0,0,8.4-8.316,2.458,2.458,0,0,0,.056-.532,1.3,1.3,0,0,0-1.456-1.4l-4.382.084a5.753,5.753,0,0,0,.546-1.148.819.819,0,0,0,.028-.182.514.514,0,0,0-.434-.5.941.941,0,0,0-.252-.042.555.555,0,0,0-.546.406,9.979,9.979,0,0,1-3.724,4.774.6.6,0,0,0-.294.518.624.624,0,0,0,.112.364.626.626,0,0,0,.476.252.734.734,0,0,0,.364-.112A11.236,11.236,0,0,0,74.368-8.4Z" transform="translate(589 2940)"/>
      <path id="パス_6598" data-name="パス 6598" d="M2.674-10c-.378,0-.546.238-.546.616s.168.574.532.574h7.35c.546,0,.686.14.686.644v5.81c0,.5-.14.658-.686.658H2.436c-.378,0-.546.21-.546.588a.528.528,0,0,0,.532.6H10.36c1.078,0,1.6-.574,1.6-1.694v-6.09c0-1.12-.518-1.708-1.6-1.708Zm14.938-.98h-.1a.583.583,0,0,0-.574.462.8.8,0,0,0-.014.182.5.5,0,0,0,.448.532A48.7,48.7,0,0,1,24.85-8.316a.793.793,0,0,0,.252.042.509.509,0,0,0,.518-.448.8.8,0,0,0,.014-.182.551.551,0,0,0-.406-.56A48.857,48.857,0,0,0,17.612-10.976ZM17.374-7.07h-.1a.543.543,0,0,0-.56.476.945.945,0,0,0-.028.2.469.469,0,0,0,.434.5A46.8,46.8,0,0,1,24.36-4.382a.634.634,0,0,0,.224.042.526.526,0,0,0,.532-.476A.8.8,0,0,0,25.13-5a.535.535,0,0,0-.406-.546A57.734,57.734,0,0,0,17.374-7.07ZM16.38-3h-.1a.566.566,0,0,0-.56.448,1.081,1.081,0,0,0-.028.21.517.517,0,0,0,.448.532A55.005,55.005,0,0,1,25.186.35a.7.7,0,0,0,.224.042.561.561,0,0,0,.532-.476.826.826,0,0,0,.028-.2.562.562,0,0,0-.406-.56A59.685,59.685,0,0,0,16.38-3ZM36.974-1.162A41.927,41.927,0,0,0,37.842-6.3a1.06,1.06,0,0,0,.014-.21,1.2,1.2,0,0,0-.28-.84,1.11,1.11,0,0,0-.882-.336H31.64c-.266,0-.434.252-.434.56a.469.469,0,0,0,.434.518h4.578c.35,0,.448.084.448.336v.126A34.35,34.35,0,0,1,35.8-1.162H30.6a.472.472,0,0,0-.462.518.511.511,0,0,0,.462.56h8.722c.294,0,.434-.266.434-.56s-.14-.518-.434-.518Zm7.938-8.554a.582.582,0,0,0-.518.63.566.566,0,0,0,.518.63h8.232a.565.565,0,0,0,.5-.63.582.582,0,0,0-.518-.63ZM43.75-1.974a.582.582,0,0,0-.518.63.578.578,0,0,0,.5.644h10.57c.322,0,.5-.308.5-.644a.572.572,0,0,0-.518-.63ZM67.984-7.812c.35,0,.518-.21.518-.56a.478.478,0,0,0-.532-.546H60.186a11.752,11.752,0,0,0,.756-1.862.525.525,0,0,0,.014-.14.542.542,0,0,0-.462-.518.963.963,0,0,0-.182-.028.552.552,0,0,0-.518.42A8.689,8.689,0,0,1,59.4-10a10.452,10.452,0,0,1-2.842,4.06.608.608,0,0,0-.238.476.614.614,0,0,0,.182.434.575.575,0,0,0,.406.182.708.708,0,0,0,.434-.168,9.961,9.961,0,0,0,2.352-2.8h4.242C63.784-3.962,62.048-1.68,59-.546a.571.571,0,0,0-.42.546.748.748,0,0,0,.07.28.557.557,0,0,0,.532.336,1.046,1.046,0,0,0,.28-.042c3.654-1.316,5.572-4.242,5.7-8.386ZM81.06-4.606c.35,0,.546-.224.546-.6a.557.557,0,0,0-.56-.63H70.42a.557.557,0,0,0-.56.63c0,.378.2.6.546.6Zm8.47-4.648a19.5,19.5,0,0,0-3.122-1.61.847.847,0,0,0-.308-.056.6.6,0,0,0-.518.322.575.575,0,0,0-.1.322.474.474,0,0,0,.322.448A20.228,20.228,0,0,1,88.872-8.2a.545.545,0,0,0,.322.1.608.608,0,0,0,.546-.322.65.65,0,0,0,.084-.322A.628.628,0,0,0,89.53-9.254ZM85.246-7.462a.778.778,0,0,0-.294-.056.515.515,0,0,0-.476.322.619.619,0,0,0-.1.336.462.462,0,0,0,.308.434,20.05,20.05,0,0,1,3.136,1.708.72.72,0,0,0,.392.126.611.611,0,0,0,.518-.294.742.742,0,0,0,.112-.378.557.557,0,0,0-.294-.49A22.394,22.394,0,0,0,85.246-7.462Zm9.8-.91a1.4,1.4,0,0,0-.224-.028.54.54,0,0,0-.532.476A9.171,9.171,0,0,1,90.958-2.9a11.52,11.52,0,0,1-5.824,1.96.525.525,0,0,0-.56.546v.1a.6.6,0,0,0,.644.574h.07A12.716,12.716,0,0,0,91.63-1.876a10.622,10.622,0,0,0,3.822-5.712,1.4,1.4,0,0,0,.028-.224A.568.568,0,0,0,95.046-8.372Zm11.48,3.7h-6.188c-.28,0-.42.238-.42.532s.14.518.42.518h6.188v2.24c0,.392-.112.5-.518.5H99.862c-.294,0-.434.224-.434.532,0,.28.14.518.434.518h6.566a1.117,1.117,0,0,0,1.218-1.274V-7a1.111,1.111,0,0,0-1.218-1.274H99.974c-.28,0-.434.224-.434.518s.154.532.434.532h6.034c.406,0,.518.126.518.5Zm7.182-5.46a.754.754,0,0,0-.42-.14.548.548,0,0,0-.448.21.638.638,0,0,0-.154.406.544.544,0,0,0,.224.448,16.627,16.627,0,0,1,2.926,2.562.721.721,0,0,0,.518.266.574.574,0,0,0,.434-.2.718.718,0,0,0,.2-.476.715.715,0,0,0-.168-.448A13.8,13.8,0,0,0,113.708-10.136Zm9.38,1.022a1.081,1.081,0,0,0-.21-.028c-.252,0-.462.154-.56.532a9.972,9.972,0,0,1-3.36,5.39,11.328,11.328,0,0,1-5.852,1.988.575.575,0,0,0-.56.616v.07a.6.6,0,0,0,.658.56h.028a12.331,12.331,0,0,0,6.454-2.184,10.891,10.891,0,0,0,3.85-6.118,1.543,1.543,0,0,0,.028-.252A.582.582,0,0,0,123.088-9.114Z" transform="translate(530 3045)"/>
      <path id="パス_6599" data-name="パス 6599" d="M-35.546-9.66a12.19,12.19,0,0,0,.686-1.526.562.562,0,0,0,.042-.21c0-.2-.14-.35-.406-.42a1.543,1.543,0,0,0-.252-.028.515.515,0,0,0-.518.308,13.717,13.717,0,0,1-.742,1.876H-39.55c-.882,0-1.26.364-1.26,1.274V.6c0,.252.224.406.546.406S-39.69.854-39.69.6V-8.106c0-.406.14-.546.63-.546h8.134c.49,0,.644.154.644.56V-.77c0,.49-.168.63-.728.63a7.242,7.242,0,0,1-1.274-.14.476.476,0,0,0-.14-.014A.45.45,0,0,0-32.886.1.861.861,0,0,0-32.9.28a.446.446,0,0,0,.392.476A9.265,9.265,0,0,0-30.87.91c1.134,0,1.68-.392,1.68-1.358V-8.372c0-.924-.392-1.288-1.288-1.288ZM-36.6-6.944c-.84,0-1.218.308-1.218,1.148V-3c0,.84.378,1.134,1.218,1.134H-33.5c.84,0,1.218-.294,1.218-1.134V-5.8c0-.84-.378-1.148-1.218-1.148Zm.224,4.116c-.252,0-.406-.084-.406-.378V-5.614c0-.294.154-.364.406-.364h2.632c.252,0,.42.07.42.364v2.408c0,.294-.168.378-.42.378ZM-20.86-.6V-6.146H-16.2c.266,0,.434-.252.434-.56s-.168-.532-.434-.532H-20.86V-11.1c0-.294-.224-.462-.56-.462s-.588.168-.588.462V-.6h-4.914c-.28,0-.434.238-.434.532s.154.56.434.56h11.83c.28,0,.434-.266.434-.56S-14.812-.6-15.092-.6Zm8.834-6.174a14.386,14.386,0,0,1-1.5,4.886.752.752,0,0,0-.07.294.59.59,0,0,0,.308.5.735.735,0,0,0,.322.084.555.555,0,0,0,.5-.322,17.661,17.661,0,0,0,1.568-5.25v-.1a.5.5,0,0,0-.476-.518h-.112A.493.493,0,0,0-12.026-6.776ZM-9.716-.49c0,.952.392,1.316,2.436,1.358h.364A6.508,6.508,0,0,0-4.34.49a1.476,1.476,0,0,0,.7-.6A6.341,6.341,0,0,0-3.15-2.87.511.511,0,0,0-3.7-3.4h-.042a.472.472,0,0,0-.532.476,5.807,5.807,0,0,1-.336,2.17c-.2.336-.686.546-2.212.546-1.68,0-1.75-.112-1.75-.616V-8.26c0-.252-.2-.42-.574-.42-.35,0-.574.168-.574.42Zm.91-11.144a.945.945,0,0,0-.2-.028.56.56,0,0,0-.5.378.649.649,0,0,0-.056.266.429.429,0,0,0,.322.434A20.33,20.33,0,0,1-5.39-8.778a.677.677,0,0,0,.378.126.523.523,0,0,0,.476-.308.646.646,0,0,0,.112-.364.566.566,0,0,0-.294-.49A21.292,21.292,0,0,0-8.806-11.634Zm5.5,4.34a.484.484,0,0,0-.322.434.57.57,0,0,0,.07.252A23.123,23.123,0,0,1-1.512-1.862a.491.491,0,0,0,.49.392.607.607,0,0,0,.266-.056.579.579,0,0,0,.392-.546.951.951,0,0,0-.042-.266A23.058,23.058,0,0,0-2.548-7.1.486.486,0,0,0-3-7.364.883.883,0,0,0-3.3-7.294Z" transform="translate(422 3045)"/>
      <path id="パス_6600" data-name="パス 6600" d="M-34.594-7.784v-.784h4.34a.36.36,0,0,0,.336-.406.36.36,0,0,0-.336-.406h-4.34v-.728h4.956c.224,0,.35-.168.35-.42s-.126-.42-.35-.42h-4.956v-.588c0-.266-.2-.406-.5-.406s-.5.14-.5.406v.588h-4.816a.383.383,0,0,0-.35.42c0,.252.14.42.35.42H-35.6v.728h-4.186a.368.368,0,0,0-.336.406c0,.238.126.406.336.406H-35.6v.784h-5.446a.363.363,0,0,0-.35.406.389.389,0,0,0,.35.434h12.082c.224,0,.35-.2.35-.434s-.126-.406-.35-.406ZM-38.57-6.272c-.84,0-1.19.294-1.19,1.008v3.3c0,.728.35,1.022,1.19,1.022h7.126c.854,0,1.19-.294,1.19-1.008V-5.264c0-.714-.336-1.008-1.19-1.008Zm-.182,1.512v-.448c0-.238.126-.308.392-.308h6.706c.266,0,.392.07.392.308v.448Zm7.49,1.54h-7.49V-4h7.49Zm0,.742V-2c0,.238-.126.308-.392.308H-38.36c-.266,0-.392-.07-.392-.308v-.476ZM-37.24-.588a14.859,14.859,0,0,1-3.752.812.436.436,0,0,0-.392.462v.1a.48.48,0,0,0,.5.434h.056A15.752,15.752,0,0,0-36.708.252a.451.451,0,0,0,.266-.42.477.477,0,0,0-.1-.308.5.5,0,0,0-.392-.182A.763.763,0,0,0-37.24-.588Zm4.41.014a.731.731,0,0,0-.294-.056.524.524,0,0,0-.406.182.482.482,0,0,0-.112.294.439.439,0,0,0,.28.406,17.421,17.421,0,0,0,4.27.952h.056a.484.484,0,0,0,.462-.462V.658a.41.41,0,0,0-.392-.434A19.369,19.369,0,0,1-32.83-.574ZM-18.858-5.81v-3.5a23.658,23.658,0,0,0,3.15-1.078.516.516,0,0,0,.336-.476.588.588,0,0,0-.084-.294.509.509,0,0,0-.476-.294.912.912,0,0,0-.364.084,22.145,22.145,0,0,1-6.79,1.876.479.479,0,0,0-.462.518v.07a.471.471,0,0,0,.49.462.388.388,0,0,0,.126-.014c.994-.14,2-.336,2.982-.574v3.22h-3.808c-.238,0-.406.21-.406.5s.168.518.406.518h3.808V-.546h-3.262c-.252,0-.406.224-.406.5s.154.5.406.5h7.924c.238,0,.392-.21.392-.5s-.154-.5-.392-.5h-3.57V-4.788h4c.238,0,.406-.224.406-.518s-.168-.5-.406-.5ZM-25.914.714c0,.266.224.406.532.406.336,0,.56-.14.56-.406V-8.3a19.212,19.212,0,0,0,1.232-2.8.7.7,0,0,0,.028-.168.473.473,0,0,0-.406-.448.777.777,0,0,0-.238-.042.451.451,0,0,0-.462.336,14.577,14.577,0,0,1-2.926,5.376.577.577,0,0,0-.14.378.545.545,0,0,0,.2.42.6.6,0,0,0,.322.112.676.676,0,0,0,.49-.252,7.408,7.408,0,0,0,.938-1.372,18.639,18.639,0,0,0-.126,1.946ZM-4.8-10.528c-.028-.294-.028-.6-.042-.924,0-.28-.2-.42-.5-.42s-.49.168-.49.434c0,.308.014.616.042.91h-5.558A.964.964,0,0,0-12.46-9.436v1.19a9.5,9.5,0,0,1-.84,4.69.891.891,0,0,0-.1.336.484.484,0,0,0,.238.392.778.778,0,0,0,.364.112.52.52,0,0,0,.49-.336,11.214,11.214,0,0,0,.882-4.928V-9.212c0-.308.14-.378.406-.378h5.292A14.871,14.871,0,0,0-5.04-6.44c.126.35.266.672.406.98A8.482,8.482,0,0,1-6.286-3.976a.485.485,0,0,0-.2.378.489.489,0,0,0,.112.308.48.48,0,0,0,.364.2.594.594,0,0,0,.35-.14A9.426,9.426,0,0,0-4.144-4.606a4.747,4.747,0,0,0,1.26,1.274,1.886,1.886,0,0,0,1.008.378A.882.882,0,0,0-1.092-3.4a4.578,4.578,0,0,0,.56-1.666A.348.348,0,0,0-.518-5.18.406.406,0,0,0-.91-5.6H-.994a.432.432,0,0,0-.448.392,4.063,4.063,0,0,1-.294,1.022.276.276,0,0,1-.238.2.846.846,0,0,1-.434-.21A4.4,4.4,0,0,1-3.486-5.39,13.594,13.594,0,0,0-1.96-8.022a.7.7,0,0,0,.042-.224.445.445,0,0,0-.322-.42.5.5,0,0,0-.238-.056.408.408,0,0,0-.392.308A11.368,11.368,0,0,1-3.962-6.328a4.2,4.2,0,0,1-.2-.5A11.533,11.533,0,0,1-4.732-9.59H-1.19c.252,0,.378-.224.378-.476s-.154-.462-.378-.462h-.966a.407.407,0,0,0,.238-.2.383.383,0,0,0,.056-.2.479.479,0,0,0-.224-.378,6.14,6.14,0,0,0-1.3-.588,1.456,1.456,0,0,0-.21-.028.433.433,0,0,0-.392.238.4.4,0,0,0-.056.21.4.4,0,0,0,.28.35,13.123,13.123,0,0,1,1.19.56c.028.014.042.014.07.028Zm-2.6,7.42a.54.54,0,0,0-.28-.084.452.452,0,0,0-.392.21.515.515,0,0,0-.112.294.416.416,0,0,0,.224.35A16.786,16.786,0,0,1-6.342-1.2a.493.493,0,0,0,.322.126.533.533,0,0,0,.392-.2A.561.561,0,0,0-5.516-1.6a.489.489,0,0,0-.2-.392A12.226,12.226,0,0,0-7.406-3.108ZM-12-2.324a8.552,8.552,0,0,1-1.246,2.24.561.561,0,0,0-.112.322.485.485,0,0,0,.224.392.6.6,0,0,0,.364.126.525.525,0,0,0,.42-.2,9.394,9.394,0,0,0,1.316-2.478.777.777,0,0,0,.042-.238.462.462,0,0,0-.322-.434.793.793,0,0,0-.252-.042A.449.449,0,0,0-12-2.324Zm8.722.5A15.074,15.074,0,0,1-1.848.238a.517.517,0,0,0,.434.28A.493.493,0,0,0-1.12.42.474.474,0,0,0-.84,0,.58.58,0,0,0-.924-.28,13.661,13.661,0,0,0-2.478-2.436a.545.545,0,0,0-.42-.2.493.493,0,0,0-.294.1.479.479,0,0,0-.224.378A.5.5,0,0,0-3.276-1.82ZM-9.8-6.986c-.658,0-.91.252-.91.91v1.3c0,.658.252.91.91.91h2.576c.644,0,.91-.252.91-.91v-1.3c0-.658-.252-.91-.91-.91Zm2.282.784c.182,0,.308.07.308.308v.938c0,.238-.126.308-.308.308H-9.506c-.182,0-.308-.07-.308-.308v-.938c0-.238.126-.308.308-.308ZM-6.3-7.812c.224,0,.336-.182.336-.434s-.112-.42-.336-.42h-4.438c-.224,0-.336.182-.336.42s.112.434.336.434Zm-3.71,7.6c0,.77.238,1.078,1.162,1.148.5.042,1.232.07,1.946.07A14.785,14.785,0,0,0-5,.91,1.331,1.331,0,0,0-3.836.21a3.825,3.825,0,0,0,.28-1.148V-.994c0-.252-.168-.406-.462-.434H-4.1a.412.412,0,0,0-.462.406,1.972,1.972,0,0,1-.21.8C-4.9-.042-5.152.084-6.93.084c-1.946,0-2.044-.056-2.044-.5V-2.38c0-.252-.21-.406-.518-.406s-.518.154-.518.406Z" transform="translate(363 2940)"/>
      <path id="パス_6595" data-name="パス 6595" d="M-47.824-9.632a22.635,22.635,0,0,0-6.65,1.092.634.634,0,0,0-.462.6.945.945,0,0,0,.028.2.556.556,0,0,0,.56.448.712.712,0,0,0,.28-.056,20.686,20.686,0,0,1,6.3-1.106c2.128,0,3.234,1.134,3.234,2.786a3.345,3.345,0,0,1-2.1,3.22,12.771,12.771,0,0,1-4.8.812.556.556,0,0,0-.6.616V-.98c.014.378.266.588.714.588a14.107,14.107,0,0,0,5.152-.91A4.553,4.553,0,0,0-43.3-5.67C-43.3-7.994-44.828-9.632-47.824-9.632Zm15.442.056a.793.793,0,0,0-.252-.042.6.6,0,0,0-.518.294A.65.65,0,0,0-33.236-9a.426.426,0,0,0,.266.42,15.179,15.179,0,0,1,2.926,1.54.648.648,0,0,0,.35.112.582.582,0,0,0,.476-.266.65.65,0,0,0,.084-.322.616.616,0,0,0-.28-.518A15.494,15.494,0,0,0-32.382-9.576Zm-4.8,1.54c.84-.07,1.666-.14,2.394-.252a.532.532,0,0,0,.5-.532V-8.9a.492.492,0,0,0-.5-.462.388.388,0,0,0-.126.014c-.588.084-1.246.14-1.932.2.154-.6.294-1.2.42-1.778a.861.861,0,0,0,.014-.182c0-.28-.182-.434-.49-.49a.525.525,0,0,0-.14-.014.478.478,0,0,0-.518.462q-.21,1.071-.5,2.1c-.6.028-1.232.042-1.834.042h-.6a.493.493,0,0,0-.518.546c0,.336.168.546.49.546H-40c.546,0,1.092-.014,1.61-.042a26.649,26.649,0,0,1-2.478,5.53.85.85,0,0,0-.126.42.527.527,0,0,0,.266.462.757.757,0,0,0,.392.126.625.625,0,0,0,.518-.364A31.332,31.332,0,0,0-37.184-8.036Zm5.334,4.76a27.422,27.422,0,0,1-.168-3.178.523.523,0,0,0-.574-.574.509.509,0,0,0-.546.574c0,.91.07,2.016.154,2.8a6.654,6.654,0,0,0-1.736-.238c-1.736,0-2.926.966-2.926,2.31,0,1.316,1.162,2.24,2.912,2.24,1.9,0,2.884-.714,2.954-2.24a2.964,2.964,0,0,0-.028-.476A9.546,9.546,0,0,1-29.988-.6a.663.663,0,0,0,.42.182.587.587,0,0,0,.406-.2.6.6,0,0,0,.154-.392.667.667,0,0,0-.21-.462A9.981,9.981,0,0,0-31.85-3.276Zm-1.05.742a6.337,6.337,0,0,1,.028.7c0,.994-.644,1.442-1.834,1.442-1.148,0-1.834-.434-1.834-1.2s.714-1.3,1.848-1.3A4.413,4.413,0,0,1-32.9-2.534Zm6.356-3.514c0,.28.2.476.574.49A45.376,45.376,0,0,0-20.2-6.02a11.386,11.386,0,0,0,1.848,2.2l-.056.07a7.154,7.154,0,0,0-3.206-.714c-3.038,0-4.368,1.12-4.368,2.632,0,1.61,1.5,2.548,4.368,2.548A13.9,13.9,0,0,0-17.584.182a.548.548,0,0,0,.42-.546,1.081,1.081,0,0,0-.028-.21.491.491,0,0,0-.5-.406.793.793,0,0,0-.252.042,12.652,12.652,0,0,1-3.6.532c-2.24,0-3.234-.476-3.234-1.47,0-.91.756-1.624,3.192-1.624a7.9,7.9,0,0,1,3.556.77,1.492,1.492,0,0,0,.672.224.63.63,0,0,0,.588-.63.736.736,0,0,0-.28-.56A16.729,16.729,0,0,1-19.138-6.2c1.078-.182,2-.378,2.8-.574.294-.1.448-.238.448-.49a.963.963,0,0,0-.028-.182.44.44,0,0,0-.49-.364,1.4,1.4,0,0,0-.224.028c-.952.252-2.03.476-3.122.658a12.359,12.359,0,0,1-.784-1.47c1.064-.182,1.792-.294,2.66-.5a.417.417,0,0,0,.378-.406.777.777,0,0,0-.042-.238A.457.457,0,0,0-18-10.108a.992.992,0,0,0-.2.014,27.013,27.013,0,0,1-2.772.5c-.168-.434-.35-.9-.5-1.358a.524.524,0,0,0-.518-.434,1.4,1.4,0,0,0-.224.028.459.459,0,0,0-.392.448.5.5,0,0,0,.056.238c.168.406.322.826.49,1.2a35.925,35.925,0,0,1-4.018.238.481.481,0,0,0-.5.518.512.512,0,0,0,.56.518,36.345,36.345,0,0,0,4.438-.294,13.731,13.731,0,0,0,.8,1.5,42.657,42.657,0,0,1-5.264.392.453.453,0,0,0-.49.5Zm8.848-5.04a.517.517,0,0,0,.14.336A9.227,9.227,0,0,1-16.45-9.226a.373.373,0,0,0,.364.238.429.429,0,0,0,.462-.392.71.71,0,0,0-.1-.364,8.688,8.688,0,0,0-1.2-1.568.458.458,0,0,0-.364-.154A.412.412,0,0,0-17.7-11.088Zm1.61-.77a.43.43,0,0,0,.168.364,8.5,8.5,0,0,1,1.05,1.484.394.394,0,0,0,.364.224.43.43,0,0,0,.434-.392.755.755,0,0,0-.084-.35A8.218,8.218,0,0,0-15.3-12.054a.522.522,0,0,0-.378-.168A.422.422,0,0,0-16.086-11.858Zm3.948,3.038c-.322,0-.49.21-.49.546a.48.48,0,0,0,.49.546h4.06A10.243,10.243,0,0,1-9.31-3.346,8.215,8.215,0,0,1-12.656-.238a.552.552,0,0,0-.336.5.619.619,0,0,0,.1.336.514.514,0,0,0,.462.28.947.947,0,0,0,.378-.1A9.128,9.128,0,0,0-8.3-2.8,11.825,11.825,0,0,0-6.93-7.728h3.682c.518,0,.658.14.658.672a39.142,39.142,0,0,1-.462,5.922c-.112.574-.406.8-1.106.8A7.691,7.691,0,0,1-6.048-.6a1.081,1.081,0,0,0-.21-.028.506.506,0,0,0-.49.448,1.1,1.1,0,0,0-.028.2A.536.536,0,0,0-6.342.56,8.82,8.82,0,0,0-4.116.826c1.288,0,1.932-.5,2.128-1.5A38.566,38.566,0,0,0-1.47-7.224v-.238c0-.91-.476-1.358-1.5-1.358H-6.846c.042-.728.07-1.54.07-2.436,0-.392-.224-.532-.588-.532-.392,0-.574.14-.574.518,0,.91-.028,1.722-.056,2.45Z" transform="translate(422 2836)"/>
      <path id="パス_5422" data-name="パス 5422" d="M18131.75,1519.492l88.082-14.411,31.182,82.42-27,90.5-98.154-11.926-47.334-78.576Z" transform="translate(-17694 1347)" fill="#ffda2b" opacity="0.752"/>
      <g id="パス_5420-2" data-name="パス 5420" transform="translate(-17694 1347)" fill="none" opacity="0.995">
        <path d="M18131.75,1519.492l88.082-14.411,31.182,82.42-27,90.5-98.154-11.926-47.334-78.576Z" stroke="none"/>
        <path d="M 18218.541015625 1507.318359375 L 18132.84375 1521.33935546875 L 18080.951171875 1587.64794921875 L 18127.0703125 1664.20849609375 L 18222.58203125 1675.812866210938 L 18248.904296875 1587.575805664062 L 18218.541015625 1507.318359375 M 18219.83203125 1505.080444335938 L 18251.013671875 1587.500122070312 L 18224.015625 1678.001831054688 L 18125.861328125 1666.076293945312 L 18078.52734375 1587.500122070312 L 18131.75 1519.49169921875 L 18219.83203125 1505.080444335938 Z" stroke="none" fill="#ffd526"/>
      </g>
      <path id="パス_5419-2" data-name="パス 5419" d="M18137.707,1529.03l73.58-8.63,31.5,67.5-27.086,76.3-83.7-7.375-38.154-68.925Z" transform="translate(-17694 1347)" fill="#538eb4" opacity="0.858"/>
      <path id="パス_5423" data-name="パス 5423" d="M18137.707,1529.03l73.58-8.63,31.5,67.5-27.086,76.3-83.7-7.375-38.154-68.925Z" transform="translate(-17694 1347)" fill="none" stroke="#4983ab" stroke-width="2"/>
      <g id="グループ_9406-2" data-name="グループ 9406" transform="translate(0.002)" opacity="0.503">
        <path id="パス_5415-2" data-name="パス 5415" d="M18423.389,1255.383h214" transform="translate(-18054.391 1680)" fill="none" stroke="#cacaca" stroke-width="1"/>
        <path id="パス_5416-2" data-name="パス 5416" d="M18423.391,1255.383h213" transform="translate(-7702.158 -13739.848) rotate(60)" fill="none" stroke="#cacaca" stroke-width="1"/>
        <path id="パス_5417-2" data-name="パス 5417" d="M18423.391,1255.383h213" transform="translate(10828.051 -12484.649) rotate(120)" fill="none" stroke="#cacaca" stroke-width="1"/>
        <g id="楕円形_33-2" data-name="楕円形 33" transform="translate(455 2914)" fill="none" stroke="#cacaca" stroke-width="1">
          <circle cx="21" cy="21" r="21" stroke="none"/>
          <circle cx="21" cy="21" r="20.5" fill="none"/>
        </g>
        <g id="楕円形_34-2" data-name="楕円形 34" transform="translate(434 2893)" fill="none" stroke="#cacaca" stroke-width="1">
          <circle cx="42" cy="42" r="42" stroke="none"/>
          <circle cx="42" cy="42" r="41.5" fill="none"/>
        </g>
        <g id="楕円形_35-2" data-name="楕円形 35" transform="translate(411 2870)" fill="none" stroke="#cacaca" stroke-width="1">
          <circle cx="65" cy="65" r="65" stroke="none"/>
          <circle cx="65" cy="65" r="64.5" fill="none"/>
        </g>
        <g id="楕円形_36-2" data-name="楕円形 36" transform="translate(390 2849)" fill="none" stroke="#cacaca" stroke-width="1">
          <circle cx="86" cy="86" r="86" stroke="none"/>
          <circle cx="86" cy="86" r="85.5" fill="none"/>
        </g>
      </g>
      <g id="グループ_9405-2" data-name="グループ 9405" transform="translate(-1 4)">
        <rect id="長方形_23157-2" data-name="長方形 23157" width="87" height="32" rx="16" transform="translate(434 2771)" fill="#323232"/>
        <path id="パス_6594" data-name="パス 6594" d="M-18.378-6.354h.108c2.142,0,3.366.918,3.366,2.628,0,1.656-1.35,2.664-3.24,2.664-1.854,0-2.772-.7-3.24-1.872a.773.773,0,0,0-.738-.522,1.344,1.344,0,0,0-.36.054.776.776,0,0,0-.648.72.706.706,0,0,0,.072.324C-22.41-.72-20.9.432-18.18.432c3.132,0,5-1.638,5-4.014a3.252,3.252,0,0,0-3.1-3.6,3.167,3.167,0,0,0,2.664-3.366c0-2.2-1.782-3.618-4.428-3.618-2.79,0-4,1.314-4.536,2.664a.706.706,0,0,0-.072.324.72.72,0,0,0,.576.666,1.533,1.533,0,0,0,.414.072.7.7,0,0,0,.684-.45,2.683,2.683,0,0,1,2.862-1.818c1.728,0,2.808.846,2.808,2.286,0,1.566-1.134,2.52-2.952,2.52H-18.4l-.972-.036c-.45-.018-.684.378-.684.792,0,.432.234.828.684.81ZM.54-9.108a1.276,1.276,0,0,0-1.458-1.44H-5.4a1.276,1.276,0,0,0-1.458,1.44v4.356A1.276,1.276,0,0,0-5.4-3.312H-.918A1.276,1.276,0,0,0,.54-4.752ZM-1.4-9.36c.4,0,.576.126.576.54v3.762c0,.414-.18.54-.576.54H-4.9c-.4,0-.594-.126-.594-.54V-8.82c0-.414.2-.54.594-.54Zm5.94-3.492c0-1.134-.576-1.656-1.71-1.656H-9.09c-1.134,0-1.71.522-1.71,1.656V-.846C-10.8.288-10.224.81-9.09.81H2.826C3.96.81,4.536.288,4.536-.846ZM-8.586-.468c-.63,0-.81-.18-.81-.7V-12.528c0-.522.18-.7.81-.7H2.322c.612,0,.81.18.81.7V-1.17c0,.522-.2.7-.81.7ZM21.06-12.744c0-1.224-.558-1.674-1.836-1.674h-8.73c-1.26,0-1.818.45-1.818,1.692V-.936c0,1.224.558,1.674,1.818,1.674h8.73C20.5.738,21.06.306,21.06-.918Zm-1.4,2.88H10.08v-2.664c0-.432.18-.558.612-.558h8.352c.432,0,.612.126.612.558Zm0,4.554H10.08V-8.532h9.576ZM10.08-3.978h9.576v2.826c0,.432-.18.558-.612.558H10.692c-.432,0-.612-.126-.612-.558Z" transform="translate(478 2794)" fill="#fff"/>
      </g>
      <g id="楕円形_38" data-name="楕円形 38" transform="translate(369.002 2828)" fill="#cacaca" stroke="#cacaca" stroke-width="1" opacity="0.133">
        <circle cx="107" cy="107" r="107" stroke="none"/>
        <circle cx="107" cy="107" r="106.5" fill="none"/>
      </g>
    </g>
    <g id="グループ_9412" data-name="グループ 9412" transform="translate(10 1263.25)">
      <g id="グループ_9410" data-name="グループ 9410" transform="translate(158 -6)">
        <path id="パス_6601" data-name="パス 6601" d="M11.242-7H6.93V-9.73h4.312Zm0,3.766H6.93V-6.02h4.312Zm1.036-7.476H5.922v8.456h6.356ZM5.264-5.67c-.532.154-1.064.322-1.582.476v-2.73H5.376V-8.9H3.682v-2.8H2.66v2.8H.686v.98H2.66v3c-.812.224-1.554.434-2.142.574L.826-3.346,2.66-3.892v3.64c0,.2-.07.266-.266.266C2.226.014,1.624.028.952,0a3.916,3.916,0,0,1,.322.966,4.978,4.978,0,0,0,1.89-.2c.378-.154.518-.434.518-1.022V-4.2c.574-.154,1.148-.336,1.722-.518ZM4.886-.462v.98H13.3v-.98ZM25.2-11.228a20.352,20.352,0,0,1-1.806,3.472l.9.364a30.11,30.11,0,0,0,2-3.458Zm-6.678,3.3A12.966,12.966,0,0,0,16.66-11.1l-.91.378A13.379,13.379,0,0,1,17.528-7.49Zm3.024-3.794h-1.12V-6.79H15.932v1.022h9.1v2.03H16.394V-2.73h8.638V-.56H15.666V.462h9.366v.616H26.11V-6.79H21.546Zm13.076,4.48V-9.03H37.73A22.133,22.133,0,0,1,35.6-7.238Zm3.794,4.662h-5.67V-3.962h5.67ZM32.746-.294V-1.75h5.67V-.294ZM41.188-6.3v-.938H37.156a21.234,21.234,0,0,0,3.4-3.514l-.882-.476a16.4,16.4,0,0,1-1.6,1.848v-.574H34.622V-11.7H33.6v1.75H30.03v.924H33.6v1.792H28.812V-6.3h5.446A27.626,27.626,0,0,1,28.5-3.528a6.063,6.063,0,0,1,.658.854c.854-.322,1.722-.7,2.562-1.106V1.064h1.022V.616h5.67v.392H39.48V-4.844H33.7c.77-.448,1.526-.938,2.254-1.456Zm3.136-3.43.28,1.036c1.078-.014,2.66-.056,4.074-.2v2.548H44.464c-.42,0-.91-.028-1.232-.056v1.162c.336-.028.812-.056,1.26-.056H48.65A5.557,5.557,0,0,1,45.108-.2l1.106.77A6.635,6.635,0,0,0,49.8-5.292H53.7c.35,0,.77.028,1.078.056V-6.4c-.294.028-.8.056-1.106.056H49.812V-9.03c1.008-.154,2.086-.364,2.786-.546.2-.056.476-.126.784-.21l-.742-.966a18.985,18.985,0,0,1-3.612.812A33.8,33.8,0,0,1,44.324-9.73ZM58.856-7.238v1.12c.294-.028.742-.042.966-.042H62.4v5.152h-3.22a8.13,8.13,0,0,1-1.008-.07V.1c.336-.028.7-.042,1.008-.042H66.92c.224,0,.658.014.938.042V-1.078a6.4,6.4,0,0,1-.938.07H63.532V-6.16h2.73c.322,0,.686.014.994.042v-1.12c-.294.028-.644.056-.994.056h-6.44A8.221,8.221,0,0,1,58.856-7.238Zm17.906-.826-1.022.35a26.39,26.39,0,0,1,1.092,3.038l1.036-.364C77.686-5.656,77-7.5,76.762-8.064Zm5.068.784-1.2-.378A9.6,9.6,0,0,1,78.694-2.87,9.427,9.427,0,0,1,74.144.112l.924.938a10.668,10.668,0,0,0,4.564-3.332,10.973,10.973,0,0,0,1.988-4.3C81.676-6.762,81.732-6.986,81.83-7.28Zm-8.316-.084-1.036.406a25.04,25.04,0,0,1,1.246,3.15L74.788-4.2C74.522-4.928,73.794-6.762,73.514-7.364Zm18-3.514-1.3-.42a4.794,4.794,0,0,1-.434,1.106,11.541,11.541,0,0,1-4.4,4.732l.966.728a14.193,14.193,0,0,0,3.556-3.444H94.64A11.51,11.51,0,0,1,92.4-3.808,11.326,11.326,0,0,1,86.814-.294l1.008.91a12.275,12.275,0,0,0,5.572-3.808,13.579,13.579,0,0,0,2.492-4.816,4.4,4.4,0,0,1,.322-.742l-.938-.574a2.343,2.343,0,0,1-.91.14H90.566a6.292,6.292,0,0,0,.336-.588A10.586,10.586,0,0,1,91.518-10.878Z" transform="translate(433 3115)"/>
        <g id="グループ_9409" data-name="グループ 9409" transform="translate(0 -2)">
          <rect id="長方形_23158" data-name="長方形 23158" width="17" height="17" transform="translate(407 3104)" fill="#4983ab" opacity="0.859"/>
          <g id="長方形_23159" data-name="長方形 23159" transform="translate(407 3104)" fill="none" stroke="#4983ab" stroke-width="2">
            <rect width="17" height="17" stroke="none"/>
            <rect x="1" y="1" width="15" height="15" fill="none"/>
          </g>
        </g>
      </g>
      <g id="グループ_9411" data-name="グループ 9411" transform="translate(299 -6)">
        <path id="パス_6602" data-name="パス 6602" d="M3.36-.672V-2.744h7.462V-.672Zm7.462-5.082v2.03H3.36v-2.03Zm0-3.066v2.086H3.36V-8.82ZM6.874-9.814c.238-.532.49-1.162.7-1.764l-1.19-.154a17.646,17.646,0,0,1-.546,1.918H2.324V1.092H3.36V.308h7.462v.714H11.9V-9.814ZM19.068-.252c-1.512,0-1.834-.168-1.834-.91V-5.334H24.5v.882h1.064v-6.44H16v1.05h8.5v3.486H16.184v5.194C16.184.42,16.9.77,19.124.77H24.4c2.24,0,2.7-.672,2.926-3.15a3.586,3.586,0,0,1-1.036-.42C26.11-.658,25.9-.252,24.416-.252ZM30.324-9.73l.28,1.036c1.078-.014,2.66-.056,4.074-.2v2.548H30.464c-.42,0-.91-.028-1.232-.056v1.162c.336-.028.812-.056,1.26-.056H34.65A5.557,5.557,0,0,1,31.108-.2l1.106.77A6.635,6.635,0,0,0,35.8-5.292H39.7c.35,0,.77.028,1.078.056V-6.4c-.294.028-.8.056-1.106.056H35.812V-9.03c1.008-.154,2.086-.364,2.786-.546.2-.056.476-.126.784-.21l-.742-.966a18.985,18.985,0,0,1-3.612.812A33.8,33.8,0,0,1,30.324-9.73ZM44.856-7.238v1.12c.294-.028.742-.042.966-.042H48.4v5.152h-3.22a8.13,8.13,0,0,1-1.008-.07V.1c.336-.028.7-.042,1.008-.042H52.92c.224,0,.658.014.938.042V-1.078a6.4,6.4,0,0,1-.938.07H49.532V-6.16h2.73c.322,0,.686.014.994.042v-1.12c-.294.028-.644.056-.994.056h-6.44A8.221,8.221,0,0,1,44.856-7.238Zm17.906-.826-1.022.35a26.389,26.389,0,0,1,1.092,3.038l1.036-.364C63.686-5.656,63-7.5,62.762-8.064Zm5.068.784-1.2-.378A9.6,9.6,0,0,1,64.694-2.87,9.427,9.427,0,0,1,60.144.112l.924.938a10.668,10.668,0,0,0,4.564-3.332,10.973,10.973,0,0,0,1.988-4.3C67.676-6.762,67.732-6.986,67.83-7.28Zm-8.316-.084-1.036.406a25.042,25.042,0,0,1,1.246,3.15L60.788-4.2C60.522-4.928,59.794-6.762,59.514-7.364Zm18-3.514-1.3-.42a4.794,4.794,0,0,1-.434,1.106,11.541,11.541,0,0,1-4.4,4.732l.966.728a14.193,14.193,0,0,0,3.556-3.444H80.64A11.51,11.51,0,0,1,78.4-3.808,11.326,11.326,0,0,1,72.814-.294l1.008.91a12.275,12.275,0,0,0,5.572-3.808,13.579,13.579,0,0,0,2.492-4.816,4.4,4.4,0,0,1,.322-.742l-.938-.574a2.343,2.343,0,0,1-.91.14H76.566a6.292,6.292,0,0,0,.336-.588A10.586,10.586,0,0,1,77.518-10.878Z" transform="translate(433 3115)"/>
        <g id="グループ_9409-2" data-name="グループ 9409" transform="translate(0 -2)">
          <rect id="長方形_23158-2" data-name="長方形 23158" width="17" height="17" transform="translate(407 3104)" fill="#ffda2b" opacity="0.747"/>
          <g id="長方形_23159-2" data-name="長方形 23159" transform="translate(407 3104)" fill="none" stroke="#ffd526" stroke-width="2">
            <rect width="17" height="17" stroke="none"/>
            <rect x="1" y="1" width="15" height="15" fill="none"/>
          </g>
        </g>
      </g>
    </g>
    <path id="Icon_awesome-angle-double-up" data-name="Icon awesome-angle-double-up" d="M20.7,27.259l15.9,15.9a2.8,2.8,0,0,1,0,3.964L33.96,49.769a2.8,2.8,0,0,1-3.964,0L18.712,38.508,7.439,49.781a2.8,2.8,0,0,1-3.964,0L.821,47.138a2.8,2.8,0,0,1,0-3.964l15.9-15.9A2.8,2.8,0,0,1,20.7,27.259ZM16.724,4.808l-15.9,15.9a2.8,2.8,0,0,0,0,3.964l2.643,2.643a2.8,2.8,0,0,0,3.964,0L18.7,16.045,29.973,27.318a2.8,2.8,0,0,0,3.964,0l2.643-2.643a2.8,2.8,0,0,0,0-3.964l-15.9-15.9a2.781,2.781,0,0,0-3.952,0Z" transform="translate(727.543 4189.253) rotate(90)" fill="#cacaca"/>
  </g>
</svg>
