<svg xmlns="http://www.w3.org/2000/svg" width="133.809" height="91.373" viewBox="0 0 133.809 91.373"><g transform="translate(-313.592 -244.148)"><path d="M313.6,258.287v69.378s-.083.795.177.992c.231.174.563.21,1.407.283,1.449.123,54.989,5.065,54.989,5.065V262.657l-6.986-.628v-16.86a1.009,1.009,0,0,0-.341-.759.974.974,0,0,0-.928-.226l-46.813,11.948s-1.011.174-1.279.527a2.34,2.34,0,0,0-.225,1.26Z" transform="translate(0 0)" fill="#1a1311"/><g transform="translate(314.629 250.245)"><g transform="translate(59.672 12.924)"><path d="M455.447,304.792a1.261,1.261,0,0,1-.131-.007l-11.071-.944a1.313,1.313,0,0,1-1.265-1.376,1.225,1.225,0,0,1,1.263-1.3c.047,0,.1,0,.146.006.138.012.265.017.381.017a1.652,1.652,0,0,0,.47-.05,1.157,1.157,0,0,0,.029-.277v-12.87c0-.209,0-.556-1.075-.648a1.312,1.312,0,0,1-1.264-1.375,1.226,1.226,0,0,1,1.264-1.3,1.333,1.333,0,0,1,.145.008l5.445.463a1.31,1.31,0,0,1,1.263,1.375,1.223,1.223,0,0,1-1.26,1.3c-.046,0-.094,0-.146-.006-.154-.012-.3-.02-.429-.02a1.473,1.473,0,0,0-.572.076.891.891,0,0,0-.031.269V301a2.381,2.381,0,0,0,.031.449,4.356,4.356,0,0,0,1.017.172l2.26.192c1.377.116,2.564-.746,3.632-2.656a1.269,1.269,0,0,1,1.758-.523,1.316,1.316,0,0,1,.677,1.688l-1.353,3.684a1.262,1.262,0,0,1-1.183.782Z" transform="translate(-442.93 -284.672)" fill="#1a1311"/></g><g transform="translate(59.657 65.045)"><path d="M449.807,415.345c-.047,0-.1,0-.147,0l-5.5-.469A1.313,1.313,0,0,1,442.9,413.5a1.226,1.226,0,0,1,1.263-1.3c.046,0,.1,0,.147.006.123.011.242.017.351.017.705,0,.705-.168.705-.312V399.016c0-.175,0-.531-1.15-.632a1.309,1.309,0,0,1-1.264-1.373,1.224,1.224,0,0,1,1.262-1.3c.047,0,.1,0,.146.006l7.706.657a6.751,6.751,0,0,1,3.779,1.553,5.167,5.167,0,0,1,2.081,4.2,4.782,4.782,0,0,1-1.8,4,5.973,5.973,0,0,1-4.3,1.13l-3.189-.273v5.061c0,.159,0,.534,1.175.633a1.31,1.31,0,0,1,1.264,1.374,1.222,1.222,0,0,1-1.262,1.3ZM448.63,404.3l3.154.27c.092.007.185.011.274.011h0a2.138,2.138,0,0,0,1.547-.6,2.716,2.716,0,0,0,.724-2.076,2.644,2.644,0,0,0-.873-1.979,2.888,2.888,0,0,0-1.869-.918l-2.055-.176c-.366-.031-.665-.049-.893-.049-.005.092-.009.208-.009.357V404.3Z" transform="translate(-442.899 -395.713)" fill="#1a1311"/></g><path d="M409.366,376.731c-1,.851-2.105,1.97-3.266,3.136-4.942,4.944-11.707,11.712-23.637,11.712H382.4c-4.269-.009-7.865-2.005-10.863-6.059l1.774-1.66c2.392,3.32,5.354,5.336,9.094,5.343h.06c10.949,0,17.05-6.108,21.958-11.018,1.131-1.13,2.25-2.249,3.269-3.134,0,0,.456.55.9,1A6.93,6.93,0,0,0,409.366,376.731Z" transform="translate(-345.375 -319.705)" fill="#0092e5"/><g transform="translate(76.271 13.669)"><g transform="translate(0 8.189)"><path d="M480.673,314.291a2.773,2.773,0,0,1-1.224-.268,2,2,0,0,1-1.155-1.947c0-1.2.82-2.338,2.446-3.4a15.748,15.748,0,0,1,2.837-1.4l0-.7a1.231,1.231,0,0,0-.272-.819.681.681,0,0,0-.754-.274,1.942,1.942,0,0,0-.955.388c-.175.145-.269.281-.269.382a1.713,1.713,0,0,1-.412,1.181,1.626,1.626,0,0,1-.969.552,1.168,1.168,0,0,1-.922-.236,1.264,1.264,0,0,1-.448-1.07,2.457,2.457,0,0,1,1.341-1.954,5.953,5.953,0,0,1,2.322-.93c.181-.03.362-.053.542-.067.159-.013.3-.019.447-.019a2.318,2.318,0,0,1,2.614,2.519l.01,4.806a2.234,2.234,0,0,0,.038.432.5.5,0,0,1,.043-.029.892.892,0,0,1,.528-.188.757.757,0,0,1,.657.39.8.8,0,0,1-.228,1.153,3.136,3.136,0,0,1-1.486.733,1.574,1.574,0,0,1-.834-.064,1.359,1.359,0,0,1-.677-.569,5.569,5.569,0,0,1-2.616,1.351,3.7,3.7,0,0,1-.6.051Zm2.906-5.163a9.971,9.971,0,0,0-1.653.975c-.815.611-1.23,1.181-1.23,1.7,0,.328.079.471.533.471h0a2.15,2.15,0,0,0,.221-.011,3.764,3.764,0,0,0,2.132-1.4l0-1.731Z" transform="translate(-478.294 -303.706)" fill="#1a1311"/></g><g transform="translate(8.846 2.484)"><path d="M499.415,306.374l-.05,0a.787.787,0,0,1-.761-.813l-.022-10.953a2.793,2.793,0,0,0-.03-.473,4.03,4.03,0,0,0-.483.054.742.742,0,0,1-.92-.7.884.884,0,0,1,.521-.93l1.926-.919a.825.825,0,0,1,.771.021.775.775,0,0,1,.421.712l.008,4.194a4.308,4.308,0,0,1,2.1-.952,3.135,3.135,0,0,1,3.143,1.174,5.14,5.14,0,0,1,1.024,3.278,6.771,6.771,0,0,1-1.026,3.844,4.2,4.2,0,0,1-2.907,1.894,3.458,3.458,0,0,1-2.627-.576l-.254.574a.907.907,0,0,1-.835.574Zm3.686-8.86a1.8,1.8,0,0,0-.315.027,2.221,2.221,0,0,0-1.611,1.135,2.2,2.2,0,0,0-.372.981l.008,3.2c0,.1,0,.394.576.776a1.8,1.8,0,0,0,1.353.3,1.951,1.951,0,0,0,1.31-1.065,4.478,4.478,0,0,0,.612-2.338,5.416,5.416,0,0,0-.353-2.107,1.245,1.245,0,0,0-1.207-.909Z" transform="translate(-497.14 -291.552)" fill="#1a1311"/></g><g transform="translate(20.011 4.82)"><path d="M524.761,306.984a3.4,3.4,0,0,1-2.572-1.141,4.862,4.862,0,0,1-1.262-3.427,6.331,6.331,0,0,1,1.216-3.77,4.76,4.76,0,0,1,3.139-2.06,3.483,3.483,0,0,1,3.318,1.14,4.887,4.887,0,0,1,1.22,3.388,6.328,6.328,0,0,1-1.126,3.631,4.778,4.778,0,0,1-3.232,2.18,4.254,4.254,0,0,1-.7.058Zm1-8.711a1.982,1.982,0,0,0-.313.026,2.107,2.107,0,0,0-1.53,1.133,5.486,5.486,0,0,0-.606,2.752,4.29,4.29,0,0,0,.592,2.472,1.3,1.3,0,0,0,1.4.557,2.115,2.115,0,0,0,1.544-1.169,5.457,5.457,0,0,0,.572-2.695,4.377,4.377,0,0,0-.586-2.495,1.226,1.226,0,0,0-1.072-.581Z" transform="translate(-520.927 -296.529)" fill="#1a1311"/></g><g transform="translate(29.956 3.044)"><path d="M542.907,303.555a.781.781,0,0,1-.588-.233.8.8,0,0,1-.2-.621.886.886,0,0,1,.783-.872l.308-.051c.437-.071.437-.239.437-.388l-.01-5.155c0-.125-.006-.221-.012-.289-.114.01-.285.028-.54.069a1.19,1.19,0,0,1-.171.016.747.747,0,0,1-.768-.689.859.859,0,0,1,.529-.958l2.016-.953a.834.834,0,0,1,.789.024.792.792,0,0,1,.4.69v.239a4.528,4.528,0,0,1,2.485-1.617,1.427,1.427,0,0,1,1.062.214,1.123,1.123,0,0,1,.522.96,1.44,1.44,0,0,1-.393,1.009,1.463,1.463,0,0,1-.854.489,1.668,1.668,0,0,1-.859-.13.92.92,0,0,0-.308-.084.559.559,0,0,0-.237.141,6.669,6.669,0,0,0-1.414,1.817l.008,4.015a1.117,1.117,0,0,0,.346.041,3.928,3.928,0,0,0,.612-.06.746.746,0,0,1,.944.8.885.885,0,0,1-.781.919l-4.1.662Z" transform="translate(-542.114 -292.744)" fill="#1a1311"/></g><g transform="translate(39.491)"><path d="M563.425,292.4a.751.751,0,0,1-.636-.361.82.82,0,0,1,.2-1.14,2.794,2.794,0,0,0,.948-1.064,1.465,1.465,0,0,1-.948-.352,1.539,1.539,0,0,1-.556-1.219,2.029,2.029,0,0,1,1.67-1.975,1.425,1.425,0,0,1,1.764,1.033l.03.073a3.26,3.26,0,0,1,.14.98,4.628,4.628,0,0,1-2,3.769l-.062.055a.889.889,0,0,1-.542.2Z" transform="translate(-562.429 -286.26)" fill="#1a1311"/></g><g transform="translate(44.823 0.797)"><path d="M575.446,298.642a.783.783,0,0,1-.735-.506l-.857-2.131a.872.872,0,0,1,.4-1.108.792.792,0,0,1,1.147.229,3.464,3.464,0,0,0,1.246,1.173l.514.222a2.341,2.341,0,0,0,1.141.041,1.634,1.634,0,0,0,.7-.36,1.116,1.116,0,0,0,.455-.9.613.613,0,0,0-.369-.617,5.135,5.135,0,0,0-1.594-.32,7.065,7.065,0,0,1-2.251-.525,2.262,2.262,0,0,1-1.258-2.158,3.276,3.276,0,0,1,.989-2.389,3.387,3.387,0,0,1,1.862-1,4.285,4.285,0,0,1,1.839.129.875.875,0,0,1,.66-.443.769.769,0,0,1,.183-.019.749.749,0,0,1,.7.463l.894,1.939a.88.88,0,0,1-.34,1.108.8.8,0,0,1-1.179-.169,3.03,3.03,0,0,0-1.721-1.273,1.65,1.65,0,0,0-.736-.047,1.223,1.223,0,0,0-1.115,1.25.406.406,0,0,0,.292.488,5.787,5.787,0,0,0,1.632.306,7.029,7.029,0,0,1,2.282.5,2.339,2.339,0,0,1,1.344,2.243,3.378,3.378,0,0,1-.862,2.271,3.638,3.638,0,0,1-2.154,1.226,4.421,4.421,0,0,1-2.254-.18.97.97,0,0,1-.664.542.936.936,0,0,1-.188.02Z" transform="translate(-573.788 -287.958)" fill="#1a1311"/></g></g><g transform="translate(80.418 38.696)"><g transform="translate(0 7.993)"><path d="M490.918,367.487a2.636,2.636,0,0,1-1.255-.3,2.847,2.847,0,0,1-1.307-2.748v-4.322c0-.086,0-.156,0-.214l-.276.045a.751.751,0,0,1-.938-.7.887.887,0,0,1,.572-.966l1.688-.7a.842.842,0,0,1,.753.043.792.792,0,0,1,.4.708v5.6c0,1.631.606,1.631.835,1.631a1.908,1.908,0,0,0,.238-.018,3.494,3.494,0,0,0,1.573-.918l.744-.738v-4.7a1.178,1.178,0,0,0-.013-.191c-.082.01-.2.025-.387.064l-.23.036a.756.756,0,0,1-.939-.7.9.9,0,0,1,.6-.973l2.026-.759a.841.841,0,0,1,.745.061.794.794,0,0,1,.37.7v7.183a.909.909,0,0,0,.1.006h0a2.183,2.183,0,0,0,.349-.032.991.991,0,0,1,.176-.014.748.748,0,0,1,.767.811.882.882,0,0,1-.781.914l-1.844.3a.765.765,0,0,1-.754-.237.7.7,0,0,1-.118-.188,5.465,5.465,0,0,1-2.519,1.267,3.648,3.648,0,0,1-.571.05Z" transform="translate(-487.13 -356.608)" fill="#1a1311"/></g><g transform="translate(11.519 6.627)"><path d="M514.05,364.276a2.8,2.8,0,0,1-1.23-.269,2.006,2.006,0,0,1-1.15-1.951c0-1.194.824-2.336,2.453-3.394a15.922,15.922,0,0,1,2.837-1.395v-.7a1.217,1.217,0,0,0-.272-.819.676.676,0,0,0-.752-.276,1.967,1.967,0,0,0-.955.384c-.174.146-.271.282-.271.383a1.713,1.713,0,0,1-.413,1.18,1.635,1.635,0,0,1-.969.552,1.164,1.164,0,0,1-.921-.24,1.262,1.262,0,0,1-.445-1.071,2.458,2.458,0,0,1,1.343-1.949,5.941,5.941,0,0,1,2.328-.926c.178-.03.359-.051.538-.068.154-.012.3-.017.438-.017a2.321,2.321,0,0,1,2.621,2.523v4.808a1.934,1.934,0,0,0,.037.43c.011-.007.024-.017.04-.026a.889.889,0,0,1,.528-.186.761.761,0,0,1,.658.39.8.8,0,0,1-.232,1.154,3.159,3.159,0,0,1-1.485.729,1.575,1.575,0,0,1-.836-.066,1.355,1.355,0,0,1-.674-.57,5.57,5.57,0,0,1-2.62,1.345,3.739,3.739,0,0,1-.6.048Zm2.911-5.156a9.833,9.833,0,0,0-1.654.971c-.819.608-1.236,1.18-1.236,1.7,0,.326.079.471.536.471a1.756,1.756,0,0,0,.218-.012,3.76,3.76,0,0,0,2.136-1.4v-1.73Z" transform="translate(-511.67 -353.697)" fill="#1a1311"/></g><g transform="translate(21.556 0.795)"><path d="M533.847,356.06a.773.773,0,0,1-.587-.237.794.794,0,0,1-.2-.622.882.882,0,0,1,.784-.869c.276-.045.417-.138.417-.518v-9.537c0-.258-.01-.415-.018-.508a1.8,1.8,0,0,0-.24.026.759.759,0,0,1-.935-.668.913.913,0,0,1,.547-.988l1.711-.784a.822.822,0,0,1,.79.039.788.788,0,0,1,.376.685v11.592a1.009,1.009,0,0,0,.015.194,1.666,1.666,0,0,0,.378-.027.747.747,0,0,1,.943.8.883.883,0,0,1-.785.917l-3.193.509Z" transform="translate(-533.055 -341.272)" fill="#1a1311"/></g><g transform="translate(27.274)"><path d="M546.029,354.212a.78.78,0,0,1-.588-.234.806.806,0,0,1-.2-.624.879.879,0,0,1,.782-.866c.42-.07.42-.238.42-.386v-5.136c0-.23-.008-.387-.017-.492-.079.006-.158.016-.245.029a.754.754,0,0,1-.934-.644.918.918,0,0,1,.545-.992l1.712-.783a.83.83,0,0,1,.77.016.786.786,0,0,1,.4.707V352c-.022,0,.01.018.131.018h0a1.6,1.6,0,0,0,.265-.024.747.747,0,0,1,.943.8.882.882,0,0,1-.786.916l-3.193.507Zm1.315-11.716a1.254,1.254,0,0,1-.832-.307,1.292,1.292,0,0,1-.441-1,1.648,1.648,0,0,1,1.366-1.592,1.292,1.292,0,0,1,1.524,1.283,1.563,1.563,0,0,1-.4,1.038,1.588,1.588,0,0,1-.966.554,1.554,1.554,0,0,1-.25.022Z" transform="translate(-545.236 -339.579)" fill="#1a1311"/></g><g transform="translate(32.699 0.974)"><path d="M559.955,354.355a2.089,2.089,0,0,1-.282-.019c-.6-.082-1.578-.467-1.578-2.105v-5.679l-.354.054a.747.747,0,0,1-.939-.7.9.9,0,0,1,.612-.962,1.44,1.44,0,0,0,.522-.447,2.853,2.853,0,0,0,.587-1.892.9.9,0,0,1,.783-.936.96.96,0,0,1,.171-.015.759.759,0,0,1,.77.831v1.976l1.869-.3a1.2,1.2,0,0,1,.176-.014.748.748,0,0,1,.766.812.883.883,0,0,1-.781.917l-2.029.328v5.2c0,.65.122.98.365.98a.574.574,0,0,0,.108-.012,1.83,1.83,0,0,0,.7-.3,1.785,1.785,0,0,0,.481-.4.841.841,0,0,1,.736-.448.955.955,0,0,1,.389.09.831.831,0,0,1,.445.509.877.877,0,0,1-.135.707,3.642,3.642,0,0,1-1.226,1.119,4.615,4.615,0,0,1-1.692.672,2.866,2.866,0,0,1-.46.04Z" transform="translate(-556.794 -341.655)" fill="#1a1311"/></g><g transform="translate(40.552 1.5)"><path d="M575.736,356.3a1.528,1.528,0,0,1-.956-.306,1.127,1.127,0,0,1-.5-.941,1.272,1.272,0,0,1,1.151-1.344,1.917,1.917,0,0,1,1.026.224,1.457,1.457,0,0,0,.466.153c-.014,0,.334-.152.887-1.79l-2.842-5.993a2.269,2.269,0,0,0-.231-.425.794.794,0,0,1-.083,0,1.476,1.476,0,0,0-.187.016.758.758,0,0,1-.754-.235.827.827,0,0,1-.189-.56.885.885,0,0,1,.785-.916l3.121-.507a.746.746,0,0,1,.943.8.886.886,0,0,1-.784.916,3.6,3.6,0,0,0-.484.108l1.783,3.83,1.491-4.089a2.968,2.968,0,0,0,.09-.308,3.352,3.352,0,0,0-.456.046,1.04,1.04,0,0,1-.175.016.748.748,0,0,1-.767-.812.882.882,0,0,1,.783-.915l2.887-.47a.953.953,0,0,1,.176-.014.749.749,0,0,1,.767.812.882.882,0,0,1-.781.914l-.1.017a.52.52,0,0,0-.3.125,3.346,3.346,0,0,0-.51,1.081c-2.377,6.869-2.921,8.11-3.125,8.445a6.247,6.247,0,0,1-.852,1.153,3.447,3.447,0,0,1-1.894.943,2.359,2.359,0,0,1-.38.032Z" transform="translate(-573.524 -342.774)" fill="#1a1311"/></g></g><g transform="translate(74.46 66.576)"><g transform="translate(0 7.933)"><path d="M475.224,426.644a.775.775,0,0,1-.582-.23.815.815,0,0,1-.2-.624.876.876,0,0,1,.772-.87l.3-.048c.41-.067.41-.229.41-.382v-5.158a2.816,2.816,0,0,0-.012-.29c-.106.007-.268.026-.5.065a.742.742,0,0,1-.926-.68.857.857,0,0,1,.517-.952l1.953-.938a.811.811,0,0,1,.792.032.786.786,0,0,1,.384.689v.208a4.309,4.309,0,0,1,2.391-1.567,1.37,1.37,0,0,1,1.047.225,1.133,1.133,0,0,1,.5.958,1.449,1.449,0,0,1-.379,1,1.407,1.407,0,0,1-.841.49,1.573,1.573,0,0,1-.849-.139.839.839,0,0,0-.288-.084.53.53,0,0,0-.211.132,6.583,6.583,0,0,0-1.371,1.806v4.024a1.026,1.026,0,0,0,.337.041,3.688,3.688,0,0,0,.572-.054,1.106,1.106,0,0,1,.17-.013.745.745,0,0,1,.759.813.876.876,0,0,1-.771.913l-3.969.633Z" transform="translate(-474.437 -415.877)" fill="#1a1311"/></g><g transform="translate(7.389 6.863)"><path d="M493.921,424.048a3.286,3.286,0,0,1-2.532-1.167,4.988,4.988,0,0,1-1.211-3.428,6.453,6.453,0,0,1,1.186-3.758,4.574,4.574,0,0,1,3.055-2.042,3.348,3.348,0,0,1,3.228,1.17,5,5,0,0,1,1.171,3.388,6.427,6.427,0,0,1-1.1,3.618,4.6,4.6,0,0,1-3.144,2.162,3.987,3.987,0,0,1-.655.057Zm.944-8.706a1.844,1.844,0,0,0-.289.024,2.016,2.016,0,0,0-1.466,1.112,5.662,5.662,0,0,0-.6,2.755,4.429,4.429,0,0,0,.573,2.483,1.227,1.227,0,0,0,1.331.56,2.012,2.012,0,0,0,1.48-1.149,5.617,5.617,0,0,0,.559-2.7,4.546,4.546,0,0,0-.562-2.506,1.168,1.168,0,0,0-1.031-.585Z" transform="translate(-490.178 -413.599)" fill="#1a1311"/></g><g transform="translate(16.069 4.742)"><path d="M511.435,422.885a4.021,4.021,0,0,1-1.941-.377,1.5,1.5,0,0,1-.821-1.376,2.526,2.526,0,0,1,1.27-1.958,1.356,1.356,0,0,1-.519-1.109,2.122,2.122,0,0,1,.851-1.548,3.022,3.022,0,0,1-.965-2.369,4.061,4.061,0,0,1,1.185-2.834,4.629,4.629,0,0,1,2.189-1.35,3.416,3.416,0,0,1,2.47.267c.189-.18.33-.314.428-.4a3.377,3.377,0,0,1,1.087-.661,1.274,1.274,0,0,1,1.526.437,1.178,1.178,0,0,1,.259.761,1.546,1.546,0,0,1-.255.837,1.288,1.288,0,0,1-.664.561,1.26,1.26,0,0,1-.883-.02,3.169,3.169,0,0,1,.3,1.384,3.952,3.952,0,0,1-1.209,2.805,4.471,4.471,0,0,1-2.544,1.383,3.809,3.809,0,0,1-1.206.011.153.153,0,0,0-.034.028,11.138,11.138,0,0,0,1.529,0,10.489,10.489,0,0,1,2.632.091,1.85,1.85,0,0,1,1.62,1.871,2.7,2.7,0,0,1-1.2,2.145,6.979,6.979,0,0,1-3.205,1.259c-.39.062-.65.1-.782.108-.392.037-.775.058-1.117.058Zm1.374-3.331c-.182.081-.429.19-.739.33-.965.477-1.227.841-1.227.98,0,.247.611.273.872.273a6.45,6.45,0,0,0,.661-.038c.288-.022.544-.052.78-.088,1.094-.177,2.4-.552,2.4-1.326,0-.08-.227-.152-.444-.185a12.4,12.4,0,0,0-2.007.038l-.293.015Zm.583-7.964-.063,0a1.676,1.676,0,0,0-.184.013,1.593,1.593,0,0,0-.951.63,2.61,2.61,0,0,0-.547,1.694c0,1.691.741,1.691,1.1,1.691h0c.041,0,.083-.005.123-.005.091,0,.149-.008.178-.012a1.679,1.679,0,0,0,1.132-.707,2.539,2.539,0,0,0,.458-1.553,2.083,2.083,0,0,0-.395-1.342,1.026,1.026,0,0,0-.847-.41Z" transform="translate(-508.672 -409.079)" fill="#1a1311"/></g><g transform="translate(26.549 3.622)"><path d="M531.785,417.465a.773.773,0,0,1-.581-.231.819.819,0,0,1-.2-.628.877.877,0,0,1,.77-.868l.3-.049c.411-.066.411-.226.411-.381v-5.155c0-.125-.007-.222-.009-.293-.11.008-.269.027-.505.065a.738.738,0,0,1-.926-.681.863.863,0,0,1,.516-.951l1.954-.937a.81.81,0,0,1,.788.028.8.8,0,0,1,.387.689v.213a4.311,4.311,0,0,1,2.391-1.57,1.375,1.375,0,0,1,1.047.224,1.136,1.136,0,0,1,.5.961,1.528,1.528,0,0,1-1.221,1.491,1.613,1.613,0,0,1-.848-.14.819.819,0,0,0-.287-.083.494.494,0,0,0-.21.13,6.618,6.618,0,0,0-1.372,1.806v4.021a.9.9,0,0,0,.338.044,3.534,3.534,0,0,0,.571-.055,1.083,1.083,0,0,1,.17-.011.744.744,0,0,1,.76.812.877.877,0,0,1-.773.914l-3.969.634Z" transform="translate(-530.998 -406.694)" fill="#1a1311"/></g><g transform="translate(34.595 2.525)"><path d="M550.475,414.923a2.646,2.646,0,0,1-1.22-.279,2.02,2.02,0,0,1-1.115-1.951c0-1.193.8-2.329,2.376-3.379a15.376,15.376,0,0,1,2.743-1.38v-.705a1.264,1.264,0,0,0-.267-.828.634.634,0,0,0-.706-.275,1.83,1.83,0,0,0-.912.375c-.1.085-.259.245-.259.386a1.758,1.758,0,0,1-.4,1.171,1.579,1.579,0,0,1-.953.552,1.123,1.123,0,0,1-.912-.249,1.276,1.276,0,0,1-.43-1.064,2.451,2.451,0,0,1,1.3-1.944,5.627,5.627,0,0,1,2.26-.916c.175-.028.353-.05.529-.064.139-.01.272-.016.4-.016a2.3,2.3,0,0,1,2.576,2.537V411.7a2,2,0,0,0,.033.42s.006-.006.01-.007a.886.886,0,0,1,.525-.189.751.751,0,0,1,.654.4.814.814,0,0,1-.225,1.142,2.99,2.99,0,0,1-1.453.728,1.566,1.566,0,0,1-.823-.071,1.352,1.352,0,0,1-.646-.56,5.3,5.3,0,0,1-2.523,1.32,3.792,3.792,0,0,1-.563.045Zm2.784-5.131a9.506,9.506,0,0,0-1.57.948c-.79.6-1.192,1.174-1.192,1.693,0,.335.071.476.511.476a1.493,1.493,0,0,0,.2-.012,3.594,3.594,0,0,0,2.051-1.376v-1.729Z" transform="translate(-548.14 -404.356)" fill="#1a1311"/></g><g transform="translate(43.552)"><path d="M567.942,410.619a.706.706,0,0,1-.529-.224.816.816,0,0,1-.184-.661.872.872,0,0,1,.77-.851c.3-.047.362-.126.368-.132a1.478,1.478,0,0,0,.021-.285v-5.078c0-.255-.008-.414-.018-.51a1.754,1.754,0,0,0-.214.024.745.745,0,0,1-.927-.7.9.9,0,0,1,.535-.955l1.658-.774a.809.809,0,0,1,.772.019.782.782,0,0,1,.357.483c.088-.073.18-.148.275-.222a4.1,4.1,0,0,1,1.652-.855,3.614,3.614,0,0,1,1.4-.012,2.155,2.155,0,0,1,1.241.843,8.059,8.059,0,0,1,1.4-1.19,3.268,3.268,0,0,1,1.292-.524,2.472,2.472,0,0,1,1.586.23,2.537,2.537,0,0,1,1.314,2.459v4.962a.5.5,0,0,0,.011.119c.1-.006.2-.02.335-.04a.754.754,0,0,1,.927.725.834.834,0,0,1-.714.979l-3.091.5a.755.755,0,0,1-.751-.244.852.852,0,0,1-.18-.555.879.879,0,0,1,.771-.916,3.412,3.412,0,0,0,.52-.116c0-.02,0-.045,0-.072v-4.417c0-1.641-.572-1.641-.788-1.641a1.407,1.407,0,0,0-.213.018c-.37.062-.989.4-1.855,1.642v4.916a1.757,1.757,0,0,0,.441-.023.747.747,0,0,1,.929.752.893.893,0,0,1-.634.932l-.08.021-3.3.537a.747.747,0,0,1-.747-.244.837.837,0,0,1-.181-.556.875.875,0,0,1,.771-.914,5.131,5.131,0,0,0,.585-.123,1.746,1.746,0,0,0,.048-.469v-4.032c0-1.639-.582-1.639-.8-1.639a1.546,1.546,0,0,0-.218.02,2.569,2.569,0,0,0-1.238.79,6.633,6.633,0,0,0-.673.718v4.991a1.008,1.008,0,0,0,.006.108,1.983,1.983,0,0,0,.356-.031.866.866,0,0,1,.171-.013.746.746,0,0,1,.761.813.878.878,0,0,1-.773.914l-3,.485a.921.921,0,0,1-.158.015Z" transform="translate(-567.222 -398.977)" fill="#1a1311"/></g></g><path d="M326.559,260.4c-1.285-2.089-2.853-3.266-4.847-3.266h-.088a5.568,5.568,0,0,0-4.159,1.708,6.8,6.8,0,0,0-1.663,4.3l2.462-.63a4.113,4.113,0,0,1,.941-2.055,3.248,3.248,0,0,1,2.461-.95h.039a3.135,3.135,0,0,1,2.428,1.51" transform="translate(-315.802 -257.138)" fill="#0092e5"/><path d="M460.247,350.49c0,5.553-3.832,9.678-8.559,9.212s-8.556-5.344-8.556-10.9,3.83-9.68,8.556-9.214S460.247,344.934,460.247,350.49Zm-8.559-8.113c-2.668-.262-4.832,2.777-4.832,6.793s2.164,7.479,4.832,7.742,4.832-2.776,4.832-6.788S454.358,342.642,451.687,342.377Z" transform="translate(-383.365 -300.869)" fill="#1a1311"/><path d="M455.682,372.046a3.769,3.769,0,0,1,1.456-.313c2.656,0,3.329,1.325,4.181,3,.72,1.41,1.613,3.165,3.953,3.165a3.806,3.806,0,0,0,3-1.268,6.165,6.165,0,0,0,1.075-4.493,1.186,1.186,0,0,0-2.35.325,3.93,3.93,0,0,1-.521,2.613,1.442,1.442,0,0,1-1.206.45c-.812,0-1.129-.484-1.834-1.87-.873-1.715-2.189-4.3-6.3-4.3a6.2,6.2,0,0,0-3.128.852,9.543,9.543,0,0,0,.7.955A4.873,4.873,0,0,0,455.682,372.046Z" transform="translate(-389.138 -316.684)" fill="#0092e5"/></g><path d="M317.958,260.722V329.27l22.582-11.048s1.683-.73,3.1-4.609a34.352,34.352,0,0,0,1.553-9.855c.023-1-.007-2.241,0-2.957s-.386-1.349,1.842-1.654a71.5,71.5,0,0,0,7.451-1.183c3.678-.8,6.889-1.507,7.707-2.34s1.286-2.395,1.286-6.7v-39.81Z" transform="translate(-2.317 -2.635)" fill="#fff"/><path d="M377.662,369.348,390.643,355.5s-3.759.91-6.155,1.3-5.569.823-5.569.823a53.3,53.3,0,0,1-.266,6.258C378.324,366.309,377.662,369.348,377.662,369.348Z" transform="translate(-33.997 -59.086)" fill="#fff"/></g></svg>