<svg xmlns="http://www.w3.org/2000/svg" width="71.516" height="72.652" viewBox="0 0 71.516 72.652">
  <path id="Icon_awesome-flag" data-name="Icon awesome-flag" d="M49.03,14.017c-7.6,0-13.884-4.936-23.444-4.936a27.579,27.579,0,0,0-9.655,1.7,7.947,7.947,0,1,0-11.962,3.68v54.78a3.406,3.406,0,0,0,3.406,3.406h2.27a3.406,3.406,0,0,0,3.406-3.406v-13.4a39.646,39.646,0,0,1,16.238-3.139c7.6,0,13.884,4.936,23.444,4.936,6.835,0,12.3-2.312,17.383-5.8a4.533,4.533,0,0,0,1.964-3.74v-34.5A4.54,4.54,0,0,0,65.625,9.5c-4.872,2.263-10.849,4.52-16.595,4.52Z" transform="translate(-0.563 0)" fill="#ffda2b"/>
</svg>
