<svg xmlns="http://www.w3.org/2000/svg" width="145.635" height="67.078" viewBox="0 0 145.635 67.078">
  <path id="パス_6790" data-name="パス 6790" d="M-22.28-21.914v17.7h9.258V0h-14.5V-21.914ZM-.308-17.988q-5.01,0-5.01,7.046T-.308-3.9q5.039,0,5.039-7.046T-.308-17.988Zm0,18.281A9.65,9.65,0,0,1-7.793-2.7q-2.739-2.988-2.739-8.262t2.739-8.262A9.65,9.65,0,0,1-.308-22.207a9.7,9.7,0,0,1,7.5,2.988q2.754,2.988,2.754,8.262,0,6.27-4.248,9.346v.059A13.42,13.42,0,0,1,9.507,1,13.854,13.854,0,0,1,12.29,4.512H6.812a9.928,9.928,0,0,0-2.827-3.5A9.1,9.1,0,0,0-.308.293ZM27.612-16.7a13.863,13.863,0,0,0-6.3-1.582q-2.783,0-2.783,2.168,0,1.846,2.4,2.607,4.16,1.26,5.757,2.944a6.146,6.146,0,0,1,1.6,4.409q0,6.445-8.115,6.445A12.32,12.32,0,0,1,13.96-1.26V-5.6a10.346,10.346,0,0,0,5.889,1.9,4.021,4.021,0,0,0,2.432-.615,2.066,2.066,0,0,0,.82-1.758,2.327,2.327,0,0,0-.571-1.626A4.457,4.457,0,0,0,20.552-8.76a12.761,12.761,0,0,1-5.464-2.988A6.128,6.128,0,0,1,13.4-16.113a5.5,5.5,0,0,1,1.963-4.453,8.548,8.548,0,0,1,5.625-1.641,16.769,16.769,0,0,1,6.621,1.2ZM-64.98,22.752H-68.7a10.413,10.413,0,0,1,.82,2.725l-1.318.352h5.127l-1.816-.352Q-65.215,23.66-64.98,22.752Zm4.395,15.029-2.49,3.076q-.205-.264-.732-.835t-.791-.864v5.654h-4.219v-4.98a19.848,19.848,0,0,1-3.105,3.34,16.019,16.019,0,0,0-2.812-3.105,17.456,17.456,0,0,0,5.1-5.244H-73.8V31.189h4.98V29.373h-5.068V25.828h2.432a11,11,0,0,0-.762-2.7l1.611-.381h-2.93V19.236h4.717V16.688H-64.6v2.549h4.717v3.516h-2.432l1.289.234q-.205.439-.63,1.436t-.63,1.406h2.578v3.545H-64.6v1.816H-60v3.633h-4.6v.029q.469.322,1.3.923t1.7,1.245Q-60.732,37.664-60.586,37.781Zm5.8-15.205V26.15h8.994v4.043H-48.34V44.7h-4.219v-14.5h-2.227q-.205,9.99-4.57,14.678a7.068,7.068,0,0,0-1.377-1.641,7.85,7.85,0,0,0-1.758-1.318,11.748,11.748,0,0,0,1.934-2.9,13.975,13.975,0,0,0,1.1-3.4,28.559,28.559,0,0,0,.439-3.223q.1-1.436.1-3.252V18.65l2.373.674a33.851,33.851,0,0,0,7.295-2.666l3.457,3.135A46.95,46.95,0,0,1-54.785,22.576Zm21.416-5.361v3.252h-9.316V17.215Zm1.143,4.1v3.4H-44.238v-3.4ZM-37.09,37.371h-2.139V39.92h2.139ZM-33.369,34v9.316h-5.859V44.4h-3.662V34Zm-9.4-1V29.754h9.463v3.252Zm0-4.16V25.623h9.463v3.223Zm26.982,1.934v4.1h-6.387v9.932h-4.277V34.881h-6.211v-4.1h6.211V21.785H-31.7V17.742h15.41v4.043h-5.889v8.994Zm-15.85-7.295,3.428-.7a35.16,35.16,0,0,1,1.2,6.68l-3.662.82A34.249,34.249,0,0,0-31.641,23.484Zm13.213,6.738-3.311-.82A37.2,37.2,0,0,0-20.3,22.488l4.1.82Q-17.9,28.9-18.428,30.223ZM4.658,26.209V23.133H3.516v3.076Zm4.775,12.6V29.988H8.291v8.818ZM-1.23,29.988v8.818H-.146V29.988Zm5.889,0H3.486v8.818H4.658Zm9.082-6.855H8.76v3.076h4.863V43.963H9.434V42.527H-1.23v1.611H-5.215V26.209H-.557V23.133H-5.449V19.822q-.645,1.553-1.787,3.721v21.3h-4.072V29.871q-.586.732-1.26,1.436a18.231,18.231,0,0,0-.967-2.2,21.227,21.227,0,0,0-1.23-2.2,24.736,24.736,0,0,0,3.545-4.7,30.731,30.731,0,0,0,2.7-5.786l3.926,1.26q-.322.908-.586,1.553H13.74ZM26.982,32.01l.7,3.779q-5.068,1.934-10.547,3.867L15.322,35.5q1.758-.469,3.926-1.113V23.455H16.23V19.441h10.4v4.014H23.672v9.58Zm5.3,2.256v1.348h6.65V34.266Zm0-4.277v1.348h6.65V29.988Zm0-4.219v1.348h6.65V25.77ZM43.213,38.719H39.2a49.85,49.85,0,0,1,5.625,3.6l-3.457,2.549a41.768,41.768,0,0,0-5.684-4.014l2.959-2.139H31.934l2.9,2.139a27.45,27.45,0,0,1-7.852,3.955,18.947,18.947,0,0,0-2.666-2.959,22.264,22.264,0,0,0,6.533-3.135H28.242V22.664h4.6q.146-.908.234-1.611H27.158V17.42H44.3v3.633H38q-.176.469-.586,1.611h5.8ZM53.35,38.4H66.24V35.7H53.35Zm12.891-9.58H53.35V31.6H66.24Zm0-6.709H53.35v2.607H66.24ZM48.926,17.859H70.9V44.432H66.24V42.674H53.35v1.758H48.926Z" transform="translate(74.736 22.207)"/>
</svg>
