<svg xmlns="http://www.w3.org/2000/svg" width="87.737" height="68.24" viewBox="0 0 87.737 68.24">
  <path id="Icon_awesome-address-card" data-name="Icon awesome-address-card" d="M80.425,2.25H7.311A7.313,7.313,0,0,0,0,9.561V63.178A7.313,7.313,0,0,0,7.311,70.49H80.425a7.313,7.313,0,0,0,7.311-7.311V9.561A7.313,7.313,0,0,0,80.425,2.25ZM26.808,16.873a9.749,9.749,0,1,1-9.749,9.749A9.758,9.758,0,0,1,26.808,16.873Zm17.06,36.07a3.194,3.194,0,0,1-3.412,2.925h-27.3a3.194,3.194,0,0,1-3.412-2.925V50.018c0-4.844,4.585-8.774,10.236-8.774h.762a15.689,15.689,0,0,0,12.125,0h.762c5.651,0,10.236,3.93,10.236,8.774ZM77.988,44.9a1.222,1.222,0,0,1-1.219,1.219H54.836A1.222,1.222,0,0,1,53.617,44.9V42.463a1.222,1.222,0,0,1,1.219-1.219H76.77a1.222,1.222,0,0,1,1.219,1.219Zm0-9.749A1.222,1.222,0,0,1,76.77,36.37H54.836a1.222,1.222,0,0,1-1.219-1.219V32.714A1.222,1.222,0,0,1,54.836,31.5H76.77a1.222,1.222,0,0,1,1.219,1.219Zm0-9.749a1.222,1.222,0,0,1-1.219,1.219H54.836A1.222,1.222,0,0,1,53.617,25.4V22.966a1.222,1.222,0,0,1,1.219-1.219H76.77a1.222,1.222,0,0,1,1.219,1.219Z" transform="translate(0 -2.25)" fill="#ffda2b"/>
</svg>
