<svg xmlns="http://www.w3.org/2000/svg" width="85.774" height="85.774" viewBox="0 0 85.774 85.774">
  <path id="Icon_awesome-laugh" data-name="Icon awesome-laugh" d="M42.887.563A42.887,42.887,0,1,0,85.774,43.45,42.88,42.88,0,0,0,42.887.563ZM56.722,26.848a5.534,5.534,0,1,1-5.534,5.534A5.528,5.528,0,0,1,56.722,26.848Zm-27.669,0a5.534,5.534,0,1,1-5.534,5.534A5.528,5.528,0,0,1,29.053,26.848ZM44.271,73.886H41.5A24.924,24.924,0,0,1,16.792,52.1a2.778,2.778,0,0,1,2.75-3.113H66.233a2.77,2.77,0,0,1,2.75,3.113A24.924,24.924,0,0,1,44.271,73.886Z" transform="translate(0 -0.563)" fill="#ffda2b"/>
</svg>
