<svg xmlns="http://www.w3.org/2000/svg" width="141.106" height="39.974" viewBox="0 0 141.106 39.974">
  <g id="グループ_10727" data-name="グループ 10727" transform="translate(-265.945 -1437)">
    <path id="Icon_awesome-circle" data-name="Icon awesome-circle" d="M20.549.563A19.987,19.987,0,1,0,40.536,20.549,19.983,19.983,0,0,0,20.549.563Z" transform="translate(265.383 1436.438)" fill="#ffda2b"/>
    <path id="Icon_awesome-square" data-name="Icon awesome-square" d="M34.2,2.25H4.1A4.1,4.1,0,0,0,0,6.354V36.448a4.1,4.1,0,0,0,4.1,4.1H34.2a4.1,4.1,0,0,0,4.1-4.1V6.354A4.1,4.1,0,0,0,34.2,2.25Z" transform="translate(315.945 1435.75)" fill="#ffda2b"/>
    <path id="Icon_feather-triangle" data-name="Icon feather-triangle" d="M19.936,6.286,2.868,34.779a4.03,4.03,0,0,0,3.446,6.045H40.449a4.03,4.03,0,0,0,3.446-6.045L26.827,6.286a4.03,4.03,0,0,0-6.891,0Z" transform="translate(362.617 1434.154)" fill="#ffda2b"/>
  </g>
</svg>
