<svg xmlns="http://www.w3.org/2000/svg" width="114.501" height="96.6" viewBox="0 0 114.501 96.6">
  <g id="グループ_9418" data-name="グループ 9418" transform="translate(-281.775 -1398.97)">
    <path id="Icon_simple-hipchat" data-name="Icon simple-hipchat" d="M11.282,49.519s-.273-.193-.706-.524C4.075,43.968,0,36.678,0,28.571,0,13.45,14.217,1.18,31.743,1.18S63.5,13.45,63.5,28.571s-14.211,27.4-31.746,27.4a36.412,36.412,0,0,1-6.678-.6l-.693-.119c-4.453,2.889-10.952,5.265-16.638,5.265-1.76,0,2.617-8.393,3.535-11Z" transform="translate(281.775 1435.054)" fill="#ffda2b"/>
    <path id="Icon_simple-hipchat-2" data-name="Icon simple-hipchat" d="M62.953,59.454s.329-.233.852-.632C71.642,52.762,76.554,43.974,76.554,34.2c0-18.229-17.139-33.02-38.267-33.02S0,15.971,0,34.2,17.132,67.234,38.271,67.234a43.9,43.9,0,0,0,8.051-.727l.836-.144c5.368,3.483,13.2,6.348,20.057,6.348,2.121,0,3.12-1.742,1.761-3.521-2.067-2.536-4.915-6.6-6.022-9.735ZM58.289,45.017c-2.284,3.41-9.359,9.215-19.949,9.215h-.147c-10.615,0-17.681-5.84-19.949-9.215a3.627,3.627,0,0,1-.871-1.831A1.563,1.563,0,0,1,18.8,41.508a.17.17,0,0,1,.067-.01,2.006,2.006,0,0,1,1.046.354,29.145,29.145,0,0,0,18.354,6.558A28.086,28.086,0,0,0,56.64,41.843a1.471,1.471,0,0,1,1-.389,1.539,1.539,0,0,1,1.541,1.515,4.214,4.214,0,0,1-.855,2.051h-.035Z" transform="translate(318.223 1399.289)" fill="#ffda2b" stroke="#f4f4f4" stroke-width="3"/>
  </g>
</svg>
