<svg xmlns="http://www.w3.org/2000/svg" width="102.073" height="81.651" viewBox="0 0 102.073 81.651">
  <path id="Icon_awesome-hands-helping" data-name="Icon awesome-hands-helping" d="M77.833,30.62H53.59v8.931a11.483,11.483,0,0,1-22.966,0V20.157l-10.351,6.22a10.185,10.185,0,0,0-4.96,8.74v7.544L2.554,50.03A5.091,5.091,0,0,0,.688,57L13.447,79.1a5.105,5.105,0,0,0,6.97,1.866l16.491-9.521H58.694A10.217,10.217,0,0,0,68.9,61.242h2.552a5.1,5.1,0,0,0,5.1-5.1V45.931h1.276A3.819,3.819,0,0,0,81.66,42.1V34.448A3.819,3.819,0,0,0,77.833,30.62Zm23.557-5.965L88.63,2.55A5.105,5.105,0,0,0,81.66.684L65.169,10.205h-16.3a10.284,10.284,0,0,0-5.407,1.547L38.12,15.086a5.069,5.069,0,0,0-2.392,4.322V39.551a6.38,6.38,0,1,0,12.759,0V25.516H77.833a8.937,8.937,0,0,1,8.931,8.931v4.545l12.759-7.368a5.109,5.109,0,0,0,1.866-6.97Z" transform="translate(0.002 -0.001)" fill="#ffda2b"/>
</svg>
