<svg xmlns="http://www.w3.org/2000/svg" width="69.561" height="69.561" viewBox="0 0 69.561 69.561">
  <path id="Icon_material-blur-linear" data-name="Icon material-blur-linear" d="M12.229,60.535a5.8,5.8,0,1,0-5.8-5.8A5.789,5.789,0,0,0,12.229,60.535Zm15.458-17.39a3.864,3.864,0,1,0-3.864-3.864A3.876,3.876,0,0,0,27.687,43.145Zm0-15.458a3.864,3.864,0,1,0-3.864-3.864A3.876,3.876,0,0,0,27.687,27.687ZM4.5,74.061H74.061V66.332H4.5Zm7.729-44.441a5.8,5.8,0,1,0-5.8-5.8A5.789,5.789,0,0,0,12.229,29.619Zm0,15.458a5.8,5.8,0,1,0-5.8-5.8A5.789,5.789,0,0,0,12.229,45.077ZM27.687,58.6a3.864,3.864,0,1,0-3.864-3.864A3.876,3.876,0,0,0,27.687,58.6ZM58.6,56.67a1.932,1.932,0,1,0-1.932-1.932A1.913,1.913,0,0,0,58.6,56.67ZM4.5,4.5v7.729H74.061V4.5ZM58.6,25.755a1.932,1.932,0,1,0-1.932-1.932A1.913,1.913,0,0,0,58.6,25.755Zm0,15.458A1.932,1.932,0,1,0,56.67,39.28,1.913,1.913,0,0,0,58.6,41.213ZM43.145,27.687a3.864,3.864,0,1,0-3.864-3.864A3.876,3.876,0,0,0,43.145,27.687Zm0,15.458A3.864,3.864,0,1,0,39.28,39.28,3.876,3.876,0,0,0,43.145,43.145Zm0,15.458a3.864,3.864,0,1,0-3.864-3.864A3.876,3.876,0,0,0,43.145,58.6Z" transform="translate(-4.5 -4.5)" fill="#ffda2b"/>
</svg>
