<svg xmlns="http://www.w3.org/2000/svg" width="82.977" height="70.016" viewBox="0 0 82.977 70.016">
  <path id="Icon_awesome-tasks" data-name="Icon awesome-tasks" d="M22.626,2.82a1.945,1.945,0,0,0-2.755,0L9.55,13.08,5.872,9.5a1.945,1.945,0,0,0-2.755,0L.572,12.043a1.945,1.945,0,0,0,0,2.755L8.285,22.48a2.071,2.071,0,0,0,2.854,0l2.527-2.531,11.7-11.7a1.959,1.959,0,0,0,.015-2.755Zm0,25.8a1.945,1.945,0,0,0-2.755,0L9.55,38.946,5.872,35.364a1.945,1.945,0,0,0-2.755,0L.572,37.907a1.945,1.945,0,0,0,0,2.755l7.693,7.7a2.07,2.07,0,0,0,2.852,0l2.544-2.543,11.7-11.7a1.945,1.945,0,0,0,.015-2.739ZM10.372,56.706a7.78,7.78,0,1,0,0,15.558,7.779,7.779,0,1,0,0-15.558ZM80.384,59.3H33.709a2.593,2.593,0,0,0-2.593,2.593v5.186a2.593,2.593,0,0,0,2.593,2.593H80.384a2.593,2.593,0,0,0,2.593-2.593V61.892A2.593,2.593,0,0,0,80.384,59.3Zm0-51.86H33.709a2.593,2.593,0,0,0-2.593,2.593v5.186a2.593,2.593,0,0,0,2.593,2.593H80.384a2.593,2.593,0,0,0,2.593-2.593V10.032A2.593,2.593,0,0,0,80.384,7.439Zm0,25.93H33.709a2.593,2.593,0,0,0-2.593,2.593v5.186a2.593,2.593,0,0,0,2.593,2.593H80.384a2.593,2.593,0,0,0,2.593-2.593V35.962A2.593,2.593,0,0,0,80.384,33.369Z" transform="translate(0 -2.248)" fill="#ffda2b"/>
</svg>
