<svg xmlns="http://www.w3.org/2000/svg" width="82.869" height="82.868" viewBox="0 0 82.869 82.868">
  <path id="Icon_awesome-weight-hanging" data-name="Icon awesome-weight-hanging" d="M82.591,72.163,70.771,24.881a5.272,5.272,0,0,0-5-4.163H56.023a15.539,15.539,0,1,0-29.173,0H17.1a5.273,5.273,0,0,0-5,4.163L.278,72.163c-1.348,5.391,2.373,10.705,7.5,10.705H75.1C80.218,82.868,83.939,77.555,82.591,72.163ZM41.435,20.716a5.179,5.179,0,1,1,5.179-5.179A5.186,5.186,0,0,1,41.435,20.716Z" transform="translate(0 -0.001)" fill="#ffda2b"/>
</svg>
