<svg xmlns="http://www.w3.org/2000/svg" width="88.886" height="71.109" viewBox="0 0 88.886 71.109">
  <path id="Icon_awesome-user-check" data-name="Icon awesome-user-check" d="M31.11,35.554A17.777,17.777,0,1,0,13.333,17.777,17.776,17.776,0,0,0,31.11,35.554ZM43.554,40H41.235a24.176,24.176,0,0,1-20.249,0H18.666A18.671,18.671,0,0,0,0,58.665v5.778a6.668,6.668,0,0,0,6.666,6.666H55.554a6.668,6.668,0,0,0,6.666-6.666V58.665A18.671,18.671,0,0,0,43.554,40Zm44.86-17.833-3.861-3.9a1.647,1.647,0,0,0-2.333-.014L67.664,32.693l-6.319-6.361a1.647,1.647,0,0,0-2.333-.014l-3.9,3.875a1.647,1.647,0,0,0-.014,2.333l11.347,11.43a1.647,1.647,0,0,0,2.333.014L88.4,24.5a1.66,1.66,0,0,0,.014-2.333Z" fill="#ffda2b"/>
</svg>
