<svg xmlns="http://www.w3.org/2000/svg" width="156.652" height="83.576" viewBox="0 0 156.652 83.576">
  <g id="グループ_10735" data-name="グループ 10735" transform="translate(-152.424 -59.5)">
    <path id="Icon_material-smartphone" data-name="Icon material-smartphone" d="M53.087,1.538,15.1,1.5A7.62,7.62,0,0,0,7.5,9.1v68.38a7.62,7.62,0,0,0,7.6,7.6H53.087a7.62,7.62,0,0,0,7.6-7.6V9.1a7.588,7.588,0,0,0-7.6-7.56Zm0,68.342H15.1V16.7H53.087Z" transform="translate(144.924 58)" fill="#ffda2b"/>
    <path id="Icon_open-arrow-thick-right" data-name="Icon open-arrow-thick-right" d="M31.288,0V12.515H10V25.031H31.288V37.546L50.062,18.585Z" transform="translate(204.017 84.515)" fill="#ffda2b"/>
    <g id="Icon_feather-server" data-name="Icon feather-server" transform="translate(319.919 72.106) rotate(90)">
      <path id="パス_4378" data-name="パス 4378" d="M8.636,3h45.09a5.636,5.636,0,0,1,5.636,5.636V19.909a5.636,5.636,0,0,1-5.636,5.636H8.636A5.636,5.636,0,0,1,3,19.909V8.636A5.636,5.636,0,0,1,8.636,3Z" transform="translate(0 9.343)" fill="#ffda2b" stroke="#538eb4" stroke-linecap="round" stroke-linejoin="round" stroke-width="3"/>
      <path id="パス_4379" data-name="パス 4379" d="M8.636,21h45.09a5.636,5.636,0,0,1,5.636,5.636V37.909a5.636,5.636,0,0,1-5.636,5.636H8.636A5.636,5.636,0,0,1,3,37.909V26.636A5.636,5.636,0,0,1,8.636,21Z" transform="translate(0 13.887)" fill="#ffda2b" stroke="#538eb4" stroke-linecap="round" stroke-linejoin="round" stroke-width="3"/>
      <path id="パス_4380" data-name="パス 4380" d="M9,9H9" transform="translate(5.273 14.615)" fill="#ffda2b" stroke="#538eb4" stroke-linecap="round" stroke-linejoin="round" stroke-width="3"/>
      <path id="パス_4381" data-name="パス 4381" d="M9,27H9" transform="translate(5.273 19.16)" fill="#ffda2b" stroke="#538eb4" stroke-linecap="round" stroke-linejoin="round" stroke-width="3"/>
    </g>
  </g>
</svg>
