<svg xmlns="http://www.w3.org/2000/svg" width="143.305" height="52.872" viewBox="0 0 143.305 52.872">
  <g id="グループ_10730" data-name="グループ 10730" transform="translate(-265.348 -1427.178)">
    <g id="グループ_9136" data-name="グループ 9136" transform="translate(9.826 4)">
      <path id="Icon_awesome-user-check" data-name="Icon awesome-user-check" d="M21.36,24.411A12.205,12.205,0,1,0,9.154,12.205,12.2,12.2,0,0,0,21.36,24.411ZM29.9,27.462H28.311a16.6,16.6,0,0,1-13.9,0H12.816A12.819,12.819,0,0,0,0,40.278v3.967a4.578,4.578,0,0,0,4.577,4.577H38.142a4.578,4.578,0,0,0,4.577-4.577V40.278A12.819,12.819,0,0,0,29.9,27.462ZM60.7,15.219l-2.651-2.679a1.131,1.131,0,0,0-1.6-.01l-9.993,9.917-4.339-4.367a1.131,1.131,0,0,0-1.6-.01l-2.679,2.66a1.131,1.131,0,0,0-.01,1.6l7.791,7.848a1.131,1.131,0,0,0,1.6.01L60.694,16.821a1.14,1.14,0,0,0,.01-1.6Z" transform="translate(337.799 1423.178)" fill="#ffda2b"/>
    </g>
    <g id="Icon_ionic-md-photos" data-name="Icon ionic-md-photos" transform="translate(261.973 1423.803)">
      <path id="パス_4376" data-name="パス 4376" d="M48.1,47.176V13.3a5.439,5.439,0,0,0-5.426-5.426H8.8A5.439,5.439,0,0,0,3.375,13.3V47.189A5.439,5.439,0,0,0,8.8,52.615H42.689A5.456,5.456,0,0,0,48.1,47.176Zm-30.839-14.9L23.019,40.4l8.475-12.2L42.676,44.47H8.8Z" transform="translate(0 3.632)" fill="#ffda2b"/>
      <path id="パス_4377" data-name="パス 4377" d="M47.176,3.375H13.3A5.439,5.439,0,0,0,7.875,8.8v.673h33.2A5.439,5.439,0,0,1,46.5,14.9V48.1h.673A5.439,5.439,0,0,0,52.6,42.676V8.8A5.439,5.439,0,0,0,47.176,3.375Z" transform="translate(3.632)" fill="#ffda2b"/>
    </g>
    <g id="グループ_9242" data-name="グループ 9242" transform="translate(-54.146 4)">
      <path id="Icon_awesome-user-check-2" data-name="Icon awesome-user-check" d="M60.7,15.219l-2.651-2.679a1.131,1.131,0,0,0-1.6-.01l-9.993,9.917-4.339-4.367a1.131,1.131,0,0,0-1.6-.01l-2.679,2.66a1.131,1.131,0,0,0-.01,1.6l7.791,7.848a1.131,1.131,0,0,0,1.6.01L60.694,16.821a1.14,1.14,0,0,0,.01-1.6Z" transform="translate(337.799 1423.178)" fill="#ffda2b"/>
    </g>
  </g>
</svg>
