<svg xmlns="http://www.w3.org/2000/svg" xmlns:xlink="http://www.w3.org/1999/xlink" width="707.147" height="106.287" viewBox="0 0 707.147 106.287">
  <defs>
    <clipPath id="clip-path">
      <rect id="長方形_23048" data-name="長方形 23048" width="582.387" height="63.314" fill="none"/>
    </clipPath>
  </defs>
  <g id="グループ_9129" data-name="グループ 9129" transform="translate(-215.016 -599.849)">
    <g id="グループ_9124" data-name="グループ 9124" transform="translate(342.714 604.849)">
      <g id="グループ_9120" data-name="グループ 9120" transform="translate(3.558 3.56)" opacity="0.1">
        <path id="パス_4263" data-name="パス 4263" d="M321.479,632.407a16.411,16.411,0,0,1-6.661,1.191c-6.873,0-12.414-4.452-12.414-13.5,0-8.625,5.365-13.99,13.185-13.99a13.311,13.311,0,0,1,5.891,1.086l-.771,2.454a11.626,11.626,0,0,0-5.05-1.086c-6.067,0-10.2,4.066-10.2,11.432,0,7.013,3.788,11.151,10.029,11.151a13.243,13.243,0,0,0,5.365-1.087Z" transform="translate(-302.403 -606.108)" fill="none" stroke="#231815" stroke-width="10"/>
        <path id="パス_4264" data-name="パス 4264" d="M337.679,633.086h-3.085l-2.876-8.664h-9.292l-2.806,8.664h-2.981l8.838-26.721h3.366Zm-6.558-10.976-2.628-7.925c-.562-1.823-1.018-3.505-1.369-5.084h-.1c-.352,1.613-.841,3.3-1.332,4.978l-2.666,8.031Z" transform="translate(-295.256 -605.979)" fill="none" stroke="#231815" stroke-width="10"/>
        <path id="パス_4265" data-name="パス 4265" d="M358.681,633.086H355.8l-.665-12.028c-.21-3.823-.491-8.767-.457-11.5h-.1c-.877,3.015-1.965,6.313-3.262,10.029l-4.769,13.4h-2.139l-4.453-13.114c-1.3-3.859-2.315-7.225-3.051-10.31H336.8c-.071,3.261-.281,7.68-.526,11.782l-.738,11.749h-2.77l1.86-26.721H338.2l4.7,13.569c1.122,3.331,2,6.172,2.7,8.943h.105c.667-2.7,1.577-5.505,2.77-8.943l4.874-13.569H357Z" transform="translate(-287.16 -605.979)" fill="none" stroke="#231815" stroke-width="10"/>
        <path id="パス_4266" data-name="パス 4266" d="M321.479,632.407a16.411,16.411,0,0,1-6.661,1.191c-6.873,0-12.414-4.452-12.414-13.5,0-8.625,5.365-13.99,13.185-13.99a13.311,13.311,0,0,1,5.891,1.086l-.771,2.454a11.626,11.626,0,0,0-5.05-1.086c-6.067,0-10.2,4.066-10.2,11.432,0,7.013,3.788,11.151,10.029,11.151a13.243,13.243,0,0,0,5.365-1.087Z" transform="translate(-302.403 -606.108)" fill="#231815"/>
        <path id="パス_4267" data-name="パス 4267" d="M337.679,633.086h-3.085l-2.876-8.664h-9.292l-2.806,8.664h-2.981l8.838-26.721h3.366Zm-6.558-10.976-2.628-7.925c-.562-1.823-1.018-3.505-1.369-5.084h-.1c-.352,1.613-.841,3.3-1.332,4.978l-2.666,8.031Z" transform="translate(-295.256 -605.979)" fill="#231815"/>
        <path id="パス_4268" data-name="パス 4268" d="M358.681,633.086H355.8l-.665-12.028c-.21-3.823-.491-8.767-.457-11.5h-.1c-.877,3.015-1.965,6.313-3.262,10.029l-4.769,13.4h-2.139l-4.453-13.114c-1.3-3.859-2.315-7.225-3.051-10.31H336.8c-.071,3.261-.281,7.68-.526,11.782l-.738,11.749h-2.77l1.86-26.721H338.2l4.7,13.569c1.122,3.331,2,6.172,2.7,8.943h.105c.667-2.7,1.577-5.505,2.77-8.943l4.874-13.569H357Z" transform="translate(-287.16 -605.979)" fill="#231815"/>
      </g>
      <g id="グループ_9123" data-name="グループ 9123" transform="translate(0 0)">
        <g id="グループ_9121" data-name="グループ 9121">
          <path id="パス_4269" data-name="パス 4269" d="M319.11,630.038a16.407,16.407,0,0,1-6.663,1.191c-6.873,0-12.413-4.453-12.413-13.5,0-8.625,5.365-13.991,13.185-13.991a13.32,13.32,0,0,1,5.891,1.087l-.772,2.454a11.6,11.6,0,0,0-5.048-1.086c-6.067,0-10.2,4.066-10.2,11.43,0,7.013,3.787,11.151,10.029,11.151a13.256,13.256,0,0,0,5.365-1.086Z" transform="translate(-300.034 -603.738)" fill="none" stroke="#2aa239" stroke-width="10"/>
          <path id="パス_4270" data-name="パス 4270" d="M335.31,630.716h-3.087l-2.875-8.662h-9.291l-2.807,8.662h-2.98l8.838-26.721h3.366Zm-6.558-10.975-2.628-7.926c-.562-1.823-1.018-3.506-1.37-5.084h-.105c-.35,1.615-.84,3.3-1.332,4.979l-2.665,8.031Z" transform="translate(-292.887 -603.609)" fill="none" stroke="#2aa239" stroke-width="10"/>
          <path id="パス_4271" data-name="パス 4271" d="M356.312,630.716h-2.876l-.667-12.028c-.209-3.823-.491-8.767-.455-11.5h-.105c-.877,3.016-1.963,6.313-3.261,10.03l-4.769,13.4H342.04L337.587,617.5c-1.3-3.857-2.315-7.223-3.051-10.31h-.105c-.07,3.262-.281,7.679-.526,11.783l-.737,11.747H330.4l1.858-26.721h3.576l4.7,13.569c1.122,3.333,2,6.173,2.7,8.943h.1c.668-2.7,1.579-5.5,2.771-8.943l4.874-13.569h3.647Z" transform="translate(-284.791 -603.609)" fill="none" stroke="#2aa239" stroke-width="10"/>
        </g>
        <g id="グループ_9122" data-name="グループ 9122">
          <path id="パス_4272" data-name="パス 4272" d="M319.11,630.038a16.407,16.407,0,0,1-6.663,1.191c-6.873,0-12.413-4.453-12.413-13.5,0-8.625,5.365-13.991,13.185-13.991a13.32,13.32,0,0,1,5.891,1.087l-.772,2.454a11.6,11.6,0,0,0-5.048-1.086c-6.067,0-10.2,4.066-10.2,11.43,0,7.013,3.787,11.151,10.029,11.151a13.256,13.256,0,0,0,5.365-1.086Z" transform="translate(-300.034 -603.738)" fill="#fff"/>
          <path id="パス_4273" data-name="パス 4273" d="M335.31,630.716h-3.087l-2.875-8.662h-9.291l-2.807,8.662h-2.98l8.838-26.721h3.366Zm-6.558-10.975-2.628-7.926c-.562-1.823-1.018-3.506-1.37-5.084h-.105c-.35,1.615-.84,3.3-1.332,4.979l-2.665,8.031Z" transform="translate(-292.887 -603.609)" fill="#fff"/>
          <path id="パス_4274" data-name="パス 4274" d="M356.312,630.716h-2.876l-.667-12.028c-.209-3.823-.491-8.767-.455-11.5h-.105c-.877,3.016-1.963,6.313-3.261,10.03l-4.769,13.4H342.04L337.587,617.5c-1.3-3.857-2.315-7.223-3.051-10.31h-.105c-.07,3.262-.281,7.679-.526,11.783l-.737,11.747H330.4l1.858-26.721h3.576l4.7,13.569c1.122,3.333,2,6.173,2.7,8.943h.1c.668-2.7,1.579-5.5,2.771-8.943l4.874-13.569h3.647Z" transform="translate(-284.791 -603.609)" fill="#fff"/>
        </g>
      </g>
    </g>
    <g id="グループ_9128" data-name="グループ 9128" transform="translate(215.016 601.526)">
      <g id="グループ_9127" data-name="グループ 9127" transform="translate(124.76 38.015)" opacity="0.1" style="mix-blend-mode: multiply;isolation: isolate">
        <g id="グループ_9126" data-name="グループ 9126">
          <g id="グループ_9125" data-name="グループ 9125" clip-path="url(#clip-path)">
            <path id="パス_4275" data-name="パス 4275" d="M308.793,645.011c-3.186,0-4.9-.9-4.9-4.47,0-3.614,1.475-4.659,4.9-4.659h31.43c2.613,0,5.421.428,5.421,4.184,0,2.282-1.334,5.612-4.09,9.605-3.518,5.135-8.939,9.368-11.838,11.363,3.848,3.567,4.945,4.564,4.945,6.466,0,3.138-3.426,5.66-5.85,5.66-1.427,0-2.092-.524-3.8-2.426a116.162,116.162,0,0,0-11.935-11.266c-1.379-1.143-2.092-2.046-2.092-3.379a5.4,5.4,0,0,1,5.229-4.99c1.9,0,3.282,1.046,6.993,4.04a40.344,40.344,0,0,0,4.565-3.851,29.663,29.663,0,0,0,5.373-6.277Z" transform="translate(-295.157 -622.294)" fill="none" stroke="#231815" stroke-linecap="round" stroke-linejoin="round" stroke-width="11.636"/>
            <path id="パス_4276" data-name="パス 4276" d="M363.384,671.817c0,2.993-1.239,4.659-4.757,4.659-4.279,0-5.182-1.616-5.182-4.659V657.266c-5.9,3.138-10.651,5.326-12.98,5.326-3.9,0-4.661-4.09-4.661-5.326,0-2.091.951-2.711,4.089-3.947a74,74,0,0,0,25.914-16.5c.285-.285,1.332-1.331,1.9-1.948a3.92,3.92,0,0,1,2.806-1.238c2.187,0,5.657,2.094,5.657,4.9,0,1.618-.808,2.807-3.661,5.28-3.186,2.71-6.8,5.516-9.128,7.18Z" transform="translate(-279.139 -623.422)" fill="none" stroke="#231815" stroke-linecap="round" stroke-linejoin="round" stroke-width="11.636"/>
            <path id="パス_4277" data-name="パス 4277" d="M384.181,638.563c0-3,1.094-4.707,4.707-4.707,3.946,0,5.041,1.473,5.041,4.707v4.518h10.7c2.947,0,4.566,1.14,4.566,4.372,0,3.33-1.427,4.662-4.566,4.662h-10.7a34.248,34.248,0,0,1-1.616,9.508c-1.951,5.849-6.8,10.176-12.458,12.887a11.784,11.784,0,0,1-4.566,1.331c-3.423,0-4.943-3.425-4.943-5.516,0-1.761,1-2.52,2.9-3.33,3.567-1.474,6.848-3.423,8.987-6.7,1.286-2,1.949-6.229,1.949-8.177H372.009c-2.993,0-4.516-1.238-4.516-4.424,0-3.329,1.377-4.611,4.516-4.611h12.172Z" transform="translate(-263.231 -623.311)" fill="none" stroke="#231815" stroke-linecap="round" stroke-linejoin="round" stroke-width="11.636"/>
            <path id="パス_4278" data-name="パス 4278" d="M413.016,649.005c-.952,0-1.473-.237-6.134-2.71-1.095-.571-2.285-1.093-3.9-1.759-2.331-.951-2.759-2.188-2.759-3.471,0-2.378,1.9-5.564,4.8-5.564,2.091,0,6.75,2.187,9.033,3.28,3.138,1.475,3.948,2.189,3.948,4.279C418.009,645.011,416.107,649.005,413.016,649.005Zm18.448,13.123c-5.467,6.136-11.6,8.655-17.117,10.367a35.8,35.8,0,0,1-8.417,1.759c-3.8,0-4.9-3.614-4.9-5.9,0-2.663,1.616-3.473,3.471-3.853,9.795-1.854,20.827-3.994,26.913-21.73.853-2.519,1.805-3.423,3.755-3.423,2.094,0,5.421,1.618,5.421,4.708C440.593,646.914,436.6,656.329,431.464,662.128Z" transform="translate(-246.799 -622.484)" fill="none" stroke="#231815" stroke-linecap="round" stroke-linejoin="round" stroke-width="11.636"/>
            <path id="パス_4279" data-name="パス 4279" d="M443.341,664.43a36.323,36.323,0,0,1-3.473,8.464,4.028,4.028,0,0,1-3.564,2.094c-2.569,0-5.849-2.759-5.849-5.374,0-.808.1-1.141,1.19-3.139,4.136-7.606,5.325-16.4,6.037-26.626.142-2.139.668-3.9,3.854-3.9,4.8,0,5.134,2.852,5.134,4.375C446.669,641.987,445.384,656.966,443.341,664.43Zm28.005,1.475c.952,1.568,1.379,2.424,1.379,3.47,0,2.9-3.423,5.563-6.181,5.563-2.185,0-3.139-1.616-4.329-4.136-3.041-6.372-4.658-11.981-6.179-23.583-.237-1.807-.714-5.325-.714-6.99,0-2.33,1-4.135,3.851-4.135a8.838,8.838,0,0,1,1.855.284c1.142,4.327,1.666,6.133,3.662,6.42C465.212,647.741,466.211,657.25,471.346,665.9Zm-4.231-30.051a15.239,15.239,0,0,1,.951,3.471c0,1.284-1,2-2.519,2-1.427,0-1.76-.665-2.472-3.328-.1-.284-.43-1.282-.571-1.95a2.393,2.393,0,0,1-.095-.665c0-1.616,1.711-1.9,2.328-1.9C466.164,633.478,466.544,634.38,467.115,635.854Zm6.038-.762a18.55,18.55,0,0,1,1,3.567,2.013,2.013,0,0,1-2.19,2.044,1.94,1.94,0,0,1-1.948-1.331c-.189-.572-1-3.043-1.188-3.567a3.266,3.266,0,0,1-.237-1.188c0-1.284,1.425-1.711,2.185-1.711C472.3,632.907,472.629,633.81,473.153,635.092Z" transform="translate(-231.622 -623.787)" fill="none" stroke="#231815" stroke-linecap="round" stroke-linejoin="round" stroke-width="11.636"/>
            <path id="パス_4280" data-name="パス 4280" d="M499.5,644.619c3.043,0,4.8.9,4.8,4.659,0,3-.856,4.945-4.8,4.945H467.309c-3.281,0-4.946-1.045-4.946-4.658,0-3.663,1.38-4.946,4.946-4.946Z" transform="translate(-215.604 -617.908)" fill="none" stroke="#231815" stroke-linecap="round" stroke-linejoin="round" stroke-width="11.636"/>
            <path id="パス_4281" data-name="パス 4281" d="M512.882,669.9a14.248,14.248,0,0,1,2.187-1.522,34.65,34.65,0,0,0,4.9-3.756c-3.422-6.182-5.849-13.694-5.849-15.881,0-3,3.14-4.233,5-4.233,2.28,0,2.661.714,3.468,3.851a50.083,50.083,0,0,0,2.852,8.321,36.284,36.284,0,0,0,3.139-13.36h-9.84c-3,0-4.9,0-4.9-4.281,0-4.421,1.757-4.421,4.9-4.421H532c2.8,0,5.467.476,5.467,5.467a50.427,50.427,0,0,1-.617,7.037c-1.236,8.321-2.758,12.267-5.9,17.451a30.5,30.5,0,0,0,5.323,4.374c1.76,1.095,2.188,1.807,2.188,3.043,0,2.33-2.188,5.993-4.707,5.993-2,0-5.9-3.234-8.606-6.229-.949.9-1.663,1.568-3.422,3-2.379,2-3.33,2.8-4.662,2.8-1.474,0-3.186-1.331-4.183-3.423v.714c0,1.807-.38,3.614-4.233,3.614-4.423,0-4.423-1.807-4.423-4.9v-5.8c-1.09.619-7.082,3.661-8.889,3.661-1.189,0-1.855-.618-2.19-1.95a14.847,14.847,0,0,1-.521-3.661,2.923,2.923,0,0,1,1.711-2.661V639.707c0-2.426,1.286-3.471,4.043-3.471,2.852,0,4.089,1.046,4.089,3.471v20.922a9.61,9.61,0,0,0,1.757-.714V637.661c0-3,0-4.945,4.234-4.945,4.422,0,4.422,1.855,4.422,4.945Z" transform="translate(-200.411 -623.883)" fill="none" stroke="#231815" stroke-linecap="round" stroke-linejoin="round" stroke-width="11.636"/>
            <path id="パス_4282" data-name="パス 4282" d="M558.169,667.126a27.777,27.777,0,0,0,6.655,2.376c3.519.858,4.563,1.143,4.563,2.854a7.313,7.313,0,0,1-1.57,3.662,4.1,4.1,0,0,1-3.564,1.759c-2.9,0-9.033-3.186-12.79-6.371V673.5c0,3.043,0,4.9-4.328,4.9-4.47,0-4.47-1.806-4.47-4.9v-1.806c-2.235,1.615-9.557,6.085-12.552,6.085-4.136,0-5.087-4.613-5.087-5.563,0-1.427.76-2.044,3.564-2.615a28.562,28.562,0,0,0,7.133-2.472H528.07c-2.519,0-3.567-1.19-3.567-3.711,0-2.423,1.284-3.42,3.567-3.42h14.6v-1.142H535.25c-5.421,0-5.706-2.045-5.8-6.657l-.048-2.852a2.635,2.635,0,0,1-1.38.427c-2.234,0-3.423-4.279-3.423-5.421,0-1.616.526-2.328,1.9-3.612a25.9,25.9,0,0,0,3.9-4.661c2.094-3.042,3-3.375,5.9-3.375,2.187,0,4.042.38,4.042,2.045a4.542,4.542,0,0,1-.144.9h4.659c.76-2.091,1.379-2.995,5.185-2.995,1,0,4.089,0,4.089,2.044a2.007,2.007,0,0,1-.239.951h10.08c1.757,0,3.282.762,3.282,3.091,0,2.092-1.286,3.091-3.282,3.091H552.606v1.14h10.888c1.52,0,2.378.571,2.378,1.807,0,1.476-1.188,1.807-2.378,1.807H552.606v1.142h10.936c1.854,0,2.33.809,2.33,1.807,0,1.379-1.142,1.807-2.33,1.807H552.606v1.141H565.3c2,0,3.328.76,3.328,3.282,0,2.091-1.331,3.089-3.328,3.089H551.464v1.142h15.164c2.19,0,3.33,1.14,3.33,3.709,0,2.233-1.14,3.423-3.33,3.423Zm-19.924-23.965h6.324V641.64h-6.324Zm0,4.661h6.324V646.3h-6.324Zm0,4.707h6.324v-1.521h-6.324Z" transform="translate(-184.408 -623.915)" fill="none" stroke="#231815" stroke-linecap="round" stroke-linejoin="round" stroke-width="11.636"/>
            <path id="パス_4283" data-name="パス 4283" d="M583.008,640.258c0-3.992,0-6.37,4.562-6.37,5.089,0,5.089,2.044,5.089,6.37v1.618c3.376,0,4.422,0,5.374.619a4.053,4.053,0,0,1,1.664,3.661c0,2.092-.523,3.233-1.712,3.994-.9.571-2.378.619-5.326.619v4.611c0,7.7-1.948,15.121-14.217,19.162a29.664,29.664,0,0,1-7.988,1.617c-3.186,0-4.516-2.71-4.516-4.993,0-2.615,1.711-3.471,3.8-3.8,11.363-1.712,13.268-5.708,13.268-12.077v-4.517H573.26v4.376c0,3.992,0,6.37-4.518,6.37-4.707,0-4.707-2.187-4.707-6.324v-4.422c-3.09,0-4.279-.095-5.184-.619a3.892,3.892,0,0,1-1.711-3.661c0-4.661,2.426-4.612,6.894-4.612v-1.618c0-3.851,0-6.37,4.47-6.37,4.755,0,4.755,2.235,4.755,6.37v1.618h9.748Z" transform="translate(-168.024 -623.295)" fill="none" stroke="#231815" stroke-linecap="round" stroke-linejoin="round" stroke-width="11.636"/>
            <path id="パス_4284" data-name="パス 4284" d="M626.122,644.619c3.043,0,4.8.9,4.8,4.659,0,3-.853,4.945-4.8,4.945H593.931c-3.281,0-4.945-1.045-4.945-4.658,0-3.663,1.379-4.946,4.945-4.946Z" transform="translate(-152.037 -617.908)" fill="none" stroke="#231815" stroke-linecap="round" stroke-linejoin="round" stroke-width="11.636"/>
            <path id="パス_4285" data-name="パス 4285" d="M632.509,647.5a78.6,78.6,0,0,0,17.595-7.037,3.452,3.452,0,0,0,3.376,1.951,4.694,4.694,0,0,0,1.661-.335,4.638,4.638,0,0,1,1.57,3.472c0,2.139-.9,2.949-3.374,4.09a115.391,115.391,0,0,1-20.829,6.987v7.133c0,1.76.143,2.615,2.615,2.615h11.7c1.095,0,7.039-.428,8.416-.428,2.854,0,3.8,1.9,3.8,4.566,0,2.614-1,3.85-2.713,4.469a24.87,24.87,0,0,1-6.131.522H633.081c-6.373,0-10.224-2.139-10.224-8.462V639.9c0-3.52,1.712-4.422,4.993-4.422,3.376,0,4.659,1.474,4.659,4.422Zm22.54-11.933a15.758,15.758,0,0,1,.809,3.376c0,1.663-1.714,1.853-2.616,1.853-1.523,0-1.808-.95-2.283-2.852a21.38,21.38,0,0,1-.524-2.711c0-1.331,1-1.9,2.38-1.9C654.288,633.335,654.618,634.38,655.048,635.57Zm6.9-.714a15.578,15.578,0,0,1,.9,3.471c0,1.047-.76,1.95-2.426,1.95-1.331,0-1.616-.666-2.094-2.378-.14-.522-.234-.808-.664-2.139a4.309,4.309,0,0,1-.235-1.285c0-1.332,1.19-1.76,2.424-1.76C661.181,632.716,661.659,633.952,661.944,634.856Z" transform="translate(-135.033 -623.883)" fill="none" stroke="#231815" stroke-linecap="round" stroke-linejoin="round" stroke-width="11.636"/>
            <path id="パス_4286" data-name="パス 4286" d="M682.679,635.154c2.092,0,4.47.713,4.47,4.089,0,2.615-2,8.846-7.036,16.689a111.4,111.4,0,0,1,11.078,8.749c1.757,1.57,2.616,2.568,2.616,4.09,0,2.569-3.283,6.04-6.086,6.04a4.066,4.066,0,0,1-3.044-1.523c-5.325-5.563-6.8-7.132-10.223-10.175a74.293,74.293,0,0,1-10.8,9.224c-3.186,2.189-4.847,2.71-6.322,2.71-3.235,0-4.85-3.469-4.85-5.277,0-1.951,1.042-2.615,3.8-4.137a45.5,45.5,0,0,0,13.551-11.46,35.066,35.066,0,0,0,5.944-10.221h-17.26c-3,0-4.661-1.238-4.661-4.375,0-3.282,1.664-4.422,4.661-4.422Z" transform="translate(-120.158 -622.659)" fill="none" stroke="#231815" stroke-linecap="round" stroke-linejoin="round" stroke-width="11.636"/>
            <path id="パス_4287" data-name="パス 4287" d="M308.793,645.011c-3.186,0-4.9-.9-4.9-4.47,0-3.614,1.475-4.659,4.9-4.659h31.43c2.613,0,5.421.428,5.421,4.184,0,2.282-1.334,5.612-4.09,9.605-3.518,5.135-8.939,9.368-11.838,11.363,3.848,3.567,4.945,4.564,4.945,6.466,0,3.138-3.426,5.66-5.85,5.66-1.427,0-2.092-.524-3.8-2.426a116.162,116.162,0,0,0-11.935-11.266c-1.379-1.143-2.092-2.046-2.092-3.379a5.4,5.4,0,0,1,5.229-4.99c1.9,0,3.282,1.046,6.993,4.04a40.344,40.344,0,0,0,4.565-3.851,29.663,29.663,0,0,0,5.373-6.277Z" transform="translate(-295.157 -622.294)" fill="#231815"/>
            <path id="パス_4288" data-name="パス 4288" d="M363.384,671.817c0,2.993-1.239,4.659-4.757,4.659-4.279,0-5.182-1.616-5.182-4.659V657.266c-5.9,3.138-10.651,5.326-12.98,5.326-3.9,0-4.661-4.09-4.661-5.326,0-2.091.951-2.711,4.089-3.947a74,74,0,0,0,25.914-16.5c.285-.285,1.332-1.331,1.9-1.948a3.92,3.92,0,0,1,2.806-1.238c2.187,0,5.657,2.094,5.657,4.9,0,1.618-.808,2.807-3.661,5.28-3.186,2.71-6.8,5.516-9.128,7.18Z" transform="translate(-279.139 -623.422)" fill="#231815"/>
            <path id="パス_4289" data-name="パス 4289" d="M384.181,638.563c0-3,1.094-4.707,4.707-4.707,3.946,0,5.041,1.473,5.041,4.707v4.518h10.7c2.947,0,4.566,1.14,4.566,4.372,0,3.33-1.427,4.662-4.566,4.662h-10.7a34.248,34.248,0,0,1-1.616,9.508c-1.951,5.849-6.8,10.176-12.458,12.887a11.784,11.784,0,0,1-4.566,1.331c-3.423,0-4.943-3.425-4.943-5.516,0-1.761,1-2.52,2.9-3.33,3.567-1.474,6.848-3.423,8.987-6.7,1.286-2,1.949-6.229,1.949-8.177H372.009c-2.993,0-4.516-1.238-4.516-4.424,0-3.329,1.377-4.611,4.516-4.611h12.172Z" transform="translate(-263.231 -623.311)" fill="#231815"/>
            <path id="パス_4290" data-name="パス 4290" d="M413.016,649.005c-.952,0-1.473-.237-6.134-2.71-1.095-.571-2.285-1.093-3.9-1.759-2.331-.951-2.759-2.188-2.759-3.471,0-2.378,1.9-5.564,4.8-5.564,2.091,0,6.75,2.187,9.033,3.28,3.138,1.475,3.948,2.189,3.948,4.279,0,1.95-1.9,5.944-4.993,5.944m18.448,13.123c-5.467,6.136-11.6,8.655-17.117,10.367a35.8,35.8,0,0,1-8.417,1.759c-3.8,0-4.9-3.614-4.9-5.9,0-2.663,1.616-3.473,3.471-3.853,9.795-1.854,20.827-3.994,26.913-21.73.853-2.519,1.805-3.423,3.755-3.423,2.094,0,5.421,1.618,5.421,4.708,0,2.854-3.994,12.268-9.129,18.068" transform="translate(-246.799 -622.484)" fill="#231815"/>
            <path id="パス_4291" data-name="パス 4291" d="M443.341,664.43a36.323,36.323,0,0,1-3.473,8.464,4.028,4.028,0,0,1-3.564,2.094c-2.569,0-5.849-2.759-5.849-5.374,0-.808.1-1.141,1.19-3.139,4.136-7.606,5.325-16.4,6.037-26.626.142-2.139.668-3.9,3.854-3.9,4.8,0,5.134,2.852,5.134,4.375,0,1.663-1.286,16.642-3.329,24.106m28.005,1.475c.952,1.568,1.379,2.424,1.379,3.47,0,2.9-3.423,5.563-6.181,5.563-2.185,0-3.139-1.616-4.329-4.136-3.041-6.372-4.658-11.981-6.179-23.583-.237-1.807-.714-5.325-.714-6.99,0-2.33,1-4.135,3.851-4.135a8.838,8.838,0,0,1,1.855.284c1.142,4.327,1.666,6.133,3.662,6.42.521,4.944,1.52,14.454,6.656,23.108m-4.231-30.051a15.239,15.239,0,0,1,.951,3.471c0,1.284-1,2-2.519,2-1.427,0-1.76-.665-2.472-3.328-.1-.284-.43-1.282-.571-1.95a2.393,2.393,0,0,1-.095-.665c0-1.616,1.711-1.9,2.328-1.9,1.427,0,1.807.9,2.378,2.376m6.038-.762a18.55,18.55,0,0,1,1,3.567,2.013,2.013,0,0,1-2.19,2.044,1.94,1.94,0,0,1-1.948-1.331c-.189-.572-1-3.043-1.188-3.567a3.266,3.266,0,0,1-.237-1.188c0-1.284,1.425-1.711,2.185-1.711,1.523,0,1.854.9,2.378,2.185" transform="translate(-231.622 -623.787)" fill="#231815"/>
            <path id="パス_4292" data-name="パス 4292" d="M499.5,644.619c3.043,0,4.8.9,4.8,4.659,0,3-.856,4.945-4.8,4.945H467.309c-3.281,0-4.946-1.045-4.946-4.658,0-3.663,1.38-4.946,4.946-4.946Z" transform="translate(-215.604 -617.908)" fill="#231815"/>
            <path id="パス_4293" data-name="パス 4293" d="M512.882,669.9a14.248,14.248,0,0,1,2.187-1.522,34.65,34.65,0,0,0,4.9-3.756c-3.422-6.182-5.849-13.694-5.849-15.881,0-3,3.14-4.233,5-4.233,2.28,0,2.661.714,3.468,3.851a50.083,50.083,0,0,0,2.852,8.321,36.284,36.284,0,0,0,3.139-13.36h-9.84c-3,0-4.9,0-4.9-4.281,0-4.421,1.757-4.421,4.9-4.421H532c2.8,0,5.467.476,5.467,5.467a50.427,50.427,0,0,1-.617,7.037c-1.236,8.321-2.758,12.267-5.9,17.451a30.5,30.5,0,0,0,5.323,4.374c1.76,1.095,2.188,1.807,2.188,3.043,0,2.33-2.188,5.993-4.707,5.993-2,0-5.9-3.234-8.606-6.229-.949.9-1.663,1.568-3.422,3-2.379,2-3.33,2.8-4.662,2.8-1.474,0-3.186-1.331-4.183-3.423v.714c0,1.807-.38,3.614-4.233,3.614-4.423,0-4.423-1.807-4.423-4.9v-5.8c-1.09.619-7.082,3.661-8.889,3.661-1.189,0-1.855-.618-2.19-1.95a14.847,14.847,0,0,1-.521-3.661,2.923,2.923,0,0,1,1.711-2.661V639.707c0-2.426,1.286-3.471,4.043-3.471,2.852,0,4.089,1.046,4.089,3.471v20.922a9.61,9.61,0,0,0,1.757-.714V637.661c0-3,0-4.945,4.234-4.945,4.422,0,4.422,1.855,4.422,4.945Z" transform="translate(-200.411 -623.883)" fill="#231815"/>
            <path id="パス_4294" data-name="パス 4294" d="M558.169,667.126a27.777,27.777,0,0,0,6.655,2.376c3.519.858,4.563,1.143,4.563,2.854a7.313,7.313,0,0,1-1.57,3.662,4.1,4.1,0,0,1-3.564,1.759c-2.9,0-9.033-3.186-12.79-6.371V673.5c0,3.043,0,4.9-4.328,4.9-4.47,0-4.47-1.806-4.47-4.9v-1.806c-2.235,1.615-9.557,6.085-12.552,6.085-4.136,0-5.087-4.613-5.087-5.563,0-1.427.76-2.044,3.564-2.615a28.562,28.562,0,0,0,7.133-2.472H528.07c-2.519,0-3.567-1.19-3.567-3.711,0-2.423,1.284-3.42,3.567-3.42h14.6v-1.142H535.25c-5.421,0-5.706-2.045-5.8-6.657l-.048-2.852a2.635,2.635,0,0,1-1.38.427c-2.234,0-3.423-4.279-3.423-5.421,0-1.616.526-2.328,1.9-3.612a25.9,25.9,0,0,0,3.9-4.661c2.094-3.042,3-3.375,5.9-3.375,2.187,0,4.042.38,4.042,2.045a4.542,4.542,0,0,1-.144.9h4.659c.76-2.091,1.379-2.995,5.185-2.995,1,0,4.089,0,4.089,2.044a2.007,2.007,0,0,1-.239.951h10.08c1.757,0,3.282.762,3.282,3.091,0,2.092-1.286,3.091-3.282,3.091H552.606v1.14h10.888c1.52,0,2.378.571,2.378,1.807,0,1.476-1.188,1.807-2.378,1.807H552.606v1.142h10.936c1.854,0,2.33.809,2.33,1.807,0,1.379-1.142,1.807-2.33,1.807H552.606v1.141H565.3c2,0,3.328.76,3.328,3.282,0,2.091-1.331,3.089-3.328,3.089H551.464v1.142h15.164c2.19,0,3.33,1.14,3.33,3.709,0,2.233-1.14,3.423-3.33,3.423Zm-19.924-23.965h6.324V641.64h-6.324Zm0,4.661h6.324V646.3h-6.324Zm0,4.707h6.324v-1.521h-6.324Z" transform="translate(-184.408 -623.915)" fill="#231815"/>
            <path id="パス_4295" data-name="パス 4295" d="M583.008,640.258c0-3.992,0-6.37,4.562-6.37,5.089,0,5.089,2.044,5.089,6.37v1.618c3.376,0,4.422,0,5.374.619a4.053,4.053,0,0,1,1.664,3.661c0,2.092-.523,3.233-1.712,3.994-.9.571-2.378.619-5.326.619v4.611c0,7.7-1.948,15.121-14.217,19.162a29.664,29.664,0,0,1-7.988,1.617c-3.186,0-4.516-2.71-4.516-4.993,0-2.615,1.711-3.471,3.8-3.8,11.363-1.712,13.268-5.708,13.268-12.077v-4.517H573.26v4.376c0,3.992,0,6.37-4.518,6.37-4.707,0-4.707-2.187-4.707-6.324v-4.422c-3.09,0-4.279-.095-5.184-.619a3.892,3.892,0,0,1-1.711-3.661c0-4.661,2.426-4.612,6.894-4.612v-1.618c0-3.851,0-6.37,4.47-6.37,4.755,0,4.755,2.235,4.755,6.37v1.618h9.748Z" transform="translate(-168.024 -623.295)" fill="#231815"/>
            <path id="パス_4296" data-name="パス 4296" d="M626.122,644.619c3.043,0,4.8.9,4.8,4.659,0,3-.853,4.945-4.8,4.945H593.931c-3.281,0-4.945-1.045-4.945-4.658,0-3.663,1.379-4.946,4.945-4.946Z" transform="translate(-152.037 -617.908)" fill="#231815"/>
            <path id="パス_4297" data-name="パス 4297" d="M632.509,647.5a78.6,78.6,0,0,0,17.595-7.037,3.452,3.452,0,0,0,3.376,1.951,4.694,4.694,0,0,0,1.661-.335,4.638,4.638,0,0,1,1.57,3.472c0,2.139-.9,2.949-3.374,4.09a115.391,115.391,0,0,1-20.829,6.987v7.133c0,1.76.143,2.615,2.615,2.615h11.7c1.095,0,7.039-.428,8.416-.428,2.854,0,3.8,1.9,3.8,4.566,0,2.614-1,3.85-2.713,4.469a24.87,24.87,0,0,1-6.131.522H633.081c-6.373,0-10.224-2.139-10.224-8.462V639.9c0-3.52,1.712-4.422,4.993-4.422,3.376,0,4.659,1.474,4.659,4.422Zm22.54-11.933a15.758,15.758,0,0,1,.809,3.376c0,1.663-1.714,1.853-2.616,1.853-1.523,0-1.808-.95-2.283-2.852a21.38,21.38,0,0,1-.524-2.711c0-1.331,1-1.9,2.38-1.9,1.474,0,1.805,1.045,2.235,2.235m6.9-.714a15.578,15.578,0,0,1,.9,3.471c0,1.047-.76,1.95-2.426,1.95-1.331,0-1.616-.666-2.094-2.378-.14-.522-.234-.808-.664-2.139a4.309,4.309,0,0,1-.235-1.285c0-1.332,1.19-1.76,2.424-1.76,1.331,0,1.808,1.236,2.094,2.14" transform="translate(-135.033 -623.883)" fill="#231815"/>
            <path id="パス_4298" data-name="パス 4298" d="M682.679,635.154c2.092,0,4.47.713,4.47,4.089,0,2.615-2,8.846-7.036,16.689a111.4,111.4,0,0,1,11.078,8.749c1.757,1.57,2.616,2.568,2.616,4.09,0,2.569-3.283,6.04-6.086,6.04a4.066,4.066,0,0,1-3.044-1.523c-5.325-5.563-6.8-7.132-10.223-10.175a74.293,74.293,0,0,1-10.8,9.224c-3.186,2.189-4.847,2.71-6.322,2.71-3.235,0-4.85-3.469-4.85-5.277,0-1.951,1.042-2.615,3.8-4.137a45.5,45.5,0,0,0,13.551-11.46,35.066,35.066,0,0,0,5.944-10.221h-17.26c-3,0-4.661-1.238-4.661-4.375,0-3.282,1.664-4.422,4.661-4.422Z" transform="translate(-120.158 -622.659)" fill="#231815"/>
          </g>
        </g>
      </g>
      <path id="パス_4299" data-name="パス 4299" d="M304.912,641.133c-3.186,0-4.9-.906-4.9-4.472,0-3.614,1.476-4.659,4.9-4.659h31.43c2.615,0,5.419.428,5.419,4.184,0,2.282-1.329,5.61-4.087,9.6-3.519,5.137-8.941,9.366-11.839,11.364,3.85,3.567,4.945,4.565,4.945,6.466,0,3.138-3.426,5.658-5.85,5.658-1.427,0-2.091-.521-3.8-2.424a116.45,116.45,0,0,0-11.933-11.268c-1.379-1.143-2.094-2.046-2.094-3.377a5.405,5.405,0,0,1,5.232-4.993c1.9,0,3.281,1.045,6.989,4.042a39.947,39.947,0,0,0,4.566-3.854,29.607,29.607,0,0,0,5.373-6.272Z" transform="translate(-172.346 -586.227)" fill="none" stroke="#1eaa39" stroke-linecap="round" stroke-linejoin="round" stroke-width="11.636"/>
      <path id="パス_4300" data-name="パス 4300" d="M359.5,667.937c0,2.994-1.235,4.659-4.754,4.659-4.281,0-5.183-1.616-5.183-4.659v-14.55c-5.894,3.136-10.651,5.325-12.979,5.325-3.9,0-4.662-4.09-4.662-5.325,0-2.092.952-2.711,4.09-3.947a74.044,74.044,0,0,0,25.914-16.5c.284-.285,1.331-1.331,1.9-1.95a3.934,3.934,0,0,1,2.806-1.236c2.188,0,5.657,2.091,5.657,4.9,0,1.616-.807,2.806-3.661,5.278-3.184,2.709-6.8,5.515-9.129,7.18Z" transform="translate(-156.327 -587.355)" fill="none" stroke="#1eaa39" stroke-linecap="round" stroke-linejoin="round" stroke-width="11.636"/>
      <path id="パス_4301" data-name="パス 4301" d="M380.3,634.683c0-3,1.095-4.707,4.709-4.707,3.946,0,5.039,1.473,5.039,4.707V639.2h10.7c2.947,0,4.566,1.141,4.566,4.374,0,3.328-1.428,4.661-4.566,4.661h-10.7a34.183,34.183,0,0,1-1.618,9.507c-1.948,5.851-6.8,10.177-12.458,12.887a11.752,11.752,0,0,1-4.565,1.332c-3.423,0-4.943-3.425-4.943-5.517,0-1.759,1-2.521,2.9-3.329,3.566-1.473,6.846-3.423,8.987-6.7,1.284-2,1.948-6.227,1.948-8.177H368.128c-2.995,0-4.516-1.236-4.516-4.422,0-3.328,1.377-4.612,4.516-4.612H380.3Z" transform="translate(-140.419 -587.244)" fill="none" stroke="#1eaa39" stroke-linecap="round" stroke-linejoin="round" stroke-width="11.636"/>
      <path id="パス_4302" data-name="パス 4302" d="M409.135,645.125c-.952,0-1.473-.238-6.134-2.71-1.094-.571-2.282-1.092-3.9-1.76-2.328-.951-2.759-2.187-2.759-3.47,0-2.378,1.9-5.563,4.8-5.563,2.091,0,6.753,2.187,9.035,3.282,3.136,1.474,3.946,2.187,3.946,4.278C414.127,641.133,412.226,645.125,409.135,645.125Zm18.448,13.124c-5.467,6.135-11.6,8.655-17.116,10.366a35.89,35.89,0,0,1-8.417,1.759c-3.8,0-4.9-3.613-4.9-5.9,0-2.665,1.616-3.473,3.471-3.852,9.795-1.856,20.826-4,26.913-21.731.853-2.519,1.8-3.423,3.754-3.423,2.1,0,5.421,1.618,5.421,4.707C436.712,643.033,432.718,652.449,427.582,658.249Z" transform="translate(-123.987 -586.417)" fill="none" stroke="#1eaa39" stroke-linecap="round" stroke-linejoin="round" stroke-width="11.636"/>
      <path id="パス_4303" data-name="パス 4303" d="M439.461,660.552a36.334,36.334,0,0,1-3.473,8.463,4.024,4.024,0,0,1-3.566,2.093c-2.567,0-5.847-2.758-5.847-5.373,0-.808.095-1.142,1.19-3.138,4.136-7.609,5.326-16.4,6.037-26.627.143-2.14.667-3.9,3.853-3.9,4.8,0,5.135,2.851,5.135,4.372C442.789,638.107,441.505,653.086,439.461,660.552Zm28,1.474c.952,1.568,1.382,2.424,1.382,3.471,0,2.9-3.425,5.562-6.182,5.562-2.187,0-3.139-1.615-4.329-4.137-3.042-6.37-4.659-11.981-6.179-23.585-.239-1.805-.713-5.323-.713-6.989,0-2.33,1-4.136,3.851-4.136a8.738,8.738,0,0,1,1.854.285c1.142,4.327,1.667,6.133,3.662,6.418C461.332,643.86,462.332,653.371,467.465,662.025Zm-4.231-30.051a15.155,15.155,0,0,1,.952,3.469c0,1.284-1,2-2.52,2-1.426,0-1.762-.666-2.471-3.327-.1-.287-.43-1.284-.572-1.951a2.5,2.5,0,0,1-.1-.665c0-1.616,1.714-1.9,2.33-1.9C462.282,629.6,462.664,630.5,463.233,631.975Zm6.04-.762a18.736,18.736,0,0,1,1,3.568,2.012,2.012,0,0,1-2.188,2.044,1.943,1.943,0,0,1-1.951-1.331c-.189-.572-1-3.044-1.188-3.566a3.311,3.311,0,0,1-.237-1.189c0-1.286,1.425-1.712,2.188-1.712C468.417,629.026,468.75,629.93,469.273,631.213Z" transform="translate(-108.81 -587.721)" fill="none" stroke="#1eaa39" stroke-linecap="round" stroke-linejoin="round" stroke-width="11.636"/>
      <path id="パス_4304" data-name="パス 4304" d="M495.619,640.739c3.043,0,4.8.9,4.8,4.659,0,3-.855,4.945-4.8,4.945h-32.19c-3.282,0-4.946-1.047-4.946-4.66,0-3.662,1.38-4.945,4.946-4.945Z" transform="translate(-92.792 -581.84)" fill="none" stroke="#1eaa39" stroke-linecap="round" stroke-linejoin="round" stroke-width="11.636"/>
      <path id="パス_4305" data-name="パス 4305" d="M509,666.02a14.793,14.793,0,0,1,2.187-1.523,34.463,34.463,0,0,0,4.9-3.755c-3.422-6.182-5.849-13.7-5.849-15.882,0-2.995,3.139-4.231,5-4.231,2.28,0,2.662.713,3.47,3.851a49.68,49.68,0,0,0,2.852,8.321,36.315,36.315,0,0,0,3.138-13.362h-9.841c-3,0-4.9,0-4.9-4.279,0-4.422,1.759-4.422,4.9-4.422h13.264c2.806,0,5.469.476,5.469,5.469a50.453,50.453,0,0,1-.619,7.037c-1.238,8.32-2.758,12.267-5.9,17.45a30.643,30.643,0,0,0,5.325,4.375c1.76,1.094,2.187,1.806,2.187,3.042,0,2.331-2.187,5.992-4.706,5.992-2,0-5.9-3.234-8.608-6.229-.949.9-1.663,1.57-3.422,2.995-2.379,2-3.33,2.806-4.661,2.806-1.473,0-3.187-1.331-4.185-3.423v.712c0,1.807-.38,3.614-4.23,3.614-4.425,0-4.425-1.807-4.425-4.9v-5.8c-1.092.618-7.082,3.659-8.891,3.659-1.188,0-1.853-.616-2.187-1.947a14.788,14.788,0,0,1-.523-3.661,2.927,2.927,0,0,1,1.711-2.664V635.825c0-2.424,1.284-3.471,4.042-3.471,2.853,0,4.092,1.047,4.092,3.471v20.922a9.319,9.319,0,0,0,1.756-.713V633.781c0-2.995,0-4.945,4.234-4.945,4.42,0,4.42,1.855,4.42,4.945Z" transform="translate(-77.599 -587.816)" fill="none" stroke="#1eaa39" stroke-linecap="round" stroke-linejoin="round" stroke-width="11.636"/>
      <path id="パス_4306" data-name="パス 4306" d="M554.288,663.244a27.835,27.835,0,0,0,6.657,2.379c3.518.855,4.566,1.14,4.566,2.853a7.348,7.348,0,0,1-1.569,3.662,4.111,4.111,0,0,1-3.567,1.759c-2.9,0-9.035-3.186-12.792-6.371v2.091c0,3.044,0,4.9-4.326,4.9-4.471,0-4.471-1.809-4.471-4.9v-1.805c-2.232,1.614-9.556,6.086-12.553,6.086-4.135,0-5.087-4.613-5.087-5.562,0-1.429.761-2.048,3.567-2.617a28.489,28.489,0,0,0,7.13-2.474h-7.655c-2.519,0-3.567-1.188-3.567-3.708,0-2.424,1.286-3.422,3.567-3.422h14.6v-1.143h-7.414c-5.422,0-5.708-2.044-5.8-6.655l-.047-2.854a2.63,2.63,0,0,1-1.38.428c-2.234,0-3.422-4.279-3.422-5.421,0-1.616.523-2.328,1.9-3.614a26.036,26.036,0,0,0,3.9-4.658c2.094-3.044,3-3.377,5.9-3.377,2.187,0,4.043.379,4.043,2.044a4.488,4.488,0,0,1-.146.9h4.662c.76-2.093,1.378-3,5.182-3,1,0,4.089,0,4.089,2.044a2.034,2.034,0,0,1-.236.952h10.079c1.759,0,3.281.759,3.281,3.09,0,2.092-1.286,3.091-3.281,3.091H548.726v1.14h10.888c1.52,0,2.378.571,2.378,1.807,0,1.475-1.189,1.807-2.378,1.807H548.726v1.141h10.936c1.853,0,2.329.808,2.329,1.805,0,1.381-1.141,1.809-2.329,1.809H548.726V648.6H561.42c2,0,3.329.759,3.329,3.281,0,2.091-1.333,3.09-3.329,3.09H547.583v1.143h15.169c2.187,0,3.328,1.14,3.328,3.708,0,2.233-1.142,3.422-3.328,3.422Zm-19.924-23.964h6.325v-1.522h-6.325Zm0,4.661h6.325v-1.523h-6.325Zm0,4.706h6.325v-1.52h-6.325Z" transform="translate(-61.597 -587.848)" fill="none" stroke="#1eaa39" stroke-linecap="round" stroke-linejoin="round" stroke-width="11.636"/>
      <path id="パス_4307" data-name="パス 4307" d="M579.127,636.379c0-3.994,0-6.372,4.566-6.372,5.088,0,5.088,2.046,5.088,6.372V638c3.375,0,4.422,0,5.373.618a4.054,4.054,0,0,1,1.662,3.662c0,2.092-.522,3.234-1.711,3.994-.9.57-2.376.617-5.324.617V651.5c0,7.7-1.95,15.121-14.217,19.161a29.682,29.682,0,0,1-7.989,1.616c-3.184,0-4.517-2.708-4.517-4.991,0-2.615,1.711-3.471,3.8-3.8,11.366-1.712,13.266-5.706,13.266-12.078v-4.518h-9.745v4.376c0,3.994,0,6.371-4.52,6.371-4.707,0-4.707-2.188-4.707-6.325v-4.422c-3.091,0-4.279-.095-5.184-.617a3.9,3.9,0,0,1-1.712-3.662c0-4.659,2.426-4.612,6.9-4.612v-1.617c0-3.851,0-6.372,4.47-6.372,4.757,0,4.757,2.237,4.757,6.372V638h9.745Z" transform="translate(-45.212 -587.228)" fill="none" stroke="#1eaa39" stroke-linecap="round" stroke-linejoin="round" stroke-width="11.636"/>
      <path id="パス_4308" data-name="パス 4308" d="M622.241,640.739c3.043,0,4.8.9,4.8,4.659,0,3-.855,4.945-4.8,4.945H590.053c-3.282,0-4.948-1.047-4.948-4.66,0-3.662,1.38-4.945,4.948-4.945Z" transform="translate(-29.225 -581.84)" fill="none" stroke="#1eaa39" stroke-linecap="round" stroke-linejoin="round" stroke-width="11.636"/>
      <path id="パス_4309" data-name="パス 4309" d="M628.628,643.623a78.631,78.631,0,0,0,17.595-7.037,3.454,3.454,0,0,0,3.377,1.951,4.7,4.7,0,0,0,1.662-.335,4.635,4.635,0,0,1,1.568,3.473c0,2.139-.9,2.947-3.374,4.088a115.29,115.29,0,0,1-20.828,6.989v7.132c0,1.76.143,2.617,2.617,2.617h11.7c1.1,0,7.038-.428,8.417-.428,2.852,0,3.8,1.9,3.8,4.565,0,2.615-1,3.851-2.714,4.469a24.763,24.763,0,0,1-6.131.524H629.2c-6.371,0-10.224-2.141-10.224-8.464v-27.15c0-3.519,1.712-4.422,4.994-4.422,3.375,0,4.658,1.475,4.658,4.422Zm22.541-11.935a15.855,15.855,0,0,1,.808,3.378c0,1.663-1.714,1.854-2.615,1.854-1.523,0-1.808-.952-2.284-2.854a21.116,21.116,0,0,1-.521-2.709c0-1.331,1-1.9,2.378-1.9C650.407,629.455,650.739,630.5,651.169,631.688Zm6.894-.712a15.561,15.561,0,0,1,.9,3.47c0,1.047-.762,1.951-2.427,1.951-1.331,0-1.616-.667-2.092-2.378-.141-.523-.236-.808-.664-2.14a4.363,4.363,0,0,1-.237-1.284c0-1.331,1.189-1.759,2.424-1.759C657.3,628.836,657.777,630.072,658.063,630.976Z" transform="translate(-12.221 -587.816)" fill="none" stroke="#1eaa39" stroke-linecap="round" stroke-linejoin="round" stroke-width="11.636"/>
      <path id="パス_4310" data-name="パス 4310" d="M678.8,631.273c2.091,0,4.467.715,4.467,4.092,0,2.613-2,8.842-7.034,16.688a111.539,111.539,0,0,1,11.079,8.749c1.759,1.569,2.614,2.568,2.614,4.09,0,2.567-3.284,6.038-6.086,6.038a4.07,4.07,0,0,1-3.044-1.521c-5.325-5.562-6.8-7.132-10.221-10.175a74.057,74.057,0,0,1-10.793,9.223c-3.187,2.188-4.85,2.713-6.323,2.713-3.234,0-4.85-3.473-4.85-5.278,0-1.95,1.045-2.616,3.8-4.136a45.547,45.547,0,0,0,13.551-11.461A35.024,35.024,0,0,0,671.9,640.07H654.645c-3,0-4.662-1.236-4.662-4.374,0-3.282,1.666-4.424,4.662-4.424Z" transform="translate(2.654 -586.592)" fill="none" stroke="#1eaa39" stroke-linecap="round" stroke-linejoin="round" stroke-width="11.636"/>
      <path id="パス_4311" data-name="パス 4311" d="M304.912,641.133c-3.186,0-4.9-.906-4.9-4.472,0-3.614,1.476-4.659,4.9-4.659h31.43c2.615,0,5.419.428,5.419,4.184,0,2.282-1.329,5.61-4.087,9.6-3.519,5.137-8.941,9.366-11.839,11.364,3.85,3.567,4.945,4.565,4.945,6.466,0,3.138-3.426,5.658-5.85,5.658-1.427,0-2.091-.521-3.8-2.424a116.45,116.45,0,0,0-11.933-11.268c-1.379-1.143-2.094-2.046-2.094-3.377a5.405,5.405,0,0,1,5.232-4.993c1.9,0,3.281,1.045,6.989,4.042a39.947,39.947,0,0,0,4.566-3.854,29.607,29.607,0,0,0,5.373-6.272Z" transform="translate(-172.346 -586.227)" fill="#fff"/>
      <path id="パス_4312" data-name="パス 4312" d="M359.5,667.937c0,2.994-1.235,4.659-4.754,4.659-4.281,0-5.183-1.616-5.183-4.659v-14.55c-5.894,3.136-10.651,5.325-12.979,5.325-3.9,0-4.662-4.09-4.662-5.325,0-2.092.952-2.711,4.09-3.947a74.044,74.044,0,0,0,25.914-16.5c.284-.285,1.331-1.331,1.9-1.95a3.934,3.934,0,0,1,2.806-1.236c2.188,0,5.657,2.091,5.657,4.9,0,1.616-.807,2.806-3.661,5.278-3.184,2.709-6.8,5.515-9.129,7.18Z" transform="translate(-156.327 -587.355)" fill="#fff"/>
      <path id="パス_4313" data-name="パス 4313" d="M380.3,634.683c0-3,1.095-4.707,4.709-4.707,3.946,0,5.039,1.473,5.039,4.707V639.2h10.7c2.947,0,4.566,1.141,4.566,4.374,0,3.328-1.428,4.661-4.566,4.661h-10.7a34.183,34.183,0,0,1-1.618,9.507c-1.948,5.851-6.8,10.177-12.458,12.887a11.752,11.752,0,0,1-4.565,1.332c-3.423,0-4.943-3.425-4.943-5.517,0-1.759,1-2.521,2.9-3.329,3.566-1.473,6.846-3.423,8.987-6.7,1.284-2,1.948-6.227,1.948-8.177H368.128c-2.995,0-4.516-1.236-4.516-4.422,0-3.328,1.377-4.612,4.516-4.612H380.3Z" transform="translate(-140.419 -587.244)" fill="#fff"/>
      <path id="パス_4314" data-name="パス 4314" d="M409.135,645.125c-.952,0-1.473-.238-6.134-2.71-1.094-.571-2.282-1.092-3.9-1.76-2.328-.951-2.759-2.187-2.759-3.47,0-2.378,1.9-5.563,4.8-5.563,2.091,0,6.753,2.187,9.035,3.282,3.136,1.474,3.946,2.187,3.946,4.278,0,1.951-1.9,5.944-4.993,5.944m18.448,13.124c-5.467,6.135-11.6,8.655-17.116,10.366a35.89,35.89,0,0,1-8.417,1.759c-3.8,0-4.9-3.613-4.9-5.9,0-2.665,1.616-3.473,3.471-3.852,9.795-1.856,20.826-4,26.913-21.731.853-2.519,1.8-3.423,3.754-3.423,2.1,0,5.421,1.618,5.421,4.707,0,2.852-3.994,12.269-9.129,18.069" transform="translate(-123.987 -586.417)" fill="#fff"/>
      <path id="パス_4315" data-name="パス 4315" d="M439.461,660.552a36.334,36.334,0,0,1-3.473,8.463,4.024,4.024,0,0,1-3.566,2.093c-2.567,0-5.847-2.758-5.847-5.373,0-.808.095-1.142,1.19-3.138,4.136-7.609,5.326-16.4,6.037-26.627.143-2.14.667-3.9,3.853-3.9,4.8,0,5.135,2.851,5.135,4.372,0,1.664-1.284,16.643-3.328,24.109m28,1.474c.952,1.568,1.382,2.424,1.382,3.471,0,2.9-3.425,5.562-6.182,5.562-2.187,0-3.139-1.615-4.329-4.137-3.042-6.37-4.659-11.981-6.179-23.585-.239-1.805-.713-5.323-.713-6.989,0-2.33,1-4.136,3.851-4.136a8.738,8.738,0,0,1,1.854.285c1.142,4.327,1.667,6.133,3.662,6.418.523,4.945,1.523,14.456,6.656,23.11m-4.231-30.051a15.155,15.155,0,0,1,.952,3.469c0,1.284-1,2-2.52,2-1.426,0-1.762-.666-2.471-3.327-.1-.287-.43-1.284-.572-1.951a2.5,2.5,0,0,1-.1-.665c0-1.616,1.714-1.9,2.33-1.9,1.427,0,1.808.9,2.378,2.378m6.04-.762a18.736,18.736,0,0,1,1,3.568,2.012,2.012,0,0,1-2.188,2.044,1.943,1.943,0,0,1-1.951-1.331c-.189-.572-1-3.044-1.188-3.566a3.311,3.311,0,0,1-.237-1.189c0-1.286,1.425-1.712,2.188-1.712,1.52,0,1.853.9,2.376,2.187" transform="translate(-108.81 -587.721)" fill="#fff"/>
      <path id="パス_4316" data-name="パス 4316" d="M495.619,640.739c3.043,0,4.8.9,4.8,4.659,0,3-.855,4.945-4.8,4.945h-32.19c-3.282,0-4.946-1.047-4.946-4.66,0-3.662,1.38-4.945,4.946-4.945Z" transform="translate(-92.792 -581.84)" fill="#fff"/>
      <path id="パス_4317" data-name="パス 4317" d="M509,666.02a14.793,14.793,0,0,1,2.187-1.523,34.463,34.463,0,0,0,4.9-3.755c-3.422-6.182-5.849-13.7-5.849-15.882,0-2.995,3.139-4.231,5-4.231,2.28,0,2.662.713,3.47,3.851a49.68,49.68,0,0,0,2.852,8.321,36.315,36.315,0,0,0,3.138-13.362h-9.841c-3,0-4.9,0-4.9-4.279,0-4.422,1.759-4.422,4.9-4.422h13.264c2.806,0,5.469.476,5.469,5.469a50.453,50.453,0,0,1-.619,7.037c-1.238,8.32-2.758,12.267-5.9,17.45a30.643,30.643,0,0,0,5.325,4.375c1.76,1.094,2.187,1.806,2.187,3.042,0,2.331-2.187,5.992-4.706,5.992-2,0-5.9-3.234-8.608-6.229-.949.9-1.663,1.57-3.422,2.995-2.379,2-3.33,2.806-4.661,2.806-1.473,0-3.187-1.331-4.185-3.423v.712c0,1.807-.38,3.614-4.23,3.614-4.425,0-4.425-1.807-4.425-4.9v-5.8c-1.092.618-7.082,3.659-8.891,3.659-1.188,0-1.853-.616-2.187-1.947a14.788,14.788,0,0,1-.523-3.661,2.927,2.927,0,0,1,1.711-2.664V635.825c0-2.424,1.284-3.471,4.042-3.471,2.853,0,4.092,1.047,4.092,3.471v20.922a9.319,9.319,0,0,0,1.756-.713V633.781c0-2.995,0-4.945,4.234-4.945,4.42,0,4.42,1.855,4.42,4.945Z" transform="translate(-77.599 -587.816)" fill="#fff"/>
      <path id="パス_4318" data-name="パス 4318" d="M554.288,663.244a27.835,27.835,0,0,0,6.657,2.379c3.518.855,4.566,1.14,4.566,2.853a7.348,7.348,0,0,1-1.569,3.662,4.111,4.111,0,0,1-3.567,1.759c-2.9,0-9.035-3.186-12.792-6.371v2.091c0,3.044,0,4.9-4.326,4.9-4.471,0-4.471-1.809-4.471-4.9v-1.805c-2.232,1.614-9.556,6.086-12.553,6.086-4.135,0-5.087-4.613-5.087-5.562,0-1.429.761-2.048,3.567-2.617a28.489,28.489,0,0,0,7.13-2.474h-7.655c-2.519,0-3.567-1.188-3.567-3.708,0-2.424,1.286-3.422,3.567-3.422h14.6v-1.143h-7.414c-5.422,0-5.708-2.044-5.8-6.655l-.047-2.854a2.63,2.63,0,0,1-1.38.428c-2.234,0-3.422-4.279-3.422-5.421,0-1.616.523-2.328,1.9-3.614a26.036,26.036,0,0,0,3.9-4.658c2.094-3.044,3-3.377,5.9-3.377,2.187,0,4.043.379,4.043,2.044a4.488,4.488,0,0,1-.146.9h4.662c.76-2.093,1.378-3,5.182-3,1,0,4.089,0,4.089,2.044a2.034,2.034,0,0,1-.236.952h10.079c1.759,0,3.281.759,3.281,3.09,0,2.092-1.286,3.091-3.281,3.091H548.726v1.14h10.888c1.52,0,2.378.571,2.378,1.807,0,1.475-1.189,1.807-2.378,1.807H548.726v1.141h10.936c1.853,0,2.329.808,2.329,1.805,0,1.381-1.141,1.809-2.329,1.809H548.726V648.6H561.42c2,0,3.329.759,3.329,3.281,0,2.091-1.333,3.09-3.329,3.09H547.583v1.143h15.169c2.187,0,3.328,1.14,3.328,3.708,0,2.233-1.142,3.422-3.328,3.422Zm-19.924-23.964h6.325v-1.522h-6.325Zm0,4.661h6.325v-1.523h-6.325Zm0,4.706h6.325v-1.52h-6.325Z" transform="translate(-61.597 -587.848)" fill="#fff"/>
      <path id="パス_4319" data-name="パス 4319" d="M579.127,636.379c0-3.994,0-6.372,4.566-6.372,5.088,0,5.088,2.046,5.088,6.372V638c3.375,0,4.422,0,5.373.618a4.054,4.054,0,0,1,1.662,3.662c0,2.092-.522,3.234-1.711,3.994-.9.57-2.376.617-5.324.617V651.5c0,7.7-1.95,15.121-14.217,19.161a29.682,29.682,0,0,1-7.989,1.616c-3.184,0-4.517-2.708-4.517-4.991,0-2.615,1.711-3.471,3.8-3.8,11.366-1.712,13.266-5.706,13.266-12.078v-4.518h-9.745v4.376c0,3.994,0,6.371-4.52,6.371-4.707,0-4.707-2.188-4.707-6.325v-4.422c-3.091,0-4.279-.095-5.184-.617a3.9,3.9,0,0,1-1.712-3.662c0-4.659,2.426-4.612,6.9-4.612v-1.617c0-3.851,0-6.372,4.47-6.372,4.757,0,4.757,2.237,4.757,6.372V638h9.745Z" transform="translate(-45.212 -587.228)" fill="#fff"/>
      <path id="パス_4320" data-name="パス 4320" d="M622.241,640.739c3.043,0,4.8.9,4.8,4.659,0,3-.855,4.945-4.8,4.945H590.053c-3.282,0-4.948-1.047-4.948-4.66,0-3.662,1.38-4.945,4.948-4.945Z" transform="translate(-29.225 -581.84)" fill="#fff"/>
      <path id="パス_4321" data-name="パス 4321" d="M628.628,643.623a78.631,78.631,0,0,0,17.595-7.037,3.454,3.454,0,0,0,3.377,1.951,4.7,4.7,0,0,0,1.662-.335,4.635,4.635,0,0,1,1.568,3.473c0,2.139-.9,2.947-3.374,4.088a115.29,115.29,0,0,1-20.828,6.989v7.132c0,1.76.143,2.617,2.617,2.617h11.7c1.1,0,7.038-.428,8.417-.428,2.852,0,3.8,1.9,3.8,4.565,0,2.615-1,3.851-2.714,4.469a24.763,24.763,0,0,1-6.131.524H629.2c-6.371,0-10.224-2.141-10.224-8.464v-27.15c0-3.519,1.712-4.422,4.994-4.422,3.375,0,4.658,1.475,4.658,4.422Zm22.541-11.935a15.855,15.855,0,0,1,.808,3.378c0,1.663-1.714,1.854-2.615,1.854-1.523,0-1.808-.952-2.284-2.854a21.116,21.116,0,0,1-.521-2.709c0-1.331,1-1.9,2.378-1.9,1.473,0,1.805,1.045,2.235,2.234m6.894-.712a15.561,15.561,0,0,1,.9,3.47c0,1.047-.762,1.951-2.427,1.951-1.331,0-1.616-.667-2.092-2.378-.141-.523-.236-.808-.664-2.14a4.363,4.363,0,0,1-.237-1.284c0-1.331,1.189-1.759,2.424-1.759,1.332,0,1.808,1.236,2.094,2.14" transform="translate(-12.221 -587.816)" fill="#fff"/>
      <path id="パス_4322" data-name="パス 4322" d="M678.8,631.273c2.091,0,4.467.715,4.467,4.092,0,2.613-2,8.842-7.034,16.688a111.539,111.539,0,0,1,11.079,8.749c1.759,1.569,2.614,2.568,2.614,4.09,0,2.567-3.284,6.038-6.086,6.038a4.07,4.07,0,0,1-3.044-1.521c-5.325-5.562-6.8-7.132-10.221-10.175a74.057,74.057,0,0,1-10.793,9.223c-3.187,2.188-4.85,2.713-6.323,2.713-3.234,0-4.85-3.473-4.85-5.278,0-1.95,1.045-2.616,3.8-4.136a45.547,45.547,0,0,0,13.551-11.461A35.024,35.024,0,0,0,671.9,640.07H654.645c-3,0-4.662-1.236-4.662-4.374,0-3.282,1.666-4.424,4.662-4.424Z" transform="translate(2.654 -586.592)" fill="#fff"/>
      <path id="パス_4323" data-name="パス 4323" d="M215.243,703.223c7.947-27.012,34.74-34.564,49.259-46.081,23.041-18.274,25.425-43.7,52.438-55.616,0,0,19.861,32.574-4.767,63.561-18.3,23.02-50.053,50.055-96.93,38.136" transform="translate(-214.902 -601.526)" fill="#55b232"/>
      <path id="パス_4324" data-name="パス 4324" d="M266.145,645.958c8.586,3.787,29.794-2.272,25.5-26.007s-25.249,19.443-25.5,26.007" transform="translate(-189.349 -595.82)" fill="#449427"/>
      <path id="パス_4325" data-name="パス 4325" d="M243.493,662.491c7.533,5.592,29.56,4.377,30.625-19.717s-28.926,13.369-30.625,19.717" transform="translate(-200.72 -584.831)" fill="#449427"/>
      <path id="パス_4326" data-name="パス 4326" d="M221.566,674.093c5.778,6.137,25.429,8.066,30.165-13.752s-27.664,8.2-30.165,13.752" transform="translate(-211.728 -575.939)" fill="#449427"/>
      <path id="パス_4327" data-name="パス 4327" d="M276.744,646.073c-10.254,3.19-27.8-18.23-17.318-33.955s30.081-7.974,31.675,10.939-9.343,22.559-14.356,23.015" transform="translate(-194.34 -600.443)" fill="#afce00"/>
      <path id="パス_4328" data-name="パス 4328" d="M256.743,665.236c-10.256,3.19-27.8-18.231-17.321-33.955s30.079-7.974,31.675,10.939-9.343,22.56-14.353,23.015" transform="translate(-204.383 -590.823)" fill="#afce00"/>
      <path id="パス_4329" data-name="パス 4329" d="M235.561,681.2c-10.253,3.19-27.8-18.232-17.32-33.952s30.081-7.977,31.678,10.936-9.346,22.56-14.358,23.015" transform="translate(-215.016 -582.806)" fill="#afce00"/>
      <path id="パス_4330" data-name="パス 4330" d="M263.814,615.96a30.712,30.712,0,0,0,10.594-.707s.352,6-3.533,6-4.239-4.237-4.239-4.237" transform="translate(-190.519 -594.635)" fill="none" stroke="#449427" stroke-miterlimit="10" stroke-width="0.705"/>
      <path id="パス_4331" data-name="パス 4331" d="M265.581,611.671a1.589,1.589,0,1,1-1.589-1.589,1.586,1.586,0,0,1,1.589,1.589" transform="translate(-191.227 -597.231)" fill="#449427"/>
      <path id="パス_4332" data-name="パス 4332" d="M271.695,610.849a1.59,1.59,0,1,1-1.589-1.59,1.589,1.589,0,0,1,1.589,1.59" transform="translate(-188.159 -597.645)" fill="#449427"/>
      <path id="パス_4333" data-name="パス 4333" d="M243.006,628.169c-3.32.123-4.916,7.25-.614,7.865S249.027,628.783,243.006,628.169Z" transform="translate(-202.583 -588.151)" fill="none" stroke="#449427" stroke-miterlimit="10" stroke-width="0.705"/>
      <path id="パス_4334" data-name="パス 4334" d="M248.766,627.688c-2.581.246-3.808,6.391.493,7.252S254.544,627.074,248.766,627.688Z" transform="translate(-199.249 -588.407)" fill="none" stroke="#449427" stroke-miterlimit="10" stroke-width="0.705"/>
      <line id="線_54" data-name="線 54" y1="0.246" x2="3.073" transform="translate(44.232 42.967)" fill="none" stroke="#449427" stroke-miterlimit="10" stroke-width="0.705"/>
      <path id="パス_4335" data-name="パス 4335" d="M250.765,629.977a50.69,50.69,0,0,1,6.637-2.213c1.72-.245,2.7,2.7,1.352,3.318s-2.7-.861-2.089-1.475" transform="translate(-197.07 -588.361)" fill="none" stroke="#449427" stroke-miterlimit="10" stroke-width="0.705"/>
      <line id="線_55" data-name="線 55" x1="2.458" y1="0.737" transform="translate(34.893 42.23)" fill="none" stroke="#449427" stroke-miterlimit="10" stroke-width="0.705"/>
      <path id="パス_4336" data-name="パス 4336" d="M243.156,635.33c2.95,1.352,7.25.493,9.711-.862,0,0,.122,4.918-3.563,5.163s-3.567-2.7-3.567-2.7" transform="translate(-200.89 -584.988)" fill="none" stroke="#449427" stroke-miterlimit="10" stroke-width="0.705"/>
      <line id="線_56" data-name="線 56" x2="6.249" y2="3.486" transform="translate(6.665 64.048)" fill="none" stroke="#449427" stroke-miterlimit="10" stroke-width="0.705"/>
      <line id="線_57" data-name="線 57" y1="3.883" x2="6.181" transform="translate(17.677 63.525)" fill="none" stroke="#449427" stroke-miterlimit="10" stroke-width="0.705"/>
      <path id="パス_4337" data-name="パス 4337" d="M224.017,649.511c0,1.17-.632,2.121-1.413,2.121s-1.412-.951-1.412-2.121.634-2.118,1.412-2.118,1.413.948,1.413,2.118" transform="translate(-211.916 -578.5)" fill="#449427"/>
      <path id="パス_4338" data-name="パス 4338" d="M230.515,649.042c0,1.169-.631,2.118-1.412,2.118s-1.413-.949-1.413-2.118.632-2.119,1.413-2.119,1.412.949,1.412,2.119" transform="translate(-208.654 -578.736)" fill="#449427"/>
      <path id="パス_4339" data-name="パス 4339" d="M222.552,653.106c2.474,1.413,7.417,1.413,10.6-.706,0,0,.882,5.3-4.063,5.826s-3.884-3-3.884-3" transform="translate(-211.233 -575.986)" fill="none" stroke="#449427" stroke-miterlimit="10" stroke-width="0.705"/>
    </g>
  </g>
</svg>
