<svg xmlns="http://www.w3.org/2000/svg" width="103.092" height="103.092" viewBox="0 0 103.092 103.092">
  <path id="Icon_awesome-expeditedssl" data-name="Icon awesome-expeditedssl" d="M31.3,35.543a20.244,20.244,0,0,1,40.489,0v5.529a1.828,1.828,0,0,1-1.85,1.85H66.262a1.828,1.828,0,0,1-1.85-1.85V35.543c0-17.064-25.773-17.064-25.773,0v5.529a1.828,1.828,0,0,1-1.85,1.85H33.11a1.828,1.828,0,0,1-1.85-1.85V35.543ZM81,77.882a3.7,3.7,0,0,1-3.679,3.679H25.773a3.7,3.7,0,0,1-3.679-3.679V48.43a3.7,3.7,0,0,1,3.679-3.679H77.319A3.7,3.7,0,0,1,81,48.43ZM58.9,59.466a7.3,7.3,0,0,1-3.679,6.319v6.568a1.828,1.828,0,0,1-1.85,1.85H49.7a1.828,1.828,0,0,1-1.85-1.85V65.785A7.343,7.343,0,1,1,58.9,59.466ZM51.546.563a51.546,51.546,0,1,0,51.546,51.546A51.537,51.537,0,0,0,51.546.563Z" transform="translate(0 -0.563)" fill="#ffda2b"/>
</svg>
