<svg xmlns="http://www.w3.org/2000/svg" xmlns:xlink="http://www.w3.org/1999/xlink" width="960" height="200" viewBox="0 0 960 200">
  <defs>
    <linearGradient id="linear-gradient" x1="0.5" x2="0.5" y2="1" gradientUnits="objectBoundingBox">
      <stop offset="0" stop-color="#6fe5f1"/>
      <stop offset="1" stop-color="#61d3f8"/>
    </linearGradient>
    <clipPath id="clip-path">
      <path id="パス_7056" data-name="パス 7056" d="M960,0H0V200H960Z" transform="translate(222 2728.998)" fill="none"/>
    </clipPath>
  </defs>
  <g id="グループ_10881" data-name="グループ 10881" transform="translate(-222 -2728.998)">
    <path id="パス_7035" data-name="パス 7035" d="M960,0H0V200H960Z" transform="translate(222 2728.998)" fill="url(#linear-gradient)"/>
    <path id="パス_7036" data-name="パス 7036" d="M0,0H920V160H0Z" transform="translate(240.986 2749.1)" fill="#fff" opacity="0.907"/>
    <g id="マスクグループ_39" data-name="マスクグループ 39" clip-path="url(#clip-path)">
      <g id="グループ_10883" data-name="グループ 10883" transform="translate(198.271 2485.912)">
        <path id="パス_7037" data-name="パス 7037" d="M112.1,216.4a38.388,38.388,0,0,1,.487-13.743c-2.347-1.552-4.757-3.155-7.118-4.729a38.455,38.455,0,0,0,.594,16.612c1.953.615,4.042,1.259,6.038,1.86Z" transform="translate(32.367 63.233)" fill="#b2e3e1" fill-rule="evenodd"/>
        <path id="パス_7038" data-name="パス 7038" d="M112.689,213.358c-3.384-.365-5.881-.637-7.7-.837a32.6,32.6,0,0,0,4.686,20.153h.029l7.161-1.044.043-.007a32.761,32.761,0,0,1-4.221-18.264Z" transform="translate(32.462 153.045)" fill="#b2e3e1" fill-rule="evenodd"/>
        <path id="パス_7039" data-name="パス 7039" d="M110.972,203.282c4.378.823,7.6,1.445,9.958,1.874A42.833,42.833,0,0,1,107.409,228.6l-.043-.014-8.556-4.035-.05-.029a42.712,42.712,0,0,0,12.212-21.24Z" transform="translate(-36 131.647)" fill="#fbd1df" fill-rule="evenodd"/>
        <path id="パス_7040" data-name="パス 7040" d="M132.449,225.513a32.829,32.829,0,0,0-14.516,2.668l-2.9-6.174a31.868,31.868,0,0,1,16.726-.715c.136.565.558,3.634.694,4.221Z" transform="translate(95.131 202.114)" fill="#fbd1df" fill-rule="evenodd"/>
        <path id="パス_7041" data-name="パス 7041" d="M119.951,194.748a44.268,44.268,0,0,0,2.783,15.589c-2.418,2.139-4.908,4.357-7.333,6.532a44.064,44.064,0,0,1-2.025-19.023c2.125-1.016,4.4-2.1,6.575-3.1Z" transform="translate(83.227 43.669)" fill="#eccf7e" fill-rule="evenodd"/>
        <path id="パス_7042" data-name="パス 7042" d="M182.637,206.075c-2.175,2.168-3.806,3.742-4.979,4.908a29.518,29.518,0,0,1-7.977-16.905l.021-.014,5.659-3.277.043-.014a29.535,29.535,0,0,0,7.233,15.3Z" transform="translate(703.44 62.75)" fill="#f79da2" fill-rule="evenodd"/>
        <path id="パス_7043" data-name="パス 7043" d="M160.1,216.4a38.388,38.388,0,0,1,.486-13.743c-2.347-1.552-4.757-3.155-7.118-4.729a38.453,38.453,0,0,0,.594,16.612c1.953.615,4.042,1.259,6.038,1.86Z" transform="translate(496.761 57.334)" fill="#b2e3e1" fill-rule="evenodd"/>
        <path id="パス_7044" data-name="パス 7044" d="M156.947,203.714c3.348.622,5.809,1.1,7.612,1.431a32.726,32.726,0,0,1-10.337,17.928l-.029-.007-6.546-3.091-.043-.022a32.7,32.7,0,0,0,9.343-16.24Z" transform="translate(524.599 109.105)" fill="#fbd1df" fill-rule="evenodd"/>
        <path id="パス_7046" data-name="パス 7046" d="M120.308,221.636c2.347.737,5.573,1.71,9.951,3.062.93-3.591,3.928-18.35,4.478-19.023a38.98,38.98,0,0,0-4.049-2.132,44,44,0,0,0-8.792,13.564,41.545,41.545,0,0,0-1.588,4.528Z" transform="translate(137.403 88.121)" fill="#b2e3e1" fill-rule="evenodd"/>
        <path id="パス_7047" data-name="パス 7047" d="M166.69,226.411A44.267,44.267,0,0,1,177.485,238c3.162-.651,6.439-1.309,9.629-1.953a44.237,44.237,0,0,0-14-13.035c-2.089,1.087-4.314,2.268-6.424,3.4Z" transform="translate(544.507 170.382)" fill="#f69298" fill-rule="evenodd"/>
        <path id="パス_7048" data-name="パス 7048" d="M153.054,199.085a43.874,43.874,0,0,0-19.5,3.584l-3.548-5.9a44.31,44.31,0,0,1,22.492-.029c.179.758.379,1.553.558,2.347Z" transform="translate(187.288 47.037)" fill="#fbd1df" fill-rule="evenodd"/>
        <path id="パス_7049" data-name="パス 7049" d="M157.794,201.345c-1.975,1.467-4.707,3.448-8.4,6.16a44.929,44.929,0,0,0-3.727-4.836,44.06,44.06,0,0,0-9.765-8.242c1.96-2.311,4.171-4.7,6.152-6.775a44.053,44.053,0,0,1,12.756,9.937,45.761,45.761,0,0,1,2.983,3.756Z" transform="translate(223.59 0)" fill="#b2e3e1" fill-rule="evenodd"/>
        <path id="パス_7050" data-name="パス 7050" d="M145.058,213.879c3.212,3.262,5.573,5.68,7.3,7.419a43.938,43.938,0,0,1-25.154,11.876l-.021-.036-4.872-8.42-.021-.05a43.934,43.934,0,0,0,22.764-10.788Z" transform="translate(149.847 156.015)" fill="#f7e692" fill-rule="evenodd"/>
        <path id="パス_7051" data-name="パス 7051" d="M158.666,223.064c.365,4.564.622,7.927.83,10.38a43.966,43.966,0,0,1-26.906-7.075l.007-.036,1.688-9.587.007-.05a43.986,43.986,0,0,0,24.374,6.367Z" transform="translate(262.796 192.914)" fill="#d6b3d5" fill-rule="evenodd"/>
        <path id="パス_7052" data-name="パス 7052" d="M173.658,225.2c2.2-1.1,5.2-2.64,9.286-4.707-1.824-3.226-9.915-15.925-9.994-16.8a40.376,40.376,0,0,0-4.393,1.281,44.062,44.062,0,0,0,3.1,15.868,43,43,0,0,0,2,4.357Z" transform="translate(717.52 98.868)" fill="#b2e3e1" fill-rule="evenodd"/>
        <path id="パス_7053" data-name="パス 7053" d="M178.76,194.823a43.931,43.931,0,0,0,18.679,6.646l.129,6.889a44.067,44.067,0,0,1-15.9-8.041,45.356,45.356,0,0,1-3.6-3.184c.229-.751.458-1.531.694-2.311Z" transform="translate(567.577 62.037)" fill="#fbd1df" fill-rule="evenodd"/>
        <path id="パス_7054" data-name="パス 7054" d="M193.058,213.879c3.212,3.262,5.573,5.68,7.3,7.419a43.916,43.916,0,0,1-25.154,11.876l-.021-.036-4.865-8.42-.029-.05a43.934,43.934,0,0,0,22.764-10.788Z" transform="translate(605.268 136.721)" fill="#f7e692" fill-rule="evenodd"/>
        <path id="パス_7055" data-name="パス 7055" d="M200.487,238.588c-3.262,3.212-5.673,5.573-7.412,7.3a43.925,43.925,0,0,1-11.883-25.161l.036-.014,8.427-4.865.05-.029a43.948,43.948,0,0,0,10.781,22.764Z" transform="translate(761.681 154.07)" fill="#d6b3d5" fill-rule="evenodd"/>
      </g>
      <g id="グループ_10882" data-name="グループ 10882">
        <line id="線_75" data-name="線 75" x1="137" y2="115" transform="translate(403.986 2681.498)" fill="none" stroke="#f7aba6" stroke-linecap="round" stroke-width="16"/>
        <line id="線_76" data-name="線 76" x1="137" y2="115" transform="translate(964.486 2713.998)" fill="none" stroke="#f7aba6" stroke-linecap="round" stroke-width="16"/>
        <line id="線_77" data-name="線 77" x1="137" y2="115" transform="translate(1133.486 2706.498)" fill="none" stroke="#f5fca5" stroke-linecap="round" stroke-width="16"/>
        <line id="線_78" data-name="線 78" x1="137" y2="115" transform="translate(311.486 2861.498)" fill="none" stroke="#f5fca5" stroke-linecap="round" stroke-width="16"/>
        <line id="線_79" data-name="線 79" x1="137" y2="115" transform="translate(952.486 2894.998)" fill="none" stroke="#f7aba6" stroke-linecap="round" stroke-width="16"/>
        <line id="線_80" data-name="線 80" x1="137" y2="115" transform="translate(174.486 2763.998)" fill="none" stroke="#f5fca5" stroke-linecap="round" stroke-width="16"/>
      </g>
    </g>
    <path id="パス_7264" data-name="パス 7264" d="M-80.52-14.84c0-8.32-5.08-14.76-14.32-15.36-.6-.04-1.8-.08-3.04-.08-4.96,0-8.92.16-9.24,5.64-.12,2.16-.24,6.8-.24,11.2,0,3.36.08,6.6.2,8.56.4,5.6,6.08,5.64,9.28,5.64C-93.72.76-80.52.72-80.52-14.84ZM-95.24-25.92c6.12,0,10,4.64,10,11.08,0,11.32-8.44,11.32-12.64,11.32-3.32,0-4.56-.32-4.76-2.16-.16-1.52-.24-4.48-.24-7.64,0-4.32.12-8.92.24-10.6.12-2,2.28-2.04,4.2-2.04C-96.96-25.96-95.24-25.92-95.24-25.92ZM-69.92-1.84c-.08-4.92-.12-10.12-.12-15.12,0-3.88.04-7.64.12-10.96V-28a2.115,2.115,0,0,0-2.36-1.96c-.72,0-2.52.44-2.44,2.12.12,3.24.2,6.88.2,10.68,0,5.16-.12,10.52-.2,15.32v.04A2.2,2.2,0,0,0-72.32.32a2.2,2.2,0,0,0,2.4-2.12Zm25-6.12c0-2.96-1.68-6-5.68-8.2-1.84-1-4.6-2.28-6.24-3.16a4.108,4.108,0,0,1-2.52-3.52c0-1.8,1.56-3.4,4.12-3.4a5.835,5.835,0,0,1,4.6,1.84,2.539,2.539,0,0,0,1.88.96,2.333,2.333,0,0,0,2.24-2.32c0-1.88-3.16-4.52-8.68-4.52s-8.64,3.72-8.64,7.6c0,2.76,1.6,5.6,5.12,7.2,2.12.96,4.28,2.16,6.04,3.16a5.28,5.28,0,0,1,3.04,4.48c0,1.28-.96,4.28-5.36,4.28a6.877,6.877,0,0,1-5.84-2.68,2.154,2.154,0,0,0-1.76-1,2.338,2.338,0,0,0-2.32,2.28C-64.92-3-61.56.72-55.04.72-48.56.72-44.92-3.68-44.92-7.96Zm31,2.24A2.742,2.742,0,0,0-16.6-8.28a2.329,2.329,0,0,0-1.96,1.04,9.563,9.563,0,0,1-7.68,3.36c-8.44,0-10.4-7.52-10.4-10.88,0-5.4,3.6-11.16,10.36-11.16a8.43,8.43,0,0,1,6.6,2.84A2.562,2.562,0,0,0-17.64-22a2.511,2.511,0,0,0,2.44-2.48c0-2.16-4.32-5.84-10.68-5.84-9.76,0-15.48,7.72-15.48,15.84,0,7.8,5.36,15.2,15.32,15.2C-18.68.72-13.92-3.64-13.92-5.72ZM4.92.76c8.8,0,15.44-6.2,15.44-15.52A15.053,15.053,0,0,0,4.92-30.28c-8.8,0-15.4,6.52-15.4,15.52C-10.48-5.44-3.88.76,4.92.76Zm0-4.2C-1-3.44-5.8-7.88-5.8-14.76c0-6.92,4.8-11.4,10.72-11.4s10.72,4.48,10.72,11.4C15.64-7.88,10.84-3.44,4.92-3.44ZM37.8.72c5.88,0,12.28-4.16,12.08-12.88-.04-2.52-.08-4.76-.08-7.04,0-2.6.04-5.32.12-8.64v-.08a2.115,2.115,0,0,0-2.32-2.04,2.069,2.069,0,0,0-2.32,2.12c.04,1.72.08,3.48.08,5.24,0,3.52-.08,7.08-.08,10.56,0,5.44-3.88,8.28-7.64,8.28-3.64,0-7.24-2.6-7.24-7.96v-1.64c0-3.24-.08-6.52-.08-9.8,0-1.56.04-3.12.08-4.68v-.08a2.1,2.1,0,0,0-2.28-2.04,2.034,2.034,0,0,0-2.32,2.12c.08,2.32.08,4.72.08,7.16,0,2.92,0,5.88-.04,8.68v.2C25.84-3.44,31.8.72,37.8.72ZM56.6-1.56A2.075,2.075,0,0,0,58.92.36c1.16,0,2.28-.6,2.28-1.88V-1.6c-.12-4.24-.24-16.04-.24-20.2,0-1.84,0-2.24.24-2.24.2,0,.48.52.64.76C64-19.64,71.48-5.96,74.28-1.52a4.078,4.078,0,0,0,3.44,2,3.616,3.616,0,0,0,3.64-3.8V-3.4c-.08-3.48-.12-8.72-.12-13.8,0-4,.04-7.88.12-10.68v-.08a2.146,2.146,0,0,0-2.32-2.08,2.145,2.145,0,0,0-2.32,2.16c.12,3.68.24,16.16.24,19.92,0,1.56-.16,1.68-.28,1.68s-.32-.2-.56-.56C73.08-11.4,66.4-23.88,63.88-27.88a4.832,4.832,0,0,0-3.92-2.16c-1.76,0-3.32,1.12-3.32,3.92v.16c.04,3,.08,6.8.08,10.8,0,4.6-.04,9.44-.12,13.56Zm38.96-.12A2.164,2.164,0,0,0,97.96.36c1.24,0,2.48-.68,2.4-2.08-.12-2.96-.2-7.84-.2-12.64,0-3.92.04-7.8.12-10.52,0-.8,0-.8,3.96-.8.96,0,2.12,0,3.48.08h.16a1.943,1.943,0,0,0,1.92-2.12,2.019,2.019,0,0,0-2.08-2.16c-2.28.04-5.68.08-9.08.08-4.16,0-8.4-.04-10.8-.08h-.08a2.056,2.056,0,0,0-2.2,2.12,2.131,2.131,0,0,0,2.28,2.16c1.88,0,3.76-.08,5.28-.08,2.36,0,2.48,0,2.48.8.08,2.12.08,5.44.08,8.96,0,5.28-.04,11.08-.12,14.2Z" transform="translate(399.986 2843.1)" fill="#27276e" opacity="0.194"/>
    <path id="パス_7265" data-name="パス 7265" d="M-73.7-5.72a2.742,2.742,0,0,0-2.68-2.56,2.329,2.329,0,0,0-1.96,1.04,9.563,9.563,0,0,1-7.68,3.36c-8.44,0-10.4-7.52-10.4-10.88,0-5.4,3.6-11.16,10.36-11.16a8.43,8.43,0,0,1,6.6,2.84A2.562,2.562,0,0,0-77.42-22a2.511,2.511,0,0,0,2.44-2.48c0-2.16-4.32-5.84-10.68-5.84-9.76,0-15.48,7.72-15.48,15.84,0,7.8,5.36,15.2,15.32,15.2C-78.46.72-73.7-3.64-73.7-5.72Zm30.6,3.88A3.17,3.17,0,0,0-43.34-3c-1.32-3.12-6.52-17.04-9.08-24.24A3.99,3.99,0,0,0-56.14-30a3.7,3.7,0,0,0-3.52,2.68C-68.42-2.68-68.54-2.36-68.54-1.64a2.148,2.148,0,0,0,2.28,2,2.274,2.274,0,0,0,2.24-1.64c.6-1.92,1.52-4.8,2.52-7.96a.5.5,0,0,1,.48-.36c.84-.04,3.52-.04,5.92-.04,1.8,0,3.44,0,4.08.04.24,0,.36.12.44.36,1.24,3.72,2.28,6.92,2.76,8.08A2.346,2.346,0,0,0-45.54.32,2.269,2.269,0,0,0-43.1-1.84ZM-52.18-14c0,.12-.08.16-.32.16-.56,0-1.96.04-3.4.04-1.4,0-2.88-.04-3.68-.04-.24,0-.32-.08-.32-.24,0-.36,2.6-7.84,3.2-9.44.28-.8.52-1.16.72-1.16.24,0,.44.4.68,1.12.64,1.96,1.84,5.6,3.08,9.36A.435.435,0,0,1-52.18-14Zm15.8,12.6A1.9,1.9,0,0,0-34.26.4a2.2,2.2,0,0,0,2.4-2c.2-5.52.76-17.68,1.04-21.2.08-.84.24-1.16.44-1.16.16,0,.36.28.52.76,1.48,4.72,5,17.4,6.28,20.44A3.105,3.105,0,0,0-20.7-.52,3.462,3.462,0,0,0-17.58-2.8c1.64-4.28,5.76-17.28,6.64-20.6.12-.48.4-.84.6-.84s.36.28.36.96c0,0,.4,15.88.8,21.6A2.235,2.235,0,0,0-6.78.4,2.146,2.146,0,0,0-4.46-1.68v-.16c-.32-5.68-1.2-18.68-1.32-23.84-.08-2.8-2-4.36-4-4.36a4.417,4.417,0,0,0-4.12,3.28c-1.56,4.56-4.76,15.68-6.28,19.36-.08.24-.24.36-.36.36-.16,0-.28-.12-.4-.36-.96-1.96-4.48-14.36-6-19.16-.72-2.32-2.4-3.44-4.04-3.44-1.88,0-3.72,1.52-3.88,4.48-.32,5.8-1.24,17.04-1.52,24.04ZM9.58-1.88V-3.44c0-2.64-.12-5.48-.12-7.96,0-.32.04-.44.24-.44a.781.781,0,0,1,.28.04,12.78,12.78,0,0,0,2.92.32,22.7,22.7,0,0,0,2.88-.2,9.443,9.443,0,0,0,8.68-9.52c0-4.32-2.92-8.6-9.24-9-.6-.04-1.4-.08-2.24-.08-7.84,0-7.88,2.64-7.88,7.56,0,2.8.08,6.72.08,10.84,0,3.4-.04,6.92-.2,10.04v.12A2.127,2.127,0,0,0,7.26.32,2.166,2.166,0,0,0,9.58-1.88Zm5.24-24.16c3.6,0,5.16,2.24,5.16,4.64a5.561,5.561,0,0,1-4.88,5.6c-.84.08-1.68.12-2.44.12-2.48,0-3.28-.28-3.28-1.12v-.68c0-1.4-.04-3.04-.04-4.44,0-3.72.36-4.16,3.56-4.16C13.86-26.08,14.82-26.04,14.82-26.04Zm37.6,24.2A3.17,3.17,0,0,0,52.18-3c-1.32-3.12-6.52-17.04-9.08-24.24A3.99,3.99,0,0,0,39.38-30a3.7,3.7,0,0,0-3.52,2.68C27.1-2.68,26.98-2.36,26.98-1.64a2.148,2.148,0,0,0,2.28,2A2.274,2.274,0,0,0,31.5-1.28c.6-1.92,1.52-4.8,2.52-7.96a.5.5,0,0,1,.48-.36c.84-.04,3.52-.04,5.92-.04,1.8,0,3.44,0,4.08.04.24,0,.36.12.44.36,1.24,3.72,2.28,6.92,2.76,8.08A2.346,2.346,0,0,0,49.98.32,2.269,2.269,0,0,0,52.42-1.84ZM43.34-14c0,.12-.08.16-.32.16-.56,0-1.96.04-3.4.04-1.4,0-2.88-.04-3.68-.04-.24,0-.32-.08-.32-.24,0-.36,2.6-7.84,3.2-9.44.28-.8.52-1.16.72-1.16.24,0,.44.4.68,1.12.64,1.96,1.84,5.6,3.08,9.36A.435.435,0,0,1,43.34-14ZM64.82-1.84c-.08-4.92-.12-10.12-.12-15.12,0-3.88.04-7.64.12-10.96V-28a2.115,2.115,0,0,0-2.36-1.96c-.72,0-2.52.44-2.44,2.12.12,3.24.2,6.88.2,10.68,0,5.16-.12,10.52-.2,15.32v.04A2.2,2.2,0,0,0,62.42.32a2.2,2.2,0,0,0,2.4-2.12Zm10.24.28A2.075,2.075,0,0,0,77.38.36c1.16,0,2.28-.6,2.28-1.88V-1.6c-.12-4.24-.24-16.04-.24-20.2,0-1.84,0-2.24.24-2.24.2,0,.48.52.64.76,2.16,3.64,9.64,17.32,12.44,21.76a4.078,4.078,0,0,0,3.44,2,3.616,3.616,0,0,0,3.64-3.8V-3.4c-.08-3.48-.12-8.72-.12-13.8,0-4,.04-7.88.12-10.68v-.08a2.146,2.146,0,0,0-2.32-2.08,2.145,2.145,0,0,0-2.32,2.16c.12,3.68.24,16.16.24,19.92,0,1.56-.16,1.68-.28,1.68s-.32-.2-.56-.56c-3.04-4.56-9.72-17.04-12.24-21.04a4.832,4.832,0,0,0-3.92-2.16c-1.76,0-3.32,1.12-3.32,3.92v.16c.04,3,.08,6.8.08,10.8,0,4.6-.04,9.44-.12,13.56Z" transform="translate(1003.986 2843.1)" fill="#27276e" opacity="0.187"/>
    <path id="パス_7262" data-name="パス 7262" d="M-98.4-61.65H-126l-11.625-.225-.525.45.225,8.925v14.625l-.225,11.25.525.525,11.25-.225h8.1v7.05H-135.75l-11.925-.225-.6.45v8.7l.525.6,12-.225h17.4l-.3,17.4h11.85l-.3-17.4h17.625L-77.4-9.75l.525-.525v-8.7L-77.4-19.5l-12.075.225h-17.7v-7.05h9.525l10.275.225.675-.525-.225-11.625V-52.125l.225-9.15-.6-.6Zm.525,9v4.425h-29.55V-52.65Zm-29.55,12.825h29.55v4.5h-29.55ZM-15.3-18.225v12.45c0,1.725-.15,1.8-1.575,2.025a45.312,45.312,0,0,1-5.925.225l3.9,9.375c.3.75.45.9,1.95.9C-8.7,6.75-4.8,4.95-4.8-3.375l-.375-21.45V-50.55l.225-10.2-.525-.525-8.625.225H-24l-8.625-.225-.525.525.225,10.2v21c0,17.1-1.125,23.55-8.25,31.275l7.05,5.325a2.256,2.256,0,0,0,1.05.525c.375,0,.675-.225,1.05-.675,5.4-6.6,7.725-14.1,8.55-25.125ZM-23.175-26.7l.075-2.925v-6.15h7.8V-26.7Zm.075-17.55V-52.5h7.8v8.25ZM-63.225-11.475a50.926,50.926,0,0,1-10.95,12.6l7.125,5.1a1.994,1.994,0,0,0,1.05.45,1.7,1.7,0,0,0,1.05-.525,68.427,68.427,0,0,0,11.1-13.5l-.225-.75-7.275-3.375H-46.5l-5.775,3.6-.15.75a49.5,49.5,0,0,1,6.75,8.775L-45,1.8l7.2-5.325.15-.675a42.416,42.416,0,0,0-6.525-7.275h.45l8.325.225.525-.525v-7.65l-.525-.525-4.35.15V-46.05l4.5.15.525-.525v-7.35l-.525-.525-4.5.15v-8.025l-.6-.525H-48.9l-.45.6v8.025H-57.9v-8.1l-.6-.525h-8.175l-.525.6v7.95l-5.025-.15-.6.375v7.5l.45.525,5.175-.15V-19.8l-6-.15-.6.375v7.8l.45.525,8.475-.225Zm5.325-34.65h8.55V-42.3H-57.9Zm0,11.025h8.55v3.975H-57.9Zm0,11.175h8.55v4.2H-57.9ZM42.225-42.075h3.45L45.3-49.35V-51.3l.225-5.7L45-57.525l-8.85.225H29.7v-6.45l-.525-.525h-9.45l-.525.525v6.45H12.15l-8.325-.225-.6.525.225,5.775v1.875l-.375,7.275h3.75v2.625l.525.525,9.825-.225H19.5v2.775H17.925L8.1-36.6l-.525.525v6.15L8.1-29.4l9.825-.225H19.5v2.85H12.525L2.7-27l-.525.525v6.75L2.7-19.2l9.825-.225H35.1l9.825.225.525-.525v-6.75L44.925-27l-9.825.225H29.325v-2.85H31.5l9.45.225.525-.525v-6.15L40.95-36.6l-9.45.225H29.325V-39.15h2.55l9.825.225.525-.525ZM35.7-46.2l-3.825.075h-2.55v-3.6H35.7Zm-16.2.075H17.175l-4.35-.075v-3.525H19.5ZM31.125,3V6.75H41.4L41.025-4.875v-4.95l.225-6.75-.525-.525-7.95.225H15.525L8.4-17.1l-.45.525.075,6.75V-5.25L7.65,7.275h9.9V3Zm0-7.725H17.55V-9.15H31.125Zm25.125-50.4H47.775l-.525.525v21.45l-.375,21H57.15l-.375-21V-54.6Zm13.8,33.75v-40.65l-.525-.525h-8.85l-.525.525v55.5c0,1.8-.45,2.25-2.025,2.4-1.275.15-4.05.3-7.575.3L55.35,5.4c.375.75.45.9,1.95.9,11.625,0,13.05-2.475,13.05-11.325Zm20.7-6.075c.375-2.85.675-5.7.975-8.55h11.4l10.275.225.525-.45L113.7-44.4v-8.925l.225-8.175-.525-.45-10.275.225H88.5l-9.075-.225-.525.45v8.325l.525.45L88.5-52.95h14.325v8.25h-12.9L82.8-45.075l-.675.45a269.432,269.432,0,0,1-3.75,29.4L88.65-14.1c.3-1.575.525-3.075.825-4.65H103.35a84.479,84.479,0,0,1-1.5,12.45c-.45,2.1-1.2,2.55-3.675,2.7-3.75.225-7.275.15-9.675.075L92.1,6.15c.3.825.6,1.05,1.575,1.05H99c4.95,0,8.775-.9,10.65-3,1.575-1.875,2.55-4.575,3.375-9.375a219.562,219.562,0,0,0,2.1-21.9l-.675-.525-9.15.15Zm49.725-36.225-.525-.525H129.825l-.525.525v44.85l-.375,26.4H140.85l-.375-26.4Z" transform="translate(701.236 2872.597)" fill="#27276e"/>
    <path id="パス_7263" data-name="パス 7263" d="M-131.247-16.5a.32.32,0,0,1,.351.324c0,.351-3.834,7.992-7.02,13.8A2.8,2.8,0,0,0-138.294-1,2.725,2.725,0,0,0-135.4,1.539a2.9,2.9,0,0,0,2.619-1.593c3.4-6.183,6.291-12.069,7.884-15.417a6.463,6.463,0,0,0,.7-2.673c0-2.052-1.485-3.375-4.158-3.375H-139.05c-2.619,0-4.266,1.269-4.266,4.05v3.78a2.641,2.641,0,0,0,2.835,2.646,2.645,2.645,0,0,0,2.808-2.7v-2.268a.453.453,0,0,1,.486-.486Zm31,12.663c0,1-.189,1.4-1.35,1.4a25.6,25.6,0,0,1-3.132-.351,1.315,1.315,0,0,0-.324-.027,2.2,2.2,0,0,0-1.971,2.457A2.262,2.262,0,0,0-105.516,2a21.9,21.9,0,0,0,4.752.432c2.592,0,5.535-.3,5.535-4.833V-19.17c0-1.809-.972-2.97-3.078-2.97h-16.011a2.743,2.743,0,0,0-3.078,3.051v6.669c0,4.131-.027,7.641-1.674,10.665a3.1,3.1,0,0,0-.4,1.512,2.913,2.913,0,0,0,2.97,2.727,2.246,2.246,0,0,0,2.052-1.215,16.85,16.85,0,0,0,1.809-6.291h12.393Zm0-5.292H-112.4c.027-.486.027-1.026.027-1.566v-.648h12.123Zm0-6.318h-12.123V-17.2c0-.324,0-.324.324-.324h11.529c.243,0,.27,0,.27.3ZM-68.2-2.862c2.349,0,3.726-1.242,3.726-3.753v-9.423c0-2.322-1.188-3.726-3.726-3.726h-5.967v-1.08c0-1.3-1.3-1.944-2.592-1.944s-2.619.648-2.619,1.971v1.053h-5.7c-2.646,0-3.726,1.485-3.726,3.807v9.369c0,2.565,1.4,3.726,3.726,3.726h5.7V.675c0,1.242,1.269,1.863,2.565,1.863,1.323,0,2.646-.648,2.646-1.89v-3.51Zm-1.242-4.833c0,.189-.081.324-.3.324h-4.428v-7.884h4.428c.189,0,.3.108.3.324Zm-9.936.324h-4.1c-.243,0-.351-.081-.351-.324v-7.236c0-.189.081-.324.3-.324h4.158Zm34.1-9.558c3.888.351,6.507,3.024,6.507,6.831,0,4.914-3.429,6.939-6.966,7.128A2.178,2.178,0,0,0-47.817-.648,2.52,2.52,0,0,0-45.279,2c.081,0,.189-.027.3-.027,7.8-.7,11.232-6.264,11.232-11.988,0-6.237-4.86-11.2-12.177-11.2-7.695,0-13.608,5.67-13.608,12.96,0,4.482,2.727,8.748,6.21,8.748,1.89,0,3.807-1.242,5.265-3.726A28.766,28.766,0,0,0-44.2-15.282,1.821,1.821,0,0,0-45.279-16.929Zm-3.051.27a1.545,1.545,0,0,0-.567,1.134c-.216,4.1-2.592,10.773-4.131,10.773-.972,0-1.917-1.62-1.917-3.807A8.366,8.366,0,0,1-48.33-16.659Zm42.606,3.7A2.642,2.642,0,0,0-3.213-15.5a2.39,2.39,0,0,0-.756-1.7c-.3-.3-4.131-3.861-6.048-3.861a2.542,2.542,0,0,0-2.511,2.4A2.042,2.042,0,0,0-11.394-16.9a22.835,22.835,0,0,1,4.1,3.24A2.188,2.188,0,0,0-5.724-12.96ZM-17.658-8.505a12.774,12.774,0,0,1,2.727-.351h.324c3.321,0,5.1,1.215,5.1,2.943,0,2-1.728,3.159-4.455,3.159a11.667,11.667,0,0,1-1.35-.081c-.108,0-.189-.027-.27-.027A1.939,1.939,0,0,0-17.415-.7a2.38,2.38,0,0,0,2.106,2.538,13.653,13.653,0,0,0,1.458.054c5.805,0,9.126-3.132,9.126-7.8,0-4.293-3.942-7.182-9.639-7.182a23.707,23.707,0,0,0-3.294.243v-1.863c1.053-.054,2.214-.135,3.078-.216A2.075,2.075,0,0,0-12.8-17.145a2.071,2.071,0,0,0-1.971-2.268c-.081,0-.162.027-.27.027-.783.108-1.674.162-2.538.216v-1.566c0-1.269-1.215-1.917-2.43-1.917-1.242,0-2.511.675-2.511,2v1.647h-.459c-1.053,0-2.376-.054-3.321-.108h-.135a2.134,2.134,0,0,0-2.106,2.295A2.175,2.175,0,0,0-26.406-14.5c.567,0,1.242.027,1.944.027s1.431-.027,2.052-.027v2.754c-3.807,1.512-6.669,4.347-6.669,7.83,0,3.7,3.51,5.778,6.372,5.778,3.213,0,5.022-1.593,5.022-5.346Zm-4.4,4.725c0,.7-.351,1.134-1,1.134A1.575,1.575,0,0,1-24.7-4.158c0-1,1-2.187,2.619-3.105ZM21.87-1.512c2.376,0,3.591-1.269,3.591-3.753V-16.956c0-2.457-1.242-3.753-3.618-3.753H15.9v-.243c0-1.215-1.269-1.809-2.538-1.809s-2.538.594-2.538,1.809v.243H4.941c-2.484,0-3.591,1.458-3.591,3.726V-5.238c0,2.322,1.08,3.726,3.591,3.726H10.8V.729c0,1.269,1.269,1.917,2.538,1.917S15.876,2,15.876.729V-1.512ZM20.6-6.318c0,.324-.135.378-.378.378H15.9V-9.153h4.7Zm-9.774.378H6.588c-.3,0-.351-.081-.351-.378V-9.153h4.59ZM20.6-13.257H15.9v-3.024H20.2c.378,0,.4.135.4.432Zm-9.774,0H6.237V-15.9c0-.27.081-.378.351-.378h4.239ZM55.863-8.883a2.6,2.6,0,0,0-2.646-2.673A2.69,2.69,0,0,0,50.544-9.18,8.193,8.193,0,0,1,42.8-2.565c-2.916,0-4-1.161-4-4.239v-.54c.594-12.366.594-12.366.594-12.474a2.492,2.492,0,0,0-2.7-2.484,2.524,2.524,0,0,0-2.727,2.457c-.081,3.888-.135,7.8-.378,12.447-.027.351-.027.675-.027.972,0,6.237,3.375,8.883,9.045,8.883C51.921,2.457,55.863-5.994,55.863-8.883Zm19.008-8.829c-.81,4.158-2.457,7.506-5.319,9.963a2.3,2.3,0,0,0-.891,1.809,2.667,2.667,0,0,0,2.511,2.565A2.014,2.014,0,0,0,72.6-4a18.918,18.918,0,0,0,4.86-7.479,20.563,20.563,0,0,0,4.05,7.452,2.345,2.345,0,0,0,1.728.837A2.6,2.6,0,0,0,85.752-5.7a2.753,2.753,0,0,0-.837-1.89,20.447,20.447,0,0,1-4.995-11.34c-.216-2.268-.648-3.294-3.24-3.294H70.848a2.056,2.056,0,0,0-2.025,2.241,2.079,2.079,0,0,0,2.025,2.268ZM63.774-3.564A11.759,11.759,0,0,1,61.479-2a1.821,1.821,0,0,0-.837,1.62c0,1.35,1,2.916,2.3,2.916C64.206,2.538,66.5.243,66.744,0c2.673,1.971,6.1,2.106,11.313,2.106,2.133,0,4.617-.027,6.318-.108A2.2,2.2,0,0,0,86.238-.459c0-1.08-.567-2.133-1.647-2.133H84.51c-3.078.162-5.4.351-8.4.351-3.645,0-6.345-.459-7.884-2v-7.425a2.288,2.288,0,0,0-2.565-2.511h-3.1c-1.161,0-1.755,1.134-1.755,2.268s.567,2.241,1.728,2.241H63.5c.243,0,.27.054.27.3Zm4.4-13.9c0-.54-.243-1.35-2.835-4.077a2.157,2.157,0,0,0-1.593-.7,2.584,2.584,0,0,0-2.565,2.322,1.866,1.866,0,0,0,.486,1.242c.891,1.026,1.593,1.836,2.268,2.781a1.863,1.863,0,0,0,1.566.81A2.738,2.738,0,0,0,68.175-17.469ZM112.563-3.861a1.972,1.972,0,0,0,1.566.783,2.906,2.906,0,0,0,2.646-2.862c0-.864-.4-1.89-2.889-3.726a35.408,35.408,0,0,0,.27-4.347c0-.486,0-.945-.027-1.4a2.34,2.34,0,0,0-2.511-2.214,2.159,2.159,0,0,0-2.349,2.16v.216c.054.7.081,1.539.081,2.43v.621a24,24,0,0,0-4.617-1.377c.4-1.431.783-2.808,1.188-4.023a5.213,5.213,0,0,0,.27-1.62c0-1.89-1.3-3.1-3.429-3.1H102.6c-1.431.027-3.429.162-5.022.162a13.674,13.674,0,0,1-1.566-.054c-.108,0-.216-.027-.324-.027a2.165,2.165,0,0,0-2.295,2.241,2.41,2.41,0,0,0,2.349,2.457c.243.027.567.027.945.027,1.134,0,2.646-.108,3.429-.162h.108c.432,0,.675.135.675.486,0,.081-.81,3.159-.81,3.213h-.4c-5.994.27-9.126,4.4-9.126,8.64C90.558-1.377,92.826,1,95.445,1c4.428,0,6.723-5.913,8.1-10.368A16.511,16.511,0,0,1,108.7-7.236c-.783,2.619-2.376,4.833-5.508,5.346A2.081,2.081,0,0,0,101.331.216a2.478,2.478,0,0,0,2.484,2.511c.594,0,5.994-.432,8.64-6.7ZM98.9-9.693c-1,3.186-2.16,5.751-3.213,5.751-.864,0-.891-1.269-.891-1.539A4.185,4.185,0,0,1,98.9-9.693Zm44.145-4.131a1.478,1.478,0,0,0-1.377-.783c-.891,0-1.755.567-1.755,1.377a1.314,1.314,0,0,0,.162.594,20.881,20.881,0,0,1,1.566,3.645,1.311,1.311,0,0,0,1.377.945A1.661,1.661,0,0,0,144.8-9.531,11.925,11.925,0,0,0,143.046-13.824Zm-2.538,5.562c0-.162-.135-1.4-1.728-4.374a1.585,1.585,0,0,0-1.431-.864,1.683,1.683,0,0,0-1.782,1.431,1.314,1.314,0,0,0,.162.594,21.683,21.683,0,0,1,1.539,3.78,1.364,1.364,0,0,0,1.4.972A1.718,1.718,0,0,0,140.508-8.262Zm-.7,10.179a2.54,2.54,0,0,0,2.322-2.538,2.469,2.469,0,0,0-2.484-2.538,4.028,4.028,0,0,0-.567.054,14.537,14.537,0,0,1-2.295.216c-4.023,0-6.048-2.241-6.048-4.86,0-2.592,2.025-5.562,6.048-6.993a14.43,14.43,0,0,1,4.833-.567,2.509,2.509,0,0,0,2.592-2.538,2.509,2.509,0,0,0-2.7-2.538c-6.993.054-13.986.432-20.007.81a2.453,2.453,0,0,0-2.376,2.538,2.385,2.385,0,0,0,2.484,2.457c.135,0,.243-.027.378-.027,6.156-.675,7.641-.837,7.938-.837.108,0,.135.027.135.054,0,.054-.081.162-.27.3a10.377,10.377,0,0,0-4.158,8.073c0,4.752,3.726,9.207,10.989,9.207A22.717,22.717,0,0,0,139.806,1.917Z" transform="translate(701.236 2791.097)" fill="#698da8"/>
  </g>
</svg>
