<svg xmlns="http://www.w3.org/2000/svg" width="76.137" height="61.862" viewBox="0 0 76.137 61.862">
  <path id="Icon_awesome-list-ul" data-name="Icon awesome-list-ul" d="M7.138,3.375a7.138,7.138,0,1,0,7.138,7.138A7.138,7.138,0,0,0,7.138,3.375Zm0,23.793a7.138,7.138,0,1,0,7.138,7.138,7.138,7.138,0,0,0-7.138-7.138Zm0,23.793A7.138,7.138,0,1,0,14.276,58.1a7.138,7.138,0,0,0-7.138-7.138Zm66.62,2.379H26.172a2.379,2.379,0,0,0-2.379,2.379v4.759a2.379,2.379,0,0,0,2.379,2.379H73.758a2.379,2.379,0,0,0,2.379-2.379V55.719A2.379,2.379,0,0,0,73.758,53.34Zm0-47.586H26.172a2.379,2.379,0,0,0-2.379,2.379v4.759a2.379,2.379,0,0,0,2.379,2.379H73.758a2.379,2.379,0,0,0,2.379-2.379V8.134A2.379,2.379,0,0,0,73.758,5.754Zm0,23.793H26.172a2.379,2.379,0,0,0-2.379,2.379v4.759a2.379,2.379,0,0,0,2.379,2.379H73.758a2.379,2.379,0,0,0,2.379-2.379V31.927A2.379,2.379,0,0,0,73.758,29.547Z" transform="translate(0 -3.375)" fill="#ffda2b"/>
</svg>
