<svg xmlns="http://www.w3.org/2000/svg" width="118.719" height="48.822" viewBox="0 0 118.719 48.822">
  <g id="グループ_9136" data-name="グループ 9136" transform="translate(-272.799 -1423.178)">
    <path id="Icon_awesome-user-check" data-name="Icon awesome-user-check" d="M21.36,24.411A12.205,12.205,0,1,0,9.154,12.205,12.2,12.2,0,0,0,21.36,24.411ZM29.9,27.462H28.311a16.6,16.6,0,0,1-13.9,0H12.816A12.819,12.819,0,0,0,0,40.278v3.967a4.578,4.578,0,0,0,4.577,4.577H38.142a4.578,4.578,0,0,0,4.577-4.577V40.278A12.819,12.819,0,0,0,29.9,27.462ZM60.7,15.219l-2.651-2.679a1.131,1.131,0,0,0-1.6-.01l-9.993,9.917-4.339-4.367a1.131,1.131,0,0,0-1.6-.01l-2.679,2.66a1.131,1.131,0,0,0-.01,1.6l7.791,7.848a1.131,1.131,0,0,0,1.6.01L60.694,16.821a1.14,1.14,0,0,0,.01-1.6Z" transform="translate(272.799 1423.178)" fill="#ffda2b"/>
    <path id="Icon_awesome-user-check-2" data-name="Icon awesome-user-check" d="M21.36,24.411A12.205,12.205,0,1,0,9.154,12.205,12.2,12.2,0,0,0,21.36,24.411ZM29.9,27.462H28.311a16.6,16.6,0,0,1-13.9,0H12.816A12.819,12.819,0,0,0,0,40.278v3.967a4.578,4.578,0,0,0,4.577,4.577H38.142a4.578,4.578,0,0,0,4.577-4.577V40.278A12.819,12.819,0,0,0,29.9,27.462Z" transform="translate(348.799 1423.178)" fill="#ffda2b"/>
  </g>
</svg>
