<svg id="グループ_9106" data-name="グループ 9106" xmlns="http://www.w3.org/2000/svg" width="309.8" height="104.61" viewBox="0 0 309.8 104.61">
  <path id="パス_4237" data-name="パス 4237" d="M391.525,134.6c-3.5-1.331-5.273-2.727-5.273-4.195,0-2.019,1.4-3.045,4.182-3.045a6.787,6.787,0,0,1,3.083.655,22.683,22.683,0,0,1,3.066,1.909l4.518-3.974q-5.667-4.733-10.245-4.74a11.2,11.2,0,0,0-7.613,2.662,8.588,8.588,0,0,0-3.022,6.688,7.442,7.442,0,0,0,2.129,5.435q2.114,2.19,7.675,4.343c3.695,1.441,5.564,3.026,5.564,4.824a3.26,3.26,0,0,1-1.6,2.663,6.278,6.278,0,0,1-3.691,1.149,8.408,8.408,0,0,1-5.873-2.759l-5.341,2.552c2.916,4.246,6.652,6.35,11.194,6.35a11.174,11.174,0,0,0,7.817-3.033,9.23,9.23,0,0,0,3.315-7.064,8.349,8.349,0,0,0-2.308-5.909Q396.793,136.656,391.525,134.6Z" transform="translate(-272.105 -94.432)" fill="#005161"/>
  <path id="パス_4238" data-name="パス 4238" d="M422,139.542l-11.609-17.388h-7.675l16.158,24.18-10.528,22.933h7.064l21.635-47.113H429.99Z" transform="translate(-272.347 -94.441)" fill="#005161"/>
  <path id="パス_4239" data-name="パス 4239" d="M449.968,134.6q-5.269-2-5.269-4.195c0-2.019,1.405-3.045,4.2-3.045a6.9,6.9,0,0,1,3.078.655,21.079,21.079,0,0,1,3.064,1.909l4.515-3.974q-5.683-4.733-10.242-4.74a11.17,11.17,0,0,0-7.614,2.662,8.591,8.591,0,0,0-3.039,6.688,7.492,7.492,0,0,0,2.136,5.435q2.129,2.19,7.682,4.343c3.707,1.441,5.545,3.026,5.545,4.824a3.231,3.231,0,0,1-1.578,2.663,6.262,6.262,0,0,1-3.688,1.149,8.437,8.437,0,0,1-5.889-2.759l-5.338,2.552c2.929,4.246,6.656,6.35,11.227,6.35a11.215,11.215,0,0,0,7.8-3.033,9.278,9.278,0,0,0,3.308-7.064,8.261,8.261,0,0,0-2.318-5.909C456.019,137.474,453.5,135.968,449.968,134.6Z" transform="translate(-272.702 -94.432)" fill="#005161"/>
  <path id="パス_4240" data-name="パス 4240" d="M475.824,112.819h-6.775v9.24h-5.315v6.24h5.315v25.81h6.775V128.3h6.669v-6.24h-6.669Z" transform="translate(-272.97 -94.346)" fill="#005161"/>
  <path id="パス_4241" data-name="パス 4241" d="M514.705,126.293a16.462,16.462,0,0,0-23.745-.052,16.355,16.355,0,0,0-4.883,11.8,16.848,16.848,0,0,0,4.821,12.2,16.149,16.149,0,0,0,11.956,4.877,17.826,17.826,0,0,0,14.883-7.227l-4.948-3.726a11.849,11.849,0,0,1-9.623,4.811,11.6,11.6,0,0,1-6.889-2.279c-2.107-1.493-3.457-3.934-4.052-7.239h27.345Q519.655,131.371,514.705,126.293Zm-21.764,7.726q3-6.544,10-6.557,6.4,0,9.678,6.557Z" transform="translate(-273.199 -94.432)" fill="#005161"/>
  <path id="パス_4242" data-name="パス 4242" d="M567.207,124.092a8.832,8.832,0,0,0-6.584-2.883,9.739,9.739,0,0,0-5.506,1.585,21.777,21.777,0,0,0-4.909,5.083,12.237,12.237,0,0,0-3.512-5.083,9.34,9.34,0,0,0-5.746-1.585A8.6,8.6,0,0,0,536,122.637a19.438,19.438,0,0,0-4.538,4.4v-4.89H524.71v32.049h6.753V136.137a9.511,9.511,0,0,1,2.136-6.312,6.534,6.534,0,0,1,5.207-2.558c3.432,0,5.159,2.09,5.159,6.3v20.628h6.756V136.728a10.8,10.8,0,0,1,2.1-6.746,6.305,6.305,0,0,1,5.113-2.714c3.51,0,5.276,1.779,5.276,5.331v21.595h6.772V130.877A9.356,9.356,0,0,0,567.207,124.092Z" transform="translate(-273.594 -94.432)" fill="#005161"/>
  <path id="パス_4243" data-name="パス 4243" d="M351.7,156.28a4.482,4.482,0,0,0-1.743-.35,11.442,11.442,0,0,0-7.532,3.331,3.476,3.476,0,0,0-.52.5c-6.155,10.669-16.473,17.662-28.209,17.662-18.852,0-34.143-18.161-34.143-40.582,0-22.394,15.291-40.541,34.143-40.541s34.143,18.148,34.143,40.541a46.515,46.515,0,0,1-.347,5.8,19.76,19.76,0,0,1,6.275-1.013,16.659,16.659,0,0,1,2.322.162,39.221,39.221,0,0,0,.309-4.948,42.749,42.749,0,1,0-4.7,19.44Z" transform="translate(-271 -94.155)" fill="#005161"/>
  <path id="パス_4244" data-name="パス 4244" d="M357.22,176.075c5.026-4.24,10.418-9.149,10.418-17.051a12.981,12.981,0,0,0-13.3-13.1c-7.041,0-13.044,4.707-16.18,9.8a5.007,5.007,0,0,0-.935,2.3.836.836,0,0,0,.78.857c.4,0,1.266-.779,2.438-1.882a14.97,14.97,0,0,1,10.087-4.325c3.726,0,7.885,2.565,7.885,8.234,0,8.22-6.782,14.83-13.548,20.927a173.962,173.962,0,0,1-16.109,13.212c-.682.611-2.207,2.13-2.207,2.637,0,1.1,1.019,1.195,1.867,1.195h8.112c4.007,0,20.528.416,21.8.416,1.519,0,2.529-.266,3.137-1.026,1.091-1.6,4.064-6.681,4.928-9.733.412-1.293.318-2.474-.28-2.474s-.934.156-1.781,1.377c-2.373,3.292-3.971,3.714-5.244,3.96-2.55.429-18.8.344-20.848.26-.331,0-.921-.345-.331-.85C345.3,185.4,350.867,181.49,357.22,176.075Z" transform="translate(-271.568 -94.684)" fill="#005161"/>
  <path id="パス_4245" data-name="パス 4245" d="M581.037,148.758c0-1.085-.7-1.623-2.1-1.623h-1.818v5.259h.893v-2.1h.86l1.188,2.1h1.152l-1.389-2.22A1.441,1.441,0,0,0,581.037,148.758Zm-2.133.668h-.9V148h1.006c.649,0,.987.241,1.012.727C580,149.193,579.631,149.426,578.9,149.426Z" transform="translate(-274.129 -94.697)" fill="#005161"/>
  <path id="パス_4246" data-name="パス 4246" d="M579.023,144.675a4.879,4.879,0,1,0,4.877,4.876A4.879,4.879,0,0,0,579.023,144.675Zm0,9.038a4.159,4.159,0,1,1,4.156-4.162A4.167,4.167,0,0,1,579.023,153.713Z" transform="translate(-274.099 -94.671)" fill="#005161"/>
</svg>
