<svg xmlns="http://www.w3.org/2000/svg" width="131.466" height="80.465" viewBox="0 0 131.466 80.465">
  <g id="グループ_11068" data-name="グループ 11068" transform="translate(-282.534 -1416.345)">
    <path id="Icon_metro-list2" data-name="Icon metro-list2" d="M32.745,6.957H83.036V17.015H32.745Zm0,30.174H83.036V47.19H32.745Zm0,30.174H83.036V77.364H32.745ZM2.571,11.986A10.058,10.058,0,1,1,12.629,22.044,10.058,10.058,0,0,1,2.571,11.986Zm0,30.174A10.058,10.058,0,1,1,12.629,52.219,10.058,10.058,0,0,1,2.571,42.161Zm0,30.174A10.058,10.058,0,1,1,12.629,82.393,10.058,10.058,0,0,1,2.571,72.335Z" transform="translate(279.963 1414.417)" fill="#ffda2b"/>
    <path id="Icon_awesome-check" data-name="Icon awesome-check" d="M12.227,30.9.527,19.2a1.8,1.8,0,0,1,0-2.546L3.073,14.1a1.8,1.8,0,0,1,2.546,0L13.5,21.986,30.382,5.1a1.8,1.8,0,0,1,2.546,0L35.473,7.65a1.8,1.8,0,0,1,0,2.546l-20.7,20.7A1.8,1.8,0,0,1,12.227,30.9Z" transform="translate(378 1438.577)" fill="#ffda2b"/>
  </g>
</svg>
