<svg xmlns="http://www.w3.org/2000/svg" width="99.88" height="97.799" viewBox="0 0 99.88 97.799">
  <path id="Icon_map-doctor" data-name="Icon map-doctor" d="M87.957,25.69H77.711V14.816A13.955,13.955,0,0,0,63.782.72H37.54a13.954,13.954,0,0,0-13.931,14.1V25.69H13.361A12.41,12.41,0,0,0,.72,38.044V85.917a12.62,12.62,0,0,0,12.641,12.6h74.6a12.623,12.623,0,0,0,12.643-12.6V38.044A12.413,12.413,0,0,0,87.957,25.69ZM31.932,14.816A6.01,6.01,0,0,1,37.54,9.043H63.782a6.014,6.014,0,0,1,5.606,5.772V25.69H31.932ZM73.549,71.468H58.983V86.034H42.337V71.468H27.771V54.822H42.337V40.256H58.983V54.822H73.549V71.468Z" transform="translate(-0.72 -0.72)" fill="#ffda2b"/>
</svg>
