<svg xmlns="http://www.w3.org/2000/svg" width="310" height="224" viewBox="0 0 310 224">
  <g id="グループ_9383" data-name="グループ 9383" transform="translate(-323.75 -35.139)">
    <rect id="長方形_23153" data-name="長方形 23153" width="310" height="224" transform="translate(323.75 35.139)" fill="#ffda2b"/>
    <g id="グループ_9167" data-name="グループ 9167" transform="translate(312.251 -14)">
      <path id="パス_5519" data-name="パス 5519" d="M-14.406-5.875v-2.25h1.078v2.25Zm1.688,0v-2.25h1.078v2.25Zm1.094-5.656v2.391a6.535,6.535,0,0,0-2.68.82A7.555,7.555,0,0,0-16.2-6.789a4.358,4.358,0,0,0-.977,1.664,2.361,2.361,0,0,0,.047,1.7,2.034,2.034,0,0,0,.914.922,2.889,2.889,0,0,0,1.086.32,11.584,11.584,0,0,0,1.2,0q.578-.031,1.023-.086t.461-.055v2.5a13.444,13.444,0,0,1-1.516.117Q-14.609.3-15.312.25a6.236,6.236,0,0,1-1.531-.3A4.725,4.725,0,0,1-18.43-.906a3.694,3.694,0,0,1-1.094-1.547,4.9,4.9,0,0,1-.211-2.391,5.845,5.845,0,0,1,.6-1.8A6.7,6.7,0,0,1-18.2-7.992a9.12,9.12,0,0,1,.867-.852,2.547,2.547,0,0,1,.391-.3h-4.937v-2.391ZM1.516-2.391V-.922H4.859V1.109H-4.219V-.922H-.766V-2.391H-3.3V-4.422H-.766V-6.094H1.516v1.672H4.2v2.031Zm-.125-8.625H-1.031A7.636,7.636,0,0,0,.188-9.578,8.788,8.788,0,0,0,1.391-11.016ZM-7.125-6.8l1.094-.047q-.359-.812-.391-.875Q-6.8-7.219-7.125-6.8ZM3.016-13.078l1.547.672A10.442,10.442,0,0,1,2.094-8.266,12.362,12.362,0,0,0,5.109-7.234a6.01,6.01,0,0,0-.766.883,8.582,8.582,0,0,0-.641.992A12.5,12.5,0,0,1,.3-6.844,14.2,14.2,0,0,1-3.219-5.25a8.743,8.743,0,0,0-1-1.625,9.431,9.431,0,0,1,.594,1.859l-1.625.734a4.683,4.683,0,0,0-.156-.734l-.531.047v1.141l1.359-.437a19.491,19.491,0,0,1,.984,2.906L-5.3-.75q-.125-.641-.641-2.266V1.516H-7.953V-3.156A13.225,13.225,0,0,1-8.781.406a8.984,8.984,0,0,0-1.75-.844A11.088,11.088,0,0,0-9.8-4.125l1.844.313V-4.828l-2.219.141-.2-2,1.219-.047q.312-.406.578-.766a12.992,12.992,0,0,0-1.8-2.125l1.094-1.609.3.281a16.186,16.186,0,0,0,1.047-2.7l2,.734q-1.25,2.375-1.8,3.234a4.292,4.292,0,0,1,.328.406q.7-1.156,1.328-2.453l1.875.859Q-5.313-9.2-6.219-7.969l1.234-.516q.328.609.609,1.266A10.911,10.911,0,0,0-1.516-8.344a11.072,11.072,0,0,1-1.672-2.266l1.234-.406H-3.875v-1.969H2.594ZM7.563-3.141,8.5-3.234A14,14,0,0,1,8.625-.266l-1,.125a15.028,15.028,0,0,0-.078-2.953,7.228,7.228,0,0,1-.891,3.7L5.516,0a6.945,6.945,0,0,0,.828-3.516l1.219.234ZM8.641-3.2l.922-.156a12.591,12.591,0,0,1,.453,2.594l-.969.188A13.293,13.293,0,0,0,8.641-3.2ZM11-5.828h1.891q0,.5-.016.734a46.433,46.433,0,0,1-.328,4.781,5.8,5.8,0,0,0,2.594-2.656H13.078V-7.391h2.609V-8H14.2v-.828a9.284,9.284,0,0,1-1.156.859,11.076,11.076,0,0,0-.875-1.625v.641H11v.7h1.172v1.719H11Zm-2.641-.7v.7h.813v-.7Zm.813-2.422H8.359v.7h.813Zm0-2.312H8.359v.578h.813Zm6,1.5h2.891a11.636,11.636,0,0,1-1.484-1.891A11.2,11.2,0,0,1,15.172-9.766Zm-.234,5.141h.656a11.158,11.158,0,0,0,.094-1.125h-.75Zm3.578,0V-5.75h-.781q0,.531-.047,1.125Zm1.969,1.656H18.3A5.977,5.977,0,0,0,21.109-.312,6.963,6.963,0,0,0,19.625,1.5a6.922,6.922,0,0,1-2.766-3.109,7.457,7.457,0,0,1-3.453,3.172,6.131,6.131,0,0,0-1-1.219A1.411,1.411,0,0,1,12.188.8a1.392,1.392,0,0,1-.984.625A5.9,5.9,0,0,1,9.8,1.5,4.234,4.234,0,0,0,9.313-.266a6.709,6.709,0,0,0,.828.047.519.519,0,0,0,.422-.219A2.925,2.925,0,0,0,10.8-1.5l-.516.172a8.7,8.7,0,0,0-.609-2.062l.844-.266a8.24,8.24,0,0,1,.375.922q.047-.937.063-1.312H6.469v-9.078h6.016v1.859H11v.578h1.172v.75a8.63,8.63,0,0,0,1.922-1.687A9.557,9.557,0,0,0,15.5-13.687h2a12.677,12.677,0,0,0,1.711,2.109,6.633,6.633,0,0,0,1.945,1.391A10.731,10.731,0,0,0,20-8.172a6.642,6.642,0,0,1-.875-.625V-8H17.734v.609h2.75Zm2.125-6.2v-2.516h8.984a14.935,14.935,0,0,1-1.008,3.359,19.57,19.57,0,0,1-1.492,2.8q.7.922,1.4,1.688a11.719,11.719,0,0,0,1.2,1.18q.508.414.523.43V.75Q31.375.141,30.688-.437a18.519,18.519,0,0,1-1.469-1.4,19.648,19.648,0,0,1-1.516-1.8A16.654,16.654,0,0,1,25.758-1.6,14.97,14.97,0,0,1,23.922-.2,13.5,13.5,0,0,1,22.563.57q-.516.242-.531.242v-2.8a10.75,10.75,0,0,0,2.445-1.687,16.835,16.835,0,0,0,2.039-2.266,14.307,14.307,0,0,0,1.75-3.234Zm16.281-3.172q-.078.453-.156.82t-.094.4h5.344v2.391a11.464,11.464,0,0,1-.9,3.719,8.688,8.688,0,0,1-1.773,2.633A12.3,12.3,0,0,1,39.156-.648,11.857,11.857,0,0,1,37.109.391a12.137,12.137,0,0,1-1.547.492A4.057,4.057,0,0,1,34.953,1V-1.531q.016,0,.547-.133a9.859,9.859,0,0,0,1.352-.477A9.441,9.441,0,0,0,38.563-3.1,7.318,7.318,0,0,0,40.2-4.7H37.313V-7.031h3.828a8.344,8.344,0,0,0,.3-1.766H37.766a10.863,10.863,0,0,1-1.875,2.664,15.676,15.676,0,0,1-1.484,1.289,3.43,3.43,0,0,1-.609.406V-7.453a4.052,4.052,0,0,0,.352-.289,5.473,5.473,0,0,0,.781-.9,8.625,8.625,0,0,0,.859-1.523,9.487,9.487,0,0,0,.648-2.18Zm8.469,2.469L48.3-4.516H46.656L45.75-9.875Zm2.609,0,.969,5.359H49.266l-.906-5.359ZM46.75.656V-1.531a5.555,5.555,0,0,0,2.711-1.187A5.916,5.916,0,0,0,51.07-4.828a13.861,13.861,0,0,0,.82-2.344,16.879,16.879,0,0,0,.375-1.9,6.638,6.638,0,0,0,.078-.789h2.094a21.569,21.569,0,0,1-.328,2.492,15.366,15.366,0,0,1-.7,2.375,10,10,0,0,1-1.359,2.461A8.67,8.67,0,0,1,49.883-.484,7.656,7.656,0,0,1,46.75.656Zm9.422-9.8v-2.5H65.75v2.3a10.67,10.67,0,0,1-.719,3.953,9.593,9.593,0,0,1-1.641,2.727A7.855,7.855,0,0,1,61.375-1a11.094,11.094,0,0,1-2.016.9A10.02,10.02,0,0,1,57.8.289a4.311,4.311,0,0,1-.617.07v-2.5a10.5,10.5,0,0,0,2.172-.539A6.484,6.484,0,0,0,61.2-3.8a5.626,5.626,0,0,0,1.492-2.055,8.944,8.944,0,0,0,.656-3.289Zm11.391.516v-2.156h3.359q.172-.562.273-.914l.1-.352h2.359a1.61,1.61,0,0,0-.094.344,8.92,8.92,0,0,1-.281.922h3.563v2.156H72.25a1.946,1.946,0,0,1-.187.391q-.187.344-.328.641.016-.016.18-.133a.965.965,0,0,1,.273-.148,1.814,1.814,0,0,1,1.633-.016,1.869,1.869,0,0,1,.789,1.172q.875-.469,1.648-.8t1.234-.5l.461-.172v2.531q-.016,0-.484.156t-1.211.422q-.742.266-1.508.609v2.188H72.609V-3.406a1.7,1.7,0,0,1-.148.1,2.449,2.449,0,0,1-.227.133q-.672.563-.562,1.047t1.141.516a19.768,19.768,0,0,0,2.07-.133q.977-.117,1.6-.234t.641-.133V.469a9.33,9.33,0,0,1-1.18.148,32.429,32.429,0,0,1-3.273.1A3.734,3.734,0,0,1,70.648.125a2.507,2.507,0,0,1-1.031-1.4,2.63,2.63,0,0,1,.164-1.8,4.371,4.371,0,0,1,1.531-1.758q.328-.219.648-.422t.648-.406a.544.544,0,0,0-.141-.391A.607.607,0,0,0,72-6.109a2.746,2.746,0,0,0-.742.367,8.914,8.914,0,0,0-.93.7q-.484.414-.906.789-.766.844-1.32,1.383t-.586.555V-5.219a4.865,4.865,0,0,0,.383-.336,7.5,7.5,0,0,0,.836-.945q.469-.609.984-1.406.109-.187.227-.437t.133-.281ZM-61.148,24.25v.828h1.219V24.25Zm-3.312-6.328V18.8a8.713,8.713,0,0,0,2.641-3.141H-62.6V16.75h-1.953V15.3h-2q-.2,1.375-.469,2.625Zm-1.937,5.7V19.906h-.891v3.719Zm9-7.969H-59.43a16.113,16.113,0,0,1-.875,1.8h.891A14.144,14.144,0,0,0-58.945,16l1.547.3Zm-2.531,4.453v-.75h-1.219v.75Zm0,2.484v-.812h-1.219v.813Zm4.656,2.484v1.875h-5.875v.578h-2.187v-6.7l-.047.031a9.6,9.6,0,0,0-1.078-1.312v6.063h-2.828v1.234h-1.844V23.406q-.078.125-.391.547a9.24,9.24,0,0,0-.539-1.156,7.529,7.529,0,0,0-.68-1.094,14.39,14.39,0,0,0,2-6.406h-1.406V13.2H-64.3v.531h3.25q.234-.8.359-1.437l2.219.406-.281,1.031h3.406V16.75h-1.625q-.125.234-.359.7H-55.6v1.906h-2.187v.75h1.781v1.672h-1.781v.813h1.781V24.25h-1.781v.828Zm8.828-10.047v1.688h4V15.031Zm7.047,6.953h-2.875A11,11,0,0,0-38.9,25.141a8.158,8.158,0,0,0-1.656,1.844,12.156,12.156,0,0,1-2.8-3.094v3.625H-45.68V23.984a11.682,11.682,0,0,1-3,2.953,8.693,8.693,0,0,0-1.578-1.828v2.359h-2.2V19.5a10.579,10.579,0,0,1-.953,1.078,9.4,9.4,0,0,0-.531-1.219,11.708,11.708,0,0,0-.672-1.2,14.549,14.549,0,0,0,2.055-2.609,16.45,16.45,0,0,0,1.57-3.187l2.156.7a28.008,28.008,0,0,1-1.422,3.047v8.969a10.039,10.039,0,0,0,3.5-3.094h-2.875V19.891h3.953V18.75h-2.969V12.984h8.531V18.75h-3.234v1.141H-39.4Zm7.3-2.594h-2.406v1.953H-32.1Zm2.313,4.156h-4.719v1.2h-2.266V17.188h6.984Zm6.25-10.187v2.359h-1.8V24.7a3.663,3.663,0,0,1-.258,1.539,1.707,1.707,0,0,1-.883.82,4.274,4.274,0,0,1-1.437.359q-.844.078-2.328.078a7.517,7.517,0,0,0-.984-2.453q.859.062,2.922.063a.641.641,0,0,0,.414-.1.446.446,0,0,0,.117-.352V15.719H-38.164V13.359Zm9.406,3.828-2.125.828q-.078-.359-.219-.8-1.219.078-3.328.219t-2.484.172l-.172-2.187q.781-.031,1.234-.047A17.349,17.349,0,0,0-20.2,12.2l2.438.5q-.688,1.734-1.078,2.578l1.5-.062q-.234-.5-.594-1.125l1.984-.734a14.43,14.43,0,0,1,1.813,3.766V12.406H-11.8v2.031A19.5,19.5,0,0,0-9.4,13.219l1.453,1.672A27.337,27.337,0,0,1-11.8,16.359v.563a.983.983,0,0,0,.094.547q.094.109.5.109H-9.9A.45.45,0,0,0-9.43,17.3a4.982,4.982,0,0,0,.156-1.258,4.224,4.224,0,0,0,.938.5,5.761,5.761,0,0,0,1.109.344,3.928,3.928,0,0,1-.7,2.172,2.26,2.26,0,0,1-1.734.578h-1.891a2.9,2.9,0,0,1-2.016-.523A2.789,2.789,0,0,1-14.133,17.188Zm-5.25,5.7h1.828v-.625h-1.828Zm1.828-2.859h-1.828v.547h1.828Zm2.3-1.891v7.125a3.21,3.21,0,0,1-.172,1.164,1.35,1.35,0,0,1-.609.68,4.938,4.938,0,0,1-2.3.375,7.4,7.4,0,0,0-.734-2.047,10.66,10.66,0,0,0,1.266.016q.25,0,.25-.234v-.625h-1.828V27.5h-2.141V18.141Zm4.078,7.266H-9.82a.473.473,0,0,0,.492-.336,6.9,6.9,0,0,0,.18-1.492,5.363,5.363,0,0,0,2.031.859,4.459,4.459,0,0,1-.711,2.352,2.214,2.214,0,0,1-1.773.633h-1.953a2.786,2.786,0,0,1-2.047-.57,3.123,3.123,0,0,1-.531-2.1V19.906h2.313v1.906a17.182,17.182,0,0,0,2.5-1.359l1.531,1.688A26.647,26.647,0,0,1-11.82,23.8v.938a.9.9,0,0,0,.109.563A.83.83,0,0,0-11.18,25.406Zm5.141-7.641V15.406H-4.07q.125-.7.18-1.156t.055-.469h2.188q-.219,1.188-.266,1.625H.07v2.359H-2.289Q-3.4,22.625-3.625,23.375l-.227.75H-6.117q1.359-4.844,1.625-6.359Zm6.75-2.422a15.723,15.723,0,0,1,1.82-.078q.867.016,1.43.047a4.579,4.579,0,0,1,.578.047v2.406l-.508-.031q-.492-.031-1.273-.047V20.8a10.386,10.386,0,0,1,1.266.539q.563.289.594.32V24.2L4.328,24q-.289-.2-.727-.469a5.308,5.308,0,0,0-.844-.422v1.016a3.263,3.263,0,0,1-.4,1.789,2,2,0,0,1-.961.813,3.226,3.226,0,0,1-1.141.211A3.8,3.8,0,0,1-1.219,26.7a2.657,2.657,0,0,1-1.234-.953,3.212,3.212,0,0,1-.508-1.937,3.335,3.335,0,0,1,.992-2.523,3.449,3.449,0,0,1,2.7-.8ZM.258,24.734A.411.411,0,0,0,.609,24.5a1.225,1.225,0,0,0,.117-.578V22.594a1.685,1.685,0,0,0-1.281.2,1.2,1.2,0,0,0-.484.906.913.913,0,0,0,.336.828A1.434,1.434,0,0,0,.258,24.734Z" transform="translate(166.5 219)" fill="#538eb4"/>
      <path id="パス_5518" data-name="パス 5518" d="M-61.8-14.7v2.426h-9.316V-14.7ZM-64.828-7.33V-8.965H-68.08V-7.33Zm2.531-3.9v6.17h-8.191v-6.17Zm-1.687,10.2-2.2-.527a16.02,16.02,0,0,0,1.037-3.463l2.531.545Q-63.7-1.6-63.984-1.037Zm-3.059-.633-2.338.615a10.886,10.886,0,0,0-.738-3.322l2.215-.545A10.539,10.539,0,0,1-67.043-1.67Zm-3.516-1.178L-72.211-.686A27.074,27.074,0,0,0-73.74-3.111,10.378,10.378,0,0,1-76.746,1.74a6.537,6.537,0,0,0-.835-.984,6.72,6.72,0,0,0-.958-.844A9.123,9.123,0,0,0-75.568-6.24H-78.4V-8.666h2.953v-2.3h-.176a11.9,11.9,0,0,1-1.02,2.092,10.934,10.934,0,0,0-2.215-1.178,12.38,12.38,0,0,0,1.9-5.361l2.443.475a15.989,15.989,0,0,1-.352,1.617h3.727v2.355h-1.828v2.3h2.039V-6.24h-2.18l-.053.369Q-72.844-5.537-70.559-2.848ZM-71.965-.984h10.459V1.424H-71.965Zm23.379-5.555H-46.6V-8.314h-1.969v.334Q-48.568-7.049-48.586-6.539Zm1.986-5.73h-1.969v1.67H-46.6ZM-56.707-5.678V-4.8h1.67v-.879Zm1.67-5.484h-1.67v.756h1.67Zm-1.67,2.725v.809h1.67v-.809Zm12.639-6.205V-1.037A4.046,4.046,0,0,1-44.279.422,1.648,1.648,0,0,1-45,1.248a6.2,6.2,0,0,1-3.023.457,7.121,7.121,0,0,0-.721-2.461q.439.035,1.793.035A.378.378,0,0,0-46.679-.8a.378.378,0,0,0,.079-.272V-4.219h-2.145a15.249,15.249,0,0,1-1.564,5.941,6.96,6.96,0,0,0-.949-.791A8.085,8.085,0,0,0-52.312.264l-1.477.879a17.229,17.229,0,0,0-2-2.742l1.688-.932h-4.359l2.426.7A12.645,12.645,0,0,1-57.278.114a13.089,13.089,0,0,1-1.468,1.644A11,11,0,0,0-60.838.229a7.459,7.459,0,0,0,2.32-2.76h-2.074V-4.8h1.547v-6.363H-60.4V-13.43h1.354v-1.758h2.338v1.758h1.67v-1.758h2.391v1.758h1.178v2.268h-1.178V-4.8h.984v2.268h-2A23.823,23.823,0,0,1-52-.545a21.176,21.176,0,0,0,.967-7.436v-6.662Zm7.049,1.758h-2.127v.615h2.127Zm-2.127,3.041h2.127v-.7h-2.127Zm4.57,1.828h-4.57V1.705H-41.73V-14.748h7.154Zm3.48-1.775h2.215v-.756H-31.1Zm2.215-3.094H-31.1v.615h2.215ZM-35.244-1.846h2.285V-2.6h-2.285Zm2.285-3.34h-2.285v.756h2.285Zm6.715-9.562V-1.283A4.557,4.557,0,0,1-26.473.334a1.719,1.719,0,0,1-.809.9,3.712,3.712,0,0,1-1.327.387,20.093,20.093,0,0,1-2.153.088,8.6,8.6,0,0,0-.4-1.67h-4.078V.949H-37.6V-7.066h7.1V-.9h1.178q.439,0,.439-.422V-7.963h-4.693v-6.785ZM24.883,8.969,26.8,11.215A53.649,53.649,0,0,1,15.527,12.8a7.753,7.753,0,0,0-.742-2.324A48.635,48.635,0,0,0,24.883,8.969Zm-.293,8.848-2.266-.9a23.338,23.338,0,0,0,2.227-4.766l2.734.977A40.6,40.6,0,0,1,24.59,17.816Zm-2.5-1.66-2.559.508a12.078,12.078,0,0,0-.684-3.691l2.4-.43A11.123,11.123,0,0,1,22.09,16.156Zm-3.477.645-2.461.7A14.975,14.975,0,0,0,15.078,13.6l2.285-.586A14.233,14.233,0,0,1,18.613,16.8Zm-4.16.508.352,2.6q-.82.254-1.758.488v4.531a4.872,4.872,0,0,1-.2,1.553,1.749,1.749,0,0,1-.684.889,5.507,5.507,0,0,1-2.91.547,8.7,8.7,0,0,0-.723-2.7,12.715,12.715,0,0,0,1.543.02.383.383,0,0,0,.244-.059.338.338,0,0,0,.068-.254V21.117l-1.621.449-.605-2.793q.254-.039,2.227-.469V15.219H8.516V12.563h1.875V8.93h2.656v3.633h1.6v2.656h-1.6V17.66Zm12.617,4.18H23.691a11.092,11.092,0,0,0,3.926,3.457,8.1,8.1,0,0,0-1.025,1.006,10.486,10.486,0,0,0-.889,1.143,12.556,12.556,0,0,1-3.32-3.32v3.965H19.648V23.617A12.7,12.7,0,0,1,15.7,27.23,10.29,10.29,0,0,0,13.789,25a11.51,11.51,0,0,0,4.395-3.516H15.176v-2.5h4.473V17.016h2.734v1.973H27.07Zm12.5-2.031h3.555V17.484H39.57Zm-6.211,0h3.281V17.484H33.418Q33.418,18.4,33.359,19.457Zm3.281-6.5H33.418v1.836h3.223Zm6.484,1.836V12.953H39.57v1.836Zm2.91-4.59V24.633a4.311,4.311,0,0,1-.273,1.709,1.934,1.934,0,0,1-.918.947,9.427,9.427,0,0,1-3.926.488A8.739,8.739,0,0,0,40,25q.723.059,2.637.059.488,0,.488-.469v-2.4H39.57v5.43h-2.93v-5.43H33.027a11.057,11.057,0,0,1-2.539,5.82A9.2,9.2,0,0,0,29.4,27a7.466,7.466,0,0,0-1.221-.859A7.189,7.189,0,0,0,29.463,24.2a9.511,9.511,0,0,0,.713-2.354q.215-1.26.283-2.227t.068-2.275V10.2Zm12.246,2.754h8.008q-.02.977-.059,1.348-.273,5.957-.635,8.574a7.7,7.7,0,0,1-1.025,3.438,3.133,3.133,0,0,1-.986.879,4.042,4.042,0,0,1-1.26.391,16.971,16.971,0,0,1-3.2.1,6,6,0,0,0-.332-1.533,6.5,6.5,0,0,0-.7-1.494q1.445.117,2.91.117a1.284,1.284,0,0,0,.918-.352q.84-.84,1.23-8.477h-4.98Q57.52,24.4,50.9,28.012a9.7,9.7,0,0,0-1.064-1.26,9.537,9.537,0,0,0-1.24-1.1,11.478,11.478,0,0,0,6.465-9.707h-5.8V12.953h5.918v-4h3.105Z" transform="translate(166.5 219)"/>
    </g>
    <g id="グループ_9307" data-name="グループ 9307" transform="translate(-34.41 -184.781)">
      <circle id="楕円形_12" data-name="楕円形 12" cx="60.115" cy="60.115" r="60.115" transform="translate(447.121 247.539)" fill="#fff"/>
      <g id="グループ_9320" data-name="グループ 9320" transform="translate(497.582 259.572)">
        <g id="グループ_9303" data-name="グループ 9303" transform="translate(10.721 0)">
          <path id="パス_4662" data-name="パス 4662" d="M878.044,262.309v7.215a1.1,1.1,0,0,0,2.192,0v-7.215a1.1,1.1,0,0,0-2.192,0Z" transform="translate(-878.044 -261.25)" fill="#c42d2d"/>
        </g>
        <g id="グループ_9304" data-name="グループ 9304" transform="translate(17.825 3.003)">
          <path id="パス_4663" data-name="パス 4663" d="M920.69,278.223l-3.607,6.249a1.1,1.1,0,0,0,1.893,1.106l3.607-6.248a1.1,1.1,0,0,0-1.893-1.107Z" transform="translate(-916.927 -277.691)" fill="#c42d2d"/>
        </g>
        <g id="グループ_9305" data-name="グループ 9305" transform="translate(0 3.004)">
          <path id="パス_4664" data-name="パス 4664" d="M819.507,279.331l3.608,6.248a1.1,1.1,0,0,0,1.893-1.106l-3.607-6.248a1.1,1.1,0,0,0-1.893,1.106Z" transform="translate(-819.351 -277.693)" fill="#c42d2d"/>
        </g>
      </g>
      <g id="グループ_9306" data-name="グループ 9306" transform="translate(425.661 274.06)">
        <path id="パス_4665" data-name="パス 4665" d="M765.346,622.584a1.153,1.153,0,0,1,.282-.3q-2.175-1.94-4.373-3.854l-.005,0a2.471,2.471,0,0,0,0,4.025C762.172,623.059,764.58,623.762,765.346,622.584Z" transform="translate(-699.095 -567.665)" fill="#fff"/>
        <path id="パス_4666" data-name="パス 4666" d="M804.648,623.962c.756-1.305,2.018-3.53.381-4.668-1.237-.765-2.368-1.23-3.486-.043a13.352,13.352,0,0,0-1.913,2.78,7.4,7.4,0,0,0-1.1,3.2c-.006,1.123,1.215,2.032,2.2,2.352,1.338.434,1.9-.4,2.54-1.427C803.729,625.424,804.214,624.71,804.648,623.962Z" transform="translate(-730.416 -567.748)" fill="#fff"/>
        <path id="パス_4667" data-name="パス 4667" d="M748.43,459.777a19.332,19.332,0,0,0-2.505-2.889c-1.146-1.294-2.278-2.6-3.418-3.9q-3.394-3.869-6.794-7.734-3.8-4.319-7.6-8.633a1.147,1.147,0,0,1,.331-1.765c-.406-.336-.817-.664-1.22-.988-.015.034-.031.068-.05.1-1.965,3.527-4.591,6.507-8.78,7.091a6.169,6.169,0,0,1-5.484-1.493,3.955,3.955,0,0,1-.3-5.137c1.176-1.66,2.492-3.246,3.721-4.869.184-.243.368-.489.553-.736-4.384-.254-8.656.922-13.03,1.056a18.784,18.784,0,0,1-10.24-3.046,1.048,1.048,0,0,1-.312-1.559l-.874-.329a1.174,1.174,0,0,1-.044.308c-2.483,8.892-5,17.883-8.246,26.563l.965-.335a1.217,1.217,0,0,1,1.254-1.708,18.176,18.176,0,0,1,4.541.85,12.671,12.671,0,0,1,3.351,2.489c3.4,3.043,6.859,6.022,10.27,9.054.355-.574.725-1.105,1.069-1.567a5.873,5.873,0,0,1,2.876-2.411,5.147,5.147,0,0,1,4.048.918,1.865,1.865,0,0,1,.272.183,3.934,3.934,0,0,1,1.677,3.436,4.263,4.263,0,0,1,3.252.444,1.167,1.167,0,0,1,.244.135,1.186,1.186,0,0,1,.243.189c1.651,1.346,1.819,3.234,1.357,5.119a4.475,4.475,0,0,1,1.932.043,4.429,4.429,0,0,1,3.333,4.875c0,.033-.011.063-.016.1l.035.026c1.872,1.565,4.5,1.669,5.732-.655.005-.01.011-.018.017-.028a33.345,33.345,0,0,1-4.3-3.267c-1.48-1.185-2.956-2.376-4.446-3.549-1.108-.873.454-2.414,1.55-1.55,2.256,1.778,4.473,3.607,6.74,5.371,1.183.92,2.549,1.98,4.143,1.632a2.949,2.949,0,0,0,2.3-2.757c-.055-.051-.11-.1-.164-.156-1.109-1.083-2.222-2.132-3.357-3.187-1.348-1.254-2.529-2.663-3.926-3.868-1.07-.923.487-2.467,1.55-1.55,1.135.979,2.129,2.078,3.18,3.141.926.937,1.967,1.744,2.894,2.681.432.437.916.961,1.443,1.448a1.083,1.083,0,0,1,.389.344c1.179.995,2.551,1.676,4.037.79a1.972,1.972,0,0,0,.956-2.109c-.229-1.191-1.513-2.058-2.314-2.868-2.092-2.113-4.17-4.24-6.27-6.345a1.1,1.1,0,0,1,1.55-1.55c2.534,2.541,5.159,5.039,7.605,7.667a1.207,1.207,0,0,1,.193.111,2.867,2.867,0,0,0,4.274-.73A3.364,3.364,0,0,0,748.43,459.777Z" transform="translate(-636.913 -409.531)" fill="#fff"/>
        <path id="パス_4668" data-name="パス 4668" d="M1089.273,352.38c-.025.011-.049.024-.076.034l-5.243,2.053-22.682,8.884-12.609,4.939a5.881,5.881,0,0,1,1.161.687.991.991,0,0,1,1.361.115,21.922,21.922,0,0,1,4.219,6.714,54.318,54.318,0,0,1,3.764,16.49,57.61,57.61,0,0,1-.4,14.784l5.473-1.933,27.248-9.625L1107.7,389.8Z" transform="translate(-934.852 -350.22)" fill="#538eb4"/>
        <path id="パス_4669" data-name="パス 4669" d="M887.658,451.581c-.913-5.112-2.415-10.916-6.421-14.522a1,1,0,0,1-.337-.579c-.068-.021-.135-.041-.2-.057a1.132,1.132,0,0,1-1.04,1.032,23.235,23.235,0,0,1-5.832-.117,36.2,36.2,0,0,1-6.183-1.86c-1.963-.7-3.926-1.4-5.917-2.023-.964-.3-1.93-.576-2.883-.912a4.205,4.205,0,0,0-2.707-.372c-1.532.506-2.628,2.125-3.58,3.341-1.079,1.378-2.1,2.8-3.167,4.186-.9,1.167-2.631,2.641-1.337,4.132,1.121,1.292,3.241,1.061,4.718.661,2.939-.8,4.693-3.284,6.1-5.815a1.1,1.1,0,0,1,1.943,1c.4.324.814.652,1.22.988a.927.927,0,0,1,1.219.215q1.786,2.024,3.569,4.05c4.925,5.591,9.771,11.259,14.762,16.792a19.213,19.213,0,0,1,2.261,2.642,24.494,24.494,0,0,0,2.751-1.252,1.042,1.042,0,0,1,1.567.646c.192-.08.382-.165.57-.258A73.269,73.269,0,0,0,887.658,451.581Z" transform="translate(-770.508 -415.342)" fill="#fff"/>
        <path id="パス_4670" data-name="パス 4670" d="M1060,607.846q.048-1.828.025-3.664c-.187.093-.378.177-.569.258a1.037,1.037,0,0,1-.461,1.247,12.237,12.237,0,0,1-1.829.863,5.145,5.145,0,0,0,.365.782,1.116,1.116,0,0,1,2.068.144,18.028,18.028,0,0,0,1.683,3.919v-2.509A1.032,1.032,0,0,1,1060,607.846Z" transform="translate(-941.803 -556.022)" fill="#fff"/>
        <path id="パス_4671" data-name="パス 4671" d="M1032.092,480.116a1.136,1.136,0,0,1-.928-1.345,44.927,44.927,0,0,0,.782-7.922,64.957,64.957,0,0,0-1.691-16.312c-1.068-4.48-2.647-9.325-5.911-12.716a1.083,1.083,0,0,1,.189-1.665,5.876,5.876,0,0,0-1.161-.687l-1.688.661a.9.9,0,0,1-1.257-.624,8.515,8.515,0,0,0-2.708,1.886c.329-.021.659-.044.988-.073a.954.954,0,0,1,1.04,1.161c.069.017.137.037.2.057a1.146,1.146,0,0,1,1.887-.971c4.212,3.792,5.943,9.818,6.933,15.2a79.6,79.6,0,0,1,1.18,16.452,1.047,1.047,0,0,1-.911,1.04v2.509c.517.928,1.082,1.827,1.638,2.694a1.048,1.048,0,0,1-.834,1.6c.7.273,1.571-.4,2.342-.781A1.137,1.137,0,0,1,1032.092,480.116Z" transform="translate(-909.561 -421.398)" fill="#fff"/>
        <path id="パス_4672" data-name="パス 4672" d="M652.868,417.808c-.007.035-.014.071-.025.107-2.471,8.714-5.434,17.3-8.45,25.837-1.249,3.535-2.52,7.062-3.851,10.567q-.287.756-.572,1.517c1.456.142,2.845-1.17,3.639-2.6a1.16,1.16,0,0,1-.291-1.34c4.621-10.608,7.744-21.936,10.85-33.06a1.1,1.1,0,0,1,.241-.448Z" transform="translate(-600.82 -403.695)" fill="#fff"/>
        <path id="パス_4673" data-name="パス 4673" d="M482.044,363.005l-.945-.356a1,1,0,0,1-1.329,1.083l-4.1-1.483-28.78-10.4a1.193,1.193,0,0,1-.3-.161l-13.153,39.823a1.233,1.233,0,0,1,.26.081q5.913,2.589,11.848,5.126c5.619,2.407,11.242,4.811,16.928,7.056,1.575.622,3.154,1.247,4.773,1.745.214-.444.438-.922.583-1.265,2.6-6.148,4.751-12.506,6.938-18.808,2.543-7.329,5.044-14.691,7.161-22.156A1.174,1.174,0,0,1,482.044,363.005Z" transform="translate(-432.012 -349.653)" fill="#538eb4"/>
        <path id="パス_4674" data-name="パス 4674" d="M616.8,648.595c-.007-.018.106-.163.115-.181l.009-.019C616.833,648.454,616.775,648.522,616.8,648.595Z" transform="translate(-581.879 -592.158)" fill="#64c8e6"/>
        <path id="パス_4675" data-name="パス 4675" d="M871.738,675.764a2.692,2.692,0,0,0-3.05.762c-.16.305-.325.6-.49.882,0,.008-.006.015-.008.023a2.459,2.459,0,0,0,2.59,3.016C873.047,680.2,873.96,676.774,871.738,675.764Z" transform="translate(-787.274 -614.361)" fill="#fff"/>
        <path id="パス_4676" data-name="パス 4676" d="M837.32,649.918a4.565,4.565,0,0,1,.679-1.185c.921-1.725,1.86-4.141.318-5.253-1.365-.8-2.09-.347-2.972.823a24.258,24.258,0,0,0-2.149,3.013c-.7,1.3-.656,2.943.789,3.69a2.446,2.446,0,0,0,3.284-1Z" transform="translate(-758.386 -587.811)" fill="#fff"/>
        <path id="パス_4677" data-name="パス 4677" d="M786.114,426.837a4.312,4.312,0,0,1,1.009.114.954.954,0,0,0-1.04-1.161c-.33.029-.659.052-.989.073a4.98,4.98,0,0,0-.954,1.413,4.98,4.98,0,0,1,.954-1.413,18.485,18.485,0,0,1-5.235-.3,59.907,59.907,0,0,1-6.78-2.229c-2.331-.824-4.711-1.5-7.043-2.31-2.131-.744-3.984-.894-5.865.534a11.94,11.94,0,0,0-1.8,1.744,1.128,1.128,0,0,0-.63-.262c-4.424-.449-8.739.674-13.132.954a16.674,16.674,0,0,1-9.871-2.711,1.026,1.026,0,0,0-1.418.334l2.452.925-2.452-.925a1.048,1.048,0,0,0,.312,1.559,18.782,18.782,0,0,0,10.24,3.046c4.373-.134,8.646-1.31,13.029-1.056-.185.247-.369.494-.553.736-1.229,1.623-2.545,3.209-3.721,4.869a3.955,3.955,0,0,0,.3,5.137,6.169,6.169,0,0,0,5.484,1.493c4.189-.583,6.815-3.564,8.78-7.091.019-.034.035-.068.05-.1-.216-.174-.431-.348-.638-.521.208.173.422.347.638.521a1.1,1.1,0,0,0-1.943-1c-1.41,2.531-3.164,5.02-6.1,5.815-1.478.4-3.6.631-4.718-.661-1.293-1.491.441-2.964,1.337-4.132,1.066-1.388,2.089-2.808,3.167-4.186.952-1.216,2.048-2.834,3.58-3.341a4.205,4.205,0,0,1,2.707.372c.952.336,1.919.611,2.883.912,1.99.62,3.953,1.324,5.917,2.023a36.2,36.2,0,0,0,6.183,1.86,23.233,23.233,0,0,0,5.832.117,1.132,1.132,0,0,0,1.04-1.032A4.312,4.312,0,0,0,786.114,426.837Z" transform="translate(-676.936 -405.87)" fill="#2e2e2e"/>
        <path id="パス_4678" data-name="パス 4678" d="M1038.708,464.843c-.99-5.386-2.721-11.413-6.933-15.2a1.146,1.146,0,0,0-1.887.971,2.846,2.846,0,0,1,1.2.706,2.846,2.846,0,0,0-1.2-.706,1,1,0,0,0,.337.579c4.006,3.606,5.508,9.41,6.421,14.522a73.29,73.29,0,0,1,1.075,11.92c.275-.136.546-.285.818-.448-.272.163-.543.312-.818.448q.024,1.835-.025,3.664a1.032,1.032,0,0,0,1.282,1.04v0a1.047,1.047,0,0,0,.911-1.04A79.6,79.6,0,0,0,1038.708,464.843Z" transform="translate(-919.495 -429.471)" fill="#2e2e2e"/>
        <path id="パス_4679" data-name="パス 4679" d="M1075.168,340.635l-14.3,5.6-22.682,8.884-5.243,2.053a1.179,1.179,0,0,0-.674,1.49c.167-.075.335-.146.5-.209-.168.063-.336.134-.5.209a.9.9,0,0,0,1.257.624l1.688-.661a6.717,6.717,0,0,0-1.126-.391,6.717,6.717,0,0,1,1.126.391l12.609-4.939,22.682-8.884,5.243-2.054c.026-.01.051-.022.075-.034l-.557-1.132.557,1.132C1077.025,342.154,1076.457,340.13,1075.168,340.635Z" transform="translate(-921.405 -340.555)" fill="#2e2e2e"/>
        <path id="パス_4680" data-name="パス 4680" d="M1111.47,462.788l-.814.287.565,1.146-.565-1.146-16.212,5.726-27.248,9.625-5.473,1.933a57.61,57.61,0,0,0,.4-14.784,54.322,54.322,0,0,0-3.764-16.49,21.925,21.925,0,0,0-4.219-6.714.991.991,0,0,0-1.361-.115,4.951,4.951,0,0,1,1.659,2.21,4.951,4.951,0,0,0-1.659-2.21,1.083,1.083,0,0,0-.189,1.665c3.264,3.391,4.844,8.237,5.911,12.716a64.951,64.951,0,0,1,1.69,16.312,44.9,44.9,0,0,1-.782,7.922,1.136,1.136,0,0,0,.928,1.345,1.155,1.155,0,0,0,.1.171,2.438,2.438,0,0,1,.581-.216,2.438,2.438,0,0,0-.581.216.911.911,0,0,0,1.125.35l17.025-6.014,27.248-9.625,6.223-2.2C1113.374,464.435,1112.805,462.317,1111.47,462.788Z" transform="translate(-937.804 -423.499)" fill="#2e2e2e"/>
        <path id="パス_4681" data-name="パス 4681" d="M535.776,352.772l2.181.822a1.1,1.1,0,0,0-.746-1.03l-28.78-10.4-4.1-1.483c-1.213-.438-1.795,1.286-.885,1.953l.461-1.4-.461,1.4a1.194,1.194,0,0,0,.3.161l28.78,10.4,4.1,1.483a1,1,0,0,0,1.329-1.083Z" transform="translate(-488.871 -340.599)" fill="#2e2e2e"/>
        <path id="パス_4682" data-name="パス 4682" d="M699.535,411.467l2.016.76A1.108,1.108,0,0,0,699.535,411.467Z" transform="translate(-649.503 -398.114)" fill="#2e2e2e"/>
        <path id="パス_4683" data-name="パス 4683" d="M475.693,413.646a1.172,1.172,0,0,0-.123.285c-2.117,7.465-4.618,14.827-7.161,22.156-2.187,6.3-4.341,12.66-6.938,18.808-.145.343-.369.82-.583,1.265-1.619-.5-3.2-1.124-4.773-1.746-5.686-2.245-11.309-4.65-16.928-7.056q-5.933-2.542-11.848-5.126a1.234,1.234,0,0,0-.26-.081l-.465,1.407.465-1.407c-1.162-.226-2.049,1.447-.847,1.974,9.316,4.079,18.651,8.138,28.091,11.922,1.91.765,3.826,1.571,5.795,2.176a2.993,2.993,0,0,0,1.59.218c.6-.164.878-.746,1.126-1.257.748-1.537,1.37-3.145,1.976-4.75a2.458,2.458,0,0,1-1.219-.483,2.458,2.458,0,0,0,1.219.483c.191-.507.38-1.013.572-1.517,1.33-3.5,2.6-7.032,3.851-10.567,3.016-8.538,5.979-17.123,8.45-25.837.01-.037.018-.072.025-.107ZM460.7,456.55c-.008.018-.121.163-.115.181-.028-.073.03-.14.124-.2Z" transform="translate(-425.661 -400.293)" fill="#2e2e2e"/>
        <path id="パス_4684" data-name="パス 4684" d="M719.015,419.539l1.917.723A1.129,1.129,0,0,0,719.015,419.539Z" transform="translate(-665.424 -404.845)" fill="#2e2e2e"/>
        <path id="パス_4685" data-name="パス 4685" d="M670.854,421.714l-1.917-.723a1.1,1.1,0,0,0-.241.448c-3.107,11.124-6.23,22.452-10.85,33.06a1.16,1.16,0,0,0,.291,1.34,5.73,5.73,0,0,0,.622-1.611,5.73,5.73,0,0,1-.622,1.611.945.945,0,0,0,1.6-.234c1.007-2.311,1.942-4.655,2.826-7.021l-1.681.585,1.681-.585c3.244-8.68,5.762-17.671,8.246-26.562A1.18,1.18,0,0,0,670.854,421.714Z" transform="translate(-615.346 -406.297)" fill="#2e2e2e"/>
        <path id="パス_4686" data-name="パス 4686" d="M756.219,502.266a9.434,9.434,0,0,0,2.12-.61,1.042,1.042,0,0,0-1.567-.646,24.485,24.485,0,0,1-2.751,1.252,19.221,19.221,0,0,0-2.261-2.643c-4.99-5.533-9.837-11.2-14.762-16.792q-1.784-2.025-3.569-4.05a.927.927,0,0,0-1.219-.215,15.852,15.852,0,0,1,2.088,2,15.852,15.852,0,0,0-2.088-2,1.147,1.147,0,0,0-.331,1.765q3.806,4.314,7.6,8.633,3.4,3.865,6.794,7.734c1.14,1.3,2.272,2.606,3.418,3.9a19.34,19.34,0,0,1,2.506,2.889,3.364,3.364,0,0,1,.187,2.891,2.867,2.867,0,0,1-4.274.73,1.206,1.206,0,0,0-.193-.111c-2.447-2.628-5.071-5.126-7.606-7.667a1.1,1.1,0,0,0-1.55,1.55c2.1,2.105,4.178,4.232,6.27,6.345.8.81,2.085,1.677,2.314,2.868a1.972,1.972,0,0,1-.956,2.109c-1.486.886-2.858.2-4.037-.79a1.083,1.083,0,0,0-.389-.344c-.527-.487-1.01-1.011-1.443-1.448-.926-.937-1.967-1.744-2.894-2.681-1.051-1.063-2.045-2.162-3.18-3.141-1.063-.917-2.621.627-1.55,1.55,1.4,1.205,2.578,2.614,3.926,3.868,1.134,1.055,2.248,2.1,3.357,3.188.054.053.108.1.164.156a2.949,2.949,0,0,1-2.3,2.757c-1.593.348-2.96-.712-4.143-1.632-2.267-1.764-4.484-3.593-6.74-5.371-1.1-.864-2.658.677-1.55,1.55,1.49,1.174,2.966,2.364,4.446,3.549a33.348,33.348,0,0,0,4.3,3.267c-.005.01-.011.018-.017.028-1.235,2.324-3.86,2.22-5.732.655l-.035-.026c0-.032.012-.063.016-.1a4.429,4.429,0,0,0-3.332-4.875,4.474,4.474,0,0,0-1.932-.043c.462-1.885.294-3.773-1.357-5.119a1.189,1.189,0,0,0-.243-.189,1.174,1.174,0,0,0-.244-.135,4.263,4.263,0,0,0-3.252-.444A3.934,3.934,0,0,0,716.547,503a1.87,1.87,0,0,0-.272-.183,5.147,5.147,0,0,0-4.048-.918,5.874,5.874,0,0,0-2.876,2.411c-.344.462-.714.993-1.069,1.567-3.411-3.032-6.869-6.011-10.27-9.054a12.673,12.673,0,0,0-3.351-2.489,18.174,18.174,0,0,0-4.541-.85,1.217,1.217,0,0,0-1.254,1.707l1.852-.644-1.852.644a.878.878,0,0,0,.672.406,17.652,17.652,0,0,1,4.271.74,12.445,12.445,0,0,1,3.153,2.483q2.1,1.875,4.219,3.724a4.658,4.658,0,0,0,.352,7.25,6.7,6.7,0,0,0,5.055,1,4.127,4.127,0,0,0,.157,1.049c.681,2.344,3.872,4.138,6.206,3.358a4.294,4.294,0,0,0,2.223,3.121,4.55,4.55,0,0,0,4.4.018,4.741,4.741,0,0,0,4.387,3.175,1.171,1.171,0,0,0,.231,0,1.223,1.223,0,0,0,.259-.038,4.9,4.9,0,0,0,3.314-2.041c2.86,1.9,6.676,1.746,8.467-1.624a1.154,1.154,0,0,0,.126-.379,5.254,5.254,0,0,0,5.946-3.45,4.973,4.973,0,0,0,5.6-.17,4.025,4.025,0,0,0,1.584-3.937,4.7,4.7,0,0,0,5.25-3.662,6.223,6.223,0,0,0,0-1.873c.423-.216.865-.4,1.307-.576a5.191,5.191,0,0,1-.269-1.062,5.191,5.191,0,0,0,.269,1.062,12.243,12.243,0,0,0,1.829-.863,1.037,1.037,0,0,0,.461-1.247A9.434,9.434,0,0,1,756.219,502.266Zm-49.284,5.891c-.767,1.178-3.175.475-4.1-.126a2.471,2.471,0,0,1,0-4.025l.005,0q2.193,1.919,4.373,3.854A1.157,1.157,0,0,0,706.935,508.157Zm6.607,3.492c-.638,1.027-1.2,1.861-2.54,1.427-.986-.32-2.206-1.229-2.2-2.352a7.4,7.4,0,0,1,1.1-3.2,13.345,13.345,0,0,1,1.913-2.78c1.118-1.188,2.249-.722,3.486.043,1.637,1.138.375,3.363-.381,4.668C714.482,510.2,714,510.915,713.541,511.649Zm6.755,2.511a4.563,4.563,0,0,0-.679,1.185l-.052.087a2.446,2.446,0,0,1-3.284,1c-1.444-.747-1.486-2.388-.788-3.69a24.274,24.274,0,0,1,2.149-3.013c.882-1.17,1.607-1.624,2.972-.823C722.156,510.019,721.217,512.435,720.3,514.16Zm3.893,5.164a2.459,2.459,0,0,1-2.59-3.016c0-.008.006-.015.008-.023.165-.282.33-.577.49-.882a2.692,2.692,0,0,1,3.05-.762C727.37,515.651,726.457,519.079,724.19,519.324Z" transform="translate(-640.684 -453.238)" fill="#2e2e2e"/>
        <path id="パス_4687" data-name="パス 4687" d="M1064.149,625.361c-.556-.867-1.121-1.766-1.638-2.694v0a18.046,18.046,0,0,1-1.684-3.919,1.116,1.116,0,0,0-2.068-.143,5.621,5.621,0,0,0,1.778,1.882,5.621,5.621,0,0,1-1.778-1.882,1.031,1.031,0,0,0-.046.726,27.062,27.062,0,0,0,3.542,7.137,1.047,1.047,0,0,0,1.059.5,1.193,1.193,0,0,1-.584-.559,1.193,1.193,0,0,0,.584.559A1.048,1.048,0,0,0,1064.149,625.361Z" transform="translate(-943.029 -567.294)" fill="#2e2e2e"/>
      </g>
    </g>
  </g>
</svg>
