<svg xmlns="http://www.w3.org/2000/svg" width="310" height="224" viewBox="0 0 310 224">
  <g id="グループ_9385" data-name="グループ 9385" transform="translate(-1.5 -35.913)">
    <rect id="長方形_23169" data-name="長方形 23169" width="310" height="224" transform="translate(1.5 35.913)" fill="#ffda2b"/>
    <path id="パス_5522" data-name="パス 5522" d="M-21.18-8.625v-2.156h3.359q.172-.562.273-.914l.1-.352h2.359a1.609,1.609,0,0,0-.094.344,8.918,8.918,0,0,1-.281.922H-11.9v2.156h-4.594a1.946,1.946,0,0,1-.187.391q-.187.344-.328.641.016-.016.18-.133a.965.965,0,0,1,.273-.148,1.814,1.814,0,0,1,1.633-.016,1.869,1.869,0,0,1,.789,1.172q.875-.469,1.648-.8t1.234-.5l.461-.172v2.531q-.016,0-.484.156t-1.211.422q-.742.266-1.508.609v2.188h-2.141V-3.406a1.7,1.7,0,0,1-.148.1,2.449,2.449,0,0,1-.227.133q-.672.563-.562,1.047t1.141.516a19.768,19.768,0,0,0,2.07-.133q.977-.117,1.6-.234t.641-.133V.469A9.33,9.33,0,0,1-12.8.617a32.429,32.429,0,0,1-3.273.1A3.734,3.734,0,0,1-18.094.125a2.507,2.507,0,0,1-1.031-1.4,2.63,2.63,0,0,1,.164-1.8A4.371,4.371,0,0,1-17.43-4.828q.328-.219.648-.422t.648-.406a.544.544,0,0,0-.141-.391.607.607,0,0,0-.469-.062,2.746,2.746,0,0,0-.742.367,8.914,8.914,0,0,0-.93.7q-.484.414-.906.789-.766.844-1.32,1.383t-.586.555V-5.219a4.865,4.865,0,0,0,.383-.336,7.5,7.5,0,0,0,.836-.945q.469-.609.984-1.406.109-.187.227-.437t.133-.281ZM-3.664-4.766-4.852-3.125q-.047-.156-.7-1.687V1.516H-7.648V-3.719A11.917,11.917,0,0,1-8.836-1.25a12.189,12.189,0,0,0-1-2.062A13.771,13.771,0,0,0-7.82-8.3H-9.43v-2.156h1.781v-3.234h2.094v3.234h1.469V-8.3H-5.555v.531q.313.437.992,1.523T-3.664-4.766ZM1.711-2.625h.953v-.516H1.711Zm-3-.516v.516h.922v-.516Zm.922-1.922h-.922v.453h.922Zm3.031,0H1.711v.453h.953ZM.008-9.078v.453H1.3v-.453Zm0-1.953v.438H1.3v-.437ZM5.617-2.625V-.953H4.8v.328A2.91,2.91,0,0,1,4.641.469a1.2,1.2,0,0,1-.6.609,6.323,6.323,0,0,1-2.375.3A6.83,6.83,0,0,0,1.086-.437q.234.016,1.328.016.25,0,.25-.234v-.3H-1.289V1.359H-3.383V-.953h-.875V-2.625h.875v-4H-.367v-.391H-3.992V-8.625h1.859v-.453H-3.32v-1.516h1.188v-.437H-3.68v-1.562h1.547v-1.094H.008v1.094H1.3v-1.094H3.477v1.094h1.7v1.563h-1.7v.438H4.9v1.516H3.477v.453H5.445v1.609H1.711v.391H4.8v4Zm11.109-8.187H16.07A11.5,11.5,0,0,1,14.945-9.5h2.531A7.447,7.447,0,0,0,16.727-10.812ZM15.57-7.2l.75-.625a8.913,8.913,0,0,1,1.031.875V-8.031H15.617v.188Q15.617-7.812,15.57-7.2Zm5.7,5.063H16.555A15.1,15.1,0,0,0,21.539-.859,8.116,8.116,0,0,0,20.07,1.125a12.332,12.332,0,0,1-5.031-2.2V1.453H12.773V-1.109A13.213,13.213,0,0,1,7.711,1.156,8.9,8.9,0,0,0,7.055.172a8.573,8.573,0,0,0-.766-.906,15.262,15.262,0,0,0,4.8-1.406H6.57v-1.8h6.2v-.7q-.406-.406-.609-.594-1.922.266-5.234.766l-.266-1.8.977-.117,1.336-.164V-7.875H7.086V-9.437H12.93v1.563H11.07v1.047l1.828-.25.047.672a1.9,1.9,0,0,0,.563-1.5V-9.5h1.344a10.106,10.106,0,0,0-2-1.062q.219-.156.328-.25H11.414a5.851,5.851,0,0,1,.453.844l-1.859.531a6.136,6.136,0,0,0-.672-1.375H9.3A14.068,14.068,0,0,1,8.117-9.5a10.27,10.27,0,0,0-1.859-1.266,7.4,7.4,0,0,0,1.359-1.375,7.824,7.824,0,0,0,1.016-1.7l2.156.594q-.187.422-.312.641h3.2V-11.3a7.421,7.421,0,0,0,1.594-2.547l2.2.547q-.281.656-.3.688h4.2v1.8H18.992a4.77,4.77,0,0,1,.484.813l-1.844.5h1.891v2.594a2.706,2.706,0,0,0,.016.438q.016.078.125.078H19.8a.222.222,0,0,0,.125-.031.725.725,0,0,0,.094-.3q.031-.187.063-1.062a3.808,3.808,0,0,0,1.469.813,6.509,6.509,0,0,1-.234,1.547,1.3,1.3,0,0,1-.594.672,1.891,1.891,0,0,1-.906.188h-.812a1.584,1.584,0,0,1-1.219-.453,1.6,1.6,0,0,1-.391-.859l-.875.781a7.308,7.308,0,0,0-1.141-1.25,3.113,3.113,0,0,1-1.172,1.609h.828v.8h6.234Z" transform="translate(244.676 225)" fill="#538eb4"/>
    <path id="パス_5333" data-name="パス 5333" d="M57.1,0A57.1,57.1,0,1,1,0,57.1,57.1,57.1,0,0,1,57.1,0Z" transform="translate(103.945 69.712)" fill="#fff"/>
    <g id="グループ_9380" data-name="グループ 9380" transform="translate(133.953 93.051)">
      <path id="パス_4846" data-name="パス 4846" d="M1114.745,567.881V546.839h-9.134a1.722,1.722,0,0,1-1.7-1.7c0-1.18,0-2.361,0-3.541,0-.457-.018-.914-.06-1.37-.012-.13-.027-.26-.041-.39v-.017c0-.014-.005-.027-.008-.045-.053-.3-.1-.592-.167-.886a14.281,14.281,0,0,0-.451-1.591q-.083-.238-.174-.474c-.008-.02-.024-.065-.04-.11-.083-.216-.191-.426-.293-.633a14.38,14.38,0,0,0-.731-1.306q-.2-.315-.414-.621c-.072-.1-.146-.2-.219-.3l-.02-.028-.017-.021a15.64,15.64,0,0,0-1.987-2.038c-.084-.071-.17-.139-.255-.207-.047-.036-.149-.115-.181-.139q-.3-.22-.613-.425-.574-.375-1.181-.695-.388-.2-.788-.384c-.061-.028-.124-.056-.187-.082l-.1-.037a14.194,14.194,0,0,0-1.383-.456c-.518-.142-1.04-.242-1.568-.336l-.044-.008-.018,0-.259-.028q-.392-.04-.786-.058c-.662-.03-1.328-.015-1.991-.015-.318,0-.635,0-.952.015q-.393.018-.786.058l-.259.028h-.016l-.046.008a15.737,15.737,0,0,0-2.951.793l-.191.076-.212.1q-.341.157-.674.332-.607.319-1.181.695c-.243.159-.477.329-.713.5l-.028.02-.02.017c-.1.079-.193.156-.288.236q-.522.439-1,.926c-.349.355-.671.73-.986,1.112l-.017.021-.02.028c-.073.1-.147.2-.219.3q-.215.305-.414.621a14.38,14.38,0,0,0-.731,1.306c-.092.188-.188.38-.268.575l-.019.051c-.045.118-.091.235-.135.353a14.216,14.216,0,0,0-.463,1.517q-.084.343-.151.689c-.024.126-.047.253-.068.381,0,.025-.015.082-.025.137a12.332,12.332,0,0,0-.107,2v3.352a1.728,1.728,0,0,1-1.7,1.7h-9.105c0,.929-.029,1.859-.029,2.782v30.086c1.569-.012,3.145.038,4.708.038h43.857c0-.929.029-1.859.029-2.782Zm-17.764,8.16a5.113,5.113,0,0,1-2.5.3h-6.23a2.716,2.716,0,0,1-1.329-.249,2.243,2.243,0,0,1-1.179-2.022c-.066-3.063-.014-6.134,0-9.2a7.015,7.015,0,0,1,.8-11.844,7.011,7.011,0,0,1,10.33,5.912,7.011,7.011,0,0,1-2.582,5.68v3.179h1.607a1.657,1.657,0,0,1,.418.058l.035,0a2.181,2.181,0,0,1,1.707,2.1c.006.1,0,.2,0,.3v1.665C1098.052,573.278,1098.381,575.248,1096.982,576.041Zm1.848-30.9a1.727,1.727,0,0,1-1.7,1.7H1083.77a1.727,1.727,0,0,1-1.7-1.7v-3.592a7.683,7.683,0,0,1,3.789-6.559,9.952,9.952,0,0,1,5.244-1.015,7.687,7.687,0,0,1,5.722,2.444,7.91,7.91,0,0,1,2.007,5.422Z" transform="translate(-1062.726 -525.487)" fill="#ffda2b"/>
      <path id="パス_4847" data-name="パス 4847" d="M1112.525,539.548a1.728,1.728,0,0,0-1.7-1.7h-9.13a20.208,20.208,0,0,0-1.075-7.633,16.086,16.086,0,0,0-15.274-10.314,20.7,20.7,0,0,0-5.633.586,16.181,16.181,0,0,0-9.995,8.177,16.363,16.363,0,0,0-1.757,7.3c0,.628,0,1.257,0,1.886h-9.134a1.727,1.727,0,0,0-1.7,1.7v31.827c0,1.472-.044,2.95,0,4.422,0,.021,0,.042,0,.064a1.728,1.728,0,0,0,1.7,1.7h45.589c2.1,0,4.217.053,6.32,0h.09a1.728,1.728,0,0,0,1.7-1.7V544.034c0-1.472.044-2.95,0-4.422C1112.524,539.591,1112.525,539.57,1112.525,539.548Zm-6.871,34.609h-40.421c-1.563,0-3.138-.05-4.708-.038V544.034c0-.923.026-1.853.029-2.782h9.1a1.728,1.728,0,0,0,1.7-1.7V536.2a12.318,12.318,0,0,1,.107-2c.01-.055.021-.111.025-.137.021-.127.044-.254.068-.381q.067-.346.151-.689a14.247,14.247,0,0,1,.463-1.517c.043-.118.09-.235.135-.353l.019-.051c.08-.2.176-.387.268-.575a14.384,14.384,0,0,1,.731-1.306q.2-.316.414-.621c.072-.1.146-.2.219-.3l.02-.028.017-.02c.316-.383.638-.758.986-1.112q.478-.486,1-.926c.095-.08.192-.157.288-.236l.02-.017.028-.02c.236-.169.47-.339.713-.5q.574-.375,1.181-.695.333-.175.674-.332l.212-.1.191-.076a15.744,15.744,0,0,1,2.951-.793l.045-.008h.016l.259-.028q.392-.04.786-.057c.317-.015.635-.015.952-.015.663,0,1.329-.015,1.991.015q.393.018.786.057l.259.028.018,0,.044.008c.528.094,1.051.194,1.568.336a14.229,14.229,0,0,1,1.383.456l.1.037c.063.026.126.055.187.082q.4.18.788.384.607.319,1.181.695.312.2.613.425c.033.024.134.1.181.139.085.068.171.137.255.207a15.645,15.645,0,0,1,1.987,2.038l.017.02.02.028c.073.1.147.2.219.3q.215.305.414.621a14.355,14.355,0,0,1,.731,1.306c.1.207.21.417.293.633.016.045.033.09.041.11q.091.235.174.474A14.276,14.276,0,0,1,1098,533.3c.065.294.114.59.167.886,0,.018.006.031.008.045v.017c.014.13.029.26.041.39.042.456.059.912.06,1.37,0,1.18,0,2.361,0,3.541a1.722,1.722,0,0,0,1.7,1.7h9.134v30.124c0,.923-.026,1.853-.029,2.782Z" transform="translate(-1057.1 -519.899)" fill="#323232"/>
      <path id="パス_4848" data-name="パス 4848" d="M1117.245,542.321a9.952,9.952,0,0,0-5.244,1.015,7.683,7.683,0,0,0-3.789,6.559v3.592a1.727,1.727,0,0,0,1.7,1.7h13.357a1.728,1.728,0,0,0,1.7-1.7v-3.3a7.91,7.91,0,0,0-2.007-5.422A7.686,7.686,0,0,0,1117.245,542.321Zm-5.627,7.573a2.491,2.491,0,0,1,.028-.618.978.978,0,0,0,.028-.1c.021-.1.045-.208.072-.311.052-.2.151-.4.192-.6.066-.129.128-.26.2-.387.1-.176.248-.343.333-.524v0c.08-.091.158-.184.241-.273a5.944,5.944,0,0,1,.446-.428l.05-.042c-.034.033.187-.135.248-.175a5.865,5.865,0,0,1,.594-.339,1.979,1.979,0,0,1,.193-.092c.037-.009.073-.019.095-.026a5.8,5.8,0,0,1,.61-.173c.084-.019.168-.032.251-.051l.015,0c.059-.005.117-.011.176-.016.546-.036,1.1-.013,1.647-.013.21,0,.42,0,.63.006.1,0,.207.017.311.023l.011,0c.25.056.5.106.742.184.1.031.2.083.295.1h0c.185.1.37.185.549.294.059.036.324.228.373.255.153.128.3.257.444.4.109.111.208.23.308.35.016.034.215.308.258.379.108.179.2.364.294.549l.011.02.01.036c.038.12.083.238.119.359.061.2.1.412.147.621,0,.013,0,.022.007.032v.028c0,.087.014.174.017.262.008.168.006.336.006.5v1.649h-9.951Z" transform="translate(-1088.871 -533.836)" fill="#323232"/>
      <path id="パス_4849" data-name="パス 4849" d="M1122.2,607.794v9h5.5v-1.731h-2.064a1.728,1.728,0,0,1-1.7-1.7v-4.471a11.32,11.32,0,0,1,.031-1.5c.1-.743.628-1.092,1.18-1.486-.087.061.066-.056.152-.135.116-.106.227-.218.333-.333.056-.061.108-.124.161-.187.08-.132.173-.256.251-.39s.137-.265.208-.4c.023-.063.047-.125.068-.189a5.205,5.205,0,0,0,.146-.534c.016-.073.028-.171.034-.217.015-.275.018-.545.012-.822a.473.473,0,0,1-.011-.126c-.007-.043-.013-.084-.016-.1q-.044-.219-.106-.434c-.035-.121-.084-.239-.118-.36l0-.008c-.016-.035-.032-.07-.049-.1-.074-.149-.154-.294-.241-.435l-.144-.229c.1.158-.127-.152-.186-.216-.1-.107-.2-.209-.3-.307-.063-.059-.13-.113-.195-.168-.029-.017-.188-.135-.243-.171-.123-.078-.248-.151-.377-.218-.069-.036-.359-.151-.3-.139l-.1-.031q-.09-.03-.182-.056-.215-.062-.434-.106l-.122-.021c-.118-.008-.366-.018-.4-.019-.177,0-.352.019-.528.019h-.007l-.118.02a2.791,2.791,0,0,0-.807.212c.078-.047.183-.075.014.009-.075.037-.15.072-.224.111q-.165.087-.324.185l-.224.141c.158-.1-.167.14-.221.188q-.183.167-.35.35c-.048.053-.287.38-.188.221l-.141.224q-.1.159-.185.324c-.048.091-.086.191-.137.281l-.021.037c-.029.1-.051.206-.068.266-.041.143-.077.288-.106.434-.008.039-.014.078-.021.118v.007c0,.313-.006.619.008.931.006.049.016.131.03.2q.051.235.123.465c.028.089.061.176.091.264.065.127.125.257.2.381s.174.261.252.4l0,.009c.033.04.065.08.1.119a5.494,5.494,0,0,0,.578.557c.033.021.175.124.245.168.133.084.269.16.408.233A1.7,1.7,0,0,1,1122.2,607.794Z" transform="translate(-1095.772 -569.353)" fill="#fff"/>
      <path id="パス_4850" data-name="パス 4850" d="M1119.856,605.314c.025-.052.065-.128.064-.127A.341.341,0,0,0,1119.856,605.314Z" transform="translate(-1096.109 -572.914)" fill="#64c8e6"/>
      <path id="パス_4851" data-name="パス 4851" d="M1130.068,599.51a.213.213,0,0,0,.048.005A.235.235,0,0,0,1130.068,599.51Z" transform="translate(-1102.457 -569.385)" fill="#64c8e6"/>
      <path id="パス_4852" data-name="パス 4852" d="M1138.274,607.669c0,.022.006.041.01.062C1138.28,607.641,1138.275,607.638,1138.274,607.669Z" transform="translate(-1107.558 -574.446)" fill="#64c8e6"/>
      <path id="パス_4853" data-name="パス 4853" d="M1138.3,607.926c0,.016.01.029.018.032a.509.509,0,0,1-.019-.1c0,.011,0,.017,0,.031S1138.3,607.915,1138.3,607.926Z" transform="translate(-1107.573 -574.577)" fill="#64c8e6"/>
      <path id="パス_4854" data-name="パス 4854" d="M1125.476,608.552c0-.1.007-.2,0-.3a2.181,2.181,0,0,0-1.707-2.1l-.035,0a1.656,1.656,0,0,0-.418-.058h-1.607v-3.179a7.011,7.011,0,0,0,2.582-5.68,7.008,7.008,0,0,0-13.982-.391,7.017,7.017,0,0,0,2.855,6.322c-.011,3.065-.062,6.136,0,9.2a2.242,2.242,0,0,0,1.179,2.022,2.716,2.716,0,0,0,1.329.249h6.23a5.113,5.113,0,0,0,2.5-.3c1.4-.793,1.07-2.763,1.07-4.118Zm-10.4-8.2a5.5,5.5,0,0,1-.578-.557c-.034-.039-.067-.079-.1-.119l0-.009c-.078-.135-.174-.26-.252-.4s-.131-.254-.2-.381c-.03-.088-.064-.175-.091-.264q-.072-.229-.123-.465c-.014-.066-.024-.148-.03-.2-.014-.312-.01-.618-.008-.931v-.007c.006-.039.013-.078.021-.118.029-.146.064-.291.106-.434.017-.059.039-.17.068-.266l.021-.037c.051-.089.089-.19.137-.281q.087-.165.185-.324l.141-.224c-.1.159.14-.167.188-.221q.167-.183.35-.35c.053-.048.379-.287.22-.188l.224-.141q.159-.1.324-.185c.074-.039.149-.074.224-.111.169-.084.063-.056-.014-.009a2.793,2.793,0,0,1,.807-.211l.118-.021h.007c.176,0,.351-.021.528-.019.031,0,.28.01.4.019l.122.021c.146.029.291.065.434.106q.091.026.182.056l.1.031c-.056-.012.234.1.3.139.129.067.254.14.377.218.055.035.214.154.243.171.065.055.132.109.195.168.105.1.207.2.3.307.059.064.284.374.186.216l.144.229c.087.141.168.287.241.436.017.034.033.069.049.1l0,.008c.034.121.083.239.118.36q.062.215.106.434c0,.013.009.053.016.1,0-.031.006-.028.009.062a.535.535,0,0,0,.019.1c-.008,0-.013-.016-.018-.032.007.277,0,.547-.012.822-.006.046-.018.145-.034.217a5.233,5.233,0,0,1-.146.534c-.021.064-.045.126-.068.188-.07.132-.132.268-.207.4s-.171.258-.251.39c-.053.063-.106.126-.161.187-.106.115-.217.227-.333.333-.087.079-.239.2-.152.135-.552.394-1.08.744-1.18,1.486a11.279,11.279,0,0,0-.031,1.5v4.471a1.728,1.728,0,0,0,1.7,1.7h2.064v1.731h-5.5v-9a1.7,1.7,0,0,0-.844-1.47c-.139-.073-.275-.149-.408-.233C1115.253,600.475,1115.111,600.372,1115.078,600.351Zm-1.116-4.3s-.038.076-.064.127A.344.344,0,0,1,1113.961,596.053Zm3.849-2.143a.22.22,0,0,1-.048-.005A.227.227,0,0,1,1117.81,593.911Z" transform="translate(-1090.151 -563.781)" fill="#323232"/>
      <path id="パス_4855" data-name="パス 4855" d="M1138.284,607.825c0-.011,0-.021,0-.033s0-.02,0-.031-.006-.04-.009-.062A.463.463,0,0,0,1138.284,607.825Z" transform="translate(-1107.557 -574.476)" fill="#323232"/>
    </g>
    <g id="グループ_9381" data-name="グループ 9381" transform="translate(92.858 87.111) rotate(-53)">
      <g id="グループ_9320" data-name="グループ 9320">
        <g id="グループ_9303" data-name="グループ 9303" transform="translate(10.183 0)">
          <path id="パス_4662" data-name="パス 4662" d="M0,1.006V7.858a1.042,1.042,0,0,0,2.082,0V1.006A1.042,1.042,0,0,0,0,1.006Z" fill="#c42d2d"/>
        </g>
        <g id="グループ_9304" data-name="グループ 9304" transform="translate(16.931 2.853)">
          <path id="パス_4663" data-name="パス 4663" d="M3.574.505.148,6.44a1.042,1.042,0,0,0,1.8,1.051L5.372,1.556A1.042,1.042,0,0,0,3.574.505Z" fill="#c42d2d"/>
        </g>
        <g id="グループ_9305" data-name="グループ 9305" transform="translate(0 2.853)">
          <path id="パス_4664" data-name="パス 4664" d="M.148,1.556,3.574,7.49a1.042,1.042,0,0,0,1.8-1.051L1.946.5a1.042,1.042,0,0,0-1.8,1.051Z" fill="#c42d2d"/>
        </g>
      </g>
    </g>
    <path id="パス_5523" data-name="パス 5523" d="M-68.448-12.32h-9.89q-.019.891-.13,2.672h8.591q-.019.835-.056,1.169-.2,4.323-.5,6.3A5.774,5.774,0,0,1-71.287.464a2.772,2.772,0,0,1-.965.751,4.491,4.491,0,0,1-1.28.325,22.871,22.871,0,0,1-3.321.056,5.348,5.348,0,0,0-.983-2.709Q-76.557-1-74.72-1a1.377,1.377,0,0,0,.909-.278q.668-.612.928-5.715h-5.9a15.694,15.694,0,0,1-1.744,5.019,10.547,10.547,0,0,1-3.655,3.72A7.1,7.1,0,0,0-85.064.52,7.029,7.029,0,0,0-86.187-.538,9.536,9.536,0,0,0-84.461-1.8,8.787,8.787,0,0,0-83.2-3.229a7.825,7.825,0,0,0,.854-1.633A13.6,13.6,0,0,0-81.8-6.578a14.5,14.5,0,0,0,.306-1.855q.111-1.048.148-1.865t.074-1.893v-.13h-4.045v-2.69h16.866ZM-62.2-9.444h8.572a20.2,20.2,0,0,1-4.342-4.193A19.423,19.423,0,0,1-62.2-9.444Zm5.715,6.55v1.837h6.791V1.392H-65.943V-1.058h6.531V-2.895h-5.01V-5.27h5.01V-7.032H-63.4V-8.591a21.171,21.171,0,0,1-2.041,1.225,9.467,9.467,0,0,0-.789-1.16,9.962,9.962,0,0,0-.956-1.085,18.984,18.984,0,0,0,4.472-3.034,16.573,16.573,0,0,0,3.191-3.7h2.895a19.119,19.119,0,0,0,3.674,3.934,16.145,16.145,0,0,0,4.416,2.579,14.1,14.1,0,0,0-1.818,2.486q-.928-.5-2-1.206v1.521H-56.48V-5.27h5.065v2.375Zm12.9-.575q.427.019.714-.724a9.192,9.192,0,0,0,.464-1.9q.176-1.16.26-2.421t.065-2.3A2.724,2.724,0,0,0-43.446-9.76a5.963,5.963,0,0,0-.835,1.753,7.653,7.653,0,0,0-.325,1.828,4.688,4.688,0,0,0,.241,2.032Q-44.067-3.507-43.585-3.47ZM-36.979-7.2a5.219,5.219,0,0,0-.649-2.477,2.415,2.415,0,0,0-1.818-1.2q-.056,1.8-.232,3.637a15.04,15.04,0,0,1-.7,3.377,7.34,7.34,0,0,1-1.3,2.449,2.375,2.375,0,0,1-1.967.872A3.186,3.186,0,0,1-45.3-1.1a4,4,0,0,1-1.336-1.753A8.474,8.474,0,0,1-47.2-6.179a8.987,8.987,0,0,1,.835-3.739,7.31,7.31,0,0,1,2.134-2.709,5.792,5.792,0,0,1,3.024-1.2,7.077,7.077,0,0,1,3.349.529,5.517,5.517,0,0,1,2.514,2.236,8.224,8.224,0,0,1,1.095,4.026,9.464,9.464,0,0,1-.547,3.6,6.038,6.038,0,0,1-1.521,2.347A5.813,5.813,0,0,1-38.353.13a6.29,6.29,0,0,1-2,.371V-2.282a3.067,3.067,0,0,0,2.486-1.29A5.989,5.989,0,0,0-36.979-7.2Zm5.028-1.874v-2.857L-29.78-12v-2.6H-27v2.5l7.719-.26v2.876H-19.3a6.724,6.724,0,0,1-1.54,2.9A11.078,11.078,0,0,1-22.961-4.75a10.261,10.261,0,0,1-1.781.946q-.733.278-.77.278V-6.457a1.683,1.683,0,0,0,.427-.148,7.119,7.119,0,0,0,.983-.52,4.381,4.381,0,0,0,1.048-.909,4.439,4.439,0,0,0,.77-1.373L-27-9.222q-.056,1.726-.046,3.015T-27-3.915a3.659,3.659,0,0,0,.186.854,1.047,1.047,0,0,0,.492.557,3.174,3.174,0,0,0,1.308.241q.909.019,1.855-.009t1.763-.083q.816-.056,1.317-.111t.52-.056V.464L-20.4.51q-.826.046-2.069.074T-25.309.575a5.443,5.443,0,0,1-3.136-.881,3.862,3.862,0,0,1-1.262-3q-.037-1.466-.065-2.792T-29.8-9.129Zm14.714-.148v-2.839h4.36l-.167-2.523h2.969l.186,2.523h5.084v2.839H-9.7l.167,2.486h4.731v2.913H-9.314L-8.98.965h-2.987L-12.3-3.822h-4.936V-6.735h4.731l-.167-2.486Zm14.788.408v-2.468H6.346l-.594,9H7.7V.26H-2.987V-2.282H3.154l.408-6.531Zm12.784,3.08v-8.7h2.876v8.7Zm2.672,3.8a8.67,8.67,0,0,0,1.67-.547A4.529,4.529,0,0,0,16-3.433,5.779,5.779,0,0,0,17.1-5.093a6.289,6.289,0,0,0,.492-2.551v-6.791h2.876v6.791A9.853,9.853,0,0,1,19.724-3.7a7.2,7.2,0,0,1-1.911,2.625A8.674,8.674,0,0,1,15.558.362a12.148,12.148,0,0,1-1.791.6q-.724.167-.761.167Zm10.316-4.4V-9.166h12.1v2.839H31.562a7.37,7.37,0,0,1-.946,3.3A6.316,6.316,0,0,1,28.639-.946,9.794,9.794,0,0,1,26.375.167a11.21,11.21,0,0,1-1.8.455,5.12,5.12,0,0,1-.733.083V-2.282a4.731,4.731,0,0,0,.705-.083,7.3,7.3,0,0,0,1.624-.482,3.889,3.889,0,0,0,1.6-1.206,4.174,4.174,0,0,0,.789-2.273Zm.52-4.787v-2.839H34.92v2.839Zm24.084-.705a13.552,13.552,0,0,1-1.6,2.588q-.956,1.215-1.753,2.106V1.169H42.082V-5.2a14.461,14.461,0,0,1-2.329,1.549,14.37,14.37,0,0,1-1.791.816l-.668.232V-5.14l.789-.325A15.525,15.525,0,0,0,40.1-6.531a14.186,14.186,0,0,0,2.551-2.05,15.131,15.131,0,0,0,2.44-3.238ZM61.694-3.674h1.763a29.869,29.869,0,0,1-1.763-4.008Zm-4.416,0h1.707V-7.4A26.682,26.682,0,0,1,57.278-3.674Zm9.426-6.81H62.938a23.713,23.713,0,0,0,1.93,4.138,16.8,16.8,0,0,0,2.449,3.284,9.29,9.29,0,0,0-1.1.993,8.025,8.025,0,0,0-.956,1.16,16.038,16.038,0,0,1-1.3-1.893v1.577H61.694V1.651H58.985V-1.225H56.852V-2.95a13.784,13.784,0,0,1-1.559,2.1A10.335,10.335,0,0,0,53.456-2.82v4.6H50.84V-7.478q-.371.5-.909,1.113a16.05,16.05,0,0,0-.668-1.494,11.877,11.877,0,0,0-.8-1.419,15.746,15.746,0,0,0,2.171-3.089,21.562,21.562,0,0,0,1.651-3.794l2.6.8a34.5,34.5,0,0,1-1.429,3.451V-3.1a14.971,14.971,0,0,0,2.458-3.247,24.119,24.119,0,0,0,1.9-4.138h-3.34v-2.635h4.509v-3.006h2.709v3.006H66.7Zm3.377.241h2.078v-1.095h-1.6Q70.452-11.021,70.081-10.242Zm5.826,5.993H74.775v2.356q.353.019.909.019a.2.2,0,0,0,.223-.223Zm-1.132-7.088v1.095H78.69v2.486H74.775V-6.7h3.6v4.657a4.218,4.218,0,0,1-.158,1.29,1.5,1.5,0,0,1-.584.77,4.152,4.152,0,0,1-2.227.408,7.887,7.887,0,0,0-.631-2.282V1.781H72.159v-6.03H71.12V.3H68.671v-7h3.488V-7.756H68v-2.486h1.5a16.579,16.579,0,0,0-1.93-.779,13.954,13.954,0,0,0,1.651-4.917l2.542.52q-.148.724-.39,1.6h.779v-2.264h2.616v2.264h3.173v2.486Zm7.032-3.433V-3.9H79.247V-14.77Zm.872-1.076h2.653V-1.3A4.606,4.606,0,0,1,85.1.343a1.935,1.935,0,0,1-.789.937A7.642,7.642,0,0,1,80.9,1.8a10.706,10.706,0,0,0-.816-2.746q.909.037,2.189.037a.361.361,0,0,0,.408-.408Z" transform="translate(133.676 225)"/>
  </g>
</svg>
