<svg xmlns="http://www.w3.org/2000/svg" width="310" height="224" viewBox="0 0 310 224">
  <g id="グループ_9389" data-name="グループ 9389" transform="translate(-4.5 -33.913)">
    <rect id="長方形_23155" data-name="長方形 23155" width="310" height="224" transform="translate(4.5 33.913)" fill="#ffda2b"/>
    <ellipse id="楕円形_11" data-name="楕円形 11" cx="50.673" cy="50.673" rx="50.673" ry="50.673" transform="translate(84.568 54.012)" fill="#fff"/>
    <g id="グループ_53" data-name="グループ 53" transform="translate(121.481 51.012)">
      <g id="グループ_51" data-name="グループ 51" transform="translate(0 21.655)">
        <path id="パス_448" data-name="パス 448" d="M310.475,590.03a.925.925,0,0,0,.449.658c-.18-.457-.367-.929-.528-1.4A4.757,4.757,0,0,0,310.475,590.03Z" transform="translate(-300.067 -557.033)" fill="#fff"/>
        <path id="パス_449" data-name="パス 449" d="M274.041,538.909a21.481,21.481,0,0,1,.188-3.19c-.79-.549-2.245-.815-2.628.261-.412,1.157-.127,2.741-.079,3.956.032.8-.2,2.647.626,3.14.521.311,1.893.067,1.873-.7,0,0,0-.007,0-.011A16.835,16.835,0,0,1,274.041,538.909Z" transform="translate(-265.538 -509.203)" fill="#fff"/>
        <path id="パス_450" data-name="パス 450" d="M241.359,549.105a23.029,23.029,0,0,1-.108-4.278c-.7-.151-1.316-.062-1.577.793a13.658,13.658,0,0,0-.133,4.031c.01.524-.165,1.482.314,1.8.409.275,1.6.3,1.628-.37a1.062,1.062,0,0,1,.041-.254A14.2,14.2,0,0,1,241.359,549.105Z" transform="translate(-237.285 -517.635)" fill="#fff"/>
        <path id="パス_451" data-name="パス 451" d="M320.215,438.3c.025-3.382.094-6.764.147-10.146.024-1.568-.015-3.146.054-4.712.029-.652.116-1.3.091-1.952-.021-.555-.043-1.5-.733-1.573-1-.109-1.223,1.241-1.327,1.96a38.531,38.531,0,0,0-.181,3.956c-.053,1.32-.133,2.639-.225,3.957q-.165,2.364-.38,4.724a1.015,1.015,0,0,1-1.9.4.977.977,0,0,1-.167-.265c-.486-1.114-.766-2.2-2.246-1.994a1.492,1.492,0,0,0-1.434,1.414c-.056.435-.087.875-.107,1.316.66-.78,2.092-1.4,2.992-.931a6.321,6.321,0,0,1,2.163,2.443c1.354,2.248,2.109,4.856,3.6,7.015a.935.935,0,0,1,.164.4c.109-1,.166-2.012.19-3.026a.946.946,0,0,1,1.015-.937c-.039-.438-.082-.874-.122-1.311A.978.978,0,0,1,320.215,438.3Z" transform="translate(-301.315 -407.141)" fill="#fff"/>
        <path id="パス_452" data-name="パス 452" d="M260.98,799.765a1.126,1.126,0,0,0-.3.492.832.832,0,0,1,.252.124A1.1,1.1,0,0,1,260.98,799.765Z" transform="translate(-256.066 -743.308)" fill="#ffdc00"/>
        <path id="パス_453" data-name="パス 453" d="M278.557,763.355a16.485,16.485,0,0,0,7.044-.346,18.012,18.012,0,0,0,5.286-2.107.944.944,0,0,1-.371-.514l-.443-1.407a15.542,15.542,0,0,1-5.771,2.205,18.549,18.549,0,0,1-6.239.253Z" transform="translate(-271.452 -707.213)" fill="#fff"/>
        <g id="グループ_9318" data-name="グループ 9318" transform="translate(-4.123 0)">
          <path id="パス_454" data-name="パス 454" d="M325.691,315.193q.272-2.584.544-5.168c.169-1.6-2.341-1.591-2.508,0l-.544,5.168C323.014,316.8,325.524,316.784,325.691,315.193Z" transform="translate(-307.944 -308.826)" fill="#c42d2d"/>
          <path id="パス_455" data-name="パス 455" d="M267.9,319.9c.722,1.444,2.886.175,2.166-1.266l-2.992-5.985c-.722-1.444-2.886-.175-2.166,1.266Z" transform="translate(-258.207 -311.538)" fill="#c42d2d"/>
          <path id="パス_456" data-name="パス 456" d="M221.2,364.008l4.624,2.448c1.426.755,2.695-1.409,1.266-2.166l-4.624-2.448C221.04,361.087,219.771,363.251,221.2,364.008Z" transform="translate(-220.573 -353.838)" fill="#c42d2d"/>
        </g>
        <path id="パス_457" data-name="パス 457" d="M243.806,426.323a.89.89,0,0,0-.928-.937c.071.79.129,1.586.129,2.411,0-.825-.058-1.621-.129-2.411a.946.946,0,0,0-1.015.937c-.024,1.014-.08,2.023-.19,3.026a.934.934,0,0,0-.164-.4c-1.495-2.159-2.25-4.767-3.6-7.015a6.321,6.321,0,0,0-2.163-2.443c-.9-.469-2.332.152-2.992.931.02-.441.05-.882.107-1.316a1.492,1.492,0,0,1,1.434-1.414c1.48-.21,1.76.88,2.246,1.994a.972.972,0,0,0,.167.265,1.015,1.015,0,0,0,1.9-.4q.219-2.359.38-4.724c.092-1.318.172-2.637.225-3.957a38.529,38.529,0,0,1,.181-3.956c.1-.719.324-2.069,1.327-1.96.69.075.712,1.018.733,1.573.025.655-.062,1.3-.091,1.952-.069,1.566-.03,3.144-.054,4.712-.052,3.382-.122,6.763-.147,10.146a.978.978,0,0,0,1.6.733c-.075-.817-.137-1.641-.137-2.5,0,.855.062,1.678.137,2.5a.9.9,0,0,0,.346-.733c.026-3.483.1-6.964.151-10.447.023-1.542-.034-3.1.066-4.643a11.3,11.3,0,0,0-.038-2.784,2.828,2.828,0,0,0-1.7-2.311,2.926,2.926,0,0,0-3.092.826,6.3,6.3,0,0,0-1.12,3.751c-.109,1.54-.09,3.091-.173,4.634q-.111,2.061-.274,4.12a2.506,2.506,0,0,0-.663-.438,4.274,4.274,0,0,0-3.81.3,2.918,2.918,0,0,0-.7.579c-1.554-.884-3.762-.994-4.867.592l-.009.015c-1.512-.377-3.124-.081-3.86,1.471-.81,1.706-.48,3.978-.428,5.825a3.791,3.791,0,0,0,.394,2.034,2.437,2.437,0,0,0,.757.742,4.953,4.953,0,0,1,.227-.776,4.953,4.953,0,0,0-.227.776,3.362,3.362,0,0,0,3.762-.153,2.709,2.709,0,0,0,1.274.61,3.685,3.685,0,0,0,3-.774,2.781,2.781,0,0,0,.444.294,3,3,0,0,0,1.583.318,1.412,1.412,0,0,1-.19,1.371,5.737,5.737,0,0,1-.909.473,6.829,6.829,0,0,0-.968.713,5.812,5.812,0,0,0-1.774,2.994,8.574,8.574,0,0,0,.334,4.889c.443,1.156,2.323.654,1.874-.517-.058-.15-.108-.3-.154-.458a7.494,7.494,0,0,1-.312-2.225,4.74,4.74,0,0,1,.509-2.2A5.01,5.01,0,0,1,234.49,431c2.1-1.186,1.2-3.851.563-5.636a13.253,13.253,0,0,1-.9-2.981c-.073-.722.266-.935.824-1.062,1.184.87,1.869,2.668,2.465,3.907a33.951,33.951,0,0,0,2.388,4.706,1.093,1.093,0,0,0,.132.157,1.053,1.053,0,0,0,1.663-.349,21.256,21.256,0,0,1-.569,2.959,29.862,29.862,0,0,1-2.48,5.956c-.578,1.107,1.1,2.09,1.678.981.063-.12.124-.242.187-.363a9.572,9.572,0,0,0-.35-1.18,9.572,9.572,0,0,1,.35,1.18,31.2,31.2,0,0,0,2.489-6.058A28.81,28.81,0,0,0,243.806,426.323Zm-17.349-.694c-.027.667-1.219.645-1.628.37-.479-.322-.3-1.28-.314-1.8a13.663,13.663,0,0,1,.133-4.031c.262-.854.875-.943,1.577-.793a23.034,23.034,0,0,0,.108,4.278,14.228,14.228,0,0,0,.166,1.726A1.061,1.061,0,0,0,226.457,425.629Zm4.3-3.744a16.837,16.837,0,0,0-.02,3.46s0,.007,0,.011c.02.762-1.353,1.006-1.873.7-.827-.493-.594-2.341-.626-3.14-.048-1.214-.333-2.8.079-3.956.383-1.076,1.838-.811,2.628-.261A21.487,21.487,0,0,0,230.761,421.885Zm1.906,3.291a4.755,4.755,0,0,1-.079-.745c.161.474.348.945.528,1.4A.925.925,0,0,1,232.667,425.176Z" transform="translate(-222.259 -392.178)" fill="#323232"/>
        <path id="パス_458" data-name="パス 458" d="M250,573.625a21.254,21.254,0,0,0,.569-2.959,1.053,1.053,0,0,1-1.663.349,1.094,1.094,0,0,1-.132-.157,33.944,33.944,0,0,1-2.388-4.706c-.6-1.239-1.282-3.037-2.465-3.907-.558.127-.9.34-.824,1.062a13.252,13.252,0,0,0,.9,2.981c.636,1.785,1.542,4.45-.563,5.636a5.01,5.01,0,0,0-2.277,1.94,4.739,4.739,0,0,0-.509,2.2,7.493,7.493,0,0,0,.312,2.225c.047.155.1.308.154.458.449,1.17-1.43,1.672-1.874.517a8.573,8.573,0,0,1-.334-4.889,5.812,5.812,0,0,1,1.774-2.994,6.839,6.839,0,0,1,.968-.713,5.743,5.743,0,0,0,.908-.473,1.412,1.412,0,0,0,.19-1.37,3,3,0,0,1-1.583-.318,2.778,2.778,0,0,1-.444-.294,3.685,3.685,0,0,1-3,.774,2.71,2.71,0,0,1-1.274-.61,3.362,3.362,0,0,1-3.762.153c-.037.167-.069.338-.1.511a1,1,0,0,1,.85,1.2c-.717,3.4-.235,7.478,2.541,9.86.453.388.785.588.938,1.156.117.434.2.883.3,1.321l.509,2.276a.992.992,0,0,1-.008.488,15.6,15.6,0,0,0,5.827-.136,12.167,12.167,0,0,0,6.1-2.656,1.032,1.032,0,0,1,.206-.151c-.175-.7-.283-1.444-.46-2.194-.062.121-.124.242-.187.363-.58,1.11-2.256.126-1.678-.981A29.861,29.861,0,0,0,250,573.625Z" transform="translate(-231.198 -533.102)" fill="#fff"/>
        <path id="パス_459" data-name="パス 459" d="M411.6,786.566a5.144,5.144,0,0,0,.5,2.005,5.144,5.144,0,0,1-.5-2.005,1,1,0,0,0-1.322,1.154c.926,3.69,1.8,7.428,3.01,11.038.394,1.18,2.271.674,1.874-.516-.315-.944-.607-1.9-.884-2.854-.326.606-.661,1.2-1.016,1.732.355-.533.69-1.127,1.016-1.732-.783-2.707-1.443-5.459-2.126-8.184A.862.862,0,0,0,411.6,786.566Z" transform="translate(-388.432 -731.579)" fill="#323232"/>
        <path id="パス_460" data-name="パス 460" d="M250.907,675.1c-1.806,2.72-4.448,5.345-7.851,5.735a9.521,9.521,0,0,1-8.3-3.763c-1.924-2.56-2.813-5.839-3.544-8.905-.845-3.539-1.468-7.131-2.189-10.7q-1.484-7.336-3.19-14.624l0-.006a1.009,1.009,0,0,0,.325.16,20.062,20.062,0,0,0,16.535-3.616.812.812,0,0,0,.3-.782,1.784,1.784,0,0,0-.643-.254,1.784,1.784,0,0,1,.643.254,1.056,1.056,0,0,0-1.439-.748l-.862-2.741a.983.983,0,0,0-1.418-.58,7.107,7.107,0,0,0,.356,1.094,7.107,7.107,0,0,1-.356-1.094,1.027,1.027,0,0,0-.206.151,12.166,12.166,0,0,1-6.1,2.656,15.6,15.6,0,0,1-5.827.136.993.993,0,0,0,.008-.488l-.509-2.276c-.1-.439-.179-.887-.3-1.322-.153-.568-.485-.768-.938-1.156-2.776-2.382-3.258-6.463-2.541-9.86a1,1,0,0,0-.85-1.2,10.623,10.623,0,0,1-.451,2.016,10.623,10.623,0,0,0,.451-2.016.84.84,0,0,0-1.023.682c-.935,4.43-.063,9.155,3.491,12.1l.783,3.5a1,1,0,0,0-.293.973l.76,2.948a1.05,1.05,0,0,0-.185.314,1.1,1.1,0,0,1,.485-.242.591.591,0,0,0-.535.858.829.829,0,0,0-.252-.124c-.068.2-.113.411-.185.626.072-.215.117-.43.185-.626a1.007,1.007,0,0,0-1.286,1.171q1.674,7.1,3.116,14.257c.8,3.965,1.474,7.972,2.468,11.9.828,3.265,1.924,6.686,4.134,9.3a11.4,11.4,0,0,0,9.253,3.975c4.2-.377,7.416-3.341,9.652-6.71a.86.86,0,0,0-.342-1.283q-.465.918-.948,1.829.483-.911.948-1.829A.981.981,0,0,0,250.907,675.1Zm-17.42-35.884a15.541,15.541,0,0,0,5.771-2.205l.443,1.407a.943.943,0,0,0,.371.514,18.018,18.018,0,0,1-5.286,2.108,16.489,16.489,0,0,1-7.044.346l-.494-1.917A18.546,18.546,0,0,0,233.488,639.217Z" transform="translate(-220.637 -585.244)" fill="#323232"/>
      </g>
      <g id="グループ_52" data-name="グループ 52" transform="translate(5.198 0)">
        <path id="パス_461" data-name="パス 461" d="M305.7,611.109a17.155,17.155,0,0,0-3.1,1.049,18.326,18.326,0,0,0-4.166,2.2,8.344,8.344,0,0,0-2.076,3.014,65.718,65.718,0,0,0-2.578,7.485q-1.741,5.266-3.561,10.506-.177.047-.353.1c-1.349.45-2.351,2.634-3.453,4.68.277.958.569,1.911.884,2.854.4,1.191-1.48,1.7-1.874.516-1.205-3.61-2.085-7.348-3.01-11.038a1,1,0,0,1,1.322-1.154,2.193,2.193,0,0,0-.8-1.627.812.812,0,0,1-.3.782,20.063,20.063,0,0,1-16.536,3.616,1.008,1.008,0,0,1-.325-.16l0,.006q1.717,7.285,3.19,14.624c.721,3.565,1.345,7.158,2.189,10.7.732,3.066,1.621,6.345,3.544,8.905a9.521,9.521,0,0,0,8.3,3.763c3.4-.391,6.046-3.015,7.851-5.735a.981.981,0,0,1,1.336-.3c4.551-8.981,7.849-18.44,11.487-27.9a1.224,1.224,0,0,0-.583-1.554,41.364,41.364,0,0,0-8.327-1.476c0-.914-.032-1.829-.021-2.73.018-1.429-.084-3.26.643-4.553.621-1.106,2.151-1.313,3.279-1.572.379-.087.76-.168,1.141-.246a1.063,1.063,0,0,1-.249-.96.918.918,0,0,1-.388-1.313l3.363-5.708a8.4,8.4,0,0,1-1.666-.254.98.98,0,0,1-.429-1.624c1.4-1.366,2.935-2.586,4.371-3.915.346-.32.675-.652,1-.99Z" transform="translate(-265.77 -554.675)" fill="#fff"/>
        <path id="パス_462" data-name="パス 462" d="M674.444,692.935l.013-.01C674.447,692.927,674.441,692.93,674.444,692.935Z" transform="translate(-627.447 -626.232)" fill="#ffd075"/>
        <path id="パス_463" data-name="パス 463" d="M681.947,693.88s-.009-.009-.026-.015C681.932,693.889,681.944,693.882,681.947,693.88Z" transform="translate(-634.064 -627.065)" fill="#ffd075"/>
        <path id="パス_464" data-name="パス 464" d="M724.348,1160.3c-.868-2.012-1.7-4.042-2.409-6.115a29.792,29.792,0,0,1-1.674-6.935l-.955.3c.065,4.409,1.5,8.754,3.09,12.857a2.394,2.394,0,0,1,.638.073,2.394,2.394,0,0,0-.638-.073q.085.22.171.44Z" transform="translate(-667.154 -1029.176)" fill="#fff"/>
        <path id="パス_465" data-name="パス 465" d="M471.282,738.117l-2.3-3.562c-.2-.31-.481-1-.777-.945-.174.031-.456.338-.594.44l-1.261.933-4.127,3.054-4.431,3.279a4.548,4.548,0,0,1,.879,1.808c.137,1.263-1.148,1.854-2.029,2.449l-4.306,2.909-6.865,4.638a.929.929,0,0,1-.424.162c-.937.273-1.523-.348-1.992-1.062l-2.485,1.839c.013.042.028.084.04.126-.012-.043-.027-.084-.04-.126l-1.785,1.321-3.646,2.7a9.58,9.58,0,0,0-.933.69c-.25.239-.257.069-.141.374a5.461,5.461,0,0,0,.6.917l1.426,2.169,4.062,6.177,4.918,7.478c.023-.024.045-.049.069-.073,1.006-.978,2.545-1,3.854-1.107l5.565-.435a19.063,19.063,0,0,1,4.518-.108,4.83,4.83,0,0,1,3.39,2.393c.675,1.082,1.277,3.131,2.8,3.209a1.047,1.047,0,0,1,.316.064l2.124-.671c0-.006,0-.011,0-.017a1.009,1.009,0,0,1,.713-.937q11.769-4.03,23.536-8.064l-13.086-20.262Z" transform="translate(-414.648 -663.103)" fill="#ffdc00"/>
        <path id="パス_466" data-name="パス 466" d="M603.954,575.333c0-1.128.024-2.257.045-3.385-2.81.154-4.737,2.105-6.453,4.133a56.706,56.706,0,0,1-5.438,5.25c1.024.005,2.063-.124,3.062-.186l5.175-.323a.875.875,0,0,1,.568.144,48.135,48.135,0,0,1,3.056-5.452A1.077,1.077,0,0,1,603.954,575.333Z" transform="translate(-554.58 -519.043)" fill="#fff"/>
        <path id="パス_467" data-name="パス 467" d="M655.511,226.846a2.978,2.978,0,0,0-.867-1.074,1.666,1.666,0,0,0-2.245-.083c-.993.761-1.96-.928-.981-1.678a3.309,3.309,0,0,1,.655-.393,14.041,14.041,0,0,1-.906-1.274,16.4,16.4,0,0,1-5.116-4.106,24.872,24.872,0,0,1-4.633-6.645,1.023,1.023,0,0,1,.247-1.18,4.172,4.172,0,0,1-.709-1.154c-4.367,5.391-10.446,8.356-17.255,9.489a1,1,0,0,1-1.031-.458,4.3,4.3,0,0,0-.984.946.971.971,0,0,1,.607.839c.316,3.751.319,7.521.5,11.279.139,2.964.253,6.022,1.634,8.716a13.45,13.45,0,0,0,6.979,6.423c5.236,1.959,12.156-.958,14.348-6.1.49-1.148,2.163-.157,1.678.981a13.069,13.069,0,0,1-7.755,6.782,13.57,13.57,0,0,1-7.523.574c-.017,1.873-.073,3.746-.077,5.62a.976.976,0,0,1-1.927.181,48.119,48.119,0,0,0-3.056,5.452,1,1,0,0,1,.3,1.149c.2.787.415,1.571.663,2.344.074.231.211.5.33.772a19.42,19.42,0,0,0,4.123-6.844c.01-.032.022-.062.034-.092a.875.875,0,0,1,.472-.69c5.329-3.029,11-5.867,15.564-10.017a.932.932,0,0,1,.929-.219c.021-.188.049-.379.077-.572a.959.959,0,0,1-1.179-.922q-.051-3.078-.082-6.156a.966.966,0,0,1,1.475-.81,19.1,19.1,0,0,0,1.585-2.13c-1.222-.089-1.217-2,.024-1.941,2.308.119,3.859-1.881,4.339-3.96A4.675,4.675,0,0,0,655.511,226.846Zm-24.247,5a1,1,0,0,1,.687-.285l.452.009a1.027,1.027,0,0,1,.687.285.972.972,0,0,1,0,1.374,1,1,0,0,1-.687.285l-.452-.009a1.026,1.026,0,0,1-.687-.285.971.971,0,0,1,0-1.374Zm-3.164-6.8a.972.972,0,0,1,0-1.943A.972.972,0,0,1,628.1,225.044Zm8.984,14.345c-1.872,1.451-5.431,1.736-7.166-.121-.854-.913.518-2.29,1.374-1.374.947,1.013,3.362.939,4.418.121C636.687,237.258,638.071,238.624,637.084,239.388Zm2.322-13.945a.972.972,0,0,1,0-1.943A.972.972,0,0,1,639.406,225.443Z" transform="translate(-580.756 -197.352)" fill="#fff"/>
        <path id="パス_468" data-name="パス 468" d="M543.076,668.083c-.446.028-.894.062-1.342.09a.954.954,0,0,1-.141.492l-3.669,6.226a.919.919,0,0,1-1.29.333,1.063,1.063,0,0,0,.249.96q1.025-.21,2.056-.385c1.225-.207,1.747,1.666.516,1.874q-1.454.246-2.9.563a18.914,18.914,0,0,0-1.938.5c-.092.031-.316.116-.4.148a2.142,2.142,0,0,0-.131.239,15.334,15.334,0,0,0-.329,4.556c0,1.312.017,2.625-.095,3.932l6.044-4.084a.966.966,0,0,1-.063-.4,32.222,32.222,0,0,1,1.954-8.546c.578-1.757,1.2-3.5,1.889-5.22a1.024,1.024,0,0,1,1.045-.645,4.934,4.934,0,0,1,.494-.756Z" transform="translate(-502.856 -604.236)" fill="#fff"/>
        <path id="パス_469" data-name="パス 469" d="M633.95,509c.006.389.011.778.017,1.167a.879.879,0,0,1-.765.922c-.028.193-.056.384-.077.572a1.1,1.1,0,0,1,.379.21.879.879,0,0,1,.066,1.383c-4.039,3.669-8.875,6.355-13.634,9.015a4.654,4.654,0,0,1,2.529,1.781c1.3,1.91.421,4.276,1.288,6.286.491,1.137-1.184,2.126-1.678.981-.74-1.716-.412-3.478-.836-5.243-.4-1.673-1.938-2.1-3.444-2.293a21.722,21.722,0,0,1-2.588,4.728,11.446,11.446,0,0,1-2.79,3.29c-2,1.243-2.883-3.136-3.235-4.681l-2.634.164a4.933,4.933,0,0,0-.494.756.838.838,0,0,1,.829,1.162c-.66,1.644-1.257,3.316-1.815,5a35.535,35.535,0,0,0-1.888,7.323c.706-.524,1.569-1.22,2.418-1.074a1.559,1.559,0,0,1,.864.475l6.758-5,3.163-2.341c1.089-.806,2.388-1.156,3.348.2.886,1.249,1.707,2.554,2.524,3.858a105.68,105.68,0,0,1,12.592-25.45,1.069,1.069,0,0,1,.166-.186.976.976,0,0,1,.92-.211A7.739,7.739,0,0,0,633.95,509Z" transform="translate(-564.377 -463.372)" fill="#fff"/>
        <path id="パス_470" data-name="パス 470" d="M784.448,617.535c-.551-6.19-1.117-12.38-1.852-18.55-.984-8.258-2.6-16.407-3.65-24.652-.189-1.483-.351-2.986-.669-4.448a5.954,5.954,0,0,0-2.568-3.234c-3.25-2.381-7.174-3.525-10.626-5.539a.947.947,0,0,1-.368-.369.9.9,0,0,1-.338-.38c-.066-.13-.126-.263-.183-.4l-3.835-4.755a105.466,105.466,0,0,0-11.9,24.648.957.957,0,0,1-.419.533c.087.135.172.271.259.406l8.175,12.658,9.792,15.162c-.262-1.139-.564-2.277-.765-3.416a.772.772,0,0,1-.684-.694l-.357-2.149-2.441-14.7c-.2-1.225,1.669-1.747,1.874-.516l.357,2.149,2.441,14.7a1.066,1.066,0,0,1-1.19,1.211c.2,1.139.5,2.277.765,3.416l1.69,2.616a1.06,1.06,0,0,1,.241-.024,17.437,17.437,0,0,1,7.981,2.046c1.107.586.124,2.263-.981,1.678a15.275,15.275,0,0,0-7-1.781,1.017,1.017,0,0,1-.337-.06c-.022.01-.044.019-.066.028a.956.956,0,0,1-.667.9q-11.569,3.968-23.141,7.929a24.8,24.8,0,0,0,1.665,7.76c.955,2.783,2.126,5.483,3.318,8.171a1.091,1.091,0,0,1,.051.142c3.405-.826,6.8-1.685,10.18-2.619,5.464-1.513,10.856-3.255,16.216-5.1,2.215-.761,4.867-1.3,6.656-2.921,1.86-1.682,2.346-4.116,2.3-6.532a.874.874,0,0,1,.721-.913V618.39A.98.98,0,0,1,784.448,617.535Zm-29.59-37.912a8.636,8.636,0,0,1,2.735,2.608c1.39,2.6-.3,5.286-.513,7.921-.1,1.24-2.042,1.247-1.943,0a23.228,23.228,0,0,1,.8-3.765,4.727,4.727,0,0,0-.023-3.175c-.54-1.077-1.868-1.785-2.8-2.48l-3.214-2.389c-.993-.738-.023-2.424.981-1.678l1.065.792a4.428,4.428,0,0,1,3.123-1.228,2.151,2.151,0,0,0,2.191-1.456,18.405,18.405,0,0,0,.918-2.774c.972-3.8,1.031-7.726,2.512-11.4.463-1.147,2.341-.643,1.874.517-1.481,3.674-1.54,7.6-2.512,11.4-.408,1.595-.928,3.87-2.327,4.9a4.561,4.561,0,0,1-2.344.726c-.489.049-1.479.024-1.916.441Zm15.434-11.557c-5.191.875-7.694,5.529-7.884,10.457-.048,1.248-1.991,1.25-1.943,0,.221-5.717,3.264-11.311,9.311-12.33C771,565.985,771.522,567.858,770.292,568.065Z" transform="translate(-688.991 -505.22)" fill="#fff"/>
        <path id="パス_471" data-name="パス 471" d="M556.968,1106.288c-.746-.941-1.107-2.137-1.876-3.054-.861-1.025-2.168-1.043-3.4-.974-1.438.08-2.874.22-4.31.332-1.484.116-2.97.213-4.452.348-.949.087-2.632.443-1.675,1.719.751,1,2.321.858,3.428.863a7.336,7.336,0,0,1,3.591.734,1.064,1.064,0,0,1,.106.066l.966-.489c1.114-.564,2.1,1.113.981,1.678l-5.7,2.883c-1.114.564-2.1-1.113-.981-1.678l2.355-1.192c-1.01-.153-2.091-.028-3.1-.125a.876.876,0,0,1-.416,1.111,1.785,1.785,0,0,0-.961,2.04,1.938,1.938,0,0,0,1.571,1.277,1.9,1.9,0,0,1,1.481,1.137c.295.846-.5,1.417-.372,2.181.115.668.728,1.182.885,1.852a3.933,3.933,0,0,1-.056,1.636,8.344,8.344,0,0,0-.243.9,3.991,3.991,0,0,0,.435,1.6c.668,1.648,2,2.151,3.713,2.214,3.8.14,7.5-1.276,11.088-2.335a.949.949,0,0,1,1.189,1.1,15.288,15.288,0,0,0,1.529-.9c-1.648-4.25-3.116-8.75-3.21-13.322A4.057,4.057,0,0,1,556.968,1106.288Z" transform="translate(-509.319 -989.34)" fill="#fff"/>
        <path id="パス_472" data-name="パス 472" d="M899.2,442.283c-.412-4.67-4.118-8.982-9.065-8.694a.912.912,0,0,1-.859-1.321c-.059-.031-.116-.063-.172-.1a5.294,5.294,0,0,1-2.483.892,7.535,7.535,0,0,0,.91.891.973.973,0,0,1,1.251.051c2.246,1.976,2.816,5.015,2.847,7.873.018,1.665-.06,3.325,0,4.99a9.964,9.964,0,0,0,.478,3.213l.388.481a1.079,1.079,0,0,1,.1.156c1.482.836,3.063,1.529,4.634,2.24a10.3,10.3,0,0,1,.675-3.445A16.924,16.924,0,0,0,899.2,442.283Z" transform="translate(-815.222 -395.975)" fill="#ffdc00"/>
        <path id="パス_473" data-name="パス 473" d="M610.485,142.332a4.3,4.3,0,0,1,.984-.946.866.866,0,0,1,.515-1.416c6.46-1.075,12.41-3.8,16.483-9.088.753-.978,2.44-.009,1.678.981q-.192.249-.389.491a4.172,4.172,0,0,0,.709,1.154.843.843,0,0,1,1.431.2,23,23,0,0,0,4.144,6.05c1.344,1.48,3,3.318,4.944,4.009,1.172.417.664,2.294-.516,1.874-.169-.06-.336-.128-.5-.2a14.052,14.052,0,0,0,.906,1.274,3.347,3.347,0,0,1,2.562-.042c.145-.237.29-.473.434-.71a.914.914,0,0,1-.632-1.4c1.837-2.848,1.835-6.585,1.1-9.789a16.148,16.148,0,0,0-13.217-12.241c-5.931-.889-13.348,1.695-16.886,6.668a1.062,1.062,0,0,1-.227.235,18.48,18.48,0,0,0-2.205,3.836,12.532,12.532,0,0,0-1.344,4.527.985.985,0,0,1-1.248.91,6.592,6.592,0,0,0,.191,3.756A1.049,1.049,0,0,1,610.485,142.332Z" transform="translate(-569.556 -120.447)" fill="#ffdc00"/>
        <path id="パス_474" data-name="パス 474" d="M879.907,435.6l.024,0a5.316,5.316,0,0,0,.748-.016,4.445,4.445,0,0,1-.4-.563Q880.092,435.319,879.907,435.6Z" transform="translate(-809.282 -397.626)" fill="#323232"/>
        <path id="パス_475" data-name="パス 475" d="M878.273,333.588a4.756,4.756,0,0,0-2.126-1.615,13.147,13.147,0,0,0-.9,1.661,13.147,13.147,0,0,1,.9-1.661,3.347,3.347,0,0,0-2.562.042c.108.148.212.3.3.454-.093-.156-.2-.306-.3-.454a3.3,3.3,0,0,0-.655.393c-.979.75-.012,2.438.981,1.678a1.666,1.666,0,0,1,2.246.083,2.979,2.979,0,0,1,.866,1.074,4.675,4.675,0,0,1,.233,3.052c-.48,2.079-2.032,4.079-4.339,3.96-1.241-.064-1.245,1.852-.024,1.941q.185-.284.369-.577c-.052-.086-.1-.174-.148-.267.046.093.1.181.148.267l.046-.073-.046.073a4.44,4.44,0,0,0,.4.563,5.294,5.294,0,0,0,2.483-.891,3.425,3.425,0,0,1-.7-.522,3.425,3.425,0,0,0,.7.522,7.641,7.641,0,0,0,3.121-5.27A6.045,6.045,0,0,0,878.273,333.588Z" transform="translate(-802.267 -306.1)" fill="#323232"/>
        <path id="パス_476" data-name="パス 476" d="M854.776,457.582a12.62,12.62,0,0,1-1.3,1.3,12.62,12.62,0,0,0,1.3-1.3.966.966,0,0,0-1.475.81q.034,3.078.082,6.156a.959.959,0,0,0,1.178.922,5.849,5.849,0,0,0,.077-1.924,5.849,5.849,0,0,1-.077,1.924.879.879,0,0,0,.765-.922c-.006-.389-.011-.778-.017-1.167q-.136-.114-.282-.224.146.11.282.224-.037-2.495-.065-4.989A.893.893,0,0,0,854.776,457.582Z" transform="translate(-785.736 -417.535)" fill="#323232"/>
        <path id="パス_477" data-name="パス 477" d="M768.552,335.04a.972.972,0,0,0,0-1.943A.972.972,0,0,0,768.552,335.04Z" transform="translate(-709.902 -307.276)" fill="#323232"/>
        <path id="パス_478" data-name="パス 478" d="M670.237,331.567a.972.972,0,0,0,0-1.943A.972.972,0,0,0,670.237,331.567Z" transform="translate(-622.893 -304.198)" fill="#323232"/>
        <path id="パス_479" data-name="パス 479" d="M703.919,405.139a.972.972,0,0,0,.972-.971.982.982,0,0,0-.285-.687,1.027,1.027,0,0,0-.687-.285l-.452-.009a.972.972,0,0,0-.971.972.982.982,0,0,0,.285.687,1.026,1.026,0,0,0,.687.285Z" transform="translate(-652.272 -369.407)" fill="#323232"/>
        <path id="パス_480" data-name="パス 480" d="M863.813,532.341a1.1,1.1,0,0,0-.379-.21c-.008.075-.015.148-.021.221Z" transform="translate(-794.685 -483.701)" fill="#323232"/>
        <path id="パス_481" data-name="パス 481" d="M499.739,322.683l-.4.011c-.011.133-.02.264-.02.391,0-.127.008-.258.02-.391l-.214,0,.214,0c.006-.073.012-.147.021-.221a.932.932,0,0,0-.929.219c-4.568,4.151-10.236,6.989-15.564,10.017a.875.875,0,0,0-.472.69c-.012.029-.024.06-.034.092a19.423,19.423,0,0,1-4.123,6.844c-.119-.27-.256-.541-.33-.772-.247-.773-.466-1.556-.663-2.344a1,1,0,0,0-.3-1.149,8.833,8.833,0,0,0-.553,2.172,8.833,8.833,0,0,1,.553-2.172.877.877,0,0,0-.568-.144l-5.175.323c-1,.062-2.038.191-3.062.186a56.726,56.726,0,0,0,5.438-5.249c1.716-2.028,3.643-3.98,6.453-4.133-.021,1.128-.043,2.256-.045,3.385a1.09,1.09,0,0,0,.016.181c.166-.3.325-.611.472-.926-.147.315-.306.622-.472.926a.977.977,0,0,0,1.927-.181c0-1.874.06-3.746.077-5.62a13.571,13.571,0,0,0,7.523-.574,13.068,13.068,0,0,0,7.755-6.782c.485-1.137-1.188-2.129-1.678-.981-2.192,5.14-9.111,8.056-14.348,6.1a13.45,13.45,0,0,1-6.979-6.423c-1.381-2.695-1.495-5.752-1.634-8.716-.177-3.758-.18-7.528-.5-11.279a.971.971,0,0,0-.607-.84,2.7,2.7,0,0,0-.589,1.923,2.7,2.7,0,0,1,.589-1.923,1.049,1.049,0,0,0-1.087.136,3.758,3.758,0,0,0,.5.816,3.758,3.758,0,0,1-.5-.816.815.815,0,0,0-.249.7c.312,3.7.319,7.424.49,11.134.153,3.327.329,6.681,1.843,9.714a15.474,15.474,0,0,0,7.531,7.165c0,.311,0,.622-.008.933-3.1.153-5.441,1.918-7.41,4.183l-.536.619a.891.891,0,0,0-.77-.4,10.237,10.237,0,0,0-3.537.88c-2.663,1.018-5.619,2.222-7.27,4.653-1.553,2.286-2.315,5.07-3.118,7.682-1.051,3.421-2.24,6.8-3.4,10.187q-.95,2.763-1.923,5.518c-.307.862.611,1.365,1.292,1.117-.115-.295-.219-.6-.308-.9.088.308.193.608.308.9a.956.956,0,0,0,.582-.6c1.61-4.523,3.152-9.071,4.66-13.629a65.73,65.73,0,0,1,2.578-7.485,8.344,8.344,0,0,1,2.076-3.014,18.321,18.321,0,0,1,4.166-2.2,17.155,17.155,0,0,1,3.1-1.049l.095-.019c-.321.339-.651.67-1,.99-1.436,1.329-2.969,2.549-4.372,3.915a.98.98,0,0,0,.429,1.624,8.4,8.4,0,0,0,1.666.254L464,344.044a.918.918,0,0,0,.388,1.313,2.27,2.27,0,0,0-.044-1.286,2.27,2.27,0,0,1,.044,1.286.919.919,0,0,0,1.29-.332l3.669-6.227a.953.953,0,0,0,.141-.493c.448-.028.9-.062,1.342-.09l1.95-.122a3.916,3.916,0,0,1,.891-.824v0a3.916,3.916,0,0,0-.891.824l2.634-.164c.352,1.545,1.233,5.925,3.235,4.681a11.447,11.447,0,0,0,2.791-3.29,21.726,21.726,0,0,0,2.588-4.728c1.507.19,3.042.62,3.444,2.293.424,1.765.1,3.527.836,5.243.494,1.145,2.168.157,1.678-.981-.867-2.01.012-4.376-1.288-6.286a4.654,4.654,0,0,0-2.529-1.781c4.759-2.66,9.6-5.345,13.634-9.015A.879.879,0,0,0,499.739,322.683Zm-26.067,7.009c-.777.583-1.554.777-2.137.389C472.118,330.469,472.9,330.275,473.672,329.692Zm3.937,11.282s0-.008.013-.01Zm.859.1c.018.006.028.011.026.015S478.48,341.1,478.468,341.072Z" transform="translate(-430.612 -273.942)" fill="#323232"/>
        <path id="パス_482" data-name="パス 482" d="M496.393,506.884v0a.873.873,0,0,0-.721.913c.042,2.416-.444,4.85-2.3,6.532-1.789,1.618-4.442,2.16-6.656,2.921-5.361,1.842-10.752,3.585-16.216,5.1-3.377.935-6.774,1.794-10.18,2.619a1.094,1.094,0,0,0-.051-.142c-1.191-2.689-2.363-5.388-3.318-8.171a24.8,24.8,0,0,1-1.665-7.76q11.571-3.962,23.141-7.929a.956.956,0,0,0,.667-.9c.023-.008.045-.018.066-.028a1.022,1.022,0,0,0,.337.06,15.274,15.274,0,0,1,7,1.781c1.1.585,2.087-1.092.981-1.678a17.438,17.438,0,0,0-7.981-2.046,1.06,1.06,0,0,0-.241.024l-1.689-2.616c.144.624.275,1.247.371,1.87-.1-.623-.228-1.247-.371-1.87L467.771,480.4,459.6,467.738c-.087-.135-.173-.271-.259-.406a.956.956,0,0,0,.419-.533,105.458,105.458,0,0,1,11.9-24.648l3.835,4.755c.057.134.118.267.183.4a.906.906,0,0,0,.338.38.948.948,0,0,0,.368.369c3.453,2.014,7.376,3.158,10.626,5.539a5.953,5.953,0,0,1,2.567,3.234c.318,1.462.48,2.965.669,4.448,1.049,8.245,2.665,16.394,3.649,24.652.735,6.171,1.3,12.361,1.852,18.551a.981.981,0,0,0,.648.855v0a.886.886,0,0,0,1.3-.855c-.951-10.683-1.983-21.361-3.766-31.942-.619-3.671-1.22-7.163-1.681-10.83-.21-1.673-.4-3.358-.718-5.015a6.525,6.525,0,0,0-2.018-3.526,19.491,19.491,0,0,0-5.011-3.345c-.952-1.815.651-4.486,1.142-6.213a14.945,14.945,0,0,0,.138-8c-1.292-4.646-5.6-8.414-10.575-8.125a.946.946,0,0,0-.859.622,6.685,6.685,0,0,0,1.457.548,6.685,6.685,0,0,1-1.457-.548.912.912,0,0,0,.859,1.321c4.946-.288,8.653,4.024,9.065,8.694a16.924,16.924,0,0,1-1.29,7.23,10.3,10.3,0,0,0-.675,3.445c-1.572-.711-3.152-1.4-4.634-2.24a1.086,1.086,0,0,0-.1-.156l-.388-.481a9.964,9.964,0,0,1-.478-3.213c-.061-1.665.016-3.325,0-4.99-.03-2.857-.6-5.9-2.847-7.873a.973.973,0,0,0-1.251-.051,10.242,10.242,0,0,1,1.843,1.777,10.242,10.242,0,0,0-1.843-1.777.876.876,0,0,0-.123,1.425c2.4,2.114,2.315,5.485,2.256,8.422-.021,1.034-.059,2.135-.015,3.232l-2.195-2.721a1.068,1.068,0,0,0-.675-.517c.22.467.428.954.652,1.458-.224-.5-.432-.991-.652-1.458a.976.976,0,0,0-.92.211,1.887,1.887,0,0,1,.795.469,1.887,1.887,0,0,0-.795-.469,1.07,1.07,0,0,0-.166.186,105.679,105.679,0,0,0-12.592,25.45c-.816-1.3-1.638-2.609-2.523-3.858-.96-1.354-2.259-1-3.348-.2l-3.163,2.341-6.758,5a1.558,1.558,0,0,0-.865-.475c-.848-.146-1.712.55-2.418,1.074a35.515,35.515,0,0,1,1.888-7.323c.558-1.681,1.155-3.353,1.815-5a.838.838,0,0,0-.829-1.162c-.578,1.08-.838,2.355-1.335,3.472.5-1.117.757-2.392,1.335-3.472a1.024,1.024,0,0,0-1.045.645c-.689,1.716-1.311,3.463-1.889,5.22a32.217,32.217,0,0,0-1.954,8.546.965.965,0,0,0,.063.4l-6.044,4.083c.112-1.306.093-2.62.095-3.932a15.334,15.334,0,0,1,.329-4.556,2.131,2.131,0,0,1,.131-.239c.088-.032.313-.118.4-.148a18.925,18.925,0,0,1,1.938-.5q1.44-.319,2.9-.563c1.23-.208.709-2.081-.516-1.874q-1.031.174-2.056.385a.991.991,0,0,0,.1.085.991.991,0,0,1-.1-.085c-.381.078-.762.159-1.141.246-1.128.259-2.657.466-3.279,1.572-.727,1.293-.625,3.124-.643,4.553a44.65,44.65,0,0,1-.12,5.375,1.017,1.017,0,0,0,.246.826c-.921.564-2.171,1.267-2.2,2.353a2.6,2.6,0,0,0,.437,1.319q-1.094.8-2.185,1.607a12.5,12.5,0,0,1,.778,1.927l2.485-1.839c.47.714,1.055,1.335,1.992,1.062a.928.928,0,0,0,.424-.162l6.865-4.638,4.306-2.909c.881-.6,2.166-1.186,2.029-2.449a4.55,4.55,0,0,0-.879-1.809l4.431-3.279,4.127-3.054,1.261-.933c.138-.1.42-.409.594-.44.3-.053.577.635.777.945l2.3,3.562,7.593,11.757L477.6,499.195q-11.767,4.035-23.536,8.064a1.009,1.009,0,0,0-.713.937c0,.006,0,.011,0,.017l-2.124.671a1.051,1.051,0,0,0-.316-.064c-1.524-.078-2.126-2.127-2.8-3.209a4.83,4.83,0,0,0-3.39-2.393,19.057,19.057,0,0,0-4.518.108l-5.565.435c-1.309.1-2.848.129-3.854,1.107-.024.024-.046.049-.069.073l-4.918-7.478-4.062-6.177-1.426-2.169a5.463,5.463,0,0,1-.6-.917c-.115-.3-.109-.135.141-.374a9.547,9.547,0,0,1,.933-.69l3.646-2.7,1.785-1.321a12.5,12.5,0,0,0-.778-1.927q-3.406,2.515-6.755,5.1c-1.371,1.064-.989,2.378-.191,3.591l3.227,4.907,7.67,11.663.516.785a1.054,1.054,0,0,0,.186.214,3.082,3.082,0,0,0,.249.672,3.625,3.625,0,0,0,1.873,1.693,3.7,3.7,0,0,0,1.093,6.656c.079.022.161.04.244.057l-.027.035a2.13,2.13,0,0,0-.316,1.052,4.342,4.342,0,0,0,.778,2.288c.487.923-.262,2-.11,3.013a5.682,5.682,0,0,0,3.708,4.839c2.216.719,4.759.325,6.986-.124,2.362-.476,4.641-1.237,6.948-1.919a.9.9,0,0,0,.673-.773,2.406,2.406,0,0,1-2.035.082,2.406,2.406,0,0,0,2.035-.082.949.949,0,0,0-1.189-1.1c-3.586,1.059-7.292,2.475-11.088,2.335-1.712-.063-3.045-.565-3.713-2.214a4,4,0,0,1-.435-1.605,8.36,8.36,0,0,1,.243-.9,3.934,3.934,0,0,0,.056-1.636c-.157-.671-.77-1.185-.885-1.853-.131-.764.666-1.334.372-2.181a1.9,1.9,0,0,0-1.481-1.137,1.939,1.939,0,0,1-1.571-1.277,1.785,1.785,0,0,1,.961-2.039.875.875,0,0,0,.415-1.111c1.012.1,2.092-.028,3.1.125l-2.355,1.192c-1.116.565-.133,2.242.981,1.678l5.7-2.883c1.116-.565.133-2.242-.981-1.678l-.966.489a1.117,1.117,0,0,0-.106-.066,7.333,7.333,0,0,0-3.591-.734c-1.107-.005-2.677.138-3.428-.863-.957-1.276.726-1.632,1.675-1.719,1.482-.135,2.968-.232,4.452-.349,1.436-.112,2.872-.253,4.31-.332,1.237-.069,2.544-.051,3.4.974.77.917,1.13,2.112,1.876,3.054a4.057,4.057,0,0,0,2.566,1.61c.095,4.572,1.562,9.072,3.211,13.322a3.7,3.7,0,0,1,1.821-.65c-1.591-4.1-3.025-8.448-3.09-12.856l.955-.3a29.775,29.775,0,0,0,1.674,6.935c.711,2.074,1.541,4.1,2.409,6.116l-1.777.547c-.057-.146-.114-.293-.171-.44a3.7,3.7,0,0,0-1.821.65q.241.623.486,1.239a.992.992,0,0,0,1.2.678l2.87-.883.322.728a.766.766,0,0,0,.746.505.942.942,0,0,0,1.138.618c6.2-1.5,12.365-3.13,18.448-5.05,2.991-.944,5.964-1.946,8.93-2.969,2.362-.814,4.9-1.452,6.816-3.138,2.284-2.007,3-5.042,2.95-7.975A.964.964,0,0,0,496.393,506.884Zm-55.823-33.435-3.895,2.632-6.282,4.244c-.048-.073-.1-.144-.14-.208l-.67-1.113c-.058-.1-.193-.422-.317-.6.208-.137.452-.362.562-.436l1.426-.964,8-5.4,1.405-.95c.062-.042.285-.155.459-.265a9.28,9.28,0,0,0,.516.783,10.067,10.067,0,0,0,.591.982.621.621,0,0,1,.039.072C441.736,472.533,440.708,473.356,440.569,473.449Z" transform="translate(-400.288 -392.162)" fill="#323232"/>
        <path id="パス_483" data-name="パス 483" d="M896.592,650.588c-6.047,1.019-9.09,6.613-9.31,12.33-.048,1.25,1.895,1.248,1.943,0,.19-4.927,2.693-9.582,7.884-10.457C898.339,652.254,897.817,650.382,896.592,650.588Z" transform="translate(-815.808 -588.772)" fill="#323232"/>
        <path id="パス_484" data-name="パス 484" d="M905.364,844.293l-2.441-14.7-.357-2.149c-.2-1.231-2.077-.709-1.874.517l2.441,14.7.357,2.149a.772.772,0,0,0,.684.694,13.214,13.214,0,0,1-.224-2.291,13.214,13.214,0,0,0,.224,2.291A1.066,1.066,0,0,0,905.364,844.293Z" transform="translate(-827.664 -745.009)" fill="#323232"/>
        <path id="パス_485" data-name="パス 485" d="M525.17,806.418l3.9-2.632c.139-.094,1.167-.917,1.693-1.228a.639.639,0,0,0-.039-.072,10.046,10.046,0,0,1-.591-.982,9.357,9.357,0,0,1-.516-.783c-.174.11-.4.223-.459.265l-1.405.95-8,5.4-1.426.964c-.11.074-.354.3-.562.436.123.181.259.506.317.6l.67,1.113c.038.063.092.135.14.208Z" transform="translate(-488.783 -721.862)" fill="#fff"/>
        <path id="パス_486" data-name="パス 486" d="M691.2,457.313c1.735,1.857,5.294,1.571,7.166.121.987-.765-.4-2.131-1.374-1.374-1.056.818-3.471.892-4.418-.121C691.717,455.023,690.345,456.4,691.2,457.313Z" transform="translate(-642.036 -415.905)" fill="#323232"/>
        <path id="パス_487" data-name="パス 487" d="M800.026,613.915c1.4-1.033,1.919-3.308,2.327-4.9.972-3.8,1.031-7.726,2.513-11.4.467-1.159-1.411-1.664-1.874-.517-1.481,3.674-1.541,7.6-2.512,11.4a18.409,18.409,0,0,1-.918,2.774,2.151,2.151,0,0,1-2.191,1.456,4.428,4.428,0,0,0-3.123,1.228l-1.065-.792c-1-.747-1.974.939-.981,1.678l3.214,2.389c.935.695,2.263,1.4,2.8,2.48a4.727,4.727,0,0,1,.023,3.175,23.241,23.241,0,0,0-.8,3.765c-.1,1.247,1.845,1.24,1.943,0,.208-2.635,1.9-5.319.513-7.921a8.634,8.634,0,0,0-2.735-2.609l-1.4-1.037c.437-.417,1.427-.392,1.916-.441A4.559,4.559,0,0,0,800.026,613.915Z" transform="translate(-731.295 -540.916)" fill="#323232"/>
        <path id="パス_488" data-name="パス 488" d="M642.519,121.192a17.7,17.7,0,0,0-4.3-9.423,18.4,18.4,0,0,0-9.417-5.617,19.842,19.842,0,0,0-10.617.679,19.154,19.154,0,0,0-9.217,6.118,1.089,1.089,0,0,0-.112.112,19.4,19.4,0,0,0-2.837,4.748,14.608,14.608,0,0,0-1.5,5.26.851.851,0,0,0,.7.91c.11-.7.241-1.383.3-2.034-.059.651-.19,1.338-.3,2.034a.985.985,0,0,0,1.248-.91,12.531,12.531,0,0,1,1.344-4.527,18.483,18.483,0,0,1,2.205-3.836,1.061,1.061,0,0,0,.227-.235c3.538-4.973,10.955-7.557,16.886-6.668a16.148,16.148,0,0,1,13.217,12.241c.738,3.2.74,6.941-1.1,9.79a.914.914,0,0,0,.632,1.4,12.308,12.308,0,0,0,.807-1.515,12.308,12.308,0,0,1-.807,1.515.936.936,0,0,0,1.046-.419C642.734,128,642.982,124.432,642.519,121.192Z" transform="translate(-565.56 -105.714)" fill="#323232"/>
        <path id="パス_489" data-name="パス 489" d="M803.335,227.192c-1.94-.691-3.6-2.529-4.944-4.009a23,23,0,0,1-4.144-6.05.843.843,0,0,0-1.431-.2c.356.424.775.807,1.193,1.225-.419-.418-.837-.8-1.193-1.225a1.023,1.023,0,0,0-.247,1.18,24.875,24.875,0,0,0,4.633,6.645,16.4,16.4,0,0,0,5.116,4.106,2.371,2.371,0,0,1-.343-1.186,2.371,2.371,0,0,0,.343,1.186c.165.072.331.14.5.2C804,229.486,804.506,227.609,803.335,227.192Z" transform="translate(-731.906 -203.871)" fill="#323232"/>
        <path id="パス_490" data-name="パス 490" d="M645.795,193.329c-4.073,5.289-10.022,8.013-16.483,9.088a.866.866,0,0,0-.515,1.416,4.116,4.116,0,0,1,1.342-.628,4.116,4.116,0,0,0-1.342.628,1,1,0,0,0,1.032.458c6.81-1.133,12.888-4.1,17.255-9.489a3.732,3.732,0,0,1-.235-.923,3.732,3.732,0,0,0,.235.923q.2-.243.389-.491C648.235,193.319,646.548,192.35,645.795,193.329Z" transform="translate(-586.883 -182.893)" fill="#323232"/>
      </g>
    </g>
    <path id="パス_5526" data-name="パス 5526" d="M45.336-9.875v-2.25h1.078v2.25Zm1.688,0v-2.25H48.1v2.25Zm-9.453,1.7v-2.219h2.156q.078-.813.117-1.266t.039-.469h2.156q-.047.891-.141,1.734h2.219v1.906Q46.3-8.531,48.1-8.5v2.3q-.906-.047-1.984-.055t-2.953.039l-.047-1.953H41.664q-.344,2.688-.734,4.625t-.641,3Q40.039.516,40.023.516H37.648Q38.32-1.8,38.766-4.062t.7-4.109ZM42.3-4.406h2.172A3.446,3.446,0,0,0,43.8-2.523q.047.727,1.469.742.875,0,1.523-.031t1.086-.062l.438-.031V.5q-.984.078-1.82.1T44.586.563A3.638,3.638,0,0,1,42.789.1a2.313,2.313,0,0,1-.922-1.016A3.081,3.081,0,0,1,41.6-2.172a3.88,3.88,0,0,1,.18-1.2A5.538,5.538,0,0,1,42.3-4.406Zm8.234-5.016q1.031-.094,1.828-.156.016-1.109.016-2.484h2.391q.016,1.359-.031,2.375H55.93a2.209,2.209,0,0,1,1.8.766,4.278,4.278,0,0,1,.758,2.406,22.057,22.057,0,0,1,.086,2.438,11.89,11.89,0,0,1-.258,2.32,3.93,3.93,0,0,1-.789,1.727,1.978,1.978,0,0,1-1.523.688,7.518,7.518,0,0,1-1.32-.117A3.194,3.194,0,0,1,54.2.422v-2.5a4.712,4.712,0,0,0,1.438.281q.406-.047.555-.773a8.927,8.927,0,0,0,.148-1.758q0-1.031-.062-2.031,0-.594-.219-.758a1.5,1.5,0,0,0-.781-.2,2.8,2.8,0,0,0-.32.016,3.144,3.144,0,0,1-.352.016,28.583,28.583,0,0,1-.656,4.031A34.021,34.021,0,0,1,52.789.531H50.273a22.955,22.955,0,0,0,1.328-3.7,26.686,26.686,0,0,0,.656-3.953q-.766.062-1.227.117t-.492.055Zm6.922-2.172H59.8a23.8,23.8,0,0,1,1.906,6.313h-2.3A19.592,19.592,0,0,0,57.461-11.594Zm7.219-.312.469-.016q.453-.016,1.148-.023t1.445.023q.75.031,1.492.109t1.242.156q.5.078.516.078v2.516a5.129,5.129,0,0,0-.539-.125q-.523-.109-1.281-.219A12.191,12.191,0,0,0,67.7-9.531q-.75-.016-1.43.008t-1.125.047l-.461.023ZM63.445-3.531V-8.594h2.3v2.516q.016-.016.328-.273a3.945,3.945,0,0,1,.977-.531,5.266,5.266,0,0,1,1.539-.352A4.86,4.86,0,0,1,71-6.875a3.314,3.314,0,0,1,1.555,1.352,4.111,4.111,0,0,1,.531,2.055A3.552,3.552,0,0,1,70.938,0q-2.164,1.047-6.445.391V-1.984a19.981,19.981,0,0,0,3.25.32,5.551,5.551,0,0,0,1.9-.258,1.766,1.766,0,0,0,.891-.664,1.48,1.48,0,0,0,.227-.9,1.694,1.694,0,0,0-.25-.875,1.628,1.628,0,0,0-.734-.648,2.473,2.473,0,0,0-1.391-.086,4.521,4.521,0,0,0-1.594.656,9.218,9.218,0,0,0-1.172.906ZM75.68-11.641h8.469v1.813L81.7-8H78.758L80.1-9.25H75.68ZM76.82-5.609h2.953a11.867,11.867,0,0,0-.992.867,4.639,4.639,0,0,0-.664.836,1.549,1.549,0,0,0-.266.875.926.926,0,0,0,.156.539,1.128,1.128,0,0,0,.68.352A8.2,8.2,0,0,0,80.32-2q1.266,0,2.156-.078t2.141-.25V.219a38.121,38.121,0,0,1-4.641.328A5.786,5.786,0,0,1,76.508-.3,2.824,2.824,0,0,1,75.4-2.734a3.424,3.424,0,0,1,.383-1.547A6.03,6.03,0,0,1,76.82-5.609ZM88.352-12h7.234v2.172q-.469.359-1.094.813t-1.227.9q-.6.445-1.039.773l5.125-.422v2.391L94.7-5.156a4.213,4.213,0,0,0-1.242.336,3.908,3.908,0,0,0-1.1.7,1.887,1.887,0,0,0-.594,1.008,1.045,1.045,0,0,0,.148.859,1.268,1.268,0,0,0,.672.414,5.483,5.483,0,0,0,.9.164,12.568,12.568,0,0,0,1.867.016q.7-.062.727-.078V.734L95.3.766A17.985,17.985,0,0,1,93.4.719,12.792,12.792,0,0,1,92.047.5a3.739,3.739,0,0,1-1.469-.633A3.411,3.411,0,0,1,89.563-1.32a2.993,2.993,0,0,1-.227-1.836,2.47,2.47,0,0,1,.383-.961,3.25,3.25,0,0,1,.742-.773l-3.687.281V-7l2.016-.172q1.25-.844,1.891-1.375t.953-.8l.313-.266H88.352ZM-92.7,22h2.328V20.016H-92.7Zm2.328-5.781h-3.172a16.56,16.56,0,0,1-1.078,1.641h4.25Zm7.7,5.781v2.234h-5.312v3.281h-2.391V24.234h-7.141V22h2.484V18.406q-.375.437-.578.641a12.166,12.166,0,0,0-2-1.531,9.592,9.592,0,0,0,1.891-2.3,13.386,13.386,0,0,0,1.344-2.961l2.375.609q-.125.375-.437,1.125H-83.6v2.234h-4.375v1.641h3.984v2.156h-3.984V22Zm15.016-1.078h-3.984a14.526,14.526,0,0,0,2.414,2.2,14.416,14.416,0,0,0,2.867,1.648,7.223,7.223,0,0,0-.937.961,10.3,10.3,0,0,0-.828,1.117,15.987,15.987,0,0,1-4.734-4.125v4.8h-2.484V22.844a15.946,15.946,0,0,1-4.734,4.109A11.193,11.193,0,0,0-81.8,24.891a15.407,15.407,0,0,0,2.9-1.719,15.425,15.425,0,0,0,2.461-2.25H-80.4V18.641h5.063v-1.7H-81.1V14.625h5.766V12.313h2.484v2.313h5.891v2.313h-5.891v1.7h5.2Zm6.922-8.141v1.734h-4.187V12.781Zm.453,2.188v1.813H-65.68V14.969Zm-.406,2.3v1.719h-4.328V17.266ZM-65.008,21.2V19.469h4.328V21.2Zm7.672-2.969h1.047v-.812H-57.3V15.766h1.016v-.875h1.766v.875h1.047v1.656h-1.047v.813h1.094v1.672h-3.906Zm2.234,3.891H-55.7V23.2h.594Zm1.641,2.688H-55.7v.531H-57.3V20.516h3.844Zm-9.094.063V23.516h-.734v1.359Zm11.641-12.031V25.031a4.145,4.145,0,0,1-.164,1.3,1.384,1.384,0,0,1-.586.742,2.324,2.324,0,0,1-.961.344,11.683,11.683,0,0,1-1.539.078,6.956,6.956,0,0,0-.625-2.25q.375.031,1.453.031.281,0,.281-.3V14.8h-4.609v4.188q0,5.984-1.406,8.594a6.533,6.533,0,0,0-1.641-1.156v.25h-2.578v.609H-65.07V21.734h4.359V26a19,19,0,0,0,.938-7.016V12.844Zm9.938,12.125v.516h6.266v1.859h-14.7V25.484h2.2V23.266h2.219v2.219h1.719V22.828h-5.25v-1.8H-35.68v1.8h-5.3v.484h3.859v1.656Zm-1.078-5.984-.172.234a7.542,7.542,0,0,0,2.438-1.125q-.516-.7-.687-1a6.193,6.193,0,0,1-.531.531,9.909,9.909,0,0,0-1-1.141v1.641h-1.641Q-42.43,18.75-42.055,18.984Zm-5.172-2.766v.594h.641v-.594Zm3.328,0h-.672v.594h.672Zm5.844-.578H-39.3a7.364,7.364,0,0,0,.766,1.094A5.806,5.806,0,0,0-38.055,15.641Zm3.266,0H-35.9a7.772,7.772,0,0,1-1.109,2.422,7.278,7.278,0,0,0,2.484,1.031,6.224,6.224,0,0,0-1.281,1.8A7.717,7.717,0,0,1-38.4,19.484a9.444,9.444,0,0,1-2.734,1.422,5.186,5.186,0,0,0-.523-.789,8.1,8.1,0,0,0-.664-.773l-.859,1.063q-.625-.531-1.391-1.125V20.75h-2.016v-1.2a8.311,8.311,0,0,1-1.766,1.313,6.35,6.35,0,0,0-1.3-1.422,8.247,8.247,0,0,0,2.281-1.312h-1.625V14.906h2.406v-.375H-49.3V13.016h2.719v-.7h2.016v.7h2.688v1.516H-44.57v.375h2.563v.656a7.22,7.22,0,0,0,1.734-3.219l2.063.469q-.141.469-.375,1.063h3.8Zm4.75,7.438q.359.016.6-.609a7.741,7.741,0,0,0,.391-1.6q.148-.977.219-2.039t.055-1.937a2.294,2.294,0,0,0-1.148.891,5.021,5.021,0,0,0-.7,1.477A6.444,6.444,0,0,0-30.9,20.8a3.948,3.948,0,0,0,.2,1.711Q-30.445,23.047-30.039,23.078Zm5.563-3.141a4.395,4.395,0,0,0-.547-2.086,2.034,2.034,0,0,0-1.531-1.008q-.047,1.516-.2,3.063a12.665,12.665,0,0,1-.586,2.844,6.181,6.181,0,0,1-1.094,2.063,2,2,0,0,1-1.656.734,2.683,2.683,0,0,1-1.4-.477,3.372,3.372,0,0,1-1.125-1.477,7.136,7.136,0,0,1-.477-2.8,7.568,7.568,0,0,1,.7-3.148,6.155,6.155,0,0,1,1.8-2.281,4.878,4.878,0,0,1,2.547-1.008,5.959,5.959,0,0,1,2.82.445A4.646,4.646,0,0,1-23.1,16.688a6.926,6.926,0,0,1,.922,3.391,7.97,7.97,0,0,1-.461,3.031,5.085,5.085,0,0,1-1.281,1.977,4.895,4.895,0,0,1-1.711,1.023,5.3,5.3,0,0,1-1.687.313V24.078a2.583,2.583,0,0,0,2.094-1.086A5.043,5.043,0,0,0-24.477,19.938Zm13.906-5.391a.748.748,0,0,0-.227-.562.768.768,0,0,0-.555-.219.742.742,0,0,0-.547.219.761.761,0,0,0-.219.563.742.742,0,0,0,.219.547.742.742,0,0,0,.547.219.768.768,0,0,0,.555-.219A.729.729,0,0,0-10.57,14.547Zm-2-1.234a1.658,1.658,0,0,1,1.219-.5,1.671,1.671,0,0,1,1.227.508,1.671,1.671,0,0,1,.508,1.227,1.677,1.677,0,0,1-.312,1v2.328h-4.047v8.813H-16.3V17.875h-4v-2.5h4V13.594h2.328v1.781h1.109a1.71,1.71,0,0,1-.2-.828A1.711,1.711,0,0,1-12.57,13.313Zm-4.766,5.516q-.016,2.641-.2,4.391t-.477,3.469H-20.18q.016-.031.18-1.031t.367-2.758a38.142,38.142,0,0,0,.219-4.07Zm4.438,0H-10.8q0,2.312.172,4.07t.367,2.758q.2,1,.211,1.031h-2.172q-.3-1.719-.477-3.469T-12.9,18.828ZM2.117,14.016a13.963,13.963,0,0,1-1.6,2.563q-.945,1.2-1.727,2.094v8.219H-3.68V20.578a14.194,14.194,0,0,1-2.312,1.547,13.985,13.985,0,0,1-1.766.8q-.656.227-.672.227V20.641q.016,0,.8-.32a14.767,14.767,0,0,0,1.992-1.062,14.465,14.465,0,0,0,2.523-2.031A14.923,14.923,0,0,0-.7,14.016ZM3.4,16.859V14.422H8.273v2.438Zm10.391.188A14.2,14.2,0,0,1,11.7,21.7a11.711,11.711,0,0,1-2.727,2.773,10.374,10.374,0,0,1-2.68,1.383,9.951,9.951,0,0,1-2.07.477,7.8,7.8,0,0,1-.82.055V23.844a4.913,4.913,0,0,0,.641-.023,7.822,7.822,0,0,0,1.6-.32A6.594,6.594,0,0,0,7.7,22.422,9.678,9.678,0,0,0,9.688,20.4,11.893,11.893,0,0,0,11.3,17.047Zm2.078,9.766V13.719h2.469v4.219H24.9v2.453H18.336v6.422Zm11.5-12.687h2.156q-.141,1.094-.234,1.977t-.164,1.906q-.07,1.023-.07,1.992,0,1.141.086,2.266t.2,2.063q.117.938.289,2.094H27.414q-.266-1.906-.383-3.344t-.117-3q0-1.453.109-2.8T27.367,14.125Zm2.656,1.891H33.3V13.969l2.125.016v2.031h1.719v2.406H35.43v2.516a17.207,17.207,0,0,1,1.813.8v2.406q-.578-.391-.977-.633a4.555,4.555,0,0,0-.836-.4v.969a3.033,3.033,0,0,1-.375,1.672,1.872,1.872,0,0,1-.984.766,3.744,3.744,0,0,1-1.187.2,3.623,3.623,0,0,1-1.437-.227,2.362,2.362,0,0,1-1.133-.906,3.155,3.155,0,0,1-.445-1.8A3.237,3.237,0,0,1,30.75,21.4a3.19,3.19,0,0,1,2.555-.742V18.422H30.023Zm2.859,8.563a.368.368,0,0,0,.328-.2,1.117,1.117,0,0,0,.094-.508v-1.2a1.421,1.421,0,0,0-1.125.172,1.112,1.112,0,0,0-.437.828.771.771,0,0,0,.281.734A1.279,1.279,0,0,0,32.883,24.578Zm9.578-6.531H49.68a17.011,17.011,0,0,1-3.656-3.531A16.356,16.356,0,0,1,42.461,18.047Zm4.813,5.516v1.547h5.719v2.063H39.3V25.109h5.5V23.563H40.586v-2H44.8V20.078H41.445V18.766A17.828,17.828,0,0,1,39.727,19.8a7.973,7.973,0,0,0-.664-.977,8.389,8.389,0,0,0-.8-.914,15.986,15.986,0,0,0,3.766-2.555,13.956,13.956,0,0,0,2.688-3.117h2.438a16.1,16.1,0,0,0,3.094,3.313,13.6,13.6,0,0,0,3.719,2.172,11.876,11.876,0,0,0-1.531,2.094q-.781-.422-1.687-1.016v1.281H47.273v1.484h4.266v2Zm17.969-9.094v2.391a6.535,6.535,0,0,0-2.68.82,7.555,7.555,0,0,0-1.891,1.531,4.358,4.358,0,0,0-.977,1.664,2.361,2.361,0,0,0,.047,1.7,2.034,2.034,0,0,0,.914.922,2.889,2.889,0,0,0,1.086.32,11.583,11.583,0,0,0,1.2,0q.578-.031,1.023-.086t.461-.055v2.5a13.444,13.444,0,0,1-1.516.117q-.656.008-1.359-.039a6.236,6.236,0,0,1-1.531-.3,4.725,4.725,0,0,1-1.586-.852,3.694,3.694,0,0,1-1.094-1.547,4.9,4.9,0,0,1-.211-2.391,5.845,5.845,0,0,1,.6-1.8,6.7,6.7,0,0,1,.938-1.352,9.121,9.121,0,0,1,.867-.852,2.547,2.547,0,0,1,.391-.3H54.992V14.469Zm6.7,4.594.266,2.141-1.7.422v3.5a3.823,3.823,0,0,1-.156,1.234,1.377,1.377,0,0,1-.562.7,4.778,4.778,0,0,1-2.375.422,7.083,7.083,0,0,0-.609-2.125,8.907,8.907,0,0,0,1.156.016.221.221,0,0,0,.25-.25V22.188l-1.344.344L66.336,20.3q.25-.047,1.875-.375V17.359H66.617V15.219h1.594V12.313h2.3v2.906h1.375v2.141H70.508v2.031Zm3.734-3.75h-.844v3.8h.844Zm3.031,3.8v-3.8h-.859v3.8Zm-2.828,5.844h2.563a.844.844,0,0,0,.828-.391,5.692,5.692,0,0,0,.328-1.719,6.37,6.37,0,0,0,2.266.922,4.913,4.913,0,0,1-.906,2.688,2.916,2.916,0,0,1-2.266.766H75.586a3.484,3.484,0,0,1-2.516-.7,3.991,3.991,0,0,1-.672-2.711V13.031H81.18v9.25H78.711v-.969H74.836v2.516a1.589,1.589,0,0,0,.172.945A1.348,1.348,0,0,0,75.883,24.953Zm11.5-5.906.281,2.078q-.656.2-1.406.391v3.625a3.9,3.9,0,0,1-.156,1.242,1.4,1.4,0,0,1-.547.711,4.405,4.405,0,0,1-2.328.438,6.958,6.958,0,0,0-.578-2.156,10.172,10.172,0,0,0,1.234.016.306.306,0,0,0,.2-.047.271.271,0,0,0,.055-.2V22.094l-1.3.359-.484-2.234q.2-.031,1.781-.375V17.375h-1.5V15.25h1.5V12.344h2.125V15.25h1.281v2.125H86.258v1.953Zm2.609,1.844.953-.031q.344-.719.484-1.109H90.07Q90.055,20.016,89.992,20.891Zm5.078-6.219H90.117v.766H95.07ZM92.9,20.813l1.719-.062q-.078-.078-.242-.25t-.227-.234l1.063-.516H93.539q-.125.2-.336.555Zm1.5,4.563h3.3v1.734H89.2V25.375h3.156v-.609h-2.5V23.125h2.5v-.641l-2.344.125-.094-1.016a12.834,12.834,0,0,1-1.781,5.7,5.5,5.5,0,0,0-.812-.734,5.9,5.9,0,0,0-.891-.594,8.126,8.126,0,0,0,.883-1.852,11.322,11.322,0,0,0,.5-2.211q.148-1.172.2-2.062t.047-2.047V12.813h9.234v4.469H90.117v.672h7.328v1.8h-1.7a12.462,12.462,0,0,1,1.906,2.234l-1.484.781q-.078-.141-.3-.484l-1.469.094v.75h2.578v1.641H94.4Z" transform="translate(159.278 210)" fill="#538eb4"/>
    <path id="パス_5527" data-name="パス 5527" d="M-52.158-10.781h4.668a28.421,28.421,0,0,1-2.383-3.066A26.333,26.333,0,0,1-52.158-10.781Zm-.879,2.617v-1.7A12.719,12.719,0,0,1-54.58-8.516a10.294,10.294,0,0,0-1.6-2.539,13.924,13.924,0,0,0,2.715-2.6,19.741,19.741,0,0,0,2.129-3.086h2.754a16.742,16.742,0,0,0,5.137,5.371,16.619,16.619,0,0,0-1.758,2.734q-.273-.2-1.25-1.094v1.563Zm-5.8-.332,1.367-.059q-.449-1.016-.488-1.094Q-58.428-9.023-58.838-8.5Zm1.484,3.711,1.7-.547A24.364,24.364,0,0,1-54.424-1.7l-2.129.762q-.156-.8-.8-2.832V1.895h-2.52v-5.84A16.531,16.531,0,0,1-60.908.508,11.23,11.23,0,0,0-63.1-.547a13.86,13.86,0,0,0,.918-4.609l2.3.391v-1.27l-2.773.176-.254-2.5,1.523-.059q.391-.508.723-.957A16.241,16.241,0,0,0-62.9-12.031l1.367-2.012.371.352a20.233,20.233,0,0,0,1.309-3.379l2.5.918q-1.563,2.969-2.246,4.043a5.365,5.365,0,0,1,.41.508q.879-1.445,1.66-3.066l2.344,1.074q-1.387,2.09-2.52,3.633l1.543-.645a14.313,14.313,0,0,1,1.7,4.336l-2.031.918a5.853,5.853,0,0,0-.2-.918l-.664.059Zm9.512.586h-3.672v2.52h3.672ZM-54.17,1.875V-6.738h9.1V1.8h-2.773V.859h-3.672V1.875Zm30.039-7.754v2.773H-28.1Q-28.545-.137-29.307.7a3.083,3.083,0,0,1-1.006.781,4.57,4.57,0,0,1-1.318.332,21.311,21.311,0,0,1-3.3.059,5.875,5.875,0,0,0-1.035-2.91q1.289.117,3.145.117a1.555,1.555,0,0,0,.977-.273,3.686,3.686,0,0,0,.723-1.914H-42.412V-5.879h11.68q.059-.605.137-1.68h-6.172l-.156.762-3.086-.234a85.214,85.214,0,0,0,1.895-10.1l3.047.293q-.059.391-.186,1.113t-.166.977H-26.4v2.793h-9.492q-.254,1.289-.332,1.719h8.789q-.039.859-.078,1.23-.137,2.031-.254,3.125Zm8.965-10.645v2.168h-6.5v-2.168Zm.762,2.734v2.266h-8.379v-2.266Zm-3.4,10.7h-1.562v1.7H-17.8Zm2.539-2.246V.879h-4.1V1.6h-2.5V-5.332ZM-21.787-6V-8.164h6.582V-6Zm0-2.773v-2.148h6.582V-8.77Zm18.164-1.68v2.891h-4V1.895H-10.6V-7.559h-3.926v-2.891H-10.6v-6.543h2.969v6.543ZM5.088-3.555h3.73v-.879H5.088ZM1.064-13.633H.986a11.948,11.948,0,0,1-1.113,1.27H1.748A10.59,10.59,0,0,0,1.064-13.633Zm7.324,1.27h2.754q-.156-.254-.937-1.27H9.463A13.033,13.033,0,0,1,8.389-12.363ZM3-12.363H7.51a16.723,16.723,0,0,0-2.012-1q.117-.078.352-.273H4.033q.176.312.391.781Zm7.949,2.148v-.469H2.783v.469Zm0,2.031v-.469H2.783v.469ZM2.783-6.113h8.164V-6.6H2.783ZM15.869-3.555v2.266H11.826V1.855H8.818V-1.289H4.795Q3.857.9-.361,1.895A8.542,8.542,0,0,0-2.2-.215a8.508,8.508,0,0,0,3.34-1.074H-2.412V-3.555h4.59v-.879H-.146v-7.91q-.2.215-.566.547a12.114,12.114,0,0,0-2.344-1.582A9.1,9.1,0,0,0-1.25-15.127,10.455,10.455,0,0,0,.107-17.3l2.7.762q-.1.215-.332.645H6.416v1.719A9.443,9.443,0,0,0,8.408-17.3l2.754.684q-.234.586-.312.723h5v2.266H13.408a6.23,6.23,0,0,1,.469.625l-1.484.645h1.641v7.93H11.826v.879Zm5.9-.1q.449.02.752-.762a9.676,9.676,0,0,0,.488-2q.186-1.221.273-2.549t.068-2.422a2.867,2.867,0,0,0-1.436,1.113,6.277,6.277,0,0,0-.879,1.846A8.056,8.056,0,0,0,20.693-6.5a4.935,4.935,0,0,0,.254,2.139Q21.26-3.691,21.768-3.652Zm6.953-3.926a5.494,5.494,0,0,0-.684-2.607,2.542,2.542,0,0,0-1.914-1.26q-.059,1.895-.244,3.828a15.832,15.832,0,0,1-.732,3.555,7.727,7.727,0,0,1-1.367,2.578,2.5,2.5,0,0,1-2.07.918,3.354,3.354,0,0,1-1.748-.6,4.215,4.215,0,0,1-1.406-1.846,8.92,8.92,0,0,1-.6-3.5,9.46,9.46,0,0,1,.879-3.936,7.694,7.694,0,0,1,2.246-2.852,6.1,6.1,0,0,1,3.184-1.26,7.449,7.449,0,0,1,3.525.557,5.807,5.807,0,0,1,2.646,2.354A8.657,8.657,0,0,1,31.592-7.4a9.962,9.962,0,0,1-.576,3.789,6.356,6.356,0,0,1-1.6,2.471A6.118,6.118,0,0,1,27.275.137a6.621,6.621,0,0,1-2.109.391V-2.4A3.228,3.228,0,0,0,27.783-3.76,6.3,6.3,0,0,0,28.721-7.578Zm18.4-6.973a.934.934,0,0,0-.283-.7.96.96,0,0,0-.693-.273.927.927,0,0,0-.684.273.952.952,0,0,0-.273.7.927.927,0,0,0,.273.684.927.927,0,0,0,.684.273.96.96,0,0,0,.693-.273A.911.911,0,0,0,47.119-14.551Zm-2.5-1.543a2.073,2.073,0,0,1,1.523-.625,2.089,2.089,0,0,1,1.533.635,2.089,2.089,0,0,1,.635,1.533,2.057,2.057,0,0,1-.635,1.523,2.106,2.106,0,0,1-1.533.625h-.059v.723a13.337,13.337,0,0,1-.9,4.941A11.992,11.992,0,0,1,43.135-3.33a9.819,9.819,0,0,1-2.52,2.08A13.868,13.868,0,0,1,38.1-.127a12.526,12.526,0,0,1-1.943.488,5.389,5.389,0,0,1-.771.088V-2.676A13.122,13.122,0,0,0,38.1-3.35a8.106,8.106,0,0,0,2.295-1.4,7.033,7.033,0,0,0,1.865-2.568,11.18,11.18,0,0,0,.82-4.111H34.111v-3.125h9.883A2.138,2.138,0,0,1,44.619-16.094Zm13.867,4.883h-5.9v8.164h5.9ZM61.689.02H49.4v-14.3H61.689Z" transform="translate(128.278 210)"/>
  </g>
</svg>
