<svg xmlns="http://www.w3.org/2000/svg" width="310" height="224" viewBox="0 0 310 224">
  <g id="グループ_9384" data-name="グループ 9384" transform="translate(-655.75 -35.139)">
    <rect id="長方形_23168" data-name="長方形 23168" width="310" height="224" transform="translate(655.75 35.139)" fill="#538eb4"/>
    <ellipse id="楕円形_31" data-name="楕円形 31" cx="48.853" cy="48.853" rx="48.853" ry="48.853" transform="translate(719.812 61.126)" fill="#ffda2b"/>
    <g id="グループ_9378" data-name="グループ 9378" transform="translate(756.982 86.919)">
      <path id="パス_4817" data-name="パス 4817" d="M240.809,377.468l-11.917-6.019a1.011,1.011,0,0,1-.5-.88V311.107c0-1.312-.146-2.575-1.456-3.268a3.113,3.113,0,0,0-1.455-.33c-.505-.007-1.012,0-1.517,0H144.166c-4.977,0-9.957-.048-14.934,0a2.836,2.836,0,0,0-2.977,2.755c-.024.568,0,1.142,0,1.711v58.593a1.01,1.01,0,0,1-.5.88l-12.025,6.019a1.066,1.066,0,0,1-1.5-.683,2.459,2.459,0,0,0-1.147.93,1.594,1.594,0,0,0-.226.732,1.037,1.037,0,0,1,1.834.619v3.46c1.4-.07,2.876.062,4.255.062h123.37v-2.13a.975.975,0,0,1,1.118-.98v-1.9A1.023,1.023,0,0,1,240.809,377.468ZM130.05,312.622c.021-1.067.748-1.5,1.716-1.5h89.768c.789,0,1.93-.182,2.4.6a.969.969,0,0,1,.191.6v57.63a1.034,1.034,0,0,1-1.019,1.019c-.054,0-.108,0-.161,0-3.7.151-7.445,0-11.151,0H131.069a1.034,1.034,0,0,1-1.019-1.019V316.723C130.05,315.357,130.023,313.988,130.05,312.622Zm38.092,66.334H117.922a1.02,1.02,0,0,1,0-2.038h50.219A1.02,1.02,0,0,1,168.141,378.956Zm69,0H182.264a1.88,1.88,0,0,1-.236.784,2.538,2.538,0,0,1-2.118,1.21c-.775.04-1.562,0-2.338,0h-6.464a1.02,1.02,0,0,1,0-2.038H179.5a4.194,4.194,0,0,0,.513-.026.639.639,0,0,0,.229-.118c0-.04-.007-.078-.008-.107-.008-.241,0-.484,0-.725a1.034,1.034,0,0,1,1.019-1.019h55.881A1.02,1.02,0,0,1,237.137,378.956Z" transform="translate(-110.648 -305.421)" fill="#f4f4f4"/>
      <path id="パス_4818" data-name="パス 4818" d="M247.026,367.635l-11.412-5.765V307.489c0-1.767.055-3.542,0-5.307a4.886,4.886,0,0,0-4.9-4.784c-4.759-.112-9.534,0-14.294,0H135.729c-.473,0-.947-.012-1.42,0a4.889,4.889,0,0,0-4.9,4.771c-.058,1.759,0,3.531,0,5.291v54.409l-11.52,5.767a.862.862,0,0,0-.471,1.077,1.968,1.968,0,0,1,1.095-.089,1.968,1.968,0,0,0-1.095.089,1.066,1.066,0,0,0,1.5.683l12.025-6.019a1.01,1.01,0,0,0,.5-.88V303.9c0-.568-.024-1.143,0-1.711a2.836,2.836,0,0,1,2.977-2.755c4.977-.048,9.957,0,14.934,0h79.794c.505,0,1.012-.007,1.517,0a3.114,3.114,0,0,1,1.455.33c1.311.694,1.456,1.956,1.456,3.268V362.5a1.011,1.011,0,0,0,.5.88L246,369.395a1.023,1.023,0,0,0,.62.108v0C247.471,369.375,247.982,368.118,247.026,367.635Z" transform="translate(-115.836 -297.348)" fill="#323232"/>
      <path id="パス_4819" data-name="パス 4819" d="M217.78,391.082h87.26v-55.7c-.96.059-2.015-.072-2.928-.072H215.043v55.7C215.952,390.979,216.914,391.082,217.78,391.082Zm44.512-9.416h-40.6a1.02,1.02,0,0,1,0-2.038h40.6A1.02,1.02,0,0,1,262.293,381.665Zm0-3.883h-40.6a1.02,1.02,0,0,1,0-2.038h40.6A1.02,1.02,0,0,1,262.293,377.782Zm15.087-2.431a1.034,1.034,0,0,1-1.019,1.019h-3.83a1.021,1.021,0,0,1-1.019-1.019V368.6a1.034,1.034,0,0,1,1.019-1.019h3.83a1.034,1.034,0,0,1,1.019,1.019Zm6.961,0a1.034,1.034,0,0,1-1.019,1.019h-3.83a1.021,1.021,0,0,1-1.019-1.019V365.23a1.034,1.034,0,0,1,1.019-1.019h3.83a1.034,1.034,0,0,1,1.019,1.019Zm6.961,0a1.034,1.034,0,0,1-1.019,1.019h-3.83a1.021,1.021,0,0,1-1.019-1.019V365.23a1.034,1.034,0,0,1,1.019-1.019h3.83a1.034,1.034,0,0,1,1.019,1.019Zm6.961,0a1.034,1.034,0,0,1-1.019,1.019h-3.83a1.021,1.021,0,0,1-1.019-1.019V360.17a1.034,1.034,0,0,1,1.019-1.019h3.83a1.034,1.034,0,0,1,1.019,1.019Zm-27.144-10.9H274.4l2.757-2.758a1.923,1.923,0,0,1,1.23-.773,12.156,12.156,0,0,1,1.252,0h8.175l9.145-9.145a1.02,1.02,0,0,1,1.441,1.441l-3.174,3.174-4.658,4.658c-.674.674-1.453,1.833-2.465,1.91-1.75.134-3.563,0-5.317,0h-4.008c-1.038,1.064-2.045,2.21-3.171,3.166a2.912,2.912,0,0,1-2.053.364h-2.44A1.02,1.02,0,0,1,271.119,364.447Zm-28.558-4.4a10.456,10.456,0,0,1,20.8,1.4,1.154,1.154,0,0,1,.005.126,10.619,10.619,0,0,1-5.867,9.392,1.2,1.2,0,0,1-.107.054,11.012,11.012,0,0,1-6.8.757A10.571,10.571,0,0,1,242.56,360.051Zm-23.966-.271a10.459,10.459,0,0,1,20.76,1.626c0,.059,0,.118,0,.177a1.127,1.127,0,0,1-.007.15,10.705,10.705,0,0,1-4.323,8.311,1.4,1.4,0,0,1-.12.095,10.453,10.453,0,0,1-16.315-10.358Z" transform="translate(-193.603 -327.57)" fill="#fff"/>
      <path id="パス_4820" data-name="パス 4820" d="M382.414,449.637a3.819,3.819,0,0,0,2.443,3.515,4.118,4.118,0,0,0,2.573.012,3.773,3.773,0,0,0-.881-7.256A3.814,3.814,0,0,0,382.414,449.637Z" transform="translate(-326.861 -415.625)" fill="#fff"/>
      <path id="パス_4821" data-name="パス 4821" d="M211.343,335.314l.031-.024C211.245,335.274,211.212,335.361,211.343,335.314Z" transform="translate(-190.591 -327.555)" fill="#fff"/>
      <path id="パス_4822" data-name="パス 4822" d="M272.126,449.462a3.746,3.746,0,1,0-3.742,3.923,4.082,4.082,0,0,0,2.117-.655A3.822,3.822,0,0,0,272.126,449.462Z" transform="translate(-233.09 -415.626)" fill="#fff"/>
      <path id="パス_4823" data-name="パス 4823" d="M215.024,331.264c0,.019,0,.039.006.059C215.138,331.02,214.99,331.076,215.024,331.264Z" transform="translate(-193.584 -324.228)" fill="#fff"/>
      <path id="パス_4824" data-name="パス 4824" d="M205,370.228v13.839a1.034,1.034,0,0,0,1.019,1.019h80.724c3.706,0,7.447.151,11.151,0,.053,0,.107,0,.161,0a1.034,1.034,0,0,0,1.019-1.019v-57.63a.969.969,0,0,0-.191-.6c-.47-.78-1.611-.6-2.4-.6H206.712c-.968,0-1.695.436-1.715,1.5-.027,1.366,0,2.734,0,4.1v39.39Zm2.044-43.6c0-.02,0-.04-.006-.059C207,326.385,207.149,326.328,207.04,326.631Zm-.662.64-.031.024C206.216,327.343,206.249,327.256,206.378,327.271Zm.656,37.288V327.273H294.1c.913,0,1.968.131,2.928.072v55.7h-87.26c-.867,0-1.829-.1-2.737-.075Z" transform="translate(-185.595 -319.537)" fill="#323232"/>
      <path id="パス_4825" data-name="パス 4825" d="M240.631,655.247v0a.975.975,0,0,0-1.118.98v2.13H116.143c-1.38,0-2.851-.132-4.255-.062v-3.46a1.037,1.037,0,0,0-1.834-.619c-.052.775.381,1.55.226,2.325.155-.775-.278-1.55-.226-2.325a.964.964,0,0,0-.2.619v4.541a1.034,1.034,0,0,0,1.019,1.019H224.62c5.221,0,10.472.164,15.69,0,.074,0,.148,0,.222,0a1.034,1.034,0,0,0,1.019-1.019v-3.149A.953.953,0,0,0,240.631,655.247Z" transform="translate(-109.85 -581.19)" fill="#323232"/>
      <path id="パス_4826" data-name="パス 4826" d="M141.694,650.181h50.219a1.02,1.02,0,0,0,0-2.038H141.694A1.02,1.02,0,0,0,141.694,650.181Z" transform="translate(-134.42 -576.646)" fill="#323232"/>
      <path id="パス_4827" data-name="パス 4827" d="M402.642,652.175h6.464c.776,0,1.563.04,2.338,0a2.538,2.538,0,0,0,2.118-1.21,1.88,1.88,0,0,0,.236-.784h54.873a1.02,1.02,0,0,0,0-2.038H412.791a1.034,1.034,0,0,0-1.019,1.019c0,.241-.008.484,0,.725,0,.029,0,.067.008.107a.64.64,0,0,1-.229.118,4.194,4.194,0,0,1-.513.026h-8.395A1.02,1.02,0,0,0,402.642,652.175Z" transform="translate(-342.183 -576.646)" fill="#323232"/>
      <path id="パス_4828" data-name="パス 4828" d="M398.2,492.054a5.979,5.979,0,0,1-1.725.054l-.258,2.64a8.589,8.589,0,0,0,3.41-.314Z" transform="translate(-337.852 -452.37)" fill="#fff"/>
      <path id="パス_4829" data-name="パス 4829" d="M364.936,439.37q.135-1.386.271-2.773a5.879,5.879,0,0,1-3.117-4.891,1.648,1.648,0,0,1,0-.4,5.862,5.862,0,0,1,5.144-5.547v-2.652a8.4,8.4,0,0,0-2.293,16.259Z" transform="translate(-308.56 -397.479)" fill="#fff"/>
      <path id="パス_4830" data-name="パス 4830" d="M357.676,433.582a11.012,11.012,0,0,0,6.8-.757c.038-.017.074-.035.107-.054a10.619,10.619,0,0,0,5.867-9.392,1.162,1.162,0,0,0-.005-.126,10.457,10.457,0,1,0-12.765,10.33Zm-6.03-11.463A8.5,8.5,0,0,1,359.352,415v2.652a5.862,5.862,0,0,0-5.144,5.547,1.129,1.129,0,0,0-.01.181,1.114,1.114,0,0,0,.014.215,5.879,5.879,0,0,0,3.117,4.891q-.135,1.386-.27,2.773A8.492,8.492,0,0,1,351.646,422.12Zm8.724-2.471a3.773,3.773,0,0,1,.881,7.256,4.118,4.118,0,0,1-2.573-.012,3.75,3.75,0,0,1,1.692-7.244Zm-1.321,12.1.258-2.64a5.979,5.979,0,0,0,1.725-.054l1.428,2.38A8.589,8.589,0,0,1,359.049,431.744Zm5.274-1.169-1.367-2.278a5.729,5.729,0,0,0-1.567-10.49v-2.723a8.4,8.4,0,0,1,2.933,15.491Z" transform="translate(-300.683 -389.367)" fill="#323232"/>
      <path id="パス_4831" data-name="パス 4831" d="M407.7,423.527v2.723a5.729,5.729,0,0,1,1.567,10.49l1.367,2.278a8.4,8.4,0,0,0-2.934-15.491Z" transform="translate(-346.994 -397.81)" fill="#64c8e6"/>
      <path id="パス_4832" data-name="パス 4832" d="M289.915,423.528v2.72a5.827,5.827,0,0,1,4.225,4.379h2.692A8.517,8.517,0,0,0,289.915,423.528Z" transform="translate(-253.215 -397.811)" fill="#fff"/>
      <path id="パス_4833" data-name="パス 4833" d="M241.914,433.552a8.491,8.491,0,0,0,12.166,5.322l-1.642-2.121a6.265,6.265,0,0,1-2.153.506,1.129,1.129,0,0,1-.2.013,1.142,1.142,0,0,1-.188-.01,5.768,5.768,0,0,1-.444-11.5v-2.655A8.492,8.492,0,0,0,241.914,433.552Z" transform="translate(-214.791 -397.475)" fill="#64c8e6"/>
      <path id="パス_4834" data-name="パス 4834" d="M239.1,433.364a10.563,10.563,0,0,0,9.14-1.43,1.4,1.4,0,0,0,.12-.095,10.705,10.705,0,0,0,4.323-8.311,1.125,1.125,0,0,0,.007-.15c0-.059,0-.118,0-.177A10.459,10.459,0,1,0,239.1,433.364Zm3.127-6.239a3.747,3.747,0,1,1,2.117-.655A4.082,4.082,0,0,1,242.226,427.125Zm5.661,2.487-1.641-2.119a5.856,5.856,0,0,0,1.694-3.272h2.654A8.539,8.539,0,0,1,247.887,429.612Zm-.029-7.429a5.827,5.827,0,0,0-4.225-4.379v-2.72a8.517,8.517,0,0,1,6.916,7.1ZM241.595,415v2.655a5.768,5.768,0,0,0,.444,11.5,1.684,1.684,0,0,0,.389,0,6.263,6.263,0,0,0,2.153-.506l1.642,2.121A8.406,8.406,0,1,1,241.595,415Z" transform="translate(-206.933 -389.366)" fill="#323232"/>
      <path id="パス_4835" data-name="パス 4835" d="M304.433,468.359a5.856,5.856,0,0,1-1.694,3.272l1.641,2.119a8.539,8.539,0,0,0,2.707-5.391Z" transform="translate(-263.425 -433.504)" fill="#fff"/>
      <path id="パス_4836" data-name="パス 4836" d="M604.559,475.438h1.792V462.3h-1.792Z" transform="translate(-503.73 -428.677)" fill="#64c8e6"/>
      <path id="パス_4837" data-name="パス 4837" d="M599.408,452.3h-3.83a1.034,1.034,0,0,0-1.019,1.019V468.5a1.021,1.021,0,0,0,1.019,1.019h3.83a1.034,1.034,0,0,0,1.019-1.019V453.315A1.034,1.034,0,0,0,599.408,452.3Zm-1.019,2.038v13.142H596.6V454.334Z" transform="translate(-495.768 -420.715)" fill="#323232"/>
      <path id="パス_4838" data-name="パス 4838" d="M570.407,495.206H572.2v-8.082h-1.792Z" transform="translate(-476.538 -448.445)" fill="#fff"/>
      <path id="パス_4839" data-name="パス 4839" d="M565.256,477.124h-3.83a1.034,1.034,0,0,0-1.019,1.019v10.12a1.021,1.021,0,0,0,1.019,1.019h3.83a1.034,1.034,0,0,0,1.019-1.019v-10.12A1.034,1.034,0,0,0,565.256,477.124Zm-1.019,2.038v8.082h-1.792v-8.082Z" transform="translate(-468.577 -440.483)" fill="#323232"/>
      <path id="パス_4840" data-name="パス 4840" d="M536.254,495.206h1.792v-8.082h-1.792Z" transform="translate(-449.346 -448.445)" fill="#fff"/>
      <path id="パス_4841" data-name="パス 4841" d="M531.1,477.124h-3.83a1.034,1.034,0,0,0-1.019,1.019v10.12a1.021,1.021,0,0,0,1.019,1.019h3.83a1.034,1.034,0,0,0,1.019-1.019v-10.12A1.034,1.034,0,0,0,531.1,477.124Zm-1.019,2.038v8.082h-1.792v-8.082Z" transform="translate(-441.385 -440.483)" fill="#323232"/>
      <ellipse id="楕円形_14" data-name="楕円形 14" cx="1.267" cy="3.33" rx="1.267" ry="3.33" transform="translate(79.576 41.077)" fill="#fff"/>
      <path id="パス_4842" data-name="パス 4842" d="M496.951,493.675h-3.83a1.034,1.034,0,0,0-1.019,1.019v6.747a1.021,1.021,0,0,0,1.019,1.019h3.83a1.034,1.034,0,0,0,1.019-1.019v-6.747A1.034,1.034,0,0,0,496.951,493.675Zm-1.019,2.038v4.709H494.14v-4.709Z" transform="translate(-414.193 -453.661)" fill="#323232"/>
      <path id="パス_4843" data-name="パス 4843" d="M486.328,429.629h2.44a2.912,2.912,0,0,0,2.053-.364c1.126-.956,2.133-2.1,3.171-3.166H498c1.754,0,3.567.134,5.317,0,1.012-.077,1.792-1.237,2.465-1.91l4.658-4.658,3.174-3.174a1.02,1.02,0,0,0-1.441-1.441l-9.145,9.145h-8.175a12.164,12.164,0,0,0-1.252,0,1.923,1.923,0,0,0-1.23.773l-2.757,2.758h-3.285A1.02,1.02,0,0,0,486.328,429.629Z" transform="translate(-408.812 -390.715)" fill="#323232"/>
      <path id="パス_4844" data-name="パス 4844" d="M284.428,533.707h-40.6a1.02,1.02,0,0,0,0,2.038h40.6A1.02,1.02,0,0,0,284.428,533.707Z" transform="translate(-215.738 -485.533)" fill="#323232"/>
      <path id="パス_4845" data-name="パス 4845" d="M284.428,552.76h-40.6a1.02,1.02,0,0,0,0,2.038h40.6A1.02,1.02,0,0,0,284.428,552.76Z" transform="translate(-215.738 -500.703)" fill="#323232"/>
    </g>
    <g id="グループ_9379" data-name="グループ 9379" transform="translate(812.386 60.069)">
      <g id="グループ_9303" data-name="グループ 9303" transform="translate(10.031 0)">
        <path id="パス_4662" data-name="パス 4662" d="M878.044,262.241v6.75a1.026,1.026,0,0,0,2.051,0v-6.75a1.026,1.026,0,0,0-2.051,0Z" transform="translate(-878.044 -261.25)" fill="#c42d2d"/>
      </g>
      <g id="グループ_9304" data-name="グループ 9304" transform="translate(16.677 2.81)">
        <path id="パス_4663" data-name="パス 4663" d="M920.447,278.188l-3.375,5.846a1.026,1.026,0,0,0,1.771,1.035l3.375-5.846a1.026,1.026,0,0,0-1.771-1.035Z" transform="translate(-916.927 -277.691)" fill="#c42d2d"/>
      </g>
      <g id="グループ_9305" data-name="グループ 9305" transform="translate(0 2.81)">
        <path id="パス_4664" data-name="パス 4664" d="M819.5,279.225l3.375,5.846a1.026,1.026,0,0,0,1.771-1.035l-3.375-5.846a1.026,1.026,0,0,0-1.771,1.035Z" transform="translate(-819.351 -277.693)" fill="#c42d2d"/>
      </g>
    </g>
    <path id="パス_5520" data-name="パス 5520" d="M-79.756,8.93l2.832.9a32.665,32.665,0,0,1-1.992,4.1V27.855h-2.871V18.148q-.391.469-1.211,1.289a15.426,15.426,0,0,0-.732-1.514,12.575,12.575,0,0,0-.908-1.494,17.507,17.507,0,0,0,2.764-3.35A21.357,21.357,0,0,0-79.756,8.93Zm14.316,8.691h-4.687v6.758h4.336v2.793H-77.686V24.379h4.551V17.621h-5.1V14.809h5.1V9.32h3.008v5.488h4.688Zm12.754,4.688v2.5h3.105v-2.5Zm3.105-9.863h-3.105v2.266h3.105Zm0,7.246V17.328h-3.105v2.363Zm-10.762-2.207,1.387-.059q-.352-.84-.488-1.094Q-59.99,17.074-60.342,17.484Zm13.711,7.324h1.23v2.6H-57.2V24.965l-.9.313a25.329,25.329,0,0,0-.8-2.891v5.508h-2.559V21.7a16.261,16.261,0,0,1-1.074,4.8,11.23,11.23,0,0,0-2.187-1.055,13.86,13.86,0,0,0,.918-4.609l2.344.41V19.945l-2.812.2-.254-2.5,1.582-.059.7-.937a18.068,18.068,0,0,0-2.285-2.676l1.348-2.031.41.352A22.627,22.627,0,0,0-61.475,8.93l2.559.879q-1.6,3.008-2.285,4.082.059.078.215.264t.215.264a32.469,32.469,0,0,0,1.68-3.086l2.441,1.016q-1.543,2.3-2.676,3.848l1.855-.82a15.293,15.293,0,0,1,1.777,4.3l-2.187,1.016q-.117-.605-.234-1.016l-.781.059v1.543l1.777-.566a23.179,23.179,0,0,1,1.27,3.75l-.918.352h1.27V9.848h8.867Zm3.477-10.273V11.41h7.344q0,.02-.01.8t-.1,2.08q-.088,1.3-.283,2.881a16.317,16.317,0,0,1,1.7.664q.1-.84.146-1.719t.049-1.8h2.578v.635q0,.615-.068,1.67t-.225,2.363q.742.371,1.162.615t.439.244v3.516q-.02-.02-.586-.361t-1.5-.85q-.254,1.289-.625,2.52a13.94,13.94,0,0,1-.918,2.3h-3.125q0-.02.361-.752a22.516,22.516,0,0,0,.859-2.09,28.61,28.61,0,0,0,.947-3.271q-.449-.215-.879-.4t-.84-.342l-.01.02-.01.02a14.784,14.784,0,0,1-.937,2.656,8.64,8.64,0,0,1-1.494,2.3,2.907,2.907,0,0,1-1.943,1.016A2.481,2.481,0,0,1-43.4,24.75a6.139,6.139,0,0,1-.5-3.652,4.487,4.487,0,0,1,1.006-2.256,6.158,6.158,0,0,1,1.875-1.523A5.417,5.417,0,0,1-38.74,16.7q.078-.625.117-1.191t.059-.977Zm2.129,8.457a.963.963,0,0,0,.752-.527,5.118,5.118,0,0,0,.537-1.172q.215-.664.332-1.182t.117-.537a1.966,1.966,0,0,0-1.133.332,2.249,2.249,0,0,0-.732.781,3.916,3.916,0,0,0-.342.8,1.767,1.767,0,0,0,.068,1.133Q-41.221,22.992-41.025,22.992ZM-24.209,9.145l2.891.957a32.786,32.786,0,0,1-1.973,3.945V27.855h-2.93V18.207a19.409,19.409,0,0,1-1.621,1.719,15.964,15.964,0,0,0-.762-1.6,14.839,14.839,0,0,0-.9-1.523,18.67,18.67,0,0,0,2.988-3.418A21.387,21.387,0,0,0-24.209,9.145ZM-16.162,25H-13.8a.854.854,0,0,0,.879-.645,13.449,13.449,0,0,0,.332-2.793,7.041,7.041,0,0,0,2.7,1.211,8.308,8.308,0,0,1-1,3.828A2.964,2.964,0,0,1-13.506,27.7h-3.047a3.6,3.6,0,0,1-2.812-.869,5.187,5.187,0,0,1-.742-3.252V9.438h2.949V15.98A38.589,38.589,0,0,0-12.627,12.8l2.148,2.559a45.978,45.978,0,0,1-6.68,3.633V23.6a2.487,2.487,0,0,0,.166,1.172Q-16.826,25-16.162,25Zm19.8-6.973q-1.816,0-3.145.117a14.63,14.63,0,0,0-2.578.459,6.208,6.208,0,0,0-2.139,1.016,2.149,2.149,0,0,0-.908,1.748A1.864,1.864,0,0,0-4.463,22.9a3.534,3.534,0,0,0,1.553.664,10.924,10.924,0,0,0,1.963.166,20.063,20.063,0,0,0,2.266-.01q1.035-.068,1.68-.137l.645-.068v3.125a33.743,33.743,0,0,1-4.531.078,16.421,16.421,0,0,1-3.506-.508,5.956,5.956,0,0,1-2.783-1.6A4.284,4.284,0,0,1-8.193,21.2a5.964,5.964,0,0,1,.537-2.08,4.15,4.15,0,0,1,1.143-1.426,16.824,16.824,0,0,1,1.426-1.025L-5.986,11h2.715l.723,4.727A16.1,16.1,0,0,1,.42,15.043a28.742,28.742,0,0,1,3.223-.2Zm15.605-3.223a17.751,17.751,0,0,1-2.617,5.82A14.639,14.639,0,0,1,13.223,24.1a12.967,12.967,0,0,1-3.35,1.729,12.438,12.438,0,0,1-2.588.6,9.755,9.755,0,0,1-1.025.068V23.3a6.14,6.14,0,0,0,.8-.029,9.777,9.777,0,0,0,2-.4,8.243,8.243,0,0,0,2.568-1.348A12.1,12.1,0,0,0,14.121,19a14.866,14.866,0,0,0,2.021-4.189ZM6.26,14.359V11.293h5.723v3.066Zm0,4.746V16.039h5.723v3.066Zm15.293-4.57V11.391h11.23a18.668,18.668,0,0,1-1.26,4.2,24.462,24.462,0,0,1-1.865,3.5q.879,1.152,1.748,2.109a14.649,14.649,0,0,0,1.5,1.475q.635.518.654.537v3.73q-1.055-.762-1.914-1.484a23.149,23.149,0,0,1-1.836-1.748,24.56,24.56,0,0,1-1.895-2.256A20.818,20.818,0,0,1,25.488,24a18.713,18.713,0,0,1-2.295,1.748,16.874,16.874,0,0,1-1.7.967q-.645.3-.664.3v-3.5a13.438,13.438,0,0,0,3.057-2.109,21.044,21.044,0,0,0,2.549-2.832,17.883,17.883,0,0,0,2.188-4.043ZM35.5,19.34V16.352H48.232V19.34H44.17a7.758,7.758,0,0,1-1,3.477A6.648,6.648,0,0,1,41.094,25a10.309,10.309,0,0,1-2.383,1.172,11.8,11.8,0,0,1-1.895.479,5.389,5.389,0,0,1-.771.088V23.6a4.98,4.98,0,0,0,.742-.088A7.682,7.682,0,0,0,38.5,23a4.094,4.094,0,0,0,1.68-1.27,4.393,4.393,0,0,0,.83-2.393Zm.547-5.039V11.313h11.66V14.3Zm21.172-3.145q-.664,3.281-1.357,5.85T54.619,21.2q-.547,1.621-.723,2.031h6.211a28.725,28.725,0,0,0-.8-3q-.527-1.65-1.289-3.486h3.2a46.327,46.327,0,0,1,1.65,4.766,39.836,39.836,0,0,1,1.064,4.785H50.342v-2.91q.8-2.012,1.406-3.73t1.23-3.906q.625-2.187,1.094-4.59ZM70.264,9.145l2.891.957a32.786,32.786,0,0,1-1.973,3.945V27.855h-2.93V18.207a19.409,19.409,0,0,1-1.621,1.719,15.964,15.964,0,0,0-.762-1.6,14.838,14.838,0,0,0-.9-1.523,18.67,18.67,0,0,0,2.988-3.418A21.387,21.387,0,0,0,70.264,9.145ZM78.311,25h2.363a.854.854,0,0,0,.879-.645,13.449,13.449,0,0,0,.332-2.793,7.041,7.041,0,0,0,2.7,1.211,8.308,8.308,0,0,1-1,3.828A2.964,2.964,0,0,1,80.967,27.7H77.92a3.6,3.6,0,0,1-2.812-.869,5.187,5.187,0,0,1-.742-3.252V9.438h2.949V15.98A38.589,38.589,0,0,0,81.846,12.8l2.148,2.559a45.978,45.978,0,0,1-6.68,3.633V23.6a2.487,2.487,0,0,0,.166,1.172Q77.646,25,78.311,25Z" transform="translate(810.75 203)" fill="#ffda2b"/>
    <path id="パス_5521" data-name="パス 5521" d="M-83.344-9.172v-2.516h8.984a14.935,14.935,0,0,1-1.008,3.359,19.57,19.57,0,0,1-1.492,2.8q.7.922,1.4,1.688a11.719,11.719,0,0,0,1.2,1.18q.508.414.523.43V.75q-.844-.609-1.531-1.187a18.519,18.519,0,0,1-1.469-1.4,19.648,19.648,0,0,1-1.516-1.8A16.654,16.654,0,0,1-80.2-1.6,14.97,14.97,0,0,1-82.031-.2,13.5,13.5,0,0,1-83.391.57q-.516.242-.531.242v-2.8a10.75,10.75,0,0,0,2.445-1.687,16.835,16.835,0,0,0,2.039-2.266,14.307,14.307,0,0,0,1.75-3.234Zm16.641-2.7q-.531,2.625-1.086,4.68t-.992,3.352q-.437,1.3-.578,1.625h4.969a22.98,22.98,0,0,0-.641-2.4q-.422-1.32-1.031-2.789H-63.5a37.061,37.061,0,0,1,1.32,3.813A31.869,31.869,0,0,1-61.328.234H-72.2V-2.094q.641-1.609,1.125-2.984t.984-3.125q.5-1.75.875-3.672Zm6.938,7.219V-7.109h7.219v2.453ZM-40.484-10.5v-2.25h1.078v2.25ZM-50.5-9.172v-2.516h8.328V-12.75h1.078v2.25h-.687a15.639,15.639,0,0,1-.734,2.172,20.118,20.118,0,0,1-1.5,2.8q.7.922,1.4,1.688a11.719,11.719,0,0,0,1.2,1.18q.508.414.523.43V.75q-.844-.609-1.531-1.187a18.519,18.519,0,0,1-1.469-1.4,19.648,19.648,0,0,1-1.516-1.8A16.655,16.655,0,0,1-47.352-1.6,14.97,14.97,0,0,1-49.187-.2,13.5,13.5,0,0,1-50.547.57q-.516.242-.531.242v-2.8a10.75,10.75,0,0,0,2.445-1.687,16.836,16.836,0,0,0,2.039-2.266,14.306,14.306,0,0,0,1.75-3.234Zm15.844-1.844h5.938v2.391h-5.937Zm.141,5.547h2.172a6.729,6.729,0,0,0-.437.984,3.176,3.176,0,0,0-.156.906,1.158,1.158,0,0,0,.109.563.96.96,0,0,0,.508.438,3.041,3.041,0,0,0,1.133.188,18.249,18.249,0,0,0,2.031-.086,6.418,6.418,0,0,0,.719-.1V-.094a8.908,8.908,0,0,1-1.148.125q-.633.031-1.758.047a4.219,4.219,0,0,1-2.781-.9,2.861,2.861,0,0,1-1-2.1A4.545,4.545,0,0,1-35-4.289,5.65,5.65,0,0,1-34.516-5.469Zm-3.5-6.234h2.344q-.234,1.812-.344,3.172t-.125,2.781q.031,1.5.164,2.891t.43,3.219h-2.422q-.25-1.75-.367-3.125T-38.469-5.7q.016-1.469.125-2.836T-38.016-11.7Zm20.156,2.391H-21.2A6.407,6.407,0,0,1-20.8-8.3l-.187.031h2.719Q-18-8.875-17.859-9.312Zm5.516,7.266h-4.094A15.109,15.109,0,0,0-11.875-.734,7.592,7.592,0,0,0-12.7.242a12.4,12.4,0,0,0-.75,1.133,12.424,12.424,0,0,1-5-2.406V1.516h-2.312V-.937A14.881,14.881,0,0,1-25.8,1.375,8.213,8.213,0,0,0-27.3-.562a15.974,15.974,0,0,0,4.625-1.484h-4.094V-3.937h6v-.453H-25.3V-6.031h4.531v-.453h-5.312V-8.266h2.8a10.274,10.274,0,0,0-.375-1.047h-3.078V-11.2h1.922a14.551,14.551,0,0,0-.859-1.781l2-.672a10.42,10.42,0,0,1,1.141,2.2l-.719.25h1.141v-2.5h2.156v2.5h.781v-2.5h2.188v2.5h1.047l-.469-.141a10.663,10.663,0,0,0,.891-2.25l2.453.547q-.828,1.359-1.172,1.844h1.844v1.891H-15.3q-.047.078-.273.469l-.336.578h2.875v1.781h-5.422v.453h4.7v1.641h-4.7v.453h6.109ZM-4.25-4.719h2.094q.047-.406.109-1.141-1.125.375-1.437.453-.078-.156-.453-.7Q-4.031-5.625-4.25-4.719ZM.344-10.187H-1.437a4.809,4.809,0,0,0,1.031.953A4.537,4.537,0,0,0,.344-10.187Zm3.391,0H2.953A8.013,8.013,0,0,1,1.578-8.109,12.309,12.309,0,0,0,4.2-7.375,7.1,7.1,0,0,0,2.75-5.406,11.4,11.4,0,0,1-.328-6.641q-.844.437-1.187.578h1.8Q.25-5.594.156-4.719H3.625q-.031.563-.062.844Q3.234-.172,2.578.547A2.048,2.048,0,0,1,1.313,1.2a10.769,10.769,0,0,1-1.8.063A4.386,4.386,0,0,0-1.109-.859Q-.422-.8.141-.8a.676.676,0,0,0,.5-.187,3.8,3.8,0,0,0,.5-1.828H-.234A6.6,6.6,0,0,1-1.664-.273a7.543,7.543,0,0,1-2.789,1.8A5.08,5.08,0,0,0-5.031.586a6.075,6.075,0,0,0-.75-.852A5.078,5.078,0,0,0-2.672-2.812H-4.25V-4.7a12.686,12.686,0,0,1-.406,1.375l-1.531-.719q.234-1.031.359-2h-.5V-.922A3.858,3.858,0,0,1-6.492.344a1.356,1.356,0,0,1-.617.719,5.25,5.25,0,0,1-2.422.391,7.232,7.232,0,0,0-.656-2.219q.547.031,1.406.031.266-.016.266-.234V-3.484a8.224,8.224,0,0,1-1.8,2.438,11.169,11.169,0,0,0-1.047-2.266A8.147,8.147,0,0,0-9.25-6.047h-1.766V-8.062H-7.8a22.279,22.279,0,0,0-2.7-1.219l1.453-1.484q.312.094,1.078.375.453-.422.672-.672h-3.469v-1.922H-5.7l.344-.094,1.484.922A11.168,11.168,0,0,1-6.094-9.562a11.055,11.055,0,0,1,1.078.578l-.875.922h.531l.313-.094,1.391.438-.016.125a8.92,8.92,0,0,0,1.453-.5,8,8,0,0,1-.812-.953q-.187.188-.469.438A10.815,10.815,0,0,0-5.391-9.891a9.127,9.127,0,0,0,1.766-1.7A9.46,9.46,0,0,0-2.312-13.7l2.156.609q-.219.469-.531,1H3.734ZM5.141-8.625v-2.156H8.5q.172-.562.273-.914l.1-.352h2.359a1.609,1.609,0,0,0-.094.344,8.918,8.918,0,0,1-.281.922h3.563v2.156H9.828a1.946,1.946,0,0,1-.187.391q-.187.344-.328.641.016-.016.18-.133a.965.965,0,0,1,.273-.148A1.814,1.814,0,0,1,11.4-7.891a1.869,1.869,0,0,1,.789,1.172q.875-.469,1.648-.8t1.234-.5l.461-.172v2.531q-.016,0-.484.156t-1.211.422q-.742.266-1.508.609v2.188H10.188V-3.406a1.7,1.7,0,0,1-.148.1,2.449,2.449,0,0,1-.227.133q-.672.563-.562,1.047t1.141.516a19.768,19.768,0,0,0,2.07-.133q.977-.117,1.6-.234t.641-.133V.469a9.33,9.33,0,0,1-1.18.148,32.429,32.429,0,0,1-3.273.1A3.734,3.734,0,0,1,8.227.125,2.507,2.507,0,0,1,7.2-1.273a2.63,2.63,0,0,1,.164-1.8A4.371,4.371,0,0,1,8.891-4.828q.328-.219.648-.422t.648-.406a.544.544,0,0,0-.141-.391.607.607,0,0,0-.469-.062,2.746,2.746,0,0,0-.742.367,8.914,8.914,0,0,0-.93.7Q7.422-4.625,7-4.25q-.766.844-1.32,1.383t-.586.555V-5.219a4.865,4.865,0,0,0,.383-.336A7.5,7.5,0,0,0,6.313-6.5q.469-.609.984-1.406.109-.187.227-.437t.133-.281Zm18.8,5.672v1.734q.328-.031.953-.109t.953-.125A9.368,9.368,0,0,1,25-2.953ZM20.547-8.422v.172q0,1.813-.141,3.359h2.172v-.8H20.766V-7.594h1.813v-.828Zm7.906-2.672H20.547v.719h7.906Zm-1.828,3.5v-.828H24.7v.828Zm0,2.7v-.8H24.7v.8Zm2.344,1.938H27.25a3.855,3.855,0,0,0,.609.734Q28.047-2.312,28.969-2.953Zm1.063,0,1.172.8a14.414,14.414,0,0,1-1.75,1.031A8.747,8.747,0,0,0,31.8-.391a6.018,6.018,0,0,0-.742.9,7.612,7.612,0,0,0-.617,1.023A7.69,7.69,0,0,1,26.375-.8L26.438.469q-1.234.188-5.844.844L20.266-.8q.078-.016.641-.07L21.8-.953v-2H20.359V-4.437a14.032,14.032,0,0,1-1.766,6.016A8.749,8.749,0,0,0,17.578.922,7.213,7.213,0,0,0,16.484.391a8.615,8.615,0,0,0,.938-1.969,12,12,0,0,0,.531-2.352q.156-1.242.2-2.187T18.2-8.25v-4.8H30.813v4.625H28.781v.828h2.078v1.906H28.781v.8h2.828v1.938Zm7.594-8.531H35.672v.547h1.953ZM35.672-8.875h1.953v-.594H35.672ZM39.8-7.25H35.672V1.516H33.406V-13.109H39.8Zm-.156,3.438H40.7v-.906H39.641Zm4.641,1.875H42.734V1.234H40.7V-1.937H39.578A6.518,6.518,0,0,1,38.938,0a4.062,4.062,0,0,1-1.359,1.547A5.613,5.613,0,0,0,36.109.234a3.325,3.325,0,0,0,1.469-2.172H36.2V-3.812h1.469v-.906H36.406V-6.531h7.656v1.813H42.734v.906h1.547ZM42.844-8.828h2.016v-.641H42.844Zm2.016-2.656H42.844v.547h2.016Zm2.281-1.625V-1.094A4.229,4.229,0,0,1,46.969.266a1.436,1.436,0,0,1-.641.766,5.583,5.583,0,0,1-2.734.422A6.512,6.512,0,0,0,43.344.3a7,7,0,0,0-.422-1.125q.609.031,1.609.031a.29.29,0,0,0,.328-.328V-7.2H40.641v-5.906Zm9.469,7.234v-2.25h1.078v2.25Zm1.688,0v-2.25h1.078v2.25Zm1.094-5.656v2.391a6.535,6.535,0,0,0-2.68.82A7.555,7.555,0,0,0,54.82-6.789a4.358,4.358,0,0,0-.977,1.664,2.361,2.361,0,0,0,.047,1.7,2.034,2.034,0,0,0,.914.922,2.889,2.889,0,0,0,1.086.32,11.584,11.584,0,0,0,1.2,0q.578-.031,1.023-.086t.461-.055v2.5a13.444,13.444,0,0,1-1.516.117Q56.406.3,55.7.25a6.236,6.236,0,0,1-1.531-.3,4.725,4.725,0,0,1-1.586-.852,3.694,3.694,0,0,1-1.094-1.547,4.9,4.9,0,0,1-.211-2.391,5.845,5.845,0,0,1,.6-1.8,6.7,6.7,0,0,1,.938-1.352,9.121,9.121,0,0,1,.867-.852,2.547,2.547,0,0,1,.391-.3H49.141v-2.391Zm2.266.719q.953.031,1.633.031h1.539q-.141-.656-.234-1.016t-.094-.375h2.484q.047.312.125.625t.156.641q.953-.047,1.711-.133t1.234-.156q.477-.07.492-.07v2.219a23.023,23.023,0,0,1-2.906.281q.078.312.172.617t.172.617q.875-.078,1.7-.156t1.344-.141a3.327,3.327,0,0,0,.516-.078v2.266q-.812.125-1.461.2t-1.477.133q.313,1.016.5,1.609a5.054,5.054,0,0,0,.2.594H66.891q-.141-.484-.3-1.008t-.3-1.055q-.859.031-1.687.047t-1.578.016h-1.7V-7.344q1.391-.016,2.352-.031t2.008-.047q-.078-.328-.164-.633t-.148-.6q-1.016.031-1.82.039t-1.344,0l-.555-.008Zm1.078,6.656h2.484a6.3,6.3,0,0,0-.492.836,1.4,1.4,0,0,0-.148.664.866.866,0,0,0,.125.477.851.851,0,0,0,.5.3,6.074,6.074,0,0,0,1.313.141q1.094,0,2.016-.078t2.078-.25V.531Q70.3.547,69.336.648T66.422.766A5.331,5.331,0,0,1,63.25-.062,2.631,2.631,0,0,1,62.156-2.3a3.283,3.283,0,0,1,.156-.961A5.05,5.05,0,0,1,62.734-4.156Zm11.828-7.469h7.375v2.188L79.156-7.391a3.809,3.809,0,0,1,2.352.148,3.128,3.128,0,0,1,1.445,1.352A4.59,4.59,0,0,1,83.5-3.734a4.128,4.128,0,0,1-.617,2.32A4.01,4.01,0,0,1,81.242.07a6.47,6.47,0,0,1-2.156.617A5.8,5.8,0,0,1,76.844.5,2.772,2.772,0,0,1,75.43-.359a2.361,2.361,0,0,1-.508-1.516A2.875,2.875,0,0,1,75.2-3.109a2.014,2.014,0,0,1,.961-1,3.047,3.047,0,0,1,1.828-.172,3.121,3.121,0,0,1,1.625.766,4.165,4.165,0,0,1,.969,1.438,1.949,1.949,0,0,0,.484-.766,2.636,2.636,0,0,0,.125-.922,1.521,1.521,0,0,0-.555-1.258,2.812,2.812,0,0,0-1.82-.414,5.219,5.219,0,0,0-2.039.43,6.568,6.568,0,0,0-1.461.945L73.469-2.531V-5.5l4.875-3.687H74.563Zm3,8.875a.632.632,0,0,0-.625.281.679.679,0,0,0-.016.648,1.044,1.044,0,0,0,.688.523,2.626,2.626,0,0,0,.945.094,2.647,2.647,0,0,0,.414-.062,1.739,1.739,0,0,0-.492-.977A1.607,1.607,0,0,0,77.563-2.75Z" transform="translate(810.75 203)" fill="#fff"/>
  </g>
</svg>
