<svg xmlns="http://www.w3.org/2000/svg" width="765.064" height="43.934" viewBox="0 0 765.064 43.934">
  <path id="パス_5515" data-name="パス 5515" d="M-374.963-16.8q0,5.256,2.493,8.153a8.306,8.306,0,0,0,6.626,2.9,23.941,23.941,0,0,0,7.906-1.482V-.584a36.751,36.751,0,0,1-8.85,1.033q-7.547,0-11.859-4.447t-4.312-12.8q0-8.176,4.178-12.713t11.68-4.537a32.94,32.94,0,0,1,8.76,1.078v6.693a24.671,24.671,0,0,0-7.816-1.437,7.971,7.971,0,0,0-6.491,2.785Q-374.963-22.146-374.963-16.8ZM-353.67,0-342.8-33.6h8.311L-323.617,0h-8.311l-1.842-7.277H-343.7L-345.539,0Zm11.41-13.207h7.008l-3.459-13.611h-.09Zm47.572-10.377h-.09L-299.27,0h-8l-4.447-23.584h-.09L-313.42,0h-7.547l3.773-33.6h9.344l4.627,25.65h.09l4.672-25.65h9.3L-285.389,0h-7.727Zm14.375-3.5q2.965-.27,5.256-.449.045-3.189.045-7.143h6.873q.045,3.908-.09,6.828h3.414a6.351,6.351,0,0,1,5.188,2.2q1.819,2.2,2.179,6.918a63.418,63.418,0,0,1,.247,7.008,34.185,34.185,0,0,1-.741,6.671A11.3,11.3,0,0,1-260.21-.09a5.686,5.686,0,0,1-4.38,1.977,21.614,21.614,0,0,1-3.8-.337,9.182,9.182,0,0,1-1.415-.337V-5.975a13.548,13.548,0,0,0,4.133.809q1.168-.135,1.595-2.224a25.663,25.663,0,0,0,.427-5.054q0-2.965-.18-5.84,0-1.707-.629-2.179a4.321,4.321,0,0,0-2.246-.562,8.041,8.041,0,0,0-.921.045,9.037,9.037,0,0,1-1.011.045,82.172,82.172,0,0,1-1.887,11.59,97.813,97.813,0,0,1-3.324,10.871h-7.232a66,66,0,0,0,3.818-10.646,76.726,76.726,0,0,0,1.887-11.365q-2.2.18-3.526.337t-1.415.157Zm22.057-1.932h6.738a63.3,63.3,0,0,1,3.324,13.836h-6.6A44.893,44.893,0,0,0-258.256-29.02Zm-.494-1.527v-6.469h3.1v6.469Zm4.852,0v-6.469h3.1v6.469Zm17.025,1.078v5.256h-6.783V-35.668h16.082V-39.4h7.188v3.729h16.531v11.455H-211v-5.256Zm18.643,13.342h-9.3q-.449.9-1.3,2.493t-1.123,2.134q4.088,1.213,7.771,2.561A16.6,16.6,0,0,0-218.23-16.127Zm15.049,0h-7.277a29.18,29.18,0,0,1-5.121,9.748,82.694,82.694,0,0,1,10.736,5.121l-5.48,5.436a74.492,74.492,0,0,0-10.826-5.66q-6.289,4.088-18.553,5.84A16.555,16.555,0,0,0-241.275,1.3a25.923,25.923,0,0,0-2.156-3.055q9.254-.719,14.555-2.875-3.594-1.3-4-1.437l-.674,1.168-7.1-1.887q2.7-4.4,5.3-9.344h-9.074v-6.334h12.309q2.111-4.357,2.965-6.469l7.1,1.482q-.4.943-1.3,2.763t-1.078,2.224h21.248Zm32.479-8.086V-28.93h-1.752v4.717ZM-163.381-4.9V-18.418h-1.752V-4.9Zm-16.352-13.521V-4.9h1.662V-18.418Zm9.029,0h-1.8V-4.9h1.8Zm13.926-10.512h-7.637v4.717h7.457V3.01h-6.424V.809h-16.352V3.279h-6.109V-24.213h7.143V-28.93h-7.5v-5.076q-.988,2.381-2.74,5.705V4.357h-6.244V-18.6q-.9,1.123-1.932,2.2a27.955,27.955,0,0,0-1.482-3.369,32.548,32.548,0,0,0-1.887-3.369,37.929,37.929,0,0,0,5.436-7.21,47.121,47.121,0,0,0,4.133-8.872l6.02,1.932q-.494,1.393-.9,2.381h29.02Zm26.01,12.039v-6.469h3.1v6.469Zm4.852,0v-6.469h3.1v6.469Zm3.145-16.262v6.873a18.789,18.789,0,0,0-7.7,2.358,21.721,21.721,0,0,0-5.436,4.4,12.528,12.528,0,0,0-2.808,4.784,6.789,6.789,0,0,0,.135,4.874,5.849,5.849,0,0,0,2.628,2.65,8.306,8.306,0,0,0,3.122.921,33.3,33.3,0,0,0,3.459,0q1.662-.09,2.942-.247t1.325-.157V.494a38.651,38.651,0,0,1-4.357.337q-1.887.022-3.908-.112a17.928,17.928,0,0,1-4.4-.876,13.585,13.585,0,0,1-4.56-2.448,10.621,10.621,0,0,1-3.145-4.447,14.094,14.094,0,0,1-.606-6.873,16.8,16.8,0,0,1,1.729-5.166,19.263,19.263,0,0,1,2.7-3.886,26.222,26.222,0,0,1,2.493-2.448,7.324,7.324,0,0,1,1.123-.854h-14.2v-6.873Zm21.518,10.018,10.691-.314q-.9-.988-2.74-2.83l3.863-2.2h-8.984Q-100.086-25.111-101.254-23.135Zm-14.42,7.277-.225-6.918q2.74-.045,7.322-.135a51.212,51.212,0,0,0,2.2-5.57h-11.051V-34.77h16.8v-4.582h6.918v4.582h16.936v6.289h-9.838q7.232,6.738,9.793,10.826l-6.154,3.729a32.128,32.128,0,0,0-2.291-3.369Q-102.107-16.4-115.674-15.857Zm8.85.674h7.143a48.9,48.9,0,0,1-.629,5.323,21.978,21.978,0,0,1-1.415,4.56,13.017,13.017,0,0,1-2.628,4.043,18.724,18.724,0,0,1-4.38,3.189,31.066,31.066,0,0,1-6.581,2.605,16.334,16.334,0,0,0-1.64-3.122,15.677,15.677,0,0,0-2.224-2.808,30.447,30.447,0,0,0,4.133-1.235,22.86,22.86,0,0,0,3.055-1.415,8.257,8.257,0,0,0,2.156-1.752A13.2,13.2,0,0,0-108.419-7.7a8.372,8.372,0,0,0,.854-2.269,22.955,22.955,0,0,0,.472-2.448Q-106.959-13.477-106.824-15.184ZM-86.115-2.066h3.189a1.45,1.45,0,0,0,.831-.2A1.811,1.811,0,0,0-81.6-3.3a13.035,13.035,0,0,0,.292-2.111q.09-1.28.18-3.751a10.613,10.613,0,0,0,2.763,1.572,22.116,22.116,0,0,0,3.3,1.123q-.449,6.289-1.954,8.49t-5.278,2.2h-4.9q-4.268,0-5.75-1.729t-1.482-6.312V-15.363h6.783V-3.908a2.9,2.9,0,0,0,.247,1.55Q-87.148-2.066-86.115-2.066Zm21.787-24.977h9.568v-1.932h6.783v1.932h9.838v-2.74H-64.328Zm33.6,20.484H-44.832Q-40.07-2.2-30.053-1.348a19.356,19.356,0,0,0-3.908,5.84A32.44,32.44,0,0,1-44.428,1.258,19.907,19.907,0,0,1-51.3-4.9q-4.762,6.244-16.8,9.254a19.963,19.963,0,0,0-4.133-5.391q9.7-1.932,13.791-5.525H-71.111v-5.75h16.037a11.071,11.071,0,0,0,.27-2.111H-65.99v-5.3h11.23V-21.7H-66.709v-3.414h-4.223V-35.578H-54.58v-3.639h6.918v3.639h16.441v10.467h-3.818V-21.7H-47.977v1.977h11.859v5.3h-11.9q0,.4-.225,2.111h17.52Zm13.836-28.615v25.066A6.922,6.922,0,0,0-16.015-6.2,3.409,3.409,0,0,0-13.3-4.807,12.539,12.539,0,0,0-8.288-5.952a39,39,0,0,0,5.166-2.74q2.538-1.595,5.862-4.155v8.221A46.1,46.1,0,0,1-2.291-1.146a30.439,30.439,0,0,1-5.256,2.4A20,20,0,0,1-13.7,2.381q-5.256-.09-7.592-3.077t-2.336-8.288V-35.174ZM8.535-23.494v-6.379h6.2q.225-2.336.337-3.639t.112-1.348h6.2q-.135,2.561-.4,4.986h6.379v5.48q6.289-.135,11.455-.045v6.6q-2.605-.135-5.705-.157t-8.49.112l-.135-5.615H20.3q-.988,7.727-2.111,13.3T16.352-1.572q-.719,3.055-.764,3.055H8.76q1.932-6.648,3.212-13.162t2-11.814ZM22.146-12.668h6.244q-2.066,3.324-1.932,5.413t4.223,2.134q2.516,0,4.38-.09t3.122-.18l1.258-.09V1.438q-2.83.225-5.233.292t-5.5-.112A10.459,10.459,0,0,1,23.539.292a6.649,6.649,0,0,1-2.65-2.92,8.858,8.858,0,0,1-.764-3.616,11.156,11.156,0,0,1,.517-3.437A15.923,15.923,0,0,1,22.146-12.668ZM48.83-11.545v-9.973H44.248v-7.187H48.83v-6.289h6.783v6.289h8.58v-6.469h6.783v6.469h4.807v7.188H70.977v6.289A15.782,15.782,0,0,1,69-7.345a15.159,15.159,0,0,1-4.852,5.076A26.084,26.084,0,0,1,58.376.584a31.37,31.37,0,0,1-4.717,1.258q-1.909.314-1.954.314V-5.121q.045,0,1.325-.18a23.116,23.116,0,0,0,3.189-.741,13.462,13.462,0,0,0,3.616-1.685,11.307,11.307,0,0,0,3.01-2.965,7.9,7.9,0,0,0,1.348-4.537v-6.289h-8.58v9.973Zm31.221-1.842v-7.053H100.8v7.053Zm45.191-16.621v-6.469h3.1v6.469Zm4.852,0v-6.469h3.1v6.469ZM107-34.32h6.873v5.93H133.1v7.053H113.877V-9.7a3.986,3.986,0,0,0,1.1,2.718q1.011,1.011,3.8,1.146,3.953.045,7.053-.18t7.277-.9V.27q-4.043.449-7.412.651t-7.457.112a13.67,13.67,0,0,1-7.951-2.561q-3.01-2.336-3.279-7.5Zm32.523,7.951V-33.6h25.83a42.937,42.937,0,0,1-2.9,9.658,56.262,56.262,0,0,1-4.29,8.041q2.021,2.65,4.021,4.852a33.692,33.692,0,0,0,3.459,3.392q1.46,1.19,1.5,1.235v8.58q-2.426-1.752-4.4-3.414a53.243,53.243,0,0,1-4.223-4.021,56.488,56.488,0,0,1-4.357-5.188A47.882,47.882,0,0,1,148.579-4.6,43.039,43.039,0,0,1,143.3-.584a38.812,38.812,0,0,1-3.908,2.224q-1.482.7-1.527.7V-5.705a30.907,30.907,0,0,0,7.03-4.852,48.4,48.4,0,0,0,5.862-6.514,41.131,41.131,0,0,0,5.031-9.3Zm33.063-.719q2.965-.27,5.256-.449.045-3.189.045-7.143h6.873q.045,3.908-.09,6.828h3.414a6.351,6.351,0,0,1,5.188,2.2q1.819,2.2,2.179,6.918a63.414,63.414,0,0,1,.247,7.008,34.185,34.185,0,0,1-.741,6.671A11.3,11.3,0,0,1,192.692-.09a5.686,5.686,0,0,1-4.38,1.977,21.614,21.614,0,0,1-3.8-.337,9.182,9.182,0,0,1-1.415-.337V-5.975a13.548,13.548,0,0,0,4.133.809Q188.4-5.3,188.829-7.39a25.664,25.664,0,0,0,.427-5.054q0-2.965-.18-5.84,0-1.707-.629-2.179a4.321,4.321,0,0,0-2.246-.562,8.041,8.041,0,0,0-.921.045,9.038,9.038,0,0,1-1.011.045,82.176,82.176,0,0,1-1.887,11.59,97.81,97.81,0,0,1-3.324,10.871h-7.232a66,66,0,0,0,3.818-10.646,76.722,76.722,0,0,0,1.887-11.365q-2.2.18-3.526.337t-1.415.157Zm22.057-1.932h6.738a63.3,63.3,0,0,1,3.324,13.836h-6.6A44.893,44.893,0,0,0,194.646-29.02Zm-.494-1.527v-6.469h3.1v6.469Zm4.852,0v-6.469h3.1v6.469Zm31.131,13.656v-6.469h3.1v6.469Zm4.852,0v-6.469h3.1v6.469Zm3.145-16.262v6.873a18.789,18.789,0,0,0-7.7,2.358,21.721,21.721,0,0,0-5.436,4.4,12.528,12.528,0,0,0-2.808,4.784,6.789,6.789,0,0,0,.135,4.874,5.849,5.849,0,0,0,2.628,2.65,8.306,8.306,0,0,0,3.122.921,33.3,33.3,0,0,0,3.459,0q1.662-.09,2.942-.247t1.325-.157V.494a38.651,38.651,0,0,1-4.357.337q-1.887.022-3.908-.112a17.928,17.928,0,0,1-4.4-.876,13.585,13.585,0,0,1-4.56-2.448,10.621,10.621,0,0,1-3.145-4.447,14.094,14.094,0,0,1-.606-6.873,16.8,16.8,0,0,1,1.729-5.166,19.263,19.263,0,0,1,2.7-3.886,26.222,26.222,0,0,1,2.493-2.448,7.324,7.324,0,0,1,1.123-.854h-14.2v-6.873Zm6.514,2.066q2.74.09,4.694.09h4.425q-.4-1.887-.674-2.92t-.27-1.078h7.143q.135.9.359,1.8t.449,1.842q2.74-.135,4.919-.382t3.549-.449q1.37-.2,1.415-.2v6.379a66.191,66.191,0,0,1-8.355.809q.225.9.494,1.774t.494,1.774q2.516-.225,4.9-.449t3.863-.4a9.565,9.565,0,0,0,1.482-.225v6.514q-2.336.359-4.2.562t-4.245.382q.9,2.92,1.438,4.627a14.532,14.532,0,0,0,.584,1.707h-7.412q-.4-1.393-.854-2.9t-.854-3.032q-2.471.09-4.852.135t-4.537.045h-4.9v-6.424q4-.045,6.761-.09t5.772-.135q-.225-.943-.472-1.819t-.427-1.729q-2.92.09-5.233.112t-3.863,0l-1.595-.022Zm3.1,19.137h7.143a18.12,18.12,0,0,0-1.415,2.4,4.037,4.037,0,0,0-.427,1.909,2.49,2.49,0,0,0,.359,1.37,2.448,2.448,0,0,0,1.438.876,17.464,17.464,0,0,0,3.773.4q3.145,0,5.795-.225t5.975-.719V1.527q-.9.045-3.661.337t-8.378.337q-5.975-.045-9.119-2.381A7.564,7.564,0,0,1,246.082-6.6a9.438,9.438,0,0,1,.449-2.763A14.518,14.518,0,0,1,247.744-11.949ZM281.75-33.422h21.2v6.289l-8,5.885a10.951,10.951,0,0,1,6.761.427,8.994,8.994,0,0,1,4.155,3.886,13.2,13.2,0,0,1,1.572,6.2,11.867,11.867,0,0,1-1.774,6.671A11.528,11.528,0,0,1,300.954.2a18.6,18.6,0,0,1-6.2,1.774,16.678,16.678,0,0,1-6.446-.539,7.971,7.971,0,0,1-4.065-2.471,6.789,6.789,0,0,1-1.46-4.357,8.265,8.265,0,0,1,.786-3.549,5.789,5.789,0,0,1,2.763-2.875,8.76,8.76,0,0,1,5.256-.494,8.973,8.973,0,0,1,4.672,2.2,11.973,11.973,0,0,1,2.785,4.133,5.6,5.6,0,0,0,1.393-2.2,7.578,7.578,0,0,0,.359-2.65,4.373,4.373,0,0,0-1.595-3.616q-1.595-1.28-5.233-1.19a15,15,0,0,0-5.862,1.235,18.884,18.884,0,0,0-4.2,2.718l-5.3,4.4v-8.535l14.016-10.6H281.75Zm8.625,25.516a1.818,1.818,0,0,0-1.8.809,1.953,1.953,0,0,0-.045,1.864,3,3,0,0,0,1.977,1.5,7.55,7.55,0,0,0,2.718.27,7.611,7.611,0,0,0,1.19-.18A5,5,0,0,0,293-6.446,4.619,4.619,0,0,0,290.375-7.906ZM319.889,2.516V-9.658Q318-7.143,316.43-5.054t-2.493,3.3q-.921,1.213-.921,1.258V-10.871q.09-.09,2.021-2.448t4.852-5.772v-2.246h-6.873v-6.873h6.873v-7.277h6.648V-24.3a11.406,11.406,0,0,1,3.234-2.808,10.447,10.447,0,0,1,3.908-1.37,9.178,9.178,0,0,1,5.525,1.146,8.772,8.772,0,0,1,3.392,3.729,17.912,17.912,0,0,1,1.572,5.031,31.862,31.862,0,0,1,.427,5.009,17.563,17.563,0,0,1-1.662,7.5A12.559,12.559,0,0,1,337.97-.674a15.222,15.222,0,0,1-8.019,2.021v-7.1a8.1,8.1,0,0,0,4.649-.966,5.776,5.776,0,0,0,2.516-2.942,11.48,11.48,0,0,0,.7-4.088,18.807,18.807,0,0,0-.427-4.223,5.045,5.045,0,0,0-1.415-2.718,3.619,3.619,0,0,0-3.145-.472,10.986,10.986,0,0,0-3.145,1.8,11.918,11.918,0,0,0-3.145,3.684V2.516Zm33.152-36.342h6.738q-.674,5.211-.988,9.1t-.359,7.974q.045,4.357.449,8.355T360.094.854h-6.918q-.719-5.076-1.078-9.007t-.4-8.423q.045-4.268.359-8.176T353.041-33.826Zm8.221,13.342v-6.873h9.209v-7.637h6.738v7.637h4.9v6.873h-4.9v6.244A37.6,37.6,0,0,1,376-4.919a20.5,20.5,0,0,1-3.549,6.94H364.99a24.729,24.729,0,0,0,2.875-4.672,35.4,35.4,0,0,0,1.752-5.076,26.33,26.33,0,0,0,.854-6.6v-6.154Z" transform="translate(382.959 39.396)" fill="#538eb4"/>
</svg>
