<svg xmlns="http://www.w3.org/2000/svg" width="310" height="224" viewBox="0 0 310 224">
  <g id="グループ_9382" data-name="グループ 9382" transform="translate(0.25 -35.139)">
    <rect id="長方形_23156" data-name="長方形 23156" width="310" height="224" transform="translate(-0.25 35.139)" fill="#538eb4"/>
    <circle id="楕円形_22" data-name="楕円形 22" cx="46.5" cy="46.5" r="46.5" transform="translate(97.564 70.11)" fill="#ffda2b"/>
    <path id="パス_5516" data-name="パス 5516" d="M-102.961-4.672h-3.3q-.062.047-.484.3a12.857,12.857,0,0,1,2.031,1.406A7,7,0,0,0-102.961-4.672Zm-2.125-6h-3.359l-.391.25a12.027,12.027,0,0,1,1.875,1.188A10.462,10.462,0,0,0-105.086-10.672Zm3.844,3.984,1.563.781a10.466,10.466,0,0,1-1.859,3.078,9.754,9.754,0,0,1-2.75,2.164A17.477,17.477,0,0,1-107.656.7a27.3,27.3,0,0,1-4.008.813,6.275,6.275,0,0,0-1-2.109,20.718,20.718,0,0,0,5.844-1.266,17.6,17.6,0,0,0-1.953-1.406q-1.187.531-2.078.859a6.085,6.085,0,0,0-.625-.953,5.3,5.3,0,0,0-.781-.844,14.882,14.882,0,0,0,5.672-2.875,23.559,23.559,0,0,1-6.422,2.156,6.322,6.322,0,0,0-1.062-1.969,21.685,21.685,0,0,0,5-1.3,11.155,11.155,0,0,0-1.719-1.125q-1.234.563-1.609.7a5.957,5.957,0,0,0-.7-.9,6.5,6.5,0,0,0-.852-.8,11.92,11.92,0,0,0,5.828-3.437l2.516.547q-.109.125-.344.375l-.25.266h2.688l.359-.094,1.516.859a10.5,10.5,0,0,1-3.344,3.734l2,.469q-.3.359-.937,1h2.281Zm9.422-5.25h3.859q-1.266,1.016-2.211,1.766l-1.922,1.523q-.977.773-1.687,1.367t-.883.781a.462.462,0,0,0-.156.359.705.705,0,0,0,.2.453q.188.188.9.852t1.68,1.555l1.914,1.758q.945.867,2.211,2.008h-3.625q-.937-.828-1.641-1.453T-94.625-2.25q-.742-.656-1.336-1.2a9.026,9.026,0,0,1-.812-.8A2.578,2.578,0,0,1-97.531-6.1a2.439,2.439,0,0,1,.742-1.727q.25-.234.82-.711T-94.7-9.594q.7-.578,1.352-1.117T-91.82-11.937Zm8.531,9.016q.359.016.6-.609a7.741,7.741,0,0,0,.391-1.6q.148-.977.219-2.039t.055-1.937a2.294,2.294,0,0,0-1.148.891,5.022,5.022,0,0,0-.7,1.477A6.444,6.444,0,0,0-84.148-5.2a3.948,3.948,0,0,0,.2,1.711Q-83.7-2.953-83.289-2.922Zm5.563-3.141a4.395,4.395,0,0,0-.547-2.086A2.034,2.034,0,0,0-79.8-9.156q-.047,1.516-.2,3.063a12.666,12.666,0,0,1-.586,2.844A6.181,6.181,0,0,1-81.68-1.187a2,2,0,0,1-1.656.734,2.683,2.683,0,0,1-1.4-.477,3.372,3.372,0,0,1-1.125-1.477,7.136,7.136,0,0,1-.477-2.8,7.568,7.568,0,0,1,.7-3.148,6.155,6.155,0,0,1,1.8-2.281,4.878,4.878,0,0,1,2.547-1.008,5.959,5.959,0,0,1,2.82.445,4.646,4.646,0,0,1,2.117,1.883,6.926,6.926,0,0,1,.922,3.391,7.969,7.969,0,0,1-.461,3.031A5.085,5.085,0,0,1-77.172-.914,4.895,4.895,0,0,1-78.883.109,5.3,5.3,0,0,1-80.57.422V-1.922a2.583,2.583,0,0,0,2.094-1.086A5.043,5.043,0,0,0-77.727-6.062ZM71.164-9.422q1.031-.094,1.828-.156.016-1.109.016-2.484H75.4q.016,1.359-.031,2.375h1.188a2.209,2.209,0,0,1,1.8.766,4.278,4.278,0,0,1,.758,2.406A22.058,22.058,0,0,1,79.2-4.078a11.89,11.89,0,0,1-.258,2.32,3.93,3.93,0,0,1-.789,1.727,1.978,1.978,0,0,1-1.523.688,7.518,7.518,0,0,1-1.32-.117A3.194,3.194,0,0,1,74.82.422v-2.5a4.712,4.712,0,0,0,1.438.281q.406-.047.555-.773a8.926,8.926,0,0,0,.148-1.758q0-1.031-.062-2.031,0-.594-.219-.758a1.5,1.5,0,0,0-.781-.2,2.8,2.8,0,0,0-.32.016,3.143,3.143,0,0,1-.352.016A28.582,28.582,0,0,1,74.57-3.25,34.022,34.022,0,0,1,73.414.531H70.9a22.955,22.955,0,0,0,1.328-3.7,26.687,26.687,0,0,0,.656-3.953q-.766.062-1.227.117t-.492.055Zm7.672-.672H81.18a22.016,22.016,0,0,1,1.156,4.813h-2.3A15.615,15.615,0,0,0,78.836-10.094Zm-.172-.531v-2.25h1.078v2.25Zm1.688,0v-2.25H81.43v2.25ZM88.7-7.5v.688h4.047V-7.5Zm8.281,3.031V-1.2a3.007,3.007,0,0,1-.2,1.234,1.448,1.448,0,0,1-.719.688,7.493,7.493,0,0,1-2.7.344,7.077,7.077,0,0,0-.734-2.125q.578.031,1.641.031.328,0,.328-.219V-2.406H92.18V1.516H89.758V-2.406H87.242V.813H84.867V-4.469h4.891v-.75h-3.3V-9.109h8.656v3.891H92.18v.75ZM95.7-11.641h2.172v4.109H95.539V-9.656H86.023v2.125H83.789v-4.109h1.953a7.742,7.742,0,0,0-.7-1.141l2.141-.828a5.294,5.294,0,0,1,1.047,1.625l-.781.344h2.063V-13.7H91.93v2.063h2.156l-.8-.281a8.418,8.418,0,0,0,1.031-1.641l2.531.719Q96.023-11.953,95.7-11.641ZM100.133.813,98.977.188a6.634,6.634,0,0,0,.875-3.516l1.219.234a19.051,19.051,0,0,1-.281,2.344A3.7,3.7,0,0,1,100.133.813Zm.953-4.016.969-.094a15.906,15.906,0,0,1,.125,2.953l-1,.141A16.686,16.686,0,0,0,101.086-3.2Zm1.094-.078.922-.156a11.751,11.751,0,0,1,.469,2.594l-.984.188A13.294,13.294,0,0,0,102.18-3.281Zm-.328-3.25v.688h.719v-.687Zm.719-4.75h-.719v.625h.719Zm0,3.031v-.672h-.719v.672Zm9,7.094h2.938V.984h-8.3V-.953A3.894,3.894,0,0,1,105.742.8a1.527,1.527,0,0,1-1,.641,6.93,6.93,0,0,1-1.422.063,4.507,4.507,0,0,0-.469-1.781,6.473,6.473,0,0,0,.828.047.519.519,0,0,0,.422-.219,3.271,3.271,0,0,0,.266-1.109l-.484.172a8.486,8.486,0,0,0-.625-2.062l.859-.3q.219.484.375.906.031-.8.063-1.219H99.93v-9.078h6.25v1.859h-1.766v.625h1.531v1.734h-1.531v.672h1.531v1.719h-1.531v.688h2.109q-.016.516-.031.75-.125,2.75-.266,3.938h3.094V-4.094h-2.266V-6.187h2.266V-8.562h-2.672V-10.7H110.1a17.278,17.278,0,0,0-2.531-1.422l1.344-1.687a13.733,13.733,0,0,1,3.734,2.094l-.781,1.016h2.344v2.141H111.57v2.375h2.344v2.094H111.57Z" transform="translate(153.25 232)" fill="#fff"/>
    <g id="グループ_9315" data-name="グループ 9315" transform="translate(-207.403 -64.767)">
      <path id="パス_4760" data-name="パス 4760" d="M919.638,453.292c-.516.334-.479,1.281.322,1.16.379-.058.65-.336.523-.725C920.328,453.257,919.995,453.229,919.638,453.292Z" transform="translate(-533.612 -274.158)" fill="#f4f4f4"/>
      <path id="パス_4761" data-name="パス 4761" d="M978.669,425.591a2.833,2.833,0,0,0,2.063,1.438c.827.029,1.311-.643,1.6-1.379Z" transform="translate(-583.636 -250.839)" fill="#fff"/>
      <path id="パス_4762" data-name="パス 4762" d="M465.253,979.389c-.626-.037-1.276-.15-1.867-.192l-5.582-.4-16.791-1.213-19.412-1.4-16.111-1.163-5.716-.413.128,1.34c.655.04,1.314.121,1.962.168l5.49.4,16.714,1.212,19.423,1.409,15.977,1.159,5.785.42Z" transform="translate(-95.888 -713.41)" fill="#f4f4f4"/>
      <path id="パス_4763" data-name="パス 4763" d="M836.659,865.8a13.772,13.772,0,0,0,.616-4.753,8.14,8.14,0,0,0-.931-4.015,4.128,4.128,0,0,0-.577-.757c-.018-.019-.067-.066-.109-.107l-.039-.028a.969.969,0,0,1-.251-.226c-.152.026-.307.049-.467.066a.855.855,0,0,1-.667,1.388c-4.167-.132-8.572.62-12.674-.327-2.07-.478-4.1-1.081-6.189-1.5a29.129,29.129,0,0,0-3.774-.565,6.845,6.845,0,0,0-3.25.536c-4.5,1.767-7.934,5.454-11.439,8.669q.468,1.331.936,2.661A69.208,69.208,0,0,1,804,860.4a15.943,15.943,0,0,1,3.325-2c1.2-.607,2.4-1.2,3.614-1.777,1-.475,1.881,1.019.874,1.5-1.213.574-2.417,1.17-3.614,1.777a14.246,14.246,0,0,0-3.074,1.819,87.585,87.585,0,0,0-6.624,6.983q.251.712.5,1.424c.027.013.055.026.082.042a1.4,1.4,0,0,0,1.568-.112,2.349,2.349,0,0,1,.008-.306c.141-1.416,1.394-2.559,2.419-3.424,1.256-1.06,2.632-1.966,3.922-2.982a12.967,12.967,0,0,1,3.863-2.251c1.506-.523,3.078-.825,4.609-1.262a.867.867,0,0,1,.46,1.67c-1.487.425-3.012.723-4.479,1.218a14.1,14.1,0,0,0-4.035,2.472c-1.072.813-2.195,1.567-3.217,2.444-.753.646-2.408,1.923-1.562,3,.719.913,1.7.171,2.422-.334.494-.345,1-.673,1.506-1a37.071,37.071,0,0,1,5.289-3.3,31.226,31.226,0,0,1,6.214-2.006c1.065-.22,1.53,1.371.53,1.652a.927.927,0,0,1-.326.222A10.467,10.467,0,0,0,816,867.53a25.841,25.841,0,0,1-2.257,1.575c-.88.549-1.86.979-2.7,1.577-.285.2-.631.47-.639.855-.018.88.962.737,1.519.591a20.391,20.391,0,0,0,3.671-1.441c2.453-1.189,4.776-2.614,7.292-3.677,1.016-.429,1.9,1.063.874,1.5-.9.382-1.782.812-2.651,1.26H825a.815.815,0,0,1,.835-.835c.051,0,.1,0,.153,0,3.24-.124,6.506-.033,9.755-.007.2-.266.408-.528.609-.794a.946.946,0,0,1-.039-1.537c-.322.232.028-.1-.038,0A3.544,3.544,0,0,0,836.659,865.8Z" transform="translate(-430.493 -612.597)" fill="#fff"/>
      <path id="パス_4764" data-name="パス 4764" d="M928.919,155.767a30.9,30.9,0,0,1-4.171-1.607,5.216,5.216,0,0,1-2.225-1.625c-.6-.942.9-1.81,1.5-.874a1.176,1.176,0,0,0,.211.2c.085.063.243.171.371.25a12.087,12.087,0,0,0,1.4.729,30.729,30.729,0,0,0,3.808,1.387,28.246,28.246,0,0,0,8.8,1.505.833.833,0,0,1,.785,1.157c.418.173.855.331,1.267.527a.787.787,0,0,1,1.331-.218c1.448,1.7,3.9,3.164,4.552,5.4a.776.776,0,0,1-.319.9.928.928,0,0,1,.088.1,5.92,5.92,0,0,1,.426-.451.841.841,0,0,1,1.2.021,4.178,4.178,0,0,1,2.013-1.461.7.7,0,0,1-.352-.72,29.321,29.321,0,0,0-1.94-12.119c-.92-2.567-2.334-6.23-5.391-6.789-.849-.155-.76-1.19-.171-1.557a2.792,2.792,0,0,0-.389-.411,7.159,7.159,0,0,0-1.141.165.9.9,0,0,1-1.053-1.123,4.444,4.444,0,0,0-1.155-.143.911.911,0,0,1-1.284.614c-5.37-2.674-12.714.278-15.167,5.623a.843.843,0,0,1-.748.429,3.639,3.639,0,0,0-2.055.879,7.489,7.489,0,0,0-2.087,2.132,3.358,3.358,0,0,0,.623,4.118,11.3,11.3,0,0,0,4.8,2.509,57.972,57.972,0,0,0,6.355,1.477.711.711,0,0,1,.607.566,13.518,13.518,0,0,0,3.3-.568C931.412,156.513,930.145,156.153,928.919,155.767Z" transform="translate(-531.311 -9.065)" fill="#9b9b9b"/>
      <path id="パス_4765" data-name="パス 4765" d="M956.512,267.411q-.009.4-.017.8a.866.866,0,0,1-1.732,0q.036-1.637.071-3.273c-2.751-.2-4.894-3.114-5.544-5.585-.728-2.77-.361-6.542,1.574-8.812a.916.916,0,0,0-.088-.1.867.867,0,0,1-1.351-.445,5.289,5.289,0,0,0-1.622-2.118c-.851-.821-1.716-1.62-2.485-2.522a.871.871,0,0,1-.106-1.006c-.412-.2-.85-.354-1.267-.527a.815.815,0,0,1-.785.575,24.161,24.161,0,0,1-5.908-.664,13.518,13.518,0,0,1-3.3.568.93.93,0,0,1-1.068,1.1,54.8,54.8,0,0,1-6.68-1.581,15.409,15.409,0,0,1-4.233-2.015c-.036.711.154,1.5.074,2.192a.79.79,0,0,1,.327.67,118.194,118.194,0,0,0,.694,12.991c.5,4.5.687,9.069,2.492,13.289,1.665,3.892,4.258,7.668,8.757,8.245a13.141,13.141,0,0,0,10-3.33c2.848-2.38,5.9-5.519,7.1-9.115.351-1.054,2.023-.6,1.67.46a18.5,18.5,0,0,1-3.543,5.867,31.112,31.112,0,0,1-5.126,4.9,14.815,14.815,0,0,1-7.991,3l.3,1.285a.9.9,0,0,1-1.331.964,3.354,3.354,0,0,0-.069.435c.037.037.073.075.111.111a12.389,12.389,0,0,0,2.45,1.61.772.772,0,0,1,.421.74c.107.141.205.291.3.44a34.428,34.428,0,0,1,2.139,4.267,9.034,9.034,0,0,1,.6-.913.865.865,0,0,1-.255-.566l-.31-4.035a3.194,3.194,0,0,1-.036-.468c.056-.727.9-1.079,1.423-1.463q1.888-1.379,3.689-2.871a66.567,66.567,0,0,0,11.473-12.29A5.909,5.909,0,0,1,956.512,267.411ZM926.3,255.278a.866.866,0,0,1,0-1.732A.866.866,0,0,1,926.3,255.278Zm.6,7.613a2.488,2.488,0,0,1,.575-1.44,18.141,18.141,0,0,0,.948-1.637,11.285,11.285,0,0,0,1.261-3.6c.149-1.1,1.817-.629,1.67.461a15.17,15.17,0,0,1-2.523,5.859c-.219.344-.192.3,0,.552a4.02,4.02,0,0,0,.659.543l1.14.938c.862.709-.37,1.927-1.225,1.225C928.512,265.058,926.915,264.2,926.9,262.891Zm9.65,7.293c-.367,1.742-1.435,3.662-3.437,3.727-2.12.069-3.628-1.926-4.471-3.622a.865.865,0,0,1-.08-.574.786.786,0,0,1,.769-.727.77.77,0,0,1,.29,0l6.093.1A.878.878,0,0,1,936.547,270.184Zm.725-14.5a.866.866,0,0,1,0-1.732A.866.866,0,0,1,937.272,255.686Z" transform="translate(-535.865 -95.99)" fill="#fff"/>
      <path id="パス_4766" data-name="パス 4766" d="M1090.656,171.516a.85.85,0,0,1,.223-1.361,4.6,4.6,0,0,1-.3-.621.858.858,0,0,1-1.406-.655,35.461,35.461,0,0,0-.347-7.381,23.587,23.587,0,0,0-2.379-6.773c-1.879-3.544-5.956-7-10.187-6.723a2.792,2.792,0,0,1,.389.411.871.871,0,0,1,.632-.113c3.452.632,5.166,4.308,6.314,7.238a35.26,35.26,0,0,1,1.818,6.712,25.133,25.133,0,0,1,.47,6.629.926.926,0,0,1-1.085.819,5.877,5.877,0,0,1-.317,1.34.808.808,0,0,1,.63,1.253,9.489,9.489,0,0,0-.968,8.237c.643,1.895,2.277,4.083,4.543,3.731,2.3-.357,3.533-2.932,3.943-4.967A8.765,8.765,0,0,0,1090.656,171.516Z" transform="translate(-665.859 -16.943)" fill="#f4f4f4"/>
      <path id="パス_4767" data-name="パス 4767" d="M1106.12,287.92c-1.737,1.651-2.1,4.765-1.678,7.034a6.913,6.913,0,0,0,1.631,3.441,5.623,5.623,0,0,0,1.528,1.124c-2.813-3.292-2.689-9.021-.377-12.445a.85.85,0,0,1,.866-.379,5.876,5.876,0,0,0,.317-1.34.859.859,0,0,1-.3-.1,4.179,4.179,0,0,0-2.013,1.46A.8.8,0,0,1,1106.12,287.92Z" transform="translate(-689.471 -132.6)" fill="#fff"/>
      <path id="パス_4768" data-name="パス 4768" d="M842.667,462.125c-.141-6.03-.134-12.278-1.735-18.139a19.257,19.257,0,0,0-3.018-6.507c-1.7-2.28-4.047-3.664-6.39-5.2-2.229-1.458-4.429-2.965-6.692-4.37-2.462-1.529-5.018-2.9-7.589-4.232a.8.8,0,0,1-.2-1.282c-.549-.408-1.091-.836-1.65-1.27a.86.86,0,0,1-1.58.265l-2.48-4.684A71.788,71.788,0,0,1,795.2,432.627l.315,4.09c.067.87-.977,1.055-1.477.566a9.053,9.053,0,0,0-.6.913l.225.509c.447,1.011-1.046,1.891-1.5.874q-.512-1.158-1.063-2.3c-.3-.622-.606-1.242-.938-1.848-.058-.106-.267-.421-.431-.676a9.325,9.325,0,0,0-.759.761c-.792.859-1.52,1.777-2.251,2.687-.666.83-1.323,1.671-2.028,2.469a3.412,3.412,0,0,1-1.511,1.227c-1,.23-1.249-.742-1.335-1.492-.117-1.019-.136-2.051-.167-3.076-.076-2.513-.058-5.032-.2-7.543-.063-1.115,1.67-1.108,1.732,0,.156,2.761.123,5.53.225,8.293q.025.664.064,1.327l.055-.062c1.439-1.65,2.707-3.445,4.191-5.057.221-.24.463-.513.729-.76a9.741,9.741,0,0,1-1.574-1.167,13.8,13.8,0,0,1-2.013-2.658c-.607-.94.893-1.807,1.5-.874a12.7,12.7,0,0,0,1.631,2.2,3.334,3.334,0,0,1,.069-.435.774.774,0,0,1-.339-.5l-.408-1.767a12.207,12.207,0,0,1-1.484-.215,9.894,9.894,0,0,1-3.826-1.708,6.938,6.938,0,0,0-1.406.417.784.784,0,0,1-.091,1.366c-2.234,1.034-4.654,1.568-6.961,2.409a10.108,10.108,0,0,0-5.528,4.113c-2.25,3.56-3.721,7.6-5.621,11.353q-2.636,5.207-5.327,10.386-3.741,7.235-7.518,14.452a.825.825,0,0,1-1.422.051l-1.016,1.465c2.3,6.73,4.645,13.442,7,20.151l.211.6q2.24-2.043,4.51-4.052a31.119,31.119,0,0,1,2.72-2.155l4.526-5.477a.743.743,0,0,1-.187-1.067l5.369-7.967a.92.92,0,0,1,1.568.11l.724-.944c-1.1-6.993-1.975-14.027-3.674-20.911a.867.867,0,0,1,1.67-.46c1.583,6.415,2.451,12.961,3.452,19.483l.32-.417-.32.417c.686,4.469,1.435,8.926,2.52,13.321a.868.868,0,0,1-.85,1.076,12.3,12.3,0,0,1,.409,1.281c1.109.291,2.217.582,3.339.8a25.059,25.059,0,0,0,5.333.255c2.174-.046,4.347-.136,6.522-.067a.817.817,0,0,1,.667.344c.159-.018.315-.04.467-.066a.888.888,0,0,1,.688-1.388l3.707-.4,16.223-1.739,10.116-1.084c1.109-.119,1.1,1.615,0,1.732l-3.706.4-16.223,1.739-8.329.893a10.376,10.376,0,0,1,1.165,4.979,14.8,14.8,0,0,1-.769,5.46,3.365,3.365,0,0,1-1.053,1.584.7.7,0,0,1-.835.041c-.2.267-.408.528-.609.794q.741.006,1.48.007h45.59c.781-4.68,1.263-9.426,1.615-14.154C843.08,477.72,842.85,469.949,842.667,462.125Zm-86.538,26.11a5.1,5.1,0,0,0-3.329-3.1.867.867,0,0,1,.46-1.67,6.925,6.925,0,0,1,4.539,4.313C758.185,488.825,756.51,489.273,756.13,488.235Zm15.189-24.693c.659.9-.845,1.765-1.5.874-1.642-2.249-3.043-4.661-4.685-6.91-.659-.9.844-1.765,1.5-.874C768.276,458.881,769.676,461.293,771.319,463.542Zm24.711,17.166q-.119-2.189-.244-4.377c-.371-6.508-.761-13.016-1.207-19.52-.212-3.09-.432-6.18-.7-9.266-.1-1.081-.2-2.162-.322-3.24-.024-.2-.049-.408-.076-.612-.006-.037-.04-.279-.051-.347a6.668,6.668,0,0,0-.135-.684.867.867,0,0,1,1.67-.461,35.445,35.445,0,0,1,.715,6.143c.571,6.729.98,13.473,1.387,20.214q.367,6.074.7,12.15C797.823,481.824,796.091,481.816,796.03,480.708Zm19.8-57.165a41.117,41.117,0,0,1-3.412,4.36,145.9,145.9,0,0,1-11.791,11.852.879.879,0,0,1-1.447-.382,33.464,33.464,0,0,0-2.857-6.028c-.6-.947.9-1.815,1.5-.874a31.9,31.9,0,0,1,2.539,5.175c.169-.157.339-.312.507-.47,2.311-2.165,4.58-4.377,6.779-6.654a56.164,56.164,0,0,0,6.691-7.852C814.946,421.741,816.445,422.609,815.829,423.543Zm4.621,57.409c-.831-8.98.181-18.048-.65-27.028-.1-1.111,1.63-1.1,1.732,0,.831,8.98-.181,18.048.65,27.028C822.285,482.063,820.552,482.053,820.451,480.952Zm-15.1,17.549c-.357,1.052-2.029.6-1.67-.46a11.933,11.933,0,0,0-.349-9.48c-.508-.991.986-1.866,1.5-.874A13.657,13.657,0,0,1,805.352,498.5Z" transform="translate(-388.563 -243.356)" fill="#f4f4f4"/>
      <path id="パス_4769" data-name="パス 4769" d="M403.695,718h-3.89c-1.718.886-3.4,1.847-5.155,2.661s-5.111,2.67-6.7.7c-1.366-1.689-.086-3.4,1.465-4.266,1.037-.581,2.067-1.174,3.05-1.837a17.078,17.078,0,0,0-2.967,1.5c-1.7,1.094-3.4,2.225-5.046,3.405a3.37,3.37,0,0,1-3.435.615,3.04,3.04,0,0,1-1.054-.867,3.435,3.435,0,0,1-1.569.4q.5,1.412,1,2.825c.374,1.054-1.3,1.5-1.67.46l-.329-.928q-3.042-8.59-6.051-17.192c-1.609-4.6-3.222-9.2-4.8-13.815l-.028.041.028-.041q-1.269-3.708-2.5-7.427c-.462-1.4-.734-3.286-2.135-4.045a4.221,4.221,0,0,0-1.754-.38l-3.806-.3-16.474-1.32-20.856-1.671-16.639-1.333-4.036-.323a1.39,1.39,0,0,0-1.1.178c-.58.467-.318,1.1-.114,1.661l4.767,13.062,7.025,19.247,3.605,9.877a.761.761,0,0,1-.683,1.04c.043.1.085.207.126.311a.644.644,0,0,1,.166-.01c.038,0,.076.009.114.008.863-.017,1.76.127,2.62.189l5.582.4,16.791,1.212,19.412,1.4,16.111,1.163,6.575.475a.98.98,0,0,1,.123-.048l9.006-2.771c1.069-.329,1.522,1.343.46,1.67l-8.627,2.654v1.394l1.854-.668,16.621-5.988a.765.765,0,0,1,1.042.69l6.716-3.115H404.53A.822.822,0,0,1,403.695,718Zm-68.958-13.443c-2.79,1.1-5.033-2.81-3.2-4.912.735-.841,1.955.388,1.225,1.225-.686.786.4,2.58,1.419,2.044a1.438,1.438,0,0,0-.159-2.391c-1.055-.348-.6-2.02.46-1.67C336.91,699.658,337.213,703.589,334.736,704.561Z" transform="translate(-9.189 -460.838)" fill="#f4f4f4"/>
      <path id="パス_4770" data-name="パス 4770" d="M978.7,568.6c-.017.1,0,.052,0,0Z" transform="translate(-583.653 -371.331)" fill="#64c8e6"/>
      <path id="パス_4771" data-name="パス 4771" d="M1019.661,529.662a.021.021,0,0,1,.009.008C1019.674,529.677,1019.694,529.621,1019.661,529.662Z" transform="translate(-618.174 -338.512)" fill="#64c8e6"/>
      <path id="パス_4772" data-name="パス 4772" d="M1128.611,284.836a.86.86,0,0,0,.3.1c.006-.059.009-.118.012-.178C1128.813,284.779,1128.711,284.806,1128.611,284.836Z" transform="translate(-709.97 -132.18)" fill="#323232"/>
      <path id="パス_4773" data-name="パス 4773" d="M1085.06,163.845a35.269,35.269,0,0,0-1.818-6.712c-1.148-2.929-2.862-6.606-6.314-7.238a.871.871,0,0,0-.632.113,2.688,2.688,0,0,1,.481.972,2.688,2.688,0,0,0-.481-.972c-.589.367-.677,1.4.171,1.557,3.057.559,4.471,4.223,5.391,6.789a29.321,29.321,0,0,1,1.94,12.119.7.7,0,0,0,.352.72c.1-.03.2-.057.307-.078a3.559,3.559,0,0,0-.06-.91,3.559,3.559,0,0,1,.06.91q.141-.028.287-.044-.146.016-.287.044c0,.06-.006.119-.012.178a.926.926,0,0,0,1.085-.819A25.133,25.133,0,0,0,1085.06,163.845Z" transform="translate(-665.51 -18.537)" fill="#323232"/>
      <path id="パス_4774" data-name="パス 4774" d="M970.873,414.48l-6.093-.1a.772.772,0,0,0-.29,0,.786.786,0,0,0-.769.727.863.863,0,0,0,.08.574c.843,1.7,2.351,3.691,4.471,3.622,2-.065,3.07-1.985,3.437-3.727A.878.878,0,0,0,970.873,414.48Zm-2.752,3.092a2.833,2.833,0,0,1-2.063-1.438l3.666.059C969.432,416.929,968.948,417.6,968.121,417.572Z" transform="translate(-571.026 -241.382)" fill="#323232"/>
      <path id="パス_4775" data-name="パス 4775" d="M1075.693,144.016c-2.587-4.265-7.743-7.919-12.924-6.72a.748.748,0,0,0-.592.547,3.884,3.884,0,0,1,1.505.782,3.884,3.884,0,0,0-1.505-.782.9.9,0,0,0,1.053,1.123,7.15,7.15,0,0,1,1.141-.165,2.511,2.511,0,0,0-.516-.348,2.511,2.511,0,0,1,.516.348c4.231-.281,8.308,3.179,10.187,6.723a23.59,23.59,0,0,1,2.379,6.773,35.469,35.469,0,0,1,.347,7.381.859.859,0,0,0,1.407.655,14.6,14.6,0,0,1-.461-1.443,14.6,14.6,0,0,0,.461,1.443.816.816,0,0,0,.325-.655C1079.174,154.222,1078.588,148.788,1075.693,144.016Z" transform="translate(-653.973 -7.742)" fill="#323232"/>
      <path id="パス_4776" data-name="パス 4776" d="M1074.865,260.419c-.648-2.241-3.1-3.7-4.552-5.4a.787.787,0,0,0-1.331.218,3.505,3.505,0,0,1,1.228.888,3.505,3.505,0,0,0-1.228-.888.87.87,0,0,0,.106,1.006c.768.9,1.633,1.7,2.485,2.522a5.288,5.288,0,0,1,1.622,2.118A.867.867,0,0,0,1074.865,260.419Z" transform="translate(-659.634 -106.878)" fill="#323232"/>
      <path id="パス_4777" data-name="パス 4777" d="M1106.221,288.286a.792.792,0,0,0-1-.136,2.441,2.441,0,0,0,1.142,1.053,2.441,2.441,0,0,1-1.142-1.053.85.85,0,0,0-.223,1.36,8.766,8.766,0,0,1,1.971,7.778c-.41,2.035-1.641,4.61-3.943,4.967-2.266.351-3.9-1.837-4.543-3.731a9.489,9.489,0,0,1,.968-8.237.808.808,0,0,0-.63-1.253,20.965,20.965,0,0,0-.77,2.248,20.965,20.965,0,0,1,.77-2.248.85.85,0,0,0-.866.379c-2.311,3.424-2.435,9.153.377,12.445a5.625,5.625,0,0,1-1.528-1.124,6.914,6.914,0,0,1-1.631-3.442c-.425-2.269-.058-5.383,1.678-7.034a.8.8,0,0,0-.021-1.2,7.842,7.842,0,0,0-.684,1.015,7.842,7.842,0,0,1,.684-1.015.842.842,0,0,0-1.2-.021c-2.3,2.191-2.779,6.3-2,9.263.65,2.471,2.793,5.38,5.544,5.585q-.035,1.637-.071,3.273a.866.866,0,0,0,1.732,0q.009-.4.017-.8c-.191-.23-.37-.466-.547-.7.177.236.356.473.547.7q.029-1.321.057-2.642a5.048,5.048,0,0,0,4.806-.844,9.072,9.072,0,0,0,3.085-6.141A10.309,10.309,0,0,0,1106.221,288.286Z" transform="translate(-680.2 -134.938)" fill="#323232"/>
      <path id="パス_4778" data-name="パス 4778" d="M884.2,389.479a2.182,2.182,0,0,0,1.689,2.73,2.334,2.334,0,0,0,1.837-4.2,2.268,2.268,0,0,0-1.535-.436.924.924,0,0,0-.27.034l-.04.013a3.78,3.78,0,0,1-1.5.152,4,4,0,0,1-2.7-2.084c-1.35-2.573,1.5-5.1,3.09-6.8.76-.814-.462-2.041-1.225-1.225-1.4,1.5-2.962,3.052-3.675,5.024a4.944,4.944,0,0,0,1.206,5.1A5.519,5.519,0,0,0,884.2,389.479Zm2.311,1.042c-.8.122-.838-.826-.322-1.16.356-.063.69-.035.844.435C887.157,390.185,886.885,390.464,886.506,390.521Z" transform="translate(-500.158 -210.227)" fill="#323232"/>
      <path id="パス_4779" data-name="パス 4779" d="M1076.775,452.438a56.172,56.172,0,0,1-6.691,7.852c-2.2,2.278-4.469,4.489-6.779,6.654-.168.158-.339.313-.507.47a31.9,31.9,0,0,0-2.539-5.175c-.592-.941-2.091-.073-1.5.874a33.465,33.465,0,0,1,2.857,6.028.879.879,0,0,0,1.447.382,145.864,145.864,0,0,0,11.791-11.852,41.134,41.134,0,0,0,3.412-4.359C1078.886,452.379,1077.386,451.51,1076.775,452.438Z" transform="translate(-651.004 -273.125)" fill="#323232"/>
      <path id="パス_4780" data-name="パス 4780" d="M1040.2,576.487c.011.068.045.31.051.347.027.2.052.408.076.612.127,1.078.227,2.159.322,3.24.272,3.085.492,6.175.7,9.266.446,6.5.837,13.011,1.207,19.52q.125,2.189.245,4.377c.06,1.109,1.792,1.116,1.732,0q-.329-6.076-.7-12.15c-.407-6.741-.816-13.485-1.387-20.214a35.463,35.463,0,0,0-.715-6.143.867.867,0,0,0-1.67.461A6.707,6.707,0,0,1,1040.2,576.487Z" transform="translate(-635.335 -376.496)" fill="#323232"/>
      <path id="パス_4781" data-name="パス 4781" d="M893.259,626.37a.867.867,0,0,0-1.67.46c1.7,6.884,2.574,13.918,3.674,20.911l1.448-1.889C895.71,639.332,894.843,632.786,893.259,626.37Z" transform="translate(-510.243 -419.486)" fill="#323232"/>
      <path id="パス_4782" data-name="パス 4782" d="M919.047,766.737c-1.085-4.4-1.834-8.853-2.52-13.321l-1.448,1.889c.628,3.99,1.328,7.966,2.3,11.893A.867.867,0,0,0,919.047,766.737Z" transform="translate(-530.058 -527.049)" fill="#323232"/>
      <path id="パス_4783" data-name="パス 4783" d="M977.192,500.929c-.254.437-.481.887-.707,1.338.226-.451.453-.9.707-1.338a34.428,34.428,0,0,0-2.139-4.267c-.092-.149-.19-.3-.3-.44a.772.772,0,0,0-.421-.74,12.39,12.39,0,0,1-2.45-1.61c-.038-.036-.074-.074-.111-.111a2.472,2.472,0,0,0,.036.712,2.472,2.472,0,0,1-.036-.712,12.7,12.7,0,0,1-1.631-2.2c-.6-.934-2.1-.066-1.5.874a13.786,13.786,0,0,0,2.013,2.658,9.752,9.752,0,0,0,1.574,1.167c-.266.247-.508.52-.729.76-1.484,1.611-2.753,3.406-4.191,5.057l-.056.062q-.04-.663-.063-1.327c-.1-2.763-.069-5.532-.225-8.293-.062-1.108-1.795-1.115-1.732,0,.141,2.51.124,5.03.2,7.543.031,1.024.051,2.057.167,3.076.086.751.331,1.722,1.335,1.492a3.412,3.412,0,0,0,1.511-1.228c.705-.8,1.361-1.639,2.028-2.469.731-.91,1.459-1.828,2.251-2.687a9.329,9.329,0,0,1,.759-.761c.164.255.373.57.431.676.332.605.639,1.226.938,1.848q.549,1.141,1.063,2.3c.449,1.017,1.942.137,1.5-.874Zm-9.829,2.428c0,.052-.017.1,0,0Zm6.452-6.11a.021.021,0,0,0-.009-.008C973.838,497.2,973.819,497.255,973.814,497.247Z" transform="translate(-572.319 -306.089)" fill="#323232"/>
      <path id="パス_4784" data-name="パス 4784" d="M1210.325,648.635c-.1-1.1-1.835-1.111-1.732,0,.831,8.98-.181,18.048.65,27.028.1,1.1,1.835,1.111,1.732,0C1210.145,666.684,1211.156,657.615,1210.325,648.635Z" transform="translate(-777.356 -438.067)" fill="#323232"/>
      <path id="パス_4785" data-name="パス 4785" d="M1071.014,831.755l-10.116,1.084-16.223,1.739-3.707.4a.888.888,0,0,0-.688,1.388c.053-.009.107-.017.158-.027-.051.01-.105.018-.158.027a.966.966,0,0,0,.251.226l.039.028c.043.041.092.088.109.107a4.132,4.132,0,0,1,.577.757,8.139,8.139,0,0,1,.931,4.015,13.769,13.769,0,0,1-.616,4.753,3.548,3.548,0,0,1-.386.791c.066-.1-.284.236.038,0a.946.946,0,0,0,.04,1.537,9.267,9.267,0,0,0,.56-.814,9.267,9.267,0,0,1-.56.814.7.7,0,0,0,.834-.041,3.364,3.364,0,0,0,1.053-1.584,14.8,14.8,0,0,0,.769-5.46,10.373,10.373,0,0,0-1.165-4.979l8.329-.893,16.223-1.739,3.706-.4C1072.111,833.369,1072.123,831.636,1071.014,831.755Z" transform="translate(-635.406 -593.049)" fill="#323232"/>
      <path id="パス_4786" data-name="パス 4786" d="M785.1,479.741a5.537,5.537,0,0,0-1.058.594,5.537,5.537,0,0,1,1.058-.594.881.881,0,0,0-.965-.129c-3.833,1.775-8.811,2-11.779,5.331a24.212,24.212,0,0,0-3.476,5.843c-.927,1.954-1.776,3.944-2.747,5.877-3.475,6.922-7.061,13.789-10.638,20.658q-1.465,2.813-2.935,5.625a.832.832,0,0,0,.074.926l.509-.734-.509.734a.825.825,0,0,0,1.422-.052q3.777-7.216,7.518-14.452,2.681-5.184,5.327-10.386c1.9-3.752,3.37-7.793,5.621-11.353a10.107,10.107,0,0,1,5.528-4.113c2.307-.841,4.727-1.374,6.961-2.409A.784.784,0,0,0,785.1,479.741Z" transform="translate(-393.035 -296.28)" fill="#323232"/>
      <path id="パス_4787" data-name="パス 4787" d="M1068.9,528.426h-34.025c.623-3.836,1.048-7.713,1.392-11.581.345-3.886.572-7.783.639-11.683.069-4.064-.117-8.124-.21-12.185-.145-6.382-.09-12.927-1.472-19.193-1.1-4.994-3.458-9.575-7.807-12.462a185.866,185.866,0,0,0-17.052-10.4.85.85,0,0,0-1.072.214c.485.361.976.707,1.491,1.028-.515-.322-1.006-.668-1.491-1.028a.8.8,0,0,0,.2,1.282c2.571,1.335,5.127,2.7,7.589,4.232,2.263,1.405,4.463,2.912,6.692,4.37,2.343,1.533,4.687,2.917,6.39,5.2a19.261,19.261,0,0,1,3.018,6.507c1.6,5.861,1.594,12.11,1.735,18.139.183,7.823.413,15.594-.17,23.41-.353,4.728-.834,9.473-1.615,14.153H987.541q-.739,0-1.48-.007a9.218,9.218,0,0,0-.562.816,9.218,9.218,0,0,1,.562-.816c-3.248-.026-6.514-.118-9.755.007-.051,0-.1,0-.153,0a.815.815,0,0,0-.835.835h0a.822.822,0,0,0,.835.9h1.989l1.376-.638-1.376.638h79.372c3.735,0,7.5.143,11.235,0,.051,0,.1,0,.153,0A.866.866,0,0,0,1068.9,528.426Z" transform="translate(-580.813 -272.093)" fill="#323232"/>
      <path id="パス_4788" data-name="パス 4788" d="M476.743,964.944l-.846.392.846-.392a.765.765,0,0,0-1.042-.69l-16.621,5.988-1.854.668v-1.394l8.627-2.654c1.062-.327.609-2-.46-1.67l-9.006,2.771a.959.959,0,0,0-.123.048l-6.575-.475-16.111-1.163-19.412-1.4-16.791-1.212-5.582-.4c-.86-.062-1.757-.206-2.62-.189-.037,0-.076-.006-.114-.008a.639.639,0,0,0-.166.011,5.259,5.259,0,0,0,.6,1.2,5.259,5.259,0,0,1-.6-1.2.878.878,0,0,0-.7.855q.148,1.555.3,3.109a.886.886,0,0,0,.211.507.852.852,0,0,0,.654.359l6.651.482,15.977,1.159,19.423,1.409,16.714,1.212,5.49.4c.87.063,1.761.188,2.634.191.038,0,.077.005.114.008a.7.7,0,0,0,.352-.068.789.789,0,0,0,.478-.031l16.621-5.987,2.351-.847A.883.883,0,0,0,476.743,964.944Zm-21.249,6.119-5.785-.42-15.977-1.159-19.423-1.409L397.6,966.864l-5.49-.4c-.648-.047-1.307-.128-1.962-.168l-.128-1.34,5.716.413,16.111,1.163,19.412,1.4,16.791,1.213,5.582.4c.591.043,1.241.156,1.867.193Z" transform="translate(-86.129 -703.765)" fill="#323232"/>
      <path id="パス_4789" data-name="パス 4789" d="M513.471,827.96c-1.836,2.1.407,6.008,3.2,4.912,2.477-.973,2.174-4.9-.251-5.7-1.061-.35-1.516,1.322-.46,1.67a1.438,1.438,0,0,1,.159,2.391c-1.017.537-2.106-1.258-1.419-2.044C515.426,828.349,514.206,827.119,513.471,827.96Z" transform="translate(-191.121 -589.148)" fill="#323232"/>
      <path id="パス_4790" data-name="パス 4790" d="M1062.254,407.111c.288.216.567.431.843.646a.842.842,0,0,0-.084-.609l-3.118-5.888a.876.876,0,0,0-1.5,0q-.336.483-.68.959a4.685,4.685,0,0,0,.551.39,4.685,4.685,0,0,1-.551-.39,66.555,66.555,0,0,1-11.473,12.29q-1.8,1.494-3.689,2.871c-.526.384-1.367.736-1.423,1.463a3.228,3.228,0,0,0,.036.468l.31,4.035a.865.865,0,0,0,.255.566,6.6,6.6,0,0,1,.6-.694,6.6,6.6,0,0,0-.6.694c.5.488,1.543.3,1.477-.566q-.157-2.045-.315-4.09a71.785,71.785,0,0,0,16.138-15.918l2.48,4.684a.86.86,0,0,0,1.58-.265C1062.821,407.542,1062.542,407.326,1062.254,407.111Z" transform="translate(-636.265 -229.984)" fill="#323232"/>
      <path id="パス_4791" data-name="パス 4791" d="M866.748,675.177c-1.643-2.249-3.043-4.661-4.685-6.91-.651-.891-2.154-.028-1.5.874,1.642,2.249,3.042,4.661,4.685,6.91C865.9,676.942,867.407,676.078,866.748,675.177Z" transform="translate(-483.992 -454.99)" fill="#323232"/>
      <path id="パス_4792" data-name="パス 4792" d="M1105.49,875.99a13.657,13.657,0,0,0-.524-10.815c-.509-.992-2-.117-1.5.874a11.933,11.933,0,0,1,.349,9.48C1103.461,876.587,1105.133,877.041,1105.49,875.99Z" transform="translate(-688.701 -620.844)" fill="#323232"/>
      <path id="パス_4793" data-name="パス 4793" d="M786.383,784.818a20.037,20.037,0,0,1-2.146.08,20.037,20.037,0,0,0,2.146-.08.817.817,0,0,0-.667-.344c-2.175-.069-4.347.021-6.522.067a25.06,25.06,0,0,1-5.333-.255c-2.2-.432-4.346-1.135-6.547-1.579-2.139-.432-4.767-1.1-6.917-.4a20.126,20.126,0,0,0-5.4,2.734l-.935,1.132.935-1.132a31.129,31.129,0,0,0-2.72,2.156q-2.276,2-4.51,4.052l-.211-.6c-2.356-6.709-4.7-13.421-7-20.151l-1.231,1.775c1.579,4.612,3.192,9.214,4.8,13.815q3.009,8.6,6.051,17.192l.329.928c.37,1.043,2.044.594,1.67-.46q-.5-1.412-1-2.825a3.437,3.437,0,0,0,1.569-.4,3.04,3.04,0,0,0,1.054.867,3.37,3.37,0,0,0,3.435-.615c1.641-1.18,3.347-2.312,5.046-3.405a17.082,17.082,0,0,1,2.967-1.5c-.983.663-2.013,1.256-3.05,1.837-1.551.869-2.831,2.578-1.465,4.266,1.592,1.969,4.936.118,6.7-.7s3.437-1.774,5.155-2.661h0c.869-.448,1.747-.878,2.651-1.26,1.023-.432.141-1.925-.874-1.5-2.516,1.063-4.839,2.488-7.292,3.677a20.41,20.41,0,0,1-3.671,1.441c-.557.146-1.537.289-1.519-.591.008-.385.354-.653.639-.855.845-.6,1.825-1.029,2.7-1.577a25.764,25.764,0,0,0,2.257-1.575,10.464,10.464,0,0,1,2.27-1.677.925.925,0,0,0,.326-.222c1-.282.535-1.872-.53-1.652a31.233,31.233,0,0,0-6.214,2.006,37.07,37.07,0,0,0-5.288,3.3c-.5.331-1.012.658-1.505,1-.721.5-1.7,1.247-2.422.334-.847-1.075.808-2.352,1.562-3,1.022-.877,2.145-1.63,3.217-2.444a14.1,14.1,0,0,1,4.035-2.472c1.467-.5,2.991-.793,4.478-1.218a.867.867,0,0,0-.46-1.67c-1.531.437-3.1.739-4.609,1.262a12.967,12.967,0,0,0-3.863,2.251c-1.29,1.016-2.666,1.922-3.922,2.982-1.025.865-2.278,2.008-2.419,3.424a2.381,2.381,0,0,0-.008.306,1.4,1.4,0,0,1-1.568.112c-.028-.016-.055-.03-.082-.042q-.251-.712-.5-1.424a87.574,87.574,0,0,1,6.624-6.983,14.243,14.243,0,0,1,3.074-1.819c1.2-.607,2.4-1.2,3.614-1.777,1.007-.476.129-1.97-.874-1.5-1.213.574-2.417,1.17-3.614,1.777a15.94,15.94,0,0,0-3.325,2,69.206,69.206,0,0,0-6.152,6.439l-.936-2.661c3.5-3.215,6.94-6.9,11.439-8.669a6.845,6.845,0,0,1,3.25-.536,29.15,29.15,0,0,1,3.774.565c2.085.421,4.119,1.025,6.189,1.5,4.1.947,8.507.195,12.674.327A.855.855,0,0,0,786.383,784.818Z" transform="translate(-381.976 -541.438)" fill="#323232"/>
      <path id="パス_4794" data-name="パス 4794" d="M357.692,678.128q-.728-2.148-1.438-4.3c-.576-1.755-1.067-3.509-2.877-4.4a10.529,10.529,0,0,0-3.732-.615L335.5,667.68l-20.905-1.675-18.734-1.5-5.561-.446c-1.318-.106-2.592-.368-3.636.747-1.326,1.417-.439,3.1.109,4.6l2.395,6.562,7.1,19.445,5.125,14.04.266.727a.888.888,0,0,0,.987.58,4.169,4.169,0,0,0-.483-.91,4.169,4.169,0,0,1,.483.91.761.761,0,0,0,.683-1.04l-3.605-9.877L292.692,680.6l-4.767-13.062c-.2-.559-.466-1.194.114-1.661a1.391,1.391,0,0,1,1.1-.178l4.036.323,16.639,1.333,20.856,1.671,16.474,1.32,3.806.3a4.223,4.223,0,0,1,1.754.38c1.4.759,1.672,2.648,2.135,4.045q1.231,3.72,2.5,7.427l1.231-1.775C358.283,679.862,357.985,679,357.692,678.128Z" transform="translate(0 -451.672)" fill="#323232"/>
      <path id="パス_4795" data-name="パス 4795" d="M872.078,769.358l.488-.636a.92.92,0,0,0-1.568-.11l-5.369,7.967a.743.743,0,0,0,.187,1.067l1.015-1.229-1.015,1.229a.9.9,0,0,0,1.308-.193l5.369-7.967a.729.729,0,0,0,.072-.764Z" transform="translate(-488.269 -539.522)" fill="#323232"/>
      <path id="パス_4796" data-name="パス 4796" d="M780.293,840.457a.867.867,0,0,0-.46,1.67,5.1,5.1,0,0,1,3.329,3.1c.381,1.038,2.055.589,1.67-.46A6.925,6.925,0,0,0,780.293,840.457Z" transform="translate(-415.596 -600.351)" fill="#323232"/>
      <path id="パス_4797" data-name="パス 4797" d="M944.316,277.591c-1.2,3.6-4.252,6.735-7.1,9.115a13.141,13.141,0,0,1-10,3.33c-4.5-.577-7.092-4.353-8.757-8.245-1.8-4.22-1.993-8.788-2.492-13.289a118.211,118.211,0,0,1-.694-12.991.79.79,0,0,0-.327-.67c-.008.066-.017.132-.03.2.013-.065.022-.13.03-.2a.875.875,0,0,0-1.405.67,115.033,115.033,0,0,0,.634,12.451c.53,4.842.723,9.78,2.629,14.327a17.6,17.6,0,0,0,5.426,7.588c.433-.085.88-.144,1.346-.2-.467.058-.913.117-1.346.2a9.894,9.894,0,0,0,3.825,1.708,12.206,12.206,0,0,0,1.484.215l.408,1.767a.774.774,0,0,0,.339.5c.086-.384.223-.745.313-1.105-.09.36-.226.721-.313,1.105a.9.9,0,0,0,1.331-.964l-.3-1.285a14.815,14.815,0,0,0,7.991-3,31.106,31.106,0,0,0,5.126-4.9,18.5,18.5,0,0,0,3.543-5.867C946.339,276.991,944.667,276.537,944.316,277.591Z" transform="translate(-528.768 -106.833)" fill="#323232"/>
      <path id="パス_4798" data-name="パス 4798" d="M956.042,329.965a11.287,11.287,0,0,1-1.261,3.6,18.113,18.113,0,0,1-.948,1.637,2.489,2.489,0,0,0-.575,1.44c.019,1.307,1.615,2.167,2.507,2.9.854.7,2.086-.516,1.225-1.225l-1.14-.938a4.029,4.029,0,0,1-.659-.543c-.193-.255-.22-.208,0-.552a15.171,15.171,0,0,0,2.523-5.859C957.859,329.336,956.191,328.864,956.042,329.965Z" transform="translate(-562.226 -169.741)" fill="#323232"/>
      <path id="パス_4799" data-name="パス 4799" d="M1014.681,320.7a.866.866,0,0,0,0-1.732A.866.866,0,0,0,1014.681,320.7Z" transform="translate(-613.274 -161.003)" fill="#323232"/>
      <path id="パス_4800" data-name="パス 4800" d="M944.975,316.377a.866.866,0,0,0,0,1.732A.866.866,0,0,0,944.975,316.377Z" transform="translate(-554.543 -158.821)" fill="#323232"/>
      <path id="パス_4801" data-name="パス 4801" d="M928.67,129.077c-6.02-3-14.3-.132-17.337,5.841a7.377,7.377,0,0,0-3.655,2.12,5.283,5.283,0,0,0,.464,8.776,2.6,2.6,0,0,1,.045-.382,2.6,2.6,0,0,0-.045.382,15.408,15.408,0,0,0,4.233,2.015,54.813,54.813,0,0,0,6.68,1.581.93.93,0,0,0,1.068-1.1,8.682,8.682,0,0,1-1.718-.1,8.682,8.682,0,0,0,1.718.1.711.711,0,0,0-.607-.566,57.971,57.971,0,0,1-6.355-1.477,11.3,11.3,0,0,1-4.8-2.509,3.358,3.358,0,0,1-.622-4.118,7.488,7.488,0,0,1,2.086-2.132,3.64,3.64,0,0,1,2.055-.879.843.843,0,0,0,.748-.429c2.452-5.346,9.8-8.3,15.167-5.623a.911.911,0,0,0,1.284-.614,5.772,5.772,0,0,0-.8.059,5.772,5.772,0,0,1,.8-.059A.728.728,0,0,0,928.67,129.077Z" transform="translate(-522.031 0)" fill="#323232"/>
      <path id="パス_4802" data-name="パス 4802" d="M969.734,223.283a28.243,28.243,0,0,1-8.8-1.505,30.721,30.721,0,0,1-3.808-1.387,12.077,12.077,0,0,1-1.4-.729c-.127-.079-.286-.187-.371-.25a1.171,1.171,0,0,1-.211-.2c-.6-.936-2.1-.068-1.5.874a5.216,5.216,0,0,0,2.225,1.625,30.906,30.906,0,0,0,4.172,1.607c1.227.386,2.493.746,3.778,1.036.419-.122.828-.257,1.222-.4-.394.143-.8.278-1.222.4a24.163,24.163,0,0,0,5.908.664.815.815,0,0,0,.785-.575,5.6,5.6,0,0,1-.969-.489,5.6,5.6,0,0,0,.969.489A.833.833,0,0,0,969.734,223.283Z" transform="translate(-562.44 -76.613)" fill="#323232"/>
    </g>
    <g id="グループ_9388" data-name="グループ 9388" transform="translate(146.742 120.933) rotate(-81)">
      <path id="パス_454" data-name="パス 454" d="M325.617,315l.528-5.016c.164-1.556-2.271-1.544-2.434,0L323.183,315C323.019,316.561,325.454,316.549,325.617,315Z" transform="translate(-308.395 -308.826)" fill="#c42d2d"/>
      <path id="パス_455" data-name="パス 455" d="M267.812,319.664c.7,1.4,2.8.17,2.1-1.228l-2.9-5.808c-.7-1.4-2.8-.17-2.1,1.229Z" transform="translate(-258.401 -311.552)" fill="#c42d2d"/>
      <path id="パス_456" data-name="パス 456" d="M221.181,363.939l4.488,2.376c1.384.733,2.615-1.368,1.228-2.1l-4.488-2.376C221.026,361.1,219.795,363.2,221.181,363.939Z" transform="translate(-220.573 -354.07)" fill="#c42d2d"/>
    </g>
    <path id="パス_5517" data-name="パス 5517" d="M-63-8.516v.664h3.027v-.664ZM-63-11v.684h3.027V-11Zm9.063,0H-57.1v.684h3.164Zm0,3.145v-.664H-57.1v.664Zm4.688,2.734V-2.7h-4.219V-.82A3.555,3.555,0,0,1-53.73.723a1.706,1.706,0,0,1-.947.8,12.489,12.489,0,0,1-3.75.371,9.127,9.127,0,0,0-.859-2.539q.9.059,2.52.059.449-.02.449-.332V-2.7H-62A11.8,11.8,0,0,1-59.814-.566l-2.324,1.7A12.97,12.97,0,0,0-64.873-1.7l1.445-1h-4.2V-5.117h11.309v-.8h-9.414V-12.93h5.762v-.625h-7.168v-2.363h7.168v-1.191H-57.1v1.191h7.324v2.363H-57.1v.625h6.035v7.012h-2.4v.8Zm7.5-8.945h-2.363v.645h2.363Zm-2.363,3.379h2.363v-.723h-2.363Zm5.078-5.7v8.008h-5.078V1.895h-2.871V-16.387Zm3.867,5.762h2.461v-.781h-2.461Zm2.461-3.437h-2.461v.645h2.461Zm2.93-2.324V-1.5A4.842,4.842,0,0,1-30.059.371a2,2,0,0,1-1.006,1,4.734,4.734,0,0,1-1.65.43q-.986.1-2.744.1a8.9,8.9,0,0,0-1.035-2.969q.957.078,3.2.078.586,0,.586-.547V-8.32H-37.92v-8.066ZM-14.131-3.027v-.586h-2.91v.586Zm-2.91-3.32V-5.8h2.91v-.547Zm-5.469-4.3h2.5v-.684h-2.5Zm8.008-.684h-2.539v.684H-14.5ZM-9.072-5.8v2.188h-2.09V-.137h-2.969v-.82h-2.91v.234A3.3,3.3,0,0,1-17.3.771a1.836,1.836,0,0,1-.908.791,11.315,11.315,0,0,1-3.672.391,7.444,7.444,0,0,0-.937-2.227q.82.039,2.324.039a.442.442,0,0,0,.488-.488V-.957h-5.859v-2.07h5.859v-.586H-27.8V-5.8h7.793v-.547h-5.723V-8.262h5.723v-.605h-5.273v-4.238h5.273v-.586h-7.3v-2.266h7.3v-1.152h2.969v1.152h7.48v2.266h-7.48v.586h5.508v4.238h-5.508v.605h5.879V-5.8Zm9.8-.1H3.35q.059-.508.137-1.426-1.406.469-1.8.566-.1-.2-.566-.879Q1.006-7.031.732-5.9Zm5.742-6.836H4.248a6.011,6.011,0,0,0,1.289,1.191A5.671,5.671,0,0,0,6.475-12.734Zm4.238,0H9.736a10.016,10.016,0,0,1-1.719,2.6,15.386,15.386,0,0,0,3.281.918A8.881,8.881,0,0,0,9.482-6.758,14.25,14.25,0,0,1,5.635-8.3q-1.055.547-1.484.723H6.4q-.039.586-.156,1.68h4.336q-.039.7-.078,1.055Q10.088-.215,9.268.684a2.559,2.559,0,0,1-1.582.82,13.461,13.461,0,0,1-2.246.078,5.482,5.482,0,0,0-.781-2.656Q5.518-1,6.221-1a.845.845,0,0,0,.625-.234,4.754,4.754,0,0,0,.625-2.285H5.752A8.244,8.244,0,0,1,3.965-.342,9.428,9.428,0,0,1,.479,1.914,6.35,6.35,0,0,0-.244.732,7.594,7.594,0,0,0-1.182-.332,6.347,6.347,0,0,0,2.705-3.516H.732V-5.879A15.858,15.858,0,0,1,.225-4.16l-1.914-.9q.293-1.289.449-2.5h-.625v6.406A4.823,4.823,0,0,1-2.07.43a1.7,1.7,0,0,1-.771.9,6.562,6.562,0,0,1-3.027.488,9.04,9.04,0,0,0-.82-2.773q.684.039,1.758.039.332-.02.332-.293V-4.355A10.28,10.28,0,0,1-6.846-1.309,13.961,13.961,0,0,0-8.154-4.141,10.184,10.184,0,0,0-5.518-7.559H-7.725v-2.52H-3.7A27.849,27.849,0,0,0-7.08-11.6l1.816-1.855q.391.117,1.348.469.566-.527.84-.84H-7.412v-2.4h6.328l.43-.117L1.2-15.2a13.96,13.96,0,0,1-2.773,3.242,13.819,13.819,0,0,1,1.348.723l-1.094,1.152h.664l.391-.117,1.738.547-.02.156a11.15,11.15,0,0,0,1.816-.625,9.994,9.994,0,0,1-1.016-1.191q-.234.234-.586.547a13.518,13.518,0,0,0-2.363-1.6,11.409,11.409,0,0,0,2.207-2.119,11.825,11.825,0,0,0,1.641-2.646l2.7.762q-.273.586-.664,1.25h5.527Zm2.461,1.27v-3.145H24.4a18.668,18.668,0,0,1-1.26,4.2,24.462,24.462,0,0,1-1.865,3.5q.879,1.152,1.748,2.109a14.649,14.649,0,0,0,1.5,1.475q.635.518.654.537V.938Q24.131.176,23.271-.547a23.149,23.149,0,0,1-1.836-1.748,24.56,24.56,0,0,1-1.895-2.256A20.818,20.818,0,0,1,17.109-2,18.713,18.713,0,0,1,14.814-.254a16.875,16.875,0,0,1-1.7.967q-.645.3-.664.3v-3.5A13.438,13.438,0,0,0,15.508-4.59a21.044,21.044,0,0,0,2.549-2.832,17.883,17.883,0,0,0,2.188-4.043ZM33.525-15.43q-.1.566-.2,1.025t-.117.5h6.68v2.988A14.33,14.33,0,0,1,38.77-6.27a10.86,10.86,0,0,1-2.217,3.291,15.376,15.376,0,0,1-2.7,2.168A14.821,14.821,0,0,1,31.3.488a15.172,15.172,0,0,1-1.934.615,5.071,5.071,0,0,1-.762.146V-1.914q.02,0,.684-.166a12.324,12.324,0,0,0,1.689-.6,11.8,11.8,0,0,0,2.139-1.2,9.147,9.147,0,0,0,2.051-2H31.553v-2.91h4.785A10.431,10.431,0,0,0,36.709-11h-4.59a13.579,13.579,0,0,1-2.344,3.33A19.6,19.6,0,0,1,27.92-6.055a4.287,4.287,0,0,1-.762.508v-3.77a5.066,5.066,0,0,0,.439-.361,6.841,6.841,0,0,0,.977-1.123,10.781,10.781,0,0,0,1.074-1.9,11.859,11.859,0,0,0,.811-2.725Zm10.586,3.086,1.172,6.7H43.232l-1.133-6.7Zm3.262,0,1.211,6.7h-2.09l-1.133-6.7ZM43.35.82V-1.914A6.943,6.943,0,0,0,46.738-3.4,7.4,7.4,0,0,0,48.75-6.035a17.326,17.326,0,0,0,1.025-2.93,21.1,21.1,0,0,0,.469-2.373,8.3,8.3,0,0,0,.1-.986h2.617a26.96,26.96,0,0,1-.41,3.115A19.208,19.208,0,0,1,51.68-6.24a12.5,12.5,0,0,1-1.7,3.076A10.838,10.838,0,0,1,47.266-.605,9.57,9.57,0,0,1,43.35.82ZM55.127-11.426v-3.125H67.1v2.871a13.337,13.337,0,0,1-.9,4.941A11.992,11.992,0,0,1,64.15-3.33a9.819,9.819,0,0,1-2.52,2.08,13.868,13.868,0,0,1-2.52,1.123,12.526,12.526,0,0,1-1.943.488A5.389,5.389,0,0,1,56.4.449V-2.676a13.122,13.122,0,0,0,2.715-.674,8.106,8.106,0,0,0,2.295-1.4,7.033,7.033,0,0,0,1.865-2.568,11.18,11.18,0,0,0,.82-4.111Z" transform="translate(152.25 232)" fill="#ffda2b"/>
  </g>
</svg>
