<svg xmlns="http://www.w3.org/2000/svg" width="330.302" height="76.024" viewBox="0 0 330.302 76.024">
  <g id="グループ_9235" data-name="グループ 9235" transform="translate(-285.96 -177.742)">
    <path id="パス_4361" data-name="パス 4361" d="M406.065,185.286v10.62h-19.87V246.04H375.484V195.906H355.613v-10.62Z" transform="translate(17.992 1.949)" fill="#0099d9"/>
    <path id="パス_4362" data-name="パス 4362" d="M406.018,207.244v9.182H388.575v-9.182Z" transform="translate(26.507 7.621)" fill="#0099d9"/>
    <path id="パス_4363" data-name="パス 4363" d="M442.2,185.286c13.68,0,19.53,8.461,19.53,18.181,0,7.56-3.6,15.661-12.87,18.271L463,246.04H451.206l-13.861-23.491H421.5a1.34,1.34,0,0,0-1.53,1.53V246.04h-10.62V222.007c0-6.839,2.879-9.63,9.539-9.63h23.674c6.029,0,8.458-4.141,8.458-8.461s-2.61-8.01-8.458-8.01H409.62v-10.62Z" transform="translate(31.874 1.949)" fill="#0099d9"/>
    <path id="パス_4364" data-name="パス 4364" d="M513.585,185.286,530.8,207.7l18.047-22.412h12.145l-24.037,29.882,24.2,30.871H549.182l-18.629-24.123L511.424,246.04H499.281L524.4,214.358l-22.789-29.072Z" transform="translate(55.103 1.949)" fill="#0099d9"/>
    <g id="グループ_9234" data-name="グループ 9234" transform="translate(285.96 177.742)">
      <path id="パス_4365" data-name="パス 4365" d="M325.489,183.526a2.724,2.724,0,1,0,2.724,2.723A2.723,2.723,0,0,0,325.489,183.526Z" transform="translate(-276.452 -176.248)" fill="#0099d9"/>
      <path id="パス_4366" data-name="パス 4366" d="M349.059,211.519a2.523,2.523,0,0,0-.516-2.391c-1.565-2.193-4.5-2.464-6.25-2.625-.337-.032-.759-.071-.9-.106-.478-.121-1.106-.307-1.656-.477l.127-2.556c2.451.279,6.938.745,11.256.941a10.344,10.344,0,0,0,8.689-3.837c2.579-3.248,3.194-7.9,1.731-13.1-2.067-7.35-8.691-10.665-18.653-9.34a32.2,32.2,0,0,0-3.8.745,5.585,5.585,0,0,1-3.338.159h0c-2.737-.685-6.616.453-10.628,3.127-3.522,2.348-3.722,4.928-4,8.5-.06.773-.127,1.624-.231,2.574a27.863,27.863,0,0,0,.824,9.509c.107.473.234,1.033.289,1.383a29.275,29.275,0,0,1-3.1,2.21c-2.04,1.351-4.832,3.2-8.318,5.914-5.962,4.636-6.594,9.3-7.2,13.8a30.884,30.884,0,0,1-1.173,5.779c-1.437,4.311-10.811,2.47-13.982,1.482a1.748,1.748,0,0,0-1.737,2.924c1,.966,9.918,9.44,15.934,9.44,4.313,0,9.386-1.895,12.581-3.177a27.7,27.7,0,0,0-.725,3.571c-.614,4.5.629,5.705,3.3,6.446.245.068.508.141.789.233a9.389,9.389,0,0,0,2.972.433,22.105,22.105,0,0,0,7.419-1.572,2.729,2.729,0,0,0,1.621-2.9,21.387,21.387,0,1,0,18.68-37.095Zm-29.587,37.816c-.34-.113-.659-.2-.958-.287-.316-.087-.75-.208-.812-.229a5.121,5.121,0,0,1,.043-2.374,24.118,24.118,0,0,1,1.183-4.88c.361-1.065.735-2.164-.166-3.069a1.9,1.9,0,0,0-1.4-.566,3.33,3.33,0,0,0-1.065.2c-.356.118-.929.35-1.662.648-2.841,1.154-8.129,3.3-12.214,3.3-2.135,0-5.475-1.962-8.515-4.233,4.551.394,10.021-.221,11.617-5.009a33.776,33.776,0,0,0,1.321-6.416c.586-4.332,1.051-7.754,5.885-11.515,3.382-2.63,6.11-4.438,8.1-5.758,3.223-2.137,4.695-3.112,4.695-4.857a12.03,12.03,0,0,0-.405-2.421,24.812,24.812,0,0,1-.76-8.353c.109-.993.179-1.884.242-2.69.259-3.332.346-4.454,2.454-5.86,3.1-2.065,6.1-3.079,7.839-2.645a8.908,8.908,0,0,0,5.027-.155,28.63,28.63,0,0,1,3.42-.673c8.252-1.1,13.242,1.194,14.825,6.821,1.15,4.091.759,7.634-1.1,9.98a6.74,6.74,0,0,1-5.792,2.518c-6.2-.282-12.774-1.133-12.84-1.141a1.748,1.748,0,0,0-1.972,1.646l-.288,5.772a1.747,1.747,0,0,0,1.2,1.747c.072.024,1.6.53,2.782.85a4.011,4.011,0,0,0-2.686,1,2.723,2.723,0,0,0-.781,1.682,21.327,21.327,0,0,0-9.636,32.647,5.531,5.531,0,0,0-.229,3c.018.137.04.307.057.464C324.94,249.172,321.54,250.02,319.473,249.335Zm24.8.934a17.906,17.906,0,1,1,17.907-17.906A17.925,17.925,0,0,1,344.271,250.268Z" transform="translate(-285.96 -177.742)" fill="#0099d9"/>
      <g id="グループ_9233" data-name="グループ 9233" transform="translate(41.974 38.283)">
        <g id="グループ_9231" data-name="グループ 9231" transform="translate(0 15.609)">
          <path id="パス_4367" data-name="パス 4367" d="M322.741,222.028h-2.7a.729.729,0,1,1,0-1.457h2.7a.729.729,0,1,1,0,1.457Z" transform="translate(-319.317 -220.571)" fill="#0099d9"/>
          <path id="パス_4368" data-name="パス 4368" d="M345.41,222.028h-2.7a.729.729,0,1,1,0-1.457h2.7a.729.729,0,1,1,0,1.457Z" transform="translate(-313.461 -220.571)" fill="#0099d9"/>
        </g>
        <g id="グループ_9232" data-name="グループ 9232" transform="translate(15.609)">
          <path id="パス_4369" data-name="パス 4369" d="M332.45,234.987a.728.728,0,0,1-.729-.729v-2.7a.729.729,0,0,1,1.457,0v2.7A.728.728,0,0,1,332.45,234.987Z" transform="translate(-331.722 -202.31)" fill="#0099d9"/>
          <path id="パス_4370" data-name="パス 4370" d="M332.45,212.319a.729.729,0,0,1-.729-.729v-2.7a.729.729,0,0,1,1.457,0v2.7A.729.729,0,0,1,332.45,212.319Z" transform="translate(-331.722 -208.166)" fill="#0099d9"/>
        </g>
      </g>
      <path id="パス_4371" data-name="パス 4371" d="M340.235,227.043,335.5,222.3a4.279,4.279,0,0,1-2.041,2.04l4.739,4.74a1.443,1.443,0,1,0,2.041-2.041Z" transform="translate(-273.691 -166.231)" fill="#0099d9" fill-rule="evenodd"/>
      <path id="パス_4372" data-name="パス 4372" d="M339.926,209.779a1.447,1.447,0,0,0-1.971.528l-5.343,9.252a4.251,4.251,0,0,1,2.493,1.453l5.349-9.264A1.447,1.447,0,0,0,339.926,209.779Z" transform="translate(-273.909 -169.516)" fill="#0099d9" fill-rule="evenodd"/>
      <path id="パス_4373" data-name="パス 4373" d="M332.593,218.587a2.855,2.855,0,1,1-2.855,2.855,2.855,2.855,0,0,1,2.855-2.855Z" transform="translate(-274.651 -167.191)" fill="#0099d9" fill-rule="evenodd"/>
    </g>
    <rect id="長方形_23081" data-name="長方形 23081" width="49.48" height="10.62" transform="translate(500.396 237.367)" fill="#0099d9"/>
    <rect id="長方形_23082" data-name="長方形 23082" width="49.379" height="10.62" transform="translate(500.396 187.234)" fill="#0099d9"/>
    <rect id="長方形_23083" data-name="長方形 23083" width="48.874" height="9.63" transform="translate(500.396 212.706)" fill="#0099d9"/>
  </g>
</svg>
