<svg xmlns="http://www.w3.org/2000/svg" xmlns:xlink="http://www.w3.org/1999/xlink" width="120" height="105" viewBox="0 0 120 105">
  <defs>
    <clipPath id="clip-path">
      <rect id="長方形_425" data-name="長方形 425" width="114.525" height="82.495" fill="none"/>
    </clipPath>
    <clipPath id="clip-path-2">
      <rect id="長方形_383" data-name="長方形 383" width="0.106" height="0.048" fill="none"/>
    </clipPath>
    <clipPath id="clip-path-3">
      <rect id="長方形_384" data-name="長方形 384" width="0.022" height="0.034" fill="none"/>
    </clipPath>
    <clipPath id="clip-path-4">
      <rect id="長方形_385" data-name="長方形 385" width="0.051" height="0.209" fill="none"/>
    </clipPath>
    <clipPath id="clip-path-5">
      <rect id="長方形_386" data-name="長方形 386" width="5.16" height="16.014" fill="none"/>
    </clipPath>
    <clipPath id="clip-path-6">
      <rect id="長方形_387" data-name="長方形 387" width="0.045" height="0.034" fill="none"/>
    </clipPath>
    <clipPath id="clip-path-7">
      <rect id="長方形_388" data-name="長方形 388" width="3.066" height="4.274" fill="none"/>
    </clipPath>
    <clipPath id="clip-path-8">
      <rect id="長方形_389" data-name="長方形 389" width="17.965" height="11.842" fill="none"/>
    </clipPath>
    <clipPath id="clip-path-9">
      <rect id="長方形_390" data-name="長方形 390" width="45.14" height="5.098" fill="none"/>
    </clipPath>
    <clipPath id="clip-path-10">
      <rect id="長方形_391" data-name="長方形 391" width="1.459" height="1.103" fill="none"/>
    </clipPath>
    <clipPath id="clip-path-11">
      <rect id="長方形_392" data-name="長方形 392" width="3.168" height="1.258" fill="none"/>
    </clipPath>
    <clipPath id="clip-path-12">
      <rect id="長方形_393" data-name="長方形 393" width="0.987" height="1.022" fill="none"/>
    </clipPath>
    <clipPath id="clip-path-13">
      <rect id="長方形_394" data-name="長方形 394" width="3.849" height="1.452" fill="none"/>
    </clipPath>
    <clipPath id="clip-path-15">
      <rect id="長方形_396" data-name="長方形 396" width="4.228" height="1.879" fill="none"/>
    </clipPath>
    <clipPath id="clip-path-16">
      <rect id="長方形_397" data-name="長方形 397" width="6.293" height="9.765" fill="none"/>
    </clipPath>
    <clipPath id="clip-path-17">
      <rect id="長方形_398" data-name="長方形 398" width="4.027" height="3.04" fill="none"/>
    </clipPath>
    <clipPath id="clip-path-18">
      <rect id="長方形_399" data-name="長方形 399" width="3.143" height="2.849" fill="none"/>
    </clipPath>
    <clipPath id="clip-path-19">
      <rect id="長方形_400" data-name="長方形 400" width="3.467" height="1.637" fill="none"/>
    </clipPath>
    <clipPath id="clip-path-20">
      <rect id="長方形_401" data-name="長方形 401" width="3.701" height="1.022" fill="none"/>
    </clipPath>
    <clipPath id="clip-path-21">
      <rect id="長方形_402" data-name="長方形 402" width="13.584" height="4.522" fill="none"/>
    </clipPath>
    <clipPath id="clip-path-22">
      <rect id="長方形_403" data-name="長方形 403" width="13.698" height="8.619" fill="none"/>
    </clipPath>
    <clipPath id="clip-path-23">
      <rect id="長方形_404" data-name="長方形 404" width="5.035" height="8.329" fill="none"/>
    </clipPath>
    <clipPath id="clip-path-24">
      <rect id="長方形_405" data-name="長方形 405" width="10.321" height="5.887" fill="none"/>
    </clipPath>
    <clipPath id="clip-path-25">
      <rect id="長方形_406" data-name="長方形 406" width="5.395" height="9.225" fill="none"/>
    </clipPath>
    <clipPath id="clip-path-26">
      <rect id="長方形_407" data-name="長方形 407" width="12.483" height="17.162" fill="none"/>
    </clipPath>
    <clipPath id="clip-path-27">
      <rect id="長方形_408" data-name="長方形 408" width="3.231" height="3.778" fill="none"/>
    </clipPath>
    <clipPath id="clip-path-28">
      <rect id="長方形_409" data-name="長方形 409" width="2.212" height="1.82" fill="none"/>
    </clipPath>
    <clipPath id="clip-path-29">
      <rect id="長方形_410" data-name="長方形 410" width="1.202" height="0.959" fill="none"/>
    </clipPath>
    <clipPath id="clip-path-30">
      <rect id="長方形_411" data-name="長方形 411" width="20.053" height="18.891" fill="none"/>
    </clipPath>
    <clipPath id="clip-path-31">
      <rect id="長方形_412" data-name="長方形 412" width="18.681" height="29.538" fill="none"/>
    </clipPath>
    <clipPath id="clip-path-32">
      <rect id="長方形_413" data-name="長方形 413" width="35.217" height="60.999" fill="none"/>
    </clipPath>
    <clipPath id="clip-path-34">
      <rect id="長方形_415" data-name="長方形 415" width="0.576" height="0.467" fill="none"/>
    </clipPath>
    <clipPath id="clip-path-35">
      <rect id="長方形_416" data-name="長方形 416" width="10.038" height="13.66" fill="none"/>
    </clipPath>
    <clipPath id="clip-path-36">
      <rect id="長方形_417" data-name="長方形 417" width="2.757" height="1.569" fill="none"/>
    </clipPath>
    <clipPath id="clip-path-37">
      <rect id="長方形_418" data-name="長方形 418" width="11.503" height="3.1" fill="none"/>
    </clipPath>
    <clipPath id="clip-path-38">
      <rect id="長方形_419" data-name="長方形 419" width="1.291" height="1.475" fill="none"/>
    </clipPath>
    <clipPath id="clip-path-39">
      <rect id="長方形_420" data-name="長方形 420" width="0.763" height="1.199" fill="none"/>
    </clipPath>
    <clipPath id="clip-path-40">
      <rect id="長方形_421" data-name="長方形 421" width="1.916" height="1.943" fill="none"/>
    </clipPath>
    <clipPath id="clip-path-41">
      <rect id="長方形_422" data-name="長方形 422" width="1.719" height="1.712" fill="none"/>
    </clipPath>
    <clipPath id="clip-path-42">
      <rect id="長方形_423" data-name="長方形 423" width="1.727" height="1.782" fill="none"/>
    </clipPath>
    <clipPath id="clip-path-43">
      <rect id="長方形_424" data-name="長方形 424" width="1.525" height="1.53" fill="none"/>
    </clipPath>
  </defs>
  <g id="icon_flow4" transform="translate(3 9.505)">
    <rect id="長方形_468" data-name="長方形 468" width="120" height="105" transform="translate(-3 -9.505)" fill="none"/>
    <g id="グループ_808" data-name="グループ 808" transform="translate(0)" clip-path="url(#clip-path)">
      <path id="パス_466" data-name="パス 466" d="M171.374,121.579a2.652,2.652,0,0,0,.877.325,1.085,1.085,0,0,0,1.155-.54l-2.032.214" transform="translate(-142.182 -100.692)" fill="#fff"/>
      <g id="グループ_684" data-name="グループ 684" transform="translate(24.833 53.903)" style="isolation: isolate">
        <g id="グループ_683" data-name="グループ 683">
          <g id="グループ_682" data-name="グループ 682" clip-path="url(#clip-path-2)">
            <path id="パス_467" data-name="パス 467" d="M145.893,316.445c-.173.02-.106.1,0,0" transform="translate(-145.786 -316.445)" fill="#3a8fb7"/>
          </g>
        </g>
      </g>
      <path id="パス_468" data-name="パス 468" d="M143.237,183.305a.487.487,0,0,1-.279.146c1.231,2.337,2.306,4.762,3.306,7.223.03-.908.046-1.817.087-2.723a15.7,15.7,0,0,1,.466-4.342.515.515,0,0,1,.186-.254l0,0a.531.531,0,0,1-.109-.125,14.937,14.937,0,0,1-1.447-2.784,34.171,34.171,0,0,1-2.207,2.861" transform="translate(-118.606 -149.707)" fill="#fff"/>
      <g id="グループ_687" data-name="グループ 687" transform="translate(30.411 33.073)" style="isolation: isolate">
        <g id="グループ_686" data-name="グループ 686">
          <g id="グループ_685" data-name="グループ 685" clip-path="url(#clip-path-3)">
            <path id="パス_469" data-name="パス 469" d="M178.532,194.194c.006-.012.015-.022.022-.034a.291.291,0,0,0-.022.034" transform="translate(-178.532 -194.16)" fill="#3a8fb7"/>
          </g>
        </g>
      </g>
      <g id="グループ_690" data-name="グループ 690" transform="translate(30.356 33.116)" style="isolation: isolate">
        <g id="グループ_689" data-name="グループ 689">
          <g id="グループ_688" data-name="グループ 688" clip-path="url(#clip-path-4)">
            <path id="パス_470" data-name="パス 470" d="M178.209,194.618a.531.531,0,0,1,.051-.209.5.5,0,0,0-.051.209" transform="translate(-178.209 -194.409)" fill="#3a8fb7"/>
          </g>
        </g>
      </g>
      <path id="パス_471" data-name="パス 471" d="M192.133,363.895a.514.514,0,0,1,.226-.854l7.741-1.2,2.479-.387-.774-.646-1.7.264-12.947,2.01,1.008.842,12.693,10.6,1.7-.264,1.673-.26-.014-.011-12.086-10.095" transform="translate(-155.278 -299.346)" fill="#fff"/>
      <path id="パス_472" data-name="パス 472" d="M115.033,142.85c.182.316.359.635.535.954,0-.005.008-.011.013-.016,1.205-1.208,2.011-2.9,3.328-4a59.6,59.6,0,0,1-7.423-6.1l-.572,1.947a.473.473,0,0,1-.419.354,64.083,64.083,0,0,1,4.538,6.864" transform="translate(-91.673 -110.913)" fill="#fff"/>
      <g id="グループ_693" data-name="グループ 693" transform="translate(28.473 33.957)" style="isolation: isolate">
        <g id="グループ_692" data-name="グループ 692">
          <g id="グループ_691" data-name="グループ 691" clip-path="url(#clip-path-5)">
            <path id="パス_473" data-name="パス 473" d="M167.876,199.567a15.35,15.35,0,0,0-.438,4.275c-.062,1.421-.062,2.85-.166,4.269a.513.513,0,0,1-.119.3c.9,2.315,1.763,4.647,2.646,6.951.781-2.212,1.775-4.37,2.514-6.6a.555.555,0,0,1-.027-.088q-.477-2.371-1.108-4.709a20.55,20.55,0,0,0-1.6-4.618,3.081,3.081,0,0,1-1.672.054.506.506,0,0,1-.028.163" transform="translate(-167.153 -199.35)" fill="#3a8fb7"/>
          </g>
        </g>
      </g>
      <path id="パス_474" data-name="パス 474" d="M329.185,218.69c-.029-.279-.328-.7-.626-.432a1.514,1.514,0,0,0-.235.589c-.093.3-.179.589-.291.877-.069.176-.143.35-.22.522l1.126-.079a3.689,3.689,0,0,0,.248-1.478" transform="translate(-271.972 -181.009)" fill="#fff"/>
      <path id="パス_475" data-name="パス 475" d="M360.877,224.238a.491.491,0,0,1,.051.352l.526-.037.406-.028c0-.014,0-.026,0-.041.011-.215.087-.6-.211-.592a5.227,5.227,0,0,0-.841.182,1.258,1.258,0,0,0,.072.165" transform="translate(-299.345 -185.754)" fill="#fff"/>
      <path id="パス_476" data-name="パス 476" d="M347.147,224.454a2.631,2.631,0,0,1-.235-.642c-.007-.031-.045-.12-.049-.156-.052,0-.188-.015-.224-.011a2.258,2.258,0,0,0-1.261.932l1.769-.124" transform="translate(-286.546 -185.549)" fill="#fff"/>
      <g id="グループ_696" data-name="グループ 696" transform="translate(32.714 25.214)" style="isolation: isolate">
        <g id="グループ_695" data-name="グループ 695">
          <g id="グループ_694" data-name="グループ 694" clip-path="url(#clip-path-6)">
            <path id="パス_477" data-name="パス 477" d="M192.1,148.03l-.01-.007-.035.034c.014-.01.03-.018.045-.027" transform="translate(-192.051 -148.023)" fill="#3a8fb7"/>
          </g>
        </g>
      </g>
      <path id="パス_478" data-name="パス 478" d="M87.962,290.958a.555.555,0,0,1-.452.758q-1.992.186-3.983.377c-.4.039-.808.078-1.212.12-.147.015-.588.133-.27-.008a.549.549,0,0,1-.188.045l.234,2.531c.085.925.591,2.559-.593,2.942a.508.508,0,0,1-.19.025l-.477.055-22.623,2.6-3.48.4a1.359,1.359,0,0,1-.99-.125,1.342,1.342,0,0,1-.466-1.139q-.168-1.818-.336-3.637l-.23.049a1.307,1.307,0,0,1,.206.67c.04,1.02-1.093,1.239-1.857,1.473,1.2.176,2.319.6,2.146,1.956a1.066,1.066,0,0,1-1.229.979c-1.3-.069-2.634.036-3.944.014-2.878-.048-5.751-.231-8.625-.364a26.329,26.329,0,0,1-4.868-.665l-1.108.065a1.891,1.891,0,0,0,.355.638.9.9,0,0,1-.473,1.185l-11.139.689-5.761.357a5.41,5.41,0,0,1-2.531-.219L27.64,322.8l6.28-.636a.517.517,0,0,1-.007-.064h0a.535.535,0,0,1,.375-.493,6.115,6.115,0,0,1,1.584-.171q1.974-.193,3.949-.375,11.893-1.114,23.789-2.187,7.478-.682,14.955-1.36c.473-.043.6.475.392.79l19.869-1.554V289.639ZM50.783,314.019a.521.521,0,0,1-.7.183l-.541-.272-2.681-.241c-.021,0-.039-.008-.059-.012a.6.6,0,0,1-.2-.058l-2.647-1.329-6.3-3.161a.427.427,0,0,1-.257-.424l-.045-.023-.294.586,3.387,1.7c.589.3.071,1.177-.516.883l-3.814-1.914a.519.519,0,0,1-.183-.7l.509-1.013-.272-.136a.489.489,0,0,1-.178-.147c-.4-.4-.17-.9.052-1.342.207-.412.411-.9.965-.884a2.735,2.735,0,0,1,1.005.417l.54.271a.569.569,0,0,1,.55-.019l6.3,3.161,2.506,1.258a.453.453,0,0,1,.2.11.42.42,0,0,1,.1.108l1.787,2,.6.3a.518.518,0,0,1,.183.7m29.175.42a.4.4,0,0,1-.367.372l-7.741,1.2c-2.65.412-5.3.83-7.95,1.234a1.233,1.233,0,0,1-1.137-.374l-1.254-1.048q-2.066.322-4.133.639a1.233,1.233,0,0,1-1.137-.374l-2.308-1.928L41.847,304.068a.513.513,0,0,1,.225-.854l7.741-1.2c2.65-.411,5.3-.83,7.95-1.234a1.233,1.233,0,0,1,1.137.374l1.254,1.047q2.066-.322,4.133-.639a1.233,1.233,0,0,1,1.137.374l2.308,1.928,12.085,10.095a.413.413,0,0,1,.142.482" transform="translate(-11.516 -240.302)" fill="#3a8fb7"/>
      <path id="パス_479" data-name="パス 479" d="M182.144,159.582a7.062,7.062,0,0,1-1.649,1.459l.012.008c1.193.988,1.817,2.493,2.707,3.739a6.364,6.364,0,0,1,.321-.684,33.052,33.052,0,0,0-1.023-3.749.438.438,0,0,1,.042-.4,4.6,4.6,0,0,0-.3-.564.543.543,0,0,1-.109.194" transform="translate(-149.749 -132.238)" fill="#fff"/>
      <path id="パス_480" data-name="パス 480" d="M48.275,163.411c1.4-.1,2.812-.157,4.21-.233-.008-.013-.017-.023-.025-.037l-1.874-3.508q-1.743-3.262-3.487-6.524a3.23,3.23,0,0,0-1.7-1.789c-.507-.179-1.078-.266-1.6-.392l-3.739-.905a.475.475,0,0,1-.317-.683l-1.322-.478c.585.511,1.148,1.05,1.713,1.583a2.6,2.6,0,0,1,.693.871c.528,1.147.99,2.33,1.483,3.493.255.6-.626,1.119-.883.516l-1.443-3.4c-.026-.061-.189-.389-.149-.367a5.778,5.778,0,0,0-.481-.446c-.622-.587-1.24-1.183-1.892-1.736a.434.434,0,0,1-.027-.665,5.233,5.233,0,0,1-.432.343.5.5,0,0,1,.05.356l-.095.446a.565.565,0,0,1,.361.673,4.6,4.6,0,0,1,.3.564.54.54,0,0,1,.943.131,36.275,36.275,0,0,1,1.478,6.247,20.687,20.687,0,0,1,.309,5.7,32.888,32.888,0,0,1-2.466,7.917,44.618,44.618,0,0,0,3.239-6.765,42.392,42.392,0,0,0,1.679-5.264c.249-1.023-.484-1.246-1.25-1.648q-.586-.307-1.177-.606c-.588-.3-.07-1.178.516-.883.948.479,2.655,1,3.008,2.1a5.04,5.04,0,0,1-.438,2.554c-.092.327-.19.651-.291.975l.034-.009a.559.559,0,0,1,.482-.531l2.538-.338a.508.508,0,0,1,.493.375l.23,1.607c.035.242-.06.587-.357.629l-3.023.421a.546.546,0,0,1-.565-.293l-.455.008c-.015.042-.029.084-.044.126a41.241,41.241,0,0,1-5.656,10.921.527.527,0,0,1-.287.2.537.537,0,0,1-.875.064.521.521,0,0,1-.441-.338q-.549-1.419-1.1-2.836c-1.323-3.388-2.634-6.784-4.036-10.141A56.8,56.8,0,0,0,22.784,149l-1.158.787a.473.473,0,0,1,.1.221l1.123,5.8c.125.644-.861.917-.985.272l-1.1-5.7a9.7,9.7,0,0,1-1.946,1.283,14.583,14.583,0,0,1-2.5.4,17.935,17.935,0,0,0-3.827.936,3.116,3.116,0,0,0-1.807,2.3,28.174,28.174,0,0,0-.908,3.589c-.6,3.051-1.25,6.08-1.771,9.149q-.825,4.866-1.638,9.728c-.264,1.6-.851,3.378-.361,4.974.333,1.086,1.139,2.334,2.4,2.354,1.039.016,2.106-.13,3.142-.195l6.288-.389,8.18-.506c-.679-1.27-.377-2.955-.054-4.291a20.487,20.487,0,0,1,1.021-3.093l-10.52.1a.463.463,0,0,1-.375-.163A.526.526,0,0,1,15.83,176l1.917-11.341c.11-.648,1.094-.372.985.272l-1.817,10.752,10.708-.1a.5.5,0,0,1,.464.689.52.52,0,0,1-.024.376c-.13.289-.248.584-.361.882h.166a.448.448,0,0,1,.456-.3c.482.014.964.024,1.446.041a2.073,2.073,0,0,1,.293-.165c.3-.17.6-.338.906-.5a5.251,5.251,0,0,1,2.108-.754c1.252-.1,2.542-.006,3.8,0,1,.007,2.181-.134,2.87.765a1.343,1.343,0,0,1-.4,1.944,4.709,4.709,0,0,1-2.576.6,6.594,6.594,0,0,0,1.174.87l1.439-.1a.522.522,0,0,1,.344-.538,18.219,18.219,0,0,1,4.573-1.07,1.827,1.827,0,0,1,1.709.7l.23-.049q-.346-3.743-.691-7.487-.253-2.743-.507-5.486c-.085-.916-.431-2.184.869-2.361.608-.082,1.221-.145,1.837-.2a.521.521,0,0,1-.329-.439q-.259-2.521-.518-5.042c-.067-.655.955-.648,1.022,0q.259,2.521.518,5.042a.41.41,0,0,1-.165.4M14.653,176.431a4.637,4.637,0,0,0-2.987.754c-.553.36-1.065-.525-.516-.883a5.559,5.559,0,0,1,3.5-.893c.652.052.656,1.075,0,1.022m3.359-13.311-5.257-8.761a.511.511,0,0,1,.883-.516l5.257,8.761a.511.511,0,0,1-.883.516M33.1,171.94c-1.009-1.347-2.16-2.6-3.273-3.856-2.42-2.74-4.921-5.415-7.268-8.218a3.606,3.606,0,0,1-.934-1.4,1.475,1.475,0,0,1,.824-1.547c1.006-.64,2.046-1.232,3.068-1.847a.511.511,0,0,1,.516.883l-1.414.852a9.186,9.186,0,0,0-1.746,1.051c-.621.631,1.212,2.227,1.645,2.722,1.131,1.291,2.277,2.568,3.42,3.847,2.045,2.289,4.2,4.537,6.045,7,.395.527-.493,1.036-.883.516" transform="translate(-4.82 -123.38)" fill="#fff"/>
      <path id="パス_481" data-name="パス 481" d="M194.5,329.114a11.255,11.255,0,0,0,3.742.829q.661-.2,1.32-.4a9.684,9.684,0,0,0,1.861-.575c.472-.266.1-.568-.31-.607a6.773,6.773,0,0,0-1.706.24,17.587,17.587,0,0,0-2.9.826.451.451,0,0,1-.615-.447l-1.439.1c.016.009.031.019.048.028" transform="translate(-161.331 -272.426)" fill="#fff"/>
      <path id="パス_482" data-name="パス 482" d="M146.6,319.6c-.265-.4-1.433-.382-1.891-.448-.58-.083-1.161-.157-1.742-.236a.457.457,0,0,1-.093-.012l-.278-.037a13.426,13.426,0,0,1-3.789-.835c-.968-.455-1.6-1.487-2.613-1.849a.514.514,0,0,1,.136-1c.575-.035,1.151-.04,1.726-.079.453-.03,1.372.02,1.743-.286.974-.8-.7-.923-1.087-.927-.5,0-.994-.007-1.491-.011-.938-.007-1.9-.074-2.834,0-1.135.084-1.968.864-2.968,1.313a4.583,4.583,0,0,1-1.921.074.52.52,0,0,1-.456-.727h-.167c-.239.626-.446,1.266-.624,1.908a7.044,7.044,0,0,0-.345,3.719l1.108-.065c-.078-.019-.157-.036-.234-.055a.511.511,0,0,1,.272-.985,30.515,30.515,0,0,0,5.974.739c3.046.149,6.091.329,9.142.322.675,0,1.373-.09,2.045-.063.2.008.388.134.459-.05a.619.619,0,0,0-.072-.4" transform="translate(-105.999 -260.378)" fill="#fff"/>
      <path id="パス_483" data-name="パス 483" d="M222.25,225.208l2.585-.36-.087-.607-2.107.28a.417.417,0,0,1-.481-.491l-.034.009q-.292.941-.624,1.869l.454-.008a.435.435,0,0,1,.293-.693" transform="translate(-183.772 -185.869)" fill="#fff"/>
      <path id="パス_484" data-name="パス 484" d="M187.239,186.408c.4.521-.487,1.03-.883.516a19.579,19.579,0,0,1-1.144-1.775c-.02.5-.042,1.006-.086,1.507a.553.553,0,0,1,.059.078,19.041,19.041,0,0,1,1.831,4.965q.436,1.6.8,3.213c.1-.443.194-.889.264-1.341a19.211,19.211,0,0,0-.29-5.883q-.177-1.11-.411-2.212a6.323,6.323,0,0,0-.321.684q.09.126.183.248" transform="translate(-153.592 -153.611)" fill="#fff"/>
      <g id="グループ_699" data-name="グループ 699" transform="translate(27.632 28.77)" style="isolation: isolate">
        <g id="グループ_698" data-name="グループ 698">
          <g id="グループ_697" data-name="グループ 697" clip-path="url(#clip-path-7)">
            <path id="パス_485" data-name="パス 485" d="M163.174,168.97a.477.477,0,0,1-.235.474,4.813,4.813,0,0,0-.719.555c0,.01.008.018.011.028a11.514,11.514,0,0,0,1.474,3.023,2.154,2.154,0,0,0,.757.116,2.723,2.723,0,0,0,.52-.019c.025,0,.066-.02.1-.028l.023-.023c.072-.855.081-1.716.132-2.573a.538.538,0,0,1,.048-.193,5.134,5.134,0,0,0-.664-.671.438.438,0,0,1-.167-.284c-.048.02-.094.042-.143.061-.4.153-.646-.2-.611-.54h-.525a.554.554,0,0,1,0,.073" transform="translate(-162.219 -168.897)" fill="#3a8fb7"/>
          </g>
        </g>
      </g>
      <path id="パス_486" data-name="パス 486" d="M126.192,34.819a.575.575,0,0,1-.57-.64c.02-.145.039-.293.058-.443a6.7,6.7,0,0,1-.35-.645c-.272.207-.71.177-.776-.244a4.129,4.129,0,0,0-.583-1.567c-.181-.289-.595-.9-1.014-.838a.534.534,0,0,1-.516-.216,1.635,1.635,0,0,1-.337-.3.434.434,0,0,1-.657.153,3.227,3.227,0,0,0-2.805-.569c-1.067.334-1.352,1.269-1.844,2.151a5.309,5.309,0,0,1-3.348,2.464,2.079,2.079,0,0,1-.381.453.561.561,0,0,1,.034.913,2.917,2.917,0,0,0-.9,2.577c.1.591-.723.869-.941.412l0,0c-.488-.377-1.325-.851-1.656-.081a3.19,3.19,0,0,0,1.983,3.838c.644.135.37,1.12-.272.986a2.674,2.674,0,0,1-.5-.16v.534a.515.515,0,0,1,.987.184q-.014,1.526-.028,3.051a51.6,51.6,0,0,0,7.387,5.93.477.477,0,0,1,.237.395h.525a.52.52,0,0,1,.339-.445,4.588,4.588,0,0,0,1.452-.9c0-.018,0-.036.006-.054l.239-1.127c-3.48,1.371-7.389-2.011-9.335-4.62-.394-.528.494-1.037.883-.516,1.875,2.513,6.252,6.273,9.337,3.384a6.76,6.76,0,0,0,1.439-2.1A16.952,16.952,0,0,0,125.4,44.1a19.448,19.448,0,0,0,.364-4.171.511.511,0,0,1,.549-.491c.034-1.531-.28-3.106-.116-4.621m-3.761.274a3.679,3.679,0,0,1,2.55-.163.511.511,0,0,1-.272.986,2.64,2.64,0,0,0-1.762.06c-.585.3-1.1-.584-.516-.883m1.048,2.765a.511.511,0,0,1,0-1.022.511.511,0,0,1,0,1.022m-7.314-2.339a6.1,6.1,0,0,1,3.135-.364c.649.1.372,1.082-.272.985a5.1,5.1,0,0,0-2.592.364c-.615.237-.879-.751-.272-.986m1.752,2.615a.511.511,0,0,1,0-1.022.511.511,0,0,1,0,1.022m5.527,6.452c-.365.891-1,1.921-2.037,2.049a4.144,4.144,0,0,1-3.1-1.372.518.518,0,0,1,.361-.872l4.279-.452a.407.407,0,0,1,.415.186.4.4,0,0,1,.078.461m-2.161-2.822.434-.091a.523.523,0,0,1,.629.357.514.514,0,0,1-.357.629l-.434.091a.523.523,0,0,1-.629-.357.514.514,0,0,1,.357-.629m1.886-1.538a1.974,1.974,0,0,1-1.413-1.347,6.759,6.759,0,0,0,.522,1.664c.266.6-.615,1.115-.882.516a6.3,6.3,0,0,1-.678-2.989l-.507.045a2.859,2.859,0,0,1-2.741,2.659,2.828,2.828,0,0,1-2.858-2.424l-1.572.2c-.652.083-.644-.94,0-1.022l1.991-.253c.295-.037.487.264.511.511.1,1.08.749,2.024,1.928,1.966a1.91,1.91,0,0,0,1.749-2.132.5.5,0,0,1,.677-.467.538.538,0,0,1,.177-.048l.982-.088a.5.5,0,0,1,.762-.068l.165-.015a.518.518,0,0,1,.511.511,3.152,3.152,0,0,0,.343,1.381c.792,1.182,2.455,0,2.29-1.187-.09-.644.9-.92.985-.272a2.44,2.44,0,0,1-2.942,2.857" transform="translate(-90.806 -24.385)" fill="#fff"/>
      <g id="グループ_702" data-name="グループ 702" transform="translate(17.045 1.012)" style="isolation: isolate">
        <g id="グループ_701" data-name="グループ 701">
          <g id="グループ_700" data-name="グループ 700" clip-path="url(#clip-path-8)">
            <path id="パス_487" data-name="パス 487" d="M101.135,14.922c.154.913.3,1.839.514,2.744a2.082,2.082,0,0,1,1.753.117,3.726,3.726,0,0,1,1.4-2.629.406.406,0,0,1,.482-.031,2.084,2.084,0,0,0,.381-.453,4.761,4.761,0,0,1-1.089.137.511.511,0,0,1,0-1.022,4.37,4.37,0,0,0,3.219-1.58c.637-.772.815-1.8,1.59-2.482a3.951,3.951,0,0,1,4.793.019.536.536,0,0,1,.141.729,1.636,1.636,0,0,0,.337.3c-.206-.273-.176-.709.245-.77,1.628-.236,2.642,1.772,2.854,3.119a.527.527,0,0,1-.209.516,6.637,6.637,0,0,0,.35.645,7.58,7.58,0,0,0-.2-3.746c-.441-1.081-1.8-2.678-3.048-2.484-.645.1-.92-.885-.272-.986.064-.01.129-.017.193-.022a1.3,1.3,0,0,0-.907-.417c.109.414-.3.908-.712.591a7.149,7.149,0,0,0-3.319-1.156,7.665,7.665,0,0,0-4.029.321,7.965,7.965,0,0,0-3.147,2.932A7.331,7.331,0,0,0,101,13.056a.527.527,0,0,1-.839.394,4.58,4.58,0,0,0,.049,2.107l-.061-.364c-.109-.644.876-.919.986-.272" transform="translate(-100.063 -5.941)" fill="#3a8fb7"/>
          </g>
        </g>
      </g>
      <g id="グループ_705" data-name="グループ 705" transform="translate(22.397 77.206)" style="isolation: isolate">
        <g id="グループ_704" data-name="グループ 704">
          <g id="グループ_703" data-name="グループ 703" clip-path="url(#clip-path-9)">
            <path id="パス_488" data-name="パス 488" d="M175.658,454.106l.87-.068c.208-.315.081-.833-.392-.79q-7.478.678-14.955,1.36-11.9,1.085-23.789,2.188-1.975.185-3.949.375a6.121,6.121,0,0,0-1.583.171.536.536,0,0,0-.375.493h0a.507.507,0,0,0,.007.064l.65-.076-.65.076a.5.5,0,0,0,.657.406l-.017.022c-.1.04.032-.006.214-.024l.907-.091q1.623-.159,3.247-.31,5.265-.5,10.532-.976,11.825-1.087,23.651-2.16l5.454-.5a.509.509,0,0,0,.392-.232Z" transform="translate(-131.485 -453.245)" fill="#323232"/>
          </g>
        </g>
      </g>
      <g id="グループ_708" data-name="グループ 708" transform="translate(30.1 17.275)" style="isolation: isolate">
        <g id="グループ_707" data-name="グループ 707">
          <g id="グループ_706" data-name="グループ 706" clip-path="url(#clip-path-10)">
            <path id="パス_489" data-name="パス 489" d="M177.352,102.5l.434-.09a.514.514,0,0,0,.357-.629.523.523,0,0,0-.629-.357l-.434.091a.515.515,0,0,0-.357.629.523.523,0,0,0,.629.357" transform="translate(-176.703 -101.412)" fill="#323232"/>
          </g>
        </g>
      </g>
      <g id="グループ_711" data-name="グループ 711" transform="translate(31.367 10.394)" style="isolation: isolate">
        <g id="グループ_710" data-name="グループ 710">
          <g id="グループ_709" data-name="グループ 709" clip-path="url(#clip-path-11)">
            <path id="パス_490" data-name="パス 490" d="M184.915,62.216a2.64,2.64,0,0,1,1.762-.06.511.511,0,0,0,.272-.986,3.679,3.679,0,0,0-2.55.163c-.586.3-.069,1.181.516.883" transform="translate(-184.141 -61.019)" fill="#323232"/>
          </g>
        </g>
      </g>
      <g id="グループ_714" data-name="グループ 714" transform="translate(32.179 12.452)" style="isolation: isolate">
        <g id="グループ_713" data-name="グループ 713">
          <g id="グループ_712" data-name="グループ 712" clip-path="url(#clip-path-12)">
            <path id="パス_491" data-name="パス 491" d="M189.407,74.121a.511.511,0,0,0,0-1.022.511.511,0,0,0,0,1.022" transform="translate(-188.913 -73.099)" fill="#323232"/>
          </g>
        </g>
      </g>
      <g id="グループ_717" data-name="グループ 717" transform="translate(25.015 10.705)" style="isolation: isolate">
        <g id="グループ_716" data-name="グループ 716">
          <g id="グループ_715" data-name="グループ 715" clip-path="url(#clip-path-13)">
            <path id="パス_492" data-name="パス 492" d="M150.335,62.91a6.1,6.1,0,0,0-3.135.364c-.607.234-.343,1.223.272.986a5.1,5.1,0,0,1,2.592-.363c.643.1.921-.888.272-.986" transform="translate(-146.856 -62.843)" fill="#323232"/>
          </g>
        </g>
      </g>
      <g id="グループ_720" data-name="グループ 720" transform="translate(26.618 12.727)" style="isolation: isolate">
        <g id="グループ_719" data-name="グループ 719">
          <g id="グループ_718" data-name="グループ 718" clip-path="url(#clip-path-12)">
            <path id="パス_493" data-name="パス 493" d="M156.756,74.716a.511.511,0,0,0,0,1.022.511.511,0,0,0,0-1.022" transform="translate(-156.262 -74.716)" fill="#323232"/>
          </g>
        </g>
      </g>
      <path id="パス_494" data-name="パス 494" d="M160.73,116.1a4.144,4.144,0,0,0,3.1,1.372c1.041-.128,1.672-1.158,2.037-2.049a.4.4,0,0,0-.078-.461.407.407,0,0,0-.415-.186l-4.279.452a.518.518,0,0,0-.361.872m2.564.335a2.659,2.659,0,0,1-.877-.325l2.032-.214a1.085,1.085,0,0,1-1.155.54" transform="translate(-133.225 -95.223)" fill="#323232"/>
      <g id="グループ_723" data-name="グループ 723" transform="translate(6.095 52.011)" style="isolation: isolate">
        <g id="グループ_722" data-name="グループ 722">
          <g id="グループ_721" data-name="グループ 721" clip-path="url(#clip-path-15)">
            <path id="パス_495" data-name="パス 495" d="M36.015,306.246c-.549.358-.037,1.243.516.883a4.636,4.636,0,0,1,2.987-.754c.656.053.652-.97,0-1.022a5.558,5.558,0,0,0-3.5.893" transform="translate(-35.779 -305.334)" fill="#323232"/>
          </g>
        </g>
      </g>
      <path id="パス_496" data-name="パス 496" d="M39.084,107.969c-.353-1.1-2.06-1.62-3.008-2.1-.586-.3-1.1.586-.516.883q.59.3,1.177.606c.767.4,1.5.625,1.25,1.648a42.424,42.424,0,0,1-1.679,5.264,44.609,44.609,0,0,1-3.239,6.765,32.88,32.88,0,0,0,2.466-7.917,20.687,20.687,0,0,0-.309-5.7,36.273,36.273,0,0,0-1.478-6.247c-.211-.619-1.2-.353-.986.272a33.018,33.018,0,0,1,1.023,3.749,1.2,1.2,0,0,1,.359-.37,1.2,1.2,0,0,0-.359.37q.235,1.1.411,2.212a19.21,19.21,0,0,1,.29,5.883c-.07.452-.16.9-.264,1.341q-.365-1.615-.8-3.213a19.041,19.041,0,0,0-1.831-4.965.554.554,0,0,0-.059-.078c.044-.5.066-1,.086-1.507a19.6,19.6,0,0,0,1.144,1.775c.4.514,1.284.006.883-.516q-.094-.122-.183-.248a2.371,2.371,0,0,1-.171.308,2.371,2.371,0,0,0,.171-.308c-.89-1.246-1.514-2.751-2.707-3.739l-.012-.008a7.059,7.059,0,0,0,1.65-1.458.547.547,0,0,0-.253-.867l.095-.446a.5.5,0,0,0-.05-.356,5.269,5.269,0,0,0,.432-.343.434.434,0,0,0,.027.665c.652.553,1.271,1.149,1.892,1.736a5.836,5.836,0,0,1,.481.446c-.04-.022.123.305.149.366l1.443,3.4c.256.6,1.137.083.883-.516-.494-1.163-.955-2.346-1.484-3.493a2.594,2.594,0,0,0-.693-.871c-.565-.533-1.127-1.072-1.713-1.583l-.59-.213.59.213c-.079-.069-.157-.139-.237-.207a.515.515,0,0,0-.609-.052,5.845,5.845,0,0,0,.7.482,5.845,5.845,0,0,1-.7-.482c-.015.009-.031.017-.045.027l.035-.034a2.385,2.385,0,0,0-.308-.192,2.385,2.385,0,0,1,.308.192,11.868,11.868,0,0,0,2.577-4.483,16.568,16.568,0,0,0,.65-5.184.455.455,0,0,0-.473-.491,7.141,7.141,0,0,1-.165,1.45,7.141,7.141,0,0,0,.165-1.45.51.51,0,0,0-.549.491,19.459,19.459,0,0,1-.364,4.171,16.986,16.986,0,0,1-1.117,2.671,6.762,6.762,0,0,1-1.439,2.1c-3.085,2.889-7.462-.871-9.337-3.384-.389-.521-1.277-.012-.883.516,1.946,2.609,5.855,5.991,9.335,4.62l-.239,1.127a.5.5,0,0,0-.006.054,4.588,4.588,0,0,1-1.452.9.52.52,0,0,0-.339.446h0c-.035.335.214.692.611.54.049-.019.1-.041.143-.06a.438.438,0,0,0,.167.284,5.135,5.135,0,0,1,.664.671.537.537,0,0,0-.048.193c-.051.857-.061,1.717-.132,2.573-.008.007-.016.015-.023.023-.033.007-.075.024-.1.028a2.726,2.726,0,0,1-.521.019,2.15,2.15,0,0,1-.758-.117,11.521,11.521,0,0,1-1.474-3.023c0-.01-.007-.018-.011-.028a4.8,4.8,0,0,1,.719-.555.477.477,0,0,0,.236-.474.525.525,0,0,0,0-.073h0a.477.477,0,0,0-.237-.395,51.628,51.628,0,0,1-7.387-5.93q.014-1.526.028-3.051a.515.515,0,0,0-.987-.184v0a.52.52,0,0,0-.035.184q-.01,1.059-.02,2.117l-.036-.034a.517.517,0,0,0-.854.226l-.806,2.744a.524.524,0,0,0-.02.174.588.588,0,0,0-.136.009.424.424,0,0,0-.505.009l-1.915,1.3a17.078,17.078,0,0,1-1.976,1.355,1.492,1.492,0,0,0-.167.039c-.145.028-.291.047-.437.069-.486.073-.973.14-1.458.217a24.548,24.548,0,0,0-3.621.783,4.1,4.1,0,0,0-2.383,1.477,12.551,12.551,0,0,0-1.322,3.737C3.65,109.7,3.074,112.512,2.6,115.3c-.608,3.551-1.224,7.093-1.8,10.649-.479,2.956-1.781,6.55.548,9.063a3.009,3.009,0,0,0,1.02.741l-.409-.9.409.9a5.41,5.41,0,0,0,2.53.219l5.761-.357,11.139-.689a.9.9,0,0,0,.473-1.185,1.9,1.9,0,0,1-.355-.638l-.406.024.406-.024a7.044,7.044,0,0,1,.346-3.719c.177-.642.385-1.282.624-1.908h0c.113-.3.232-.593.362-.882a.52.52,0,0,0,.024-.376.5.5,0,0,0-.464-.689l-10.708.1,1.817-10.752c.109-.643-.876-.92-.986-.272L11.01,125.948a.526.526,0,0,0,.247.546.464.464,0,0,0,.375.163l10.52-.1a20.468,20.468,0,0,0-1.021,3.093c-.323,1.335-.624,3.02.054,4.291l-8.179.506-6.288.389c-1.036.064-2.1.211-3.142.194-1.258-.02-2.064-1.268-2.4-2.354-.49-1.6.1-3.377.361-4.974q.8-4.871,1.638-9.728c.52-3.069,1.172-6.1,1.771-9.149a28.189,28.189,0,0,1,.908-3.589,3.116,3.116,0,0,1,1.807-2.3A17.949,17.949,0,0,1,11.491,102a14.585,14.585,0,0,0,2.505-.4,9.714,9.714,0,0,0,1.946-1.283l1.1,5.7c.125.645,1.11.372.986-.272l-1.123-5.8a.473.473,0,0,0-.1-.221l1.158-.787a56.806,56.806,0,0,1,7.324,12.411c1.4,3.357,2.713,6.753,4.036,10.141q.553,1.417,1.1,2.836a.521.521,0,0,0,.441.338.537.537,0,0,0,.875-.064.527.527,0,0,0,.287-.2,41.236,41.236,0,0,0,5.656-10.921l.044-.126-.892.016.892-.016q.332-.928.624-1.869l-.56.157.56-.157c.1-.324.2-.649.291-.975a5.043,5.043,0,0,0,.438-2.554M30.433,106.4c-.007.012-.016.022-.022.034.006-.012.015-.022.022-.034m-.026.043a.532.532,0,0,0-.051.209.5.5,0,0,1,.051-.209m-6.513-.224c-.176-.32-.353-.638-.535-.954A64.086,64.086,0,0,0,18.822,98.4a.473.473,0,0,0,.419-.354l.572-1.947a59.6,59.6,0,0,0,7.423,6.1c-1.317,1.107-2.123,2.8-3.328,4-.005.005-.008.011-.013.016m4.316,1.011a15.688,15.688,0,0,0-.466,4.342c-.042.906-.057,1.815-.088,2.723-1-2.461-2.075-4.886-3.306-7.223a.488.488,0,0,0,.279-.147,34.146,34.146,0,0,0,2.207-2.861,14.927,14.927,0,0,0,1.447,2.784.535.535,0,0,0,.109.125l0,0a.513.513,0,0,0-.185.254M31.119,123.3c-.883-2.3-1.743-4.635-2.646-6.951a.515.515,0,0,0,.119-.3c.1-1.419.1-2.848.166-4.269A15.356,15.356,0,0,1,29.2,107.5a.512.512,0,0,0,.028-.164,3.08,3.08,0,0,0,1.672-.053,20.551,20.551,0,0,1,1.6,4.618q.629,2.335,1.108,4.709a.54.54,0,0,0,.027.088c-.738,2.229-1.733,4.388-2.514,6.6" transform="translate(0 -73.328)" fill="#323232"/>
      <g id="グループ_726" data-name="グループ 726" transform="translate(7.858 30.218)" style="isolation: isolate">
        <g id="グループ_725" data-name="グループ 725">
          <g id="グループ_724" data-name="グループ 724" clip-path="url(#clip-path-16)">
            <path id="パス_497" data-name="パス 497" d="M52.345,186.4l-5.257-8.761a.511.511,0,0,0-.883.516l5.257,8.761a.511.511,0,0,0,.883-.516" transform="translate(-46.129 -177.399)" fill="#323232"/>
          </g>
        </g>
      </g>
      <g id="グループ_729" data-name="グループ 729" transform="translate(38.109 37.291)" style="isolation: isolate">
        <g id="グループ_728" data-name="グループ 728">
          <g id="グループ_727" data-name="グループ 727" clip-path="url(#clip-path-17)">
            <path id="パス_498" data-name="パス 498" d="M227.745,220.9l-.23-1.607a.507.507,0,0,0-.493-.375l-2.538.338a.559.559,0,0,0-.481.531l.326-.091-.326.091a.417.417,0,0,0,.481.491l2.107-.28.087.607-2.585.36a.435.435,0,0,0-.293.692l.713-.013-.713.013a.546.546,0,0,0,.565.293l3.023-.421c.3-.041.391-.386.357-.629" transform="translate(-223.725 -218.919)" fill="#323232"/>
          </g>
        </g>
      </g>
      <path id="パス_499" data-name="パス 499" d="M148.743,313.148c.764-.233,1.9-.453,1.857-1.473a1.6,1.6,0,0,0-1.915-1.369,18.235,18.235,0,0,0-4.574,1.07.522.522,0,0,0-.344.539l.438-.031-.438.031a.451.451,0,0,0,.615.447,17.588,17.588,0,0,1,2.9-.826,6.774,6.774,0,0,1,1.707-.24c.413.039.782.341.31.607a9.677,9.677,0,0,1-1.861.575q-.66.2-1.32.4a11.252,11.252,0,0,1-3.742-.829c-.017-.008-.032-.019-.048-.028l-1.249.088,1.249-.088a6.594,6.594,0,0,1-1.174-.87,4.71,4.71,0,0,0,2.576-.6,1.343,1.343,0,0,0,.4-1.944c-.689-.9-1.868-.758-2.87-.765-1.256-.009-2.546-.108-3.8,0a5.256,5.256,0,0,0-2.108.754q-.456.246-.906.5a2.071,2.071,0,0,0-.293.165c-.482-.016-.964-.027-1.447-.041a.448.448,0,0,0-.456.3h0a.52.52,0,0,0,.456.727,4.589,4.589,0,0,0,1.921-.074c1-.45,1.832-1.23,2.967-1.314.936-.069,1.9,0,2.834,0,.5,0,.994.006,1.491.011.389,0,2.061.123,1.087.927-.371.306-1.29.256-1.743.286-.575.038-1.151.044-1.726.079a.514.514,0,0,0-.136,1c1.011.362,1.645,1.395,2.613,1.849a13.423,13.423,0,0,0,3.789.835l.278.037a.442.442,0,0,0,.093.012c.581.078,1.162.152,1.742.236.458.066,1.627.047,1.891.448a.618.618,0,0,1,.072.4c-.072.184-.264.057-.459.05-.672-.027-1.37.062-2.045.063-3.051.007-6.1-.173-9.142-.322a30.506,30.506,0,0,1-5.974-.739.512.512,0,0,0-.272.986c.078.019.156.036.234.055l.362-.021-.362.021a26.345,26.345,0,0,0,4.868.665c2.874.133,5.747.316,8.625.364,1.31.022,2.644-.083,3.944-.014a1.065,1.065,0,0,0,1.228-.979c.173-1.356-.951-1.779-2.146-1.956m-14.6-3.889c-.106.1-.173.02,0,0" transform="translate(-109.204 -255.355)" fill="#323232"/>
      <path id="パス_500" data-name="パス 500" d="M245.584,251.042l5.141-.591,19.183-2.205c.057-.04-.033-.575-.041-.659q-.518-5.607-1.036-11.214-.216-2.336-.431-4.671a1.769,1.769,0,0,0-.045-.49l0-.007a2.216,2.216,0,0,0-.592.046l-21.874,1.528-3.833.268c-.128.009-.656-.038-.755.053a1.64,1.64,0,0,1,.054.407l.972,10.52.514,5.564c.046.5.069,1.012.139,1.511a2.756,2.756,0,0,0,.015.282c.011-.033.081-.06.117-.057a13.39,13.39,0,0,0,2.476-.285m-2.918-10.771-.452-4.889c-.079-.852-.35-1.906.831-2.089.7-.108,1.436-.1,2.142-.156l4.659-.34,11.722-.855,4.25-.31c.57-.042,1.546-.293,2.013.152.567.541.432,2.075.5,2.773q.254,2.751.508,5.5l.5,5.409c.084.911.516,2.238-.566,2.663a.465.465,0,0,1-.245.03l-.374.042-19.9,2.226-3.269.366c-.771.086-1.348-.164-1.436-1.032-.319-3.16-.584-6.327-.877-9.49" transform="translate(-200.194 -191.811)" fill="#fff"/>
      <path id="パス_501" data-name="パス 501" d="M253.519,256.465a.331.331,0,0,1,.006.078c.009-.024.038-.066.123-.1a12.022,12.022,0,0,1,2.483-.278l4.631-.518,16.645-1.861a.356.356,0,0,1,0-.118,3.109,3.109,0,0,0-.047-.5l-.917-9.929q-.176-1.908-.352-3.816c-.005-.057,0-.144-.008-.222-.227.027-.459.033-.687.05L256,240.666l-3.351.245a3.789,3.789,0,0,0-.568.02.078.078,0,0,1,0,.02,1.764,1.764,0,0,0,.03.323l.861,9.317.434,4.7c.036.388.043.792.109,1.177" transform="translate(-209.144 -198.455)" fill="#fff"/>
      <path id="パス_502" data-name="パス 502" d="M247.6,251.366c.088.869.665,1.119,1.436,1.032l3.269-.366,19.9-2.226.374-.042a.463.463,0,0,0,.245-.03c1.082-.425.651-1.752.566-2.663q-.25-2.7-.5-5.409l-.508-5.5c-.065-.7.071-2.233-.5-2.774-.468-.446-1.443-.194-2.013-.152l-4.25.31-11.722.855-4.659.34c-.706.051-1.442.048-2.142.156-1.181.183-.91,1.237-.831,2.089q.226,2.445.452,4.889c.292,3.163.557,6.33.877,9.49m.485-5.815-.861-9.317a1.762,1.762,0,0,1-.03-.323.07.07,0,0,0,0-.02,3.818,3.818,0,0,1,.568-.02l3.351-.244,19.393-1.415c.228-.017.46-.023.687-.05.006.079,0,.165.008.222q.176,1.908.352,3.816l.917,9.929a3.114,3.114,0,0,1,.046.5.361.361,0,0,0,0,.118l-16.644,1.861-4.631.518a12.021,12.021,0,0,0-2.483.278.185.185,0,0,0-.124.1.321.321,0,0,0-.006-.078c-.065-.385-.073-.789-.109-1.177l-.434-4.7" transform="translate(-204.255 -193.417)" fill="#323232"/>
      <g id="グループ_732" data-name="グループ 732" transform="translate(41.693 8.665)" style="isolation: isolate">
        <g id="グループ_731" data-name="グループ 731">
          <g id="グループ_730" data-name="グループ 730" clip-path="url(#clip-path-18)">
            <path id="パス_503" data-name="パス 503" d="M245.649,53.586l2.091-1.857c.493-.437-.232-1.158-.723-.723l-2.091,1.857c-.493.438.232,1.158.723.723" transform="translate(-244.762 -50.871)" fill="#323232"/>
          </g>
        </g>
      </g>
      <g id="グループ_735" data-name="グループ 735" transform="translate(42.701 12.549)" style="isolation: isolate">
        <g id="グループ_734" data-name="グループ 734">
          <g id="グループ_733" data-name="グループ 733" clip-path="url(#clip-path-19)">
            <path id="パス_504" data-name="パス 504" d="M251.317,75.291l2.467-.617a.511.511,0,0,0-.272-.985l-2.467.617a.511.511,0,0,0,.272.986" transform="translate(-250.681 -73.671)" fill="#323232"/>
          </g>
        </g>
      </g>
      <g id="グループ_738" data-name="グループ 738" transform="translate(42.855 16.203)" style="isolation: isolate">
        <g id="グループ_737" data-name="グループ 737">
          <g id="グループ_736" data-name="グループ 736" clip-path="url(#clip-path-20)">
            <path id="パス_505" data-name="パス 505" d="M252.076,95.122a.511.511,0,0,0,0,1.022h2.714a.511.511,0,0,0,0-1.022Z" transform="translate(-251.582 -95.122)" fill="#323232"/>
          </g>
        </g>
      </g>
      <path id="パス_506" data-name="パス 506" d="M246.329,175.535l-.645.078.645-.078a.411.411,0,0,0-.452-.264q-2.185.2-4.369.415a8.948,8.948,0,0,0-1.378.135l-.237-2.567q-.29-3.136-.579-6.273-.1-1.071-.2-2.143a3.563,3.563,0,0,0-.13-.968c-.362-.889-1.582-.57-2.321-.518l-3.247.227a1.488,1.488,0,0,0-.534-1.4,1.269,1.269,0,0,0-.82-.167,6.317,6.317,0,0,1-1.04.192.511.511,0,0,0-.145.011,1.267,1.267,0,0,0-.751-.256,2.775,2.775,0,0,0-2.052,1.145c.087-1.029-.179-2.049-1.462-2.055a1.26,1.26,0,0,0-1.206.946c-.259.638-.4,1.307-.717,1.927a.516.516,0,0,0-.056.275l-5.893.412-.349.022a.484.484,0,0,0,.011-.5l-3.726-6.976-1.6-3a5.126,5.126,0,0,0-1.254-1.725,4.883,4.883,0,0,0-2.025-.825l-4.4-1.066a.492.492,0,0,0-.589.3l.592.214-.592-.214a.475.475,0,0,0,.317.683l3.739.905c.522.126,1.093.213,1.6.392a3.23,3.23,0,0,1,1.7,1.789q1.744,3.262,3.487,6.524l1.874,3.508c.007.014.017.024.025.037-1.4.076-2.809.129-4.21.233a.409.409,0,0,0,.165-.4q-.259-2.521-.519-5.041c-.067-.648-1.089-.655-1.022,0q.259,2.521.519,5.041a.521.521,0,0,0,.329.44c-.616.052-1.229.115-1.837.2-1.3.176-.954,1.445-.869,2.361q.253,2.743.507,5.486l1.027,11.124a1.343,1.343,0,0,0,.466,1.139,1.359,1.359,0,0,0,.99.125l3.48-.4,22.623-2.6.477-.055a.512.512,0,0,0,.19-.025c1.184-.384.678-2.018.593-2.942l-.234-2.531a.548.548,0,0,0,.188-.045c-.318.141.124.023.27.008.4-.042.808-.081,1.212-.12q1.991-.193,3.983-.377a.554.554,0,0,0,.452-.758m-14.145-12.518c.3-.007.222.377.211.592,0,.015,0,.027,0,.041l-.406.028-.526.037a.491.491,0,0,0-.051-.352,1.265,1.265,0,0,1-.072-.165,5.21,5.21,0,0,1,.841-.182m-2.209-.042c.036,0,.172.013.224.011,0,.036.043.125.049.156a2.652,2.652,0,0,0,.235.642l-1.769.124a2.257,2.257,0,0,1,1.261-.932m-4.033.619c.113-.288.2-.582.291-.877a1.518,1.518,0,0,1,.235-.589c.3-.268.6.153.626.432a3.683,3.683,0,0,1-.248,1.478l-1.126.079c.078-.172.152-.346.22-.522M239.6,181.313l-19.183,2.205-5.141.591a13.375,13.375,0,0,1-2.476.285c-.036,0-.106.024-.117.057a2.759,2.759,0,0,1-.015-.282c-.07-.5-.093-1.01-.14-1.511l-.514-5.563q-.486-5.26-.972-10.52c-.011-.115-.029-.429-.054-.407.1-.091.628-.044.755-.053l3.834-.268,21.874-1.528a2.216,2.216,0,0,1,.592-.046l0,.007a1.774,1.774,0,0,1,.045.49l.431,4.671q.518,5.607,1.036,11.213c.008.083.1.619.041.659" transform="translate(-169.883 -124.879)" fill="#323232"/>
      <g id="グループ_741" data-name="グループ 741" transform="translate(21.748 12.418)" style="isolation: isolate">
        <g id="グループ_740" data-name="グループ 740">
          <g id="グループ_739" data-name="グループ 739" clip-path="url(#clip-path-21)">
            <path id="パス_507" data-name="パス 507" d="M141.23,73.465c-.09-.649-1.075-.373-.986.272.165,1.187-1.5,2.37-2.29,1.187a3.152,3.152,0,0,1-.343-1.381.518.518,0,0,0-.511-.511l-.165.015a.5.5,0,0,0-.762.068l-.982.088a.537.537,0,0,0-.177.048.5.5,0,0,0-.677.467,1.91,1.91,0,0,1-1.749,2.132c-1.179.058-1.823-.886-1.928-1.966-.024-.247-.216-.549-.511-.511l-1.991.254c-.644.082-.652,1.1,0,1.022l1.572-.2a2.828,2.828,0,0,0,2.858,2.424,2.859,2.859,0,0,0,2.741-2.659l.507-.045a6.3,6.3,0,0,0,.678,2.989c.268.6,1.149.08.883-.516a6.759,6.759,0,0,1-.522-1.664,1.974,1.974,0,0,0,1.413,1.347,2.44,2.44,0,0,0,2.942-2.857" transform="translate(-127.674 -72.899)" fill="#323232"/>
          </g>
        </g>
      </g>
      <g id="グループ_744" data-name="グループ 744" transform="translate(16.96)" style="isolation: isolate">
        <g id="グループ_743" data-name="グループ 743">
          <g id="グループ_742" data-name="グループ 742" clip-path="url(#clip-path-22)">
            <path id="パス_508" data-name="パス 508" d="M113.048,1.406A8.174,8.174,0,0,0,109.12.1a8.291,8.291,0,0,0-4.481.483,9.179,9.179,0,0,0-3.415,3.186,8.347,8.347,0,0,0-1.659,4.36.447.447,0,0,0,.183.394c.045-.291.1-.582.138-.874-.042.291-.093.583-.138.874a.526.526,0,0,0,.839-.394,7.33,7.33,0,0,1,1.45-3.742,7.966,7.966,0,0,1,3.147-2.932,7.662,7.662,0,0,1,4.029-.32,7.146,7.146,0,0,1,3.319,1.156c.415.316.82-.177.712-.591-.076-.007-.156-.011-.242-.011.086,0,.166,0,.242.011a.529.529,0,0,0-.2-.291" transform="translate(-99.564 0)" fill="#323232"/>
          </g>
        </g>
      </g>
      <g id="グループ_747" data-name="グループ 747" transform="translate(30.983 2.106)" style="isolation: isolate">
        <g id="グループ_746" data-name="グループ 746">
          <g id="グループ_745" data-name="グループ 745" clip-path="url(#clip-path-23)">
            <path id="パス_509" data-name="パス 509" d="M186.356,15.116c-.722-1.4-2.241-2.879-3.9-2.746a2.556,2.556,0,0,1,.384.594,2.556,2.556,0,0,0-.384-.594c-.064.005-.128.012-.193.022-.648.1-.373,1.086.272.986,1.252-.194,2.607,1.4,3.048,2.484a7.583,7.583,0,0,1,.2,3.746,3.378,3.378,0,0,1,.462,1.021,3.378,3.378,0,0,0-.462-1.021c-.019.15-.039.3-.058.443a.575.575,0,0,0,.57.64,6.251,6.251,0,0,1,.121-.743,6.251,6.251,0,0,0-.121.743.391.391,0,0,0,.416-.368c.229-1.7.462-3.621-.353-5.207" transform="translate(-181.891 -12.362)" fill="#323232"/>
          </g>
        </g>
      </g>
      <g id="グループ_750" data-name="グループ 750" transform="translate(21.061 3.992)" style="isolation: isolate">
        <g id="グループ_749" data-name="グループ 749">
          <g id="グループ_748" data-name="グループ 748" clip-path="url(#clip-path-24)">
            <path id="パス_510" data-name="パス 510" d="M133.736,24.256a3.951,3.951,0,0,0-4.793-.02c-.775.683-.953,1.71-1.59,2.483a4.371,4.371,0,0,1-3.219,1.58.511.511,0,0,0,0,1.022,4.78,4.78,0,0,0,1.089-.137,1.888,1.888,0,0,0,.258-.731,1.888,1.888,0,0,1-.258.731,5.309,5.309,0,0,0,3.348-2.464c.492-.881.777-1.817,1.844-2.151a3.226,3.226,0,0,1,2.8.569.434.434,0,0,0,.657-.153c-.141-.157-.265-.327-.389-.451.124.124.249.294.389.451a.536.536,0,0,0-.141-.729" transform="translate(-123.64 -23.434)" fill="#323232"/>
          </g>
        </g>
      </g>
      <g id="グループ_753" data-name="グループ 753" transform="translate(17.123 9.624)" style="isolation: isolate">
        <g id="グループ_752" data-name="グループ 752">
          <g id="グループ_751" data-name="グループ 751" clip-path="url(#clip-path-25)">
            <path id="パス_511" data-name="パス 511" d="M105.662,57.07a14.908,14.908,0,0,1-1.235.86,14.908,14.908,0,0,0,1.235-.86.406.406,0,0,0-.482.031,3.726,3.726,0,0,0-1.4,2.629,2.082,2.082,0,0,0-1.753-.117c-.213-.905-.36-1.83-.514-2.744-.109-.647-1.094-.373-.985.272l.061.364a3.006,3.006,0,0,0,.259.6,3.006,3.006,0,0,1-.259-.6c.161.96.324,1.929.575,2.869a.523.523,0,0,0,.07.153,4.307,4.307,0,0,0,2.169,5.026v0a2.682,2.682,0,0,0,.5.16c.642.135.916-.85.272-.986a3.19,3.19,0,0,1-1.983-3.838c.331-.769,1.168-.3,1.656.082l0,0c.217.457,1.036.179.941-.412a2.917,2.917,0,0,1,.9-2.576.561.561,0,0,0-.034-.913" transform="translate(-100.522 -56.499)" fill="#323232"/>
          </g>
        </g>
      </g>
      <g id="グループ_756" data-name="グループ 756" transform="translate(16.776 31.615)" style="isolation: isolate">
        <g id="グループ_755" data-name="グループ 755">
          <g id="グループ_754" data-name="グループ 754" clip-path="url(#clip-path-26)">
            <path id="パス_512" data-name="パス 512" d="M101.506,187.412l1.414-.852a.511.511,0,0,0-.516-.883c-1.022.615-2.062,1.207-3.067,1.847a1.475,1.475,0,0,0-.825,1.548,3.607,3.607,0,0,0,.934,1.4c2.347,2.8,4.848,5.478,7.268,8.218,1.113,1.26,2.264,2.509,3.273,3.856.39.52,1.277.011.883-.516-1.843-2.46-4-4.708-6.044-7-1.143-1.279-2.289-2.557-3.42-3.847-.433-.495-2.266-2.091-1.645-2.722a9.18,9.18,0,0,1,1.746-1.051" transform="translate(-98.485 -185.601)" fill="#323232"/>
          </g>
        </g>
      </g>
      <g id="グループ_759" data-name="グループ 759" transform="translate(31.511 5.053)" style="isolation: isolate">
        <g id="グループ_758" data-name="グループ 758">
          <g id="グループ_757" data-name="グループ 757" clip-path="url(#clip-path-27)">
            <path id="パス_513" data-name="パス 513" d="M187.79,32.431a2.13,2.13,0,0,0,.21.888.526.526,0,0,0,.209-.516c-.213-1.346-1.226-3.355-2.854-3.119-.421.061-.451.5-.245.77a.783.783,0,0,0,.636.1.783.783,0,0,1-.636-.1.534.534,0,0,0,.516.216c.419-.061.833.55,1.014.838a4.13,4.13,0,0,1,.583,1.567c.066.421.5.451.776.244a2.13,2.13,0,0,1-.21-.888" transform="translate(-184.985 -29.666)" fill="#323232"/>
          </g>
        </g>
      </g>
      <path id="パス_514" data-name="パス 514" d="M159.007,395.521l5.385,2.7.476-.949-5.385-2.7-.476.949" transform="translate(-131.922 -327.361)" fill="#fff"/>
      <path id="パス_515" data-name="パス 515" d="M144.3,387.442l6.3,3.161,2.647,1.329a.6.6,0,0,0,.2.058c.02,0,.038.01.059.012l2.681.241.541.272a.511.511,0,1,0,.516-.883l-.6-.3-1.787-2a.419.419,0,0,0-.1-.108.451.451,0,0,0-.2-.11l-2.506-1.258-6.3-3.161a.569.569,0,0,0-.55.019l-.54-.271a2.736,2.736,0,0,0-1.005-.417c-.554-.014-.759.472-.965.884-.222.442-.456.946-.052,1.342a.489.489,0,0,0,.178.147l.272.136-.509,1.013a.519.519,0,0,0,.183.7l3.813,1.914c.586.294,1.1-.587.516-.883l-3.387-1.7L144,387l.045.023a.427.427,0,0,0,.256.423m9.452,2.415-.476.949-1.736-.871.476-.949,1.736.871m.8.672.531.593-.793-.071.262-.522m-3.928-1.052-5.386-2.7.476-.949,5.385,2.7-.476.949m-6.919-4.323a.152.152,0,0,1,.017-.032l.037.015.926.465-.24.478-.962-.483,0-.011a3.586,3.586,0,0,0,.217-.433" transform="translate(-118.155 -318.613)" fill="#323232"/>
      <g id="グループ_762" data-name="グループ 762" transform="translate(33.383 70.372)" style="isolation: isolate">
        <g id="グループ_761" data-name="グループ 761">
          <g id="グループ_760" data-name="グループ 760" clip-path="url(#clip-path-28)">
            <path id="パス_516" data-name="パス 516" d="M197.712,414.949l.476-.949-1.736-.871-.476.949,1.736.871" transform="translate(-195.976 -413.129)" fill="#3a8fb7"/>
          </g>
        </g>
      </g>
      <path id="パス_517" data-name="パス 517" d="M212.407,422.187l-.262.522.793.071-.531-.593" transform="translate(-176.008 -350.272)" fill="#fff"/>
      <g id="グループ_765" data-name="グループ 765" transform="translate(25.33 66.509)" style="isolation: isolate">
        <g id="グループ_764" data-name="グループ 764">
          <g id="グループ_763" data-name="グループ 763" clip-path="url(#clip-path-29)">
            <path id="パス_518" data-name="パス 518" d="M149.661,391.406l.24-.478-.926-.465-.037-.015a.161.161,0,0,0-.017.032,3.6,3.6,0,0,1-.217.433l-.005.011.962.483" transform="translate(-148.699 -390.447)" fill="#3a8fb7"/>
          </g>
        </g>
      </g>
      <path id="パス_519" data-name="パス 519" d="M252.794,376,240.1,365.4l-1.7.264-12.947,2.01,1.009.842,12.693,10.6,1.7-.264,12.947-2.01L252.794,376" transform="translate(-187.051 -303.159)" fill="#fff"/>
      <path id="パス_520" data-name="パス 520" d="M215.45,368.586a.413.413,0,0,0-.142-.482l-12.085-10.095-2.308-1.928a1.233,1.233,0,0,0-1.137-.374q-2.067.315-4.133.639l-1.254-1.047a1.233,1.233,0,0,0-1.137-.374c-2.651.4-5.3.823-7.95,1.234l-7.741,1.2a.513.513,0,0,0-.225.854l12.085,10.095,2.308,1.928a1.233,1.233,0,0,0,1.137.374q2.067-.315,4.133-.639l1.254,1.048a1.233,1.233,0,0,0,1.137.374c2.651-.4,5.3-.823,7.95-1.234l7.741-1.2a.4.4,0,0,0,.367-.372m-21.161.777-1.7.264-12.693-10.6-1.008-.842,12.947-2.01,1.7-.264.774.646-2.479.387-7.741,1.2a.514.514,0,0,0-.226.854l12.086,10.1.014.011-1.673.26m6.523.783-1.7.264-12.693-10.6-1.009-.842,12.947-2.01,1.7-.264,12.693,10.6,1.008.842-12.947,2.01" transform="translate(-147.008 -294.448)" fill="#323232"/>
      <path id="パス_521" data-name="パス 521" d="M437.03,280.844a2.954,2.954,0,0,1,2.6-2.8c.425-.06.853-.107,1.279-.16l15.977-2c1.1-.137,2.2-.294,3.3-.432a.525.525,0,0,1-.018-.154,4.167,4.167,0,0,0-.463-2.278,6.252,6.252,0,0,0-2.375-1.934,46.518,46.518,0,0,1-4.384-3.2c-.491-.4-.924-.644-1.067-1.266-.221-.957-.4-1.925-.605-2.886l-.014-.056c-.125-.011-.253-.03-.31-.03a23.7,23.7,0,0,0-2.448.141,18.117,18.117,0,0,0-6.867,1.894c-1.79.989-2.663,2.506-3.709,4.18a.528.528,0,0,1-.931-.1,7.439,7.439,0,0,0-.889,1.216c1.208-.229,2.429-.418,3.652-.538.655-.064.648.958,0,1.022a38.425,38.425,0,0,0-4.329.691c-1.735.374-4.055.8-5.312,2.172a8.8,8.8,0,0,0-1.663,4.085q-.562,2.4-1.2,4.78c-1.508,5.591-3.3,11.094-4.63,16.734l13.5-.663c.159-4.454.453-8.908.667-13.358.081-1.687.117-3.383.243-5.068m3.214-11.053c-.628.2-.894-.783-.272-.986a44.852,44.852,0,0,1,10.658-2.085c.657-.048.652.974,0,1.022a43.712,43.712,0,0,0-10.386,2.049" transform="translate(-350.634 -218.745)" fill="#fff"/>
      <path id="パス_522" data-name="パス 522" d="M482.438,156.507a.511.511,0,0,1-.516-.883,4,4,0,0,0,1.7-2.659,2.828,2.828,0,0,0-.034-1.54.944.944,0,0,0-1.729-.285.557.557,0,0,1-.966-.149.536.536,0,0,1-.176-.158,13.946,13.946,0,0,1-1.6-2.91,7.26,7.26,0,0,1-4.386-4.4.521.521,0,0,1-.038-.141,2.916,2.916,0,0,0-.978,1.277c.367-.144.867.119.686.574-1.064,2.681,1.129,5.9-1.638,7.926a3.151,3.151,0,0,0-.875.739c-.259.433.052.635.27.964a4.132,4.132,0,0,1,.769,1.616c.029.3-.128.511-.148.781-.03.409.262.454.594.586a1.848,1.848,0,0,1,1.151.973.523.523,0,0,1-.093.588.53.53,0,0,1-.1.14c-.15.157-.372.265-.511.425-.254.294-.187-.033-.07.361a4.615,4.615,0,0,1,.123,1.486,1.709,1.709,0,0,0,1.883,1.914,8.48,8.48,0,0,0,3.918-1.176.517.517,0,0,1,.769.441q.062,1.46.124,2.921a9.939,9.939,0,0,1,2.143-1.3,21.721,21.721,0,0,1,7.311-1.7c.178-.014.357-.028.537-.04a.505.505,0,0,1-.062-.241q-.026-1.619-.051-3.237c-.858-.012-1.716-.033-2.574-.054a.528.528,0,0,1-.493-.375c-.274-.81-.446-1.648-.691-2.466a1.643,1.643,0,0,0-1.748-1.409.524.524,0,0,1-.462-.716q-.11-.008-.223-.01a4.607,4.607,0,0,1-1.819,2.133m-7.223-4.949a.511.511,0,0,1,0-1.022.511.511,0,0,1,0,1.022m1.038-3.38a1,1,0,0,0-1.126-.323c-.583.305-1.1-.577-.516-.883a2.006,2.006,0,0,1,2.365.483c.439.488-.282,1.213-.723.723" transform="translate(-391.424 -118.958)" fill="#fff"/>
      <g id="グループ_768" data-name="グループ 768" transform="translate(83.84 20.538)" style="isolation: isolate">
        <g id="グループ_767" data-name="グループ 767">
          <g id="グループ_766" data-name="グループ 766" clip-path="url(#clip-path-30)">
            <path id="パス_523" data-name="パス 523" d="M511.936,128.8a11.09,11.09,0,0,0-3.907-6.223,11.979,11.979,0,0,0-14.436.9.523.523,0,0,1-.779-.091,3.285,3.285,0,0,0-.622.612.534.534,0,0,1,.45.333,6.392,6.392,0,0,0,2.952,3.386c-.056-.187-.109-.375-.157-.565a.511.511,0,0,1,.986-.272,13.224,13.224,0,0,0,1.968,4.316c1.284-1.011,3.021-.139,3.237,1.637a5.076,5.076,0,0,1-.443,2.62c.075,0,.15,0,.223.01a.445.445,0,0,1,.462-.306,2.544,2.544,0,0,1,2.377,1.257,14.674,14.674,0,0,1,.934,3c.83.021,1.661.04,2.491.05a24.909,24.909,0,0,1,2.244-3.819,13.208,13.208,0,0,0,2.118-3.226,6.625,6.625,0,0,0-.1-3.621" transform="translate(-492.193 -120.571)" fill="#3a8fb7"/>
          </g>
        </g>
      </g>
      <path id="パス_524" data-name="パス 524" d="M533.047,337.65a10.854,10.854,0,0,0-1.2.139l-6.478.81-14.383,1.8a2.09,2.09,0,0,0-2.039,1.486,7.46,7.46,0,0,0-.1,1.377l-.331,6.9q-.25,5.227-.5,10.453l26.3-1.292c.212-5.853.422-11.706.6-17.56.047-1.547.436-4.133-1.873-4.106" transform="translate(-421.485 -280.134)" fill="#fff"/>
      <g id="グループ_771" data-name="グループ 771" transform="translate(70.934 51.702)" style="isolation: isolate">
        <g id="グループ_770" data-name="グループ 770">
          <g id="グループ_769" data-name="グループ 769" clip-path="url(#clip-path-31)">
            <path id="パス_525" data-name="パス 525" d="M434.615,303.526c-1.223.12-2.444.308-3.652.538q-.114.186-.227.375.113-.188.227-.375l-.2.037a15.487,15.487,0,0,0-5.734,1.933c-2.367,1.609-2.631,4.994-3.27,7.535-.755,3.008-1.628,5.983-2.507,8.956-1.026,3.47-2,6.951-2.82,10.476a.559.559,0,0,0-.008.061l1.056-.052c1.331-5.639,3.123-11.142,4.63-16.734q.642-2.38,1.2-4.78a8.8,8.8,0,0,1,1.663-4.085c1.257-1.373,3.577-1.8,5.312-2.172a38.415,38.415,0,0,1,4.328-.691c.649-.064.655-1.086,0-1.022" transform="translate(-416.423 -303.523)" fill="#323232"/>
          </g>
        </g>
      </g>
      <g id="グループ_774" data-name="グループ 774" transform="translate(79.308 19.527)" style="isolation: isolate">
        <g id="グループ_773" data-name="グループ 773">
          <g id="グループ_772" data-name="グループ 772" clip-path="url(#clip-path-32)">
            <path id="パス_526" data-name="パス 526" d="M500.64,153.545a2.931,2.931,0,0,0-3.108-1.918c-.234.023-.468.05-.7.076,0-.013,0-.024.005-.037a4.8,4.8,0,0,0-1.394-3.787A17.416,17.416,0,0,0,493,146.257c-.837-.551-1.652-1.138-2.449-1.745q-.817-.623-1.608-1.279a2.793,2.793,0,0,0-.4-.356,5.486,5.486,0,0,0-.263-1.246l-.365-1.742c-.116-.555-.23-.844-.838-.885-.245-.017-.492-.02-.739-.017a.515.515,0,0,0,.035-.2q-.027-1.717-.055-3.435a.806.806,0,0,0,.095-.167c-.105.252.087-.186.117-.249.155-.327.322-.647.495-.964a31.461,31.461,0,0,1,2.024-3.208,9.322,9.322,0,0,0,2-3.441,8.227,8.227,0,0,0-.208-3.728,12.3,12.3,0,0,0-3.98-6.54,12.992,12.992,0,0,0-16.071.765.442.442,0,0,0-.056.632,2.219,2.219,0,0,0,.614-.71,2.219,2.219,0,0,1-.614.71.523.523,0,0,0,.779.091,11.979,11.979,0,0,1,14.436-.9,11.09,11.09,0,0,1,3.907,6.223,6.624,6.624,0,0,1,.1,3.621,13.2,13.2,0,0,1-2.118,3.226,24.922,24.922,0,0,0-2.244,3.819c-.83-.009-1.661-.029-2.491-.05a14.682,14.682,0,0,0-.934-3,2.544,2.544,0,0,0-2.377-1.257.445.445,0,0,0-.462.306,1.31,1.31,0,0,1,.878.328,1.31,1.31,0,0,0-.878-.328.524.524,0,0,0,.462.716,1.643,1.643,0,0,1,1.748,1.409c.245.818.417,1.655.691,2.466a.529.529,0,0,0,.493.375c.858.021,1.716.042,2.574.054q.026,1.619.051,3.237a.509.509,0,0,0,.063.241l-.537.04a21.726,21.726,0,0,0-7.311,1.7,9.946,9.946,0,0,0-2.143,1.3q-.062-1.46-.124-2.92a.517.517,0,0,0-.769-.441,8.481,8.481,0,0,1-3.918,1.176,1.709,1.709,0,0,1-1.883-1.914,4.611,4.611,0,0,0-.123-1.486c-.117-.394-.184-.067.07-.361.138-.16.361-.268.511-.425a.531.531,0,0,0,.1-.14.522.522,0,0,0,.093-.588,1.848,1.848,0,0,0-1.151-.973c-.332-.133-.624-.177-.594-.586.02-.27.177-.482.148-.781a4.132,4.132,0,0,0-.769-1.616c-.218-.329-.528-.531-.27-.964a3.156,3.156,0,0,1,.875-.739c2.767-2.024.574-5.246,1.638-7.926.18-.455-.319-.717-.686-.574a3.648,3.648,0,0,0-.279,1.366,3.648,3.648,0,0,1,.279-1.366.521.521,0,0,0-.3.3c-.636,1.6-.174,3.12-.142,4.764a2.784,2.784,0,0,1-.864,2.435,6.149,6.149,0,0,0-1.435,1.249c-.919,1.4,1.109,2.143.871,3.45-.1.574-.26.939.226,1.426.365.366.95.423,1.323.731-.339.261-.746.475-.816.922-.048.306.11.5.2.777a3.563,3.563,0,0,1,.077,1.209,2.57,2.57,0,0,0,1.889,2.7,7.113,7.113,0,0,0,4.72-.811q.058,1.371.116,2.741a.511.511,0,0,0,.077.253c-.068.079-.138.157-.2.239a29.269,29.269,0,0,0-1.616,2.522.451.451,0,0,0-.048.418,3.547,3.547,0,0,1,.758-.624,3.547,3.547,0,0,0-.758.624.528.528,0,0,0,.931.1c1.046-1.673,1.919-3.19,3.709-4.179a18.113,18.113,0,0,1,6.867-1.894,23.7,23.7,0,0,1,2.448-.141c.057,0,.185.019.31.03l.014.056c.2.961.385,1.929.605,2.886.143.622.576.867,1.067,1.265a46.518,46.518,0,0,0,4.384,3.2,6.254,6.254,0,0,1,2.375,1.934,4.168,4.168,0,0,1,.463,2.278.526.526,0,0,0,.018.154c-1.1.138-2.2.295-3.3.432l-15.977,2c-.426.053-.854.1-1.279.16a2.954,2.954,0,0,0-2.6,2.8c-.126,1.684-.162,3.38-.243,5.067-.213,4.45-.507,8.9-.667,13.358l1.051-.052q.251-5.226.5-10.453l.331-6.9a7.465,7.465,0,0,1,.1-1.377,2.09,2.09,0,0,1,2.039-1.486l14.383-1.8,6.479-.81a10.817,10.817,0,0,1,1.2-.139c2.31-.027,1.92,2.559,1.874,4.106-.176,5.854-.386,11.707-.6,17.56l1.023-.05q.29-7.981.549-15.963.039-1.232.075-2.464a6.406,6.406,0,0,0-.122-2.265" transform="translate(-465.585 -114.633)" fill="#323232"/>
          </g>
        </g>
      </g>
      <g id="グループ_777" data-name="グループ 777" transform="translate(83.297 31.577)" style="isolation: isolate">
        <g id="グループ_776" data-name="グループ 776">
          <g id="グループ_775" data-name="グループ 775" clip-path="url(#clip-path-12)">
            <path id="パス_527" data-name="パス 527" d="M489.5,186.4a.511.511,0,0,0,0-1.022.511.511,0,0,0,0,1.022" transform="translate(-489.005 -185.377)" fill="#323232"/>
          </g>
        </g>
      </g>
      <g id="グループ_780" data-name="グループ 780" transform="translate(83.264 23.957)" style="isolation: isolate">
        <g id="グループ_779" data-name="グループ 779">
          <g id="グループ_778" data-name="グループ 778" clip-path="url(#clip-path-34)">
            <path id="パス_528" data-name="パス 528" d="M489.387,140.644c-.3-.033-.609.152-.573.463a2.393,2.393,0,0,1,.447-.253,1.616,1.616,0,0,1,.127-.21" transform="translate(-488.811 -140.64)" fill="#323232"/>
          </g>
        </g>
      </g>
      <g id="グループ_783" data-name="グループ 783" transform="translate(83.267 23.96)" style="isolation: isolate">
        <g id="グループ_782" data-name="グループ 782">
          <g id="グループ_781" data-name="グループ 781" clip-path="url(#clip-path-35)">
            <path id="パス_529" data-name="パス 529" d="M498.131,152.115l.262,0a5.077,5.077,0,0,0,.443-2.62c-.216-1.776-1.953-2.648-3.237-1.637a13.223,13.223,0,0,1-1.968-4.316.511.511,0,0,0-.986.272c.048.19.1.378.157.565a6.393,6.393,0,0,1-2.952-3.386.534.534,0,0,0-.45-.333,1.613,1.613,0,0,0-.127.21,2.394,2.394,0,0,0-.447.253.518.518,0,0,0,.038.141,7.26,7.26,0,0,0,4.386,4.4,13.946,13.946,0,0,0,1.6,2.91.537.537,0,0,0,.176.158.557.557,0,0,0,.966.149.944.944,0,0,1,1.729.285,2.826,2.826,0,0,1,.035,1.54,4,4,0,0,1-1.7,2.659.511.511,0,0,0,.516.882,4.605,4.605,0,0,0,1.819-2.133l-.262,0" transform="translate(-488.827 -140.662)" fill="#323232"/>
          </g>
        </g>
      </g>
      <g id="グループ_786" data-name="グループ 786" transform="translate(82.932 27.812)" style="isolation: isolate">
        <g id="グループ_785" data-name="グループ 785">
          <g id="グループ_784" data-name="グループ 784" clip-path="url(#clip-path-36)">
            <path id="パス_530" data-name="パス 530" d="M487.631,164.36a1,1,0,0,1,1.126.323c.441.49,1.162-.235.723-.723a2.005,2.005,0,0,0-2.364-.483c-.583.305-.067,1.188.516.883" transform="translate(-486.859 -163.276)" fill="#323232"/>
          </g>
        </g>
      </g>
      <g id="グループ_789" data-name="グループ 789" transform="translate(88.983 47.974)" style="isolation: isolate">
        <g id="グループ_788" data-name="グループ 788">
          <g id="グループ_787" data-name="グループ 787" clip-path="url(#clip-path-37)">
            <path id="パス_531" data-name="パス 531" d="M523.012,284.71a43.709,43.709,0,0,1,10.386-2.049c.652-.048.657-1.07,0-1.022a44.857,44.857,0,0,0-10.658,2.085c-.623.2-.356,1.19.272.986" transform="translate(-522.386 -281.638)" fill="#323232"/>
          </g>
        </g>
      </g>
      <path id="パス_532" data-name="パス 532" d="M344.988,280.774l.184,2.351.643-.469-.457-1.712-.37-.17" transform="translate(-286.223 -232.947)" fill="#fff"/>
      <path id="パス_533" data-name="パス 533" d="M350.753,296.1l-.689.5,2.047.978q-.034-.432-.068-.864Z" transform="translate(-290.434 -245.661)" fill="#fff"/>
      <path id="パス_534" data-name="パス 534" d="M367.127,266.948l-2.082-.994q.023.3.047.6l1.727.623.309-.225" transform="translate(-302.863 -220.651)" fill="#fff"/>
      <path id="パス_535" data-name="パス 535" d="M348.809,267l-.045-.576-2.118,1.455.4.183Z" transform="translate(-287.597 -221.04)" fill="#fff"/>
      <path id="パス_536" data-name="パス 536" d="M273.878,264.921a.387.387,0,0,0-.774,0,.387.387,0,0,0,.774,0" transform="translate(-226.583 -219.483)" fill="#fff"/>
      <path id="パス_537" data-name="パス 537" d="M374.916,276.792l-.621,1.53,1.354.623-.2-2.543-.535.39" transform="translate(-310.537 -229.32)" fill="#fff"/>
      <path id="パス_538" data-name="パス 538" d="M367.547,293.8l.085,1.088,1.923-1.321-1.34-.616Z" transform="translate(-304.939 -243.05)" fill="#fff"/>
      <g id="グループ_792" data-name="グループ 792" transform="translate(60.319 49.579)" style="isolation: isolate">
        <g id="グループ_791" data-name="グループ 791">
          <g id="グループ_790" data-name="グループ 790" clip-path="url(#clip-path-38)">
            <path id="パス_539" data-name="パス 539" d="M355.283,291.059l-1.176.859,1.291.616-.115-1.475" transform="translate(-354.107 -291.059)" fill="#3a8fb7"/>
          </g>
        </g>
      </g>
      <g id="グループ_795" data-name="グループ 795" transform="translate(62.514 49.551)" style="isolation: isolate">
        <g id="グループ_794" data-name="グループ 794">
          <g id="グループ_793" data-name="グループ 793" clip-path="url(#clip-path-39)">
            <path id="パス_540" data-name="パス 540" d="M367,290.893l.094,1.2.669-.848-.763-.351" transform="translate(-366.996 -290.893)" fill="#3a8fb7"/>
          </g>
        </g>
      </g>
      <g id="グループ_798" data-name="グループ 798" transform="translate(59.447 45.959)" style="isolation: isolate">
        <g id="グループ_797" data-name="グループ 797">
          <g id="グループ_796" data-name="グループ 796" clip-path="url(#clip-path-40)">
            <path id="パス_541" data-name="パス 541" d="M350.9,271.749l-.152-1.943-1.764,1.062,1.916.881" transform="translate(-348.988 -269.806)" fill="#3a8fb7"/>
          </g>
        </g>
      </g>
      <g id="グループ_801" data-name="グループ 801" transform="translate(59.135 47.997)" style="isolation: isolate">
        <g id="グループ_800" data-name="グループ 800">
          <g id="グループ_799" data-name="グループ 799" clip-path="url(#clip-path-41)">
            <path id="パス_542" data-name="パス 542" d="M347.158,281.771l.457,1.712,1.262-.921-1.719-.791" transform="translate(-347.158 -281.771)" fill="#3a8fb7"/>
          </g>
        </g>
      </g>
      <g id="グループ_804" data-name="グループ 804" transform="translate(62.228 45.899)" style="isolation: isolate">
        <g id="グループ_803" data-name="グループ 803">
          <g id="グループ_802" data-name="グループ 802" clip-path="url(#clip-path-42)">
            <path id="パス_543" data-name="パス 543" d="M365.319,269.457q.069.891.139,1.782l1.588-1.16Z" transform="translate(-365.319 -269.457)" fill="#3a8fb7"/>
          </g>
        </g>
      </g>
      <g id="グループ_807" data-name="グループ 807" transform="translate(62.853 47.473)" style="isolation: isolate">
        <g id="グループ_806" data-name="グループ 806">
          <g id="グループ_805" data-name="グループ 805" clip-path="url(#clip-path-43)">
            <path id="パス_544" data-name="パス 544" d="M368.985,279.808l.9.416.621-1.53-1.525,1.114" transform="translate(-368.985 -278.694)" fill="#3a8fb7"/>
          </g>
        </g>
      </g>
      <path id="パス_545" data-name="パス 545" d="M346.518,260.329a.515.515,0,0,0-.253-.441l-3.754-1.793a.517.517,0,0,0-.516,0l-1.854,1.273-1.164.8c-.177.122-.486.27-.6.466-.275.5.032,1.555.073,2.08l.182,2.326a.515.515,0,0,0,.253.441l3.754,1.793a.543.543,0,0,0,.469.026.439.439,0,0,0,.2-.133l3.258-2.237a.42.42,0,0,0,.269-.452q-.163-2.074-.325-4.147m-4.7-.873.045.576.152,1.943-1.917-.881-.4-.184,2.118-1.455m-2.216,4.8-.184-2.351.37.17,1.719.79-1.262.922-.643.469m.681.762.689-.5,1.176-.859.115,1.475q.034.432.068.864l-2.047-.978m2.738-3.259q-.069-.891-.139-1.782l-.047-.6,2.082.994-.308.225-1.588,1.159m.325,4.156-.085-1.088q-.047-.6-.094-1.2l.763.351,1.34.616-1.923,1.321m1.064-2.836-.9-.416,1.525-1.114.535-.39.2,2.543-1.354-.623" transform="translate(-280.648 -214.074)" fill="#323232"/>
      <path id="パス_546" data-name="パス 546" d="M269.9,260.042a.752.752,0,0,0,0-.321,1.408,1.408,0,1,0,0,.321m-1.779-.161a.387.387,0,0,1,.774,0,.387.387,0,0,1-.774,0" transform="translate(-221.604 -214.444)" fill="#323232"/>
      <path id="パス_547" data-name="パス 547" d="M287.909,261l6.261-.481c.652-.05.657-1.073,0-1.022l-6.261.481c-.651.05-.657,1.073,0,1.022" transform="translate(-238.459 -215.292)" fill="#323232"/>
      <path id="パス_548" data-name="パス 548" d="M282.981,289.732c.65-.057.656-1.079,0-1.022l-9.2.8c-.65.057-.656,1.079,0,1.022l9.2-.8" transform="translate(-226.735 -239.529)" fill="#323232"/>
      <path id="パス_549" data-name="パス 549" d="M284.237,300.1c.65-.057.656-1.079,0-1.022l-9.2.8c-.65.057-.656,1.079,0,1.022l9.2-.8" transform="translate(-227.777 -248.13)" fill="#323232"/>
      <path id="パス_550" data-name="パス 550" d="M285.494,309.445l-9.2.8c-.65.057-.656,1.079,0,1.022l9.2-.8c.65-.057.656-1.079,0-1.022" transform="translate(-228.82 -256.732)" fill="#323232"/>
    </g>
  </g>
</svg>
