<svg xmlns="http://www.w3.org/2000/svg" xmlns:xlink="http://www.w3.org/1999/xlink" width="120" height="105" viewBox="0 0 120 105">
  <defs>
    <clipPath id="clip-path">
      <rect id="長方形_261" data-name="長方形 261" width="115.145" height="97.02" fill="none"/>
    </clipPath>
    <clipPath id="clip-path-2">
      <rect id="長方形_236" data-name="長方形 236" width="17.79" height="14.851" fill="none"/>
    </clipPath>
    <clipPath id="clip-path-3">
      <rect id="長方形_237" data-name="長方形 237" width="0.998" height="0.575" fill="none"/>
    </clipPath>
    <clipPath id="clip-path-4">
      <rect id="長方形_238" data-name="長方形 238" width="22.55" height="7.967" fill="none"/>
    </clipPath>
    <clipPath id="clip-path-5">
      <rect id="長方形_239" data-name="長方形 239" width="1.624" height="5.683" fill="none"/>
    </clipPath>
    <clipPath id="clip-path-6">
      <rect id="長方形_240" data-name="長方形 240" width="1.107" height="1.146" fill="none"/>
    </clipPath>
    <clipPath id="clip-path-7">
      <rect id="長方形_241" data-name="長方形 241" width="9.843" height="17.465" fill="none"/>
    </clipPath>
    <clipPath id="clip-path-8">
      <rect id="長方形_242" data-name="長方形 242" width="3.423" height="7.754" fill="none"/>
    </clipPath>
    <clipPath id="clip-path-9">
      <rect id="長方形_243" data-name="長方形 243" width="21.294" height="30.792" fill="none"/>
    </clipPath>
    <clipPath id="clip-path-10">
      <rect id="長方形_244" data-name="長方形 244" width="8.768" height="1.146" fill="none"/>
    </clipPath>
    <clipPath id="clip-path-11">
      <rect id="長方形_245" data-name="長方形 245" width="5.192" height="3.412" fill="none"/>
    </clipPath>
    <clipPath id="clip-path-12">
      <rect id="長方形_246" data-name="長方形 246" width="15.599" height="16.509" fill="none"/>
    </clipPath>
    <clipPath id="clip-path-13">
      <rect id="長方形_247" data-name="長方形 247" width="9.783" height="14.479" fill="none"/>
    </clipPath>
    <clipPath id="clip-path-14">
      <rect id="長方形_248" data-name="長方形 248" width="6.138" height="3.1" fill="none"/>
    </clipPath>
    <clipPath id="clip-path-15">
      <rect id="長方形_249" data-name="長方形 249" width="6.802" height="5.074" fill="none"/>
    </clipPath>
    <clipPath id="clip-path-16">
      <rect id="長方形_250" data-name="長方形 250" width="21.442" height="13.541" fill="none"/>
    </clipPath>
    <clipPath id="clip-path-18">
      <rect id="長方形_252" data-name="長方形 252" width="9.951" height="19.602" fill="none"/>
    </clipPath>
    <clipPath id="clip-path-19">
      <rect id="長方形_253" data-name="長方形 253" width="14.267" height="24.346" fill="none"/>
    </clipPath>
    <clipPath id="clip-path-20">
      <rect id="長方形_254" data-name="長方形 254" width="2.956" height="9.604" fill="none"/>
    </clipPath>
    <clipPath id="clip-path-21">
      <rect id="長方形_255" data-name="長方形 255" width="5.47" height="6.733" fill="none"/>
    </clipPath>
    <clipPath id="clip-path-22">
      <rect id="長方形_256" data-name="長方形 256" width="10.656" height="7.947" fill="none"/>
    </clipPath>
    <clipPath id="clip-path-23">
      <rect id="長方形_257" data-name="長方形 257" width="2.449" height="1.582" fill="none"/>
    </clipPath>
    <clipPath id="clip-path-25">
      <rect id="長方形_259" data-name="長方形 259" width="2.741" height="4.281" fill="none"/>
    </clipPath>
    <clipPath id="clip-path-26">
      <rect id="長方形_260" data-name="長方形 260" width="9.507" height="19.365" fill="none"/>
    </clipPath>
  </defs>
  <g id="icon_flow2" transform="translate(0 3)">
    <rect id="長方形_466" data-name="長方形 466" width="120" height="105" transform="translate(0 -3)" fill="none"/>
    <g id="グループ_390" data-name="グループ 390" transform="translate(2 1)" clip-path="url(#clip-path)">
      <path id="パス_176" data-name="パス 176" d="M565.014,470.051c-.447.051-.616-.355-.518-.7h-.2a.545.545,0,0,1-.551.606h-7.665a.536.536,0,0,1-.551-.536h-.748c.1.193.194.379.292.548.473.812.972,1.785.071,2.5a1.593,1.593,0,0,1-.56.293h4.9a5.956,5.956,0,0,1,.984.026,6.659,6.659,0,0,0,1.017-.568l1.41-.747,1.537-.815a.544.544,0,0,1,.587.031l.737-.709.126-.221a1.928,1.928,0,0,1-.867.293" transform="translate(-454.457 -384.613)" fill="#fff"/>
      <path id="パス_177" data-name="パス 177" d="M438.521,458.411a15.339,15.339,0,0,0-1.975-1.888,3.1,3.1,0,0,0-3.086-.159c-2.178.828-4.011,2.441-6.426,2.493a.552.552,0,0,1-.28-.065q.263,1.273.534,2.543l6.173-1.055a9.2,9.2,0,0,1,1.022-.175,1.751,1.751,0,0,1,1.394.883,5.363,5.363,0,0,1,.543.882c.109-.084.219-.165.331-.241a.548.548,0,0,1,.121-.866,6.326,6.326,0,0,0,1.977-1.815,3.241,3.241,0,0,0,.255-.4.5.5,0,0,1-.583-.132m-.555.57c-.171.838-.933,1.133-1.642,1.417-.6.242-.9-.582-.51-.971a.614.614,0,0,1,.205-.134c.266-.107,1.369-.68.581-.9a3.392,3.392,0,0,0-1.371.278l-.051.015c-.574.159-1.123.376-1.68.585-.586.219-.891-.566-.558-.958l.928-1.09a.547.547,0,0,1,.947.345,5.6,5.6,0,0,1,1.842-.323,1.452,1.452,0,0,1,1.31,1.74" transform="translate(-349.706 -373.698)" fill="#fff"/>
      <path id="パス_178" data-name="パス 178" d="M470.647,484.789c.078.036.133-.019,0,0" transform="translate(-385.674 -397.259)" fill="#33c8e7"/>
      <path id="パス_179" data-name="パス 179" d="M493.326,465.163c-.231-.415-.5-.807-.729-1.223l-.067-.123h0c-.36-.666-.927-1.694-1.714-.84a.581.581,0,0,1-.958-.253c-.175-.414-.9-.065-1.272.253a.584.584,0,0,1-.9-.116c-.368-.526-.859-.408-1.237.023a.581.581,0,0,1-.9-.116c-.289-.385-.781.02-.988.483a7.965,7.965,0,0,1-.9,1.654,7.58,7.58,0,0,1-2.342,2.157.536.536,0,0,1-.7-.123c-.112.076-.222.157-.331.241a6.823,6.823,0,0,1,.227,5.21,3.255,3.255,0,0,0,1.528-.766.564.564,0,0,1,.228-.963,10.739,10.739,0,0,0,5.67-2.917,37.754,37.754,0,0,1,2.809-3.443c1.186-1.016,1.5,1.293,2.3,1.632s.49-.4.282-.769" transform="translate(-393.573 -379.008)" fill="#fff"/>
      <path id="パス_180" data-name="パス 180" d="M469.513,448.633a.665.665,0,0,1-.364-.182l-.041.22.044-.007a3.565,3.565,0,0,1,.361-.031" transform="translate(-384.413 -367.485)" fill="#33c8e7"/>
      <path id="パス_181" data-name="パス 181" d="M533.053,480.623h1.606a2.059,2.059,0,0,1-1-.691,8.829,8.829,0,0,1-.767-.985c-.616.719-1.163,1.5-1.761,2.234H532.5a.54.54,0,0,1,.552-.558" transform="translate(-435.239 -392.475)" fill="#fff"/>
      <g id="グループ_317" data-name="グループ 317" transform="translate(58.802 39.056)" style="isolation: isolate">
        <g id="グループ_316" data-name="グループ 316">
          <g id="グループ_315" data-name="グループ 315" clip-path="url(#clip-path-2)">
            <path id="パス_182" data-name="パス 182" d="M343.2,220.579c-.246.136-.851.657-1.037.348-2.8-4.655-9.821-6.361-13.893-2.385a9.311,9.311,0,0,0-2.364,3.413c-.517,1.46-.023,2.507.42,3.9a24.444,24.444,0,0,1,1.044,4.8c.485.163.967.337,1.447.515.832-1.765,1.8-3.878,4.061-3.285a.548.548,0,0,1,.263.152,4.063,4.063,0,0,1,.386-1.948,1.815,1.815,0,0,1,3.076-.533,10.506,10.506,0,0,0,2.462-2.788c.384-.629,1.375-.053.99.578-.028.046-.058.089-.087.135a4.438,4.438,0,0,0,2.319-1.64c.3-.362.741.21.9.547a2.253,2.253,0,0,0,.191-.293.694.694,0,0,0,.08-.525,6.412,6.412,0,0,0-.255-.993" transform="translate(-325.689 -216.32)" fill="#3a8fb7"/>
          </g>
        </g>
      </g>
      <path id="パス_183" data-name="パス 183" d="M413.6,248.744c-.046.041-.094.081-.144.118.09.193.034.155-.136.36a5.992,5.992,0,0,1-1.94,1.606.729.729,0,0,1,.31.066,5.53,5.53,0,0,1,1.388.748,5.11,5.11,0,0,0,.349-1.585.553.553,0,0,1,.5-.545,3.1,3.1,0,0,0-.325-.768" transform="translate(-337.111 -203.834)" fill="#fff"/>
      <path id="パス_184" data-name="パス 184" d="M339.4,267.173a6.494,6.494,0,0,1-.426-1.351,5.012,5.012,0,0,1,.225-2.7c.013-.037.027-.074.041-.111a.56.56,0,0,1-.229-.148,3.954,3.954,0,0,0-1.317-.721.574.574,0,0,1-.137-.879,5,5,0,0,1-1.7.317,12.2,12.2,0,0,1-2.049,1.938.567.567,0,0,1-.148.079.613.613,0,0,1-.975-.243c-.264-.735-.937-.574-1.269-.03a2.457,2.457,0,0,0-.3,1.093,3.152,3.152,0,0,0,.643,2.293c.494.546-.314,1.358-.81.81a4.041,4.041,0,0,1-.929-1.992.535.535,0,0,1-.639.29c-1.122-.294-1.521.464-2.025,1.363-.334.6-.647,1.207-.945,1.823a.574.574,0,0,1-.647.263c-.592-.219-1.185-.44-1.784-.643l-.893,4.315c-.135.654-1.049.463-1.113-.112a1.237,1.237,0,0,0-.187.685,77.675,77.675,0,0,1,8.493,2.885.574.574,0,0,1,.032-.174l.81-2.27a.58.58,0,0,1,.842-.342,5.432,5.432,0,0,0,2.941,1.242,1.954,1.954,0,0,0,1.656-.68,7.646,7.646,0,0,0,.414-1.12c.129-.3.249-.615.371-.934a3.144,3.144,0,0,1-.931-.787.586.586,0,0,1,0-.81.577.577,0,0,1,.81,0,2.39,2.39,0,0,0,.563.527,5.848,5.848,0,0,1,.5-.893,4.065,4.065,0,0,1,.776-.838,5.069,5.069,0,0,1,.548-.383c.291-.178.421-.129.415-.476-.007-.4-.466-.924-.624-1.292m-1.3-1.732a.573.573,0,0,1,0-1.146.573.573,0,0,1,0,1.146" transform="translate(-263.687 -214.098)" fill="#fff"/>
      <path id="パス_185" data-name="パス 185" d="M497.641,393.245c.565-.065.658-1.432.735-1.827l.647-3.3,1.571-8.019.44-2.246c.089-.455.038-.643-.541-.74a23.9,23.9,0,0,0-3.76,0H476.887a5.415,5.415,0,0,0-1.061,0c-.621.135-.627.868-.736,1.393L472.768,389.7a.478.478,0,0,1-.4.4,3.614,3.614,0,0,1,1.483.356.56.56,0,0,1-.236-.6l2.481-11.62a.58.58,0,0,1,.552-.421h22.81a.581.581,0,0,1,.552.725l-2.66,13.577a.58.58,0,0,1-.552.421h-8.424a.542.542,0,0,1-.552-.587h-1.587a6.091,6.091,0,0,1,1.174,1.809h.748a.545.545,0,0,1,.551-.61h7.665a.536.536,0,0,1,.551.541h.2a.6.6,0,0,1,.518-.448" transform="translate(-387.083 -308.953)" fill="#fff"/>
      <path id="パス_186" data-name="パス 186" d="M495.849,400.2H503.8l2.436-12.431H484.586l-2.391,11.2a.509.509,0,0,1-.705.375,10.913,10.913,0,0,1,2.695,2.32.591.591,0,0,1,.126.2,4.722,4.722,0,0,1,.545-1,1.588,1.588,0,0,1,2.148-.393,1.638,1.638,0,0,1,2.223.077,1.84,1.84,0,0,1,1.375-.427,1.676,1.676,0,0,1,.889.409,1.905,1.905,0,0,1,1.958.035,1.978,1.978,0,0,1,.261.2H495.3a.54.54,0,0,1,.552-.559m-6.023-2.388c-1.1-.054-1.518-.844-1.351-1.859.188-1.143.428-2.281.642-3.42.187-1,.691-1.76,1.8-1.819.954-.051,1.924,0,2.879,0,1.087,0,2.179-.028,3.266,0,1.025.026,1.694.608,1.541,1.692-.149,1.058-.4,2.11-.593,3.16-.2,1.071-.464,1.973-1.622,2.212a1.02,1.02,0,0,1-.34.035c-2.068,0-4.159.1-6.223,0" transform="translate(-394.558 -317.755)" fill="#3a8fb7"/>
      <path id="パス_187" data-name="パス 187" d="M299.563,366.008a5.789,5.789,0,0,0,.265-3.607,5.7,5.7,0,0,0-.266-.79,2.3,2.3,0,0,1-1.235.4,2.3,2.3,0,0,0,1.235-.4,4.346,4.346,0,0,0-.25-.509,3,3,0,0,0-.418-.58c-.027-.028-.144-.152-.209-.238-.135.029-.275.047-.411.07l-1.473.252-5.891,1.007a.617.617,0,0,1-.631-.912q-.512-2.415-.987-4.837c-.549-2.787-1.078-5.58-1.5-8.388-.186-1.23-.36-2.461-.561-3.688a7.008,7.008,0,0,0-.913-2.929c-1.49-2.313-3.685-3.551-6.118-4.662a68.3,68.3,0,0,0-8.764-2.979.534.534,0,0,1-.383-.387,3.139,3.139,0,0,0-.737.363.539.539,0,0,1-.2.758,17.65,17.65,0,0,0-3.353,2.3,12.749,12.749,0,0,0-2.668,3.993,31.6,31.6,0,0,0-2.4,9.561.633.633,0,0,1-.8.523c.023.19.045.381.055.571l7.877,1.018a17.354,17.354,0,0,1,3.474.514c1.847.654,1.947,2.515,2.218,4.142l1.806,10.835,7.567,1.027a8.82,8.82,0,0,1-.435-1.142c-.4-1.148-.735-2.32-1.063-3.49-.914-3.26-1.727-6.55-2.487-9.849-.616-2.674-1.253-5.369-1.624-8.091a4.172,4.172,0,0,1,.167-2.295c.645-1.7,1.662-3.883,3.485-4.558.694-.257.99.851.3,1.105-1.063.393-1.733,1.725-2.207,2.674a9.225,9.225,0,0,0-.715,1.821,10.354,10.354,0,0,0,.31,2.443,170.959,170.959,0,0,0,4.027,16.995c.291,1.019.588,2.039.942,3.037.359,1.014.471,1.357,1.692,1.5a14.075,14.075,0,0,0,4.1-.472q1.367-.25,2.726-.542c1.883-.4,3.765-.787,5.666-1.094a.611.611,0,0,1,.685.436,1.229,1.229,0,0,0,.272-.319.455.455,0,0,1-.176-.586m-21.1-13.068c.237.7-.87,1-1.105.3l-2.252-6.659c-.237-.7.87-1,1.105-.3l2.252,6.659" transform="translate(-213.796 -272.739)" fill="#fff"/>
      <path id="パス_188" data-name="パス 188" d="M234.3,439.221c-.21-1.261-.307-2.615-1.86-2.893-1.346-.241-2.729-.353-4.084-.528l-6.647-.859c-.011.021-.02.041-.033.061.012-.02.021-.041.033-.061l-5.7-.736c-1-.129-2.844-.635-2.727,1.015.1,1.464.493,2.961.733,4.407l1.284,7.721,20.822,2.825L234.3,439.221" transform="translate(-174.774 -355.669)" fill="#fff"/>
      <g id="グループ_320" data-name="グループ 320" transform="translate(85.942 93.382)" style="isolation: isolate">
        <g id="グループ_319" data-name="グループ 319">
          <g id="グループ_318" data-name="グループ 318" clip-path="url(#clip-path-3)">
            <path id="パス_189" data-name="パス 189" d="M476.016,517.693a.629.629,0,0,0,.93-.281c.025-.063.046-.128.069-.192a4.273,4.273,0,0,1-.869.087,1.037,1.037,0,0,1-.129.386" transform="translate(-476.016 -517.22)" fill="#323232"/>
          </g>
        </g>
      </g>
      <g id="グループ_323" data-name="グループ 323" transform="translate(88.288 84.809)" style="isolation: isolate">
        <g id="グループ_322" data-name="グループ 322">
          <g id="グループ_321" data-name="グループ 321" clip-path="url(#clip-path-4)">
            <path id="パス_190" data-name="パス 190" d="M511.281,471l-.493.474.493-.474a.544.544,0,0,0-.587-.031l-1.537.815-1.41.748a6.689,6.689,0,0,1-1.017.567,5.96,5.96,0,0,0-.984-.026h-4.9a1.59,1.59,0,0,0,.56-.293c.9-.713.4-1.686-.072-2.5-.1-.169-.194-.355-.292-.548h-1.366l.067.123c.228.417.5.809.729,1.223.207.373.526,1.112-.282.769s-1.11-2.649-2.3-1.633a37.793,37.793,0,0,0-2.809,3.443,10.739,10.739,0,0,1-5.67,2.917.564.564,0,0,0-.228.963,3.94,3.94,0,0,0,.456-.483,3.94,3.94,0,0,1-.456.483.536.536,0,0,0,.533.142,11.89,11.89,0,0,0,6.736-3.856c.053-.064.1-.131.157-.2h0c.6-.735,1.145-1.515,1.761-2.234a8.844,8.844,0,0,0,.767.985,2.059,2.059,0,0,0,1,.691h-1.606a.54.54,0,0,0-.552.558h0a.543.543,0,0,0,.552.588c2.312,0,4.625.005,6.937,0a4.874,4.874,0,0,0,2.716-.624l3.085-1.636a.551.551,0,0,0,.009-.959" transform="translate(-489.007 -469.738)" fill="#323232"/>
          </g>
        </g>
      </g>
      <path id="パス_191" data-name="パス 191" d="M371.933,238.836H350.679c-1.045,0-2.716-.3-3.455.622a6.11,6.11,0,0,0-.718,2.454l-.816,3.933-1.331,6.419a.554.554,0,0,0,.157.527l.141-.75-.141.75a.665.665,0,0,0,.364.182,3.578,3.578,0,0,0-.361.031l-.044.007-.236,1.258.236-1.258c-2.65.386-4.656,2.77-7.367,2.828a.531.531,0,0,0-.451.242c-.648-3.18-1.247-6.371-1.741-9.576-.2-1.311-.384-2.626-.6-3.935a7.677,7.677,0,0,0-.855-2.925,13.135,13.135,0,0,0-5.969-5.005l-.2-.092a.579.579,0,0,0,.213-.286l.557-1.559c1.565.928,3.511,1.638,5.1.326a5.962,5.962,0,0,0,1.23-2.375c.227-.513.4-1.053.628-1.564a3.074,3.074,0,0,1,.575-.9,14.242,14.242,0,0,1,1.355-.939c.86-.732.231-1.56-.186-2.337a4.453,4.453,0,0,1-.415-3.625,11.118,11.118,0,0,0,.9-3.244.532.532,0,0,0-.648-.545,3.29,3.29,0,0,1,.072,1.184,3.29,3.29,0,0,0-.072-1.184.553.553,0,0,0-.5.545,5.116,5.116,0,0,1-.349,1.585,5.533,5.533,0,0,0-1.388-.748.73.73,0,0,0-.31-.066,5.992,5.992,0,0,0,1.94-1.606.581.581,0,0,0,.08-.636,9.841,9.841,0,0,0-1.122.773,9.841,9.841,0,0,1,1.122-.773.519.519,0,0,0-.891-.174,4.436,4.436,0,0,1-2.319,1.64c.029-.045.059-.089.087-.135.385-.631-.605-1.208-.99-.578a10.506,10.506,0,0,1-2.462,2.787,1.815,1.815,0,0,0-3.076.533,4.06,4.06,0,0,0-.386,1.948.55.55,0,0,0-.263-.152c-2.261-.593-3.229,1.52-4.061,3.285-.48-.177-.962-.352-1.447-.515a24.446,24.446,0,0,0-1.044-4.8c-.443-1.4-.937-2.443-.42-3.9a9.31,9.31,0,0,1,2.364-3.413c4.072-3.976,11.09-2.269,13.893,2.385a.548.548,0,0,0,.766.192c-.172-.328-.345-.66-.492-1,.147.344.32.675.492,1a.534.534,0,0,0,.224-.771c-2.88-4.784-10.267-7.131-14.877-3.35-1.954,1.6-4.119,4.24-3.743,6.949a13.759,13.759,0,0,0,.688,2.215q.387,1.222.654,2.477c.146.685.276,1.38.353,2.078l-1.053,5.09a.608.608,0,0,0-.007.192.746.746,0,0,1,.27-.222.746.746,0,0,0-.27.222c.063.575.977.766,1.112.112l.893-4.316c.6.2,1.191.425,1.784.643a.574.574,0,0,0,.647-.263c.3-.616.611-1.226.945-1.823.5-.9.9-1.657,2.025-1.363a.535.535,0,0,0,.639-.29,4.041,4.041,0,0,0,.93,1.992c.5.548,1.3-.265.81-.81a3.152,3.152,0,0,1-.643-2.293,2.457,2.457,0,0,1,.3-1.093c.332-.544,1-.7,1.269.03a.613.613,0,0,0,.974.243.575.575,0,0,0,.148-.079,12.2,12.2,0,0,0,2.049-1.939,5,5,0,0,0,1.7-.317.569.569,0,0,0-.069.095.578.578,0,0,0,.206.784,3.955,3.955,0,0,1,1.317.721.557.557,0,0,0,.229.148c-.014.037-.028.073-.041.111a5.009,5.009,0,0,0-.225,2.7,6.489,6.489,0,0,0,.426,1.351c.158.369.617.893.624,1.292.006.347-.124.3-.415.476a5.062,5.062,0,0,0-.548.383,4.07,4.07,0,0,0-.776.838,5.876,5.876,0,0,0-.5.893,2.389,2.389,0,0,1-.562-.527.576.576,0,0,0-.81,0,.586.586,0,0,0,0,.81,3.143,3.143,0,0,0,.931.787c-.122.319-.242.635-.371.934a7.646,7.646,0,0,1-.414,1.12,1.955,1.955,0,0,1-1.656.68,5.435,5.435,0,0,1-2.941-1.243.58.58,0,0,0-.842.342l-.81,2.27a.573.573,0,0,0-.032.174,77.608,77.608,0,0,0-8.493-2.885c-.021.318-.034.631-.307.813.273-.182.286-.495.307-.813l-.155-.047a.565.565,0,0,0-.687.718c.051-.017.1-.036.153-.049-.053.013-.1.032-.153.049a.534.534,0,0,0,.383.387,68.294,68.294,0,0,1,8.764,2.979c2.434,1.111,4.628,2.349,6.118,4.662a7.008,7.008,0,0,1,.913,2.929c.2,1.227.375,2.459.561,3.688.425,2.808.954,5.6,1.5,8.388q.477,2.422.987,4.837a.617.617,0,0,0,.631.912l5.891-1.007,1.473-.252c.136-.023.276-.041.411-.07.066.085.183.21.209.238a3,3,0,0,1,.418.58,4.33,4.33,0,0,1,.249.509c.329-.205.636-.46.948-.7a5.345,5.345,0,0,0-.543-.882,1.75,1.75,0,0,0-1.394-.883,9.165,9.165,0,0,0-1.023.175l-6.172,1.055q-.271-1.27-.534-2.543a.55.55,0,0,0,.28.066c2.415-.051,4.248-1.665,6.426-2.493a3.1,3.1,0,0,1,3.086.159,15.326,15.326,0,0,1,1.975,1.888.5.5,0,0,0,.583.132,3.234,3.234,0,0,1-.255.4,6.325,6.325,0,0,1-1.977,1.815.548.548,0,0,0-.121.866,2.986,2.986,0,0,1,.733-.383,2.986,2.986,0,0,0-.733.383.536.536,0,0,0,.7.123,7.58,7.58,0,0,0,2.342-2.156,7.975,7.975,0,0,0,.9-1.654c.207-.464.7-.868.988-.483a.581.581,0,0,0,.9.116c.378-.431.869-.549,1.237-.023a.584.584,0,0,0,.9.116c.369-.318,1.1-.667,1.272-.253a.581.581,0,0,0,.958.253c.787-.855,1.354.173,1.714.84H360.1a6.091,6.091,0,0,0-1.174-1.809h0a1.948,1.948,0,0,0-.261-.2,1.9,1.9,0,0,0-1.958-.035,1.677,1.677,0,0,0-.889-.409,1.839,1.839,0,0,0-1.375.427,1.638,1.638,0,0,0-2.223-.077,1.588,1.588,0,0,0-2.149.393,4.731,4.731,0,0,0-.545,1,.594.594,0,0,0-.126-.2,10.921,10.921,0,0,0-2.695-2.32.509.509,0,0,0,.705-.374l2.391-11.2h21.653l-2.436,12.431h-7.954a.54.54,0,0,0-.552.559h0a.543.543,0,0,0,.552.587h8.424a.58.58,0,0,0,.552-.421l2.66-13.577a.581.581,0,0,0-.552-.725h-22.81a.58.58,0,0,0-.552.421l-2.481,11.62a.56.56,0,0,0,.236.6,3.618,3.618,0,0,0-1.483-.356.477.477,0,0,0,.4-.4l2.321-11.194c.109-.525.115-1.257.736-1.393a5.415,5.415,0,0,1,1.061,0h19.846a23.9,23.9,0,0,1,3.76,0c.579.1.63.285.541.74l-.44,2.246-1.571,8.019-.647,3.3c-.077.394-.17,1.762-.735,1.827a.6.6,0,0,0-.518.448h0c-.1.344.071.75.518.7,1.08-.124,1.485-.782,1.663-1.763.139-.767.3-1.53.45-2.295l1.517-7.745a49.116,49.116,0,0,0,.947-4.833c.171-1.871-1.716-1.791-2.979-1.791m-46.916-15.947c.382.191.573-.382.955-.191-.382-.191-.573.382-.955.191m19.734,36.465c.133-.019.078.036,0,0" transform="translate(-259.779 -171.824)" fill="#323232"/>
      <g id="グループ_326" data-name="グループ 326" transform="translate(85.725 88.172)" style="isolation: isolate">
        <g id="グループ_325" data-name="グループ 325">
          <g id="グループ_324" data-name="グループ 324" clip-path="url(#clip-path-5)">
            <path id="パス_192" data-name="パス 192" d="M475.119,489.853a5.791,5.791,0,0,1-.265,3.607.455.455,0,0,0,.175.586,1.043,1.043,0,0,0,.129-.386h0a1.153,1.153,0,0,0-.013-.382,1.153,1.153,0,0,1,.013.382,4.273,4.273,0,0,0,.869-.087,6.824,6.824,0,0,0-.227-5.21c-.312.239-.618.495-.948.7a5.717,5.717,0,0,1,.266.79" transform="translate(-474.812 -488.363)" fill="#323232"/>
          </g>
        </g>
      </g>
      <g id="グループ_329" data-name="グループ 329" transform="translate(73.859 50.198)" style="isolation: isolate">
        <g id="グループ_328" data-name="グループ 328">
          <g id="グループ_327" data-name="グループ 327" clip-path="url(#clip-path-6)">
            <path id="パス_193" data-name="パス 193" d="M409.642,278.033a.573.573,0,0,0,0,1.146.573.573,0,0,0,0-1.146" transform="translate(-409.088 -278.033)" fill="#323232"/>
          </g>
        </g>
      </g>
      <g id="グループ_332" data-name="グループ 332" transform="translate(46.753 60.14)" style="isolation: isolate">
        <g id="グループ_331" data-name="グループ 331">
          <g id="グループ_330" data-name="グループ 330" clip-path="url(#clip-path-7)">
            <path id="パス_194" data-name="パス 194" d="M268.72,333.416c-.363.236-.692.515-1.02.734.328-.219.657-.5,1.02-.734a.543.543,0,0,0-.775-.232,19.585,19.585,0,0,0-3.476,2.375,13.4,13.4,0,0,0-2.956,4.324,33.339,33.339,0,0,0-2.552,10.14.449.449,0,0,0,.346.523,3.508,3.508,0,0,1-.012-1.115,3.508,3.508,0,0,0,.012,1.115.633.633,0,0,0,.8-.523,31.593,31.593,0,0,1,2.4-9.561,12.747,12.747,0,0,1,2.668-3.993,17.647,17.647,0,0,1,3.353-2.3.539.539,0,0,0,.2-.758" transform="translate(-258.956 -333.102)" fill="#323232"/>
          </g>
        </g>
      </g>
      <g id="グループ_335" data-name="グループ 335" transform="translate(61.278 73.146)" style="isolation: isolate">
        <g id="グループ_334" data-name="グループ 334">
          <g id="グループ_333" data-name="グループ 333" clip-path="url(#clip-path-8)">
            <path id="パス_195" data-name="パス 195" d="M340.543,405.536c-.235-.695-1.342-.4-1.105.3l2.252,6.659c.235.695,1.342.4,1.105-.3l-2.252-6.659" transform="translate(-339.405 -405.141)" fill="#323232"/>
          </g>
        </g>
      </g>
      <g id="グループ_338" data-name="グループ 338" transform="translate(64.409 66.228)" style="isolation: isolate">
        <g id="グループ_337" data-name="グループ 337">
          <g id="グループ_336" data-name="グループ 336" clip-path="url(#clip-path-9)">
            <path id="パス_196" data-name="パス 196" d="M378.01,394.765a2.1,2.1,0,0,1-1.331.442,2.1,2.1,0,0,0,1.331-.442.611.611,0,0,0-.685-.436c-1.9.307-3.783.692-5.666,1.094q-1.359.29-2.726.542a14.071,14.071,0,0,1-4.1.472c-1.221-.148-1.333-.49-1.692-1.5s-.651-2.019-.942-3.037a170.98,170.98,0,0,1-4.027-16.995,10.348,10.348,0,0,1-.309-2.443,9.225,9.225,0,0,1,.715-1.821c.473-.949,1.144-2.281,2.207-2.674.686-.254.389-1.362-.3-1.105-1.823.675-2.84,2.863-3.485,4.558a4.17,4.17,0,0,0-.167,2.295c.371,2.722,1.008,5.417,1.624,8.091.76,3.3,1.573,6.589,2.487,9.849.328,1.17.663,2.342,1.063,3.49a8.824,8.824,0,0,0,.435,1.142l1.254.17-1.254-.17a2.013,2.013,0,0,0,.4.558c.955.89,2.5.834,3.692.68,1.423-.184,2.841-.465,4.246-.748,2.282-.459,4.547-.968,6.847-1.339a.478.478,0,0,0,.38-.669" transform="translate(-356.749 -366.82)" fill="#323232"/>
          </g>
        </g>
      </g>
      <g id="グループ_341" data-name="グループ 341" transform="translate(101.072 84.199)" style="isolation: isolate">
        <g id="グループ_340" data-name="グループ 340">
          <g id="グループ_339" data-name="グループ 339" clip-path="url(#clip-path-10)">
            <path id="パス_197" data-name="パス 197" d="M567.417,466.9h1.162a.536.536,0,0,0-.551-.54h-7.665a.545.545,0,0,0-.551.61h0a.536.536,0,0,0,.551.536h7.665a.544.544,0,0,0,.551-.606Z" transform="translate(-559.813 -466.359)" fill="#323232"/>
          </g>
        </g>
      </g>
      <g id="グループ_344" data-name="グループ 344" transform="translate(83.096 83.332)" style="isolation: isolate">
        <g id="グループ_343" data-name="グループ 343">
          <g id="グループ_342" data-name="グループ 342" clip-path="url(#clip-path-11)">
            <path id="パス_198" data-name="パス 198" d="M463.771,464.925c.709-.285,1.471-.579,1.642-1.417a1.452,1.452,0,0,0-1.31-1.74,5.6,5.6,0,0,0-1.842.323.547.547,0,0,0-.947-.345l-.928,1.091c-.333.392-.028,1.177.558.958.558-.209,1.107-.426,1.68-.585l.051-.015a3.392,3.392,0,0,1,1.372-.278c.788.224-.315.8-.581.9a.608.608,0,0,0-.206.134c-.392.389-.091,1.213.51.971" transform="translate(-460.249 -461.556)" fill="#323232"/>
          </g>
        </g>
      </g>
      <g id="グループ_347" data-name="グループ 347" transform="translate(46.934 78.156)" style="isolation: isolate">
        <g id="グループ_346" data-name="グループ 346">
          <g id="グループ_345" data-name="グループ 345" clip-path="url(#clip-path-12)">
            <path id="パス_199" data-name="パス 199" d="M273.75,438.561c-.271-1.627-.371-3.488-2.218-4.142a17.342,17.342,0,0,0-3.474-.514l-7.877-1.018a2.019,2.019,0,0,1-.225,1.117l6.647.859c1.356.175,2.738.287,4.084.528,1.552.278,1.65,1.632,1.86,2.893l1.826,10.952,1.183.16-1.806-10.835" transform="translate(-259.957 -432.887)" fill="#323232"/>
          </g>
        </g>
      </g>
      <g id="グループ_350" data-name="グループ 350" transform="translate(37.38 77.201)" style="isolation: isolate">
        <g id="グループ_349" data-name="グループ 349">
          <g id="グループ_348" data-name="グループ 348" clip-path="url(#clip-path-13)">
            <path id="パス_200" data-name="パス 200" d="M216.818,428.553l-5.392-.7c-1.187-.153-2.717-.621-3.709.28-1.164,1.057-.526,2.875-.3,4.21l1.592,9.57,1.182.16-1.284-7.721c-.24-1.446-.629-2.944-.733-4.407-.117-1.65,1.73-1.144,2.727-1.015l5.7.736a2.021,2.021,0,0,0,.225-1.117" transform="translate(-207.039 -427.598)" fill="#323232"/>
          </g>
        </g>
      </g>
      <path id="パス_201" data-name="パス 201" d="M491.6,253.481a6.732,6.732,0,0,0,2.832,4.255,7.5,7.5,0,0,0,2.436,1.01.874.874,0,0,1,.739.668c.177.463.347.928.52,1.393.121-.26.256-.514.321-.688a7.139,7.139,0,0,1,.345-.926c.329-.6,1.282-.568,1.889-.813a6.635,6.635,0,0,0,2.068-1.337,6.686,6.686,0,1,0-11.151-3.564m4.024-1.384,1.708,1.352,3.125-3.536c.49-.554,1.3.259.81.81l-3.459,3.914a.584.584,0,0,1-.81,0l-2.184-1.729c-.578-.458.238-1.263.81-.81" transform="translate(-402.742 -201.172)" fill="#fff"/>
      <path id="パス_202" data-name="パス 202" d="M491.442,254.7l.592,1.588c.188.5.347,1.2,1.02,1.2s.832-.692,1.02-1.2l.591-1.586a7.841,7.841,0,1,0-3.223,0m.207-14.191a6.686,6.686,0,0,1,6,11.4,6.638,6.638,0,0,1-2.068,1.337c-.607.244-1.56.212-1.889.813a7.093,7.093,0,0,0-.345.926c-.065.174-.2.428-.321.688-.172-.465-.342-.93-.52-1.393a.873.873,0,0,0-.739-.668,7.509,7.509,0,0,1-2.436-1.01,6.686,6.686,0,0,1,2.323-12.088" transform="translate(-397.634 -196.034)" fill="#323232"/>
      <path id="パス_203" data-name="パス 203" d="M528.255,414.86h4.611c.824-.108.881-2.3.981-2.834.087-.467.609-1.792.023-1.971a8.606,8.606,0,0,0-2.178,0h-2.972c-.607,0-1.419-.207-1.738.513a10.77,10.77,0,0,0-.418,2.228c-.076.4-.6,1.835-.124,2.064a5.709,5.709,0,0,0,1.816,0m0-4,1.7,1.61,2.6-1.7c.62-.4,1.194.588.578.99L530.32,413.6a.624.624,0,0,1-.058.03.553.553,0,0,1-.763-.013l-2.06-1.945c-.538-.508.274-1.317.81-.81" transform="translate(-431.231 -335.954)" fill="#fff"/>
      <path id="パス_204" data-name="パス 204" d="M527.734,411.074a.589.589,0,0,0,.2-.034c1.158-.239,1.421-1.141,1.622-2.212.2-1.05.444-2.1.593-3.16.153-1.084-.516-1.666-1.541-1.692-1.087-.028-2.178,0-3.266,0-.955,0-1.926-.051-2.879,0-1.111.059-1.615.822-1.8,1.819-.214,1.139-.454,2.276-.642,3.42-.167,1.015.249,1.8,1.352,1.859,2.064.1,4.155.005,6.223,0a.586.586,0,0,0,.144,0m-6.3-3.21a10.775,10.775,0,0,1,.418-2.228c.319-.72,1.131-.513,1.738-.513h2.972a8.6,8.6,0,0,1,2.178,0c.586.179.065,1.5-.023,1.971-.1.532-.157,2.726-.981,2.834h-4.611a5.71,5.71,0,0,1-1.816,0c-.475-.229.048-1.66.124-2.064" transform="translate(-426.1 -331.022)" fill="#323232"/>
      <g id="グループ_353" data-name="グループ 353" transform="translate(96.032 74.723)" style="isolation: isolate">
        <g id="グループ_352" data-name="グループ 352">
          <g id="グループ_351" data-name="グループ 351" clip-path="url(#clip-path-14)">
            <path id="パス_205" data-name="パス 205" d="M534.135,416.814a.553.553,0,0,0,.763.013c.019-.01.039-.018.058-.03l2.817-1.839c.615-.4.042-1.394-.578-.99l-2.6,1.7-1.7-1.61c-.536-.506-1.348.3-.81.81Z" transform="translate(-531.899 -413.873)" fill="#323232"/>
          </g>
        </g>
      </g>
      <g id="グループ_356" data-name="グループ 356" transform="translate(91.876 48.554)" style="isolation: isolate">
        <g id="グループ_355" data-name="グループ 355">
          <g id="グループ_354" data-name="グループ 354" clip-path="url(#clip-path-15)">
            <path id="パス_206" data-name="パス 206" d="M509.076,272.113l2.184,1.729a.584.584,0,0,0,.81,0l3.459-3.914c.487-.551-.321-1.364-.81-.81l-3.125,3.537-1.707-1.352c-.572-.453-1.389.353-.81.81" transform="translate(-508.878 -268.933)" fill="#3a8fb7"/>
          </g>
        </g>
      </g>
      <path id="パス_207" data-name="パス 207" d="M34.562,216.751a18.251,18.251,0,0,1-.906-3.569c-.14-1.386-.887-3.043-2.386-3.417a.52.52,0,0,1-.324-.223l-.465.047a4.175,4.175,0,0,1,2.231,2.985c.126.722-.979,1.03-1.105.3a3.149,3.149,0,0,0-2.475-2.581.482.482,0,0,1-.636-.111,3.936,3.936,0,0,1-.255-.327c-.8-1.125-.752-2.353-.893-3.717-.034-.326-.092-.731-.487-.8-.785-.131-.618,1.68-.606,2.054.029.9.144,1.781.142,2.678,0,0,0,.051,0,.068a.573.573,0,0,1-1.146,0c0-.05,0-.105,0-.163-.74-.42-1.314-1.645-1.713-2.224l-1.861-2.695a12.642,12.642,0,0,0,1.318,2.682,10.519,10.519,0,0,0,1.087,1.7,38.253,38.253,0,0,0,3.268,3.6,14.053,14.053,0,0,1,1.885,1.829,10.179,10.179,0,0,1,.815,2.656.567.567,0,0,1,.015.266,10.92,10.92,0,0,0,4.5-1.039" transform="translate(-17.761 -168.039)" fill="#fff"/>
      <path id="パス_208" data-name="パス 208" d="M232.306,99.994a7.947,7.947,0,0,0,1.23-.089,1.342,1.342,0,0,0-.858-.491,2.324,2.324,0,0,0-.977-.023c-.768.277.256.6.6.6" transform="translate(-189.64 -81.41)" fill="#fff"/>
      <path id="パス_209" data-name="パス 209" d="M68.654,200.358a.508.508,0,0,0,.053-.718.486.486,0,0,0-.573-.016l.521.735" transform="translate(-55.832 -163.513)" fill="#fff"/>
      <path id="パス_210" data-name="パス 210" d="M93.011,215.458a2.453,2.453,0,0,1,.055-.29,1.353,1.353,0,0,0-.066.493,1.55,1.55,0,0,1,.011-.2" transform="translate(-76.207 -176.32)" fill="#33c8e7"/>
      <path id="パス_211" data-name="パス 211" d="M74.659,209.216l.489.69a.573.573,0,0,0-.489-.69" transform="translate(-61.18 -171.443)" fill="#fff"/>
      <path id="パス_212" data-name="パス 212" d="M94.361,206.011c.56-.935,1.929-.5,3.1.047a2.939,2.939,0,0,0-.791-.793,12.983,12.983,0,0,0-1.333-.725,7.817,7.817,0,0,0-.979,1.471" transform="translate(-77.325 -167.611)" fill="#fff"/>
      <path id="パス_213" data-name="パス 213" d="M59.652,184.455c-.044-.076-.173-.08-.368-.024a.784.784,0,0,0-.482.406l.482.679c.266-.345.547-.749.369-1.061" transform="translate(-48.186 -151.101)" fill="#fff"/>
      <path id="パス_214" data-name="パス 214" d="M146.593,189.837c.34-.951.637-1.92.92-2.89a39.529,39.529,0,0,0,2.015-12.408,11.164,11.164,0,0,0-1.946-5.917,4.44,4.44,0,0,0-2.831-2.078,11.09,11.09,0,0,0-5.059.028.607.607,0,0,1-.649-.87q-.271.018-.537.059c.036.153.068.308.089.468a3.554,3.554,0,0,1-1.833,3.75c-.661.321-1.242-.668-.578-.99a2.365,2.365,0,0,0,1.178-2.936q-.235.086-.469.194a.552.552,0,0,1-.252.6c-2.175,1.407-4.83,1.778-7.073,3.045-2.761,1.559-3.77,4.334-4.089,7.349-.456,4.309-.923,8.6-1.683,12.869h7.336l1.838-9.191c.145-.724,1.249-.416,1.105.3L132.3,190.1h14.266a.539.539,0,0,1,.029-.267m-13.81-11.5a8.584,8.584,0,0,0-4.063-5.257.573.573,0,0,1,.578-.99,9.75,9.75,0,0,1,4.59,5.942.574.574,0,0,1-1.105.3" transform="translate(-101.445 -135.785)" fill="#fff"/>
      <path id="パス_215" data-name="パス 215" d="M142.528,81.134q.234-.108.469-.194a5.967,5.967,0,0,0-.853-1.9c-.957-1.42-2.189-2.6-3.035-4.106a15.509,15.509,0,0,1-1.85-9.315.614.614,0,0,1,.019-.088q-.1-.034-.2-.063a.475.475,0,0,1-.413.142,6.569,6.569,0,0,1-5.126-3.228.547.547,0,0,1-.08-.338.611.611,0,0,1-.548-.2c-.087.152-.168.308-.24.467a.635.635,0,0,1,.613.874,4.728,4.728,0,0,0-.339,3.178,13.222,13.222,0,0,1,.89,2.445A4.305,4.305,0,0,1,131.4,71c-.151.332-.684.922-.689,1.289,0,.305.032.15.268.35.123.1.277.182.4.284a4.967,4.967,0,0,1,1.418,1.951l0,0,.047-.057.054-.076.068-.1c.054-.081.107-.162.163-.241a.589.589,0,0,1,.784-.206.576.576,0,0,1,.205.784c-.156.218-.292.446-.465.653a1.51,1.51,0,0,1-.431.352c.1.29.2.582.305.872.9,2.5,3.392,1.3,5,.269a.578.578,0,0,1,.862.495q.005,1.866.01,3.733a.569.569,0,0,1-.839.493c-.007.111-.01.219-.011.321A14.625,14.625,0,0,0,141.7,80.74a.541.541,0,0,1,.83.394m-9.652-11.806a.573.573,0,0,1,0-1.146.573.573,0,0,1,0,1.146m-.1-2.879a.4.4,0,0,0-.5.136c-.392.623-1.384.048-.99-.578a1.568,1.568,0,0,1,2.072-.548c.652.348.072,1.336-.578.99" transform="translate(-107.081 -50.673)" fill="#fff"/>
      <g id="グループ_359" data-name="グループ 359" transform="translate(24.828 6.058)" style="isolation: isolate">
        <g id="グループ_358" data-name="グループ 358">
          <g id="グループ_357" data-name="グループ 357" clip-path="url(#clip-path-16)">
            <path id="パス_216" data-name="パス 216" d="M144.015,42.439c-.007.065-.011.129-.017.194a1.708,1.708,0,0,1,.746-.179,7.807,7.807,0,0,0-4.1-2.924.574.574,0,0,1,.3-1.105,8.993,8.993,0,0,1,5.989,5.887.51.51,0,0,1-.026.4,4.781,4.781,0,0,1,.014,1.547,3.894,3.894,0,0,0,.637.467.539.539,0,0,1,.741-.177,2.7,2.7,0,0,0,2.864.221,5.74,5.74,0,0,0,1.819-2.085.567.567,0,0,1,.908-.085,3.1,3.1,0,0,1,1.708-.275A2.429,2.429,0,0,1,157.7,45.7a1.848,1.848,0,0,0,1.254-1.732,1.492,1.492,0,0,0-.708-1.576,2.566,2.566,0,0,0-3.44,1.183c-.3.615-1.177.157-1.038-.441a.576.576,0,0,1-.06-.161,18.913,18.913,0,0,0-2-6.319,6.742,6.742,0,0,0-4.961-3.006,8.87,8.87,0,0,0-9.221,4.719.526.526,0,0,1,.622.251,5.37,5.37,0,0,0,4.137,2.66.621.621,0,0,1,.413,1q.1.029.2.063c.162-.635,1.206-.612,1.127.088" transform="translate(-137.519 -33.553)" fill="#ffdc00"/>
          </g>
        </g>
      </g>
      <path id="パス_217" data-name="パス 217" d="M177.756,93.492a6.061,6.061,0,0,1-.951-.446.542.542,0,0,1-.162-.812,3.886,3.886,0,0,1-.637-.467,4.209,4.209,0,0,1-.986,2.193c-.5.547-1.306-.266-.81-.81a3.316,3.316,0,0,0,.679-2.408,2.557,2.557,0,0,0-.332-1.2c-.372-.581-1.09-.67-1.356.07a.578.578,0,0,1-.2.271,14.444,14.444,0,0,0,3.324,9,10.591,10.591,0,0,1,2.5,4.088q.266-.041.537-.059a.492.492,0,0,1,.345-.235c.451-.092.918-.171,1.392-.23a.564.564,0,0,1-.26-.444q-.236-3.039-.472-6.077a.573.573,0,0,1,0-.059,7.818,7.818,0,0,1-2.151.538c-.734.077-.726-1.07,0-1.146a6.365,6.365,0,0,0,1-.188,2.187,2.187,0,0,1-1.461-1.584" transform="translate(-141.768 -73)" fill="#fff"/>
      <path id="パス_218" data-name="パス 218" d="M203.975,103.9a5.072,5.072,0,0,1-1.99,1.716,3.485,3.485,0,0,1-2.657.016,2.187,2.187,0,0,0,1.461,1.584c1.454-.4,2.912-1.338,3.091-2.9a.594.594,0,0,1,.141-.328c-.016-.03-.032-.059-.045-.092" transform="translate(-163.339 -85.144)" fill="#fff"/>
      <path id="パス_219" data-name="パス 219" d="M92.988,190.165c-.091-.092-.189-.179-.288-.264a.522.522,0,0,1-.773.231q-1.863-1.181-3.8-2.251c-.731-.406-1.469-.807-2.231-1.153-.2-.089-1.83-.831-1.389.144.091.2.712.457.9.564.38.216.767.42,1.154.622.732.382,1.475.743,2.2,1.136a5.249,5.249,0,0,1,2.325,2.958.439.439,0,0,1,.057.189.455.455,0,0,1-.152.43.589.589,0,0,1-.717.162c-.626-.3-1.248-.6-1.873-.9-.3-.142-.877-.482-1.15-.242-.467.41.476.887.775,1.085a4.161,4.161,0,0,1,1.658,1.433,9.944,9.944,0,0,0,1.513,2.217.528.528,0,0,1,.074.683c.138.045.283.079.427.112.151-1.55.313-3.1.575-4.624a12.018,12.018,0,0,1,.711-2.535" transform="translate(-69.191 -152.725)" fill="#fff"/>
      <path id="パス_220" data-name="パス 220" d="M65.562,275.77l.744,3.427H72.74l-1.306-4.773a12.063,12.063,0,0,1-5.872,1.345" transform="translate(-53.725 -224.879)" fill="#fff"/>
      <g id="グループ_362" data-name="グループ 362" transform="translate(25.242 17.509)" style="isolation: isolate">
        <g id="グループ_361" data-name="グループ 361">
          <g id="グループ_360" data-name="グループ 360" clip-path="url(#clip-path-6)">
            <path id="パス_221" data-name="パス 221" d="M140.364,96.977a.573.573,0,0,0,0,1.146.573.573,0,0,0,0-1.146" transform="translate(-139.81 -96.977)" fill="#323232"/>
          </g>
        </g>
      </g>
      <g id="グループ_365" data-name="グループ 365" transform="translate(22.38 11.63)" style="isolation: isolate">
        <g id="グループ_364" data-name="グループ 364">
          <g id="グループ_363" data-name="グループ 363" clip-path="url(#clip-path-18)">
            <path id="パス_222" data-name="パス 222" d="M133.9,79.733a.578.578,0,0,0-.862-.495c-1.611,1.035-4.1,2.231-5-.269-.1-.29-.2-.582-.306-.872a1.511,1.511,0,0,0,.431-.351c.172-.207.309-.435.465-.653a.576.576,0,0,0-.206-.784.589.589,0,0,0-.784.206c-.057.079-.11.16-.163.242l-.068.1-.054.076-.047.057h0a4.965,4.965,0,0,0-1.418-1.951c-.127-.1-.282-.18-.4-.284-.237-.2-.272-.045-.268-.35,0-.367.537-.957.689-1.289a4.305,4.305,0,0,0,.437-2.2,13.219,13.219,0,0,0-.89-2.445,4.728,4.728,0,0,1,.339-3.178.635.635,0,0,0-.613-.874,3.261,3.261,0,0,0-.326,1.337,3.261,3.261,0,0,1,.326-1.337.45.45,0,0,0-.376.3,6.63,6.63,0,0,0-.632,3.009c.066,1.167.8,2,1.01,3.108.265,1.386-.814,2.17-1.155,3.358-.288,1,.519,1.243,1.161,1.761,1.619,1.307,1.254,3.78,2.831,5.038,1.468,1.172,3.257.585,4.745-.242q0,1.361.008,2.721a.519.519,0,0,0,.307.493,2.209,2.209,0,0,1,.179-.823,2.209,2.209,0,0,0-.179.823.569.569,0,0,0,.839-.493q-.005-1.866-.01-3.733" transform="translate(-123.957 -64.415)" fill="#323232"/>
          </g>
        </g>
      </g>
      <path id="パス_223" data-name="パス 223" d="M87.107,183.788c-1.524-.965-3.083-1.886-4.677-2.73-1.032-.547-3.116-1.965-4.17-.724-1.464,1.723,1.35,2.859,2.5,3.445-.785.988-1.722,2.521-1.185,3.622a3.969,3.969,0,0,0,3.108,1.754.556.556,0,0,0,.267-.057,5.429,5.429,0,0,1,.755,1.177,8.815,8.815,0,0,0,1.29,1.708.555.555,0,0,0,.885-.127,1.138,1.138,0,0,1-.728-.574,1.138,1.138,0,0,0,.728.574.528.528,0,0,0-.074-.683,9.951,9.951,0,0,1-1.513-2.217,4.16,4.16,0,0,0-1.658-1.433c-.3-.2-1.241-.674-.774-1.085.273-.24.854.1,1.15.242.624.3,1.247.6,1.873.9a.589.589,0,0,0,.717-.162.455.455,0,0,0,.153-.43.441.441,0,0,0-.057-.189,5.25,5.25,0,0,0-2.326-2.958c-.726-.393-1.469-.754-2.2-1.136-.387-.2-.774-.406-1.154-.622-.188-.107-.81-.362-.9-.564-.441-.975,1.192-.233,1.389-.144.762.346,1.5.747,2.231,1.153q1.929,1.071,3.8,2.251a.522.522,0,0,0,.773-.231,2,2,0,0,1-.815-1.095,2,2,0,0,0,.815,1.095.561.561,0,0,0-.194-.758m-5.3.511a12.99,12.99,0,0,1,1.333.725,2.94,2.94,0,0,1,.791.794c-1.174-.549-2.543-.982-3.1-.047a7.82,7.82,0,0,1,.979-1.471" transform="translate(-63.792 -147.37)" fill="#323232"/>
      <g id="グループ_368" data-name="グループ 368" transform="translate(21.193 29.973)" style="isolation: isolate">
        <g id="グループ_367" data-name="グループ 367">
          <g id="グループ_366" data-name="グループ 366" clip-path="url(#clip-path-19)">
            <path id="パス_224" data-name="パス 224" d="M130.807,166.106a14.614,14.614,0,0,1-3.136,1.427c0,.068,0,.134,0,.194,0-.06,0-.126,0-.194a19.43,19.43,0,0,0-4.362,1.875,8.7,8.7,0,0,0-3.322,4.071,1.441,1.441,0,0,1,.425.742,1.441,1.441,0,0,0-.425-.742,12.014,12.014,0,0,0-.71,2.535c-.261,1.528-.424,3.075-.575,4.624a2.269,2.269,0,0,1,.755.268,2.269,2.269,0,0,0-.755-.268c-.161,1.651-.308,3.3-.547,4.94-.233,1.6-.483,3.192-.772,4.78h1.158c.76-4.268,1.227-8.56,1.683-12.869.319-3.015,1.328-5.79,4.089-7.349,2.243-1.267,4.9-1.638,7.073-3.045a.552.552,0,0,0,.252-.6c-.177.081-.353.171-.529.272.176-.1.352-.191.529-.272a.541.541,0,0,0-.83-.394" transform="translate(-117.383 -166.012)" fill="#323232"/>
          </g>
        </g>
      </g>
      <g id="グループ_371" data-name="グループ 371" transform="translate(29.687 44.715)" style="isolation: isolate">
        <g id="グループ_370" data-name="グループ 370">
          <g id="グループ_369" data-name="グループ 369" clip-path="url(#clip-path-20)">
            <path id="パス_225" data-name="パス 225" d="M167.375,248.386c.144-.72-.96-1.028-1.105-.3l-1.838,9.191H165.6l1.777-8.886" transform="translate(-164.432 -247.668)" fill="#323232"/>
          </g>
        </g>
      </g>
      <g id="グループ_374" data-name="グループ 374" transform="translate(26.996 36.222)" style="isolation: isolate">
        <g id="グループ_373" data-name="グループ 373">
          <g id="グループ_372" data-name="グループ 372" clip-path="url(#clip-path-21)">
            <path id="パス_226" data-name="パス 226" d="M154.969,206.65a9.749,9.749,0,0,0-4.59-5.942.573.573,0,0,0-.578.99,8.583,8.583,0,0,1,4.063,5.257.574.574,0,0,0,1.105-.3" transform="translate(-149.522 -200.627)" fill="#323232"/>
          </g>
        </g>
      </g>
      <path id="パス_227" data-name="パス 227" d="M13.148,170.136c-.2-.159-.851.035-1.059.059l-2.268.258-2.03.231c-.058.007-.4.008-.428.049.017-.028.137.123.254.281l5.667-.684-.137-.193" transform="translate(-6.034 -139.368)" fill="#fff"/>
      <path id="パス_228" data-name="パス 228" d="M63.782,222.007l-2.725.352q.027.078.059.155l.2-.024,2.145-.255c.465-.055.483-.043.318-.228" transform="translate(-50.033 -181.925)" fill="#fff"/>
      <g id="グループ_377" data-name="グループ 377" transform="translate(2.319 32.017)" style="isolation: isolate">
        <g id="グループ_376" data-name="グループ 376">
          <g id="グループ_375" data-name="グループ 375" clip-path="url(#clip-path-22)">
            <path id="パス_229" data-name="パス 229" d="M19.81,181.5a1.762,1.762,0,0,1,1.421,1.638c.07.5.072,1.008.11,1.5l2.161-.279-4.976-7.019-5.68.685,1.241,1.8,2.828,4.1.945,1.369c-.124-1.917-.021-4.16,1.95-3.784" transform="translate(-12.846 -177.337)" fill="#ffdc00"/>
          </g>
        </g>
      </g>
      <path id="パス_230" data-name="パス 230" d="M19.952,182.855a.576.576,0,0,0-.786-.366c-.173-.56-.342-1.122-.5-1.686-.275-.968-.22-2.029-.582-2.963a5.2,5.2,0,0,0-2.046-2.54,1.3,1.3,0,0,0,0-1.435,1.835,1.835,0,0,0-.606-2.784,1.5,1.5,0,0,0-.317-1.355,1.541,1.541,0,0,0-1.734-.429,3.668,3.668,0,0,0,.548-.945,1.55,1.55,0,0,0-.5-1.677,1.72,1.72,0,0,0-2.174.388l-1.164-1.642L9.364,164.4a.6.6,0,0,0-.1-.129c-.543-.532-1.139-.373-1.815-.3l-3.146.357a15.225,15.225,0,0,0-1.833.211c-1.308.316-.857,1.531-.328,2.3l2.085,3.02a.512.512,0,0,0-.131.27A4.336,4.336,0,0,0,4.725,173c.427.811.825,1.663,1.325,2.432a26.471,26.471,0,0,0,3.238,3.845,18.421,18.421,0,0,0,2.549,2.507,3.871,3.871,0,0,0,.239.808L12.482,184l-.039,0a.579.579,0,0,0-.553.725l.845,3.893h1.171l-.744-3.427a12.062,12.062,0,0,0,5.872-1.345l1.306,4.773H21.53l-1.578-5.764m-4.658-10.091-.489-.69a.573.573,0,0,1,.489.69m-.538,1.847-2.146.255-.2.024q-.032-.077-.059-.155l2.725-.352c.165.186.147.173-.318.228m-.556-4.183a.509.509,0,0,1-.053.718l-.521-.735a.486.486,0,0,1,.573.016m-1.776-2.8c.2-.056.325-.052.368.024.178.312-.1.716-.369,1.061l-.482-.679a.784.784,0,0,1,.482-.406m-9.769-1.966c.024-.041.37-.042.428-.048l2.03-.231,2.268-.258c.208-.024.855-.218,1.059-.059l.137.193-5.667.684c-.117-.159-.237-.31-.254-.282M3.646,167l5.68-.686,4.976,7.019-2.161.279c-.038-.49-.04-.993-.11-1.5a1.762,1.762,0,0,0-1.421-1.638c-1.972-.376-2.075,1.867-1.95,3.784L7.714,172.9l-2.828-4.1L3.646,167m9.982,17.048a.567.567,0,0,0-.015-.266,10.179,10.179,0,0,0-.814-2.656,14.078,14.078,0,0,0-1.885-1.829,38.228,38.228,0,0,1-3.268-3.6,10.527,10.527,0,0,1-1.087-1.7,12.644,12.644,0,0,1-1.318-2.682L7.1,174.018c.4.579.974,1.8,1.714,2.224,0,.058,0,.113,0,.163a.573.573,0,0,0,1.146,0c0-.017,0-.068,0-.068,0-.9-.112-1.782-.142-2.678-.012-.373-.179-2.185.606-2.054.4.066.454.471.487.8.141,1.364.1,2.592.893,3.717a3.9,3.9,0,0,0,.255.327.482.482,0,0,0,.636.111,3.149,3.149,0,0,1,2.475,2.581c.126.725,1.231.418,1.105-.3a4.176,4.176,0,0,0-2.231-2.985l.465-.047a.519.519,0,0,0,.324.223c1.5.374,2.246,2.031,2.386,3.417a18.263,18.263,0,0,0,.906,3.569,10.922,10.922,0,0,1-4.5,1.039" transform="translate(-1.326 -134.3)" fill="#323232"/>
      <g id="グループ_380" data-name="グループ 380" transform="translate(24.108 14.6)" style="isolation: isolate">
        <g id="グループ_379" data-name="グループ 379">
          <g id="グループ_378" data-name="グループ 378" clip-path="url(#clip-path-23)">
            <path id="パス_231" data-name="パス 231" d="M135.691,81.051a1.568,1.568,0,0,0-2.072.548c-.394.626.6,1.2.99.578a.4.4,0,0,1,.5-.137c.651.347,1.23-.642.578-.99" transform="translate(-133.527 -80.864)" fill="#323232"/>
          </g>
        </g>
      </g>
      <path id="パス_232" data-name="パス 232" d="M6.361,14.256a6.732,6.732,0,0,0,2.832,4.255,7.5,7.5,0,0,0,2.436,1.01.873.873,0,0,1,.739.668c.177.463.347.928.52,1.393.121-.26.256-.514.321-.688a7.134,7.134,0,0,1,.345-.926c.329-.6,1.282-.568,1.889-.813a6.635,6.635,0,0,0,2.068-1.337,6.792,6.792,0,0,0,2.094-4.858,6.755,6.755,0,0,0-8.09-6.538,6.753,6.753,0,0,0-5.155,7.832m4.024-1.384,1.708,1.352,3.125-3.536c.49-.554,1.3.259.81.81L12.57,15.411a.584.584,0,0,1-.81,0L9.575,13.682c-.578-.458.238-1.263.81-.81" transform="translate(-5.109 -5.138)" fill="#fff"/>
      <path id="パス_233" data-name="パス 233" d="M6.2,15.477l.592,1.588c.188.5.347,1.2,1.02,1.2s.832-.692,1.02-1.2l.591-1.586a7.938,7.938,0,0,0,6.22-7.656A7.921,7.921,0,0,0,6.354.129,7.9,7.9,0,0,0,.588,10.84,7.906,7.906,0,0,0,6.2,15.477M6.407,1.285A6.755,6.755,0,0,1,14.5,7.823,6.792,6.792,0,0,1,12.4,12.681a6.638,6.638,0,0,1-2.068,1.337c-.607.244-1.56.212-1.889.813a7.089,7.089,0,0,0-.345.926c-.065.174-.2.427-.321.688-.172-.465-.342-.93-.52-1.393a.873.873,0,0,0-.739-.668,7.509,7.509,0,0,1-2.436-1.011A6.731,6.731,0,0,1,1.251,9.117,6.754,6.754,0,0,1,6.407,1.285" transform="translate(0 0)" fill="#323232"/>
      <g id="グループ_383" data-name="グループ 383" transform="translate(4.268 5.363)" style="isolation: isolate">
        <g id="グループ_382" data-name="グループ 382">
          <g id="グループ_381" data-name="グループ 381" clip-path="url(#clip-path-15)">
            <path id="パス_234" data-name="パス 234" d="M23.835,32.888l2.184,1.729a.584.584,0,0,0,.81,0L30.289,30.7c.487-.551-.321-1.364-.81-.81l-3.125,3.537-1.708-1.352c-.572-.453-1.389.353-.81.81" transform="translate(-23.637 -29.708)" fill="#323232"/>
          </g>
        </g>
      </g>
      <g id="グループ_386" data-name="グループ 386" transform="translate(34.445 29.976)" style="isolation: isolate">
        <g id="グループ_385" data-name="グループ 385">
          <g id="グループ_384" data-name="グループ 384" clip-path="url(#clip-path-25)">
            <path id="パス_235" data-name="パス 235" d="M191.076,169.257c-.663.322-.083,1.311.578.99a3.554,3.554,0,0,0,1.833-3.75c-.021-.159-.053-.315-.089-.468a5.954,5.954,0,0,0-1.144.292,2.365,2.365,0,0,1-1.178,2.936" transform="translate(-190.783 -166.029)" fill="#323232"/>
          </g>
        </g>
      </g>
      <g id="グループ_389" data-name="グループ 389" transform="translate(27.553 10.903)" style="isolation: isolate">
        <g id="グループ_388" data-name="グループ 388">
          <g id="グループ_387" data-name="グループ 387" clip-path="url(#clip-path-26)">
            <path id="パス_236" data-name="パス 236" d="M159.618,75.373a14.444,14.444,0,0,1-3.324-9,.579.579,0,0,0,.2-.271c.266-.74.984-.651,1.356-.07a2.56,2.56,0,0,1,.332,1.2,3.318,3.318,0,0,1-.679,2.408c-.5.545.313,1.358.81.81a4.209,4.209,0,0,0,.986-2.193c-.1-.084-.187-.171-.274-.258.087.087.179.174.274.258a4.78,4.78,0,0,0-.015-1.546.509.509,0,0,0,.026-.4,8.994,8.994,0,0,0-5.989-5.886.574.574,0,0,0-.3,1.105,7.808,7.808,0,0,1,4.1,2.924,1.71,1.71,0,0,0-.746.179c.007-.065.01-.129.017-.194.079-.7-.965-.723-1.127-.088a4.806,4.806,0,0,0,1.474.406,4.806,4.806,0,0,1-1.474-.406.61.61,0,0,0-.019.088,15.51,15.51,0,0,0,1.85,9.315c.846,1.5,2.078,2.685,3.035,4.106a5.962,5.962,0,0,1,.852,1.9,5.969,5.969,0,0,1,1.144-.291,10.6,10.6,0,0,0-2.5-4.088" transform="translate(-152.612 -60.387)" fill="#323232"/>
          </g>
        </g>
      </g>
      <path id="パス_237" data-name="パス 237" d="M156.611,60.207a12.109,12.109,0,0,0-2.4-6.125c-1.558-2.1-4.153-2.556-6.653-2.372a.493.493,0,0,0,.106-.366l-.472-6.077a.567.567,0,0,0-.31-.475A4.409,4.409,0,0,0,149.06,41.9a4.669,4.669,0,0,0,1.65.132c.205-.015.419-.035.636-.061a3.864,3.864,0,0,1-1.072,1.4c-.575.462.24,1.269.81.81a3.638,3.638,0,0,0,1.512-2.466A3.085,3.085,0,0,0,154.28,40.6a3.428,3.428,0,0,0,.188-3.543c-1.141-1.737-3.609-1.5-5.059-.279a16.027,16.027,0,0,0-2.292-6.337,7.968,7.968,0,0,0-5.6-3.1,9.986,9.986,0,0,0-10.347,5.492.575.575,0,0,0,.1.659,8.58,8.58,0,0,1,.58-.87,8.58,8.58,0,0,0-.58.87.611.611,0,0,0,.548.2.547.547,0,0,0,.08.338,6.569,6.569,0,0,0,5.126,3.228.475.475,0,0,0,.413-.142,2.2,2.2,0,0,0-.621-.1,2.2,2.2,0,0,1,.621.1.621.621,0,0,0-.413-1,5.37,5.37,0,0,1-4.137-2.66.526.526,0,0,0-.622-.251,8.87,8.87,0,0,1,9.221-4.719,6.744,6.744,0,0,1,4.961,3.006,18.915,18.915,0,0,1,2,6.319.575.575,0,0,0,.06.161c-.139.6.735,1.056,1.038.44a2.566,2.566,0,0,1,3.44-1.183,1.492,1.492,0,0,1,.708,1.575,1.847,1.847,0,0,1-1.254,1.732,2.43,2.43,0,0,0-2.092-1.377,3.105,3.105,0,0,0-1.708.275.567.567,0,0,0-.908.085,5.737,5.737,0,0,1-1.819,2.085,2.7,2.7,0,0,1-2.864-.22.539.539,0,0,0-.741.177,1.6,1.6,0,0,0,1.19.23,1.6,1.6,0,0,1-1.19-.23.542.542,0,0,0,.162.812,6.091,6.091,0,0,0,.951.446,1.523,1.523,0,0,1,.077-.647,1.523,1.523,0,0,0-.077.647,3.483,3.483,0,0,0,2.657-.016,5.07,5.07,0,0,0,1.991-1.716c.013.032.03.061.046.092a.6.6,0,0,0-.141.328c-.179,1.559-1.638,2.5-3.091,2.9.048.021.1.042.144.061.191.191-.382.573-.191.955-.191-.382.382-.764.191-.955-.048-.019-.1-.04-.144-.061a6.343,6.343,0,0,1-1,.188c-.726.077-.734,1.224,0,1.146a7.819,7.819,0,0,0,2.151-.539.582.582,0,0,0,0,.059q.236,3.039.472,6.077a.564.564,0,0,0,.26.444c-.475.059-.942.138-1.392.23a.491.491,0,0,0-.345.235,7.916,7.916,0,0,1,1.523.052,7.916,7.916,0,0,0-1.523-.052.607.607,0,0,0,.649.87,11.093,11.093,0,0,1,5.059-.028,4.441,4.441,0,0,1,2.831,2.078,11.165,11.165,0,0,1,1.946,5.917A39.529,39.529,0,0,1,153.507,73.5c-.283.97-.579,1.939-.92,2.89a.55.55,0,0,0-.033.215h1.17a56.805,56.805,0,0,0,2.4-9.175,27.334,27.334,0,0,0,.487-7.22M149.5,40.316a2.324,2.324,0,0,1,.977.023,1.343,1.343,0,0,1,.858.491,7.947,7.947,0,0,1-1.23.089c-.349,0-1.372-.326-.6-.6" transform="translate(-107.439 -22.335)" fill="#323232"/>
    </g>
  </g>
</svg>
