<svg xmlns="http://www.w3.org/2000/svg" xmlns:xlink="http://www.w3.org/1999/xlink" width="24" height="24" viewBox="0 0 24 24">
  <defs>
    <clipPath id="clip-path">
      <rect id="Rectangle_161" data-name="Rectangle 161" width="24" height="24" fill="none"/>
    </clipPath>
  </defs>
  <g id="title_icon" clip-path="url(#clip-path)">
    <path id="Path_88" data-name="Path 88" d="M10.591,1.138a6.995,6.995,0,0,0-4,11.3,10.853,10.853,0,0,1,2.367,5.682A.987.987,0,0,0,9.944,19h4.115a.984.984,0,0,0,.989-.868,11.254,11.254,0,0,1,2.461-5.822A7,7,0,0,0,10.591,1.138" fill="#538eb4"/>
    <path id="Path_89" data-name="Path 89" d="M14.5,20h-5a.5.5,0,0,0,0,1h5a.5.5,0,0,0,0-1" fill="#538eb4"/>
    <path id="Path_90" data-name="Path 90" d="M13.592,22H10.409a.409.409,0,0,0-.409.408v.184a.409.409,0,0,0,.409.408h3.183A.408.408,0,0,0,14,22.592v-.184A.408.408,0,0,0,13.592,22" fill="#538eb4"/>
  </g>
</svg>
