<svg id="worries_icon5" xmlns="http://www.w3.org/2000/svg" xmlns:xlink="http://www.w3.org/1999/xlink" width="144" height="144" viewBox="0 0 144 144">
  <defs>
    <clipPath id="clip-path">
      <rect id="Rectangle_444" data-name="Rectangle 444" width="144" height="144" fill="none"/>
    </clipPath>
    <clipPath id="clip-path-2">
      <rect id="Rectangle_442" data-name="Rectangle 442" width="59.021" height="78.785" transform="translate(45.713 33.542)" fill="none"/>
    </clipPath>
    <clipPath id="clip-path-3">
      <rect id="Rectangle_443" data-name="Rectangle 443" width="58.054" height="77.82" transform="translate(46.198 34.024)" fill="none"/>
    </clipPath>
  </defs>
  <g id="Group_23" data-name="Group 23" transform="translate(-570.057 -1098.057)">
    <g id="Group_5" data-name="Group 5" transform="translate(570.057 1098.057)">
      <circle id="Ellipse_1" data-name="Ellipse 1" cx="72" cy="72" r="72" transform="translate(0)" fill="#feda2c"/>
    </g>
  </g>
  <g id="Group_837" data-name="Group 837" clip-path="url(#clip-path)">
    <path id="Path_565" data-name="Path 565" d="M27.97,60.417A47.29,47.29,0,0,1,45.065,34.726" fill="none" stroke="#000" stroke-linecap="round" stroke-miterlimit="10" stroke-width="3"/>
    <path id="Path_566" data-name="Path 566" d="M41.526,27.379A55.189,55.189,0,0,0,19.865,59.81" fill="none" stroke="#000" stroke-linecap="round" stroke-miterlimit="10" stroke-width="3"/>
    <path id="Path_567" data-name="Path 567" d="M116.693,79.758a47.29,47.29,0,0,1-17.1,25.691" fill="none" stroke="#000" stroke-linecap="round" stroke-miterlimit="10" stroke-width="3"/>
    <path id="Path_568" data-name="Path 568" d="M103.136,112.8A55.189,55.189,0,0,0,124.8,80.366" fill="none" stroke="#000" stroke-linecap="round" stroke-miterlimit="10" stroke-width="3"/>
    <g id="Group_833" data-name="Group 833" style="isolation: isolate">
      <g id="Group_832" data-name="Group 832">
        <g id="Group_831" data-name="Group 831" clip-path="url(#clip-path-2)">
          <path id="Path_569" data-name="Path 569" d="M49.074,102.583a3.41,3.41,0,0,1-1.817-4.461l1.577-3.743a1.889,1.889,0,0,0,.14-.889l-3.227-38.6A3.987,3.987,0,0,1,48.9,50.274a3.307,3.307,0,0,1,1.715.242,3.83,3.83,0,0,1,.972.6,4.358,4.358,0,0,1,1.484,2.8L55.2,70.57a1.445,1.445,0,0,0,.871,1.145,1.417,1.417,0,0,0,.74.1l1.608-.205L73.04,36.9a3.708,3.708,0,1,1,6.791,2.86L70.194,62.643a1.375,1.375,0,1,0,2.535,1.067l11.6-27.541a3.708,3.708,0,1,1,6.79,2.859l-11.6,27.536a1.382,1.382,0,0,0,2.548,1.073L91.7,44.76a3.708,3.708,0,1,1,6.79,2.86l-11.625,27.6A1.375,1.375,0,0,0,89.4,76.29L97.6,56.838a3.708,3.708,0,1,1,6.791,2.86L92.4,88.146a9.258,9.258,0,0,1-1.125,1.959l-15.657,20.86a3.4,3.4,0,0,1-4.047,1.1Z" fill="#fff"/>
        </g>
      </g>
    </g>
    <g id="Group_836" data-name="Group 836" style="isolation: isolate">
      <g id="Group_835" data-name="Group 835">
        <g id="Group_834" data-name="Group 834" clip-path="url(#clip-path-3)">
          <path id="Path_570" data-name="Path 570" d="M102.406,54.908a3.492,3.492,0,0,0-4.365,2.118L89.849,76.477a1.858,1.858,0,1,1-3.425-1.442l11.624-27.6a3.228,3.228,0,1,0-5.9-2.485L82.515,67.824a1.865,1.865,0,1,1-3.438-1.448l11.6-27.535a3.228,3.228,0,1,0-5.9-2.485L73.175,63.9a1.858,1.858,0,1,1-3.425-1.443l9.636-22.882a3.228,3.228,0,1,0-5.9-2.485L58.761,72.053l-1.883.241a1.923,1.923,0,0,1-2.153-1.663L52.594,53.977a3.877,3.877,0,0,0-1.317-2.491,3.294,3.294,0,0,0-.848-.525,2.818,2.818,0,0,0-1.467-.208,3.535,3.535,0,0,0-2.733,4.092l3.228,38.6a2.392,2.392,0,0,1-.177,1.116L47.7,98.309a2.925,2.925,0,0,0,1.559,3.828l22.5,9.477a2.921,2.921,0,0,0,3.473-.939l15.657-20.86a8.782,8.782,0,0,0,1.067-1.857l11.98-28.447a3.493,3.493,0,0,0-1.535-4.6" fill="#fff"/>
        </g>
      </g>
    </g>
    <path id="Path_571" data-name="Path 571" d="M43.535,103.732a1.957,1.957,0,0,1-1.043-2.561l2.941-6.983a3.349,3.349,0,0,0,.249-1.571L42.553,55.194a7.165,7.165,0,0,1,5.949-8.1,6.546,6.546,0,0,1,3.353.462,6.973,6.973,0,0,1,1.809,1.118,7.544,7.544,0,0,1,2.593,4.843L57.727,65l12.357-29.34a7.135,7.135,0,0,1,9.2-4.088,6.479,6.479,0,0,1,2.336,1.671l.389.437.355-.465a6.791,6.791,0,0,1,12.24,5.161l-.084.581.586-.028a6.45,6.45,0,0,1,2.84.5,7.134,7.134,0,0,1,3.505,9.439l-.9,2.134.731,0a6.454,6.454,0,0,1,2.554.507,7.135,7.135,0,0,1,3.505,9.44L95.053,90.13a7.846,7.846,0,0,1-.824,1.481L76.863,116.105a1.969,1.969,0,0,1-2.355.672Zm6.894-52.771a2.843,2.843,0,0,0-1.466-.209,3.513,3.513,0,0,0-2.739,4.026l3.234,38.671a2.4,2.4,0,0,1-.177,1.117L47.7,98.31a2.926,2.926,0,0,0,1.558,3.828l22.5,9.476a2.917,2.917,0,0,0,3.472-.939L90.9,89.813a8.742,8.742,0,0,0,1.065-1.856l11.98-28.447a3.228,3.228,0,1,0-5.9-2.484L89.85,76.478a1.858,1.858,0,1,1-3.425-1.443l11.624-27.6a3.228,3.228,0,1,0-5.9-2.485L82.515,67.824a1.865,1.865,0,1,1-3.438-1.448l11.6-27.535a3.228,3.228,0,1,0-5.9-2.484L73.175,63.9a1.859,1.859,0,0,1-3.426-1.443l9.637-22.882a3.228,3.228,0,1,0-5.9-2.485L58.762,72.052l-1.885.242a1.922,1.922,0,0,1-2.152-1.664L52.594,53.976a3.872,3.872,0,0,0-1.317-2.49,3.315,3.315,0,0,0-.848-.525"/>
  </g>
</svg>
