<svg id="detail_icon4" xmlns="http://www.w3.org/2000/svg" xmlns:xlink="http://www.w3.org/1999/xlink" width="160" height="100" viewBox="0 0 160 100">
  <defs>
    <clipPath id="clip-path">
      <rect id="Rectangle_152" data-name="Rectangle 152" width="160" height="100" fill="none"/>
    </clipPath>
  </defs>
  <path id="Path_45" data-name="Path 45" d="M40.208,39.406H35.585l-.879,2.636H31.9l4.764-12.8H39.11l4.79,12.8H41.1ZM36.3,37.27h3.2l-1.608-4.79Z" fill="#ffda2a"/>
  <g id="Group_114" data-name="Group 114">
    <g id="Group_113" data-name="Group 113" clip-path="url(#clip-path)">
      <path id="Path_46" data-name="Path 46" d="M47.254,42.042v-12.8h3.938a5.989,5.989,0,0,1,3.019.76,5.314,5.314,0,0,1,2.078,2.162,6.676,6.676,0,0,1,.748,3.187v.589a6.686,6.686,0,0,1-.734,3.172,5.267,5.267,0,0,1-2.07,2.154,6.037,6.037,0,0,1-3.015.773Zm2.637-10.661v8.543h1.274a2.864,2.864,0,0,0,2.365-1.011,4.567,4.567,0,0,0,.835-2.891v-.677a4.638,4.638,0,0,0-.809-2.957,2.853,2.853,0,0,0-2.364-1.007Z" fill="#ffda2a"/>
      <path id="Path_47" data-name="Path 47" d="M132.762,75h-5a1,1,0,0,1-1-1V55a1,1,0,0,1,1-1h5a1,1,0,0,1,1,1V74a1,1,0,0,1-1,1" fill="#ffda2a"/>
      <path id="Path_48" data-name="Path 48" d="M123.762,75h-5a1,1,0,0,1-1-1V64a1,1,0,0,1,1-1h5a1,1,0,0,1,1,1V74a1,1,0,0,1-1,1" fill="#ffda2a"/>
      <path id="Path_49" data-name="Path 49" d="M141.762,75h-5a1,1,0,0,1-1-1V69a1,1,0,0,1,1-1h5a1,1,0,0,1,1,1v5a1,1,0,0,1-1,1" fill="#ffda2a"/>
      <path id="Path_50" data-name="Path 50" d="M110.6,37.027a1,1,0,0,1-1.153-1.422l5.429-10.572a1.007,1.007,0,0,0-.6-1.42,13.5,13.5,0,1,0-3.457,26.376,13.7,13.7,0,0,0,12.308-9.538,12.691,12.691,0,0,0,.5-5.807,1,1,0,0,0-1.259-.827Z" fill="#ffda2a"/>
      <path id="Path_51" data-name="Path 51" d="M111.762,78h-9V52.3a17.181,17.181,0,0,1-8-7.71V71h-70V22a2,2,0,0,1,2-2h66a2,2,0,0,1,2,2v6.38a17.635,17.635,0,0,1,8-7.683V19a6,6,0,0,0-6-6h-74a6,6,0,0,0-6,6V78h-9a2,2,0,0,0-2,2v1a6,6,0,0,0,6,6h96a6,6,0,0,0,6-6V80a2,2,0,0,0-2-2m-45,1a2,2,0,0,1-2,2h-10a2,2,0,0,1-2-2V78h14Z" fill="#ffda2a"/>
      <path id="Path_52" data-name="Path 52" d="M114.451,33.9l9.816-2.677a1.011,1.011,0,0,0,.673-1.33,13.52,13.52,0,0,0-5.553-6.851,1.011,1.011,0,0,0-1.44.384L113.3,32.481a1,1,0,0,0,1.153,1.422" fill="#ffda2a"/>
      <rect id="Rectangle_148" data-name="Rectangle 148" width="20" height="5" transform="translate(65.762 29)" fill="#ffda2a"/>
      <rect id="Rectangle_149" data-name="Rectangle 149" width="20" height="5" transform="translate(65.762 37)" fill="#ffda2a"/>
      <rect id="Rectangle_150" data-name="Rectangle 150" width="53" height="5" transform="translate(32.762 51)" fill="#ffda2a"/>
      <rect id="Rectangle_151" data-name="Rectangle 151" width="53" height="5" transform="translate(32.762 59)" fill="#ffda2a"/>
      <path id="Path_53" data-name="Path 53" d="M152.181,31.338a3.655,3.655,0,0,0-4.325.854l-6.868-3.357a3.668,3.668,0,1,0-.879,1.8l6.868,3.357a3.65,3.65,0,0,0,1.153,3.358l-3.356,6.868a3.668,3.668,0,1,0,1.8.879l3.356-6.868a3.657,3.657,0,0,0,2.254-6.888" fill="#ffda2a"/>
    </g>
  </g>
</svg>
