<svg id="detail_icon9" xmlns="http://www.w3.org/2000/svg" xmlns:xlink="http://www.w3.org/1999/xlink" width="160" height="100" viewBox="0 0 160 100">
  <defs>
    <clipPath id="clip-path">
      <rect id="Rectangle_159" data-name="Rectangle 159" width="160" height="100" fill="none"/>
    </clipPath>
  </defs>
  <g id="Group_129" data-name="Group 129" clip-path="url(#clip-path)">
    <path id="Path_80" data-name="Path 80" d="M51.291,25.527,70.053,20.41a1.934,1.934,0,0,0,1.286-2.542,25.835,25.835,0,0,0-10.614-13.1,1.933,1.933,0,0,0-2.752.734l-8.885,17.3a1.911,1.911,0,0,0,2.2,2.717" fill="#ffda2a"/>
    <path id="Path_81" data-name="Path 81" d="M94.464,95.9H84.907A1.912,1.912,0,0,1,83,93.992V57.676a1.911,1.911,0,0,1,1.911-1.911h9.557a1.91,1.91,0,0,1,1.911,1.911V93.992A1.911,1.911,0,0,1,94.464,95.9" fill="#ffda2a"/>
    <path id="Path_82" data-name="Path 82" d="M77.262,95.9H67.705a1.912,1.912,0,0,1-1.911-1.911V74.878a1.912,1.912,0,0,1,1.911-1.911h9.557a1.911,1.911,0,0,1,1.911,1.911V93.992A1.911,1.911,0,0,1,77.262,95.9" fill="#ffda2a"/>
    <path id="Path_83" data-name="Path 83" d="M111.666,95.9h-9.557a1.912,1.912,0,0,1-1.911-1.911V84.435a1.911,1.911,0,0,1,1.911-1.911h9.557a1.91,1.91,0,0,1,1.911,1.911v9.557a1.911,1.911,0,0,1-1.911,1.911" fill="#ffda2a"/>
    <path id="Path_84" data-name="Path 84" d="M43.928,31.5a1.911,1.911,0,0,1-2.2-2.717L52.1,8.572a1.927,1.927,0,0,0-1.144-2.715A25.8,25.8,0,1,0,44.35,56.272,26.2,26.2,0,0,0,67.875,38.041a24.246,24.246,0,0,0,.957-11.1,1.922,1.922,0,0,0-2.406-1.579Z" fill="#ffda2a"/>
    <path id="Path_85" data-name="Path 85" d="M138.587,17.12a6.987,6.987,0,0,0-8.267,1.632l-13.128-6.416a7.008,7.008,0,1,0-1.679,3.435l13.128,6.416a6.976,6.976,0,0,0,2.2,6.419l-6.416,13.127a7.01,7.01,0,1,0,3.434,1.679l6.417-13.127a6.99,6.99,0,0,0,4.307-13.165" fill="#ffda2a"/>
  </g>
</svg>
