<svg xmlns="http://www.w3.org/2000/svg" xmlns:xlink="http://www.w3.org/1999/xlink" width="145" height="144" viewBox="0 0 145 144">
  <defs>
    <clipPath id="clip-path">
      <rect id="Rectangle_438" data-name="Rectangle 438" width="144" height="144" fill="none"/>
    </clipPath>
  </defs>
  <g id="worries_icon3" transform="translate(1)">
    <g id="Group_20" data-name="Group 20" transform="translate(-571.057 -1098.057)">
      <g id="Group_5" data-name="Group 5" transform="translate(570.057 1098.057)">
        <circle id="Ellipse_1" data-name="Ellipse 1" cx="72" cy="72" r="72" transform="translate(0)" fill="#feda2c"/>
      </g>
    </g>
    <g id="Group_827" data-name="Group 827" clip-path="url(#clip-path)">
      <path id="Path_561" data-name="Path 561" d="M108,95.25H36a6,6,0,0,1-6-6v-53a6,6,0,0,1,6-6h72a6,6,0,0,1,6,6v53a6,6,0,0,1-6,6" fill="#fff"/>
      <rect id="Rectangle_430" data-name="Rectangle 430" width="84" height="65" rx="6" transform="translate(30 30.25)" fill="none" stroke="#000" stroke-linecap="round" stroke-miterlimit="10" stroke-width="3"/>
      <line id="Line_10" data-name="Line 10" x2="84" transform="translate(30 81.712)" fill="#fff"/>
      <line id="Line_11" data-name="Line 11" x2="84" transform="translate(30 81.712)" fill="none" stroke="#000" stroke-linecap="round" stroke-miterlimit="10" stroke-width="3"/>
      <rect id="Rectangle_431" data-name="Rectangle 431" width="21" height="18" transform="translate(61.5 95.75)" fill="#fff"/>
      <rect id="Rectangle_432" data-name="Rectangle 432" width="21" height="18" transform="translate(61.5 95.75)" fill="none" stroke="#000" stroke-linecap="round" stroke-miterlimit="10" stroke-width="3"/>
      <line id="Line_12" data-name="Line 12" x2="35.955" transform="translate(54.022 113.75)" fill="#fff"/>
      <line id="Line_13" data-name="Line 13" x2="35.955" transform="translate(54.022 113.75)" fill="none" stroke="#000" stroke-linecap="round" stroke-miterlimit="10" stroke-width="3"/>
      <rect id="Rectangle_433" data-name="Rectangle 433" width="62" height="11" transform="translate(41 41.5)" fill="#538eb4"/>
      <rect id="Rectangle_434" data-name="Rectangle 434" width="18" height="18" transform="translate(41 57)" fill="#538eb4"/>
      <rect id="Rectangle_435" data-name="Rectangle 435" width="41" height="4" transform="translate(62 57)" fill="#e5e5e5"/>
      <rect id="Rectangle_436" data-name="Rectangle 436" width="41" height="4" transform="translate(62 64)" fill="#e5e5e5"/>
      <rect id="Rectangle_437" data-name="Rectangle 437" width="41" height="4" transform="translate(62 71)" fill="#e5e5e5"/>
    </g>
  </g>
</svg>
