<svg id="worries_icon2" xmlns="http://www.w3.org/2000/svg" xmlns:xlink="http://www.w3.org/1999/xlink" width="144" height="144" viewBox="0 0 144 144">
  <defs>
    <clipPath id="clip-path">
      <rect id="Rectangle_429" data-name="Rectangle 429" width="144" height="144" fill="none"/>
    </clipPath>
  </defs>
  <g id="Group_22" data-name="Group 22" transform="translate(-570.057 -1098.057)">
    <g id="Group_5" data-name="Group 5" transform="translate(570.057 1098.057)">
      <circle id="Ellipse_1" data-name="Ellipse 1" cx="72" cy="72" r="72" transform="translate(0)" fill="#feda2c"/>
    </g>
  </g>
  <g id="Group_825" data-name="Group 825" clip-path="url(#clip-path)">
    <path id="Path_555" data-name="Path 555" d="M107,91.861H37v-49a2,2,0,0,1,2-2h66a2,2,0,0,1,2,2Z" fill="#fff"/>
    <path id="Path_556" data-name="Path 556" d="M124,98.861h-9v-59a6,6,0,0,0-6-6H35a6,6,0,0,0-6,6v59H20a2,2,0,0,0-2,2v1a6,6,0,0,0,6,6h96a6,6,0,0,0,6-6v-1a2,2,0,0,0-2-2m-17-7H37v-49a2,2,0,0,1,2-2h66a2,2,0,0,1,2,2Z" fill="#fff"/>
    <path id="Path_557" data-name="Path 557" d="M124,98.861h-9v-59a6,6,0,0,0-6-6H35a6,6,0,0,0-6,6v59H20a2,2,0,0,0-2,2v1a6,6,0,0,0,6,6h96a6,6,0,0,0,6-6v-1A2,2,0,0,0,124,98.861Zm-17-7H37v-49a2,2,0,0,1,2-2h66a2,2,0,0,1,2,2Z" fill="none" stroke="#000" stroke-linecap="round" stroke-miterlimit="10" stroke-width="3"/>
    <path id="Path_558" data-name="Path 558" d="M79,99.861a2,2,0,0,1-2,2H67a2,2,0,0,1-2-2v-1H79Z"/>
    <path id="Path_559" data-name="Path 559" d="M99.413,60.143h.255a.42.42,0,0,0,.25-.054.176.176,0,0,0,.065-.143.166.166,0,0,0-.032-.1.188.188,0,0,0-.089-.068.627.627,0,0,0-.21-.022h-.239Zm-.21.733v-1.3h.447a1.1,1.1,0,0,1,.332.036.318.318,0,0,1,.163.126.327.327,0,0,1,.061.189.347.347,0,0,1-.1.249.4.4,0,0,1-.27.118.335.335,0,0,1,.11.069,1.493,1.493,0,0,1,.192.258l.158.255h-.258l-.115-.2a1.079,1.079,0,0,0-.217-.3.262.262,0,0,0-.167-.046h-.124v.553Zm.529-1.679a1.033,1.033,0,0,0-.5.13.941.941,0,0,0-.378.375,1.012,1.012,0,0,0,0,1.008.95.95,0,0,0,.376.373,1,1,0,0,0,1,0,.932.932,0,0,0,.374-.373,1.008,1.008,0,0,0,0-1.008.935.935,0,0,0-.378-.375,1.033,1.033,0,0,0-.5-.13m0-.2a1.242,1.242,0,0,1,.6.156,1.114,1.114,0,0,1,.452.448,1.217,1.217,0,0,1,0,1.208,1.132,1.132,0,0,1-.448.449,1.219,1.219,0,0,1-1.2,0,1.141,1.141,0,0,1-.449-.449,1.21,1.21,0,0,1,0-1.208,1.114,1.114,0,0,1,.453-.447,1.235,1.235,0,0,1,.6-.157" fill="gray"/>
    <path id="Path_560" data-name="Path 560" d="M49.65,57.5a5.78,5.78,0,0,0-1.8.352,8.135,8.135,0,0,0-4.516,5.437,9.854,9.854,0,0,0-.268,1.4c0,.016-.037.484.03.358a1.792,1.792,0,0,0,.134-.4,12.173,12.173,0,0,1,1.4-3.2c1.532-2.254,3.994-3.7,6.6-2.9a5.889,5.889,0,0,1,1.346.685c.082.059.684.535.551.1a2.25,2.25,0,0,0-.64-.863A4.074,4.074,0,0,0,49.65,57.5Zm19,2.255a.946.946,0,0,0-.8.365,1.662,1.662,0,0,0-.283,1.064v3.392a4.655,4.655,0,0,0-1.331-1.049,3.3,3.3,0,0,0-.99-.3,5.032,5.032,0,0,0-.683-.044,3.5,3.5,0,0,0-2.768,1.2,4.944,4.944,0,0,0-1.049,3.356A6.665,6.665,0,0,0,61,69.636a4.59,4.59,0,0,0,.781,1.517,3.647,3.647,0,0,0,1.219,1,3.426,3.426,0,0,0,1.525.349,3.792,3.792,0,0,0,.714-.067,2.774,2.774,0,0,0,.432-.1,3.656,3.656,0,0,0,.974-.506,5.973,5.973,0,0,0,.915-.863v.223a1.436,1.436,0,0,0,.305.975,1.02,1.02,0,0,0,.781.342,1.031,1.031,0,0,0,.774-.327,1.433,1.433,0,0,0,.3-.99V61.067a1.493,1.493,0,0,0-.275-.975A1,1,0,0,0,68.65,59.757Zm28.073,0a.945.945,0,0,0-.8.365,1.712,1.712,0,0,0-.283,1.064v3.392a4.669,4.669,0,0,0-1.331-1.049,3.22,3.22,0,0,0-.99-.3,5.047,5.047,0,0,0-.684-.044,3.511,3.511,0,0,0-2.767,1.2,4.944,4.944,0,0,0-1.049,3.356,6.389,6.389,0,0,0,.268,1.889,4.557,4.557,0,0,0,.773,1.517,3.65,3.65,0,0,0,1.22,1A3.426,3.426,0,0,0,92.6,72.5a3.684,3.684,0,0,0,.714-.067,2.708,2.708,0,0,0,.431-.1,3.661,3.661,0,0,0,.975-.506,5.71,5.71,0,0,0,.915-.863v.223a1.43,1.43,0,0,0,.305.975,1.079,1.079,0,0,0,1.562.015,1.434,1.434,0,0,0,.305-.99V61.067a1.5,1.5,0,0,0-.282-.975A1,1,0,0,0,96.723,59.757Zm-47.66.62a1.888,1.888,0,1,0,1.631,1.033,1.871,1.871,0,0,0-1.631-1.033m25.918,2.78a5.263,5.263,0,0,0-1.815.327,3.917,3.917,0,0,0-1.428.953,4.176,4.176,0,0,0-.886,1.5,5.747,5.747,0,0,0-.305,1.889,4.677,4.677,0,0,0,1.235,3.414,4.461,4.461,0,0,0,3.2,1.257,2.355,2.355,0,0,0,.238.008,5.248,5.248,0,0,0,1.711-.253,4.234,4.234,0,0,0,1.234-.633,2.906,2.906,0,0,0,.737-.8,1.474,1.474,0,0,0,.245-.721.7.7,0,0,0-.215-.544.87.87,0,0,0-.573-.193.779.779,0,0,0-.506.149q-.343.327-.7.64a6.461,6.461,0,0,1-.588.439,2.4,2.4,0,0,1-.662.3,2.623,2.623,0,0,1-.751.1,1.169,1.169,0,0,1-.171-.008,2.032,2.032,0,0,1-.952-.3,2.173,2.173,0,0,1-.811-.885A3.058,3.058,0,0,1,72.9,68.4h4.493a3.248,3.248,0,0,0,1.4-.253,1.162,1.162,0,0,0,.491-1.124,3.864,3.864,0,0,0-.476-1.837,3.791,3.791,0,0,0-1.443-1.466,4.459,4.459,0,0,0-2.306-.565Zm9.186,0a5.237,5.237,0,0,0-1.815.327,4.035,4.035,0,0,0-1.436.953,4.276,4.276,0,0,0-.877,1.5,5.747,5.747,0,0,0-.305,1.889,4.673,4.673,0,0,0,1.227,3.414,4.479,4.479,0,0,0,3.206,1.257,2.3,2.3,0,0,0,.238.008,5.273,5.273,0,0,0,1.711-.253,4.234,4.234,0,0,0,1.234-.633,3.019,3.019,0,0,0,.737-.8,1.477,1.477,0,0,0,.246-.721.682.682,0,0,0-.224-.544.838.838,0,0,0-.572-.193.771.771,0,0,0-.5.149c-.29.268-.52.484-.7.64a6.377,6.377,0,0,1-.595.439,2.35,2.35,0,0,1-.654.3,2.664,2.664,0,0,1-.752.1,1.176,1.176,0,0,1-.171-.008,2.036,2.036,0,0,1-.952-.3,2.2,2.2,0,0,1-.818-.885,3.149,3.149,0,0,1-.313-1.383h4.485a3.2,3.2,0,0,0,1.4-.253,1.152,1.152,0,0,0,.5-1.124,3.874,3.874,0,0,0-.483-1.837,3.744,3.744,0,0,0-1.443-1.466,4.439,4.439,0,0,0-2.306-.565Zm-31.241.015a.979.979,0,0,0-.781.327,1.4,1.4,0,0,0-.291.975V71.1a1.5,1.5,0,0,0,.32,1.034,1.035,1.035,0,0,0,.819.365,1.094,1.094,0,0,0,.833-.349,1.509,1.509,0,0,0,.327-1.05V68.238a7.234,7.234,0,0,1,.164-1.92,2.116,2.116,0,0,1,.744-1.011,1.889,1.889,0,0,1,1.116-.365,1.285,1.285,0,0,1,1.257.6,3.875,3.875,0,0,1,.312,1.741V71.1a1.5,1.5,0,0,0,.32,1.034,1.053,1.053,0,0,0,.833.365,1.04,1.04,0,0,0,.818-.358,1.516,1.516,0,0,0,.32-1.041V66.839A9.291,9.291,0,0,0,59.97,65.6a2.586,2.586,0,0,0-.3-.915,2.494,2.494,0,0,0-1.063-1.116,3.339,3.339,0,0,0-1.622-.394,3.6,3.6,0,0,0-1.659.372A4.135,4.135,0,0,0,54,64.719v-.282a1.527,1.527,0,0,0-.141-.692,1.025,1.025,0,0,0-.394-.432,1.038,1.038,0,0,0-.543-.141m22.047,1.584h.008a1.892,1.892,0,0,1,1.442.581,2.761,2.761,0,0,1,.64,1.763H72.9a3,3,0,0,1,.669-1.756A1.827,1.827,0,0,1,74.973,64.756Zm9.187,0h.007a1.9,1.9,0,0,1,1.443.581,2.771,2.771,0,0,1,.632,1.763H82.084a2.9,2.9,0,0,1,.67-1.756A1.826,1.826,0,0,1,84.16,64.756Zm-18.946.134h.029a1.853,1.853,0,0,1,1.087.35,2.351,2.351,0,0,1,.811,1,3.905,3.905,0,0,1,.3,1.577,3.988,3.988,0,0,1-.3,1.629,2.163,2.163,0,0,1-.8.959,2.015,2.015,0,0,1-1.094.313h-.007a1.989,1.989,0,0,1-1.1-.327,2.2,2.2,0,0,1-.8-.982,3.917,3.917,0,0,1-.291-1.592,4.1,4.1,0,0,1,.269-1.547,2.29,2.29,0,0,1,.773-1.027,1.824,1.824,0,0,1,1.123-.357m28.08,0h.022a1.89,1.89,0,0,1,1.094.35,2.38,2.38,0,0,1,.8,1,3.774,3.774,0,0,1,.3,1.577,3.859,3.859,0,0,1-.3,1.629,2.195,2.195,0,0,1-.8.959,2.03,2.03,0,0,1-1.1.313h-.007a1.989,1.989,0,0,1-1.1-.327,2.263,2.263,0,0,1-.8-.982,4.5,4.5,0,0,1-.015-3.139,2.287,2.287,0,0,1,.767-1.027A1.846,1.846,0,0,1,93.294,64.89Zm-42.957.075a3.959,3.959,0,0,1-2.038.558c-.156,0-.305-.008-.461-.023v5.475a1.638,1.638,0,0,0,.35,1.138,1.141,1.141,0,0,0,.892.387,1.171,1.171,0,0,0,.907-.379,1.649,1.649,0,0,0,.35-1.146Z" fill="#3666e9" fill-rule="evenodd"/>
  </g>
</svg>
