<svg xmlns="http://www.w3.org/2000/svg" xmlns:xlink="http://www.w3.org/1999/xlink" width="144" height="144" viewBox="0 0 144 144">
  <defs>
    <clipPath id="clip-path">
      <rect id="Rectangle_448" data-name="Rectangle 448" width="144" height="144" fill="none"/>
    </clipPath>
  </defs>
  <g id="worries_icon6" transform="translate(-570.057 -1098.057)">
    <g id="Group_5" data-name="Group 5" transform="translate(570.057 1098.057)">
      <circle id="Ellipse_1" data-name="Ellipse 1" cx="72" cy="72" r="72" transform="translate(0)" fill="#feda2c"/>
    </g>
    <g id="Group_840" data-name="Group 840" transform="translate(570.057 1098.057)">
      <g id="Group_839" data-name="Group 839" clip-path="url(#clip-path)">
        <rect id="Rectangle_445" data-name="Rectangle 445" width="13.164" height="33.491" rx="2.952" transform="translate(68.257 75.751)" fill="#538eb4"/>
        <path id="Path_572" data-name="Path 572" d="M78.469,77.251A1.452,1.452,0,0,1,79.921,78.7v27.588a1.452,1.452,0,0,1-1.452,1.452h-7.26a1.452,1.452,0,0,1-1.452-1.452V78.7a1.452,1.452,0,0,1,1.452-1.452Zm0-3h-7.26A4.457,4.457,0,0,0,66.757,78.7v27.588a4.457,4.457,0,0,0,4.452,4.452h7.26a4.457,4.457,0,0,0,4.452-4.452V78.7a4.457,4.457,0,0,0-4.452-4.452"/>
        <path id="Rectangle_446" data-name="Rectangle 446" d="M2.952,0h7.26a2.952,2.952,0,0,1,2.952,2.952V17.473a2.951,2.951,0,0,1-2.951,2.951H2.952A2.952,2.952,0,0,1,0,17.472V2.952A2.952,2.952,0,0,1,2.952,0Z" transform="translate(55.189 88.818)" fill="#538eb4"/>
        <path id="Path_573" data-name="Path 573" d="M65.4,90.319a1.452,1.452,0,0,1,1.452,1.452v14.52a1.452,1.452,0,0,1-1.452,1.452h-7.26a1.452,1.452,0,0,1-1.452-1.452V91.771a1.452,1.452,0,0,1,1.452-1.452Zm0-3h-7.26a4.457,4.457,0,0,0-4.452,4.452v14.52a4.457,4.457,0,0,0,4.452,4.452H65.4a4.457,4.457,0,0,0,4.452-4.452V91.771A4.457,4.457,0,0,0,65.4,87.319"/>
        <path id="Rectangle_447" data-name="Rectangle 447" d="M2.951,0h7.26a2.952,2.952,0,0,1,2.952,2.952v7.261a2.951,2.951,0,0,1-2.951,2.951H2.952A2.952,2.952,0,0,1,0,10.212V2.951A2.951,2.951,0,0,1,2.951,0Z" transform="translate(81.325 96.078)" fill="#538eb4"/>
        <path id="Path_574" data-name="Path 574" d="M91.537,97.578a1.453,1.453,0,0,1,1.452,1.453v7.26a1.453,1.453,0,0,1-1.452,1.452h-7.26a1.453,1.453,0,0,1-1.452-1.452v-7.26a1.453,1.453,0,0,1,1.452-1.453Zm0-3h-7.26a4.458,4.458,0,0,0-4.452,4.453v7.26a4.457,4.457,0,0,0,4.452,4.452h7.26a4.457,4.457,0,0,0,4.452-4.452v-7.26a4.458,4.458,0,0,0-4.452-4.453"/>
        <path id="Path_575" data-name="Path 575" d="M48.774,72.01A15.489,15.489,0,0,1,37.13,66.683a16.277,16.277,0,0,1-3.82-12.9A15.579,15.579,0,0,1,48.774,40.069a15.224,15.224,0,0,1,4.654.728,2.566,2.566,0,0,1,1.581,1.452,2.6,2.6,0,0,1-.072,2.171L49.695,54.887l11.333-3.168a2.5,2.5,0,0,1,.681-.094,2.569,2.569,0,0,1,2.525,2.218,15.483,15.483,0,0,1-.579,6.886A15.89,15.89,0,0,1,49.419,72c-.217.009-.431.013-.645.013" fill="#7ce886"/>
        <path id="Path_576" data-name="Path 576" d="M48.774,41.569a13.73,13.73,0,0,1,4.2.656,1.088,1.088,0,0,1,.625,1.523L47.921,55.08a1.072,1.072,0,0,0,.922,1.563,1.053,1.053,0,0,0,.283-.039l12.307-3.441a1.027,1.027,0,0,1,.277-.038,1.061,1.061,0,0,1,1.04.924,13.929,13.929,0,0,1-.524,6.224A14.4,14.4,0,0,1,49.357,70.5c-.2.008-.389.012-.583.012a14.5,14.5,0,0,1-2.208-28.766,14.14,14.14,0,0,1,2.208-.175m0-3h0A17.075,17.075,0,0,0,31.824,53.58,17.775,17.775,0,0,0,36,67.669,16.987,16.987,0,0,0,48.774,73.51c.235,0,.469-.005.706-.015a17.392,17.392,0,0,0,15.6-12.312,16.968,16.968,0,0,0,.636-7.548,4.076,4.076,0,0,0-4.011-3.51,4.028,4.028,0,0,0-1.085.149l-8.072,2.257,3.727-7.44a4.089,4.089,0,0,0-2.393-5.723,16.746,16.746,0,0,0-5.113-.8"/>
        <path id="Path_577" data-name="Path 577" d="M97.99,73.157A5.642,5.642,0,0,1,96.931,61.97l1.944-6.344a5.587,5.587,0,0,1-1.559-2.936l-6.345-1.943a5.654,5.654,0,1,1,1.539-5.034l6.348,1.944a5.64,5.64,0,1,1,5.049,9.512l-1.944,6.346a5.636,5.636,0,0,1-3.973,9.642" fill="#c32d2d"/>
        <path id="Path_578" data-name="Path 578" d="M86.977,42.62a4.134,4.134,0,0,1,4.133,4.233l8.273,2.534a4.159,4.159,0,0,1,3.478-1.9,4.106,4.106,0,0,1,1.205.181,4.14,4.14,0,0,1-1.215,8.1h-.082l-2.534,8.273a4.151,4.151,0,1,1-2.247-.664h.082L100.6,55.1a4.134,4.134,0,0,1-1.885-3.55l-8.273-2.534a4.161,4.161,0,0,1-3.478,1.9,4.107,4.107,0,0,1-1.205-.182,4.151,4.151,0,0,1,1.214-8.119m0-3h0a7.151,7.151,0,1,0,4.357,12.807l4.742,1.453a7.061,7.061,0,0,0,1.119,2.107l-1.452,4.741a7.144,7.144,0,0,0,.151,13.615,7.135,7.135,0,0,0,7.747-11.184l1.455-4.747a7.086,7.086,0,0,0,4.591-4.684A7.139,7.139,0,0,0,98.5,45.978l-4.749-1.455a7.124,7.124,0,0,0-6.769-4.9"/>
        <path id="Path_579" data-name="Path 579" d="M53.937,53.565a2.306,2.306,0,0,1-1.972-1.11,2.348,2.348,0,0,1-.1-2.3l3.851-7.69a2.315,2.315,0,0,1,2.08-1.288,2.345,2.345,0,0,1,1.261.369,12.977,12.977,0,0,1,5.209,6.583,2.4,2.4,0,0,1-.13,1.9A2.337,2.337,0,0,1,62.7,51.205l-8.133,2.273a2.326,2.326,0,0,1-.628.087" fill="#7ce886"/>
        <path id="Path_580" data-name="Path 580" d="M57.8,42.677a.837.837,0,0,1,.453.134,11.433,11.433,0,0,1,4.6,5.819.864.864,0,0,1-.558,1.13l-8.134,2.274a.8.8,0,0,1-.224.032.851.851,0,0,1-.731-1.239l3.852-7.69a.825.825,0,0,1,.74-.46m0-3a3.809,3.809,0,0,0-3.422,2.116l-3.852,7.69a3.839,3.839,0,0,0,.165,3.76,3.8,3.8,0,0,0,4.28,1.68L63.1,52.649a3.84,3.84,0,0,0,2.365-1.924,3.914,3.914,0,0,0,.213-3.1,14.491,14.491,0,0,0-5.814-7.346,3.834,3.834,0,0,0-2.069-.606"/>
      </g>
    </g>
  </g>
</svg>
