<svg id="Group_119" data-name="Group 119" xmlns="http://www.w3.org/2000/svg" xmlns:xlink="http://www.w3.org/1999/xlink" width="160" height="100" viewBox="0 0 160 100">
  <defs>
    <clipPath id="clip-path">
      <rect id="Rectangle_154" data-name="Rectangle 154" width="160" height="100" fill="none"/>
    </clipPath>
  </defs>
  <g id="Group_118" data-name="Group 118" clip-path="url(#clip-path)">
    <path id="Path_58" data-name="Path 58" d="M69.848,20.051a10.419,10.419,0,1,0,10.42,10.42,10.42,10.42,0,0,0-10.42-10.42" fill="#ffda2a"/>
    <path id="Path_59" data-name="Path 59" d="M69.848,10.152a29.5,29.5,0,1,1-29.5,29.5,29.534,29.534,0,0,1,29.5-29.5m0-6a35.5,35.5,0,1,0,35.5,35.5,35.5,35.5,0,0,0-35.5-35.5" fill="#ffda2a"/>
    <line id="Line_1" data-name="Line 1" x2="8.279" y2="8.279" transform="translate(94.152 64.348)" fill="none" stroke="#ffda2a" stroke-miterlimit="10" stroke-width="6"/>
    <line id="Line_2" data-name="Line 2" x2="17.5" y2="17.5" transform="translate(102.152 72.348)" fill="none" stroke="#ffda2a" stroke-linecap="round" stroke-miterlimit="10" stroke-width="12"/>
    <path id="Path_60" data-name="Path 60" d="M46.338,66.241a35.467,35.467,0,0,0,47.978-.881,24.824,24.824,0,0,0-47.978.881" fill="#ffda2a"/>
  </g>
</svg>
