<svg xmlns="http://www.w3.org/2000/svg" xmlns:xlink="http://www.w3.org/1999/xlink" width="160" height="100" viewBox="0 0 160 100">
  <defs>
    <clipPath id="clip-path">
      <rect id="Rectangle_147" data-name="Rectangle 147" width="160" height="100" fill="none"/>
    </clipPath>
  </defs>
  <g id="Group_111" data-name="Group 111" clip-path="url(#clip-path)">
    <path id="Path_42" data-name="Path 42" d="M20.564,42.394H11.2a3.2,3.2,0,0,0-3.2,3.2V79.076a3.2,3.2,0,0,0,3.2,3.2h9.359a3.2,3.2,0,0,0,3.2-3.2V45.593a3.2,3.2,0,0,0-3.2-3.2m-4,34.8a2.962,2.962,0,1,1,2.963-2.963,2.964,2.964,0,0,1-2.963,2.963" fill="#ffda2a"/>
    <path id="Path_43" data-name="Path 43" d="M75.38,54.063a6.707,6.707,0,0,0-2.63-5.325,6.782,6.782,0,0,0,1.006-1.81,7.91,7.91,0,0,0,.481-2.586,6.467,6.467,0,0,0-2.231-4.982,7.7,7.7,0,0,0-5.083-1.787H56.68a18.191,18.191,0,0,0,1.128-6.241c0-.546-.024-1.108-.08-1.679a14.476,14.476,0,0,0-.841-3.508,16.5,16.5,0,0,0-3.138-5.334,10.256,10.256,0,0,0-2.475-2.035,7.539,7.539,0,0,0-3.162-1.006q-.525-.044-1.01-.043a6.285,6.285,0,0,0-2.375.4,3.915,3.915,0,0,0-1.472,1.022,4.818,4.818,0,0,0-1.073,2.311,13.708,13.708,0,0,0-.21,2.689v.019s.01.876.02,2.031.021,2.593.021,3.708a9.62,9.62,0,0,1-.235,2.3,6.066,6.066,0,0,1-1.426,2.641A21.685,21.685,0,0,1,36.64,38c-6.392,4.587-7.7,7.073-7.879,7.451a1.7,1.7,0,0,0-.158.718V72.92A7.776,7.776,0,0,0,36.377,80.7H62.29a12.84,12.84,0,0,0,5.976-1.479,7.616,7.616,0,0,0,2.578-2.249,6.145,6.145,0,0,0,1.114-3.588,6.787,6.787,0,0,0-.9-3.241c-.041-.072-.1-.137-.138-.209a6.631,6.631,0,0,0,1.692-10.437,6.709,6.709,0,0,0,2.772-5.431" fill="#ffda2a"/>
    <path id="Path_44" data-name="Path 44" d="M151.995,40.655A16.752,16.752,0,0,0,122.14,30.207,16.752,16.752,0,0,0,92.285,40.655c0,23.822,29.787,36.874,29.853,36.9h0c.066-.029,29.853-13.081,29.853-36.9M122.14,51.112h0l0-.007,0,.007Z" fill="#ffda2a"/>
  </g>
</svg>
