<svg xmlns="http://www.w3.org/2000/svg" xmlns:xlink="http://www.w3.org/1999/xlink" width="120" height="105" viewBox="0 0 120 105">
  <defs>
    <clipPath id="clip-path">
      <rect id="長方形_277" data-name="長方形 277" width="112.937" height="76.821" fill="none"/>
    </clipPath>
    <clipPath id="clip-path-2">
      <rect id="長方形_263" data-name="長方形 263" width="15.662" height="2.798" fill="none"/>
    </clipPath>
    <clipPath id="clip-path-3">
      <rect id="長方形_264" data-name="長方形 264" width="9.57" height="8.277" fill="none"/>
    </clipPath>
    <clipPath id="clip-path-4">
      <rect id="長方形_265" data-name="長方形 265" width="36.58" height="23.318" fill="none"/>
    </clipPath>
    <clipPath id="clip-path-5">
      <rect id="長方形_266" data-name="長方形 266" width="6.734" height="17.96" fill="none"/>
    </clipPath>
    <clipPath id="clip-path-6">
      <rect id="長方形_267" data-name="長方形 267" width="33.179" height="8.381" fill="none"/>
    </clipPath>
    <clipPath id="clip-path-7">
      <rect id="長方形_268" data-name="長方形 268" width="30.573" height="4.941" fill="none"/>
    </clipPath>
    <clipPath id="clip-path-8">
      <rect id="長方形_269" data-name="長方形 269" width="26.918" height="4.941" fill="none"/>
    </clipPath>
    <clipPath id="clip-path-9">
      <rect id="長方形_270" data-name="長方形 270" width="24.878" height="3.6" fill="none"/>
    </clipPath>
    <clipPath id="clip-path-10">
      <rect id="長方形_271" data-name="長方形 271" width="22.591" height="3.337" fill="none"/>
    </clipPath>
    <clipPath id="clip-path-11">
      <rect id="長方形_272" data-name="長方形 272" width="21.321" height="3.187" fill="none"/>
    </clipPath>
    <clipPath id="clip-path-12">
      <rect id="長方形_273" data-name="長方形 273" width="21.646" height="3.226" fill="none"/>
    </clipPath>
    <clipPath id="clip-path-13">
      <rect id="長方形_274" data-name="長方形 274" width="0.926" height="2.056" fill="none"/>
    </clipPath>
    <clipPath id="clip-path-14">
      <rect id="長方形_275" data-name="長方形 275" width="22.917" height="3.375" fill="none"/>
    </clipPath>
    <clipPath id="clip-path-15">
      <rect id="長方形_276" data-name="長方形 276" width="25.14" height="7.801" fill="none"/>
    </clipPath>
    <clipPath id="clip-path-18">
      <rect id="長方形_281" data-name="長方形 281" width="4.772" height="34.816" fill="none"/>
    </clipPath>
    <clipPath id="clip-path-19">
      <rect id="長方形_296" data-name="長方形 296" width="13.673" height="11.441" transform="translate(0 13.58) rotate(-83.306)" fill="none"/>
    </clipPath>
    <clipPath id="clip-path-20">
      <rect id="長方形_284" data-name="長方形 284" width="2.998" height="4.479" fill="none"/>
    </clipPath>
    <clipPath id="clip-path-21">
      <rect id="長方形_285" data-name="長方形 285" width="0.043" height="0.084" fill="none"/>
    </clipPath>
    <clipPath id="clip-path-22">
      <rect id="長方形_286" data-name="長方形 286" width="6.933" height="5.211" fill="none"/>
    </clipPath>
    <clipPath id="clip-path-23">
      <rect id="長方形_287" data-name="長方形 287" width="0.094" height="0.12" fill="none"/>
    </clipPath>
    <clipPath id="clip-path-24">
      <rect id="長方形_288" data-name="長方形 288" width="6.987" height="4.896" fill="none"/>
    </clipPath>
    <clipPath id="clip-path-25">
      <rect id="長方形_289" data-name="長方形 289" width="4.521" height="3.166" fill="none"/>
    </clipPath>
    <clipPath id="clip-path-26">
      <rect id="長方形_290" data-name="長方形 290" width="4.612" height="3.393" fill="none"/>
    </clipPath>
    <clipPath id="clip-path-27">
      <rect id="長方形_291" data-name="長方形 291" width="0.434" height="0.434" fill="none"/>
    </clipPath>
    <clipPath id="clip-path-29">
      <rect id="長方形_293" data-name="長方形 293" width="14.744" height="12.643" fill="none"/>
    </clipPath>
    <clipPath id="clip-path-30">
      <rect id="長方形_294" data-name="長方形 294" width="14.815" height="12.683" fill="none"/>
    </clipPath>
    <clipPath id="clip-path-31">
      <rect id="長方形_295" data-name="長方形 295" width="12.874" height="1.691" fill="none"/>
    </clipPath>
    <clipPath id="clip-path-33">
      <rect id="長方形_298" data-name="長方形 298" width="44.998" height="61.611" fill="none"/>
    </clipPath>
    <clipPath id="clip-path-34">
      <rect id="長方形_299" data-name="長方形 299" width="47.924" height="62.37" fill="none"/>
    </clipPath>
    <clipPath id="clip-path-46">
      <rect id="長方形_322" data-name="長方形 322" width="9.304" height="37.039" fill="none"/>
    </clipPath>
    <clipPath id="clip-path-47">
      <rect id="長方形_327" data-name="長方形 327" width="11.441" height="13.673" transform="matrix(0.973, -0.229, 0.229, 0.973, 0, 2.619)" fill="none"/>
    </clipPath>
    <clipPath id="clip-path-48">
      <rect id="長方形_326" data-name="長方形 326" width="19.289" height="16.576" fill="none"/>
    </clipPath>
    <clipPath id="clip-path-50">
      <path id="パス_340" data-name="パス 340" d="M313.988,229.676l-.269.54.537.45.044.163,0,.159,1.049-.247-.165-.369-.033-.165.218-.38-.482-.364Z" transform="translate(-313.719 -229.464)" fill="none"/>
    </clipPath>
    <clipPath id="clip-path-52">
      <rect id="長方形_329" data-name="長方形 329" width="7.09" height="5.902" fill="none"/>
    </clipPath>
    <clipPath id="clip-path-53">
      <rect id="長方形_330" data-name="長方形 330" width="0.44" height="0.44" fill="none"/>
    </clipPath>
    <clipPath id="clip-path-55">
      <rect id="長方形_332" data-name="長方形 332" width="2.158" height="1.644" fill="none"/>
    </clipPath>
    <clipPath id="clip-path-57">
      <rect id="長方形_334" data-name="長方形 334" width="17.233" height="19.763" fill="none"/>
    </clipPath>
    <clipPath id="clip-path-58">
      <rect id="長方形_335" data-name="長方形 335" width="2.19" height="3.797" fill="none"/>
    </clipPath>
    <clipPath id="clip-path-59">
      <rect id="長方形_336" data-name="長方形 336" width="2.191" height="3.454" fill="none"/>
    </clipPath>
    <clipPath id="clip-path-60">
      <rect id="長方形_337" data-name="長方形 337" width="3.821" height="2.057" fill="none"/>
    </clipPath>
    <clipPath id="clip-path-61">
      <rect id="長方形_338" data-name="長方形 338" width="3.229" height="2.713" fill="none"/>
    </clipPath>
  </defs>
  <g id="icon_flow3" transform="translate(3.737 12.902)">
    <rect id="長方形_467" data-name="長方形 467" width="120" height="105" transform="translate(-3.737 -12.902)" fill="none"/>
    <g id="グループ_860" data-name="グループ 860">
      <rect id="長方形_262" data-name="長方形 262" width="60.999" height="42.066" transform="matrix(0.117, -0.993, 0.993, 0.117, 40.704, 61.126)" fill="#fff"/>
      <g id="グループ_435" data-name="グループ 435">
        <g id="グループ_434" data-name="グループ 434" clip-path="url(#clip-path)">
          <g id="グループ_394" data-name="グループ 394" transform="translate(57.288 62.593)" style="isolation: isolate">
            <g id="グループ_393" data-name="グループ 393">
              <g id="グループ_392" data-name="グループ 392" clip-path="url(#clip-path-2)">
                <path id="パス_238" data-name="パス 238" d="M538.189,574.3a.528.528,0,0,1-.064,0l-14.575-1.711a.543.543,0,1,1,.127-1.079l14.575,1.711a.543.543,0,0,1-.063,1.083" transform="translate(-523.07 -571.499)" fill="#323232"/>
              </g>
            </g>
          </g>
          <g id="グループ_397" data-name="グループ 397" transform="translate(74.301 58.296)" style="isolation: isolate">
            <g id="グループ_396" data-name="グループ 396">
              <g id="グループ_395" data-name="グループ 395" clip-path="url(#clip-path-3)">
                <path id="パス_239" data-name="パス 239" d="M686.583,540.543a.579.579,0,0,1-.063,0l-7.64-.9a.543.543,0,1,1,.127-1.079l7.1.833.781-6.651a.543.543,0,1,1,1.079.127l-.844,7.191a.543.543,0,0,1-.54.48" transform="translate(-678.4 -532.266)" fill="#323232"/>
              </g>
            </g>
          </g>
          <g id="グループ_400" data-name="グループ 400" transform="translate(53.558 0.738)" style="isolation: isolate">
            <g id="グループ_399" data-name="グループ 399">
              <g id="グループ_398" data-name="グループ 398" clip-path="url(#clip-path-4)">
                <path id="パス_240" data-name="パス 240" d="M522.929,30.055a.553.553,0,0,1-.064,0,.543.543,0,0,1-.476-.6l2.057-17.525-34.953-4.1a.543.543,0,1,1,.127-1.079l35.493,4.166a.543.543,0,0,1,.476.6l-2.12,18.065a.543.543,0,0,1-.539.48" transform="translate(-489.013 -6.737)" fill="#323232"/>
              </g>
            </g>
          </g>
          <g id="グループ_403" data-name="グループ 403" transform="translate(45.291)" style="isolation: isolate">
            <g id="グループ_402" data-name="グループ 402">
              <g id="グループ_401" data-name="グループ 401" clip-path="url(#clip-path-5)">
                <path id="パス_241" data-name="パス 241" d="M414.075,17.959a.552.552,0,0,1-.064,0,.543.543,0,0,1-.476-.6L415.515.48a.544.544,0,0,1,.6-.476l3.667.43a.543.543,0,0,1-.127,1.079l-3.128-.367-1.917,16.333a.543.543,0,0,1-.539.48" transform="translate(-413.531 0)" fill="#323232"/>
              </g>
            </g>
          </g>
          <g id="グループ_406" data-name="グループ 406" transform="translate(49.741 19.675)" style="isolation: isolate">
            <g id="グループ_405" data-name="グループ 405">
              <g id="グループ_404" data-name="グループ 404" clip-path="url(#clip-path-6)">
                <path id="パス_242" data-name="パス 242" d="M483.857,188.019l-.046,0-29.307-3.44a.388.388,0,0,1-.34-.431l.489-4.165a.388.388,0,0,1,.431-.34L487,183.386a.388.388,0,0,1,.34.431l-.255,2.176a.388.388,0,0,1-.771-.09l.21-1.79-31.143-3.655-.4,3.394,28.922,3.395a.388.388,0,0,1-.045.773" transform="translate(-454.161 -179.638)" fill="#323232"/>
              </g>
            </g>
          </g>
          <g id="グループ_409" data-name="グループ 409" transform="translate(49.252 23.84)" style="isolation: isolate">
            <g id="グループ_408" data-name="グループ 408">
              <g id="グループ_407" data-name="グループ 407" clip-path="url(#clip-path-7)">
                <path id="パス_243" data-name="パス 243" d="M450.085,222.611l-.046,0a.388.388,0,0,1-.34-.431l.489-4.165a.388.388,0,0,1,.431-.34l29.307,3.44a.388.388,0,0,1-.09.771l-28.922-3.395-.444,3.78a.388.388,0,0,1-.385.343" transform="translate(-449.697 -217.669)" fill="#323232"/>
              </g>
            </g>
          </g>
          <g id="グループ_412" data-name="グループ 412" transform="translate(48.763 28.005)" style="isolation: isolate">
            <g id="グループ_411" data-name="グループ 411">
              <g id="グループ_410" data-name="グループ 410" clip-path="url(#clip-path-8)">
                <path id="パス_244" data-name="パス 244" d="M445.621,260.641l-.046,0a.388.388,0,0,1-.34-.431l.489-4.165a.388.388,0,0,1,.431-.34l25.653,3.011a.388.388,0,1,1-.09.771l-25.267-2.966-.444,3.78a.388.388,0,0,1-.385.343" transform="translate(-445.232 -255.7)" fill="#323232"/>
              </g>
            </g>
          </g>
          <g id="グループ_415" data-name="グループ 415" transform="translate(48.718 32.171)" style="isolation: isolate">
            <g id="グループ_414" data-name="グループ 414">
              <g id="グループ_413" data-name="グループ 413" clip-path="url(#clip-path-9)">
                <path id="パス_245" data-name="パス 245" d="M469.305,297.331l-.046,0-23.67-2.778v0a.388.388,0,0,1-.771-.09l.046-.389a.388.388,0,0,1,.431-.34l24.056,2.824a.388.388,0,0,1-.045.773" transform="translate(-444.816 -293.732)" fill="#323232"/>
              </g>
            </g>
          </g>
          <g id="グループ_418" data-name="グループ 418" transform="translate(49.87 36.523)" style="isolation: isolate">
            <g id="グループ_417" data-name="グループ 417">
              <g id="グループ_416" data-name="グループ 416" clip-path="url(#clip-path-10)">
                <path id="パス_246" data-name="パス 246" d="M477.541,336.809l-.046,0-21.815-2.56a.388.388,0,1,1,.091-.771l21.815,2.56a.388.388,0,0,1-.045.773" transform="translate(-455.338 -333.472)" fill="#323232"/>
              </g>
            </g>
          </g>
          <g id="グループ_421" data-name="グループ 421" transform="translate(50.84 40.86)" style="isolation: isolate">
            <g id="グループ_420" data-name="グループ 420">
              <g id="グループ_419" data-name="グループ 419" clip-path="url(#clip-path-11)">
                <path id="パス_247" data-name="パス 247" d="M485.128,376.256l-.046,0-20.544-2.411a.388.388,0,0,1,.09-.771l20.544,2.411a.388.388,0,0,1-.045.774" transform="translate(-464.195 -373.068)" fill="#323232"/>
              </g>
            </g>
          </g>
          <g id="グループ_424" data-name="グループ 424" transform="translate(51.825 45.198)" style="isolation: isolate">
            <g id="グループ_423" data-name="グループ 423">
              <g id="グループ_422" data-name="グループ 422" clip-path="url(#clip-path-12)">
                <path id="パス_248" data-name="パス 248" d="M494.441,415.9l-.046,0-20.87-2.45a.388.388,0,0,1,.091-.771l20.87,2.45a.388.388,0,0,1-.045.774" transform="translate(-473.183 -412.679)" fill="#323232"/>
              </g>
            </g>
          </g>
          <g id="グループ_427" data-name="グループ 427" transform="translate(78.232 55.463)" style="isolation: isolate">
            <g id="グループ_426" data-name="グループ 426">
              <g id="グループ_425" data-name="グループ 425" clip-path="url(#clip-path-13)">
                <path id="パス_249" data-name="パス 249" d="M714.686,508.455l-.046,0a.388.388,0,0,1-.34-.431l.15-1.28a.388.388,0,1,1,.771.09l-.15,1.28a.388.388,0,0,1-.385.343" transform="translate(-714.298 -506.399)" fill="#323232"/>
              </g>
            </g>
          </g>
          <g id="グループ_430" data-name="グループ 430" transform="translate(52.945 49.552)" style="isolation: isolate">
            <g id="グループ_429" data-name="グループ 429">
              <g id="グループ_428" data-name="グループ 428" clip-path="url(#clip-path-14)">
                <path id="パス_250" data-name="パス 250" d="M505.941,455.808l-.046,0-22.14-2.6a.388.388,0,0,1,.09-.771l22.14,2.6a.388.388,0,0,1-.045.774" transform="translate(-483.411 -452.433)" fill="#323232"/>
              </g>
            </g>
          </g>
          <g id="グループ_433" data-name="グループ 433" transform="translate(53.868 53.883)" style="isolation: isolate">
            <g id="グループ_432" data-name="グループ 432">
              <g id="グループ_431" data-name="グループ 431" clip-path="url(#clip-path-15)">
                <path id="パス_251" data-name="パス 251" d="M516.106,499.78l-.046,0-23.045-2.7a.388.388,0,0,1,.091-.771l22.659,2.66.4-3.394-23.979-2.814a.388.388,0,0,1,.09-.771l24.364,2.86a.388.388,0,0,1,.34.431l-.489,4.165a.388.388,0,0,1-.385.343" transform="translate(-491.843 -491.979)" fill="#323232"/>
              </g>
            </g>
          </g>
        </g>
      </g>
      <rect id="長方形_278" data-name="長方形 278" width="3.701" height="19.489" transform="translate(51.757 8.77) rotate(-83.306)" fill="#fff"/>
      <g id="グループ_437" data-name="グループ 437">
        <g id="グループ_436" data-name="グループ 436" clip-path="url(#clip-path)">
          <path id="パス_252" data-name="パス 252" d="M488.769,49.7l-.045,0-19.356-2.272a.388.388,0,0,1-.34-.431l.431-3.675a.388.388,0,0,1,.431-.34l19.356,2.272a.388.388,0,0,1,.34.431l-.431,3.675a.388.388,0,0,1-.385.343m-18.926-3,18.586,2.181.341-2.9L470.184,43.8Z" transform="translate(-417.655 -38.27)" fill="#323232"/>
        </g>
      </g>
      <rect id="長方形_280" data-name="長方形 280" width="5.921" height="19.489" transform="matrix(0.117, -0.993, 0.993, 0.117, 51.067, 14.651)" fill="#fff"/>
      <g id="グループ_442" data-name="グループ 442">
        <g id="グループ_441" data-name="グループ 441" clip-path="url(#clip-path)">
          <path id="パス_253" data-name="パス 253" d="M482.467,85.462l-.045,0-19.356-2.272a.388.388,0,0,1-.34-.431l.69-5.88a.388.388,0,0,1,.431-.34L483.2,78.808a.388.388,0,0,1,.34.431l-.69,5.88a.388.388,0,0,1-.385.343m-18.926-3,18.585,2.181.6-5.109-18.586-2.181Z" transform="translate(-412.044 -68.151)" fill="#323232"/>
          <g id="グループ_440" data-name="グループ 440" transform="translate(54.263 21.114)" style="isolation: isolate">
            <g id="グループ_439" data-name="グループ 439">
              <g id="グループ_438" data-name="グループ 438" clip-path="url(#clip-path-18)">
                <path id="パス_254" data-name="パス 254" d="M495.833,227.592l-.046,0a.388.388,0,0,1-.34-.431l4-34.04a.388.388,0,1,1,.771.09l-4,34.04a.388.388,0,0,1-.385.343" transform="translate(-495.445 -192.776)" fill="#323232"/>
              </g>
            </g>
          </g>
        </g>
      </g>
      <rect id="長方形_283" data-name="長方形 283" width="13.673" height="11.441" transform="translate(71.625 20.831) rotate(-83.306)" fill="#dbdcdc"/>
      <g id="グループ_480" data-name="グループ 480" transform="translate(71.625 7.251)">
        <g id="グループ_479" data-name="グループ 479" transform="translate(0 0)" clip-path="url(#clip-path-19)">
          <g id="グループ_445" data-name="グループ 445" transform="translate(6.651 7.76)" style="isolation: isolate">
            <g id="グループ_444" data-name="グループ 444">
              <g id="グループ_443" data-name="グループ 443" clip-path="url(#clip-path-20)">
                <path id="パス_255" data-name="パス 255" d="M716.19,137.059s2.229,2.779,1.252,4.479l-2.751-1.8Z" transform="translate(-714.691 -137.059)" fill="#ffdc00"/>
              </g>
            </g>
          </g>
          <path id="パス_256" data-name="パス 256" d="M688.326,143.087l-.169-1.107c-.079-.254-.484-.274-.484-.274l.057-.944-1.361-.676-.145.541-.016-.56-1.48.343-.164.932s-.4-.074-.534.155l-.421,1.038-.262,5.349-.091.207-.075,2.953.038.015.1.9,1.6-.228,1.506.593.3-.85.041-.006.611-2.89-.041-.223Z" transform="translate(-679.98 -131.977)" fill="#fff"/>
          <path id="パス_257" data-name="パス 257" d="M689.108,93.737a.363.363,0,0,0-.2,0,3.463,3.463,0,0,0-2.492-3.573c-.449-.1-2.211-.408-2.952,2.45l-.033.48a.363.363,0,0,0-.192-.048c-.287.013-.5.39-.476.842s.278.808.565.795a.346.346,0,0,0,.13-.033,3.417,3.417,0,0,0,1.319,2.272,2,2,0,0,0,1.934.227,3.418,3.418,0,0,0,1.809-1.9.346.346,0,0,0,.118.062c.277.079.606-.208.734-.642s.009-.85-.268-.93" transform="translate(-679.61 -87.488)" fill="#fff"/>
          <g id="グループ_448" data-name="グループ 448" transform="translate(3.82 7.164)" style="isolation: isolate">
            <g id="グループ_447" data-name="グループ 447">
              <g id="グループ_446" data-name="グループ 446" clip-path="url(#clip-path-21)">
                <path id="パス_258" data-name="パス 258" d="M688.888,131.7c0-.03-.009-.059-.012-.084-.01,0-.021.008-.031.011l.043.073" transform="translate(-688.845 -131.614)" fill="#3a8fb7"/>
              </g>
            </g>
          </g>
          <g id="グループ_451" data-name="グループ 451" transform="translate(3.175 1.385)" style="isolation: isolate">
            <g id="グループ_450" data-name="グループ 450">
              <g id="グループ_449" data-name="グループ 449" clip-path="url(#clip-path-22)">
                <path id="パス_259" data-name="パス 259" d="M683.41,83.021a.362.362,0,0,1,.192.048l.033-.48c.73-2.268,2.436-2.495,2.885-2.4a3.43,3.43,0,0,1,2.559,3.52.363.363,0,0,1,.2,0,.455.455,0,0,1,.29.347,3.8,3.8,0,0,0-.343-3.673,3.121,3.121,0,0,0-.809-.835,2.79,2.79,0,0,0-3.455-.179c-.853-.067-1.663,1.454-1.663,1.454a3.857,3.857,0,0,0-.243,2.46.451.451,0,0,1,.358-.262" transform="translate(-682.953 -78.845)" fill="#ffdc00"/>
              </g>
            </g>
          </g>
          <g id="グループ_454" data-name="グループ 454" transform="translate(8.865 7.758)" style="isolation: isolate">
            <g id="グループ_453" data-name="グループ 453">
              <g id="グループ_452" data-name="グループ 452" clip-path="url(#clip-path-23)">
                <path id="パス_260" data-name="パス 260" d="M735,137.068a.363.363,0,0,1-.046-.03c-.013.035-.03.076-.048.12l.094-.09" transform="translate(-734.907 -137.038)" fill="#3a8fb7"/>
              </g>
            </g>
          </g>
          <g id="グループ_457" data-name="グループ 457" transform="translate(2.993 5.08)" style="isolation: isolate">
            <g id="グループ_456" data-name="グループ 456">
              <g id="グループ_455" data-name="グループ 455" clip-path="url(#clip-path-24)">
                <path id="パス_261" data-name="パス 261" d="M688.172,113.885a.552.552,0,0,0-.33-.277.478.478,0,0,0-.093-.017h-.007l-.3.143a.012.012,0,0,0-.007.009l-.119.583a.154.154,0,0,0,.023.117.162.162,0,0,0,.1.069l.013,0a.161.161,0,0,0,.176-.125l.1-.483.018,0a.238.238,0,0,1,.135.123.842.842,0,0,1,.023.611c-.111.374-.371.582-.534.536a.177.177,0,0,1-.063-.034.166.166,0,0,0-.144-.03.159.159,0,0,0-.108.1,3.256,3.256,0,0,1-1.723,1.815,1.822,1.822,0,0,1-1.77-.207,3.254,3.254,0,0,1-1.258-2.166.159.159,0,0,0-.083-.119.167.167,0,0,0-.147,0,.184.184,0,0,1-.068.018c-.171.007-.375-.256-.4-.645a.842.842,0,0,1,.164-.589.237.237,0,0,1,.16-.089h.018l-.015.493a.162.162,0,0,0,.273.12.154.154,0,0,0,.049-.108l.018-.592a.128.128,0,0,0,0-.014l.01-.374a.159.159,0,0,0-.156-.163.161.161,0,0,0-.117.043.153.153,0,0,0-.049.108l-.005.172h-.044a.55.55,0,0,0-.385.193,1.124,1.124,0,0,0-.243.814c.03.54.346.952.723.945a3.564,3.564,0,0,0,1.35,2.2,2.175,2.175,0,0,0,1.029.405,2.12,2.12,0,0,0,1.07-.155h0a3.571,3.571,0,0,0,1.828-1.831c.364.095.768-.233.922-.752a1.125,1.125,0,0,0-.048-.848" transform="translate(-681.292 -112.59)" fill="#323232"/>
              </g>
            </g>
          </g>
          <path id="パス_262" data-name="パス 262" d="M684.324,117.207a2.108,2.108,0,0,1-.246-.014,2.205,2.205,0,0,1-1.049-.414,3.6,3.6,0,0,1-1.358-2.194c-.382-.016-.7-.438-.729-.981a1.163,1.163,0,0,1,.253-.842.588.588,0,0,1,.412-.206h.008l0-.134a.192.192,0,0,1,.062-.135.194.194,0,0,1,.145-.054.2.2,0,0,1,.193.2l-.01.373a.135.135,0,0,1,0,.019l-.018.587a.192.192,0,0,1-.062.135.2.2,0,0,1-.145.054.2.2,0,0,1-.193-.2l.013-.45a.224.224,0,0,0-.109.072.8.8,0,0,0-.154.561c.021.38.217.608.351.608h0a.141.141,0,0,0,.053-.015.206.206,0,0,1,.182.005.2.2,0,0,1,.1.149,3.214,3.214,0,0,0,1.243,2.14,1.781,1.781,0,0,0,1.732.2,3.216,3.216,0,0,0,1.7-1.793.2.2,0,0,1,.134-.121.205.205,0,0,1,.178.037.143.143,0,0,0,.049.027c.13.036.376-.14.486-.51a.8.8,0,0,0-.02-.581.223.223,0,0,0-.09-.1l-.09.441a.2.2,0,0,1-.219.155l-.016,0a.2.2,0,0,1-.128-.086.194.194,0,0,1-.029-.146l.119-.583a.05.05,0,0,1,.028-.036l.3-.143a.063.063,0,0,1,.027,0,.525.525,0,0,1,.1.018.588.588,0,0,1,.354.3,1.162,1.162,0,0,1,.052.878c-.155.521-.56.86-.937.785a3.61,3.61,0,0,1-1.835,1.822,2.2,2.2,0,0,1-.847.174m-2.621-2.7a.039.039,0,0,1,.038.032,3.525,3.525,0,0,0,1.336,2.178,2.121,2.121,0,0,0,1.01.4,2.084,2.084,0,0,0,1.051-.152,3.535,3.535,0,0,0,1.81-1.812.039.039,0,0,1,.045-.022c.343.089.728-.229.875-.725a1.085,1.085,0,0,0-.045-.818.513.513,0,0,0-.307-.259.455.455,0,0,0-.079-.015l-.278.134-.116.57a.115.115,0,0,0,.017.087.123.123,0,0,0,.079.052l.01,0a.121.121,0,0,0,.134-.094l.1-.483a.038.038,0,0,1,.044-.031l.023,0a.275.275,0,0,1,.159.142.882.882,0,0,1,.026.641c-.119.4-.4.614-.582.562a.221.221,0,0,1-.076-.041.128.128,0,0,0-.11-.023.12.12,0,0,0-.082.073,3.3,3.3,0,0,1-1.744,1.837,1.864,1.864,0,0,1-1.81-.212,3.291,3.291,0,0,1-1.272-2.191.12.12,0,0,0-.063-.09.128.128,0,0,0-.112,0,.216.216,0,0,1-.083.022c-.189.008-.414-.264-.437-.681a.882.882,0,0,1,.174-.617.275.275,0,0,1,.186-.1h.023a.039.039,0,0,1,.036.04l-.015.493a.121.121,0,0,0,.118.123.131.131,0,0,0,.089-.033.115.115,0,0,0,.037-.081l.018-.592.04-.013h-.039l.01-.374a.12.12,0,0,0-.119-.123.124.124,0,0,0-.088.033.115.115,0,0,0-.037.081l-.005.172a.038.038,0,0,1-.013.027.041.041,0,0,1-.028.01h-.04a.512.512,0,0,0-.358.18,1.086,1.086,0,0,0-.234.786c.029.516.33.919.683.908Z" transform="translate(-677.984 -107.192)" fill="#323232"/>
          <path id="パス_263" data-name="パス 263" d="M733.414,106.166a.14.14,0,0,1-.125-.132,4.265,4.265,0,0,0-.513-1.924.135.135,0,0,1,.057-.185.143.143,0,0,1,.191.056,4.533,4.533,0,0,1,.547,2.045.138.138,0,0,1-.136.141h-.021" transform="translate(-724.13 -99.779)" fill="#221815"/>
          <path id="パス_264" data-name="パス 264" d="M733.343,106.106a.149.149,0,0,1-.132-.141,4.257,4.257,0,0,0-.512-1.92.143.143,0,0,1,.06-.2.152.152,0,0,1,.2.06,4.545,4.545,0,0,1,.548,2.049.142.142,0,0,1-.039.1.147.147,0,0,1-.105.047h-.022m-.5-2.257a.134.134,0,0,0-.078.014.126.126,0,0,0-.053.174,4.274,4.274,0,0,1,.514,1.927.132.132,0,0,0,.117.124h.02a.131.131,0,0,0,.093-.042.125.125,0,0,0,.034-.09,4.529,4.529,0,0,0-.546-2.041.133.133,0,0,0-.1-.067" transform="translate(-724.06 -99.711)" fill="#323232"/>
          <path id="パス_265" data-name="パス 265" d="M733.046,105.831h-.023a.188.188,0,0,1-.166-.178,4.218,4.218,0,0,0-.507-1.9.181.181,0,0,1-.015-.14.183.183,0,0,1,.091-.11.191.191,0,0,1,.254.075,4.582,4.582,0,0,1,.553,2.066.18.18,0,0,1-.05.131.187.187,0,0,1-.132.059h0m-.532-2.258a.094.094,0,0,0-.044.011.089.089,0,0,0-.045.053.087.087,0,0,0,.008.067,4.31,4.31,0,0,1,.519,1.945.093.093,0,0,0,.083.087h.014a.094.094,0,0,0,.066-.029.087.087,0,0,0,.024-.063,4.489,4.489,0,0,0-.541-2.024.1.1,0,0,0-.072-.048h-.011" transform="translate(-723.744 -99.395)" fill="#323232"/>
          <g id="グループ_460" data-name="グループ 460" transform="translate(5.456 2.305)" style="isolation: isolate">
            <g id="グループ_459" data-name="グループ 459">
              <g id="グループ_458" data-name="グループ 458" clip-path="url(#clip-path-25)">
                <path id="パス_266" data-name="パス 266" d="M703.783,87.544s2.645,2.772,4.521,2.87c0,0-.728-4.313-4.521-2.87" transform="translate(-703.783 -87.248)" fill="#ffdc00"/>
              </g>
            </g>
          </g>
          <path id="パス_267" data-name="パス 267" d="M707.55,89.965h0a5.439,5.439,0,0,1-3.208-1.673,8.32,8.32,0,0,1-1.2-1.47.152.152,0,0,1,.261-.157c.017.028,1.693,2.756,4.174,3a.152.152,0,0,1-.028.3" transform="translate(-697.737 -84.357)" fill="#221815"/>
          <g id="グループ_463" data-name="グループ 463" transform="translate(5.375 2.224)" style="isolation: isolate">
            <g id="グループ_462" data-name="グループ 462">
              <g id="グループ_461" data-name="グループ 461" clip-path="url(#clip-path-26)">
                <path id="パス_268" data-name="パス 268" d="M707.4,89.895a5.494,5.494,0,0,1-3.138-1.668,8.342,8.342,0,0,1-1.2-1.472.161.161,0,0,1,.275-.166c.016.027,1.658,2.7,4.1,2.986l.071.008h0a.161.161,0,0,1,.141.175.161.161,0,0,1-.174.145h0l0-.017a.144.144,0,0,0,.155-.129.142.142,0,0,0-.032-.105.146.146,0,0,0-.1-.052l-.071-.008c-2.448-.287-4.093-2.967-4.11-2.994a.143.143,0,0,0-.089-.065.144.144,0,0,0-.158.214,8.341,8.341,0,0,0,1.2,1.469,5.428,5.428,0,0,0,3.2,1.671V89.9l-.076-.008" transform="translate(-703.042 -86.511)" fill="#323232"/>
              </g>
            </g>
          </g>
          <path id="パス_269" data-name="パス 269" d="M707.177,89.626h-.018l-.076-.008a5.539,5.539,0,0,1-3.161-1.678,8.37,8.37,0,0,1-1.205-1.48.2.2,0,0,1,.342-.206c.016.027,1.65,2.684,4.068,2.968l.07.008a.2.2,0,0,1,.135.072.2.2,0,0,1-.154.326m-.008-.095a.106.106,0,0,0,.113-.094.1.1,0,0,0-.023-.077.108.108,0,0,0-.072-.038l-.071-.008c-2.471-.29-4.122-2.986-4.139-3.013a.1.1,0,0,0-.065-.048.1.1,0,0,0-.079.012.1.1,0,0,0-.036.144,8.321,8.321,0,0,0,1.19,1.461,5.39,5.39,0,0,0,3.179,1.66h0" transform="translate(-697.351 -83.97)" fill="#323232"/>
          <g id="グループ_466" data-name="グループ 466" transform="translate(7.485 5.789)" style="isolation: isolate">
            <g id="グループ_465" data-name="グループ 465">
              <g id="グループ_464" data-name="グループ 464" clip-path="url(#clip-path-27)">
                <path id="パス_270" data-name="パス 270" d="M722.734,119.3a.217.217,0,1,1-.19-.241.217.217,0,0,1,.19.241" transform="translate(-722.302 -119.058)" fill="#323232"/>
              </g>
            </g>
          </g>
          <path id="パス_271" data-name="パス 271" d="M722.394,119.381l-.027,0a.233.233,0,1,1,.027,0m0-.434a.2.2,0,1,0,.024,0h-.024m.216.226h0Z" transform="translate(-714.692 -113.143)" fill="#323232"/>
          <g id="グループ_469" data-name="グループ 469" transform="translate(5.22 5.523)" style="isolation: isolate">
            <g id="グループ_468" data-name="グループ 468">
              <g id="グループ_467" data-name="グループ 467" clip-path="url(#clip-path-27)">
                <path id="パス_272" data-name="パス 272" d="M702.056,116.873a.217.217,0,1,1-.19-.241.217.217,0,0,1,.19.241" transform="translate(-701.624 -116.631)" fill="#323232"/>
              </g>
            </g>
          </g>
          <path id="パス_273" data-name="パス 273" d="M701.715,116.954l-.028,0a.232.232,0,1,1,.258-.2.232.232,0,0,1-.23.205m0-.434a.2.2,0,0,0-.023.4.2.2,0,0,0,.047-.4h-.024" transform="translate(-696.278 -110.982)" fill="#323232"/>
          <g id="グループ_472" data-name="グループ 472" transform="translate(-2.561 10.108)" style="isolation: isolate">
            <g id="グループ_471" data-name="グループ 471">
              <g id="グループ_470" data-name="グループ 470" clip-path="url(#clip-path-29)">
                <path id="パス_274" data-name="パス 274" d="M644.61,160.931a.146.146,0,0,1-.03-.01L642.5,159.8a.141.141,0,0,1-.032-.021l-.778-.677a.144.144,0,0,0-.229.056l-3.319,8.483-1.265-9.021a.144.144,0,0,0-.21-.108l-.913.478a.141.141,0,0,1-.035.013l-2.28.611a.141.141,0,0,1-.032,0c-1.125-.009-2.547,7.441-2.826,9.622l14.465,1.9c.233-2.186.657-9.956-.439-10.207" transform="translate(-630.584 -158.494)" fill="#ffdc00"/>
              </g>
            </g>
          </g>
          <g id="グループ_475" data-name="グループ 475" transform="translate(-2.596 10.072)" style="isolation: isolate">
            <g id="グループ_474" data-name="グループ 474">
              <g id="グループ_473" data-name="グループ 473" clip-path="url(#clip-path-30)">
                <path id="パス_275" data-name="パス 275" d="M633.12,159.358a.176.176,0,0,0,.041,0l2.279-.611a.179.179,0,0,0,.044-.016l.913-.478a.108.108,0,0,1,.157.081l1.284,9.157,3.369-8.611a.108.108,0,0,1,.172-.042l.778.676a.173.173,0,0,0,.038.025l2.078,1.123a.167.167,0,0,0,.038.013c.443.1.688,1.644.69,4.343,0,2.319-.17,4.8-.278,5.823l.071.009c.223-2.1.674-9.984-.467-10.246l-.021-.007-2.078-1.123a.1.1,0,0,1-.024-.016l-.778-.677a.18.18,0,0,0-.286.07l-3.269,8.355-1.246-8.885a.18.18,0,0,0-.262-.135l-.913.478a.114.114,0,0,1-.028.01l-2.279.611-.024,0c-1.2-.01-2.61,7.685-2.862,9.653l1.592.209-1.52-.2c.287-2.237,1.717-9.6,2.79-9.59" transform="translate(-630.258 -158.164)" fill="#3a8fb7"/>
              </g>
            </g>
          </g>
          <g id="グループ_478" data-name="グループ 478" transform="translate(-1.005 21.056)" style="isolation: isolate">
            <g id="グループ_477" data-name="グループ 477">
              <g id="グループ_476" data-name="グループ 476" clip-path="url(#clip-path-31)">
                <path id="パス_276" data-name="パス 276" d="M657.665,260.142l-12.874-1.69,12.874,1.691v0" transform="translate(-644.791 -258.452)" fill="#3a8fb7"/>
              </g>
            </g>
          </g>
          <path id="パス_277" data-name="パス 277" d="M674.715,175.273a.158.158,0,0,1-.124-.089l-2.9-6.04a.158.158,0,0,1,.044-.192l1.009-.8-.917-.289a.158.158,0,0,1-.106-.187l.532-2.28a.158.158,0,0,1,.308.072l-.5,2.137,1.063.335a.158.158,0,0,1,.05.275l-1.144.9,2.841,5.926a.158.158,0,0,1-.161.225" transform="translate(-669.74 -154.428)" fill="#221815"/>
          <path id="パス_278" data-name="パス 278" d="M674.643,175.212a.166.166,0,0,1-.131-.093l-2.9-6.04a.166.166,0,0,1,.047-.2l1-.787-.9-.284a.167.167,0,0,1-.112-.2l.532-2.28a.167.167,0,0,1,.2-.124.166.166,0,0,1,.124.2l-.5,2.129,1.055.332a.166.166,0,0,1,.053.289l-1.139.9,2.838,5.92a.167.167,0,0,1-.169.237m-2.285-9.994a.15.15,0,0,0-.164.114l-.532,2.28a.15.15,0,0,0,.1.176l.917.289a.008.008,0,0,1,0,.015l-1.009.8a.149.149,0,0,0-.042.182l2.9,6.04a.149.149,0,1,0,.269-.129l-2.841-5.926a.008.008,0,0,1,0-.01l1.144-.9a.149.149,0,0,0-.048-.26l-1.063-.335a.009.009,0,0,1-.006-.01l.5-2.137a.149.149,0,0,0-.112-.179l-.016,0" transform="translate(-669.669 -154.358)" fill="#323232"/>
          <path id="パス_279" data-name="パス 279" d="M674.347,174.934h-.024a.2.2,0,0,1-.161-.115l-2.9-6.04a.2.2,0,0,1,.058-.25l.939-.742-.832-.262a.206.206,0,0,1-.138-.242l.532-2.28a.205.205,0,1,1,.4.093l-.489,2.094,1.021.321a.205.205,0,0,1,.065.357l-1.114.88,2.824,5.892a.205.205,0,0,1-.185.294m-2.322-10a.11.11,0,0,0-.108.085l-.532,2.28a.111.111,0,0,0,.075.131l.917.289a.057.057,0,0,1,.033.037.047.047,0,0,1-.017.045l-1.009.8a.11.11,0,0,0-.031.135l2.9,6.04a.11.11,0,0,0,.087.062.113.113,0,0,0,.061-.01.111.111,0,0,0,.052-.148l-2.841-5.926a.047.047,0,0,1,.013-.058l1.144-.9a.111.111,0,0,0-.035-.192l-1.063-.335a.047.047,0,0,1-.032-.056l.5-2.137a.111.111,0,0,0-.083-.133l-.012,0h-.013" transform="translate(-669.353 -154.04)" fill="#323232"/>
          <path id="パス_280" data-name="パス 280" d="M701.947,181.315a.158.158,0,0,1-.106-.254l3.241-4.153-.905-1.146a.158.158,0,0,1,.113-.255l1.123-.08.189-2.082a.158.158,0,0,1,.171-.143h0a.158.158,0,0,1,.139.171l-.2,2.216a.158.158,0,0,1-.146.143l-.959.069.8,1.009a.158.158,0,0,1,0,.2l-3.317,4.251a.158.158,0,0,1-.143.06" transform="translate(-696.568 -161.481)" fill="#221815"/>
          <path id="パス_281" data-name="パス 281" d="M701.877,181.255a.167.167,0,0,1-.112-.268L705,176.839l-.9-1.141a.166.166,0,0,1,.119-.269l1.116-.08.188-2.075a.167.167,0,0,1,.181-.151h0a.165.165,0,0,1,.146.18l-.2,2.216a.166.166,0,0,1-.154.151l-.943.067.787,1a.166.166,0,0,1,0,.206l-3.317,4.251a.165.165,0,0,1-.151.063m3.83-8.114h0a.15.15,0,0,0-.162.135l-.188,2.082a.008.008,0,0,1-.008.008l-1.123.08a.149.149,0,0,0-.107.242l.905,1.146a.008.008,0,0,1,0,.011L701.779,181a.149.149,0,1,0,.236.184l3.317-4.251a.149.149,0,0,0,0-.185l-.8-1.009a.008.008,0,0,1,.006-.014l.959-.069a.149.149,0,0,0,.138-.135l.2-2.216a.149.149,0,0,0-.131-.162" transform="translate(-696.499 -161.413)" fill="#323232"/>
          <path id="パス_282" data-name="パス 282" d="M701.582,180.98h-.024a.205.205,0,0,1-.138-.33l3.218-4.124-.882-1.117a.205.205,0,0,1,.147-.332l1.083-.078.185-2.042a.205.205,0,1,1,.409.037l-.2,2.216a.2.2,0,0,1-.19.186l-.87.062.742.939a.2.2,0,0,1,0,.253l-3.317,4.251a.2.2,0,0,1-.161.079m3.792-8.116a.111.111,0,0,0-.11.1l-.189,2.082a.047.047,0,0,1-.044.043l-1.123.08a.111.111,0,0,0-.079.179l.905,1.146a.047.047,0,0,1,0,.059l-3.241,4.153a.111.111,0,0,0,.074.178.109.109,0,0,0,.1-.042l3.317-4.251a.11.11,0,0,0,0-.137l-.8-1.009a.056.056,0,0,1-.006-.049.048.048,0,0,1,.04-.028l.96-.069a.11.11,0,0,0,.1-.1l.2-2.216a.11.11,0,0,0-.1-.12h-.013" transform="translate(-696.183 -161.098)" fill="#323232"/>
          <path id="パス_283" data-name="パス 283" d="M693.257,155.842a.158.158,0,0,1-.1-.049l-1.64-1.769a.158.158,0,1,1,.232-.215l1.64,1.769a.158.158,0,0,1-.134.264" transform="translate(-687.368 -144.169)" fill="#221815"/>
          <path id="パス_284" data-name="パス 284" d="M693.187,155.781a.167.167,0,0,1-.1-.052l-1.64-1.769a.167.167,0,0,1,.244-.227l1.64,1.769a.166.166,0,0,1-.142.279m-1.6-2.082a.149.149,0,0,0-.127.25l1.64,1.769a.149.149,0,0,0,.219-.2l-1.64-1.769a.149.149,0,0,0-.092-.047" transform="translate(-687.3 -144.1)" fill="#323232"/>
          <path id="パス_285" data-name="パス 285" d="M692.891,155.507h-.024a.206.206,0,0,1-.127-.064l-1.64-1.769a.205.205,0,0,1,.011-.29.214.214,0,0,1,.147-.055.2.2,0,0,1,.143.065l1.64,1.769a.205.205,0,0,1-.15.345m-1.641-2.084a.11.11,0,0,0-.11.106.109.109,0,0,0,.03.079l1.64,1.769a.111.111,0,0,0,.156.006.111.111,0,0,0,.006-.156l-1.64-1.769a.111.111,0,0,0-.068-.035h-.013" transform="translate(-686.984 -143.786)" fill="#323232"/>
          <path id="パス_286" data-name="パス 286" d="M706.593,159.32a.158.158,0,0,1-.069-.288l2.005-1.341a.158.158,0,1,1,.175.263l-2.005,1.341a.157.157,0,0,1-.106.026" transform="translate(-700.704 -147.647)" fill="#221815"/>
          <path id="パス_287" data-name="パス 287" d="M706.523,159.261a.167.167,0,0,1-.073-.3l2.005-1.341a.166.166,0,0,1,.185.277l-2.005,1.341a.166.166,0,0,1-.112.027m2.042-1.654a.15.15,0,0,0-.1.024l-2.005,1.341a.149.149,0,1,0,.166.248l2.005-1.341a.149.149,0,0,0-.066-.273" transform="translate(-700.636 -147.579)" fill="#323232"/>
          <path id="パス_288" data-name="パス 288" d="M706.226,158.985H706.2a.205.205,0,0,1-.09-.374l2.005-1.341a.205.205,0,1,1,.228.341l-2.005,1.341a.2.2,0,0,1-.114.035m2-1.657a.112.112,0,0,0-.062.019l-2.005,1.341a.111.111,0,0,0,.049.2.109.109,0,0,0,.074-.018l2.005-1.341a.11.11,0,0,0-.049-.2h-.013" transform="translate(-700.319 -147.264)" fill="#323232"/>
          <path id="パス_289" data-name="パス 289" d="M693.253,173.845a.158.158,0,0,1-.067-.29l1.146-.735a.158.158,0,0,1,.171.266l-1.146.735a.157.157,0,0,1-.1.024" transform="translate(-688.825 -161.12)" fill="#221815"/>
          <path id="パス_290" data-name="パス 290" d="M693.182,173.784a.166.166,0,0,1-.071-.305l1.146-.735a.166.166,0,0,1,.18.28l-1.146.735a.167.167,0,0,1-.109.025m1.182-1.049a.148.148,0,0,0-.1.023l-1.146.735a.149.149,0,1,0,.161.251l1.146-.735a.15.15,0,0,0,.045-.206.148.148,0,0,0-.094-.065l-.015,0" transform="translate(-688.756 -161.051)" fill="#323232"/>
          <path id="パス_291" data-name="パス 291" d="M692.885,173.507h-.024a.205.205,0,0,1-.087-.377l1.146-.735a.205.205,0,0,1,.284.062.206.206,0,0,1-.062.284l-1.146.735a.205.205,0,0,1-.111.033m1.146-1.051a.109.109,0,0,0-.059.018l-1.146.735a.111.111,0,0,0-.033.153.111.111,0,0,0,.08.05.109.109,0,0,0,.073-.017l1.146-.735a.111.111,0,0,0,.033-.153.11.11,0,0,0-.069-.048l-.011,0h-.013" transform="translate(-688.439 -160.735)" fill="#323232"/>
          <path id="パス_292" data-name="パス 292" d="M709.667,174.678a.157.157,0,0,1-.1-.047l-.945-.98a.158.158,0,0,1,.228-.219l.945.981a.158.158,0,0,1-.132.266" transform="translate(-702.601 -161.644)" fill="#221815"/>
          <path id="パス_293" data-name="パス 293" d="M709.6,174.617a.167.167,0,0,1-.1-.05l-.945-.98a.166.166,0,0,1,.24-.231l.945.981a.166.166,0,0,1-.139.281m-.908-1.294a.149.149,0,0,0-.125.252l.945.98a.149.149,0,0,0,.211,0,.149.149,0,0,0,0-.211l-.945-.981a.15.15,0,0,0-.09-.045" transform="translate(-702.532 -161.575)" fill="#323232"/>
          <path id="パス_294" data-name="パス 294" d="M709.3,174.342h-.024a.206.206,0,0,1-.124-.061l-.945-.98a.205.205,0,0,1,.3-.285l.945.98a.205.205,0,0,1-.148.348m-.945-1.3a.111.111,0,0,0-.08.187l.945.98a.111.111,0,1,0,.159-.153l-.945-.98a.11.11,0,0,0-.067-.033h-.013" transform="translate(-702.216 -161.26)" fill="#323232"/>
          <path id="パス_295" data-name="パス 295" d="M693.217,147.762h0a.158.158,0,0,1-.135-.178l.136-.983a.155.155,0,0,1,.178-.135.158.158,0,0,1,.135.178l-.136.983a.158.158,0,0,1-.175.135" transform="translate(-688.793 -137.673)" fill="#221815"/>
          <path id="パス_296" data-name="パス 296" d="M693.146,147.7h0a.167.167,0,0,1-.142-.188l.136-.983a.17.17,0,0,1,.067-.114.159.159,0,0,1,.121-.028.167.167,0,0,1,.142.188l-.136.983a.167.167,0,0,1-.184.143m.168-1.3a.141.141,0,0,0-.1.027.153.153,0,0,0-.06.1l-.136.983a.15.15,0,0,0,.128.168h0a.15.15,0,0,0,.165-.128l.136-.983a.15.15,0,0,0-.128-.168h-.008" transform="translate(-688.724 -137.606)" fill="#323232"/>
          <path id="パス_297" data-name="パス 297" d="M692.849,147.427h-.027a.206.206,0,0,1-.176-.232l.136-.983a.209.209,0,0,1,.083-.14.2.2,0,0,1,.15-.035.205.205,0,0,1,.174.231l-.136.983a.206.206,0,0,1-.2.177m.132-1.3a.1.1,0,0,0-.061.02.115.115,0,0,0-.045.076l-.136.983a.111.111,0,0,0,.219.03l.136-.983a.111.111,0,0,0-.094-.125v-.017h0l0,.017h-.012" transform="translate(-688.408 -137.29)" fill="#323232"/>
          <path id="パス_298" data-name="パス 298" d="M722.036,152.6a.158.158,0,0,1-.138-.175l.094-.8a.158.158,0,0,1,.314.037l-.094.8a.158.158,0,0,1-.175.138" transform="translate(-714.456 -142.144)" fill="#221815"/>
          <path id="パス_299" data-name="パス 299" d="M721.966,152.542a.167.167,0,0,1-.146-.185l.094-.8a.166.166,0,1,1,.331.039l-.094.8a.167.167,0,0,1-.185.146m.131-1.118a.15.15,0,0,0-.166.131l-.094.8a.149.149,0,0,0,.3.035l.094-.8a.15.15,0,0,0-.131-.166" transform="translate(-714.387 -142.074)" fill="#323232"/>
          <path id="パス_300" data-name="パス 300" d="M721.67,152.266h-.024a.205.205,0,0,1-.18-.228l.094-.8a.205.205,0,1,1,.408.048l-.094.8a.206.206,0,0,1-.2.181m.094-1.12a.111.111,0,0,0-.11.1l-.094.8a.111.111,0,0,0,.22.026l.094-.8a.111.111,0,0,0-.1-.123h-.013" transform="translate(-714.071 -141.759)" fill="#323232"/>
          <path id="パス_301" data-name="パス 301" d="M731.4,163.566a.156.156,0,0,1-.092-.044l-.677-.665a.158.158,0,1,1,.221-.225l.676.665a.158.158,0,0,1-.129.27" transform="translate(-722.189 -152.03)" fill="#221815"/>
          <path id="パス_302" data-name="パス 302" d="M731.326,163.506a.165.165,0,0,1-.1-.047l-.676-.665a.167.167,0,0,1,0-.235.167.167,0,0,1,.235,0l.676.665a.166.166,0,0,1-.136.284m-.639-.978a.149.149,0,0,0-.122.255l.676.665a.149.149,0,1,0,.209-.213l-.676-.665a.15.15,0,0,0-.087-.042" transform="translate(-722.12 -151.962)" fill="#323232"/>
          <path id="パス_303" data-name="パス 303" d="M731.03,163.232h-.024a.2.2,0,0,1-.12-.058l-.677-.665a.205.205,0,0,1,.288-.293l.676.665a.205.205,0,0,1-.143.352m-.677-.98a.111.111,0,0,0-.077.189l.676.665a.111.111,0,0,0,.155-.158l-.676-.665a.11.11,0,0,0-.064-.031h-.013" transform="translate(-721.804 -151.648)" fill="#323232"/>
          <path id="パス_304" data-name="パス 304" d="M705.732,138.466a.157.157,0,0,0-.2-.094,1.487,1.487,0,0,1-1.177-.122.157.157,0,0,0-.216.05.156.156,0,0,0,.05.216,1.853,1.853,0,0,0,.708.234,1.612,1.612,0,0,0,.742-.083.157.157,0,0,0,.094-.2" transform="translate(-698.621 -130.338)" fill="#221815"/>
          <path id="パス_305" data-name="パス 305" d="M704.825,138.689a1.86,1.86,0,0,1-.711-.235.165.165,0,0,1-.052-.228.165.165,0,0,1,.227-.053,1.482,1.482,0,0,0,1.17.121.165.165,0,0,1,.112.311,1.621,1.621,0,0,1-.746.083m-.606-.522a.148.148,0,0,0-.143.069.148.148,0,0,0,.047.2,1.841,1.841,0,0,0,.7.233,1.6,1.6,0,0,0,.739-.082.148.148,0,1,0-.1-.279,1.5,1.5,0,0,1-1.185-.123.149.149,0,0,0-.061-.021" transform="translate(-698.553 -130.269)" fill="#323232"/>
          <path id="パス_306" data-name="パス 306" d="M704.709,138.424a1.766,1.766,0,0,1-.205-.012,1.884,1.884,0,0,1-.727-.241.2.2,0,0,1,.216-.346,1.44,1.44,0,0,0,1.136.118.2.2,0,0,1,.139.384,1.637,1.637,0,0,1-.559.1m-.824-.535a.109.109,0,0,0-.107.134.108.108,0,0,0,.049.068,1.791,1.791,0,0,0,.688.227,1.565,1.565,0,0,0,.721-.08.11.11,0,0,0,.066-.14.109.109,0,0,0-.056-.062.108.108,0,0,0-.084,0,1.532,1.532,0,0,1-1.218-.126.106.106,0,0,0-.045-.016h-.013" transform="translate(-698.236 -129.953)" fill="#323232"/>
        </g>
      </g>
      <rect id="長方形_297" data-name="長方形 297" width="42.066" height="60.999" transform="matrix(0.973, -0.229, 0.229, 0.973, 0.543, 16.899)" fill="#fff"/>
      <g id="グループ_488" data-name="グループ 488">
        <g id="グループ_487" data-name="グループ 487" clip-path="url(#clip-path)">
          <g id="グループ_483" data-name="グループ 483" transform="translate(0 15.21)" style="isolation: isolate">
            <g id="グループ_482" data-name="グループ 482">
              <g id="グループ_481" data-name="グループ 481" clip-path="url(#clip-path-33)">
                <path id="パス_307" data-name="パス 307" d="M14.507,200.488a.544.544,0,0,1-.528-.419L.014,140.69a.543.543,0,0,1,.4-.653l4.872-1.146a.543.543,0,1,1,.249,1.058L1.2,140.971l13.716,58.321,29.418-6.918a.543.543,0,0,1,.249,1.058l-29.947,7.043a.544.544,0,0,1-.125.015" transform="translate(0 -138.877)" fill="#323232"/>
              </g>
            </g>
          </g>
          <g id="グループ_486" data-name="グループ 486" transform="translate(8.076 6.726)" style="isolation: isolate">
            <g id="グループ_485" data-name="グループ 485">
              <g id="グループ_484" data-name="グループ 484" clip-path="url(#clip-path-34)">
                <path id="パス_308" data-name="パス 308" d="M113.019,123.781a.543.543,0,0,1-.124-1.072l7.572-1.781L106.752,62.607,74.408,70.213a.543.543,0,0,1-.249-1.058l32.873-7.731a.543.543,0,0,1,.653.4l13.965,59.379a.543.543,0,0,1-.4.653l-8.1,1.905a.543.543,0,0,1-.125.015" transform="translate(-73.74 -61.41)" fill="#323232"/>
              </g>
            </g>
          </g>
        </g>
      </g>
      <rect id="長方形_301" data-name="長方形 301" width="32.133" height="4.194" transform="matrix(0.973, -0.229, 0.229, 0.973, 9.832, 34.295)" fill="#fff"/>
      <g id="グループ_490" data-name="グループ 490">
        <g id="グループ_489" data-name="グループ 489" clip-path="url(#clip-path)">
          <path id="パス_309" data-name="パス 309" d="M87.572,254.632a.388.388,0,0,1-.378-.3l-.96-4.083a.388.388,0,0,1,.289-.467l31.279-7.356a.388.388,0,0,1,.467.289l.96,4.082a.388.388,0,0,1-.289.467l-31.279,7.356a.388.388,0,0,1-.089.01m-.494-4.182.782,3.327,30.524-7.179-.782-3.327Z" transform="translate(-76.78 -215.866)" fill="#323232"/>
        </g>
      </g>
      <rect id="長方形_303" data-name="長方形 303" width="32.133" height="4.194" transform="matrix(0.973, -0.229, 0.229, 0.973, 10.792, 38.377)" fill="#fff"/>
      <g id="グループ_492" data-name="グループ 492">
        <g id="グループ_491" data-name="グループ 491" clip-path="url(#clip-path)">
          <path id="パス_310" data-name="パス 310" d="M96.339,291.907a.388.388,0,0,1-.377-.3L95,287.525a.388.388,0,0,1,.289-.467L126.57,279.7a.388.388,0,0,1,.467.289l.96,4.082a.388.388,0,0,1-.289.467L96.428,291.9a.392.392,0,0,1-.089.01m-.493-4.182.783,3.327,30.524-7.179-.782-3.327Z" transform="translate(-84.588 -249.059)" fill="#323232"/>
        </g>
      </g>
      <rect id="長方形_305" data-name="長方形 305" width="32.133" height="4.194" transform="translate(11.752 42.46) rotate(-13.234)" fill="#fff"/>
      <g id="グループ_494" data-name="グループ 494">
        <g id="グループ_493" data-name="グループ 493" clip-path="url(#clip-path)">
          <path id="パス_311" data-name="パス 311" d="M105.105,329.182a.388.388,0,0,1-.378-.3l-.96-4.082a.388.388,0,0,1,.289-.467l31.279-7.356a.388.388,0,0,1,.467.289l.96,4.082a.388.388,0,0,1-.289.467l-31.279,7.356a.386.386,0,0,1-.089.01M104.612,325l.782,3.327,30.524-7.179-.782-3.327Z" transform="translate(-92.393 -282.252)" fill="#323232"/>
        </g>
      </g>
      <rect id="長方形_307" data-name="長方形 307" width="32.133" height="4.194" transform="matrix(0.973, -0.229, 0.229, 0.973, 12.712, 46.542)" fill="#fff"/>
      <g id="グループ_496" data-name="グループ 496">
        <g id="グループ_495" data-name="グループ 495" clip-path="url(#clip-path)">
          <path id="パス_312" data-name="パス 312" d="M113.871,366.456a.388.388,0,0,1-.377-.3l-.96-4.083a.388.388,0,0,1,.289-.467l31.279-7.356a.388.388,0,0,1,.467.289l.96,4.083a.388.388,0,0,1-.289.467l-31.279,7.356a.389.389,0,0,1-.089.01m-.493-4.182.782,3.327,30.524-7.179L143.9,355.1Z" transform="translate(-100.199 -315.444)" fill="#323232"/>
        </g>
      </g>
      <rect id="長方形_309" data-name="長方形 309" width="32.133" height="4.194" transform="translate(13.672 50.625) rotate(-13.234)" fill="#fff"/>
      <g id="グループ_498" data-name="グループ 498">
        <g id="グループ_497" data-name="グループ 497" clip-path="url(#clip-path)">
          <path id="パス_313" data-name="パス 313" d="M122.638,403.73a.388.388,0,0,1-.377-.3l-.96-4.082a.388.388,0,0,1,.289-.467l31.279-7.356a.388.388,0,0,1,.467.289l.96,4.082a.388.388,0,0,1-.289.467l-31.279,7.356a.39.39,0,0,1-.089.01m-.493-4.182.782,3.327,30.524-7.178-.782-3.327Z" transform="translate(-108.006 -348.635)" fill="#323232"/>
        </g>
      </g>
      <rect id="長方形_311" data-name="長方形 311" width="32.133" height="4.194" transform="translate(14.632 54.707) rotate(-13.234)" fill="#fff"/>
      <g id="グループ_500" data-name="グループ 500">
        <g id="グループ_499" data-name="グループ 499" clip-path="url(#clip-path)">
          <path id="パス_314" data-name="パス 314" d="M131.4,441.007a.388.388,0,0,1-.377-.3l-.96-4.082a.388.388,0,0,1,.289-.467l31.279-7.356a.388.388,0,0,1,.467.289l.96,4.082a.388.388,0,0,1-.289.467L131.493,441a.389.389,0,0,1-.089.01m-.493-4.182.783,3.327,30.524-7.178-.782-3.327Z" transform="translate(-115.812 -381.829)" fill="#323232"/>
        </g>
      </g>
      <rect id="長方形_313" data-name="長方形 313" width="32.133" height="4.194" transform="translate(15.592 58.79) rotate(-13.234)" fill="#fff"/>
      <g id="グループ_502" data-name="グループ 502">
        <g id="グループ_501" data-name="グループ 501" clip-path="url(#clip-path)">
          <path id="パス_315" data-name="パス 315" d="M140.171,478.281a.388.388,0,0,1-.378-.3l-.96-4.082a.388.388,0,0,1,.289-.467l31.279-7.356a.388.388,0,0,1,.467.289l.96,4.082a.388.388,0,0,1-.289.467l-31.279,7.356a.388.388,0,0,1-.089.01m-.494-4.182.782,3.327,30.524-7.178-.782-3.327Z" transform="translate(-123.618 -415.021)" fill="#323232"/>
        </g>
      </g>
      <rect id="長方形_315" data-name="長方形 315" width="32.133" height="4.194" transform="translate(16.552 62.872) rotate(-13.234)" fill="#fff"/>
      <g id="グループ_504" data-name="グループ 504">
        <g id="グループ_503" data-name="グループ 503" clip-path="url(#clip-path)">
          <path id="パス_316" data-name="パス 316" d="M148.937,515.556a.388.388,0,0,1-.377-.3l-.96-4.082a.388.388,0,0,1,.289-.467l31.279-7.356a.388.388,0,0,1,.467.289l.96,4.082a.388.388,0,0,1-.289.467l-31.279,7.356a.389.389,0,0,1-.089.01m-.493-4.182.783,3.327,30.524-7.178-.782-3.327Z" transform="translate(-131.425 -448.213)" fill="#323232"/>
        </g>
      </g>
      <rect id="長方形_317" data-name="長方形 317" width="32.133" height="4.194" transform="matrix(0.973, -0.229, 0.229, 0.973, 17.513, 66.955)" fill="#fff"/>
      <g id="グループ_506" data-name="グループ 506">
        <g id="グループ_505" data-name="グループ 505" clip-path="url(#clip-path)">
          <path id="パス_317" data-name="パス 317" d="M157.7,552.832a.388.388,0,0,1-.377-.3l-.96-4.082a.388.388,0,0,1,.289-.467l31.279-7.356a.388.388,0,0,1,.467.289l.96,4.083a.388.388,0,0,1-.289.467l-31.279,7.356a.394.394,0,0,1-.089.01m-.493-4.182.782,3.327,30.524-7.178-.782-3.327Z" transform="translate(-139.23 -481.407)" fill="#323232"/>
        </g>
      </g>
      <rect id="長方形_319" data-name="長方形 319" width="19.489" height="3.701" transform="translate(6.206 19.688) rotate(-13.234)" fill="#fff"/>
      <g id="グループ_508" data-name="グループ 508">
        <g id="グループ_507" data-name="グループ 507" clip-path="url(#clip-path)">
          <path id="パス_318" data-name="パス 318" d="M54.359,144.319a.388.388,0,0,1-.377-.3l-.847-3.6a.388.388,0,0,1,.289-.467L72.4,135.489a.388.388,0,0,1,.467.289l.847,3.6a.388.388,0,0,1-.289.467l-18.972,4.462a.388.388,0,0,1-.089.01m-.38-3.7.67,2.847,18.216-4.284-.669-2.847Z" transform="translate(-47.306 -120.641)" fill="#323232"/>
        </g>
      </g>
      <rect id="長方形_321" data-name="長方形 321" width="19.489" height="5.921" transform="translate(7.054 23.29) rotate(-13.234)" fill="#fff"/>
      <g id="グループ_513" data-name="グループ 513">
        <g id="グループ_512" data-name="グループ 512" clip-path="url(#clip-path)">
          <path id="パス_319" data-name="パス 319" d="M62.6,179.37a.388.388,0,0,1-.378-.3l-1.356-5.764a.388.388,0,0,1,.289-.467l18.972-4.462a.388.388,0,0,1,.467.289l1.355,5.764a.388.388,0,0,1-.289.467L62.691,179.36a.387.387,0,0,1-.089.01m-.889-5.863,1.178,5.008,18.216-4.284-1.178-5.008Z" transform="translate(-54.193 -149.929)" fill="#323232"/>
          <g id="グループ_511" data-name="グループ 511" transform="translate(17.481 32.523)" style="isolation: isolate">
            <g id="グループ_510" data-name="グループ 510">
              <g id="グループ_509" data-name="グループ 509" clip-path="url(#clip-path-46)">
                <path id="パス_320" data-name="パス 320" d="M168.528,333.988a.388.388,0,0,1-.377-.3l-8.528-36.262a.388.388,0,1,1,.756-.178l8.528,36.262a.388.388,0,0,1-.289.467.382.382,0,0,1-.089.01" transform="translate(-159.612 -296.95)" fill="#323232"/>
              </g>
            </g>
          </g>
        </g>
      </g>
      <rect id="長方形_324" data-name="長方形 324" width="11.441" height="13.673" transform="translate(26.54 14.587) rotate(-13.234)" fill="#c8c9c9"/>
      <rect id="長方形_325" data-name="長方形 325" width="11.441" height="13.673" transform="translate(26.54 14.587) rotate(-13.234)" fill="#dbdcdc"/>
      <g id="グループ_518" data-name="グループ 518" transform="translate(26.54 11.968)">
        <g id="グループ_517" data-name="グループ 517" transform="translate(0 0)" clip-path="url(#clip-path-47)">
          <g id="グループ_516" data-name="グループ 516" transform="translate(1.17 10.343)" style="isolation: isolate">
            <g id="グループ_515" data-name="グループ 515">
              <g id="グループ_514" data-name="グループ 514" clip-path="url(#clip-path-48)">
                <path id="パス_321" data-name="パス 321" d="M272.151,215.474l-3.709-9.088a1.833,1.833,0,0,0-.079-.212l-.02-.044c-.014-.03-.03-.063-.047-.1a2.45,2.45,0,0,0-.164-.275q-.04-.058-.086-.116l-.048-.058a1.786,1.786,0,0,0-.838-.565,1.726,1.726,0,0,0-.206-.05l-3.765-.517h0l.006-.011-.027,0-.786-.636a.428.428,0,0,0-.36-.085l-4.355.944a.428.428,0,0,0-.3.234l-.486,1.02-.026.009.01.007h0l-3.139,2.141a1.738,1.738,0,0,0-.162.136,1.785,1.785,0,0,0-.5.88c-.006.025-.012.049-.017.073q-.015.073-.025.142a2.449,2.449,0,0,0-.025.319c0,.038,0,.074,0,.107q0,.025,0,.048a1.8,1.8,0,0,0,.023.225l.731,9.789q.036.246.088.489l18.444-4.338q-.062-.24-.139-.476" transform="translate(-253.001 -203.712)" fill="#3a8fb7"/>
              </g>
            </g>
          </g>
        </g>
      </g>
      <path id="パス_322" data-name="パス 322" d="M297.465,200l-1.643.233-.287.76,1.71,3.511,2.7-.635.05-3.924-.379-.451Z" transform="translate(-263.167 -177.647)" fill="#fff"/>
      <g id="グループ_520" data-name="グループ 520" transform="translate(26.54 11.968)">
        <g id="グループ_519" data-name="グループ 519" transform="translate(0 0)" clip-path="url(#clip-path-47)">
          <path id="パス_323" data-name="パス 323" d="M310.457,227.064a.17.17,0,0,0-.132-.016.172.172,0,0,0-.1.082l-.642,1.145a.175.175,0,0,0,.066.237.173.173,0,0,0,.236-.066l.642-1.145a.174.174,0,0,0-.066-.237" transform="translate(-302.192 -214.143)" fill="#221815"/>
          <path id="パス_324" data-name="パス 324" d="M309.7,228.47a.182.182,0,0,1-.2-.267l.642-1.145a.181.181,0,0,1,.248-.069.183.183,0,0,1,.069.248l-.642,1.145a.182.182,0,0,1-.117.088m.564-1.484-.008,0a.163.163,0,0,0-.1.078l-.642,1.145a.166.166,0,0,0,.063.225.164.164,0,0,0,.224-.063l.642-1.145a.166.166,0,0,0-.063-.225.161.161,0,0,0-.117-.017" transform="translate(-302.122 -214.074)" fill="#323232"/>
          <path id="パス_325" data-name="パス 325" d="M309.343,228.2a.219.219,0,0,1-.108-.029.222.222,0,0,1-.084-.3l.642-1.145a.22.22,0,0,1,.3-.084.222.222,0,0,1,.084.3l-.642,1.145a.22.22,0,0,1-.193.113m.608-1.506v.018a.125.125,0,0,0-.077.06l-.642,1.145a.127.127,0,0,0,.048.172.125.125,0,0,0,.171-.048l.642-1.145a.127.127,0,0,0-.048-.172.123.123,0,0,0-.089-.013l0-.017h0m0,0,0,.017Zm0-.021h0Z" transform="translate(-301.806 -213.759)" fill="#323232"/>
          <path id="パス_326" data-name="パス 326" d="M341.53,221.549a.16.16,0,0,1-.082,0,.163.163,0,0,1-.11-.2l1.129-7.006-.916-.57a.163.163,0,0,1-.02-.261l.94-.806-.677-1.7a.162.162,0,1,1,.307-.1l.712,1.8a.162.162,0,0,1-.048.175l-.854.732.833.518a.163.163,0,0,1,.07.184l-1.163,7.125a.162.162,0,0,1-.118.112" transform="translate(-330.487 -199.672)" fill="#221815"/>
          <path id="パス_327" data-name="パス 327" d="M341.463,221.487a.171.171,0,0,1-.2-.215l1.128-7-.912-.566a.171.171,0,0,1-.021-.275l.935-.8-.675-1.691a.171.171,0,0,1,.107-.217.167.167,0,0,1,.129.009.171.171,0,0,1,.087.1l.712,1.8a.17.17,0,0,1-.051.185l-.845.725.823.511a.172.172,0,0,1,.074.194l-1.163,7.124a.171.171,0,0,1-.125.119m.38-10.754-.014,0a.154.154,0,0,0-.1.194l.677,1.7a.009.009,0,0,1,0,.01l-.94.806a.154.154,0,0,0,.019.247l.917.57a.009.009,0,0,1,0,.009l-1.129,7.006a.155.155,0,0,0,.1.192.153.153,0,0,0,.19-.1l1.163-7.124a.155.155,0,0,0-.066-.175l-.833-.517a.008.008,0,0,1,0-.007.009.009,0,0,1,0-.007l.854-.732a.153.153,0,0,0,.046-.165l-.712-1.8a.154.154,0,0,0-.078-.09.151.151,0,0,0-.1-.012" transform="translate(-330.418 -199.602)" fill="#323232"/>
          <path id="パス_328" data-name="パス 328" d="M341.107,221.213a.21.21,0,0,1-.2-.269l1.122-6.969-.89-.553a.21.21,0,0,1-.026-.338l.914-.784-.665-1.665a.211.211,0,0,1,.131-.268.2.2,0,0,1,.159.011.208.208,0,0,1,.106.122l.711,1.8a.21.21,0,0,1-.061.228l-.805.69.778.483a.211.211,0,0,1,.091.237l-1.162,7.119a.208.208,0,0,1-.2.156m.427-10.759-.011,0a.115.115,0,0,0-.072.145l.676,1.695a.048.048,0,0,1-.013.053l-.94.806a.115.115,0,0,0,.014.185l.917.569a.057.057,0,0,1,.022.048L341,220.965a.117.117,0,0,0,.077.148.11.11,0,0,0,.058,0,.115.115,0,0,0,.084-.08l1.162-7.119a.118.118,0,0,0-.049-.136l-.833-.518a.056.056,0,0,1-.022-.037.047.047,0,0,1,.016-.039l.855-.733a.114.114,0,0,0,.034-.124l-.711-1.8a.117.117,0,0,0-.059-.069.111.111,0,0,0-.076-.009" transform="translate(-330.101 -199.285)" fill="#323232"/>
          <path id="パス_329" data-name="パス 329" d="M293.624,232.655a.162.162,0,0,1-.151-.042l-3.645-4.6a.163.163,0,0,1-.026-.2l.553-.938-1.013-.113a.162.162,0,0,1-.143-.14l-.179-1.365-.062-.624a.162.162,0,1,1,.32-.046l.062.626.163,1.241,1.136.127a.163.163,0,0,1,.122.244l-.616,1.045,3.554,4.514a.162.162,0,0,1-.076.274" transform="translate(-283.849 -211.831)" fill="#221815"/>
          <path id="パス_330" data-name="パス 330" d="M293.556,232.594a.169.169,0,0,1-.159-.045l-3.645-4.6a.171.171,0,0,1-.027-.208l.546-.926-1-.111a.171.171,0,0,1-.151-.148l-.179-1.365-.062-.624a.171.171,0,1,1,.338-.049l.062.626.162,1.234,1.129.126a.171.171,0,0,1,.128.257l-.613,1.04,3.551,4.51a.171.171,0,0,1,0,.241.169.169,0,0,1-.082.047m-4.542-8.205a.154.154,0,0,0-.117.172l.062.624.179,1.365a.153.153,0,0,0,.135.133l1.013.113a.009.009,0,0,1,.007.013l-.553.938a.154.154,0,0,0,.025.188l3.645,4.6a.153.153,0,0,0,.216,0,.154.154,0,0,0,0-.217l-3.555-4.515a.009.009,0,0,1,0-.01l.616-1.045a.154.154,0,0,0-.115-.231l-1.136-.127a.009.009,0,0,1-.008-.007l-.163-1.241-.063-.626a.153.153,0,0,0-.174-.13l-.013,0" transform="translate(-283.779 -211.761)" fill="#323232"/>
          <path id="パス_331" data-name="パス 331" d="M293.2,232.321a.209.209,0,0,1-.147-.06l-3.649-4.608a.207.207,0,0,1-.03-.252l.515-.875-.94-.1a.21.21,0,0,1-.185-.181l-.179-1.365-.062-.625a.21.21,0,0,1,.177-.236.21.21,0,0,1,.237.178l.063.628.158,1.2,1.1.122a.21.21,0,0,1,.158.315l-.6,1.017,3.534,4.489a.21.21,0,0,1-.1.349h0a.209.209,0,0,1-.048.006m-4.494-8.211a.115.115,0,0,0-.087.128l.062.626.178,1.364a.115.115,0,0,0,.1.1l1.013.113a.057.057,0,0,1,.037.026.046.046,0,0,1,0,.045l-.552.938a.115.115,0,0,0,.018.14l3.649,4.608a.115.115,0,0,0,.158-.006.115.115,0,0,0,0-.163l-3.558-4.519a.047.047,0,0,1,0-.053l.616-1.045a.115.115,0,0,0-.086-.173l-1.136-.127a.047.047,0,0,1-.042-.041l-.163-1.241-.063-.627a.115.115,0,0,0-.13-.1Z" transform="translate(-283.461 -211.445)" fill="#323232"/>
        </g>
      </g>
      <g id="グループ_522" data-name="グループ 522" transform="translate(34.36 25.132)">
        <g id="グループ_521" data-name="グループ 521" clip-path="url(#clip-path-50)">
          <path id="パス_332" data-name="パス 332" d="M312.709,226.347a.138.138,0,0,1-.1-.015.139.139,0,0,1-.05-.19l1.475-2.538a.139.139,0,0,1,.239.14l-1.475,2.538a.138.138,0,0,1-.088.065" transform="translate(-312.668 -224.184)" fill="#898989"/>
          <path id="パス_333" data-name="パス 333" d="M314.569,234.255a.138.138,0,0,1-.1-.015.139.139,0,0,1-.05-.19l1.475-2.538a.139.139,0,1,1,.239.14l-1.475,2.538a.138.138,0,0,1-.088.065" transform="translate(-314.324 -231.226)" fill="#898989"/>
          <path id="パス_334" data-name="パス 334" d="M316.429,242.164a.138.138,0,0,1-.1-.015.139.139,0,0,1-.05-.19l1.475-2.538a.139.139,0,1,1,.239.14l-1.475,2.538a.138.138,0,0,1-.088.065" transform="translate(-315.981 -238.269)" fill="#898989"/>
          <path id="パス_335" data-name="パス 335" d="M318.289,250.072a.138.138,0,0,1-.1-.015.139.139,0,0,1-.05-.19l1.474-2.538a.139.139,0,0,1,.239.14l-1.475,2.538a.138.138,0,0,1-.088.065" transform="translate(-317.637 -245.311)" fill="#898989"/>
          <path id="パス_336" data-name="パス 336" d="M320.149,257.981a.138.138,0,0,1-.1-.015.139.139,0,0,1-.05-.19l1.475-2.538a.139.139,0,1,1,.239.14l-1.475,2.538a.137.137,0,0,1-.088.065" transform="translate(-319.294 -252.354)" fill="#898989"/>
          <path id="パス_337" data-name="パス 337" d="M323.773,273.395a.139.139,0,0,1-.151-.205l1.475-2.538a.139.139,0,1,1,.239.14l-1.475,2.538a.137.137,0,0,1-.088.065" transform="translate(-322.52 -266.079)" fill="#898989"/>
          <path id="パス_338" data-name="パス 338" d="M325.7,281.57a.137.137,0,0,1-.1-.015.139.139,0,0,1-.05-.19l1.475-2.538a.139.139,0,1,1,.239.14l-1.475,2.538a.138.138,0,0,1-.088.065" transform="translate(-324.233 -273.359)" fill="#898989"/>
          <path id="パス_339" data-name="パス 339" d="M322.009,265.891a.137.137,0,0,1-.1-.015.139.139,0,0,1-.05-.19l1.475-2.538a.139.139,0,0,1,.239.14l-1.475,2.538a.137.137,0,0,1-.088.065" transform="translate(-320.949 -259.397)" fill="#898989"/>
        </g>
      </g>
      <g id="グループ_536" data-name="グループ 536" transform="translate(26.54 11.968)">
        <g id="グループ_535" data-name="グループ 535" transform="translate(0 0)" clip-path="url(#clip-path-47)">
          <path id="パス_341" data-name="パス 341" d="M314.321,234.214l-.367-.41a.143.143,0,0,0-.2-.011.145.145,0,0,0-.011.2l.334.373.066,1.861a.144.144,0,0,0,.154.133l.023,0a.143.143,0,0,0,.11-.15l-.07-1.91a.145.145,0,0,0-.036-.086" transform="translate(-305.886 -220.123)" fill="#221815"/>
          <path id="パス_342" data-name="パス 342" d="M314.249,236.3l-.024,0a.153.153,0,0,1-.163-.141L314,234.3l-.332-.37a.153.153,0,0,1,.011-.216.152.152,0,0,1,.215.012l.367.41a.154.154,0,0,1,.039.091l.07,1.911a.151.151,0,0,1-.117.159m-.5-2.6a.135.135,0,0,0-.069.222l.334.373a.009.009,0,0,1,0,.005l.066,1.861a.135.135,0,0,0,.144.125l.021,0a.134.134,0,0,0,.1-.141l-.07-1.911a.136.136,0,0,0-.034-.08l-.367-.41a.135.135,0,0,0-.132-.041" transform="translate(-305.816 -220.053)" fill="#323232"/>
          <path id="パス_343" data-name="パス 343" d="M313.9,236.027a.192.192,0,0,1-.191-.178L313.642,234l-.322-.36a.191.191,0,0,1,.152-.319.19.19,0,0,1,.132.063l.367.41a.193.193,0,0,1,.048.114l.07,1.912a.189.189,0,0,1-.147.2l-.03,0H313.9m-.437-2.607-.022,0a.094.094,0,0,0-.042.022.1.1,0,0,0-.007.136l.334.373a.057.057,0,0,1,.012.03l.066,1.861a.1.1,0,0,0,.1.088l.015,0a.1.1,0,0,0,.073-.1l-.07-1.912a.1.1,0,0,0-.024-.056l-.367-.41a.1.1,0,0,0-.067-.032h-.005" transform="translate(-305.5 -219.738)" fill="#323232"/>
          <path id="パス_344" data-name="パス 344" d="M326.578,233.065l-.676-1.755.133-.483a.144.144,0,0,0-.1-.177.144.144,0,0,0-.177.1l-.146.53a.145.145,0,0,0,.006.093l.694,1.8a.143.143,0,0,0,.166.086l.022-.007a.144.144,0,0,0,.078-.188" transform="translate(-316.485 -217.351)" fill="#221815"/>
          <path id="パス_345" data-name="パス 345" d="M326.408,233.2a.152.152,0,0,1-.176-.091l-.694-1.8a.152.152,0,0,1-.006-.1l.146-.53a.152.152,0,1,1,.294.081l-.132.48.675,1.752a.153.153,0,0,1-.083.2l-.023.007m-.614-2.611a.137.137,0,0,0-.036.014.135.135,0,0,0-.064.082l-.146.53a.136.136,0,0,0,.005.087l.694,1.8a.134.134,0,0,0,.156.08l.02-.007A.135.135,0,0,0,326.5,233h0l-.676-1.755a.01.01,0,0,1,0-.005l.133-.483a.135.135,0,0,0-.161-.168" transform="translate(-316.414 -217.281)" fill="#323232"/>
          <path id="パス_346" data-name="パス 346" d="M326.057,232.926a.19.19,0,0,1-.176-.119l-.695-1.8a.191.191,0,0,1-.007-.123l.146-.53a.191.191,0,0,1,.235-.134.192.192,0,0,1,.133.236l-.128.468.67,1.741a.191.191,0,0,1-.1.249l-.029.009a.191.191,0,0,1-.044.005m-.548-2.619-.022,0h0a.1.1,0,0,0-.026.01.1.1,0,0,0-.045.058l-.146.53a.1.1,0,0,0,0,.062l.695,1.8a.1.1,0,0,0,.111.057l.015,0a.1.1,0,0,0,.052-.126l-.676-1.756a.057.057,0,0,1,0-.03l.132-.482a.1.1,0,0,0-.067-.119.092.092,0,0,0-.026,0" transform="translate(-316.098 -216.967)" fill="#323232"/>
          <path id="パス_347" data-name="パス 347" d="M322.31,226.512l-1.085-.739a.173.173,0,0,0-.241.046.174.174,0,0,0,.046.241l1.085.739a.173.173,0,1,0,.194-.287" transform="translate(-312.341 -212.987)" fill="#221815"/>
          <path id="パス_348" data-name="パス 348" d="M322.183,226.763a.182.182,0,0,1-.144-.027L320.954,226a.182.182,0,0,1,.068-.33.18.18,0,0,1,.136.028l1.085.739a.183.183,0,0,1,.049.253.181.181,0,0,1-.109.075m-1.165-1.077a.163.163,0,0,0-.1.068.166.166,0,0,0,.044.229l1.085.739a.165.165,0,1,0,.185-.273l-1.085-.739a.163.163,0,0,0-.123-.026h-.006" transform="translate(-312.271 -212.916)" fill="#323232"/>
          <path id="パス_349" data-name="パス 349" d="M321.826,226.492a.222.222,0,0,1-.124-.038l-1.085-.739a.222.222,0,0,1-.059-.307.22.22,0,0,1,.307-.059l1.085.739a.222.222,0,0,1,.059.307.221.221,0,0,1-.183.1m-1.118-1.1,0,.017a.125.125,0,0,0-.075.052.127.127,0,0,0,.034.175l1.085.739a.125.125,0,0,0,.175-.034.127.127,0,0,0-.034-.175l-1.086-.739a.123.123,0,0,0-.094-.02l-.006-.016h0" transform="translate(-311.955 -212.602)" fill="#323232"/>
          <g id="グループ_525" data-name="グループ 525" transform="translate(3.125 1.848)" style="isolation: isolate">
            <g id="グループ_524" data-name="グループ 524">
              <g id="グループ_523" data-name="グループ 523" clip-path="url(#clip-path-52)">
                <path id="パス_350" data-name="パス 350" d="M275.736,126.649a.117.117,0,0,1-.058-.18l0-.007a.189.189,0,0,0,.009-.206.187.187,0,0,0-.184-.095,4.93,4.93,0,0,1-.863-.013h-.018a2.324,2.324,0,0,0-2.124,1.14.115.115,0,0,1-.052.046,2.64,2.64,0,0,0-1.487,1.584,4.087,4.087,0,0,0,.637,3.131c.005-.013.018-.013.035,0a.4.4,0,0,1,.216-.245.365.365,0,0,1,.2-.021l-.071-.7c-.063-1.141-.133-1.393.564-2a3.55,3.55,0,0,0,.673-.687c1.179-.918,2.35-.232,3.258.653,0,0,.5.349.39.427.057.077.222.367.359.631a4.213,4.213,0,0,1,.2.419.363.363,0,0,1,.185-.069.421.421,0,0,1,.34.162c0-.745-.061-1.593-.066-1.626l0-.01a3.1,3.1,0,0,0-2.142-2.325" transform="translate(-270.856 -126.147)" fill="#3a8fb7"/>
              </g>
            </g>
          </g>
          <path id="パス_351" data-name="パス 351" d="M294.687,190.085l-.581-2.138,3.569-.839.564,2.064a8.819,8.819,0,0,1-1.448,2.184,9.857,9.857,0,0,1-2.1-1.271" transform="translate(-288.434 -178.582)" fill="#fff"/>
          <path id="パス_352" data-name="パス 352" d="M295.576,190.254a.153.153,0,0,1-.1-.008,9.912,9.912,0,0,1-2.141-1.293.155.155,0,0,1-.051-.079l-.581-2.138a.154.154,0,0,1,.113-.19l3.569-.839a.154.154,0,0,1,.184.109l.564,2.064a.153.153,0,0,1-.009.105,8.851,8.851,0,0,1-1.481,2.231.154.154,0,0,1-.071.038m-2-1.509a9.828,9.828,0,0,0,1.935,1.176,8.818,8.818,0,0,0,1.317-2.016l-.51-1.866-3.269.769Z" transform="translate(-287.184 -177.332)" fill="#221815"/>
          <path id="パス_353" data-name="パス 353" d="M295.508,190.191a.161.161,0,0,1-.1-.008,9.956,9.956,0,0,1-2.143-1.294.161.161,0,0,1-.054-.083l-.581-2.139a.163.163,0,0,1,.12-.2l3.569-.839a.162.162,0,0,1,.194.115l.564,2.064a.163.163,0,0,1-.009.111,8.887,8.887,0,0,1-1.483,2.233.162.162,0,0,1-.075.04m-2.755-3.708a.145.145,0,0,0-.107.179l.581,2.138a.144.144,0,0,0,.048.074,9.938,9.938,0,0,0,2.138,1.292.148.148,0,0,0,.156-.028,8.865,8.865,0,0,0,1.479-2.228.144.144,0,0,0,.008-.1l-.564-2.064a.145.145,0,0,0-.173-.1Zm2.687,3.376h-.006a9.9,9.9,0,0,1-1.937-1.177.008.008,0,0,1,0,0l-.527-1.937a.009.009,0,0,1,.006-.011l3.269-.769a.009.009,0,0,1,.01.006l.51,1.866a.008.008,0,0,1,0,.006,8.9,8.9,0,0,1-1.319,2.018l0,0m-1.929-1.189a9.888,9.888,0,0,0,1.925,1.17,8.9,8.9,0,0,0,1.31-2.006l-.507-1.854-3.252.765Z" transform="translate(-287.114 -177.26)" fill="#323232"/>
          <path id="パス_354" data-name="パス 354" d="M295.155,189.919a.2.2,0,0,1-.078-.016,9.991,9.991,0,0,1-2.152-1.3.2.2,0,0,1-.067-.1l-.581-2.139a.2.2,0,0,1,.148-.249l3.568-.839a.2.2,0,0,1,.24.143l.564,2.064a.2.2,0,0,1-.012.138,8.925,8.925,0,0,1-1.492,2.245.2.2,0,0,1-.092.05.2.2,0,0,1-.046.005m.885-4.556-.025,0-3.568.839h0a.106.106,0,0,0-.078.131l.581,2.139a.106.106,0,0,0,.035.054,9.922,9.922,0,0,0,2.129,1.286.108.108,0,0,0,.114-.021,8.832,8.832,0,0,0,1.471-2.216.106.106,0,0,0,.006-.073l-.564-2.064a.106.106,0,0,0-.1-.078m-.916,4.219a.056.056,0,0,1-.022,0,9.929,9.929,0,0,1-1.944-1.182.056.056,0,0,1-.016-.025l-.527-1.937a.058.058,0,0,1,0-.036.048.048,0,0,1,.03-.022l3.269-.769a.047.047,0,0,1,.056.033l.51,1.866a.058.058,0,0,1,0,.034,8.946,8.946,0,0,1-1.326,2.028.057.057,0,0,1-.023.013h-.009m-1.895-1.25a9.869,9.869,0,0,0,1.883,1.146,8.931,8.931,0,0,0,1.277-1.964l-.493-1.8-3.177.747Z" transform="translate(-286.799 -176.945)" fill="#323232"/>
          <path id="パス_355" data-name="パス 355" d="M279.2,142.589c1.179-.918,2.393-.434,3.3.451,0,0,.457.55.348.628.057.077.222.367.359.631a4.231,4.231,0,0,1,.2.419.363.363,0,0,1,.185-.069c.287-.02.542.33.569.781s-.123,1.094-.411,1.114a.347.347,0,0,1-.133-.018,3.412,3.412,0,0,1-1.054,2.4,2,2,0,0,1-1.9.446,3.412,3.412,0,0,1-2.015-1.682.347.347,0,0,1-.111.075c-.266.11-.687-.4-.864-.814s-.1-.842.161-.953a.365.365,0,0,1,.2-.02l-.071-.7c-.063-1.141-.133-1.393.564-2a3.552,3.552,0,0,0,.673-.687" transform="translate(-273.721 -138.5)" fill="#fff"/>
          <path id="パス_356" data-name="パス 356" d="M282.686,156.17a.55.55,0,0,0-.4-.148h0a.45.45,0,0,0-.085.014,4.439,4.439,0,0,0-.52-.931.161.161,0,0,0-.222-.033.156.156,0,0,0-.064.1.151.151,0,0,0,.028.115,4.078,4.078,0,0,1,.532.994l.087.588a.152.152,0,0,0,.061.1.161.161,0,0,0,.255-.148l-.072-.488.021,0a.24.24,0,0,1,.17.071.839.839,0,0,1,.23.566c.027.468-.144.94-.261.948a.186.186,0,0,1-.071-.01.163.163,0,0,0-.144.021.157.157,0,0,0-.068.127,3.249,3.249,0,0,1-1,2.291,1.827,1.827,0,0,1-1.739.411,3.25,3.25,0,0,1-1.922-1.6.157.157,0,0,0-.117-.083.163.163,0,0,0-.138.045.184.184,0,0,1-.059.041c-.107.044-.472-.3-.656-.732a.839.839,0,0,1-.046-.609.239.239,0,0,1,.12-.139l.02-.006.153.469a.159.159,0,0,0,.187.1l.013,0a.16.16,0,0,0,.094-.08.152.152,0,0,0,.009-.117l-.187-.574-.132-.46a.157.157,0,0,0-.2-.106.16.16,0,0,0-.1.076.152.152,0,0,0-.014.117l.08.277a.519.519,0,0,0-.052.018.55.55,0,0,0-.3.312,1.12,1.12,0,0,0,.049.845c.168.394.65,1.058,1.063.9a3.553,3.553,0,0,0,2.021,1.607,2.166,2.166,0,0,0,1.1.029,2.133,2.133,0,0,0,.957-.512,3.56,3.56,0,0,0,1.1-2.342c.016,0,.032,0,.048-.008.426-.1.523-.915.5-1.271a1.119,1.119,0,0,0-.333-.778" transform="translate(-272.416 -150.029)" fill="#221815"/>
          <path id="パス_357" data-name="パス 357" d="M280.347,161.019a2.167,2.167,0,0,1-1.109-.03,3.567,3.567,0,0,1-2.022-1.6l-.041.012c-.406.1-.864-.539-1.026-.919a1.128,1.128,0,0,1-.049-.852.558.558,0,0,1,.3-.317l.044-.016-.077-.269a.161.161,0,0,1,.014-.123.168.168,0,0,1,.1-.08.165.165,0,0,1,.127.013.163.163,0,0,1,.08.1l.132.46.187.574a.161.161,0,0,1-.01.124.168.168,0,0,1-.1.084l-.013,0a.167.167,0,0,1-.2-.108l-.151-.461-.011,0a.231.231,0,0,0-.115.134.83.83,0,0,0,.046.6c.175.411.528.755.638.729l.006,0a.174.174,0,0,0,.056-.039.172.172,0,0,1,.145-.048.165.165,0,0,1,.124.088,3.242,3.242,0,0,0,1.917,1.6,1.817,1.817,0,0,0,1.731-.409,3.239,3.239,0,0,0,1-2.285.165.165,0,0,1,.072-.134.172.172,0,0,1,.151-.022.176.176,0,0,0,.068.01c.052,0,.124-.122.177-.3a1.911,1.911,0,0,0,.076-.643.83.83,0,0,0-.228-.56.231.231,0,0,0-.164-.069h-.011l.071.48a.162.162,0,0,1-.031.121.171.171,0,0,1-.237.035.161.161,0,0,1-.064-.106l-.087-.588a4.062,4.062,0,0,0-.53-.99.159.159,0,0,1-.03-.121.164.164,0,0,1,.068-.109.17.17,0,0,1,.234.035,4.465,4.465,0,0,1,.518.926.505.505,0,0,1,.079-.012.558.558,0,0,1,.411.15,1.128,1.128,0,0,1,.336.784c.021.359-.078,1.179-.509,1.28h-.005l-.037.006a3.573,3.573,0,0,1-1.1,2.341,2.142,2.142,0,0,1-.961.514m-3.129-1.653a.009.009,0,0,1,.01,0,3.549,3.549,0,0,0,2.016,1.6,2.146,2.146,0,0,0,1.1.029,2.124,2.124,0,0,0,.953-.51,3.556,3.556,0,0,0,1.093-2.336.009.009,0,0,1,.008-.008.412.412,0,0,0,.042-.007h.005c.42-.1.516-.908.495-1.262a1.111,1.111,0,0,0-.33-.772.541.541,0,0,0-.4-.146.43.43,0,0,0-.084.013.009.009,0,0,1-.01-.005,4.446,4.446,0,0,0-.518-.929.152.152,0,0,0-.21-.031.147.147,0,0,0-.061.1.142.142,0,0,0,.027.108,4.08,4.08,0,0,1,.533,1l.087.59a.143.143,0,0,0,.057.095.153.153,0,0,0,.213-.032.145.145,0,0,0,.028-.109l-.072-.488a.009.009,0,0,1,.007-.01h0l.022,0a.248.248,0,0,1,.176.073.848.848,0,0,1,.233.572,1.93,1.93,0,0,1-.076.649c-.054.177-.123.292-.184.306h-.009a.192.192,0,0,1-.074-.011.155.155,0,0,0-.136.02.148.148,0,0,0-.064.119,3.256,3.256,0,0,1-1.006,2.3,1.835,1.835,0,0,1-1.748.413,3.259,3.259,0,0,1-1.927-1.609.148.148,0,0,0-.111-.079.155.155,0,0,0-.131.043.192.192,0,0,1-.061.043c-.057.024-.175-.049-.309-.19a1.918,1.918,0,0,1-.359-.547.848.848,0,0,1-.046-.616.248.248,0,0,1,.125-.144l.021-.007h0a.009.009,0,0,1,.01.006l.153.469a.15.15,0,0,0,.177.1l.012,0a.151.151,0,0,0,.089-.075.143.143,0,0,0,.009-.111l-.187-.574-.132-.46a.145.145,0,0,0-.071-.088.148.148,0,0,0-.114-.012.151.151,0,0,0-.092.072.143.143,0,0,0-.013.11l.08.277a.009.009,0,0,1-.006.011.489.489,0,0,0-.051.018.541.541,0,0,0-.291.308,1.111,1.111,0,0,0,.049.838c.166.389.645,1.053,1.052.9h0" transform="translate(-272.345 -149.958)" fill="#323232"/>
          <path id="パス_358" data-name="パス 358" d="M279.533,160.8a2.065,2.065,0,0,1-.623-.089,3.6,3.6,0,0,1-2.027-1.595l-.014,0c-.455.107-.926-.6-1.071-.942a1.167,1.167,0,0,1-.049-.882.6.6,0,0,1,.322-.338l.012,0-.067-.234a.2.2,0,0,1,.018-.153.207.207,0,0,1,.125-.1.2.2,0,0,1,.255.138l.132.46.187.573a.2.2,0,0,1-.012.154.207.207,0,0,1-.122.1l-.017,0a.207.207,0,0,1-.243-.134l-.136-.417a.222.222,0,0,0-.068.1.792.792,0,0,0,.046.573c.179.42.521.722.594.707a.137.137,0,0,0,.044-.031.212.212,0,0,1,.178-.059.2.2,0,0,1,.153.109,3.2,3.2,0,0,0,1.894,1.581,1.78,1.78,0,0,0,1.693-.4,3.2,3.2,0,0,0,.987-2.256.2.2,0,0,1,.088-.165.211.211,0,0,1,.186-.027.144.144,0,0,0,.053.008c.017,0,.082-.07.142-.268a1.876,1.876,0,0,0,.074-.63.791.791,0,0,0-.214-.533.231.231,0,0,0-.1-.057l.064.435a.2.2,0,0,1-.039.15.21.21,0,0,1-.291.043.2.2,0,0,1-.079-.132l-.087-.588a4.035,4.035,0,0,0-.523-.973.2.2,0,0,1-.037-.15.2.2,0,0,1,.084-.135.209.209,0,0,1,.288.043,4.512,4.512,0,0,1,.51.905l.053-.006a.6.6,0,0,1,.439.16,1.166,1.166,0,0,1,.349.811c.023.384-.079,1.212-.538,1.32l-.015,0a3.613,3.613,0,0,1-1.108,2.336,2.18,2.18,0,0,1-.979.524l0-.017,0,.017a2.217,2.217,0,0,1-.508.058m-2.628-1.788a.048.048,0,0,1,.041.024,3.51,3.51,0,0,0,1.994,1.585,2.121,2.121,0,0,0,1.08.029,2.088,2.088,0,0,0,.936-.5,3.517,3.517,0,0,0,1.081-2.31.048.048,0,0,1,.041-.044l.039-.006c.38-.089.493-.84.47-1.223a1.072,1.072,0,0,0-.317-.745.5.5,0,0,0-.37-.136.386.386,0,0,0-.076.012.049.049,0,0,1-.056-.027,4.4,4.4,0,0,0-.514-.921.113.113,0,0,0-.156-.023.11.11,0,0,0-.045.072.1.1,0,0,0,.02.079,4.125,4.125,0,0,1,.538,1.006l.089.6a.1.1,0,0,0,.042.07.115.115,0,0,0,.159-.024.107.107,0,0,0,.021-.08l-.072-.488a.048.048,0,0,1,.036-.053l.029,0a.282.282,0,0,1,.2.083.887.887,0,0,1,.247.6,1.969,1.969,0,0,1-.078.663c-.035.114-.108.308-.212.333l-.016,0a.23.23,0,0,1-.089-.013.115.115,0,0,0-.1.015.109.109,0,0,0-.048.088,3.3,3.3,0,0,1-1.018,2.325,1.876,1.876,0,0,1-1.787.422,3.3,3.3,0,0,1-1.949-1.628.11.11,0,0,0-.082-.058.115.115,0,0,0-.1.032.229.229,0,0,1-.074.051c-.1.042-.264-.106-.352-.2a1.963,1.963,0,0,1-.366-.558.887.887,0,0,1-.046-.646.285.285,0,0,1,.146-.165l.027-.009a.047.047,0,0,1,.057.031l.153.469a.111.111,0,0,0,.131.071.118.118,0,0,0,.075-.058.1.1,0,0,0,.006-.081l-.187-.574-.133-.462a.107.107,0,0,0-.052-.064.109.109,0,0,0-.085-.009.113.113,0,0,0-.069.054.105.105,0,0,0-.009.081l.08.277a.056.056,0,0,1,0,.036.047.047,0,0,1-.028.023l-.047.016a.5.5,0,0,0-.27.286,1.072,1.072,0,0,0,.048.808c.156.366.625,1.02,1,.874l.006,0h.011" transform="translate(-272.03 -149.644)" fill="#323232"/>
          <g id="グループ_528" data-name="グループ 528" transform="translate(7.943 6.363)" style="isolation: isolate">
            <g id="グループ_527" data-name="グループ 527">
              <g id="グループ_526" data-name="グループ 526" clip-path="url(#clip-path-53)">
                <path id="パス_359" data-name="パス 359" d="M314.854,167.641a.22.22,0,1,0,.162-.265.22.22,0,0,0-.162.265" transform="translate(-314.848 -167.37)" fill="#323232"/>
              </g>
            </g>
          </g>
          <path id="パス_360" data-name="パス 360" d="M314.942,167.7a.235.235,0,1,1,.056-.007.233.233,0,0,1-.056.007m0-.44a.2.2,0,1,0,.106.03.2.2,0,0,0-.106-.03" transform="translate(-306.778 -160.881)" fill="#323232"/>
          <g id="グループ_531" data-name="グループ 531" transform="translate(5.665 6.918)" style="isolation: isolate">
            <g id="グループ_530" data-name="グループ 530">
              <g id="グループ_529" data-name="グループ 529" clip-path="url(#clip-path-53)">
                <path id="パス_361" data-name="パス 361" d="M294.046,172.706a.22.22,0,1,0,.162-.265.22.22,0,0,0-.162.265" transform="translate(-294.04 -172.435)" fill="#323232"/>
              </g>
            </g>
          </g>
          <path id="パス_362" data-name="パス 362" d="M294.132,172.764a.236.236,0,1,1,.056-.007.24.24,0,0,1-.056.007m0-.44a.2.2,0,1,0,.2.156.2.2,0,0,0-.2-.156" transform="translate(-288.249 -165.391)" fill="#323232"/>
          <path id="パス_363" data-name="パス 363" d="M304.261,191.035a2.128,2.128,0,0,1-.858.025.153.153,0,0,1,.064-.3,1.767,1.767,0,0,0,1.369-.341.153.153,0,0,1,.2.236,1.857,1.857,0,0,1-.771.381" transform="translate(-296.605 -181.499)" fill="#231815"/>
          <path id="パス_364" data-name="パス 364" d="M304.193,190.973a2.151,2.151,0,0,1-.862.025.162.162,0,0,1,.068-.317,1.746,1.746,0,0,0,1.361-.339.163.163,0,0,1,.228.021.162.162,0,0,1-.021.228,1.864,1.864,0,0,1-.775.382m-.861-.275a.145.145,0,0,0-.089.22.143.143,0,0,0,.091.063,2.13,2.13,0,0,0,.854-.025,1.846,1.846,0,0,0,.768-.379.145.145,0,0,0,.019-.2.145.145,0,0,0-.2-.018,1.766,1.766,0,0,1-1.376.343.145.145,0,0,0-.063,0" transform="translate(-296.535 -181.429)" fill="#323232"/>
          <path id="パス_365" data-name="パス 365" d="M303.379,190.753a1.923,1.923,0,0,1-.372-.033.2.2,0,0,1-.154-.239.2.2,0,0,1,.238-.155,1.709,1.709,0,0,0,1.328-.331.2.2,0,0,1,.329.173.2.2,0,0,1-.072.136,1.9,1.9,0,0,1-.791.39,2.224,2.224,0,0,1-.507.058m-.354-.332a.107.107,0,0,0-.08.081.106.106,0,0,0,.081.126,2.09,2.09,0,0,0,.837-.025,1.808,1.808,0,0,0,.752-.371.106.106,0,0,0-.136-.163,1.8,1.8,0,0,1-1.409.351.105.105,0,0,0-.046,0" transform="translate(-296.219 -181.114)" fill="#323232"/>
          <path id="パス_366" data-name="パス 366" d="M287.045,135.646a2.124,2.124,0,0,0,1.949,1.049,3.444,3.444,0,0,1-.309-.9,3.522,3.522,0,0,0,2.657.543s-.315-3.72-4.3-.692" transform="translate(-282.147 -131.701)" fill="#3a8fb7"/>
          <g id="グループ_534" data-name="グループ 534" transform="translate(4.701 3.565)" style="isolation: isolate">
            <g id="グループ_533" data-name="グループ 533">
              <g id="グループ_532" data-name="グループ 532" clip-path="url(#clip-path-55)">
                <path id="パス_367" data-name="パス 367" d="M287.278,143.464a.16.16,0,0,1-.04,0,2.385,2.385,0,0,1-1.98-1.417.162.162,0,0,1,.3-.13,2.1,2.1,0,0,0,1.689,1.223.162.162,0,0,1,.034.319" transform="translate(-285.245 -141.824)" fill="#323232"/>
              </g>
            </g>
          </g>
          <path id="パス_368" data-name="パス 368" d="M287.21,143.4a.167.167,0,0,1-.043,0,2.4,2.4,0,0,1-1.988-1.422.171.171,0,0,1,.313-.137,2.09,2.09,0,0,0,1.682,1.218.171.171,0,0,1,.036.337m-1.909-1.635-.026.009a.153.153,0,0,0-.079.2,2.377,2.377,0,0,0,1.972,1.412.156.156,0,0,0,.038,0,.153.153,0,0,0-.032-.3,2.108,2.108,0,0,1-1.7-1.228.154.154,0,0,0-.175-.088" transform="translate(-280.473 -138.189)" fill="#323232"/>
          <path id="パス_369" data-name="パス 369" d="M286.856,143.13h0a2.436,2.436,0,0,1-2.022-1.445.209.209,0,0,1,.384-.168,2.057,2.057,0,0,0,1.647,1.194.209.209,0,0,1,0,.419M285,141.489l-.02.007a.114.114,0,0,0-.059.15,2.335,2.335,0,0,0,1.937,1.388.1.1,0,0,0,.029,0,.114.114,0,0,0-.024-.226,2.149,2.149,0,0,1-1.732-1.251.115.115,0,0,0-.131-.066" transform="translate(-280.158 -137.873)" fill="#323232"/>
          <path id="パス_370" data-name="パス 370" d="M304.6,146.211H304.6a3.685,3.685,0,0,1-2.354-.442.162.162,0,0,1,.167-.278,3.413,3.413,0,0,0,2.126.4.162.162,0,0,1,.068.316" transform="translate(-295.611 -141.505)" fill="#221815"/>
          <path id="パス_371" data-name="パス 371" d="M304.536,146.149h-.007a3.7,3.7,0,0,1-2.36-.443.171.171,0,0,1,.176-.293,3.406,3.406,0,0,0,2.12.4.171.171,0,0,1,.071.333m-2.314-.737a.153.153,0,0,0-.044.281,3.679,3.679,0,0,0,2.348.441h.006a.153.153,0,0,0-.064-.3,3.425,3.425,0,0,1-2.132-.4.154.154,0,0,0-.114-.018" transform="translate(-295.541 -141.435)" fill="#323232"/>
          <path id="パス_372" data-name="パス 372" d="M303.671,145.925a3.918,3.918,0,0,1-1.836-.5.209.209,0,0,1,.215-.359,3.373,3.373,0,0,0,2.092.4.209.209,0,0,1,.088.409s-.008,0-.009,0a2.89,2.89,0,0,1-.55.052m-1.728-.794a.114.114,0,0,0-.026,0,.114.114,0,0,0-.033.209,3.635,3.635,0,0,0,2.32.436.115.115,0,0,0,.091-.134.115.115,0,0,0-.134-.091,3.472,3.472,0,0,1-2.159-.408.114.114,0,0,0-.059-.016" transform="translate(-295.226 -141.119)" fill="#323232"/>
        </g>
      </g>
      <g id="グループ_553" data-name="グループ 553">
        <g id="グループ_552" data-name="グループ 552" clip-path="url(#clip-path)">
          <g id="グループ_539" data-name="グループ 539" transform="translate(95.705 49.776)" style="isolation: isolate">
            <g id="グループ_538" data-name="グループ 538">
              <g id="グループ_537" data-name="グループ 537" clip-path="url(#clip-path-57)">
                <path id="パス_373" data-name="パス 373" d="M874.014,458.23l4.137-3.6a.579.579,0,0,1,.848.067l11.937,15.164a.579.579,0,0,1-.1.813l-4.259,3.441a.579.579,0,0,1-.813-.1l-11.815-15.009a.579.579,0,0,1,.062-.783" transform="translate(-873.828 -454.48)" fill="#323232"/>
              </g>
            </g>
          </g>
          <path id="パス_374" data-name="パス 374" d="M682.821,269.383a15.423,15.423,0,1,1,21.659,2.579,15.44,15.44,0,0,1-21.659-2.579" transform="translate(-605.099 -217.656)" fill="#fff"/>
          <path id="パス_375" data-name="パス 375" d="M688.644,269.711a16.2,16.2,0,0,1-14.672-23.093.776.776,0,0,1,1.405.659,14.736,14.736,0,0,0-1.312,7.788,14.618,14.618,0,1,0,3.162-10.748.776.776,0,0,1-1.208-.975,16.2,16.2,0,1,1,12.624,26.368" transform="translate(-598.786 -211.331)" fill="#323232"/>
          <path id="パス_376" data-name="パス 376" d="M771.708,300.539a1.447,1.447,0,0,0,.242-2.032,10.043,10.043,0,0,0-14.088-1.677,1.447,1.447,0,0,0,1.79,2.274,7.146,7.146,0,0,1,10.023,1.193,1.447,1.447,0,0,0,2.032.242" transform="translate(-674.367 -262.409)" fill="#3a8fb7"/>
          <g id="グループ_542" data-name="グループ 542" transform="translate(94.677 19.557)" style="isolation: isolate">
            <g id="グループ_541" data-name="グループ 541">
              <g id="グループ_540" data-name="グループ 540" clip-path="url(#clip-path-58)">
                <path id="パス_377" data-name="パス 377" d="M865.879,182.353l.04-.007a.892.892,0,0,0,.7-1.051l-.407-2.013a.892.892,0,1,0-1.748.354l.407,2.013a.892.892,0,0,0,1.01.7" transform="translate(-864.444 -178.566)" fill="#3a8fb7"/>
              </g>
            </g>
          </g>
          <g id="グループ_545" data-name="グループ 545" transform="translate(99.025 20.983)" style="isolation: isolate">
            <g id="グループ_544" data-name="グループ 544">
              <g id="グループ_543" data-name="グループ 543" clip-path="url(#clip-path-59)">
                <path id="パス_378" data-name="パス 378" d="M905.169,195.03a.892.892,0,0,0,.73-.67l.407-1.67a.892.892,0,0,0-1.732-.423l-.407,1.67a.892.892,0,0,0,1,1.093" transform="translate(-904.141 -191.586)" fill="#3a8fb7"/>
              </g>
            </g>
          </g>
          <g id="グループ_548" data-name="グループ 548" transform="translate(104.895 28.285)" style="isolation: isolate">
            <g id="グループ_547" data-name="グループ 547">
              <g id="グループ_546" data-name="グループ 546" clip-path="url(#clip-path-60)">
                <path id="パス_379" data-name="パス 379" d="M960.807,260.032a.892.892,0,0,0-.256-1.765l-2.037.274-.019,0a.892.892,0,0,0,.256,1.765l2.037-.274.019,0" transform="translate(-957.741 -258.259)" fill="#3a8fb7"/>
              </g>
            </g>
          </g>
          <g id="グループ_551" data-name="グループ 551" transform="translate(102.584 24.259)" style="isolation: isolate">
            <g id="グループ_550" data-name="グループ 550">
              <g id="グループ_549" data-name="グループ 549" clip-path="url(#clip-path-61)">
                <path id="パス_380" data-name="パス 380" d="M937.667,224.2a.888.888,0,0,0,.345-.131l1.446-.93a.892.892,0,0,0-.965-1.5l-1.446.931a.891.891,0,0,0,.62,1.63" transform="translate(-936.637 -221.496)" fill="#3a8fb7"/>
              </g>
            </g>
          </g>
        </g>
      </g>
    </g>
  </g>
</svg>
