<svg xmlns="http://www.w3.org/2000/svg" xmlns:xlink="http://www.w3.org/1999/xlink" width="160" height="100" viewBox="0 0 160 100">
  <defs>
    <clipPath id="clip-path">
      <rect id="Rectangle_145" data-name="Rectangle 145" width="160" height="100" fill="none"/>
    </clipPath>
  </defs>
  <g id="Group_108" data-name="Group 108" clip-path="url(#clip-path)">
    <path id="Path_36" data-name="Path 36" d="M119.5,34.631l1.334.472a9.988,9.988,0,0,1,0,18.839l-1.334.473Z" fill="#ffda2a"/>
    <path id="Path_37" data-name="Path 37" d="M57.41,62.958l-4.237-.636a3,3,0,0,0-3.136,4.293L60.008,86.85A3,3,0,0,0,62.7,88.523h6.214a3,3,0,0,0,2.749-4.2L63.639,65.982a3.04,3.04,0,0,0-1.831-1.653,17.35,17.35,0,0,0-4.4-1.371" fill="#ffda2a"/>
    <path id="Path_38" data-name="Path 38" d="M37.5,57.523a5.006,5.006,0,0,1-5-5v-16a5.006,5.006,0,0,1,5-5h3a3,3,0,0,1,3,3v20a3,3,0,0,1-3,3Z" fill="#ffda2a"/>
    <path id="Path_39" data-name="Path 39" d="M110.5,77.57a4.939,4.939,0,0,1-2.333-.589L95.713,70.4A98.7,98.7,0,0,0,64.152,60.012L52.757,58.3A4.969,4.969,0,0,1,48.5,53.357V35.689a4.969,4.969,0,0,1,4.257-4.944l11.4-1.712A98.657,98.657,0,0,0,95.713,18.651l12.449-6.586a4.949,4.949,0,0,1,2.333-.588,5.012,5.012,0,0,1,5,5.008V72.561a4.935,4.935,0,0,1-1.518,3.592A5.081,5.081,0,0,1,110.5,77.57" fill="#ffda2a"/>
  </g>
</svg>
