<svg xmlns="http://www.w3.org/2000/svg" xmlns:xlink="http://www.w3.org/1999/xlink" width="120" height="105" viewBox="0 0 120 105">
  <defs>
    <clipPath id="clip-path">
      <rect id="長方形_235" data-name="長方形 235" width="105.123" height="88" fill="none"/>
    </clipPath>
    <clipPath id="clip-path-2">
      <rect id="長方形_179" data-name="長方形 179" width="6.803" height="26.54" fill="none"/>
    </clipPath>
    <clipPath id="clip-path-3">
      <rect id="長方形_180" data-name="長方形 180" width="3.598" height="3.828" fill="none"/>
    </clipPath>
    <clipPath id="clip-path-4">
      <rect id="長方形_181" data-name="長方形 181" width="3.598" height="3.827" fill="none"/>
    </clipPath>
    <clipPath id="clip-path-5">
      <rect id="長方形_182" data-name="長方形 182" width="21.569" height="13.977" fill="none"/>
    </clipPath>
    <clipPath id="clip-path-6">
      <rect id="長方形_183" data-name="長方形 183" width="4.989" height="2.485" fill="none"/>
    </clipPath>
    <clipPath id="clip-path-7">
      <rect id="長方形_184" data-name="長方形 184" width="7.725" height="4.263" fill="none"/>
    </clipPath>
    <clipPath id="clip-path-8">
      <rect id="長方形_185" data-name="長方形 185" width="5.073" height="8.234" fill="none"/>
    </clipPath>
    <clipPath id="clip-path-9">
      <rect id="長方形_186" data-name="長方形 186" width="11.682" height="11.869" fill="none"/>
    </clipPath>
    <clipPath id="clip-path-10">
      <rect id="長方形_187" data-name="長方形 187" width="11.12" height="5.793" fill="none"/>
    </clipPath>
    <clipPath id="clip-path-11">
      <rect id="長方形_188" data-name="長方形 188" width="4.397" height="2.617" fill="none"/>
    </clipPath>
    <clipPath id="clip-path-12">
      <rect id="長方形_189" data-name="長方形 189" width="3.843" height="1.282" fill="none"/>
    </clipPath>
    <clipPath id="clip-path-13">
      <rect id="長方形_190" data-name="長方形 190" width="3.295" height="1.243" fill="none"/>
    </clipPath>
    <clipPath id="clip-path-14">
      <rect id="長方形_191" data-name="長方形 191" width="2.392" height="1.27" fill="none"/>
    </clipPath>
    <clipPath id="clip-path-15">
      <rect id="長方形_192" data-name="長方形 192" width="7.273" height="6.025" fill="none"/>
    </clipPath>
    <clipPath id="clip-path-16">
      <rect id="長方形_193" data-name="長方形 193" width="1.947" height="3.384" fill="none"/>
    </clipPath>
    <clipPath id="clip-path-17">
      <rect id="長方形_194" data-name="長方形 194" width="15.489" height="33.29" fill="none"/>
    </clipPath>
    <clipPath id="clip-path-18">
      <rect id="長方形_195" data-name="長方形 195" width="6.339" height="1.034" fill="none"/>
    </clipPath>
    <clipPath id="clip-path-19">
      <rect id="長方形_196" data-name="長方形 196" width="6.206" height="27.088" fill="none"/>
    </clipPath>
    <clipPath id="clip-path-20">
      <rect id="長方形_197" data-name="長方形 197" width="8.265" height="1.801" fill="none"/>
    </clipPath>
    <clipPath id="clip-path-21">
      <rect id="長方形_198" data-name="長方形 198" width="5.735" height="1.554" fill="none"/>
    </clipPath>
    <clipPath id="clip-path-22">
      <rect id="長方形_199" data-name="長方形 199" width="15.097" height="26.151" fill="none"/>
    </clipPath>
    <clipPath id="clip-path-23">
      <rect id="長方形_200" data-name="長方形 200" width="2.639" height="27.985" fill="none"/>
    </clipPath>
    <clipPath id="clip-path-24">
      <rect id="長方形_201" data-name="長方形 201" width="3.161" height="14.703" fill="none"/>
    </clipPath>
    <clipPath id="clip-path-25">
      <rect id="長方形_202" data-name="長方形 202" width="24.149" height="20.141" fill="none"/>
    </clipPath>
    <clipPath id="clip-path-26">
      <rect id="長方形_203" data-name="長方形 203" width="3.348" height="9.851" fill="none"/>
    </clipPath>
    <clipPath id="clip-path-27">
      <rect id="長方形_204" data-name="長方形 204" width="13.854" height="32.457" fill="none"/>
    </clipPath>
    <clipPath id="clip-path-28">
      <rect id="長方形_205" data-name="長方形 205" width="1.946" height="24.328" fill="none"/>
    </clipPath>
    <clipPath id="clip-path-29">
      <rect id="長方形_206" data-name="長方形 206" width="9.412" height="5.559" fill="none"/>
    </clipPath>
    <clipPath id="clip-path-30">
      <rect id="長方形_207" data-name="長方形 207" width="19.718" height="20.433" fill="none"/>
    </clipPath>
    <clipPath id="clip-path-31">
      <rect id="長方形_208" data-name="長方形 208" width="5.936" height="2.817" fill="none"/>
    </clipPath>
    <clipPath id="clip-path-32">
      <rect id="長方形_209" data-name="長方形 209" width="9.84" height="8.696" fill="none"/>
    </clipPath>
    <clipPath id="clip-path-33">
      <rect id="長方形_210" data-name="長方形 210" width="2.062" height="2.554" fill="none"/>
    </clipPath>
    <clipPath id="clip-path-34">
      <rect id="長方形_211" data-name="長方形 211" width="4.785" height="7.031" fill="none"/>
    </clipPath>
    <clipPath id="clip-path-35">
      <rect id="長方形_212" data-name="長方形 212" width="1.018" height="3.731" fill="none"/>
    </clipPath>
    <clipPath id="clip-path-36">
      <rect id="長方形_213" data-name="長方形 213" width="4.242" height="12.136" fill="none"/>
    </clipPath>
    <clipPath id="clip-path-37">
      <rect id="長方形_214" data-name="長方形 214" width="3.69" height="3.414" fill="none"/>
    </clipPath>
    <clipPath id="clip-path-38">
      <rect id="長方形_215" data-name="長方形 215" width="5.117" height="15.608" fill="none"/>
    </clipPath>
    <clipPath id="clip-path-39">
      <rect id="長方形_216" data-name="長方形 216" width="33.842" height="22.201" fill="none"/>
    </clipPath>
    <clipPath id="clip-path-40">
      <rect id="長方形_217" data-name="長方形 217" width="2.824" height="19.003" fill="none"/>
    </clipPath>
    <clipPath id="clip-path-41">
      <rect id="長方形_218" data-name="長方形 218" width="8.129" height="5.38" fill="none"/>
    </clipPath>
    <clipPath id="clip-path-42">
      <rect id="長方形_219" data-name="長方形 219" width="6.365" height="1.736" fill="none"/>
    </clipPath>
    <clipPath id="clip-path-43">
      <rect id="長方形_220" data-name="長方形 220" width="2.691" height="1.763" fill="none"/>
    </clipPath>
    <clipPath id="clip-path-44">
      <rect id="長方形_221" data-name="長方形 221" width="1.206" height="3.47" fill="none"/>
    </clipPath>
    <clipPath id="clip-path-45">
      <rect id="長方形_222" data-name="長方形 222" width="7.797" height="10.847" fill="none"/>
    </clipPath>
    <clipPath id="clip-path-46">
      <rect id="長方形_223" data-name="長方形 223" width="3.884" height="5.049" fill="none"/>
    </clipPath>
    <clipPath id="clip-path-49">
      <rect id="長方形_226" data-name="長方形 226" width="1.159" height="2.011" fill="none"/>
    </clipPath>
    <clipPath id="clip-path-50">
      <rect id="長方形_227" data-name="長方形 227" width="1.195" height="2.225" fill="none"/>
    </clipPath>
    <clipPath id="clip-path-51">
      <rect id="長方形_228" data-name="長方形 228" width="1.576" height="1.897" fill="none"/>
    </clipPath>
    <clipPath id="clip-path-52">
      <rect id="長方形_229" data-name="長方形 229" width="2.214" height="1.27" fill="none"/>
    </clipPath>
    <clipPath id="clip-path-53">
      <rect id="長方形_230" data-name="長方形 230" width="2.009" height="1.315" fill="none"/>
    </clipPath>
    <clipPath id="clip-path-54">
      <rect id="長方形_231" data-name="長方形 231" width="1.136" height="1.136" fill="none"/>
    </clipPath>
    <clipPath id="clip-path-56">
      <rect id="長方形_233" data-name="長方形 233" width="2.811" height="1.07" fill="none"/>
    </clipPath>
    <clipPath id="clip-path-57">
      <rect id="長方形_234" data-name="長方形 234" width="1.516" height="0.848" fill="none"/>
    </clipPath>
  </defs>
  <g id="icon_flow1" transform="translate(8 8)">
    <rect id="長方形_466" data-name="長方形 466" width="120" height="105" transform="translate(-8 -8)" fill="none"/>
    <g id="グループ_314" data-name="グループ 314" transform="translate(-1)" clip-path="url(#clip-path)">
      <path id="パス_94" data-name="パス 94" d="M367.991,87.342s-1.923,2.262-1.964,6.944a15.563,15.563,0,0,1-.138,1.931,13.511,13.511,0,0,0,2.426,9.974,10.172,10.172,0,0,0,1.77,1.3l-1.058,2.135s-.259,12.827.194,16.26l5.311.583,7.616-18.737-.322-1.844a1.516,1.516,0,0,0-.594-.961l-.115-.085-.286-3.985a5.335,5.335,0,0,0,3.352-4.767s-.324-3.044-2.98-1.36l-3.044-6.672-2.526-.518Z" transform="translate(-321.987 -76.89)" fill="#fff"/>
      <g id="グループ_148" data-name="グループ 148" transform="translate(47.122 35.549)" style="isolation: isolate">
        <g id="グループ_147" data-name="グループ 147">
          <g id="グループ_146" data-name="グループ 146" clip-path="url(#clip-path-2)">
            <path id="パス_95" data-name="パス 95" d="M398.6,301.831l.017-.5,1.968-2.893-1.146-1.375h-2.751l-1.146,1.375.779,2.371.017.5-2.555,9.7L395,321.164v1.393c.006.192.679,1.045.871,1.045l1.045-2.264,1.521-5.937.688-1.758-.1.9.5-5.574Z" transform="translate(-393.781 -297.063)" fill="#3a8fb7"/>
          </g>
        </g>
      </g>
      <g id="グループ_151" data-name="グループ 151" transform="translate(47.63 34.759)" style="isolation: isolate">
        <g id="グループ_150" data-name="グループ 150">
          <g id="グループ_149" data-name="グループ 149" clip-path="url(#clip-path-3)">
            <path id="パス_96" data-name="パス 96" d="M398.5,294.295a.481.481,0,0,1-.354-.806l2.637-2.866a.481.481,0,1,1,.708.651l-2.636,2.866a.479.479,0,0,1-.354.155" transform="translate(-398.02 -290.467)" fill="#323232"/>
          </g>
        </g>
      </g>
      <g id="グループ_154" data-name="グループ 154" transform="translate(51.777 34.759)" style="isolation: isolate">
        <g id="グループ_153" data-name="グループ 153">
          <g id="グループ_152" data-name="グループ 152" clip-path="url(#clip-path-4)">
            <path id="パス_97" data-name="パス 97" d="M435.792,294.3a.479.479,0,0,1-.354-.155l-2.637-2.866a.481.481,0,0,1,.708-.651l2.636,2.866a.481.481,0,0,1-.354.806" transform="translate(-432.674 -290.468)" fill="#323232"/>
          </g>
        </g>
      </g>
      <g id="グループ_157" data-name="グループ 157" transform="translate(42.657 5.335)" style="isolation: isolate">
        <g id="グループ_156" data-name="グループ 156">
          <g id="グループ_155" data-name="グループ 155" clip-path="url(#clip-path-5)">
            <path id="パス_98" data-name="パス 98" d="M357.732,53.731a2.765,2.765,0,0,1,1.194-2.122,7.723,7.723,0,0,1,.8-.442c.172-.1.248.283.3.094.051-.169.737-.639,2.127-.536,1.625.121.729-.339,2.741.442a4.288,4.288,0,0,0,2.125-.042c-.128,1.833,2.737,4.153,2.737,4.153a3.6,3.6,0,0,1,1.68,2.652c.014.192-.185.621.007.626a.375.375,0,0,0,.3-.137l.552-.674a2.068,2.068,0,0,1,3.251-.522c.328.5.59.69.458,1.218,1.609-2.971,3.2-5.7.814-9.244a7.445,7.445,0,0,0-3.5-2.4,4.1,4.1,0,0,0-.482-.109s-4.89-4.4-10.268-.493a8.413,8.413,0,0,1-1.938,1.064c-2.2.842-6.256,2.269-2.852,6.646.027-.515-.052.222-.044-.177" transform="translate(-356.466 -44.58)" fill="#3a8fb7"/>
          </g>
        </g>
      </g>
      <g id="グループ_160" data-name="グループ 160" transform="translate(47.329 8.633)" style="isolation: isolate">
        <g id="グループ_159" data-name="グループ 159">
          <g id="グループ_158" data-name="グループ 158" clip-path="url(#clip-path-6)">
            <path id="パス_99" data-name="パス 99" d="M395.986,73.057a3.115,3.115,0,0,1,3.794,1.357.379.379,0,0,0,.679-.336,3.9,3.9,0,0,0-4.67-1.752.379.379,0,0,0,.2.731" transform="translate(-395.508 -72.139)" fill="#323232"/>
          </g>
        </g>
      </g>
      <path id="パス_100" data-name="パス 100" d="M399.811,74.361a.421.421,0,0,1-.377-.233,3.072,3.072,0,0,0-3.745-1.335.421.421,0,1,1-.219-.812,3.95,3.95,0,0,1,4.718,1.774.421.421,0,0,1-.377.607m-3-1.811a3.032,3.032,0,0,1,2.7,1.54.337.337,0,0,0,.451.152.337.337,0,0,0,.153-.451,3.866,3.866,0,0,0-4.621-1.73.337.337,0,0,0,.176.651,4.387,4.387,0,0,1,1.145-.162" transform="translate(-347.871 -63.201)" fill="#323232"/>
      <g id="グループ_163" data-name="グループ 163" transform="translate(43.671 10.991)" style="isolation: isolate">
        <g id="グループ_162" data-name="グループ 162">
          <g id="グループ_161" data-name="グループ 161" clip-path="url(#clip-path-7)">
            <path id="パス_101" data-name="パス 101" d="M365.781,95.737a3.22,3.22,0,0,1,1.41-2.535c1.853-1.133,4.874-.03,4.9-.018a.422.422,0,0,0,.294-.791c-.139-.052-3.434-1.257-5.637.088a4.016,4.016,0,0,0-1.81,3.157.421.421,0,0,0,.354.467l.015,0a.423.423,0,0,0,.469-.369" transform="translate(-364.94 -91.847)" fill="#323232"/>
          </g>
        </g>
      </g>
      <g id="グループ_166" data-name="グループ 166" transform="translate(52.95 11.324)" style="isolation: isolate">
        <g id="グループ_165" data-name="グループ 165">
          <g id="グループ_164" data-name="グループ 164" clip-path="url(#clip-path-8)">
            <path id="パス_102" data-name="パス 102" d="M446.019,99.425c-2.72-2.319-2.712-4.132-2.7-4.312a.052.052,0,0,0,0-.009h0a.046.046,0,0,0,0-.015.417.417,0,0,0-.828-.1c-.013.092-.268,2.3,3,5.075l.02.016a3.313,3.313,0,0,1,1.214,2.37.419.419,0,0,0,.352.406h.008a.417.417,0,0,0,.473-.419,4.1,4.1,0,0,0-1.534-3.016" transform="translate(-442.481 -94.629)" fill="#323232"/>
          </g>
        </g>
      </g>
      <g id="グループ_169" data-name="グループ 169" transform="translate(43.311 19.038)" style="isolation: isolate">
        <g id="グループ_168" data-name="グループ 168">
          <g id="グループ_167" data-name="グループ 167" clip-path="url(#clip-path-9)">
            <path id="パス_103" data-name="パス 103" d="M372.956,167.3a13.213,13.213,0,0,1-5.1,2.774,2.9,2.9,0,0,1-1.563-.272c-4.317-2.891-3.493-10.152-3.484-10.225a.426.426,0,0,0-.348-.487.418.418,0,0,0-.454.383,17.521,17.521,0,0,0,.113,4.3c.468,3.108,1.762,5.451,3.741,6.777a3.023,3.023,0,0,0,1.38.4l.134.008.851-.048a15.14,15.14,0,0,0,5.227-2.924.465.465,0,0,0,.07-.616.383.383,0,0,0-.568-.068" transform="translate(-361.927 -159.089)" fill="#323232"/>
          </g>
        </g>
      </g>
      <g id="グループ_172" data-name="グループ 172" transform="translate(48.331 28.587)" style="isolation: isolate">
        <g id="グループ_171" data-name="グループ 171">
          <g id="グループ_170" data-name="グループ 170" clip-path="url(#clip-path-10)">
            <path id="パス_104" data-name="パス 104" d="M407.077,244.684a.45.45,0,0,1-.284-.1l-2.743-2.221a.451.451,0,1,1,.567-.7l2.488,2.014,7.2-4.712a.451.451,0,0,1,.494.754l-7.475,4.892a.449.449,0,0,1-.246.074" transform="translate(-403.883 -238.891)" fill="#323232"/>
          </g>
        </g>
      </g>
      <path id="パス_105" data-name="パス 105" d="M237.5,281.742l-16.012-16.82-.7-1.318a2.54,2.54,0,0,0-1.249-1.144,33.651,33.651,0,0,0-8.143-2.252l-4.2-2.511c-2,2.347-11.82,28.812-11.82,28.812-1.045-9.928-1.393-27.672-1.393-27.672l-2.711,1.412-8.257,3.087s-2.714,2.872-3.384,3.576l.605-5.807s-.995-4.277-12.334-1.492c0,0-2.487,19.2.9,26.856,0,0,1.492,5.172,15.218-6.067l1.107,13.466L181.439,319.6l7.862,1.367c5.332.462,5.854-2.281,5.854-2.281l1.017-6.067,1.465,5.675c1.437,3.4,5.874,2.859,5.874,2.859l15.835-3.059-4.064-18,3.01-20.5c1.833,2.649,8.471,7.351,8.471,7.351-.836,4.322-8.359,11.823-8.359,11.823,1.568,5.095,7.252,6.291,8.776,6.4a.905.905,0,0,0,.891-.525l10.718-18.308a4,4,0,0,0-1.288-4.588" transform="translate(-147.027 -226.859)" fill="#fff"/>
      <g id="グループ_175" data-name="グループ 175" transform="translate(80.066 56.387)" style="isolation: isolate">
        <g id="グループ_174" data-name="グループ 174">
          <g id="グループ_173" data-name="グループ 173" clip-path="url(#clip-path-11)">
            <path id="パス_106" data-name="パス 106" d="M669.534,473.814a.456.456,0,0,1-.333-.767c2.115-2.266,3.865-1.821,3.938-1.8a.456.456,0,0,1-.234.882c-.067-.015-1.338-.279-3.038,1.542a.455.455,0,0,1-.334.145" transform="translate(-669.077 -471.198)" fill="#323232"/>
          </g>
        </g>
      </g>
      <path id="パス_107" data-name="パス 107" d="M597.043,597.541s3.527-.261,5.356,4.18l-1.045,2.482a10.5,10.5,0,0,1-5.487-2.482s-2.482-.784,1.176-4.18" transform="translate(-523.837 -526.032)" fill="#fff"/>
      <path id="パス_108" data-name="パス 108" d="M534.3,590.246l-1.587.739-.9.246-2.135-1.478-.739-1.232a2.449,2.449,0,0,0-2.217-1.232l-1.588.191a1.039,1.039,0,0,0-.906.764c-.092.4.072.893,1.1,1.262l1.478.164.328.52-1.806.629s-1.478.411-.657,1.642c0,0,.383.739,3.038,0l1.232-.164-1.861.794s-2,.849-1.013,1.916c0,0,.876.876,3.257-.219l1.669.055-1.232.493s-2.436.958-1.806,1.889c0,0,.328.739,2.053.164l2.053-.493a3.663,3.663,0,0,0,4.27-.246,22.492,22.492,0,0,0,1.478-2.573s.328-2.737-3.5-3.832" transform="translate(-461.471 -516.995)" fill="#fff"/>
      <path id="パス_109" data-name="パス 109" d="M525.289,594.518a1.408,1.408,0,0,1-1.324-.616,1.023,1.023,0,0,1-.124-.884,1.921,1.921,0,0,1,.669-.865,2.517,2.517,0,0,1-2.36-.376l-.013-.014a1.291,1.291,0,0,1-.375-1.182,1.715,1.715,0,0,1,.563-.88c-1.117.044-1.507-.326-1.642-.559a1.489,1.489,0,0,1-.241-1.377,1.823,1.823,0,0,1,1.165-.979l.829-.289-.735-.082a.493.493,0,0,1-.111-.026c-1.468-.528-1.511-1.371-1.406-1.827a1.521,1.521,0,0,1,1.32-1.136l1.588-.19a2.913,2.913,0,0,1,2.694,1.471l.681,1.135,1.863,1.29.686-.187a.485.485,0,0,1,.255.935l-.9.246a.486.486,0,0,1-.4-.069l-2.135-1.478a.486.486,0,0,1-.14-.149l-.739-1.232c-.01-.017-.687-1.146-1.736-1l-1.6.192a.559.559,0,0,0-.491.392c-.07.3.351.533.738.678l1.419.158a.485.485,0,0,1,.356.223l.329.52a.485.485,0,0,1-.25.716l-1.806.629-.03.009c-.141.041-.462.192-.534.39a.647.647,0,0,0,.142.5c.069.048.6.348,2.514-.184a.468.468,0,0,1,.066-.014l1.232-.164a.484.484,0,0,1,.254.926l-1.861.794c-.36.155-.923.522-.986.821-.008.036-.028.131.122.3.087.064.848.548,2.716-.311a.461.461,0,0,1,.218-.044l1.669.055a.484.484,0,0,1,.164.934l-1.231.493c-.7.275-1.5.779-1.6,1.092-.007.024-.011.036.015.075.009.013.017.027.025.041.08.1.487.264,1.473-.065l.04-.012,2.053-.492a.485.485,0,0,1,.409.088,3.166,3.166,0,0,0,3.623-.212,22.036,22.036,0,0,0,1.351-2.337c.015-.368-.052-2.365-3.159-3.252a.484.484,0,1,1,.266-.932,5.161,5.161,0,0,1,3.491,2.581,3.47,3.47,0,0,1,.36,1.774.5.5,0,0,1-.031.122,22.519,22.519,0,0,1-1.523,2.658.487.487,0,0,1-.136.137,4.2,4.2,0,0,1-4.628.363l-1.83.439a4.114,4.114,0,0,1-1.277.236m-.466-1.063h0m0,0h0m-3.3-4.788h0m0-.006,0,.006,0-.006" transform="translate(-457.903 -513.422)" fill="#323232"/>
      <g id="グループ_178" data-name="グループ 178" transform="translate(65.172 72.399)" style="isolation: isolate">
        <g id="グループ_177" data-name="グループ 177">
          <g id="グループ_176" data-name="グループ 176" clip-path="url(#clip-path-12)">
            <path id="パス_110" data-name="パス 110" d="M545.094,606.283a.484.484,0,0,1-.135-.95c.381-.11,2.327-.633,3.253-.089a.484.484,0,1,1-.49.836,4.8,4.8,0,0,0-2.494.184.482.482,0,0,1-.134.019" transform="translate(-544.61 -605)" fill="#323232"/>
          </g>
        </g>
      </g>
      <g id="グループ_181" data-name="グループ 181" transform="translate(66.239 74.682)" style="isolation: isolate">
        <g id="グループ_180" data-name="グループ 180">
          <g id="グループ_179" data-name="グループ 179" clip-path="url(#clip-path-13)">
            <path id="パス_111" data-name="パス 111" d="M554.013,625.326a.485.485,0,0,1-.075-.963l1.724-.274a.475.475,0,0,1,.162,0l.6.109a.484.484,0,1,1-.173.953l-.521-.095-1.643.261a.492.492,0,0,1-.076.006" transform="translate(-553.529 -624.083)" fill="#323232"/>
          </g>
        </g>
      </g>
      <g id="グループ_184" data-name="グループ 184" transform="translate(68.511 77.227)" style="isolation: isolate">
        <g id="グループ_183" data-name="グループ 183">
          <g id="グループ_182" data-name="グループ 182" clip-path="url(#clip-path-14)">
            <path id="パス_112" data-name="パス 112" d="M572.995,646.623a.485.485,0,0,1-.1-.959l1.423-.3a.484.484,0,0,1,.2.948l-1.423.3a.488.488,0,0,1-.1.011" transform="translate(-572.511 -645.353)" fill="#323232"/>
          </g>
        </g>
      </g>
      <g id="グループ_187" data-name="グループ 187" transform="translate(72.393 71.16)" style="isolation: isolate">
        <g id="グループ_186" data-name="グループ 186">
          <g id="グループ_185" data-name="グループ 185" clip-path="url(#clip-path-15)">
            <path id="パス_113" data-name="パス 113" d="M611.774,600.671a.451.451,0,0,1-.414-.272,7.566,7.566,0,0,0-5.99-4.853.451.451,0,0,1,.062-.9,8.452,8.452,0,0,1,6.755,5.395.451.451,0,0,1-.413.63" transform="translate(-604.951 -594.646)" fill="#323232"/>
          </g>
        </g>
      </g>
      <g id="グループ_190" data-name="グループ 190" transform="translate(77.066 75.238)" style="isolation: isolate">
        <g id="グループ_189" data-name="グループ 189">
          <g id="グループ_188" data-name="グループ 188" clip-path="url(#clip-path-16)">
            <path id="パス_114" data-name="パス 114" d="M644.453,632.111a.451.451,0,0,1-.415-.626L645.083,629a.451.451,0,0,1,.831.35l-1.045,2.482a.451.451,0,0,1-.416.276" transform="translate(-644.002 -628.728)" fill="#323232"/>
          </g>
        </g>
      </g>
      <g id="グループ_193" data-name="グループ 193" transform="translate(47.604 32.042)" style="isolation: isolate">
        <g id="グループ_192" data-name="グループ 192">
          <g id="グループ_191" data-name="グループ 191" clip-path="url(#clip-path-17)">
            <path id="パス_115" data-name="パス 115" d="M398.25,301.05a.451.451,0,0,1-.368-.71c3.7-5.252,11.817-18.325,13.283-20.694l-2.82-1.88a.451.451,0,0,1,.208-.824l3.81-.357-.509-8.347a.451.451,0,1,1,.9-.055l.536,8.783a.451.451,0,0,1-.408.476l-2.979.279,2.126,1.417a.451.451,0,0,1,.133.612c-.094.153-9.47,15.33-13.542,21.109a.45.45,0,0,1-.369.191" transform="translate(-397.8 -267.759)" fill="#323232"/>
          </g>
        </g>
      </g>
      <g id="グループ_196" data-name="グループ 196" transform="translate(59.345 46.382)" style="isolation: isolate">
        <g id="グループ_195" data-name="グループ 195">
          <g id="グループ_194" data-name="グループ 194" clip-path="url(#clip-path-18)">
            <path id="パス_116" data-name="パス 116" d="M496.367,388.622a.451.451,0,0,1-.011-.9l5.437-.133a.451.451,0,0,1,.022.9l-5.437.133h-.011" transform="translate(-495.917 -387.588)" fill="#323232"/>
          </g>
        </g>
      </g>
      <g id="グループ_199" data-name="グループ 199" transform="translate(40.84 32.94)" style="isolation: isolate">
        <g id="グループ_198" data-name="グループ 198">
          <g id="グループ_197" data-name="グループ 197" clip-path="url(#clip-path-19)">
            <path id="パス_117" data-name="パス 117" d="M347.034,302.348a.451.451,0,0,1-.416-.276,147.851,147.851,0,0,1-5.326-16.507.45.45,0,0,1,.222-.508l2.422-1.312-2.409-1.2a.451.451,0,0,1-.2-.6l2.946-6.426a.451.451,0,1,1,.812.392l-2.753,6.026,2.785,1.393a.451.451,0,0,1,.013.8l-2.872,1.556a143.349,143.349,0,0,0,5.2,16.043.451.451,0,0,1-.415.625" transform="translate(-341.278 -275.26)" fill="#323232"/>
          </g>
        </g>
      </g>
      <path id="パス_118" data-name="パス 118" d="M387,567.372a1.575,1.575,0,1,1,1.365-1.561A1.474,1.474,0,0,1,387,567.372m0-2.221c-.251,0-.464.3-.464.66s.212.66.464.66.464-.3.464-.66-.212-.66-.464-.66" transform="translate(-339.488 -496.728)" fill="#323232"/>
      <g id="グループ_202" data-name="グループ 202" transform="translate(55.424 77.421)" style="isolation: isolate">
        <g id="グループ_201" data-name="グループ 201">
          <g id="グループ_200" data-name="グループ 200" clip-path="url(#clip-path-20)">
            <path id="パス_119" data-name="パス 119" d="M463.6,648.774a.451.451,0,0,1-.054-.9l7.364-.9a.451.451,0,0,1,.109.895l-7.364.9a.481.481,0,0,1-.055,0" transform="translate(-463.154 -646.973)" fill="#323232"/>
          </g>
        </g>
      </g>
      <g id="グループ_205" data-name="グループ 205" transform="translate(36.744 77.668)" style="isolation: isolate">
        <g id="グループ_204" data-name="グループ 204">
          <g id="グループ_203" data-name="グループ 203" clip-path="url(#clip-path-21)">
            <path id="パス_120" data-name="パス 120" d="M312.334,650.589a.459.459,0,0,1-.061,0l-4.833-.653a.451.451,0,0,1,.121-.893l4.833.653a.451.451,0,0,1-.06.9" transform="translate(-307.049 -649.034)" fill="#323232"/>
          </g>
        </g>
      </g>
      <g id="グループ_208" data-name="グループ 208" transform="translate(33.962 68.474)" style="isolation: isolate">
        <g id="グループ_207" data-name="グループ 207">
          <g id="グループ_206" data-name="グループ 206" clip-path="url(#clip-path-22)">
            <path id="パス_121" data-name="パス 121" d="M295.41,598.357c-.043,0-.072,0-.084,0l-.028,0-11.1-1.437a.451.451,0,0,1-.388-.513l3.522-23.812a.451.451,0,0,1,.892.132l-3.455,23.358,10.63,1.376c.142,0,1.6-.007,2.134-2l.476-2.381a.451.451,0,1,1,.884.177l-.479,2.395c0,.009,0,.018-.006.026a3.469,3.469,0,0,1-1.79,2.4,2.835,2.835,0,0,1-1.2.292" transform="translate(-283.801 -572.205)" fill="#323232"/>
          </g>
        </g>
      </g>
      <g id="グループ_211" data-name="グループ 211" transform="translate(35.9 39.474)" style="isolation: isolate">
        <g id="グループ_210" data-name="グループ 210">
          <g id="グループ_209" data-name="グループ 209" clip-path="url(#clip-path-23)">
            <path id="パス_122" data-name="パス 122" d="M302.184,357.848a.451.451,0,0,1-.449-.416l-1.174-15.123c-.028-.4-.678-9.8-.548-12.022a.451.451,0,0,1,.9.053c-.127,2.167.54,11.806.547,11.9l1.173,15.12a.451.451,0,0,1-.414.484h-.035" transform="translate(-299.997 -329.862)" fill="#323232"/>
          </g>
        </g>
      </g>
      <g id="グループ_214" data-name="グループ 214" transform="translate(68.214 54.774)" style="isolation: isolate">
        <g id="グループ_213" data-name="グループ 213">
          <g id="グループ_212" data-name="グループ 212" clip-path="url(#clip-path-24)">
            <path id="パス_123" data-name="パス 123" d="M570.484,472.427a.451.451,0,0,1-.442-.543l2.259-13.8a.451.451,0,0,1,.882.185l-2.26,13.8a.451.451,0,0,1-.44.358" transform="translate(-570.033 -457.724)" fill="#323232"/>
          </g>
        </g>
      </g>
      <g id="グループ_217" data-name="グループ 217" transform="translate(46.764 74.628)" style="isolation: isolate">
        <g id="グループ_216" data-name="グループ 216">
          <g id="グループ_215" data-name="グループ 215" clip-path="url(#clip-path-25)">
            <path id="パス_124" data-name="パス 124" d="M399.885,643.773c-1.483,0-4.968-.411-5.959-4.152,0-.008,0-.017-.006-.026l-3.13-15.422a.451.451,0,0,1,.883-.179L394.8,639.4a4.329,4.329,0,0,0,3.167,3.221,6.908,6.908,0,0,0,2.469.224L414.4,640.5a.451.451,0,1,1,.149.889l-13.978,2.351-.016,0a5.977,5.977,0,0,1-.675.033" transform="translate(-390.781 -623.633)" fill="#323232"/>
          </g>
        </g>
      </g>
      <g id="グループ_220" data-name="グループ 220" transform="translate(69.422 81.83)" style="isolation: isolate">
        <g id="グループ_219" data-name="グループ 219">
          <g id="グループ_218" data-name="グループ 218" clip-path="url(#clip-path-26)">
            <path id="パス_125" data-name="パス 125" d="M583.025,693.666a.451.451,0,0,1-.434-.331l-2.446-8.95a.451.451,0,0,1,.869-.241l2.446,8.95a.451.451,0,0,1-.435.571" transform="translate(-580.128 -683.815)" fill="#323232"/>
          </g>
        </g>
      </g>
      <g id="グループ_223" data-name="グループ 223" transform="translate(46.759 30.387)" style="isolation: isolate">
        <g id="グループ_222" data-name="グループ 222">
          <g id="グループ_221" data-name="グループ 221" clip-path="url(#clip-path-27)">
            <path id="パス_126" data-name="パス 126" d="M391.192,286.388a.451.451,0,0,1-.421-.61c5.9-15.638,12.892-31.421,12.961-31.579a.451.451,0,0,1,.824.365c-.07.157-7.05,15.918-12.943,31.532a.451.451,0,0,1-.421.292" transform="translate(-390.741 -253.931)" fill="#323232"/>
          </g>
        </g>
      </g>
      <g id="グループ_226" data-name="グループ 226" transform="translate(46.498 31.853)" style="isolation: isolate">
        <g id="グループ_225" data-name="グループ 225">
          <g id="グループ_224" data-name="グループ 224" clip-path="url(#clip-path-28)">
            <path id="パス_127" data-name="パス 127" d="M390.054,290.512a.451.451,0,0,1-.444-.378c-1.039-6.364-1.051-22.8-1.051-23.5a.451.451,0,0,1,.9,0c0,.17.012,17.062,1.039,23.354a.451.451,0,0,1-.445.523" transform="translate(-388.559 -266.184)" fill="#323232"/>
          </g>
        </g>
      </g>
      <g id="グループ_229" data-name="グループ 229" transform="translate(33.44 33.655)" style="isolation: isolate">
        <g id="グループ_228" data-name="グループ 228">
          <g id="グループ_227" data-name="グループ 227" clip-path="url(#clip-path-29)">
            <path id="パス_128" data-name="パス 128" d="M279.893,286.8a.451.451,0,0,1-.36-.721,21.164,21.164,0,0,1,2.192-2.384.446.446,0,0,1,.108-.056l6.42-2.372a.451.451,0,0,1,.3.849l-6.36,2.35a17.036,17.036,0,0,0-1.94,2.153.45.45,0,0,1-.361.18" transform="translate(-279.443 -281.238)" fill="#323232"/>
          </g>
        </g>
      </g>
      <g id="グループ_232" data-name="グループ 232" transform="translate(71.207 34.901)" style="isolation: isolate">
        <g id="グループ_231" data-name="グループ 231">
          <g id="グループ_230" data-name="グループ 230" clip-path="url(#clip-path-30)">
            <path id="パス_129" data-name="パス 129" d="M614.308,312.087a.449.449,0,0,1-.326-.14l-16.013-16.82a.45.45,0,0,1-.088-.133,4.413,4.413,0,0,0-.952-1.39,5.17,5.17,0,0,0-.77-.63,4.523,4.523,0,0,0-.825-.447.451.451,0,0,1,.313-.845,5.329,5.329,0,0,1,1.014.544,6.089,6.089,0,0,1,.9.74,5.321,5.321,0,0,1,1.111,1.6l15.958,16.763a.451.451,0,0,1-.326.761" transform="translate(-595.041 -291.654)" fill="#323232"/>
          </g>
        </g>
      </g>
      <g id="グループ_235" data-name="グループ 235" transform="translate(63.385 32.303)" style="isolation: isolate">
        <g id="グループ_234" data-name="グループ 234">
          <g id="グループ_233" data-name="グループ 233" clip-path="url(#clip-path-31)">
            <path id="パス_130" data-name="パス 130" d="M535.166,272.761a.448.448,0,0,1-.16-.03l-5.034-1.916a.451.451,0,0,1,.321-.842l5.034,1.916a.451.451,0,0,1-.16.872" transform="translate(-529.681 -269.944)" fill="#323232"/>
          </g>
        </g>
      </g>
      <g id="グループ_238" data-name="グループ 238" transform="translate(69.252 50.723)" style="isolation: isolate">
        <g id="グループ_237" data-name="グループ 237">
          <g id="グループ_236" data-name="グループ 236" clip-path="url(#clip-path-32)">
            <path id="パス_131" data-name="パス 131" d="M588.092,432.56a.449.449,0,0,1-.3-.111l-8.939-7.794a.451.451,0,0,1,.592-.679l8.939,7.794a.451.451,0,0,1-.3.79" transform="translate(-578.702 -423.864)" fill="#323232"/>
          </g>
        </g>
      </g>
      <path id="パス_132" data-name="パス 132" d="M657.856,493.706a3.271,3.271,0,0,1-1.2-.265.451.451,0,1,1,.335-.837,1.632,1.632,0,0,0,1.222.129.472.472,0,0,0,.224-.224.45.45,0,0,1,.045-.106l10.678-18.24a5.318,5.318,0,0,0-.111-2.327.451.451,0,0,1,.855-.284,6.141,6.141,0,0,1,.127,2.856.456.456,0,0,1-.054.142l-10.7,18.272a1.361,1.361,0,0,1-.669.719,1.688,1.688,0,0,1-.757.165m11.733-19.384h0Z" transform="translate(-577.828 -414.852)" fill="#323232"/>
      <path id="パス_133" data-name="パス 133" d="M484.39,71.585m-.054-.029h0m0,0h0" transform="translate(-426.376 -62.993)" fill="#231815"/>
      <path id="パス_134" data-name="パス 134" d="M378.69,98.375l-.021.024.021-.024" transform="translate(-333.355 -86.603)" fill="#21110d"/>
      <g id="グループ_241" data-name="グループ 241" transform="translate(58.462 19.152)" style="isolation: isolate">
        <g id="グループ_240" data-name="グループ 240">
          <g id="グループ_239" data-name="グループ 239" clip-path="url(#clip-path-33)">
            <path id="パス_135" data-name="パス 135" d="M488.9,162.594l.011,0a.425.425,0,0,0,.474-.353c.206-1.228.81-1.343.835-1.347a.427.427,0,0,0,.227-.752.422.422,0,0,0-.31-.1c-.052,0-1.271.131-1.594,2.055a.427.427,0,0,0,.35.491Z" transform="translate(-488.539 -160.045)" fill="#323232"/>
          </g>
        </g>
      </g>
      <g id="グループ_244" data-name="グループ 244" transform="translate(57.861 16.953)" style="isolation: isolate">
        <g id="グループ_243" data-name="グループ 243">
          <g id="グループ_242" data-name="グループ 242" clip-path="url(#clip-path-34)">
            <path id="パス_136" data-name="パス 136" d="M486.417,147.947a10.19,10.19,0,0,0,1.049-1.459,5.363,5.363,0,0,0,.834-2.461,2.292,2.292,0,0,0-1.611-2.272c-.693-.2-1.711-.143-2.621,1.282a.427.427,0,0,0,.719.46c.51-.8,1.055-1.1,1.664-.922a1.429,1.429,0,0,1,1,1.422,6.828,6.828,0,0,1-1.718,3.441c-.923.727-1.421.275-1.474.221a.427.427,0,0,0-.737.273.423.423,0,0,0,.111.307,1.509,1.509,0,0,0,.872.442h0l.048.007a1.916,1.916,0,0,0,.919-.122,3.291,3.291,0,0,0,.949-.617" transform="translate(-483.517 -141.669)" fill="#323232"/>
          </g>
        </g>
      </g>
      <g id="グループ_247" data-name="グループ 247" transform="translate(58.415 24.303)" style="isolation: isolate">
        <g id="グループ_246" data-name="グループ 246">
          <g id="グループ_245" data-name="グループ 245" clip-path="url(#clip-path-35)">
            <path id="パス_137" data-name="パス 137" d="M488.718,206.819a.451.451,0,0,1-.45-.435l-.117-2.829a.451.451,0,1,1,.9-.031l.117,2.829a.451.451,0,0,1-.435.466h-.016" transform="translate(-488.151 -203.089)" fill="#323232"/>
          </g>
        </g>
      </g>
      <g id="グループ_250" data-name="グループ 250" transform="translate(68.131 37.398)" style="isolation: isolate">
        <g id="グループ_249" data-name="グループ 249">
          <g id="グループ_248" data-name="グループ 248" clip-path="url(#clip-path-36)">
            <path id="パス_138" data-name="パス 138" d="M570,324.653a.451.451,0,0,1-.444-.378,13.286,13.286,0,0,1,3.271-11.636.451.451,0,0,1,.618.656,10.507,10.507,0,0,0-1.93,2.829,13.289,13.289,0,0,0-1.07,8,.451.451,0,0,1-.445.524" transform="translate(-569.341 -312.518)" fill="#323232"/>
          </g>
        </g>
      </g>
      <path id="パス_139" data-name="パス 139" d="M205.241,145.7l.061-1.361s-2.017-8.061.37-10.846c0,0,4.232-3.872,4.275-1.943,0,0-2.861,4.631-3.789,6.024l4.758-4.724a1.117,1.117,0,0,1,.939-.242c.435.1.931.486,1.072,1.719,0,0,1.591-1.459,2.122.995,0,0,1.591-1.79,1.923.8,0,0,.265,2.387-.6,3.117l-1.127,4.177a24.385,24.385,0,0,1-3.6,3.011l.061,1.069-.4,1.691-1.222,1.094a6.918,6.918,0,0,1-5.271.378l-1.31-.918c-.247.044-.187-1.956-.052-3.11a.957.957,0,0,1,.865-.843Z" transform="translate(-179.003 -115.337)" fill="#fff"/>
      <path id="パス_140" data-name="パス 140" d="M224.567,130.153c-.679-.309-4.146,2.173-4.146,2.173l2.073,2.073c3.584-3.671,2.073-4.246,2.073-4.246" transform="translate(-194.044 -114.554)" fill="#fff"/>
      <g id="グループ_253" data-name="グループ 253" transform="translate(27.484 15.195)" style="isolation: isolate">
        <g id="グループ_252" data-name="グループ 252">
          <g id="グループ_251" data-name="グループ 251" clip-path="url(#clip-path-37)">
            <path id="パス_141" data-name="パス 141" d="M231.929,130.389a.367.367,0,0,1-.289-.593c1.052-1.344,1.01-1.872.972-2,0-.012-.023-.069-.023-.069l-.03-.012c-.248-.113-1.342.462-2.293,1.206a.367.367,0,0,1-.453-.578c.648-.507,2.237-1.645,3.037-1.3a.838.838,0,0,1,.467.549c.18.616-.18,1.486-1.1,2.66a.367.367,0,0,1-.289.141" transform="translate(-229.672 -126.975)" fill="#323232"/>
          </g>
        </g>
      </g>
      <path id="パス_142" data-name="パス 142" d="M231.5,130.023a.422.422,0,0,1-.262-.091.427.427,0,0,1-.073-.6c1.061-1.356.988-1.862.962-1.949l-.014-.04-.008,0a5,5,0,0,0-2.232,1.2.426.426,0,0,1-.525-.671c.655-.512,2.267-1.666,3.1-1.309a.9.9,0,0,1,.5.587c.185.635-.177,1.523-1.109,2.713a.424.424,0,0,1-.336.163m.551-2.807a.252.252,0,0,1,.1.019l.025.01a.059.059,0,0,1,.036.036s.021.059.024.072c.051.175.058.726-.982,2.055a.309.309,0,0,0,.053.433.315.315,0,0,0,.433-.053c.907-1.158,1.263-2.011,1.089-2.608a.775.775,0,0,0-.432-.511c-.773-.332-2.341.794-2.979,1.293a.308.308,0,1,0,.38.486,5.89,5.89,0,0,1,2.25-1.232" transform="translate(-201.756 -111.355)" fill="#323232"/>
      <g id="グループ_256" data-name="グループ 256" transform="translate(19.748 31.442)" style="isolation: isolate">
        <g id="グループ_255" data-name="グループ 255">
          <g id="グループ_254" data-name="グループ 254" clip-path="url(#clip-path-38)">
            <path id="パス_143" data-name="パス 143" d="M165.444,278.351a.417.417,0,0,1-.417-.417c-.009-6.9.564-13.812.57-13.881a.417.417,0,0,1,.121-.26c.148-.148.871-.662,3.957-1.047a.417.417,0,0,1,.1.828,11.262,11.262,0,0,0-3.366.755c-.094,1.2-.559,7.41-.55,13.6a.417.417,0,0,1-.417.418Z" transform="translate(-165.027 -262.743)" fill="#323232"/>
          </g>
        </g>
      </g>
      <path id="パス_144" data-name="パス 144" d="M169.216,420.047a1.95,1.95,0,0,1-.7-.1c-1.131-.18-1.941-1.5-2.474-4.016a46.974,46.974,0,0,1-.753-8.114.417.417,0,0,1,.834-.021,46.192,46.192,0,0,0,.735,7.962c.441,2.084,1.088,3.281,1.821,3.369a.265.265,0,0,1,.144.043c.186.059,2.841.716,11.887-6.194a.417.417,0,0,1,.507.663c-7.287,5.567-10.642,6.41-12.006,6.41" transform="translate(-145.514 -358.635)" fill="#323232"/>
      <g id="グループ_259" data-name="グループ 259" transform="translate(7.958 8.639)" style="isolation: isolate">
        <g id="グループ_258" data-name="グループ 258">
          <g id="グループ_257" data-name="グループ 257" clip-path="url(#clip-path-39)">
            <path id="パス_145" data-name="パス 145" d="M100.057,86.9l-5.715-.609L71.671,72.238a.326.326,0,0,0-.244-.041l-.01,0L66.5,89.2,92.872,91.12l4.272,3.2a.326.326,0,0,0,.409-.014l.028-.024,2.765-7.1a.326.326,0,0,0-.289-.287" transform="translate(-66.505 -72.189)" fill="#3a8fb7"/>
          </g>
        </g>
      </g>
      <g id="グループ_262" data-name="グループ 262" transform="translate(30.794 33.564)" style="isolation: isolate">
        <g id="グループ_261" data-name="グループ 261">
          <g id="グループ_260" data-name="グループ 260" clip-path="url(#clip-path-40)">
            <path id="パス_146" data-name="パス 146" d="M257.749,299.479h-.019a.417.417,0,0,1-.4-.436c.263-5.788,1.976-18.084,1.993-18.208a.417.417,0,0,1,.826.116c-.017.123-1.724,12.381-1.986,18.13a.417.417,0,0,1-.416.4" transform="translate(-257.331 -280.476)" fill="#323232"/>
          </g>
        </g>
      </g>
      <g id="グループ_265" data-name="グループ 265" transform="translate(23.898 30.513)" style="isolation: isolate">
        <g id="グループ_264" data-name="グループ 264">
          <g id="グループ_263" data-name="グループ 263" clip-path="url(#clip-path-41)">
            <path id="パス_147" data-name="パス 147" d="M203.672,260.365a9.886,9.886,0,0,1-3.722-.735.417.417,0,0,1-.246-.41l.265-3.846a.417.417,0,0,1,.833.057l-.244,3.54a8.224,8.224,0,0,0,6.648-.35.417.417,0,0,1,.417.723,7.826,7.826,0,0,1-3.951,1.02" transform="translate(-199.703 -254.985)" fill="#323232"/>
          </g>
        </g>
      </g>
      <g id="グループ_268" data-name="グループ 268" transform="translate(25.662 31.208)" style="isolation: isolate">
        <g id="グループ_267" data-name="グループ 267">
          <g id="グループ_266" data-name="グループ 266" clip-path="url(#clip-path-42)">
            <path id="パス_148" data-name="パス 148" d="M217.706,262.526a4.088,4.088,0,0,1-3.168-1.052.417.417,0,0,1,.638-.538c.03.032,1.328,1.4,5.1.368a.417.417,0,1,1,.221.8,10.6,10.6,0,0,1-2.794.417" transform="translate(-214.441 -260.789)" fill="#323232"/>
          </g>
        </g>
      </g>
      <g id="グループ_271" data-name="グループ 271" transform="translate(22.041 33.431)" style="isolation: isolate">
        <g id="グループ_270" data-name="グループ 270">
          <g id="グループ_269" data-name="グループ 269" clip-path="url(#clip-path-43)">
            <path id="パス_149" data-name="パス 149" d="M186.459,281.129a.415.415,0,0,1-.186-.044l-1.857-.928a.417.417,0,0,1,.373-.746l1.857.928a.417.417,0,0,1-.187.791" transform="translate(-184.185 -279.366)" fill="#323232"/>
          </g>
        </g>
      </g>
      <g id="グループ_274" data-name="グループ 274" transform="translate(25.787 28.741)" style="isolation: isolate">
        <g id="グループ_273" data-name="グループ 273">
          <g id="グループ_272" data-name="グループ 272" clip-path="url(#clip-path-44)">
            <path id="パス_150" data-name="パス 150" d="M215.944,243.641a.451.451,0,0,1-.448-.5l.3-2.568a.451.451,0,1,1,.895.106l-.3,2.568a.451.451,0,0,1-.447.4" transform="translate(-215.492 -240.171)" fill="#323232"/>
          </g>
        </g>
      </g>
      <g id="グループ_277" data-name="グループ 277" transform="translate(72.38 59.637)" style="isolation: isolate">
        <g id="グループ_276" data-name="グループ 276">
          <g id="グループ_275" data-name="グループ 275" clip-path="url(#clip-path-45)">
            <path id="パス_151" data-name="パス 151" d="M605.282,509.2a.44.44,0,0,1-.283-.778,30.507,30.507,0,0,0,6.8-9.815.44.44,0,1,1,.8.372c-3.193,6.852-6.877,9.988-7.032,10.118a.439.439,0,0,1-.283.1" transform="translate(-604.842 -498.358)" fill="#323232"/>
          </g>
        </g>
      </g>
      <path id="パス_152" data-name="パス 152" d="M274.269,208.437s-.8-1.481-1.42-.185a3.107,3.107,0,0,0-.124,2.037l-1.428,3.7a8.452,8.452,0,0,0,3.465-2.776s.679-.432-.494-2.777" transform="translate(-238.833 -182.863)" fill="#fff"/>
      <path id="パス_153" data-name="パス 153" d="M268.6,211.657a.367.367,0,0,1-.124-.713,8.194,8.194,0,0,0,3.3-2.653.365.365,0,0,1,.059-.061c.03-.05.29-.57-.586-2.324-.147-.266-.4-.519-.508-.52-.028,0-.13.06-.254.322a2.783,2.783,0,0,0-.1,1.786.367.367,0,0,1-.71.187,3.472,3.472,0,0,1,.15-2.294c.226-.476.529-.725.9-.734.64-.016,1.092.754,1.175.909l.005.011c1.12,2.24.684,2.982.428,3.2a8.747,8.747,0,0,1-3.6,2.862.369.369,0,0,1-.123.022m3.265-3.452h0m0,0h0m0,0h0m0,0h0m0,0h0m0,0h0" transform="translate(-236.131 -180.162)" fill="#323232"/>
      <path id="パス_154" data-name="パス 154" d="M268.164,211.282a.426.426,0,0,1-.144-.827,8.156,8.156,0,0,0,3.27-2.633.429.429,0,0,1,.06-.063c.034-.069.237-.6-.592-2.259a1.09,1.09,0,0,0-.456-.488s-.081.037-.2.289a2.739,2.739,0,0,0-.1,1.745.427.427,0,0,1-.3.52.426.426,0,0,1-.52-.3,3.542,3.542,0,0,1,.154-2.336,1.117,1.117,0,0,1,.947-.767c.677-.019,1.142.78,1.229.94l.006.012c.381.762,1.182,2.6.419,3.27a8.812,8.812,0,0,1-3.628,2.877.427.427,0,0,1-.143.025m3.281-3.454a.059.059,0,0,1-.012.014.323.323,0,0,0-.05.051,8.254,8.254,0,0,1-3.324,2.673.309.309,0,0,0-.186.394.313.313,0,0,0,.394.187,8.686,8.686,0,0,0,3.577-2.842l.008-.009c.236-.2.665-.917-.443-3.131-.086-.158-.517-.9-1.127-.887-.343.009-.627.245-.844.7a3.413,3.413,0,0,0-.146,2.254.308.308,0,1,0,.6-.157,2.858,2.858,0,0,1,.1-1.826c.123-.259.239-.354.306-.356.153,0,.418.291.562.551.727,1.456.687,2.077.621,2.3a.059.059,0,0,1-.022.081h0l-.015.007" transform="translate(-235.698 -179.728)" fill="#323232"/>
      <path id="パス_155" data-name="パス 155" d="M294.688,163.647c-.062-1.3-.679-1.6-.679-1.6a1.071,1.071,0,0,0-1.42.124L291.54,163.4l1.111.185c-.185,2.037.679,2.469.679,2.469,1.42.617,1.358-2.407,1.358-2.407" transform="translate(-256.652 -142.458)" fill="#fff"/>
      <g id="グループ_280" data-name="グループ 280" transform="translate(34.52 18.997)" style="isolation: isolate">
        <g id="グループ_279" data-name="グループ 279">
          <g id="グループ_278" data-name="グループ 278" clip-path="url(#clip-path-46)">
            <path id="パス_156" data-name="パス 156" d="M290.986,163.8a1.259,1.259,0,0,1-.5-.114l-.018-.008c-.111-.056-1.083-.608-.88-2.831a.367.367,0,1,1,.731.067c-.146,1.6.407,2.055.481,2.108.205.083.288.027.325,0,.364-.244.513-1.382.5-2.075-.046-.968-.428-1.251-.481-1.286a.175.175,0,0,1-.039-.024.692.692,0,0,0-.937.067l-1.043,1.227a.367.367,0,0,1-.56-.476l1.049-1.234.008-.009a1.424,1.424,0,0,1,1.885-.189,2.16,2.16,0,0,1,.852,1.9c.042,2.026-.679,2.613-.824,2.71a.966.966,0,0,1-.543.165" transform="translate(-288.471 -158.748)" fill="#323232"/>
          </g>
        </g>
      </g>
      <path id="パス_157" data-name="パス 157" d="M290.554,163.42h0a1.327,1.327,0,0,1-.528-.119l-.021-.01c-.115-.058-1.118-.628-.913-2.889a.426.426,0,0,1,.849.077c-.14,1.541.368,1.989.451,2.051.171.068.233.026.263.006.331-.222.487-1.318.473-2.025-.045-.943-.413-1.211-.455-1.238a.112.112,0,0,1-.03-.017l-.011-.008a.63.63,0,0,0-.862.059l-1.04,1.224a.426.426,0,0,1-.649-.552l1.049-1.234.009-.011a1.483,1.483,0,0,1,1.962-.2,2.209,2.209,0,0,1,.878,1.945c.042,2.058-.7,2.661-.85,2.762a1.018,1.018,0,0,1-.576.175m-1.039-3.287a.3.3,0,0,0-.195.07.306.306,0,0,0-.11.21c-.2,2.183.74,2.719.848,2.773l.015.007a1,1,0,0,0,.991-.047c.14-.094.839-.665.8-2.66a2.116,2.116,0,0,0-.822-1.85,1.368,1.368,0,0,0-1.812.177l-1.056,1.242a.308.308,0,1,0,.47.4l1.043-1.227a.752.752,0,0,1,1.016-.077l.013.009a.061.061,0,0,0,.017.01c.086.055.47.355.517,1.337.012.572-.1,1.843-.525,2.127a.37.37,0,0,1-.379,0l-.012-.007c-.11-.078-.652-.55-.505-2.161a.309.309,0,0,0-.279-.335h-.03" transform="translate(-253.518 -139.315)" fill="#323232"/>
      <path id="パス_158" data-name="パス 158" d="M277.667,156.426c-.062-1.3-.679-1.6-.679-1.6a1.071,1.071,0,0,0-1.42.124l-1.049,1.234,1.111.185c-.185,2.037.679,2.469.679,2.469,1.42.617,1.358-2.407,1.358-2.407" transform="translate(-241.668 -136.101)" fill="#fff"/>
      <g id="グループ_283" data-name="グループ 283" transform="translate(32.484 18.133)" style="isolation: isolate">
        <g id="グループ_282" data-name="グループ 282">
          <g id="グループ_281" data-name="グループ 281" clip-path="url(#clip-path-46)">
            <path id="パス_159" data-name="パス 159" d="M273.965,156.576a1.26,1.26,0,0,1-.5-.114l-.018-.008c-.111-.056-1.082-.608-.88-2.831a.367.367,0,0,1,.731.066c-.146,1.6.407,2.055.481,2.108.2.083.288.027.325,0,.364-.244.513-1.382.5-2.075-.046-.968-.428-1.251-.481-1.286a.175.175,0,0,1-.039-.024.692.692,0,0,0-.937.067l-1.043,1.227a.367.367,0,1,1-.56-.476L272.587,152l.008-.009a1.424,1.424,0,0,1,1.885-.189,2.16,2.16,0,0,1,.852,1.9c.041,2.026-.679,2.613-.824,2.71a.964.964,0,0,1-.543.165" transform="translate(-271.45 -151.527)" fill="#323232"/>
          </g>
        </g>
      </g>
      <path id="パス_160" data-name="パス 160" d="M273.533,156.2h0a1.326,1.326,0,0,1-.528-.119l-.021-.01c-.115-.058-1.118-.628-.913-2.889a.426.426,0,1,1,.849.077c-.14,1.54.368,1.989.451,2.05.171.068.233.026.263.006.331-.222.487-1.319.473-2.025-.045-.943-.413-1.211-.455-1.238a.116.116,0,0,1-.03-.018l-.011-.008a.63.63,0,0,0-.862.06l-1.04,1.224a.426.426,0,1,1-.649-.552l1.059-1.245a1.482,1.482,0,0,1,1.962-.2,2.208,2.208,0,0,1,.878,1.945c.042,2.058-.7,2.662-.85,2.762a1.018,1.018,0,0,1-.576.175m-1.038-3.287a.307.307,0,0,0-.306.281c-.2,2.183.74,2.719.848,2.773l.015.007a1,1,0,0,0,.991-.046c.14-.094.839-.665.8-2.66a2.115,2.115,0,0,0-.823-1.85,1.368,1.368,0,0,0-1.812.177l-1.056,1.242a.308.308,0,1,0,.47.4l1.043-1.227a.752.752,0,0,1,1.016-.077l.012.009a.062.062,0,0,0,.017.01c.085.055.47.355.517,1.337.012.572-.1,1.843-.525,2.127a.37.37,0,0,1-.379,0l-.012-.007c-.11-.078-.651-.551-.505-2.161a.309.309,0,0,0-.279-.335H272.5" transform="translate(-238.535 -132.958)" fill="#323232"/>
      <path id="パス_161" data-name="パス 161" d="M262.668,145.079c-.062-1.3-.679-1.6-.679-1.6a1.071,1.071,0,0,0-1.42.123l-.634.869,1.375,3.019c1.42.617,1.358-2.407,1.358-2.407" transform="translate(-228.829 -126.113)" fill="#fff"/>
      <g id="グループ_286" data-name="グループ 286" transform="translate(30.323 16.775)" style="isolation: isolate">
        <g id="グループ_285" data-name="グループ 285">
          <g id="グループ_284" data-name="グループ 284" clip-path="url(#clip-path-46)">
            <path id="パス_162" data-name="パス 162" d="M255.913,145.229a1.26,1.26,0,0,1-.5-.114l-.018-.008c-.111-.056-1.083-.608-.88-2.83a.367.367,0,0,1,.731.066c-.146,1.6.407,2.055.481,2.108.2.083.288.027.325,0,.364-.244.513-1.382.5-2.075-.046-.968-.428-1.251-.481-1.286a.176.176,0,0,1-.039-.024.692.692,0,0,0-.937.067l-1.043,1.227a.367.367,0,0,1-.56-.476l1.049-1.234.008-.009a1.424,1.424,0,0,1,1.885-.189,2.16,2.16,0,0,1,.852,1.9c.042,2.026-.679,2.613-.824,2.71a.965.965,0,0,1-.543.165" transform="translate(-253.398 -140.18)" fill="#323232"/>
          </g>
        </g>
      </g>
      <path id="パス_163" data-name="パス 163" d="M255.48,144.852h0a1.327,1.327,0,0,1-.528-.119l-.021-.01c-.115-.058-1.118-.628-.913-2.889a.426.426,0,1,1,.849.077c-.14,1.54.368,1.989.451,2.05.171.067.233.026.263.006.331-.222.487-1.318.473-2.025-.045-.944-.413-1.211-.455-1.238a.115.115,0,0,1-.03-.017l-.011-.008a.63.63,0,0,0-.862.06l-1.04,1.224a.426.426,0,0,1-.649-.552l1.059-1.245a1.483,1.483,0,0,1,1.962-.2,2.209,2.209,0,0,1,.878,1.946c.042,2.058-.7,2.661-.85,2.762a1.018,1.018,0,0,1-.576.175m-1.038-3.287a.3.3,0,0,0-.2.07.307.307,0,0,0-.11.21c-.2,2.182.74,2.719.848,2.773l.015.007a1,1,0,0,0,.991-.047c.14-.094.839-.665.8-2.66a2.116,2.116,0,0,0-.823-1.85,1.368,1.368,0,0,0-1.812.178l-1.056,1.242a.308.308,0,0,0,.47.4l1.043-1.227a.752.752,0,0,1,1.016-.077l.012.009a.063.063,0,0,0,.017.01c.085.055.47.355.517,1.337.012.572-.1,1.843-.525,2.127a.368.368,0,0,1-.379,0l-.012-.007c-.11-.078-.651-.551-.5-2.161a.309.309,0,0,0-.279-.335h-.03" transform="translate(-222.642 -122.97)" fill="#323232"/>
      <g id="グループ_289" data-name="グループ 289" transform="translate(25.743 27.436)" style="isolation: isolate">
        <g id="グループ_288" data-name="グループ 288">
          <g id="グループ_287" data-name="グループ 287" clip-path="url(#clip-path-49)">
            <path id="パス_164" data-name="パス 164" d="M215.837,231.278a.44.44,0,0,1-.427-.335l-.279-1.13a.44.44,0,0,1,.855-.211l.279,1.13a.441.441,0,0,1-.428.546" transform="translate(-215.118 -229.268)" fill="#323232"/>
          </g>
        </g>
      </g>
      <g id="グループ_292" data-name="グループ 292" transform="translate(64.567 3.308)" style="isolation: isolate">
        <g id="グループ_291" data-name="グループ 291">
          <g id="グループ_290" data-name="グループ 290" clip-path="url(#clip-path-50)">
            <path id="パス_165" data-name="パス 165" d="M540,29.861a.532.532,0,0,1-.445-.585l.131-1.161a.532.532,0,1,1,1.057.119l-.131,1.161a.532.532,0,0,1-.588.469l-.024,0" transform="translate(-539.556 -27.643)" fill="#323232"/>
          </g>
        </g>
      </g>
      <g id="グループ_295" data-name="グループ 295" transform="translate(66.512 4.91)" style="isolation: isolate">
        <g id="グループ_294" data-name="グループ 294">
          <g id="グループ_293" data-name="グループ 293" clip-path="url(#clip-path-51)">
            <path id="パス_166" data-name="パス 166" d="M556.256,42.922a.532.532,0,0,1-.369-.8l.512-.833a.532.532,0,0,1,.906.557l-.512.833a.532.532,0,0,1-.536.247" transform="translate(-555.808 -41.032)" fill="#323232"/>
          </g>
        </g>
      </g>
      <g id="グループ_298" data-name="グループ 298" transform="translate(68.659 9.966)" style="isolation: isolate">
        <g id="グループ_297" data-name="グループ 297">
          <g id="グループ_296" data-name="グループ 296" clip-path="url(#clip-path-52)">
            <path id="パス_167" data-name="パス 167" d="M575.352,84.546l-.011,0-1.151-.207a.532.532,0,1,1,.189-1.047l1.151.207a.532.532,0,0,1-.178,1.048" transform="translate(-573.753 -83.283)" fill="#323232"/>
          </g>
        </g>
      </g>
      <g id="グループ_301" data-name="グループ 301" transform="translate(67.996 7.486)" style="isolation: isolate">
        <g id="グループ_300" data-name="グループ 300">
          <g id="グループ_299" data-name="グループ 299" clip-path="url(#clip-path-53)">
            <path id="パス_168" data-name="パス 168" d="M568.661,63.861a.532.532,0,0,1-.053-1.039l.945-.251a.532.532,0,1,1,.273,1.028l-.945.251a.528.528,0,0,1-.22.011" transform="translate(-568.212 -62.553)" fill="#323232"/>
          </g>
        </g>
      </g>
      <g id="グループ_304" data-name="グループ 304" transform="translate(50.382 17.99)" style="isolation: isolate">
        <g id="グループ_303" data-name="グループ 303">
          <g id="グループ_302" data-name="グループ 302" clip-path="url(#clip-path-54)">
            <path id="パス_169" data-name="パス 169" d="M422.153,150.9a.568.568,0,1,1-.568-.568.568.568,0,0,1,.568.568" transform="translate(-421.017 -150.332)" fill="#323232"/>
          </g>
        </g>
      </g>
      <g id="グループ_307" data-name="グループ 307" transform="translate(44.625 17.99)" style="isolation: isolate">
        <g id="グループ_306" data-name="グループ 306">
          <g id="グループ_305" data-name="グループ 305" clip-path="url(#clip-path-54)">
            <path id="パス_170" data-name="パス 170" d="M374.042,150.9a.568.568,0,1,1-.568-.568.568.568,0,0,1,.568.568" transform="translate(-372.906 -150.332)" fill="#323232"/>
          </g>
        </g>
      </g>
      <g id="グループ_310" data-name="グループ 310" transform="translate(49.545 15.792)" style="isolation: isolate">
        <g id="グループ_309" data-name="グループ 309">
          <g id="グループ_308" data-name="グループ 308" clip-path="url(#clip-path-56)">
            <path id="パス_171" data-name="パス 171" d="M416.407,133.036a.422.422,0,0,1-.179-.04,2.289,2.289,0,0,0-1.626-.056.424.424,0,1,1-.315-.787,3.119,3.119,0,0,1,2.3.075.424.424,0,0,1-.18.808" transform="translate(-414.021 -131.966)" fill="#323232"/>
          </g>
        </g>
      </g>
      <path id="パス_172" data-name="パス 172" d="M384.8,207.17q-.146,0-.3-.009a2.513,2.513,0,0,1-1.621-.749,3.067,3.067,0,0,1-.739-2.283.375.375,0,0,1,.387-.369l4.56.09a.379.379,0,0,1,.366.312,2.856,2.856,0,0,1-.557,2.213,2.664,2.664,0,0,1-2.1.794m-1.894-2.644c.121,1.77,1.461,1.871,1.623,1.877h.012a2.125,2.125,0,0,0,1.784-.528,1.9,1.9,0,0,0,.4-1.274Z" transform="translate(-336.413 -179.377)" fill="#323232"/>
      <g id="グループ_313" data-name="グループ 313" transform="translate(46.068 22.669)" style="isolation: isolate">
        <g id="グループ_312" data-name="グループ 312">
          <g id="グループ_311" data-name="グループ 311" clip-path="url(#clip-path-57)">
            <path id="パス_173" data-name="パス 173" d="M386.064,190.279H385.4a.424.424,0,1,1,0-.848h.668a.424.424,0,0,1,0,.848" transform="translate(-384.972 -189.431)" fill="#323232"/>
          </g>
        </g>
      </g>
      <path id="パス_174" data-name="パス 174" d="M141.39,111.328a.507.507,0,0,1-.262-.073l-9.206-5.546a.509.509,0,1,1,.525-.872l9.206,5.546a.509.509,0,0,1-.263.945" transform="translate(-115.918 -92.228)" fill="#fff"/>
      <path id="パス_175" data-name="パス 175" d="M116,96.035a.507.507,0,0,1-.262-.073l-.366-.221a.509.509,0,1,1,.525-.872l.366.221a.509.509,0,0,1-.263.945" transform="translate(-101.351 -83.453)" fill="#fff"/>
    </g>
  </g>
</svg>
