<svg xmlns="http://www.w3.org/2000/svg" xmlns:xlink="http://www.w3.org/1999/xlink" width="160" height="100" viewBox="0 0 160 100">
  <defs>
    <clipPath id="clip-path">
      <rect id="Rectangle_155" data-name="Rectangle 155" width="160" height="100" fill="none"/>
    </clipPath>
  </defs>
  <g id="Group_121" data-name="Group 121" clip-path="url(#clip-path)">
    <path id="Path_62" data-name="Path 62" d="M124.927,50a14.019,14.019,0,0,0-5.656,1.191L107.892,39.813A20.581,20.581,0,1,0,77,37.308l-.613-.613-7.258,7.258A29.224,29.224,0,1,0,31.953,89.042h0a29.24,29.24,0,0,0,3.961,2.678l.054.031q1.009.565,2.066,1.05c.057.027.115.052.173.078.7.318,1.418.613,2.149.875l.062.021q1.089.388,2.217.69c.043.012.086.026.13.037.721.19,1.454.348,2.2.483.123.023.245.045.368.066.724.122,1.456.22,2.2.288.121.011.244.018.365.027.772.061,1.55.1,2.338.1s1.565-.041,2.337-.1c.121-.009.244-.016.365-.027.741-.068,1.473-.166,2.2-.288.123-.021.245-.043.368-.066.742-.135,1.475-.293,2.2-.483.044-.011.087-.025.13-.037q1.128-.3,2.217-.69l.062-.021c.731-.262,1.446-.557,2.149-.875.058-.026.116-.051.173-.078q1.056-.485,2.066-1.05l.054-.031A29.24,29.24,0,0,0,68.5,89.042h0a29.208,29.208,0,0,0,3.712-42.05L79.29,39.92A20.484,20.484,0,0,0,104.46,42.5L115.553,53.6a14.056,14.056,0,1,0,9.374-3.6M67.313,84.327a18.384,18.384,0,0,0-34.167,0,24.9,24.9,0,1,1,34.167,0M93.532,8.862a16.215,16.215,0,0,1,10.989,28.16,11.911,11.911,0,0,0-21.888.081,16.215,16.215,0,0,1,10.9-28.241m37.716,62.611a7.433,7.433,0,0,0-12.712-.063,9.741,9.741,0,1,1,12.712.063" fill="#ffda2a"/>
    <path id="Path_63" data-name="Path 63" d="M50.229,50a8.66,8.66,0,1,0,8.661,8.661A8.661,8.661,0,0,0,50.229,50" fill="#ffda2a"/>
    <path id="Path_64" data-name="Path 64" d="M93.6,26.346a5.613,5.613,0,1,0-5.613-5.613A5.613,5.613,0,0,0,93.6,26.346" fill="#ffda2a"/>
    <path id="Path_65" data-name="Path 65" d="M124.874,58.661a3.505,3.505,0,1,0,3.5,3.505,3.5,3.5,0,0,0-3.5-3.505" fill="#ffda2a"/>
  </g>
</svg>
